
<svg width="25px" height="22px" viewBox="0 0 25 22" version="1.1" xmlns="http://www.w3.org/2000/svg" xmlns:xlink="http://www.w3.org/1999/xlink">
    <g id="Dispotool" stroke="none" stroke-width="1" fill="none" fill-rule="evenodd">
        <g id="Dispo-Tool-Inital" transform="translate(-927.000000, -52.000000)">
            <g id="Auftragliste" transform="translate(10.000000, 41.000000)">
                <g id="icon-auftrag-plus" transform="translate(914.990690, 7.000000)">
                    <path d="M15,0 C23.2842712,-1.52179594e-15 30,6.71572875 30,15 C30,23.2842712 23.2842712,30 15,30 C6.71572875,30 1.01453063e-15,23.2842712 0,15 C-1.01453063e-15,6.71572875 6.71572875,1.52179594e-15 15,0 Z" id="Rectangle" fill-rule="nonzero"></path>
                    <g id="box-icon" transform="translate(2.518980, 10.945946)" fill="#FFFFFF" fill-rule="nonzero">
                        <polygon id="Path" points="6.48648649 3.59469725 6.48648649 10.5405405 7.83281494 9.93879232 7.83281494 5.14694017 14.5945946 3.83401349 14.5945946 1.62162162"></polygon>
                        <polygon id="Path" points="12.3081895 1.03776416 4.53749524 2.99479218 6.48648649 3.59469725 14.5945946 1.62162162 10.4593664 0.543150851 10.4147999 0.543150851"></polygon>
                        <polygon id="Path" points="0 8.15415676 6.48648649 10.5405405 6.48648649 3.59469725 4.53749524 2.99479218 4.53749524 4.94118049 2.29920061 4.2080055 2.29920061 2.31489658 2.7190168e-05 1.62162162"></polygon>
                        <polygon id="Path" points="8.37673909 0 2.7190168e-05 1.62162162 2.29920061 2.31489658 10.4593664 0.543150851"></polygon>
                    </g>
                    <g id="box-icon" transform="translate(10.540541, 14.594595)" fill="#FFFFFF" fill-rule="nonzero">
                        <polygon id="Path" points="6.48648649 3.59469725 6.48648649 10.5405405 14.5945946 7.45032356 14.5945946 1.62162162"></polygon>
                        <polygon id="Path" points="12.3081895 1.03776416 4.53749524 2.99479218 6.48648649 3.59469725 14.5945946 1.62162162 10.4593664 0.543150851 10.4147999 0.543150851"></polygon>
                        <polygon id="Path" points="0 8.15415676 6.48648649 10.5405405 6.48648649 3.59469725 4.53749524 2.99479218 4.53749524 4.94118049 2.29920061 4.2080055 2.29920061 2.31489658 2.7190168e-05 1.62162162"></polygon>
                        <polygon id="Path" points="8.37673909 0 2.71901678e-05 1.62162162 2.29920061 2.31489658 10.4593664 0.543150851"></polygon>
                    </g>
                    <line x1="17.4324324" y1="9.32432432" x2="25.5405405" y2="9.32432432" id="Line" stroke="#FFFFFF" stroke-width="2" stroke-linecap="square"></line>
                    <line x1="21.4864865" y1="5.27027027" x2="21.4864865" y2="13.3783784" id="Line-2" stroke="#FFFFFF" stroke-width="2" stroke-linecap="square"></line>
                </g>
            </g>
        </g>
    </g>
</svg>
