
<svg width="22px" height="23px" viewBox="0 0 22 23" version="1.1" xmlns="http://www.w3.org/2000/svg" xmlns:xlink="http://www.w3.org/1999/xlink">
    <g id="Dispotool" stroke="none" stroke-width="1" fill="none" fill-rule="evenodd">
        <g id="Dispo-Tool-Inital" transform="translate(-929.000000, -690.000000)">
            <g id="Fahrzeugmeldungsliste" transform="translate(10.000000, 680.000000)">
                <g id="icon-truck" transform="translate(914.990690, 7.500000)">
                    <path d="M15,0 C23.2842712,-1.52179594e-15 30,6.71572875 30,15 C30,23.2842712 23.2842712,30 15,30 C6.71572875,30 1.01453063e-15,23.2842712 0,15 C-1.01453063e-15,6.71572875 6.71572875,1.52179594e-15 15,0 Z" id="Rectangle" fill-rule="nonzero"></path>
                    <g id="noun-delivery-truck-4582537" transform="translate(4.864865, 4.864891)" fill="#FFFFFF" fill-rule="nonzero">
                        <path d="M15.8363577,10.1351086 L13.9360198,10.1351086 L13.9360198,8.23477064 C13.9354542,7.730982 13.7350979,7.2478256 13.3787683,6.89168417 C13.0225979,6.53536899 12.5394343,6.33501184 12.0356818,6.33443269 L10.4520669,6.33443269 C10.225695,6.33443269 10.0165818,6.45518197 9.90346644,6.65115568 C9.79035109,6.84712939 9.79035109,7.08863157 9.90346644,7.28460166 C10.0165818,7.48057175 10.2257022,7.60132465 10.4520669,7.60132465 L12.0356818,7.60132465 C12.2036572,7.60146604 12.3645634,7.66834686 12.483329,7.78711617 C12.6020947,7.90588548 12.6689794,8.06679524 12.6691206,8.2347634 L12.6691206,16.4695612 L9.10173377,16.4695612 C8.91410345,15.739397 8.4105899,15.1308545 7.72849527,14.8098603 C7.04625585,14.488895 6.2564392,14.488895 5.57419978,14.8098603 C4.89210514,15.1308256 4.38860608,15.739397 4.20096128,16.4695612 L3.16735842,16.4695612 C2.99938302,16.4694198 2.83847688,16.402539 2.71971119,16.2837697 C2.6009455,16.1650004 2.53406084,16.0040906 2.53391967,15.8361224 L2.53391967,12.6688925 C2.53391967,12.4425206 2.41317039,12.2334075 2.21719668,12.1202921 C2.02122297,12.0071767 1.77972079,12.0071767 1.5837507,12.1202921 C1.38778061,12.2334075 1.26702771,12.4425279 1.26702771,12.6688925 L1.26702771,15.8361224 C1.26759328,16.3399111 1.46794953,16.8230675 1.82427919,17.1792089 C2.18044957,17.5355241 2.66361321,17.7358812 3.16736566,17.7364604 L4.20096852,17.7364604 C4.32836355,18.2273629 4.60011188,18.6686757 4.9810482,19.0033524 L0.633436934,19.0033524 C0.407065058,19.0033524 0.19795187,19.1241016 0.0848365156,19.3200753 C-0.0282788385,19.5160491 -0.0282788385,19.7575512 0.0848365156,19.9535213 C0.19795187,20.1494914 0.407072297,20.2702443 0.633436934,20.2702443 L19.6368164,20.2702443 C19.8631883,20.2702443 20.0723015,20.149495 20.1854169,19.9535213 C20.2985322,19.7575476 20.2985322,19.5160454 20.1854169,19.3200753 C20.0723015,19.1241053 19.8631811,19.0033524 19.6368164,19.0033524 L16.8730011,19.0033524 C17.2539012,18.6686721 17.5256677,18.2272543 17.6530808,17.7364604 L18.3699607,17.7364604 C18.8737493,17.7358948 19.3569057,17.5355386 19.7130471,17.1792089 C20.0693623,16.8230385 20.2697195,16.3398749 20.2702986,15.8361224 L20.2702986,14.5692305 C20.2690261,13.3936633 19.80144,12.2666362 18.9701779,11.4352293 C18.138771,10.6039672 17.0117439,10.1363755 15.8361767,10.1351086 L15.8363577,10.1351086 Z M6.65139096,15.8361224 C6.98734175,15.8361224 7.30959563,15.9695986 7.54726456,16.2071408 C7.78480681,16.4448242 7.91828293,16.7670709 7.91828293,17.1030144 C7.91828293,17.438958 7.78480681,17.7612191 7.54726456,17.998888 C7.30958115,18.2364303 6.98733451,18.3699064 6.65139096,18.3699064 C6.31544741,18.3699064 5.99318629,18.2364303 5.75551735,17.998888 C5.51797511,17.7612046 5.38449899,17.438958 5.38449899,17.1030144 C5.38478176,16.7670636 5.51839861,16.4450993 5.75595172,16.2075752 C5.99350482,15.970051 6.31544741,15.836412 6.65139096,15.8361224 Z M8.32169753,19.0033524 C8.70274243,18.6686721 8.97436407,18.2272543 9.1017772,17.7364604 L12.7525979,17.7364604 C12.8799929,18.2273629 13.1517412,18.6686757 13.5326776,19.0033524 L8.32169753,19.0033524 Z M13.9362008,17.1030144 C13.9362008,16.7670636 14.0696769,16.4448097 14.3072191,16.2071408 C14.5449025,15.9695986 14.8671492,15.8361224 15.2030927,15.8361224 C15.5390363,15.8361224 15.8612974,15.9695986 16.0989663,16.2071408 C16.3365086,16.4448242 16.4699847,16.7670709 16.4699847,17.1030144 C16.4699847,17.438958 16.3365086,17.7612191 16.0989663,17.998888 C15.8612829,18.2364303 15.5390363,18.3699064 15.2030927,18.3699064 C14.8671419,18.3696236 14.5451776,18.2360068 14.3076535,17.9984536 C14.0701293,17.7609005 13.9364903,17.438958 13.9362008,17.1030144 Z" id="Shape"></path>
                        <path d="M4.05426243,11.9087573 C4.16384134,11.9910474 4.29731746,12.0355877 4.43433002,12.0355877 C4.57134257,12.0355877 4.70481869,11.9910474 4.81439761,11.9087573 C4.97996953,11.7846128 8.8684519,8.81772193 8.8684519,4.43409474 C8.8684519,2.84990063 8.02332637,1.38606125 6.65139096,0.5939642 C5.27945555,-0.197988067 3.58920448,-0.197988067 2.21726907,0.5939642 C0.845333665,1.38606125 0.000208132252,2.84990063 0.000208132252,4.43409474 C0.000208132252,8.81790291 3.88884253,11.7846019 4.05426243,11.9087573 Z M4.43433002,5.7009867 C4.09837922,5.7009867 3.77612534,5.56751059 3.53845641,5.32996834 C3.30091417,5.09228493 3.16743805,4.77003829 3.16743805,4.43409474 C3.16743805,4.09815118 3.30091417,3.77589006 3.53845641,3.53822113 C3.77613982,3.30067889 4.09838646,3.16720277 4.43433002,3.16720277 C4.77027357,3.16720277 5.09253469,3.30067889 5.33020362,3.53822113 C5.56774587,3.77590454 5.70122198,4.09815118 5.70122198,4.43409474 C5.70122198,4.77003829 5.56774587,5.09229941 5.33020362,5.32996834 C5.09252021,5.56751059 4.77027357,5.7009867 4.43433002,5.7009867 Z" id="Shape"></path>
                    </g>
                    <line x1="16.6216216" y1="8.51351351" x2="24.7297297" y2="8.51351351" id="Line" stroke="#FFFFFF" stroke-width="2" stroke-linecap="square"></line>
                    <line x1="20.6756757" y1="4.45945946" x2="20.6756757" y2="12.5675676" id="Line-2" stroke="#FFFFFF" stroke-width="2" stroke-linecap="square"></line>
                </g>
            </g>
        </g>
    </g>
</svg>
