
<svg width="22px" height="23px" viewBox="0 0 22 23" version="1.1" xmlns="http://www.w3.org/2000/svg" xmlns:xlink="http://www.w3.org/1999/xlink">
    <g id="Dispotool" stroke="none" stroke-width="1" fill="none" fill-rule="evenodd">
        <g id="Dispo-Tool-Inital" transform="translate(-1880.000000, -51.000000)">
            <g id="Buendelungsliste" transform="translate(980.000000, 41.000000)">
                <g id="icon-truck-plus" transform="translate(895.284271, 7.284271)">
                    <path d="M15,0 C23.2842712,-1.52179594e-15 30,6.71572875 30,15 C30,23.2842712 23.2842712,30 15,30 C6.71572875,30 1.01453063e-15,23.2842712 0,15 C-1.01453063e-15,6.71572875 6.71572875,1.52179594e-15 15,0 Z" id="Rectangle" fill-rule="nonzero"></path>
                    <line x1="16.6216216" y1="8.51351351" x2="24.7297297" y2="8.51351351" id="Line" stroke="#FFFFFF" stroke-width="2" stroke-linecap="square"></line>
                    <line x1="20.6756757" y1="4.45945946" x2="20.6756757" y2="12.5675676" id="Line-2" stroke="#FFFFFF" stroke-width="2" stroke-linecap="square"></line>
                    <path d="M18.8008846,14.9999995 L18.8008846,13.0996616 C18.8003191,12.5958729 18.5999628,12.1127165 18.2436332,11.7565751 C17.8874628,11.4002599 17.4042991,11.1999028 16.9005467,11.1993236 L15.3169317,11.1993236 C15.0905598,11.1993236 6.41021181,11.1202873 6.29709646,11.316261 C6.18398111,11.5122347 6.40334233,11.4257264 6.51645768,11.6216965 C6.62957304,11.8176666 6.86222768,11.9991125 7.39878454,12.4662156 L16.9005467,12.4662156 C17.0685221,12.466357 17.2294282,12.5332378 17.3481939,12.6520071 C17.4669596,12.7707764 17.5338443,12.9316862 17.5339854,13.0996543 L17.5339854,21.3344521 L13.9665986,21.3344521 C13.7789683,20.604288 13.2754548,19.9957455 12.5933601,19.6747512 C11.9111207,19.353786 11.1213041,19.353786 10.4390646,19.6747512 C9.75697001,19.9957165 9.25347094,20.604288 9.06582614,21.3344521 L8.03222328,21.3344521 C7.86424789,21.3343107 7.70334175,21.2674299 7.58457605,21.1486606 C7.46581036,21.0298913 7.39892571,20.8689815 7.39878454,20.7010134 L7.39878454,17.5337834 C7.39878454,17.4128332 7.37656832,13.7668604 7.39878454,12.4662156 C7.41814847,11.3325577 7.06660824,11.5240762 6.97534303,11.4713982 C6.71133122,11.2527796 6.4567381,11.2241147 6.29709646,11.316261 C6.10112637,11.4293764 6.13189257,17.3074188 6.13189257,17.5337834 L6.13189257,20.7010134 C6.13245815,21.204802 6.3328144,21.6879584 6.68914405,22.0440998 C7.04531444,22.400415 7.52847808,22.6007722 8.03223052,22.6013513 L9.06583338,22.6013513 C9.19322842,23.0922539 9.46497674,23.5335666 9.84591306,23.8682433 L5.4983018,23.8682433 C5.27192992,23.8682433 5.06281673,23.9889926 4.94970138,24.1849663 C4.83658603,24.38094 4.83658603,24.6224422 4.94970138,24.8184123 C5.06281673,25.0143823 5.27193716,25.1351353 5.4983018,25.1351353 L24.5016813,25.1351353 C24.7280532,25.1351353 24.9371664,25.014386 25.0502817,24.8184123 C25.1633971,24.6224386 25.1633971,24.3809364 25.0502817,24.1849663 C24.9371664,23.9889962 24.7280459,23.8682433 24.5016813,23.8682433 L21.737866,23.8682433 C22.1187661,23.533563 22.3905325,23.0921453 22.5179457,22.6013513 L23.2348255,22.6013513 C23.7386142,22.6007857 24.2217706,22.4004295 24.577912,22.0440998 C24.9342272,21.6879294 25.1345843,21.2047658 25.1351635,20.7010134 L25.1351635,19.4341214 C25.1338909,18.2585542 24.6663049,17.1315272 23.8350428,16.3001202 C23.0036358,15.4688581 21.8766088,15.0012664 20.7010416,14.9999995 L18.8008846,14.9999995 Z M11.5162558,20.7010134 C11.8522066,20.7010134 12.1744605,20.8344895 12.4121294,21.0720317 C12.6496717,21.3097151 12.7831478,21.6319618 12.7831478,21.9679053 C12.7831478,22.3038489 12.6496717,22.62611 12.4121294,22.8637789 C12.174446,23.1013212 11.8521994,23.2347973 11.5162558,23.2347973 C11.1803123,23.2347973 10.8580512,23.1013212 10.6203822,22.8637789 C10.38284,22.6260955 10.2493639,22.3038489 10.2493639,21.9679053 C10.2496466,21.6319545 10.3832635,21.3099902 10.6208166,21.0724661 C10.8583697,20.8349419 11.1803123,20.7013029 11.5162558,20.7010134 Z M13.1865624,23.8682433 C13.5676073,23.533563 13.8392289,23.0921453 13.9666421,22.6013513 L17.6174627,22.6013513 C17.7448578,23.0922539 18.0166061,23.5335666 18.3975424,23.8682433 L13.1865624,23.8682433 Z M17.4324324,10.9459459 L8.51351351,16.6216216 M18.8010656,21.9679053 C18.8010656,21.6319545 18.9345417,21.3097007 19.172084,21.0720317 C19.4097674,20.8344895 19.732014,20.7010134 20.0679576,20.7010134 C20.4039011,20.7010134 20.7261623,20.8344895 20.9638312,21.0720317 C21.2013734,21.3097151 21.3348496,21.6319618 21.3348496,21.9679053 C21.3348496,22.3038489 21.2013734,22.62611 20.9638312,22.8637789 C20.7261478,23.1013212 20.4039011,23.2347973 20.0679576,23.2347973 C19.7320068,23.2345145 19.4100425,23.1008977 19.1725183,22.8633446 C18.9349942,22.6257915 18.8013552,22.3038489 18.8010656,21.9679053 Z" id="Shape" fill="#FFFFFF" fill-rule="nonzero"></path>
                </g>
            </g>
        </g>
    </g>
</svg>
