<?xml version="1.0" encoding="UTF-8" standalone="no"?>
<!DOCTYPE svg PUBLIC "-//W3C//DTD SVG 1.1//EN" "http://www.w3.org/Graphics/SVG/1.1/DTD/svg11.dtd">
<svg width="100%" height="100%" viewBox="0 0 256 256" version="1.1" xmlns="http://www.w3.org/2000/svg" xmlns:xlink="http://www.w3.org/1999/xlink" xml:space="preserve" xmlns:serif="http://www.serif.com/" style="fill-rule:evenodd;clip-rule:evenodd;stroke-miterlimit:1.5;">
    <g transform="matrix(0.495193,0,0,0.495193,-45.3082,-10.6441)">
        <g transform="matrix(1,0,0,1,-64.6163,3.55271e-15)">
            <path d="M263.85,140L166.924,140C162.615,140 158.307,137.848 157.233,133.539C155.08,129.23 156.155,124.922 159.385,121.691L256.307,24.769C259.541,21.539 263.85,20.46 268.155,22.617C272.464,23.691 274.62,28 274.62,32.308L274.62,129.23C274.62,135.691 270.311,140 263.85,140L263.85,140ZM192.772,118.461L253.081,118.461L253.081,58.152L192.772,118.461Z" style="fill-rule:nonzero;"/>
        </g>
        <g transform="matrix(2.01941,0,0,2.01941,91.4961,21.4948)">
            <path d="M0,53.123L0,256L256,256L256,0L55.664,0M-26.438,32.73L-29.709,-3.956L-42.912,53.123" style="fill:none;stroke:black;stroke-width:20px;"/>
        </g>
    </g>
    <g transform="matrix(0.367321,0,0,0.367321,153.994,-66.1734)">
        <g transform="matrix(1,0,0,1,-222,0)">
            <path d="M350,409.23C345.691,409.23 342.461,407.078 339.23,404.921L323.078,387.691L299.383,387.691C295.074,387.691 291.844,386.613 288.613,383.383C285.383,380.152 284.304,376.922 284.304,372.613L285.383,348.922L268.153,333.848C264.922,330.617 263.844,327.387 263.844,323.078C263.844,318.769 265.996,315.539 268.153,312.308L285.383,296.156L285.383,272.461C285.383,268.152 286.461,264.922 289.691,261.691C292.922,258.46 296.152,257.382 300.461,257.382L324.152,258.46L340.304,241.23C343.535,238 346.765,236.922 351.074,236.922C355.383,236.922 358.613,239.074 361.844,241.23L377.996,258.46L401.687,257.382C405.996,257.382 409.226,258.46 412.457,261.691C415.688,264.921 416.766,268.152 416.766,272.461L414.617,296.152L431.847,312.304C435.078,315.534 436.156,318.765 436.156,323.074C436.156,327.382 434.004,330.613 431.847,333.844L414.617,350L415.695,373.691C415.695,377.999 414.617,381.23 411.387,384.461C408.156,387.691 404.926,388.769 400.617,388.769L376.922,387.691L360.77,404.921C357.539,407.078 354.309,409.23 350,409.23L350,409.23ZM329.539,365.077L334.922,367.229L350,383.381L365.078,367.229L370.461,365.077L393.078,366.151L392,343.534L394.152,338.151L410.304,323.073L394.152,307.995L392,302.613L393.078,280L370.461,281.078L365.078,278.925L350,261.691L334.922,277.843L329.539,279.996L306.922,280L308,302.617L305.848,307.999L288.618,323.077L304.77,338.155L306.922,343.538L306.922,366.151L329.539,365.077Z" style="fill-rule:nonzero;"/>
        </g>
        <g transform="matrix(1,0,0,1,-222,0)">
            <path d="M382.31,484.62C380.158,484.62 378.001,483.542 375.849,482.468L350.001,465.234L324.153,482.464C320.923,484.616 316.614,484.616 313.383,482.464C309.078,481.386 306.922,478.155 306.922,473.85L306.922,376.928C306.922,370.468 311.231,366.158 317.692,366.158L328.462,366.158C331.693,366.158 333.845,367.237 336.001,369.389L350.001,384.467L364.001,369.389C366.154,367.237 369.384,366.158 371.54,366.158L382.31,366.158C388.771,366.158 393.08,370.467 393.08,376.928L393.08,473.85C393.08,478.159 390.928,481.39 387.698,483.542C385.541,484.62 384.463,484.62 382.311,484.62L382.31,484.62ZM350.001,441.542C352.153,441.542 354.31,442.62 356.462,443.694L371.54,454.464L371.54,393.081L360.77,404.929C357.539,408.16 354.309,409.238 350,409.238C345.691,409.238 342.461,407.086 339.23,404.929L328.46,393.081L328.46,454.464L343.538,443.694C345.69,442.62 347.847,441.542 349.999,441.542L350.001,441.542Z" style="fill-rule:nonzero;"/>
        </g>
    </g>
    <g transform="matrix(0.408134,0,0,0.300881,-20.4799,64.6234)">
        <path d="M441.2,511.52C446.778,507.708 452.052,503.723 457.044,499.575C492.427,470.208 513.356,432.712 520.532,392.345C524.637,369.209 524.266,345.107 519.538,321.011C515.947,302.711 509.843,284.414 501.278,266.545C497.028,257.674 492.172,248.904 486.712,240.287C483.958,266.662 477.103,298.767 460.099,306.615C441.369,315.267 429.708,308.595 421.693,291.224C415.31,277.38 412.42,255.337 408.923,228.794C401.177,169.81 390.259,86.584 332.247,43.274C339.118,131.04 304.849,179.477 261.318,224.377C235.63,250.869 200.837,273.684 187.513,309.469C184.74,316.93 182.439,324.809 180.626,332.989C172.814,368.469 176.157,406.071 193.126,439.069C209.692,471.257 239.345,499.264 284.419,516.971C268.931,494.006 252.38,460.557 250.181,420.287C245.962,343.51 299.861,257.277 300.029,257.017C303.775,251.001 311.689,249.154 317.701,252.9C321.92,255.521 324.084,260.193 323.717,264.81C322.287,346.931 361.651,373.49 394.799,395.83C433.002,421.584 464.401,442.787 441.201,511.48L441.2,511.52ZM473.423,519.266C458.353,531.782 440.982,542.969 421.29,552.496C417.712,554.598 412.938,555.217 408.903,553.248C402.521,550.139 400.119,542.164 403.212,535.797C441.095,458.078 414.232,439.969 380.431,417.177C348.865,395.892 312.423,371.294 301.388,309.837C288.134,339.204 273.7,380.735 275.802,418.907C279.279,482.278 323.97,526.307 329.447,531.467C333.076,534.44 334.939,539.295 333.865,544.186C332.338,551.123 325.482,555.51 318.545,553.979C304.787,550.955 291.764,547.108 279.467,542.522C225.572,522.479 190.123,489.299 170.337,450.827C150.462,412.222 146.482,368.507 155.521,327.477C157.486,318.555 160.158,309.536 163.517,300.528C178.72,259.653 206.357,231.145 233.927,202.716C277.087,158.196 319.993,113.943 303.462,20.756L303.498,20.756C303.044,18.201 303.365,15.498 304.572,12.979C307.646,6.596 315.326,3.924 321.709,6.998C411.354,50.189 424.999,154.148 434.349,225.468C437.54,249.827 440.196,270.054 445.001,280.472C446.177,283.007 447.536,284.152 449.352,283.312C464.137,276.492 462.911,203.898 462.911,203.695C462.861,199.949 464.439,196.234 467.532,193.648C472.958,189.128 481.04,189.867 485.559,195.312C501.454,214.449 514.407,234.691 524.383,255.492C546.574,301.808 553.985,350.883 545.836,396.742C537.637,442.926 513.746,485.765 473.41,519.252L473.423,519.266Z" style="fill-rule:nonzero;"/>
        <path d="M441.2,511.52C446.778,507.708 452.052,503.723 457.044,499.575C492.427,470.208 513.356,432.712 520.532,392.345C524.637,369.209 524.266,345.107 519.538,321.011C515.947,302.711 509.843,284.414 501.278,266.545C497.028,257.674 492.172,248.904 486.712,240.287C483.958,266.662 477.103,298.767 460.099,306.615C441.369,315.267 429.708,308.595 421.693,291.224C415.31,277.38 412.42,255.337 408.923,228.794C401.177,169.81 390.259,86.584 332.247,43.274C339.118,131.04 304.849,179.477 261.318,224.377C235.63,250.869 200.837,273.684 187.513,309.469C184.74,316.93 182.439,324.809 180.626,332.989C172.814,368.469 176.157,406.071 193.126,439.069C209.692,471.257 239.345,499.264 284.419,516.971C268.931,494.006 252.38,460.557 250.181,420.287C245.962,343.51 299.861,257.277 300.029,257.017C303.775,251.001 311.689,249.154 317.701,252.9C321.92,255.521 324.084,260.193 323.717,264.81C322.287,346.931 361.651,373.49 394.799,395.83C433.002,421.584 464.401,442.787 441.201,511.48L441.2,511.52ZM473.423,519.266C458.353,531.782 440.982,542.969 421.29,552.496C417.712,554.598 412.938,555.217 408.903,553.248C402.521,550.139 400.119,542.164 403.212,535.797C441.095,458.078 414.232,439.969 380.431,417.177C348.865,395.892 312.423,371.294 301.388,309.837C288.134,339.204 273.7,380.735 275.802,418.907C279.279,482.278 323.97,526.307 329.447,531.467C333.076,534.44 334.939,539.295 333.865,544.186C332.338,551.123 325.482,555.51 318.545,553.979C304.787,550.955 291.764,547.108 279.467,542.522C225.572,522.479 190.123,489.299 170.337,450.827C150.462,412.222 146.482,368.507 155.521,327.477C157.486,318.555 160.158,309.536 163.517,300.528C178.72,259.653 206.357,231.145 233.927,202.716C277.087,158.196 319.993,113.943 303.462,20.756L303.498,20.756C303.044,18.201 303.365,15.498 304.572,12.979C307.646,6.596 315.326,3.924 321.709,6.998C411.354,50.189 424.999,154.148 434.349,225.468C437.54,249.827 440.196,270.054 445.001,280.472C446.177,283.007 447.536,284.152 449.352,283.312C464.137,276.492 462.911,203.898 462.911,203.695C462.861,199.949 464.439,196.234 467.532,193.648C472.958,189.128 481.04,189.867 485.559,195.312C501.454,214.449 514.407,234.691 524.383,255.492C546.574,301.808 553.985,350.883 545.836,396.742C537.637,442.926 513.746,485.765 473.41,519.252L473.423,519.266Z" style="fill:none;fill-rule:nonzero;stroke:black;stroke-width:5.7px;stroke-linejoin:round;stroke-miterlimit:2;"/>
    </g>
</svg>
