
<svg width="12px" height="15px" viewBox="0 0 12 15" version="1.1" xmlns="http://www.w3.org/2000/svg" xmlns:xlink="http://www.w3.org/1999/xlink">
    <g id="Symbols" stroke="none" stroke-width="1" fill="none" fill-rule="evenodd">
        <g id="Bill" transform="translate(-6.000000, -5.000000)" fill="#FFFFFF" fill-rule="nonzero">
            <path d="M16.6185155,5.98861642 L8.00345396,5.98861642 C7.40949972,5.98861642 6.92649627,6.47182487 6.92649627,7.06557411 L6.92649627,18.9116587 C6.92649627,19.505413 7.40950972,19.9886164 8.00345396,19.9886164 L16.6190155,19.9886164 C17.2129697,19.9886164 17.6959732,19.505408 17.6959732,18.9116587 L17.6959732,7.06557411 C17.6957779,6.47181987 17.2127647,5.98861642 16.6188155,5.98861642 L16.6185155,5.98861642 Z M10.0009682,17.6786999 C9.8986225,17.7812407 9.7585815,17.8400311 9.6185455,17.8400311 C9.4785045,17.8400311 9.3384635,17.7810457 9.23631777,17.6785049 C9.13924708,17.5818242 9.08006665,17.4413932 9.08006665,17.2962772 C9.08006665,17.1564312 9.13924708,17.0165852 9.23631777,16.9193195 C9.44080923,16.714828 9.80157181,16.7200981 10.0009732,16.9193195 C10.0976539,17.0165852 10.1570293,17.1564312 10.1570293,17.2962772 C10.1570293,17.4413932 10.0976539,17.5818242 10.0009732,17.6786999 L10.0009682,17.6786999 Z M10.0009682,15.5247845 C9.8986225,15.6273253 9.7585815,15.6861157 9.6185455,15.6861157 C9.4785045,15.6861157 9.3384635,15.6271303 9.23631777,15.5245895 C9.13924708,15.4281038 9.08006665,15.2876728 9.08006665,15.1425568 C9.08006665,15.0027108 9.13924708,14.8628648 9.23631777,14.7655991 C9.44080923,14.5663777 9.79607177,14.5663777 10.0009732,14.7655991 C10.0976539,14.8626698 10.1570293,15.0025158 10.1570293,15.1425568 C10.1570293,15.2876728 10.0976539,15.4222488 10.0009732,15.5247845 L10.0009682,15.5247845 Z M10.0009682,13.3708692 C9.8986225,13.4734099 9.7585815,13.5323953 9.6185455,13.5323953 C9.4785045,13.5323953 9.3384635,13.4734099 9.23631777,13.3708692 C9.13924708,13.2741885 9.08006665,13.1337575 9.08006665,12.9886414 C9.08006665,12.8487954 9.13924708,12.7089494 9.23631777,12.6116837 C9.43534419,12.4124623 9.80157181,12.4124623 10.0009732,12.6116837 C10.0976539,12.7089494 10.1570293,12.8487954 10.1570293,12.9886414 C10.1570293,13.1337575 10.0976539,13.2683334 10.0009732,13.3708692 L10.0009682,13.3708692 Z M12.6931875,17.6786999 C12.5910367,17.7812407 12.4508007,17.8400311 12.3109597,17.8400311 C12.1709187,17.8400311 12.0308777,17.7810457 11.928732,17.6785049 C11.8316613,17.5761592 11.7724809,17.4413932 11.7724809,17.2962772 C11.7724809,17.1564312 11.8316613,17.0165852 11.928732,16.9193195 C12.1332235,16.7200981 12.488486,16.7200981 12.6933875,16.9193195 C12.7900682,17.0165852 12.8494436,17.1564312 12.8494436,17.2962772 C12.8494436,17.4413932 12.7900682,17.5761642 12.6931925,17.6786999 L12.6931875,17.6786999 Z M12.6931875,15.5247845 C12.5910367,15.6273253 12.4508007,15.6861157 12.3109597,15.6861157 C12.1709187,15.6861157 12.0308777,15.6271303 11.928732,15.5245895 C11.8316613,15.4222438 11.7724809,15.2876728 11.7724809,15.1425568 C11.7724809,15.0027108 11.8316613,14.8628648 11.928732,14.7655991 C12.1277584,14.5663777 12.493986,14.5663777 12.6933875,14.7655991 C12.7900682,14.8626698 12.8494436,15.0025158 12.8494436,15.1425568 C12.8494436,15.2876728 12.7900682,15.4281038 12.6931925,15.5247845 L12.6931875,15.5247845 Z M12.6931875,13.3708692 C12.5910367,13.4734099 12.4508007,13.5323953 12.3109597,13.5323953 C12.1709187,13.5323953 12.0308777,13.4734099 11.928732,13.3708692 C11.8316613,13.2741885 11.7724809,13.1337575 11.7724809,12.9886414 C11.7724809,12.8487954 11.8316613,12.7089494 11.928732,12.6116837 C12.1277584,12.4124623 12.493986,12.4124623 12.6933875,12.6116837 C12.7900682,12.7089494 12.8494436,12.8487954 12.8494436,12.9886414 C12.8494436,13.1337575 12.7900682,13.2741885 12.6931925,13.3708692 L12.6931875,13.3708692 Z M15.3856067,17.6786999 C15.283261,17.7812407 15.14322,17.8400311 15.003379,17.8400311 C14.863338,17.8400311 14.723297,17.7810457 14.6211512,17.6785049 C14.5240805,17.5761592 14.4649001,17.4413932 14.4649001,17.2962772 C14.4649001,17.1564312 14.5240805,17.0165852 14.6211512,16.9193195 C14.8256427,16.7200981 15.1809052,16.7200981 15.3858067,16.9193195 C15.4822924,17.0165852 15.5418628,17.1564312 15.5418628,17.2962772 C15.5418628,17.4413932 15.4822924,17.5761642 15.3856117,17.6786999 L15.3856067,17.6786999 Z M15.3856067,15.5247845 C15.283261,15.6273253 15.14322,15.6861157 15.003379,15.6861157 C14.863338,15.6861157 14.723297,15.6271303 14.6211512,15.5245895 C14.5240805,15.4222438 14.4649001,15.2876728 14.4649001,15.1425568 C14.4649001,15.0027108 14.5240805,14.8628648 14.6211512,14.7655991 C14.8201777,14.5663777 15.1864053,14.5663777 15.3858067,14.7655991 C15.4822924,14.8626698 15.5418628,15.0025158 15.5418628,15.1425568 C15.5418628,15.2876728 15.4822924,15.4222488 15.3856117,15.5247845 L15.3856067,15.5247845 Z M15.3856067,13.3708692 C15.283261,13.4734099 15.14322,13.5323953 15.003379,13.5323953 C14.863338,13.5323953 14.723297,13.4734099 14.6211512,13.3708692 C14.5240805,13.2741885 14.4649001,13.1337575 14.4649001,12.9886414 C14.4649001,12.8487954 14.5240805,12.7089494 14.6211512,12.6116837 C14.8256427,12.4124623 15.1864053,12.4124623 15.3858067,12.6116837 C15.4822924,12.7089494 15.5418628,12.8487954 15.5418628,12.9886414 C15.5418628,13.1337575 15.4822924,13.2741885 15.3856117,13.3708692 L15.3856067,13.3708692 Z M15.5418578,11.3759549 L9.08031166,11.3759549 L9.08031166,8.14508182 L15.5418578,8.14508182 L15.5418578,11.3759549 Z" id="Shape"></path>
        </g>
    </g>
</svg>
