<?xml version="1.0" encoding="UTF-8" standalone="no"?>
<!DOCTYPE svg PUBLIC "-//W3C//DTD SVG 1.1//EN" "http://www.w3.org/Graphics/SVG/1.1/DTD/svg11.dtd">
<svg width="100%" height="100%" viewBox="0 0 512 512" version="1.1" xmlns="http://www.w3.org/2000/svg" xmlns:xlink="http://www.w3.org/1999/xlink" xml:space="preserve" xmlns:serif="http://www.serif.com/" style="fill-rule:evenodd;clip-rule:evenodd;stroke-linecap:round;stroke-linejoin:round;stroke-miterlimit:1.5;">
    <g transform="matrix(2,0,0,2,0,0)">
        <g transform="matrix(-0.707666,-0.706547,0.869956,-0.870865,108.533,329.57)">
            <path d="M128.765,1.545L128.604,252.567" style="fill:none;stroke:rgb(163,22,33);stroke-width:24.97px;"/>
        </g>
        <g id="Path" transform="matrix(17.6481,0,0,17.0667,0.125315,1.14797e-14)">
            <path d="M7.249,1.436C7.072,1.436 6.928,1.58 6.928,1.757C6.928,1.933 7.072,2.076 7.249,2.076C7.426,2.076 7.571,1.933 7.571,1.757C7.571,1.58 7.427,1.436 7.249,1.436Z" style="fill-rule:nonzero;"/>
        </g>
        <g id="Shape" transform="matrix(17.6481,0,0,17.0667,0.125315,1.14797e-14)">
            <path d="M10.249,2.998L11.182,1.772C11.224,1.718 11.238,1.645 11.224,1.58C11.208,1.512 11.163,1.453 11.1,1.423C10.988,1.364 8.288,-0 7.282,-0L7.216,-0C6.211,-0 3.511,1.364 3.398,1.423C3.335,1.453 3.29,1.512 3.274,1.58C3.26,1.645 3.274,1.718 3.316,1.772L4.247,2.998L10.249,2.998ZM7.249,0.967C7.685,0.967 8.04,1.322 8.04,1.757C8.04,2.192 7.685,2.545 7.249,2.545C6.813,2.545 6.459,2.192 6.459,1.757C6.459,1.322 6.813,0.967 7.249,0.967Z" style="fill-rule:nonzero;"/>
        </g>
        <g id="Path1" serif:id="Path" transform="matrix(17.6481,0,0,17.0667,0.125315,1.14797e-14)">
            <path d="M2.105,13.261C2.105,13.015 1.906,12.813 1.657,12.813L0,12.813L0,13.711L1.657,13.711C1.906,13.711 2.105,13.509 2.105,13.261Z" style="fill-rule:nonzero;"/>
        </g>
        <g id="Path2" serif:id="Path" transform="matrix(17.6481,0,0,17.0667,0.125315,1.14797e-14)">
            <path d="M12.841,12.813C12.594,12.813 12.393,13.015 12.393,13.262C12.393,13.509 12.594,13.71 12.841,13.71L14.498,13.71L14.498,12.813L12.841,12.813Z" style="fill-rule:nonzero;"/>
        </g>
        <g id="Shape1" serif:id="Shape" transform="matrix(17.6481,0,0,17.0667,0.125315,1.14797e-14)">
            <path d="M11.925,13.261C11.925,12.757 12.335,12.345 12.842,12.345L14.463,12.345C14.29,11.173 13.442,10.184 12.286,9.855L9.216,8.848C9.21,8.823 8.993,7.857 8.993,7.833C9.396,7.458 9.72,7.01 9.94,6.516C10.352,6.358 10.22,5.912 10.385,5.168C10.414,4.922 10.25,4.69 10.013,4.638L10.013,3.466L4.498,3.466L4.498,4.634C4.395,4.655 4.299,4.709 4.228,4.791C3.992,5.058 4.181,5.339 4.259,6.136C4.285,6.314 4.402,6.455 4.561,6.516C4.781,7.015 5.1,7.46 5.503,7.835C5.501,7.835 5.501,7.838 5.501,7.84L5.281,8.848L2.222,9.853C1.06,10.181 0.209,11.173 0.035,12.345L1.657,12.345C2.164,12.345 2.574,12.757 2.574,13.261C2.574,13.767 2.164,14.18 1.657,14.18L0,14.18L0,14.766C0,14.895 0.106,15 0.235,15L14.264,15C14.393,15 14.499,14.895 14.499,14.766L14.499,14.18L12.842,14.18C12.335,14.18 11.925,13.767 11.925,13.261L11.925,13.261ZM4.959,6.255C4.934,6.15 4.833,6.068 4.723,6.068L4.591,5.093C4.615,5.086 4.977,5.149 4.966,4.858L4.966,4.432C6.099,4.932 7.169,5.118 7.237,5.051C7.801,5.107 9.026,4.659 9.544,4.425C9.543,4.449 9.534,4.874 9.534,4.847C9.514,5.133 9.878,5.093 9.921,5.107L9.769,6.077C9.666,6.077 9.579,6.148 9.546,6.241C8.995,7.577 7.83,8.072 7.807,8.091C6.75,8.63 5.413,7.344 4.959,6.255L4.959,6.255ZM5.909,8.168C6.315,8.459 6.759,8.695 7.249,8.695C7.747,8.695 8.175,8.46 8.588,8.163L8.766,8.986L7.249,11.248L5.731,8.981L5.909,8.168ZM7.484,14.129L7.016,14.129L7.016,13.537L7.484,13.537L7.484,14.129ZM7.484,13.059L7.016,13.059L7.016,12.467L7.484,12.467L7.484,13.059ZM11.206,13.208C11.16,13.289 11.07,13.334 10.978,13.324L10.38,13.259L10.137,13.809C10.1,13.894 10.015,13.949 9.923,13.949C9.83,13.949 9.746,13.894 9.708,13.809L9.465,13.259L8.867,13.324C8.777,13.334 8.686,13.288 8.639,13.208C8.593,13.128 8.598,13.027 8.653,12.952L9.008,12.467L8.653,11.981C8.598,11.906 8.593,11.806 8.639,11.726C8.686,11.645 8.776,11.601 8.868,11.61L9.465,11.675L9.708,11.125C9.746,11.04 9.83,10.985 9.923,10.985C10.015,10.985 10.1,11.04 10.137,11.125L10.38,11.675L10.978,11.61C11.071,11.601 11.16,11.645 11.206,11.726C11.253,11.806 11.247,11.906 11.193,11.981L10.837,12.467L11.193,12.952C11.247,13.027 11.253,13.128 11.206,13.208L11.206,13.208Z" style="fill-rule:nonzero;"/>
        </g>
        <g id="Path3" serif:id="Path" transform="matrix(17.6481,0,0,17.0667,0.125315,1.14797e-14)">
            <path d="M10.5,12.134L10.26,12.16C10.016,12.186 9.984,11.897 9.923,11.8L9.825,12.021C9.726,12.246 9.46,12.129 9.345,12.134L9.488,12.328C9.548,12.411 9.548,12.523 9.488,12.605L9.345,12.8C9.593,12.774 9.588,12.773 9.611,12.773C9.828,12.773 9.856,13.025 9.923,13.134L10.02,12.913C10.119,12.689 10.385,12.805 10.5,12.8L10.357,12.605C10.213,12.407 10.447,12.236 10.5,12.134L10.5,12.134Z" style="fill-rule:nonzero;"/>
        </g>
        <g transform="matrix(0.5,0,0,0.5,0,0)">
            <path d="M474.493,37.507L37.509,474.492L474.493,37.507Z" style="fill:none;stroke:rgb(163,22,33);stroke-width:56px;"/>
        </g>
    </g>
</svg>
