
<svg width="16px" height="14px" viewBox="0 0 16 14" version="1.1" xmlns="http://www.w3.org/2000/svg" xmlns:xlink="http://www.w3.org/1999/xlink">
    <g id="Symbols" stroke="none" stroke-width="1" fill="none" fill-rule="evenodd">
        <g id="noun-danger-sign-802321" transform="translate(0.628080, 0.000000)" fill="#000000" fill-rule="nonzero">
            <path d="M14.3142923,13.117739 L0.685707694,13.117739 C0.447165117,13.117739 0.208739357,12.9814123 0.0894096597,12.7769806 C-0.0298032199,12.5725489 -0.0298032199,12.3000123 0.0894096597,12.0955806 L6.90370197,0.340758422 C7.02291485,0.136326732 7.24446039,0 7.5,0 C7.75553961,0 7.9599713,0.136326732 8.09629803,0.340758422 L14.9105903,12.0955806 C15.0298032,12.3000123 15.0298032,12.5725489 14.9105903,12.7769806 C14.7913775,12.9814123 14.5528349,13.117739 14.3142923,13.117739 Z M1.86118991,11.7548222 L13.1218715,11.7548222 L7.5,2.0443169 L1.86118991,11.7548222 Z" id="Shape"></path>
            <path d="M7.5,9.19936762 C7.12524751,9.19936762 6.81859997,8.89272009 6.81859997,8.5179676 L6.81859997,5.28122986 C6.81859997,4.90647737 7.12524751,4.59982983 7.5,4.59982983 C7.87475249,4.59982983 8.18140003,4.90647737 8.18140003,5.28122986 L8.18140003,8.5179676 C8.18140003,8.89272009 7.87475249,9.19936762 7.5,9.19936762 Z" id="Path"></path>
            <path d="M8.18134162,10.3920805 C8.18134162,10.7684393 7.87630033,11.0734805 7.49994159,11.0734805 C7.12358285,11.0734805 6.81854156,10.7684393 6.81854156,10.3920805 C6.81854156,10.0157218 7.12358285,9.71056367 7.49994159,9.71056367 C7.87630033,9.71056367 8.18134162,10.0157218 8.18134162,10.3920805" id="Path"></path>
        </g>
    </g>
</svg>
