
<svg width="12px" height="16px" viewBox="0 0 12 16" version="1.1" xmlns="http://www.w3.org/2000/svg" xmlns:xlink="http://www.w3.org/1999/xlink">
    <g id="Symbols" stroke="none" stroke-width="1" fill="none" fill-rule="evenodd">
        <g id="buendelung/compact" transform="translate(-7.000000, -10.000000)" fill="#FFFFFF" fill-rule="nonzero">
            <g id="action-icons" transform="translate(3.000000, 8.000000)">
                <g id="Group" transform="translate(4.400000, 2.400000)">
                    <path d="M0.658823529,2.76363636 L1.33867128,14.1078834 C1.37186571,14.7244815 1.88584199,15.2 2.48278509,15.2 L8.71721491,15.2 C9.33067973,15.2 9.82813725,14.7243557 9.86132872,14.1078834 L10.5411765,2.76363636 L0.658823529,2.76363636 Z M7.60623336,9.98590547 C7.85489994,10.2500845 7.85489994,10.6729018 7.60623336,10.9370682 C7.49011059,11.0780063 7.32437235,11.1308427 7.15851863,11.1308427 C6.99266491,11.1308427 6.84345134,11.060435 6.7108039,10.9370682 L5.59988156,9.73916558 L4.47243752,10.91939 C4.35631475,11.0603281 4.1905765,11.1131645 4.02472279,11.1131645 C3.85886611,11.1131645 3.69313379,11.0427568 3.57700806,10.91939 C3.32834148,10.655211 3.32834148,10.2323937 3.57700806,9.96822727 L4.68793039,8.7880028 L3.57700806,7.59022596 C3.32834148,7.32604693 3.32834148,6.90322963 3.57700806,6.63906319 C3.82567464,6.37488416 4.22366434,6.37488416 4.47231908,6.63906319 L5.59988156,7.83684003 L6.7108039,6.65661556 C6.95947048,6.39243654 7.35746018,6.39243654 7.60611492,6.65661556 C7.8547815,6.92079459 7.8547815,7.34361189 7.60611492,7.60777834 L6.49519259,8.80555518 L7.60623336,9.98590547 Z" id="Shape"></path>
                    <path d="M10.8387009,0.853517651 L7.94831965,0.853517651 L7.84980352,0.261340073 C7.83342258,0.121981303 7.71841056,0 7.5706393,0 L3.67855718,0 C3.53078299,0 3.41577419,0.121984413 3.38301466,0.278714431 L3.30087977,0.85350521 L0.361290323,0.85350521 C0.164258065,0.85350521 0,1.027734 0,1.23669906 L0,1.68953342 C0,1.89851092 0.164269795,2.07272727 0.361290323,2.07272727 L10.8387097,2.07272727 C11.0357419,2.07272727 11.2,1.89849848 11.2,1.68953342 L11.2,1.23669906 C11.2,1.02772156 11.0357302,0.85350521 10.8387097,0.85350521 L10.8387009,0.853517651 Z" id="Path"></path>
                </g>
            </g>
        </g>
    </g>
</svg>
