
<svg width="10px" height="17px" viewBox="0 0 10 17" version="1.1" xmlns="http://www.w3.org/2000/svg" xmlns:xlink="http://www.w3.org/1999/xlink">
    <g id="Symbols" stroke="none" stroke-width="1" fill="none" fill-rule="evenodd">
        <g id="drag" fill="#393E46" fill-rule="nonzero">
            <path d="M3.06903913,3.11413788 C3.06903913,3.72942876 2.57021346,4.22848913 1.95490125,4.22848913 C1.33939701,4.22848913 0.84055,3.72945543 0.84055,3.11413788 C0.84055,2.49882034 1.33937567,2 1.95490125,2 C2.57019212,2 3.06903913,2.49882567 3.06903913,3.11413788" id="Path"></path>
            <path d="M8.48157185,3.11413788 C8.48157185,3.72942876 7.98274618,4.22848913 7.36722061,4.22848913 C6.75192973,4.22848913 6.25308272,3.72945543 6.25308272,3.11413788 C6.25308272,2.49882034 6.7519084,2 7.36722061,2 C7.98272484,2 8.48157185,2.49882567 8.48157185,3.11413788" id="Path"></path>
            <path d="M3.06903913,8.5 C3.06903913,9.11529087 2.57021346,9.61413788 1.95490125,9.61413788 C1.33939701,9.61413788 0.84055,9.11531221 0.84055,8.5 C0.84055,7.88468779 1.33937567,7.38586212 1.95490125,7.38586212 C2.57019212,7.38586212 3.06903913,7.88468779 3.06903913,8.5" id="Path"></path>
            <path d="M8.48157185,8.5 C8.48157185,9.11529087 7.98274618,9.61413788 7.36722061,9.61413788 C6.75192973,9.61413788 6.25308272,9.11531221 6.25308272,8.5 C6.25308272,7.88468779 6.7519084,7.38586212 7.36722061,7.38586212 C7.98272484,7.38586212 8.48157185,7.88468779 8.48157185,8.5" id="Path"></path>
            <path d="M3.06903913,13.8858621 C3.06903913,14.501153 2.57021346,15 1.95490125,15 C1.33939701,15 0.84055,14.5011743 0.84055,13.8858621 C0.84055,13.2705499 1.33937567,12.7715109 1.95490125,12.7715109 C2.57019212,12.7715109 3.06903913,13.2705446 3.06903913,13.8858621" id="Path"></path>
            <path d="M8.48157185,13.8858621 C8.48157185,14.501153 7.98274618,15 7.36722061,15 C6.75192973,15 6.25308272,14.5011743 6.25308272,13.8858621 C6.25308272,13.2705499 6.7519084,12.7715109 7.36722061,12.7715109 C7.98272484,12.7715109 8.48157185,13.2705446 8.48157185,13.8858621" id="Path"></path>
        </g>
    </g>
</svg>
