<?xml version="1.0" encoding="UTF-8" standalone="no"?>
<!DOCTYPE svg PUBLIC "-//W3C//DTD SVG 1.1//EN" "http://www.w3.org/Graphics/SVG/1.1/DTD/svg11.dtd">
<svg width="100%" height="100%" viewBox="0 0 256 256" version="1.1" xmlns="http://www.w3.org/2000/svg" xmlns:xlink="http://www.w3.org/1999/xlink" xml:space="preserve" xmlns:serif="http://www.serif.com/" style="fill-rule:evenodd;clip-rule:evenodd;stroke-linecap:square;stroke-linejoin:round;stroke-miterlimit:1.5;">
    <g transform="matrix(1.07335,0,0,1.27793,-22.4976,-68.011)">
        <path d="M259.466,53.239L259.466,187.134L-4.122,187.134L-4.122,53.239L259.466,53.239ZM250.615,60.673L4.729,60.673C4.729,60.673 4.729,179.7 4.729,179.7L250.615,179.7L250.615,60.673Z"/>
    </g>
    <g transform="matrix(-0.707107,0.707107,-0.707107,-0.707107,102.708,226.265)">
        <path d="M0,-29.741C16.415,-29.741 29.741,-16.415 29.741,0C29.741,16.415 16.415,29.741 -0,29.741C-16.415,29.741 -29.741,16.415 -29.741,0C-29.741,-16.415 -16.415,-29.741 0,-29.741ZM0,-11.741C-6.48,-11.741 -11.741,-6.48 -11.741,0C-11.741,6.48 -6.48,11.741 0,11.741C6.48,11.741 11.741,6.48 11.741,-0C11.741,-6.48 6.48,-11.741 0,-11.741Z"/>
    </g>
    <g transform="matrix(-0.707107,0.707107,-0.707107,-0.707107,0,226.265)">
        <path d="M0,-29.741C16.415,-29.741 29.741,-16.415 29.741,0C29.741,16.415 16.415,29.741 0,29.741C-16.415,29.741 -29.741,16.415 -29.741,0C-29.741,-16.415 -16.415,-29.741 0,-29.741ZM0,-11.741C-6.48,-11.741 -11.741,-6.48 -11.741,0C-11.741,6.48 -6.48,11.741 0,11.741C6.48,11.741 11.741,6.48 11.741,-0C11.741,-6.48 6.48,-11.741 0,-11.741Z"/>
    </g>
    <g transform="matrix(-0.707107,0.707107,-0.707107,-0.707107,167.893,226.265)">
        <path d="M-0,-29.741C16.415,-29.741 29.741,-16.415 29.741,0C29.741,16.415 16.415,29.741 -0,29.741C-16.415,29.741 -29.741,16.415 -29.741,0C-29.741,-16.415 -16.415,-29.741 -0,-29.741ZM0,-11.741C-6.48,-11.741 -11.741,-6.48 -11.741,0C-11.741,6.48 -6.48,11.741 0,11.741C6.48,11.741 11.741,6.48 11.741,0C11.741,-6.48 6.48,-11.741 0,-11.741Z"/>
    </g>
    <g transform="matrix(0.968545,0,0,1,2.84217e-14,-11)">
        <path d="M204.047,196.529L0,196.529" style="fill:none;stroke:black;stroke-width:18.29px;"/>
    </g>
    <g transform="matrix(1,0,0,1,33,0)">
        <path d="M138.158,32.586L138.158,134.606" style="fill:none;stroke:black;stroke-width:9.5px;stroke-linecap:round;"/>
        <g transform="matrix(1,0,0,1,26.964,-8.31749)">
            <path d="M111.194,23.234L123.574,51.264L98.814,51.264L111.194,23.234Z"/>
        </g>
        <g transform="matrix(1,0,0,-1,26.964,171.855)">
            <path d="M111.194,23.234L98.814,51.264L123.574,51.264L111.194,23.234Z"/>
        </g>
        <g transform="matrix(114.568,0,0,114.568,120.458,131.153)">
        </g>
        <text x="33.413px" y="131.153px" style="font-family:'ArialRoundedMTBold', 'Arial Rounded MT Bold', sans-serif;font-size:114.568px;stroke:black;stroke-width:3px;stroke-linecap:butt;stroke-miterlimit:2;">H</text>
    </g>
</svg>
