<?xml version="1.0" encoding="UTF-8" standalone="no"?>
<!DOCTYPE svg PUBLIC "-//W3C//DTD SVG 1.1//EN" "http://www.w3.org/Graphics/SVG/1.1/DTD/svg11.dtd">
<svg width="100%" height="100%" viewBox="0 0 256 256" version="1.1" xmlns="http://www.w3.org/2000/svg" xmlns:xlink="http://www.w3.org/1999/xlink" xml:space="preserve" xmlns:serif="http://www.serif.com/" style="fill-rule:evenodd;clip-rule:evenodd;stroke-linecap:square;stroke-linejoin:round;stroke-miterlimit:1.5;">
    <g transform="matrix(0.711848,0,0,1.27793,37.1168,-68.011)">
        <path d="M259.466,53.239L259.466,187.134L-4.122,187.134L-4.122,53.239L259.466,53.239ZM246.12,60.673L9.224,60.673L9.224,179.7L246.12,179.7L246.12,60.673Z"/>
    </g>
    <g transform="matrix(0.834324,0,0,1,42.8001,-11)">
        <path d="M204.047,196.529L0,196.529" style="fill:none;stroke:black;stroke-width:19.55px;"/>
    </g>
    <g transform="matrix(1,0,0,1,33,0)">
        <path d="M138.158,32.586L138.158,134.606" style="fill:none;stroke:black;stroke-width:9.5px;stroke-linecap:round;"/>
        <g transform="matrix(1,0,0,1,26.964,-8.31749)">
            <path d="M111.194,23.234L123.574,51.264L98.814,51.264L111.194,23.234Z"/>
        </g>
        <g transform="matrix(1,0,0,-1,26.964,171.855)">
            <path d="M111.194,23.234L98.814,51.264L123.574,51.264L111.194,23.234Z"/>
        </g>
        <g transform="matrix(114.568,0,0,114.568,120.458,131.153)">
        </g>
        <text x="33.413px" y="131.153px" style="font-family:'ArialRoundedMTBold', 'Arial Rounded MT Bold', sans-serif;font-size:114.568px;stroke:black;stroke-width:3px;stroke-linecap:butt;stroke-miterlimit:2;">H</text>
    </g>
    <g transform="matrix(1,0,0,1,-121.166,0)">
        <path d="M167.893,196.529L167.893,256" style="fill:none;stroke:black;stroke-width:26px;stroke-linecap:butt;"/>
    </g>
    <g transform="matrix(1,0,0,1,12.5105,0)">
        <path d="M167.893,196.529L167.893,256" style="fill:none;stroke:black;stroke-width:26px;stroke-linecap:butt;"/>
    </g>
    <g transform="matrix(1,0,0,1,-92.4177,0)">
        <path d="M167.893,196.529L167.893,256" style="fill:none;stroke:black;stroke-width:26px;stroke-linecap:butt;"/>
    </g>
    <g transform="matrix(1,0,0,1,41.2592,0)">
        <path d="M167.893,196.529L167.893,256" style="fill:none;stroke:black;stroke-width:26px;stroke-linecap:butt;"/>
    </g>
</svg>
