<?xml version="1.0" encoding="UTF-8" standalone="no"?>
<!DOCTYPE svg PUBLIC "-//W3C//DTD SVG 1.1//EN" "http://www.w3.org/Graphics/SVG/1.1/DTD/svg11.dtd">
<svg width="100%" height="100%" viewBox="0 0 37 37" version="1.1" xmlns="http://www.w3.org/2000/svg" xmlns:xlink="http://www.w3.org/1999/xlink" xml:space="preserve" xmlns:serif="http://www.serif.com/" style="fill-rule:evenodd;clip-rule:evenodd;stroke-linejoin:round;stroke-miterlimit:2;">
    <g transform="matrix(1,0,0,1,6,6.00003)">
        <g id="icon-fzm">
            <g id="noun-delivery-truck-4582537">
                <path id="Shape" d="M19.532,12.5L17.188,12.5L17.188,10.156C17.187,9.535 16.94,8.939 16.5,8.5C16.389,8.388 16.267,8.289 16.138,8.203C15.757,7.951 15.308,7.813 14.844,7.812L1.563,7.812C1.283,7.812 2.093,7.961 1.953,8.203C1.814,8.445 2.595,9.133 2.735,9.375C2.874,9.617 2.846,9.375 3.125,9.375L14.844,9.375C15.051,9.375 15.25,9.458 15.396,9.604C15.543,9.751 15.625,9.949 15.625,10.156L15.625,20.312L11.225,20.312C10.994,19.412 10.373,18.661 9.532,18.265C8.69,17.87 7.716,17.87 6.875,18.265C6.034,18.661 5.413,19.412 5.181,20.312L3.906,20.312C3.699,20.312 3.501,20.23 3.354,20.083C3.208,19.937 3.125,19.738 3.125,19.531L3.125,9.375C3.125,9.096 2.976,9.514 2.735,9.375C2.493,9.235 2.492,8.064 2.25,8.203C2.008,8.343 1.563,7.533 1.563,7.812L1.563,19.531C1.563,20.153 1.81,20.748 2.25,21.188C2.689,21.627 3.285,21.874 3.906,21.875L5.181,21.875C5.338,22.48 5.673,23.025 6.143,23.437L0.781,23.437C0.502,23.437 0.244,23.586 0.105,23.828C-0.035,24.07 -0.035,24.368 0.105,24.609C0.244,24.851 0.502,25 0.781,25L24.219,25C24.498,25 24.756,24.851 24.895,24.609C25.035,24.368 25.035,24.07 24.895,23.828C24.756,23.586 24.498,23.437 24.219,23.437L20.81,23.437C21.28,23.025 21.615,22.48 21.772,21.875L22.656,21.875C23.278,21.874 23.874,21.627 24.313,21.188C24.752,20.748 24.999,20.153 25,19.531L25,17.969C24.998,16.519 24.422,15.129 23.397,14.103C22.371,13.078 20.981,12.502 19.531,12.5L19.532,12.5ZM8.203,19.531C8.618,19.531 9.015,19.696 9.308,19.989C9.601,20.282 9.766,20.679 9.766,21.094C9.766,21.508 9.601,21.906 9.308,22.199C9.015,22.492 8.618,22.656 8.203,22.656C7.789,22.656 7.392,22.492 7.098,22.199C6.806,21.905 6.641,21.508 6.641,21.094C6.641,20.679 6.806,20.282 7.099,19.989C7.392,19.696 7.789,19.532 8.203,19.531ZM10.263,23.437C10.733,23.025 11.068,22.48 11.226,21.875L15.728,21.875C15.885,22.48 16.22,23.025 16.69,23.437L10.263,23.437ZM17.188,21.094C17.188,20.679 17.353,20.282 17.646,19.989C17.939,19.696 18.336,19.531 18.75,19.531C19.165,19.531 19.562,19.696 19.855,19.989C20.148,20.282 20.313,20.679 20.313,21.094C20.313,21.508 20.148,21.906 19.855,22.199C19.562,22.492 19.165,22.656 18.75,22.656C18.336,22.656 17.939,22.491 17.646,22.198C17.353,21.905 17.188,21.508 17.188,21.094Z" style="fill:rgb(57,62,70);fill-rule:nonzero;stroke:black;stroke-width:1px;"/>
            </g>
        </g>
    </g>
</svg>
