<?xml version="1.0" encoding="UTF-8" standalone="no"?>
<!DOCTYPE svg PUBLIC "-//W3C//DTD SVG 1.1//EN" "http://www.w3.org/Graphics/SVG/1.1/DTD/svg11.dtd">
<svg width="100%" height="100%" viewBox="0 0 256 256" version="1.1" xmlns="http://www.w3.org/2000/svg" xmlns:xlink="http://www.w3.org/1999/xlink" xml:space="preserve" xmlns:serif="http://www.serif.com/" style="fill-rule:evenodd;clip-rule:evenodd;stroke-linecap:round;stroke-linejoin:round;stroke-miterlimit:1.5;">
    <g transform="matrix(1,0,0,1,10.0843,-9.18797)">
        <g id="Layer1">
            <g transform="matrix(1,0,0,1,0,6.81136)">
                <path d="M18.479,71.353L68.197,58.843L18.479,71.353Z" style="fill:none;stroke:black;stroke-width:18px;"/>
            </g>
            <g transform="matrix(1,0,0,1,0,6.81136)">
                <path d="M68.197,58.843L68.197,202.308" style="fill:none;stroke:black;stroke-width:18px;"/>
            </g>
            <g transform="matrix(1,0,0,1,0,6.81136)">
                <path d="M68.197,58.843L117.916,58.843L167.634,46.256" style="fill:none;stroke:black;stroke-width:18px;"/>
            </g>
            <g transform="matrix(1,0,0,1,0,6.81136)">
                <path d="M117.916,58.843L117.916,202.308" style="fill:none;stroke:black;stroke-width:18px;"/>
            </g>
            <g transform="matrix(1,0,0,1,0,6.81136)">
                <path d="M18.479,214.497L68.197,201.987L117.916,201.987L167.634,189.4L167.634,46.256" style="fill:none;stroke:black;stroke-width:18px;"/>
            </g>
            <g transform="matrix(1,0,0,1,0,6.81136)">
                <path d="M18.479,71.353L18.479,214.497" style="fill:none;stroke:black;stroke-width:18px;"/>
            </g>
            <g transform="matrix(1,0,0,1,49.7183,-5.77564)">
                <path d="M117.916,58.843L167.634,81.642" style="fill:none;stroke:black;stroke-width:18px;"/>
            </g>
            <g transform="matrix(1,0,0,1,49.7183,136.184)">
                <path d="M117.916,58.843L167.634,81.642" style="fill:none;stroke:black;stroke-width:18px;"/>
            </g>
            <g transform="matrix(1,0,0,1,0,6.81136)">
                <path d="M217.352,69.055L217.352,211.015" style="fill:none;stroke:black;stroke-width:18px;"/>
            </g>
        </g>
    </g>
</svg>
