<?xml version="1.0" encoding="UTF-8"?>
<svg width="37px" height="37px" viewBox="0 0 37 37" version="1.1" xmlns="http://www.w3.org/2000/svg" xmlns:xlink="http://www.w3.org/1999/xlink">
    <title>icon fzm</title>
    <g id="icon-fzm" stroke="none" stroke-width="1" fill="none" fill-rule="evenodd">
        <g id="noun-delivery-truck-4582537" transform="translate(6.000000, 6.000032)" fill="#393E46" fill-rule="nonzero">
            <path d="M19.5315079,12.4999673 L17.1877577,12.4999673 L17.1877577,10.1562171 C17.1870602,9.5348778 16.9399541,8.9389849 16.5004809,8.49974381 C16.0612041,8.06028842 15.4653023,7.81318127 14.8440076,7.81246698 L12.8908825,7.81246698 C12.6116905,7.81246698 12.3537842,7.9613911 12.2142753,8.203092 C12.0747663,8.44479291 12.0747663,8.74264561 12.2142753,8.98434205 C12.3537842,9.22603849 12.6116994,9.37496707 12.8908825,9.37496707 L14.8440076,9.37496707 C15.0511772,9.37514145 15.2496281,9.45762779 15.3961058,9.60410994 C15.5425835,9.7505921 15.6250746,9.94904746 15.6252487,10.1562082 L15.6252487,20.312467 L11.2254716,20.312467 C10.9940609,19.411923 10.3730609,18.6613873 9.53181083,18.2654944 C8.69038221,17.8696372 7.71627501,17.8696372 6.87484639,18.2654944 C6.03359634,18.6613516 5.41261416,19.411923 5.18118558,20.312467 L3.90640871,20.312467 C3.69923906,20.3122844 3.50078815,20.2297981 3.35431047,20.0833159 C3.20783278,19.9368338 3.1253417,19.7383784 3.1251676,19.5312177 L3.1251676,15.6249674 C3.1251676,15.3457755 2.97624348,15.0878692 2.73454257,14.9483603 C2.49284167,14.8088513 2.19498897,14.8088513 1.95329253,14.9483603 C1.71159608,15.0878692 1.5626675,15.3457844 1.5626675,15.6249674 L1.5626675,19.5312177 C1.56336505,20.152557 1.81047109,20.7484499 2.24994433,21.187691 C2.68922114,21.6271464 3.28512296,21.8742535 3.90641764,21.8749678 L5.1811945,21.8749678 C5.33831505,22.4804143 5.67347132,23.0247 6.14329277,23.4374679 L0.781238886,23.4374679 C0.502046905,23.4374679 0.244140639,23.586392 0.104631703,23.8280929 C-0.0348772342,24.0697938 -0.0348772342,24.3676465 0.104631703,24.609343 C0.244140639,24.8510394 0.502055833,24.999968 0.781238886,24.999968 L24.2187403,24.999968 C24.4979323,24.999968 24.7558385,24.8510439 24.8953475,24.609343 C25.0348564,24.3676421 25.0348564,24.0697894 24.8953475,23.8280929 C24.7558385,23.5863965 24.4979233,23.4374679 24.2187403,23.4374679 L20.8100347,23.4374679 C21.2798115,23.0246956 21.6149901,22.4802804 21.772133,21.8749678 L22.6562848,21.8749678 C23.2776241,21.8742703 23.873517,21.6271642 24.3127581,21.187691 C24.7522135,20.7484142 24.9993207,20.1525124 25.000035,19.5312177 L25.000035,17.9687176 C24.9984655,16.5188514 24.421776,15.1288513 23.3965527,14.1034495 C22.3711509,13.0782262 20.9811508,12.5015298 19.5312846,12.4999673 L19.5315079,12.4999673 Z M8.20338218,19.5312177 C8.61772149,19.5312177 9.01516795,19.6958382 9.30829296,19.988807 C9.60126173,20.2819499 9.76588228,20.6793874 9.76588228,21.0937178 C9.76588228,21.5080482 9.60126173,21.9055035 9.30829296,22.1986285 C9.01515009,22.4915973 8.61771256,22.6562179 8.20338218,22.6562179 C7.7890518,22.6562179 7.39159642,22.4915973 7.0984714,22.1986285 C6.80550264,21.9054857 6.64088209,21.5080482 6.64088209,21.0937178 C6.64123084,20.6793785 6.80602496,20.2822891 7.09900712,19.9893427 C7.39198928,19.6963963 7.7890518,19.5315748 8.20338218,19.5312177 Z M10.2634269,23.4374679 C10.7333823,23.0246956 11.0683824,22.4802804 11.2255252,21.8749678 L15.7282041,21.8749678 C15.8853246,22.4804143 16.2204809,23.0247 16.6903023,23.4374679 L10.2634269,23.4374679 Z M17.1879809,21.0937178 C17.1879809,20.6793785 17.3526015,20.281932 17.6455702,19.988807 C17.9387131,19.6958382 18.3361506,19.5312177 18.750481,19.5312177 C19.1648114,19.5312177 19.5622668,19.6958382 19.8553918,19.988807 C20.1483606,20.2819499 20.3129811,20.6793874 20.3129811,21.0937178 C20.3129811,21.5080482 20.1483606,21.9055035 19.8553918,22.1986285 C19.5622489,22.4915973 19.1648114,22.6562179 18.750481,22.6562179 C18.3361417,22.6558691 17.9390524,22.491075 17.646106,22.1980928 C17.3531595,21.9051107 17.1883381,21.5080482 17.1879809,21.0937178 Z" id="Shape"></path>
            <path d="M5.0002567,14.6874674 C5.13540432,14.7889585 5.30002487,14.8438915 5.46900702,14.8438915 C5.63798917,14.8438915 5.80260972,14.7889585 5.93775705,14.6874674 C6.14196242,14.5343558 10.9377573,10.8751904 10.9377573,5.46871684 C10.9377573,3.51487744 9.89543585,1.70947555 8.20338218,0.732555847 C6.51132851,-0.244185282 4.42668553,-0.244185282 2.73463186,0.732555847 C1.04257819,1.70947555 0.000256696444,3.51487744 0.000256696444,5.46871684 C0.000256696444,10.8754136 4.79623912,14.5343424 5.0002567,14.6874674 Z M5.46900702,7.03121693 C5.05466771,7.03121693 4.65722126,6.86659639 4.36409624,6.57362762 C4.07112747,6.28048475 3.90650693,5.88304722 3.90650693,5.46871684 C3.90650693,5.05438646 4.07112747,4.65693108 4.36409624,4.36380606 C4.65723912,4.07083729 5.05467664,3.90621675 5.46900702,3.90621675 C5.8833374,3.90621675 6.28079278,4.07083729 6.5739178,4.36380606 C6.86688657,4.65694894 7.03150711,5.05438646 7.03150711,5.46871684 C7.03150711,5.88304722 6.86688657,6.2805026 6.5739178,6.57362762 C6.28077493,6.86659639 5.8833374,7.03121693 5.46900702,7.03121693 Z" id="Shape"></path>
        </g>
    </g>
</svg>
