<?xml version="1.0" encoding="UTF-8" standalone="no"?>
<!DOCTYPE svg PUBLIC "-//W3C//DTD SVG 1.1//EN" "http://www.w3.org/Graphics/SVG/1.1/DTD/svg11.dtd">
<svg width="100%" height="100%" viewBox="0 0 256 256" version="1.1" xmlns="http://www.w3.org/2000/svg" xmlns:xlink="http://www.w3.org/1999/xlink" xml:space="preserve" xmlns:serif="http://www.serif.com/" style="fill-rule:evenodd;clip-rule:evenodd;stroke-miterlimit:1.5;">
    <g transform="matrix(0.495193,0,0,0.495193,-45.3082,-10.6441)">
        <g transform="matrix(1,0,0,1,-64.6163,3.55271e-15)">
            <path d="M263.85,140L166.924,140C162.615,140 158.307,137.848 157.233,133.539C155.08,129.23 156.155,124.922 159.385,121.691L256.307,24.769C259.541,21.539 263.85,20.46 268.155,22.617C272.464,23.691 274.62,28 274.62,32.308L274.62,129.23C274.62,135.691 270.311,140 263.85,140L263.85,140ZM192.772,118.461L253.081,118.461L253.081,58.152L192.772,118.461Z" style="fill-rule:nonzero;"/>
        </g>
        <g transform="matrix(2.01941,0,0,2.01941,91.4961,21.4948)">
            <path d="M0,53.123L0,256L256,256L256,0L55.664,0M-26.438,32.73L-29.709,-3.956L-42.912,53.123" style="fill:none;stroke:black;stroke-width:20px;"/>
        </g>
    </g>
    <g transform="matrix(-0.424993,0,0,0.424993,276.747,8.99971)">
        <g transform="matrix(-1,0,0,1,699.997,0)">
            <path d="M290.81,480.43L247.095,480.43L247.095,211.43L358.455,211.43L358.455,274.532L373.154,274.532L373.154,203.114L337.174,136.153L337.174,56.036L337.178,56.036C337.178,50.345 333.885,40.474 334.115,39.845C334.279,39.861 334.545,39.868 334.865,39.868C336.221,39.868 338.6,39.751 338.912,39.689C339.303,39.615 340.256,33.63 337.502,27.662C334.752,21.685 328.459,20.17 322.17,20.17L283.368,20.17C277.079,20.17 270.786,21.689 268.036,27.662C265.283,33.631 266.228,39.619 266.626,39.689C266.939,39.751 269.314,39.868 270.673,39.868C270.993,39.868 271.255,39.865 271.423,39.845C271.654,40.474 268.353,50.345 268.353,56.036L268.365,56.036L268.365,136.157L232.392,203.114L232.392,495.137L290.81,495.137L290.81,480.43ZM283.076,56.04L283.076,55.731C283.205,53.61 284.505,48.56 284.947,46.845C285.982,42.825 286.88,39.345 285.267,34.876L320.302,34.876C318.689,39.345 319.579,42.821 320.622,46.845C321.064,48.579 322.38,53.704 322.493,55.786L322.493,134.173L283.091,134.173L283.088,56.04L283.076,56.04ZM280.208,145.196L325.345,145.196L355.013,200.407L250.543,200.407L280.208,145.196Z" style="fill-rule:nonzero;stroke:black;stroke-width:15.1px;stroke-linejoin:round;stroke-miterlimit:2;"/>
        </g>
        <g transform="matrix(-1,0,0,1,699.997,0)">
            <path d="M467.57,506.13L467.593,322.19C467.593,321.545 467.566,320.901 467.5,320.448C467.445,319.983 467.382,319.561 467.289,319.108C467.187,318.51 467.031,317.92 466.836,317.362C466.617,316.624 466.308,315.893 465.91,315.131C465.562,314.385 465.148,313.698 464.699,313.104C464.199,312.417 463.64,311.788 462.836,310.963C462.539,310.678 462.238,310.393 462.019,310.217C461.101,309.421 460.082,308.768 459.129,308.284C458.316,307.835 451.199,303.737 451.199,298.182C451.199,297.69 451.156,297.213 451.093,296.822L450.488,290.143L330.178,290.147L323.088,290.123L322.83,297.209C322.83,297.209 322.807,297.865 322.807,298.193C322.807,303.4 316.553,307.334 314.893,308.283C313.819,308.838 312.869,309.471 312.116,310.115C311.768,310.401 311.471,310.686 310.936,311.209C310.366,311.791 309.811,312.42 309.338,313.065C308.869,313.698 308.451,314.393 308.096,315.135C307.698,315.901 307.397,316.631 307.178,317.366C306.983,317.932 306.83,318.514 306.725,319.112C306.623,319.553 306.569,319.955 306.522,320.338C306.444,320.905 306.416,321.549 306.416,322.194L306.432,506.134C306.405,506.52 306.393,506.899 306.393,507.31C306.393,510.489 307.338,513.532 309.076,516.044C309.733,517.017 310.448,517.849 311.116,518.458C311.397,518.731 311.698,519.017 312.162,519.411C312.834,519.966 313.557,520.458 314.315,520.884C314.608,521.067 314.905,521.232 315.205,521.376C316.287,521.993 322.826,525.958 322.826,531.278L322.826,539.841L451.186,539.841L451.186,531.278C451.186,525.966 457.726,522.001 458.808,521.376C459.108,521.232 459.401,521.064 459.698,520.884C460.46,520.454 461.194,519.942 461.975,519.31C462.308,519.017 462.604,518.732 462.741,518.599C463.558,517.853 464.268,517.025 464.87,516.134C466.655,513.54 467.604,510.501 467.604,507.321C467.608,506.9 467.604,506.517 467.569,506.13L467.57,506.13ZM321.08,499.954L321.119,327.224L452.749,327.224L452.866,499.954L321.08,499.954ZM336.468,304.844L437.541,304.844C439.1,309.7 442.178,313.461 445.174,316.199L328.824,316.199C331.836,313.457 334.918,309.688 336.468,304.844ZM437.383,525.124L336.641,525.124C334.66,518.437 329.758,513.718 326.102,510.979L447.942,510.979C444.286,513.71 439.368,518.409 437.383,525.124Z" style="fill-rule:nonzero;stroke:black;stroke-width:8.23px;stroke-linejoin:round;stroke-miterlimit:2;"/>
        </g>
    </g>
    <g transform="matrix(0.367321,0,0,0.367321,153.994,-66.1734)">
        <g transform="matrix(1,0,0,1,-222,0)">
            <path d="M350,409.23C345.691,409.23 342.461,407.078 339.23,404.921L323.078,387.691L299.383,387.691C295.074,387.691 291.844,386.613 288.613,383.383C285.383,380.152 284.304,376.922 284.304,372.613L285.383,348.922L268.153,333.848C264.922,330.617 263.844,327.387 263.844,323.078C263.844,318.769 265.996,315.539 268.153,312.308L285.383,296.156L285.383,272.461C285.383,268.152 286.461,264.922 289.691,261.691C292.922,258.46 296.152,257.382 300.461,257.382L324.152,258.46L340.304,241.23C343.535,238 346.765,236.922 351.074,236.922C355.383,236.922 358.613,239.074 361.844,241.23L377.996,258.46L401.687,257.382C405.996,257.382 409.226,258.46 412.457,261.691C415.688,264.921 416.766,268.152 416.766,272.461L414.617,296.152L431.847,312.304C435.078,315.534 436.156,318.765 436.156,323.074C436.156,327.382 434.004,330.613 431.847,333.844L414.617,350L415.695,373.691C415.695,377.999 414.617,381.23 411.387,384.461C408.156,387.691 404.926,388.769 400.617,388.769L376.922,387.691L360.77,404.921C357.539,407.078 354.309,409.23 350,409.23L350,409.23ZM329.539,365.077L334.922,367.229L350,383.381L365.078,367.229L370.461,365.077L393.078,366.151L392,343.534L394.152,338.151L410.304,323.073L394.152,307.995L392,302.613L393.078,280L370.461,281.078L365.078,278.925L350,261.691L334.922,277.843L329.539,279.996L306.922,280L308,302.617L305.848,307.999L288.618,323.077L304.77,338.155L306.922,343.538L306.922,366.151L329.539,365.077Z" style="fill-rule:nonzero;"/>
        </g>
        <g transform="matrix(1,0,0,1,-222,0)">
            <path d="M382.31,484.62C380.158,484.62 378.001,483.542 375.849,482.468L350.001,465.234L324.153,482.464C320.923,484.616 316.614,484.616 313.383,482.464C309.078,481.386 306.922,478.155 306.922,473.85L306.922,376.928C306.922,370.468 311.231,366.158 317.692,366.158L328.462,366.158C331.693,366.158 333.845,367.237 336.001,369.389L350.001,384.467L364.001,369.389C366.154,367.237 369.384,366.158 371.54,366.158L382.31,366.158C388.771,366.158 393.08,370.467 393.08,376.928L393.08,473.85C393.08,478.159 390.928,481.39 387.698,483.542C385.541,484.62 384.463,484.62 382.311,484.62L382.31,484.62ZM350.001,441.542C352.153,441.542 354.31,442.62 356.462,443.694L371.54,454.464L371.54,393.081L360.77,404.929C357.539,408.16 354.309,409.238 350,409.238C345.691,409.238 342.461,407.086 339.23,404.929L328.46,393.081L328.46,454.464L343.538,443.694C345.69,442.62 347.847,441.542 349.999,441.542L350.001,441.542Z" style="fill-rule:nonzero;"/>
        </g>
    </g>
</svg>
