<?xml version="1.0" encoding="UTF-8" standalone="no"?>
<!DOCTYPE svg PUBLIC "-//W3C//DTD SVG 1.1//EN" "http://www.w3.org/Graphics/SVG/1.1/DTD/svg11.dtd">
<svg width="100%" height="100%" viewBox="0 0 256 256" version="1.1" xmlns="http://www.w3.org/2000/svg" xmlns:xlink="http://www.w3.org/1999/xlink" xml:space="preserve" xmlns:serif="http://www.serif.com/" style="fill-rule:evenodd;clip-rule:evenodd;stroke-linejoin:round;stroke-miterlimit:2;">
    <g transform="matrix(0.598786,0,0,0.441432,-81.569,4.36286)">
        <path d="M441.2,511.52C446.778,507.708 452.052,503.723 457.044,499.575C492.427,470.208 513.356,432.712 520.532,392.345C524.637,369.209 524.266,345.107 519.538,321.011C515.947,302.711 509.843,284.414 501.278,266.545C497.028,257.674 492.172,248.904 486.712,240.287C483.958,266.662 477.103,298.767 460.099,306.615C441.369,315.267 429.708,308.595 421.693,291.224C415.31,277.38 412.42,255.337 408.923,228.794C401.177,169.81 390.259,86.584 332.247,43.274C339.118,131.04 304.849,179.477 261.318,224.377C235.63,250.869 200.837,273.684 187.513,309.469C184.74,316.93 182.439,324.809 180.626,332.989C172.814,368.469 176.157,406.071 193.126,439.069C209.692,471.257 239.345,499.264 284.419,516.971C268.931,494.006 252.38,460.557 250.181,420.287C245.962,343.51 299.861,257.277 300.029,257.017C303.775,251.001 311.689,249.154 317.701,252.9C321.92,255.521 324.084,260.193 323.717,264.81C322.287,346.931 361.651,373.49 394.799,395.83C433.002,421.584 464.401,442.787 441.201,511.48L441.2,511.52ZM473.423,519.266C458.353,531.782 440.982,542.969 421.29,552.496C417.712,554.598 412.938,555.217 408.903,553.248C402.521,550.139 400.119,542.164 403.212,535.797C441.095,458.078 414.232,439.969 380.431,417.177C348.865,395.892 312.423,371.294 301.388,309.837C288.134,339.204 273.7,380.735 275.802,418.907C279.279,482.278 323.97,526.307 329.447,531.467C333.076,534.44 334.939,539.295 333.865,544.186C332.338,551.123 325.482,555.51 318.545,553.979C304.787,550.955 291.764,547.108 279.467,542.522C225.572,522.479 190.123,489.299 170.337,450.827C150.462,412.222 146.482,368.507 155.521,327.477C157.486,318.555 160.158,309.536 163.517,300.528C178.72,259.653 206.357,231.145 233.927,202.716C277.087,158.196 319.993,113.943 303.462,20.756L303.498,20.756C303.044,18.201 303.365,15.498 304.572,12.979C307.646,6.596 315.326,3.924 321.709,6.998C411.354,50.189 424.999,154.148 434.349,225.468C437.54,249.827 440.196,270.054 445.001,280.472C446.177,283.007 447.536,284.152 449.352,283.312C464.137,276.492 462.911,203.898 462.911,203.695C462.861,199.949 464.439,196.234 467.532,193.648C472.958,189.128 481.04,189.867 485.559,195.312C501.454,214.449 514.407,234.691 524.383,255.492C546.574,301.808 553.985,350.883 545.836,396.742C537.637,442.926 513.746,485.765 473.41,519.252L473.423,519.266Z" style="fill-rule:nonzero;"/>
        <path d="M441.2,511.52C446.778,507.708 452.052,503.723 457.044,499.575C492.427,470.208 513.356,432.712 520.532,392.345C524.637,369.209 524.266,345.107 519.538,321.011C515.947,302.711 509.843,284.414 501.278,266.545C497.028,257.674 492.172,248.904 486.712,240.287C483.958,266.662 477.103,298.767 460.099,306.615C441.369,315.267 429.708,308.595 421.693,291.224C415.31,277.38 412.42,255.337 408.923,228.794C401.177,169.81 390.259,86.584 332.247,43.274C339.118,131.04 304.849,179.477 261.318,224.377C235.63,250.869 200.837,273.684 187.513,309.469C184.74,316.93 182.439,324.809 180.626,332.989C172.814,368.469 176.157,406.071 193.126,439.069C209.692,471.257 239.345,499.264 284.419,516.971C268.931,494.006 252.38,460.557 250.181,420.287C245.962,343.51 299.861,257.277 300.029,257.017C303.775,251.001 311.689,249.154 317.701,252.9C321.92,255.521 324.084,260.193 323.717,264.81C322.287,346.931 361.651,373.49 394.799,395.83C433.002,421.584 464.401,442.787 441.201,511.48L441.2,511.52ZM473.423,519.266C458.353,531.782 440.982,542.969 421.29,552.496C417.712,554.598 412.938,555.217 408.903,553.248C402.521,550.139 400.119,542.164 403.212,535.797C441.095,458.078 414.232,439.969 380.431,417.177C348.865,395.892 312.423,371.294 301.388,309.837C288.134,339.204 273.7,380.735 275.802,418.907C279.279,482.278 323.97,526.307 329.447,531.467C333.076,534.44 334.939,539.295 333.865,544.186C332.338,551.123 325.482,555.51 318.545,553.979C304.787,550.955 291.764,547.108 279.467,542.522C225.572,522.479 190.123,489.299 170.337,450.827C150.462,412.222 146.482,368.507 155.521,327.477C157.486,318.555 160.158,309.536 163.517,300.528C178.72,259.653 206.357,231.145 233.927,202.716C277.087,158.196 319.993,113.943 303.462,20.756L303.498,20.756C303.044,18.201 303.365,15.498 304.572,12.979C307.646,6.596 315.326,3.924 321.709,6.998C411.354,50.189 424.999,154.148 434.349,225.468C437.54,249.827 440.196,270.054 445.001,280.472C446.177,283.007 447.536,284.152 449.352,283.312C464.137,276.492 462.911,203.898 462.911,203.695C462.861,199.949 464.439,196.234 467.532,193.648C472.958,189.128 481.04,189.867 485.559,195.312C501.454,214.449 514.407,234.691 524.383,255.492C546.574,301.808 553.985,350.883 545.836,396.742C537.637,442.926 513.746,485.765 473.41,519.252L473.423,519.266Z" style="fill:none;fill-rule:nonzero;stroke:black;stroke-width:5.7px;"/>
    </g>
</svg>
