<?xml version="1.0" encoding="UTF-8" standalone="no"?>
<!DOCTYPE svg PUBLIC "-//W3C//DTD SVG 1.1//EN" "http://www.w3.org/Graphics/SVG/1.1/DTD/svg11.dtd">
<svg width="100%" height="100%" viewBox="0 0 256 256" version="1.1" xmlns="http://www.w3.org/2000/svg" xmlns:xlink="http://www.w3.org/1999/xlink" xml:space="preserve" xmlns:serif="http://www.serif.com/" style="fill-rule:evenodd;clip-rule:evenodd;stroke-linecap:round;stroke-linejoin:round;stroke-miterlimit:1.5;">
    <g transform="matrix(1,0,0,1,-1.80571,0)">
        <g transform="matrix(1.2598,0,0,1.2598,-7.30128,-64.0081)">
            <path d="M50.359,209.564C62.642,209.564 72.614,219.536 72.614,231.819C72.614,244.102 62.642,254.074 50.359,254.074C38.076,254.074 28.104,244.102 28.104,231.819C28.104,219.536 38.076,209.564 50.359,209.564ZM50.359,227.564C48.01,227.564 46.104,229.47 46.104,231.819C46.104,234.167 48.01,236.074 50.359,236.074C52.707,236.074 54.614,234.167 54.614,231.819C54.614,229.47 52.707,227.564 50.359,227.564Z"/>
        </g>
        <g transform="matrix(1.2598,0,0,1.2598,140.029,-64.0081)">
            <path d="M50.359,209.564C62.642,209.564 72.614,219.536 72.614,231.819C72.614,244.102 62.642,254.074 50.359,254.074C38.076,254.074 28.104,244.102 28.104,231.819C28.104,219.536 38.076,209.564 50.359,209.564ZM50.359,227.564C48.01,227.564 46.104,229.47 46.104,231.819C46.104,234.167 48.01,236.074 50.359,236.074C52.707,236.074 54.614,234.167 54.614,231.819C54.614,229.47 52.707,227.564 50.359,227.564Z"/>
        </g>
    </g>
    <g transform="matrix(1,0,0,1.40634,0,-78.4547)">
        <path d="M236.931,166.166L236.931,198L21.376,198L21.376,166.166L236.931,166.166ZM218.931,178.966C218.931,178.966 39.376,178.966 39.376,178.966C39.376,178.966 39.376,185.201 39.376,185.201C79.982,185.201 178.325,185.201 218.931,185.201L218.931,178.966Z"/>
    </g>
    <g transform="matrix(1,0,0,1,-1.15353,0)">
        <g transform="matrix(1,0,0,0.767707,0,-127.567)">
            <rect x="21.376" y="166.166" width="215.555" height="31.833"/>
        </g>
        <g transform="matrix(0.963628,0.095134,-0.0940939,0.963193,14.2506,-10.2628)">
            <path d="M21.376,24.439L236.931,153.231" style="fill:none;stroke:black;stroke-width:17.98px;"/>
        </g>
        <g transform="matrix(-0.963628,0.095134,0.0940939,0.963193,246.445,-10.2628)">
            <path d="M21.376,24.439L236.931,153.231" style="fill:none;stroke:black;stroke-width:17.98px;"/>
        </g>
    </g>
</svg>
