<?xml version="1.0" encoding="UTF-8" standalone="no"?>
<!DOCTYPE svg PUBLIC "-//W3C//DTD SVG 1.1//EN" "http://www.w3.org/Graphics/SVG/1.1/DTD/svg11.dtd">
<svg width="100%" height="100%" viewBox="0 0 256 256" version="1.1" xmlns="http://www.w3.org/2000/svg" xmlns:xlink="http://www.w3.org/1999/xlink" xml:space="preserve" xmlns:serif="http://www.serif.com/" style="fill-rule:evenodd;clip-rule:evenodd;stroke-linejoin:round;stroke-miterlimit:2;">
    <g transform="matrix(1,0,0,1,-2.36225,-1)">
        <g transform="matrix(1.31215,0,0,1.20041,-53.0257,-43.113)">
            <path d="M107.471,-6.674L107.471,290.352L44.012,290.352L44.012,-6.674L107.471,-6.674ZM95.513,6.397L55.97,6.397C55.97,62.156 55.97,277.281 55.97,277.281C55.97,277.281 95.513,277.281 95.513,277.281L95.513,6.397Z" style="fill-opacity:0.96;"/>
        </g>
        <g transform="matrix(1.04604,0,0,1.04604,-5.64953,100.473)">
            <path d="M50.338,5.574C62.18,5.574 71.795,15.189 71.795,27.031C71.795,38.874 62.18,48.488 50.338,48.488C38.496,48.488 28.881,38.874 28.881,27.031C28.881,15.189 38.496,5.574 50.338,5.574ZM50.338,14.574C43.463,14.574 37.881,20.156 37.881,27.031C37.881,33.906 43.463,39.488 50.338,39.488C57.213,39.488 62.795,33.906 62.795,27.031C62.795,20.156 57.213,14.574 50.338,14.574Z" style="fill-opacity:0.96;"/>
        </g>
        <g transform="matrix(1.04604,0,0,1.04604,-5.64953,205.077)">
            <path d="M50.338,5.574C62.18,5.574 71.795,15.189 71.795,27.031C71.795,38.874 62.18,48.488 50.338,48.488C38.496,48.488 28.881,38.874 28.881,27.031C28.881,15.189 38.496,5.574 50.338,5.574ZM50.338,14.574C43.463,14.574 37.881,20.156 37.881,27.031C37.881,33.906 43.463,39.488 50.338,39.488C57.213,39.488 62.795,33.906 62.795,27.031C62.795,20.156 57.213,14.574 50.338,14.574Z" style="fill-opacity:0.96;"/>
        </g>
        <g transform="matrix(1.04604,0,0,1.04604,-5.64953,-4.13131)">
            <path d="M50.338,5.574C62.18,5.574 71.795,15.189 71.795,27.031C71.795,38.874 62.18,48.488 50.338,48.488C38.496,48.488 28.881,38.874 28.881,27.031C28.881,15.189 38.496,5.574 50.338,5.574ZM50.338,14.574C43.463,14.574 37.881,20.156 37.881,27.031C37.881,33.906 43.463,39.488 50.338,39.488C57.213,39.488 62.795,33.906 62.795,27.031C62.795,20.156 57.213,14.574 50.338,14.574Z" style="fill-opacity:0.96;"/>
        </g>
        <g transform="matrix(1.04604,0,0,1.04604,-5.64953,-4.13131)">
            <path d="M50.338,5.574C62.18,5.574 71.795,15.189 71.795,27.031C71.795,38.874 62.18,48.488 50.338,48.488C38.496,48.488 28.881,38.874 28.881,27.031C28.881,15.189 38.496,5.574 50.338,5.574ZM50.338,14.574C43.463,14.574 37.881,20.156 37.881,27.031C37.881,33.906 43.463,39.488 50.338,39.488C57.213,39.488 62.795,33.906 62.795,27.031C62.795,20.156 57.213,14.574 50.338,14.574Z" style="fill-opacity:0.96;"/>
        </g>
        <g transform="matrix(1.31215,0,0,1.20041,114.983,-43.113)">
            <path d="M107.471,-6.674L107.471,290.352L44.012,290.352L44.012,-6.674L107.471,-6.674ZM95.513,6.397L55.97,6.397C55.97,6.397 55.97,277.281 55.97,277.281L95.513,277.281L95.513,6.397Z" style="fill-opacity:0.96;"/>
        </g>
        <g transform="matrix(1.04604,0,0,1.04604,162.359,100.473)">
            <path d="M50.338,5.574C62.18,5.574 71.795,15.189 71.795,27.031C71.795,38.874 62.18,48.488 50.338,48.488C38.496,48.488 28.881,38.874 28.881,27.031C28.881,15.189 38.496,5.574 50.338,5.574ZM50.338,14.574C43.463,14.574 37.881,20.156 37.881,27.031C37.881,33.906 43.463,39.488 50.338,39.488C57.213,39.488 62.795,33.906 62.795,27.031C62.795,20.156 57.213,14.574 50.338,14.574Z" style="fill-opacity:0.96;"/>
        </g>
        <g transform="matrix(1.04604,0,0,1.04604,162.359,205.077)">
            <path d="M50.338,5.574C62.18,5.574 71.795,15.189 71.795,27.031C71.795,38.874 62.18,48.488 50.338,48.488C38.496,48.488 28.881,38.874 28.881,27.031C28.881,15.189 38.496,5.574 50.338,5.574ZM50.338,14.574C43.463,14.574 37.881,20.156 37.881,27.031C37.881,33.906 43.463,39.488 50.338,39.488C57.213,39.488 62.795,33.906 62.795,27.031C62.795,20.156 57.213,14.574 50.338,14.574Z" style="fill-opacity:0.96;"/>
        </g>
        <g transform="matrix(1.04604,0,0,1.04604,162.359,-4.13131)">
            <path d="M50.338,5.574C62.18,5.574 71.795,15.189 71.795,27.031C71.795,38.874 62.18,48.488 50.338,48.488C38.496,48.488 28.881,38.874 28.881,27.031C28.881,15.189 38.496,5.574 50.338,5.574ZM50.338,14.574C43.463,14.574 37.881,20.156 37.881,27.031C37.881,33.906 43.463,39.488 50.338,39.488C57.213,39.488 62.795,33.906 62.795,27.031C62.795,20.156 57.213,14.574 50.338,14.574Z" style="fill-opacity:0.96;"/>
        </g>
        <g transform="matrix(1.04604,0,0,1.04604,162.359,-4.13131)">
            <path d="M50.338,5.574C62.18,5.574 71.795,15.189 71.795,27.031C71.795,38.874 62.18,48.488 50.338,48.488C38.496,48.488 28.881,38.874 28.881,27.031C28.881,15.189 38.496,5.574 50.338,5.574ZM50.338,14.574C43.463,14.574 37.881,20.156 37.881,27.031C37.881,33.906 43.463,39.488 50.338,39.488C57.213,39.488 62.795,33.906 62.795,27.031C62.795,20.156 57.213,14.574 50.338,14.574Z" style="fill-opacity:0.96;"/>
        </g>
    </g>
</svg>
