<?xml version="1.0" encoding="UTF-8" standalone="no"?>
<!DOCTYPE svg PUBLIC "-//W3C//DTD SVG 1.1//EN" "http://www.w3.org/Graphics/SVG/1.1/DTD/svg11.dtd">
<svg width="100%" height="100%" viewBox="0 0 256 256" version="1.1" xmlns="http://www.w3.org/2000/svg" xmlns:xlink="http://www.w3.org/1999/xlink" xml:space="preserve" xmlns:serif="http://www.serif.com/" style="fill-rule:evenodd;clip-rule:evenodd;stroke-linejoin:round;stroke-miterlimit:1.5;">
    <g transform="matrix(0.99093,0.134381,-0.134381,0.99093,30.381,-84.1012)">
        <g transform="matrix(0.974668,-0.974668,1.46892,1.46892,-305.445,-40.4088)">
            <path d="M176.601,197.026L177.958,229.566L73.749,232.439L72.871,196.78L176.601,197.026ZM163.897,205.661L86.146,205.476C86.146,205.476 86.587,223.413 86.587,223.413C86.587,223.413 164.548,221.264 164.548,221.264L163.897,205.661Z"/>
        </g>
        <g transform="matrix(-0.114996,-0.935124,0.928222,0.0190102,-128.861,302.843)">
            <path d="M82.391,166.457L144.414,235.216" style="fill:none;stroke:black;stroke-width:20.78px;"/>
        </g>
    </g>
    <g transform="matrix(0.996731,-0.0807911,0.0807911,0.996731,31.3288,13.1648)">
        <g transform="matrix(0.974668,-0.974668,1.46892,1.46892,-305.445,-40.4088)">
            <path d="M226.4,196.78L226.241,232.354L72.871,241.308L72.871,196.78L226.4,196.78ZM213.303,205.444L85.93,205.444C85.93,205.444 85.93,231.848 85.93,231.848C85.93,231.848 213.218,224.416 213.218,224.416L213.303,205.444Z"/>
        </g>
        <g transform="matrix(-0.0731645,-0.976956,0.974596,-0.0273646,-145.81,319.792)">
            <path d="M82.391,166.457L144.414,235.216" style="fill:none;stroke:black;stroke-width:18.86px;"/>
        </g>
    </g>
</svg>
