<?xml version="1.0" encoding="UTF-8" standalone="no"?>
<!DOCTYPE svg PUBLIC "-//W3C//DTD SVG 1.1//EN" "http://www.w3.org/Graphics/SVG/1.1/DTD/svg11.dtd">
<svg width="100%" height="100%" viewBox="0 0 256 256" version="1.1" xmlns="http://www.w3.org/2000/svg" xmlns:xlink="http://www.w3.org/1999/xlink" xml:space="preserve" xmlns:serif="http://www.serif.com/" style="fill-rule:evenodd;clip-rule:evenodd;stroke-linejoin:round;stroke-miterlimit:2;">
    <g transform="matrix(1.60725,0,0,1.60725,-12.1338,-225.459)">
        <g transform="matrix(1,0,0,1,-52.2897,102.251)">
            <path d="M139.956,82.186L139.956,134.238L64.219,134.238L64.219,82.186L139.956,82.186ZM130.456,91.686L73.719,91.686C73.719,91.686 73.719,124.738 73.719,124.738L130.456,124.738L130.456,91.686Z" style="fill:rgb(34,34,34);"/>
        </g>
        <g transform="matrix(0.97627,-0.97627,-0.162936,-0.162936,-0.858558,305.134)">
            <path d="M253.784,184.437L92.849,184.437L104.116,116.927L253.784,116.927L253.784,184.437Z" style="fill:rgb(34,34,34);"/>
            <path d="M253.784,184.437L253.784,116.927L104.116,116.927L92.849,184.437L253.784,184.437Z" style="fill:rgb(34,34,34);"/>
        </g>
        <g transform="matrix(1,0,0,1,-52.2897,102.251)">
            <path d="" style="fill:rgb(34,34,34);"/>
        </g>
        <g transform="matrix(0.226451,0,0,0.20914,-16.5846,176.454)">
            <ellipse cx="204.823" cy="123.477" rx="24.288" ry="26.241" style="fill:rgb(34,34,34);"/>
            <path d="M204.823,97.236C218.228,97.236 229.111,108.994 229.111,123.477C229.111,137.96 218.228,149.719 204.823,149.719C191.418,149.719 180.535,137.96 180.535,123.477C180.535,108.994 191.418,97.236 204.823,97.236ZM204.823,142.66C214.597,142.66 222.487,134.037 222.487,123.477C222.487,112.917 214.597,104.294 204.823,104.294C195.049,104.294 187.159,112.917 187.159,123.477C187.159,134.037 195.049,142.66 204.823,142.66Z" style="fill:rgb(34,34,34);"/>
        </g>
        <g transform="matrix(0.226451,0,0,0.20914,3.41544,176.454)">
            <ellipse cx="204.823" cy="123.477" rx="24.288" ry="26.241" style="fill:rgb(34,34,34);"/>
            <path d="M204.823,97.236C218.228,97.236 229.111,108.994 229.111,123.477C229.111,137.96 218.228,149.719 204.823,149.719C191.418,149.719 180.535,137.96 180.535,123.477C180.535,108.994 191.418,97.236 204.823,97.236ZM204.823,142.66C214.597,142.66 222.487,134.037 222.487,123.477C222.487,112.917 214.597,104.294 204.823,104.294C195.049,104.294 187.159,112.917 187.159,123.477C187.159,134.037 195.049,142.66 204.823,142.66Z" style="fill:rgb(34,34,34);"/>
        </g>
        <g transform="matrix(0.226451,0,0,0.20914,23.4154,176.454)">
            <ellipse cx="204.823" cy="123.477" rx="24.288" ry="26.241" style="fill:rgb(34,34,34);"/>
            <path d="M204.823,97.236C218.228,97.236 229.111,108.994 229.111,123.477C229.111,137.96 218.228,149.719 204.823,149.719C191.418,149.719 180.535,137.96 180.535,123.477C180.535,108.994 191.418,97.236 204.823,97.236ZM204.823,142.66C214.597,142.66 222.487,134.037 222.487,123.477C222.487,112.917 214.597,104.294 204.823,104.294C195.049,104.294 187.159,112.917 187.159,123.477C187.159,134.037 195.049,142.66 204.823,142.66Z" style="fill:rgb(34,34,34);"/>
        </g>
        <g transform="matrix(0.226451,0,0,0.20914,-16.5846,192.824)">
            <ellipse cx="204.823" cy="123.477" rx="24.288" ry="26.241" style="fill:rgb(34,34,34);"/>
            <path d="M204.823,97.236C218.228,97.236 229.111,108.994 229.111,123.477C229.111,137.96 218.228,149.719 204.823,149.719C191.418,149.719 180.535,137.96 180.535,123.477C180.535,108.994 191.418,97.236 204.823,97.236ZM204.823,142.66C214.597,142.66 222.487,134.037 222.487,123.477C222.487,112.917 214.597,104.294 204.823,104.294C195.049,104.294 187.159,112.917 187.159,123.477C187.159,134.037 195.049,142.66 204.823,142.66Z" style="fill:rgb(34,34,34);"/>
        </g>
        <g transform="matrix(0.226451,0,0,0.20914,3.41544,192.824)">
            <ellipse cx="204.823" cy="123.477" rx="24.288" ry="26.241" style="fill:rgb(34,34,34);"/>
            <path d="M204.823,97.236C218.228,97.236 229.111,108.994 229.111,123.477C229.111,137.96 218.228,149.719 204.823,149.719C191.418,149.719 180.535,137.96 180.535,123.477C180.535,108.994 191.418,97.236 204.823,97.236ZM204.823,142.66C214.597,142.66 222.487,134.037 222.487,123.477C222.487,112.917 214.597,104.294 204.823,104.294C195.049,104.294 187.159,112.917 187.159,123.477C187.159,134.037 195.049,142.66 204.823,142.66Z" style="fill:rgb(34,34,34);"/>
        </g>
        <g transform="matrix(0.226451,0,0,0.20914,23.4154,192.824)">
            <ellipse cx="204.823" cy="123.477" rx="24.288" ry="26.241" style="fill:rgb(34,34,34);"/>
            <path d="M204.823,97.236C218.228,97.236 229.111,108.994 229.111,123.477C229.111,137.96 218.228,149.719 204.823,149.719C191.418,149.719 180.535,137.96 180.535,123.477C180.535,108.994 191.418,97.236 204.823,97.236ZM204.823,142.66C214.597,142.66 222.487,134.037 222.487,123.477C222.487,112.917 214.597,104.294 204.823,104.294C195.049,104.294 187.159,112.917 187.159,123.477C187.159,134.037 195.049,142.66 204.823,142.66Z" style="fill:rgb(34,34,34);"/>
        </g>
    </g>
    <g transform="matrix(1.60725,0,0,1.60725,97.2101,-130.909)">
        <g transform="matrix(1,0,0,1,-52.2897,102.251)">
            <path d="M139.956,82.186L139.956,134.238L64.219,134.238L64.219,82.186L139.956,82.186ZM130.456,91.686L73.719,91.686C73.719,91.686 73.719,124.738 73.719,124.738L130.456,124.738L130.456,91.686Z" style="fill:rgb(34,34,34);"/>
        </g>
        <g transform="matrix(0.97627,-0.97627,-0.162936,-0.162936,-0.858558,305.134)">
            <path d="M253.784,184.437L92.849,184.437L104.116,116.927L253.784,116.927L253.784,184.437Z" style="fill:rgb(34,34,34);"/>
            <path d="M253.784,184.437L253.784,116.927L104.116,116.927L92.849,184.437L253.784,184.437Z" style="fill:rgb(34,34,34);"/>
        </g>
        <g transform="matrix(1,0,0,1,-52.2897,102.251)">
            <path d="" style="fill:rgb(34,34,34);"/>
        </g>
        <g transform="matrix(0.226451,0,0,0.20914,-16.5846,176.454)">
            <ellipse cx="204.823" cy="123.477" rx="24.288" ry="26.241" style="fill:rgb(34,34,34);"/>
            <path d="M204.823,97.236C218.228,97.236 229.111,108.994 229.111,123.477C229.111,137.96 218.228,149.719 204.823,149.719C191.418,149.719 180.535,137.96 180.535,123.477C180.535,108.994 191.418,97.236 204.823,97.236ZM204.823,142.66C214.597,142.66 222.487,134.037 222.487,123.477C222.487,112.917 214.597,104.294 204.823,104.294C195.049,104.294 187.159,112.917 187.159,123.477C187.159,134.037 195.049,142.66 204.823,142.66Z" style="fill:rgb(34,34,34);"/>
        </g>
        <g transform="matrix(0.226451,0,0,0.20914,3.41544,176.454)">
            <ellipse cx="204.823" cy="123.477" rx="24.288" ry="26.241" style="fill:rgb(34,34,34);"/>
            <path d="M204.823,97.236C218.228,97.236 229.111,108.994 229.111,123.477C229.111,137.96 218.228,149.719 204.823,149.719C191.418,149.719 180.535,137.96 180.535,123.477C180.535,108.994 191.418,97.236 204.823,97.236ZM204.823,142.66C214.597,142.66 222.487,134.037 222.487,123.477C222.487,112.917 214.597,104.294 204.823,104.294C195.049,104.294 187.159,112.917 187.159,123.477C187.159,134.037 195.049,142.66 204.823,142.66Z" style="fill:rgb(34,34,34);"/>
        </g>
        <g transform="matrix(0.226451,0,0,0.20914,23.4154,176.454)">
            <ellipse cx="204.823" cy="123.477" rx="24.288" ry="26.241" style="fill:rgb(34,34,34);"/>
            <path d="M204.823,97.236C218.228,97.236 229.111,108.994 229.111,123.477C229.111,137.96 218.228,149.719 204.823,149.719C191.418,149.719 180.535,137.96 180.535,123.477C180.535,108.994 191.418,97.236 204.823,97.236ZM204.823,142.66C214.597,142.66 222.487,134.037 222.487,123.477C222.487,112.917 214.597,104.294 204.823,104.294C195.049,104.294 187.159,112.917 187.159,123.477C187.159,134.037 195.049,142.66 204.823,142.66Z" style="fill:rgb(34,34,34);"/>
        </g>
        <g transform="matrix(0.226451,0,0,0.20914,-16.5846,192.824)">
            <ellipse cx="204.823" cy="123.477" rx="24.288" ry="26.241" style="fill:rgb(34,34,34);"/>
            <path d="M204.823,97.236C218.228,97.236 229.111,108.994 229.111,123.477C229.111,137.96 218.228,149.719 204.823,149.719C191.418,149.719 180.535,137.96 180.535,123.477C180.535,108.994 191.418,97.236 204.823,97.236ZM204.823,142.66C214.597,142.66 222.487,134.037 222.487,123.477C222.487,112.917 214.597,104.294 204.823,104.294C195.049,104.294 187.159,112.917 187.159,123.477C187.159,134.037 195.049,142.66 204.823,142.66Z" style="fill:rgb(34,34,34);"/>
        </g>
        <g transform="matrix(0.226451,0,0,0.20914,3.41544,192.824)">
            <ellipse cx="204.823" cy="123.477" rx="24.288" ry="26.241" style="fill:rgb(34,34,34);"/>
            <path d="M204.823,97.236C218.228,97.236 229.111,108.994 229.111,123.477C229.111,137.96 218.228,149.719 204.823,149.719C191.418,149.719 180.535,137.96 180.535,123.477C180.535,108.994 191.418,97.236 204.823,97.236ZM204.823,142.66C214.597,142.66 222.487,134.037 222.487,123.477C222.487,112.917 214.597,104.294 204.823,104.294C195.049,104.294 187.159,112.917 187.159,123.477C187.159,134.037 195.049,142.66 204.823,142.66Z" style="fill:rgb(34,34,34);"/>
        </g>
        <g transform="matrix(0.226451,0,0,0.20914,23.4154,192.824)">
            <ellipse cx="204.823" cy="123.477" rx="24.288" ry="26.241" style="fill:rgb(34,34,34);"/>
            <path d="M204.823,97.236C218.228,97.236 229.111,108.994 229.111,123.477C229.111,137.96 218.228,149.719 204.823,149.719C191.418,149.719 180.535,137.96 180.535,123.477C180.535,108.994 191.418,97.236 204.823,97.236ZM204.823,142.66C214.597,142.66 222.487,134.037 222.487,123.477C222.487,112.917 214.597,104.294 204.823,104.294C195.049,104.294 187.159,112.917 187.159,123.477C187.159,134.037 195.049,142.66 204.823,142.66Z" style="fill:rgb(34,34,34);"/>
        </g>
    </g>
</svg>
