
<svg width="10px" height="15px" viewBox="0 0 10 15" version="1.1" xmlns="http://www.w3.org/2000/svg" xmlns:xlink="http://www.w3.org/1999/xlink">
    <g id="Symbols" stroke="none" stroke-width="1" fill="none" fill-rule="evenodd">
        <g id="icon-crane" fill="#000000" fill-rule="nonzero">
            <path d="M0.590669036,0 C0.267541266,0 0.0204435583,0.196375752 0.0204435583,0.453174813 L0.0204435583,2.71904888 C0.0204435583,2.97584794 0.267541266,3.17222369 0.590669036,3.17222369 C0.913796807,3.17222369 1.16089451,2.96074211 1.16089451,2.71904888 L1.16089451,0.453174813 C1.16089451,0.196375752 0.913796807,0 0.590669036,0 Z M9.37192417,0 C9.0487964,0 8.80169869,0.196375752 8.80169869,0.453174813 L8.80169869,2.71904888 C8.80169869,2.96074211 9.0487964,3.17222369 9.37192417,3.17222369 C9.69505194,3.17222369 9.94214965,2.97584794 9.94214965,2.71904888 L9.94214965,0.453174813 C9.94214965,0.196375752 9.69505194,0 9.37192417,0 Z M2.89025262,2.85474237 C2.09193695,2.85474237 1.36947756,3.21755844 1.02734228,3.77645678 L0.22920039,5.06046935 C-0.0369048327,5.4834325 -0.0749198645,5.96654275 0.134162811,6.404629 L1.806998,9.99998849 C2.11111825,10.6495218 2.89027435,11.0874699 3.76462008,11.0874699 L4.46805023,11.0874699 C4.58209532,11.6312797 5.01911613,12.1148043 5.66537167,12.4169208 C6.02651448,12.5830849 6.23559715,12.8700956 6.23559715,13.1873007 C6.23559715,13.6858103 5.68435747,14.0936504 5.00008689,14.0936504 C4.31581632,14.0936504 3.76457663,13.6858103 3.76457663,13.1873007 C3.76457663,12.9305017 3.51747893,12.7341259 3.19435115,12.7341259 C2.87122338,12.7341259 2.62412568,12.9305017 2.62412568,13.1873007 C2.62412568,14.1842853 3.68854657,15 5.00008689,15 C6.31162721,15 7.37604811,14.1842853 7.37604811,13.1873007 C7.37604811,12.552856 6.95788276,11.9638496 6.23559715,11.6315214 C5.95048441,11.495569 5.74140174,11.2990585 5.64638588,11.072485 L6.23559715,11.072485 C7.10994288,11.072485 7.88922931,10.6343987 8.19334957,9.9848654 L9.86583719,6.38985119 C10.0749199,5.95176494 10.0369048,5.46851658 9.77079961,5.06067651 L8.97265772,3.77666394 C8.61151492,3.20264251 7.90806305,2.85494953 7.10974738,2.85494953 L2.89025262,2.85474237 Z M2.89025262,3.76109199 L6.31160549,3.76109199 C6.67274829,3.76109199 6.99587607,3.92739075 7.16696543,4.18419326 L7.96510732,5.46820583 C8.07915241,5.66458158 8.09832937,5.89116899 8.00329222,6.08756201 L6.33063082,9.68257622 C6.19757821,9.98469276 5.83643541,10.1809477 5.43729929,10.1809477 L3.74560865,10.1809477 C3.34645082,10.1809477 3.00446759,9.98470657 2.85240746,9.68257622 L1.17957228,6.08756201 C1.10354221,5.89118625 1.12271917,5.66459885 1.23676426,5.46820583 L2.03490615,4.18419326 C2.20597379,3.9273942 2.52910156,3.76109199 2.89026609,3.76109199 L2.89025262,3.76109199 Z"></path>
        </g>
    </g>
</svg>
