<?xml version="1.0" encoding="UTF-8" standalone="no"?>
<!DOCTYPE svg PUBLIC "-//W3C//DTD SVG 1.1//EN" "http://www.w3.org/Graphics/SVG/1.1/DTD/svg11.dtd">
<svg width="100%" height="100%" viewBox="0 0 256 256" version="1.1" xmlns="http://www.w3.org/2000/svg" xmlns:xlink="http://www.w3.org/1999/xlink" xml:space="preserve" xmlns:serif="http://www.serif.com/" style="fill-rule:evenodd;clip-rule:evenodd;stroke-linecap:round;stroke-miterlimit:1.5;">
    <g transform="matrix(1,0,0,2.03548,-9.87086,-272.35)">
        <path d="M298.696,144.976L298.696,212.307L-22.954,212.307L-22.954,144.976L298.696,144.976ZM286.696,150.871L-10.954,150.871L-10.954,206.412L286.696,206.412L286.696,150.871Z" style="fill:rgb(34,34,34);"/>
    </g>
    <g transform="matrix(1,0,0,1,6.45546,12.3687)">
        <g transform="matrix(1.23061,-0.312777,0.312777,1.23061,121.545,83.403)">
            <path d="M0,-19.689C10.867,-19.689 19.689,-10.867 19.689,0C19.689,10.867 10.867,19.689 0,19.689C-10.867,19.689 -19.689,10.867 -19.689,0C-19.689,-10.867 -10.867,-19.689 0,-19.689ZM-0,-12.601C-6.955,-12.601 -12.601,-6.955 -12.601,0C-12.601,6.955 -6.955,12.601 0,12.601C6.955,12.601 12.601,6.955 12.601,0C12.601,-6.955 6.955,-12.601 -0,-12.601Z" style="fill:rgb(34,34,34);"/>
        </g>
        <g transform="matrix(1.23061,-0.312777,0.312777,1.23061,21.5445,83.403)">
            <path d="M-0,-19.689C10.867,-19.689 19.689,-10.867 19.689,0C19.689,10.867 10.867,19.689 0,19.689C-10.867,19.689 -19.689,10.867 -19.689,0C-19.689,-10.867 -10.867,-19.689 -0,-19.689ZM-0,-12.601C-6.955,-12.601 -12.601,-6.955 -12.601,0C-12.601,6.955 -6.955,12.601 0,12.601C6.955,12.601 12.601,6.955 12.601,0C12.601,-6.955 6.955,-12.601 -0,-12.601Z" style="fill:rgb(34,34,34);"/>
        </g>
        <g transform="matrix(1.23061,-0.312777,0.312777,1.23061,221.545,83.403)">
            <path d="M0,-19.689C10.867,-19.689 19.689,-10.867 19.689,0C19.689,10.867 10.867,19.689 0,19.689C-10.867,19.689 -19.689,10.867 -19.689,-0C-19.689,-10.867 -10.867,-19.689 0,-19.689ZM0,-12.601C-6.955,-12.601 -12.601,-6.955 -12.601,0C-12.601,6.955 -6.955,12.601 0,12.601C6.955,12.601 12.601,6.955 12.601,-0C12.601,-6.955 6.955,-12.601 0,-12.601Z" style="fill:rgb(34,34,34);"/>
        </g>
    </g>
    <g transform="matrix(1,0,0,1,0,29.2789)">
        <path d="M0,180.26L256,177.954" style="fill:none;stroke:rgb(34,34,34);stroke-width:9px;"/>
    </g>
    <g transform="matrix(1,0,0,1,-1.61035,-8)">
        <g>
            <g transform="matrix(0.819915,0,0,0.831352,9.93709,9.84877)">
                <ellipse cx="84.989" cy="67.42" rx="9.147" ry="9.021" style="fill:rgb(34,34,34);"/>
                <path d="M84.989,58.398C90.037,58.398 94.136,62.441 94.136,67.42C94.136,72.399 90.037,76.441 84.989,76.441C79.94,76.441 75.841,72.399 75.841,67.42C75.841,62.441 79.94,58.398 84.989,58.398ZM84.989,69.224C85.998,69.224 86.818,68.416 86.818,67.42C86.818,66.424 85.998,65.616 84.989,65.616C83.979,65.616 83.159,66.424 83.159,67.42C83.159,68.416 83.979,69.224 84.989,69.224Z" style="fill:rgb(34,34,34);"/>
            </g>
            <g transform="matrix(0.819915,0,0,0.831352,109.916,9.84877)">
                <ellipse cx="84.989" cy="67.42" rx="9.147" ry="9.021" style="fill:rgb(34,34,34);"/>
                <path d="M84.989,58.398C90.037,58.398 94.136,62.441 94.136,67.42C94.136,72.399 90.037,76.441 84.989,76.441C79.94,76.441 75.841,72.399 75.841,67.42C75.841,62.441 79.94,58.398 84.989,58.398ZM84.989,69.224C85.998,69.224 86.818,68.416 86.818,67.42C86.818,66.424 85.998,65.616 84.989,65.616C83.979,65.616 83.159,66.424 83.159,67.42C83.159,68.416 83.979,69.224 84.989,69.224Z" style="fill:rgb(34,34,34);"/>
            </g>
        </g>
    </g>
</svg>
