<?xml version="1.0" encoding="UTF-8" standalone="no"?>
<!DOCTYPE svg PUBLIC "-//W3C//DTD SVG 1.1//EN" "http://www.w3.org/Graphics/SVG/1.1/DTD/svg11.dtd">
<svg width="100%" height="100%" viewBox="0 0 256 256" version="1.1" xmlns="http://www.w3.org/2000/svg" xmlns:xlink="http://www.w3.org/1999/xlink" xml:space="preserve" xmlns:serif="http://www.serif.com/" style="fill-rule:evenodd;clip-rule:evenodd;stroke-linecap:round;stroke-linejoin:round;stroke-miterlimit:1.5;">
    <g transform="matrix(1.02536,0,0,1,-5.18998,0)">
        <rect x="23.475" y="218.488" width="212.843" height="37.512"/>
    </g>
    <g transform="matrix(1.02536,0,0,1,-5.18998,-218.488)">
        <rect x="23.475" y="218.488" width="212.843" height="37.512"/>
    </g>
    <g transform="matrix(1,0,0,1,-0.216012,0)">
        <g>
            <g transform="matrix(0.995487,-0.28103,0.406192,1.01753,-12.0955,7.58467)">
                <path d="M28.866,30.098L51.38,68.195" style="fill:none;stroke:black;stroke-width:10.72px;"/>
            </g>
            <g transform="matrix(0.995487,-0.28103,0.406192,1.01753,-12.0955,72.4587)">
                <path d="M28.866,30.098L51.38,68.195" style="fill:none;stroke:black;stroke-width:10.72px;"/>
            </g>
            <g transform="matrix(0.995487,-0.28103,0.406192,1.01753,-12.0955,137.333)">
                <path d="M28.866,30.098L51.38,68.195" style="fill:none;stroke:black;stroke-width:10.72px;"/>
            </g>
            <g transform="matrix(0.995487,0.28103,0.406192,-1.01753,-12.0955,117.486)">
                <path d="M28.866,30.098L51.38,68.195" style="fill:none;stroke:black;stroke-width:10.72px;"/>
            </g>
            <g transform="matrix(0.995487,0.28103,0.406192,-1.01753,-12.0955,182.36)">
                <path d="M28.866,30.098L51.38,68.195" style="fill:none;stroke:black;stroke-width:10.72px;"/>
            </g>
            <g transform="matrix(0.995487,0.28103,0.406192,-1.01753,-12.0955,247.234)">
                <path d="M28.866,30.098L51.38,68.195" style="fill:none;stroke:black;stroke-width:10.72px;"/>
            </g>
        </g>
        <g transform="matrix(-1,0,0,-1,256.432,254.819)">
            <g transform="matrix(0.995487,-0.28103,0.406192,1.01753,-12.0955,7.58467)">
                <path d="M28.866,30.098L51.38,68.195" style="fill:none;stroke:black;stroke-width:8.93px;"/>
            </g>
            <g transform="matrix(0.995487,-0.28103,0.406192,1.01753,-12.0955,72.4587)">
                <path d="M28.866,30.098L51.38,68.195" style="fill:none;stroke:black;stroke-width:8.93px;"/>
            </g>
            <g transform="matrix(0.995487,-0.28103,0.406192,1.01753,-12.0955,137.333)">
                <path d="M28.866,30.098L51.38,68.195" style="fill:none;stroke:black;stroke-width:8.93px;"/>
            </g>
            <g transform="matrix(0.995487,0.28103,0.406192,-1.01753,-12.0955,117.486)">
                <path d="M28.866,30.098L51.38,68.195" style="fill:none;stroke:black;stroke-width:8.93px;"/>
            </g>
            <g transform="matrix(0.995487,0.28103,0.406192,-1.01753,-12.0955,182.36)">
                <path d="M28.866,30.098L51.38,68.195" style="fill:none;stroke:black;stroke-width:8.93px;"/>
            </g>
            <g transform="matrix(0.995487,0.28103,0.406192,-1.01753,-12.0955,247.234)">
                <path d="M28.866,30.098L51.38,68.195" style="fill:none;stroke:black;stroke-width:8.93px;"/>
            </g>
        </g>
    </g>
    <path d="M66.537,62.535L189.463,62.535" style="fill:none;stroke:black;stroke-width:10px;"/>
    <g>
        <g transform="matrix(0.995487,-0.28103,0.406192,1.01753,-12.0955,7.58467)">
            <path d="M28.866,30.098L51.38,68.195" style="fill:none;stroke:black;stroke-width:8.93px;"/>
        </g>
        <g transform="matrix(0.995487,-0.28103,0.406192,1.01753,-12.0955,72.4587)">
            <path d="M28.866,30.098L51.38,68.195" style="fill:none;stroke:black;stroke-width:8.93px;"/>
        </g>
        <g transform="matrix(0.995487,-0.28103,0.406192,1.01753,-12.0955,137.333)">
            <path d="M28.866,30.098L51.38,68.195" style="fill:none;stroke:black;stroke-width:8.93px;"/>
        </g>
        <g transform="matrix(0.995487,0.28103,0.406192,-1.01753,-12.0955,117.486)">
            <path d="M28.866,30.098L51.38,68.195" style="fill:none;stroke:black;stroke-width:8.93px;"/>
        </g>
        <g transform="matrix(0.995487,0.28103,0.406192,-1.01753,-12.0955,182.36)">
            <path d="M28.866,30.098L51.38,68.195" style="fill:none;stroke:black;stroke-width:8.93px;"/>
        </g>
        <g transform="matrix(0.995487,0.28103,0.406192,-1.01753,-12.0955,247.234)">
            <path d="M28.866,30.098L51.38,68.195" style="fill:none;stroke:black;stroke-width:8.93px;"/>
        </g>
    </g>
    <path d="M66.537,127.225L189.463,127.409" style="fill:none;stroke:black;stroke-width:10px;"/>
    <path d="M66.537,192.284L189.463,192.284" style="fill:none;stroke:black;stroke-width:10px;"/>
    <path d="M28.866,94.972L227.35,94.972" style="fill:none;stroke:black;stroke-width:10px;"/>
    <g transform="matrix(1,0,0,1,0,64.8741)">
        <path d="M28.866,94.972L227.35,94.972" style="fill:none;stroke:black;stroke-width:10px;"/>
    </g>
</svg>
