<?xml version="1.0" encoding="UTF-8" standalone="no"?>
<!DOCTYPE svg PUBLIC "-//W3C//DTD SVG 1.1//EN" "http://www.w3.org/Graphics/SVG/1.1/DTD/svg11.dtd">
<svg width="100%" height="100%" viewBox="0 0 256 256" version="1.1" xmlns="http://www.w3.org/2000/svg" xmlns:xlink="http://www.w3.org/1999/xlink" xml:space="preserve" xmlns:serif="http://www.serif.com/" style="fill-rule:evenodd;clip-rule:evenodd;stroke-linecap:round;stroke-linejoin:round;stroke-miterlimit:1.5;">
    <g id="mitnahmenstapler" transform="matrix(1.13544,0,0,1.22414,-26.7292,-40.8093)">
        <path d="M93.925,60.233C96.619,60.551 98.863,63.274 98.805,66.153L98.805,150.638L126.754,65.571C127.493,63.316 129.657,61.674 131.896,61.655L182.22,61.655C185.092,61.655 187.706,64.433 187.706,67.484L187.706,134.241L244.032,134.241C246.728,134.512 249.013,137.193 249.003,140.07L249.003,188.341C249.003,191.392 246.215,195.263 243.347,195.263L230.829,195.538C228.676,206.874 218.316,215.575 205.966,215.575C193.27,215.575 182.736,206.343 181.021,194.535L160.617,194.716C158.576,206.178 148.198,215.026 135.759,215.026C123.221,215.026 112.812,206.034 110.896,194.442L94.266,194.442C93.956,194.501 93.638,194.531 93.323,194.531L29.113,194.531C26.214,194.576 23.541,191.782 23.541,188.703C23.541,185.623 26.212,182.829 29.113,182.874L87.836,182.874L87.836,66.153C87.781,63.04 90.479,60.184 93.408,60.233C93.571,60.225 93.747,60.225 93.92,60.233L93.925,60.233ZM238.011,145.902L238.023,145.902L155.383,145.902L132.409,163.571C131.493,164.27 130.368,164.658 129.239,164.664L101.977,164.664C100.857,164.693 99.732,164.329 98.806,163.662L98.806,182.788L111.921,182.788C115.32,173.258 124.715,166.394 135.754,166.394C147.01,166.394 156.596,173.512 159.842,183.335L182.215,183.061C185.693,173.666 195.026,166.939 205.96,166.939C216.97,166.939 226.35,173.752 229.793,183.242L237.764,183.152L238.011,145.902ZM205.961,177.962C198.307,177.962 192.245,183.787 192.245,191.169C192.245,198.551 198.307,204.466 205.961,204.466C213.623,204.466 219.766,198.551 219.766,191.169C219.766,183.787 213.627,177.962 205.961,177.962ZM176.731,73.311L135.841,73.311L109.695,153.001L127.441,153.001L150.501,135.332C151.417,134.633 152.542,134.245 153.671,134.239L176.731,134.239L176.731,73.311ZM135.754,177.415C128.094,177.415 122.038,183.24 122.038,190.622C122.038,198.004 128.094,203.92 135.754,203.92C137.999,203.92 140.113,203.412 141.98,202.508C146.486,200.327 149.555,195.841 149.555,190.622C149.555,183.24 143.416,177.415 135.754,177.415Z"/>
    </g>
    <g transform="matrix(0.655369,0,0,1.35224,-30.2927,-66.1929)">
        <g transform="matrix(0.735344,0,0,0.709652,55.7309,51.9071)">
            <rect x="9.614" y="77.679" width="112.977" height="100.013" style="fill:none;stroke:black;stroke-width:14.76px;"/>
        </g>
        <g transform="matrix(0.735344,0,0,0.431185,38.6074,73.4024)">
            <path d="M89.389,77.994L89.389,116.088" style="fill:none;stroke:black;stroke-width:47.78px;stroke-linecap:butt;"/>
        </g>
    </g>
</svg>
