<?xml version="1.0" encoding="UTF-8" standalone="no"?>
<!DOCTYPE svg PUBLIC "-//W3C//DTD SVG 1.1//EN" "http://www.w3.org/Graphics/SVG/1.1/DTD/svg11.dtd">
<svg width="100%" height="100%" viewBox="0 0 256 256" version="1.1" xmlns="http://www.w3.org/2000/svg" xmlns:xlink="http://www.w3.org/1999/xlink" xml:space="preserve" xmlns:serif="http://www.serif.com/" style="fill-rule:evenodd;clip-rule:evenodd;stroke-linecap:round;stroke-miterlimit:1.5;">
    <g transform="matrix(1,0,0,1,0,85.8244)">
        <g transform="matrix(1,0,0,1,-9.87086,-50.6414)">
            <path d="M298.696,144.976L298.696,212.307L-22.954,212.307L-22.954,144.976L298.696,144.976ZM286.696,156.976C286.696,156.976 46.045,156.976 -10.954,156.976L-10.954,200.307C-10.954,200.307 286.696,200.307 286.696,200.307L286.696,156.976Z" style="fill:rgb(34,34,34);"/>
        </g>
        <g transform="matrix(0.969186,-0.246332,0.246332,0.969186,128,128)">
            <path d="M0,-19.689C10.867,-19.689 19.689,-10.867 19.689,0C19.689,10.867 10.867,19.689 0,19.689C-10.867,19.689 -19.689,10.867 -19.689,0C-19.689,-10.867 -10.867,-19.689 0,-19.689ZM-0,-10.689C-5.899,-10.689 -10.689,-5.899 -10.689,0C-10.689,5.899 -5.899,10.689 0,10.689C5.899,10.689 10.689,5.899 10.689,0C10.689,-5.899 5.899,-10.689 -0,-10.689Z" style="fill:rgb(34,34,34);"/>
        </g>
        <g transform="matrix(0.969186,-0.246332,0.246332,0.969186,28,128)">
            <path d="M0,-19.689C10.867,-19.689 19.689,-10.867 19.689,0C19.689,10.867 10.867,19.689 -0,19.689C-10.867,19.689 -19.689,10.867 -19.689,0C-19.689,-10.867 -10.867,-19.689 0,-19.689ZM-0,-10.689C-5.899,-10.689 -10.689,-5.899 -10.689,0C-10.689,5.899 -5.899,10.689 0,10.689C5.899,10.689 10.689,5.899 10.689,0C10.689,-5.899 5.899,-10.689 -0,-10.689Z" style="fill:rgb(34,34,34);"/>
        </g>
        <g transform="matrix(0.969186,-0.246332,0.246332,0.969186,228,128)">
            <path d="M0,-19.689C10.867,-19.689 19.689,-10.867 19.689,0C19.689,10.867 10.867,19.689 0,19.689C-10.867,19.689 -19.689,10.867 -19.689,0C-19.689,-10.867 -10.867,-19.689 0,-19.689ZM0,-10.689C-5.899,-10.689 -10.689,-5.899 -10.689,0C-10.689,5.899 -5.899,10.689 0,10.689C5.899,10.689 10.689,5.899 10.689,0C10.689,-5.899 5.899,-10.689 0,-10.689Z" style="fill:rgb(34,34,34);"/>
        </g>
    </g>
    <g transform="matrix(1,0,0,0.780716,0,43.5206)">
        <path d="M288.825,93.58L288.825,171.132L-23.078,171.132L-23.078,93.58L288.825,93.58ZM279.825,105.108C279.825,105.108 -14.078,105.108 -14.078,105.108C-14.078,105.108 -14.078,159.604 -14.078,159.604C-14.078,159.604 279.825,159.604 279.825,159.604L279.825,105.108Z" style="fill:rgb(34,34,34);"/>
    </g>
    <g transform="matrix(0.539687,-6.94108e-17,6.94108e-17,-1.10647,33.0845,251.928)">
        <path d="M175.871,46.189C175.871,46.189 132.874,107.064 132.874,133.153C132.874,144.728 152.14,154.126 175.871,154.126C199.603,154.126 218.869,144.728 218.869,133.153C218.869,107.064 175.871,46.189 175.871,46.189ZM175.871,72.76C187.819,92.065 202.193,118.364 202.193,133.153C202.193,140.239 190.399,145.992 175.871,145.992C161.344,145.992 149.55,140.239 149.55,133.153C149.55,118.364 163.924,92.065 175.871,72.76Z" style="fill:rgb(34,34,34);"/>
    </g>
    <g transform="matrix(0.99986,-0.00236852,-0.00236852,0.959935,-0.544655,30.7024)">
        <path d="M122.178,140.989L124.773,184.873" style="fill:none;stroke:rgb(34,34,34);stroke-width:9.2px;"/>
    </g>
    <g transform="matrix(-0.99986,-0.00236852,0.00236852,0.959935,256.6,30.7024)">
        <path d="M122.178,140.989L124.773,184.873" style="fill:none;stroke:rgb(34,34,34);stroke-width:9.2px;"/>
    </g>
    <g transform="matrix(1,0,0,1.2905,-1.99597,1.06581e-14)">
        <rect x="112.299" y="0" width="35.394" height="79.173" style="fill:rgb(34,34,34);"/>
        <path d="M147.693,0L147.693,79.173L112.299,79.173L112.299,0L147.693,0ZM138.693,6.974C138.693,6.974 121.299,6.974 121.299,6.974L121.299,72.199C121.299,72.199 138.693,72.199 138.693,72.199L138.693,6.974Z" style="fill:rgb(34,34,34);"/>
    </g>
</svg>
