<?xml version="1.0" encoding="UTF-8" standalone="no"?>
<!DOCTYPE svg PUBLIC "-//W3C//DTD SVG 1.1//EN" "http://www.w3.org/Graphics/SVG/1.1/DTD/svg11.dtd">
<svg width="100%" height="100%" viewBox="0 0 256 256" version="1.1" xmlns="http://www.w3.org/2000/svg" xmlns:xlink="http://www.w3.org/1999/xlink" xml:space="preserve" xmlns:serif="http://www.serif.com/" style="fill-rule:evenodd;clip-rule:evenodd;stroke-linecap:square;stroke-linejoin:round;stroke-miterlimit:1.5;">
    <g transform="matrix(1.07335,0,0,1.27793,-22.4976,-68.011)">
        <path d="M259.466,53.239L259.466,187.134L-4.122,187.134L-4.122,53.239L259.466,53.239ZM250.615,60.673L4.729,60.673C4.729,60.673 4.729,179.7 4.729,179.7L250.615,179.7L250.615,60.673Z"/>
    </g>
    <g transform="matrix(-0.707107,0.707107,-0.707107,-0.707107,102.708,226.265)">
        <path d="M0,-29.741C16.415,-29.741 29.741,-16.415 29.741,0C29.741,16.415 16.415,29.741 -0,29.741C-16.415,29.741 -29.741,16.415 -29.741,0C-29.741,-16.415 -16.415,-29.741 0,-29.741ZM0,-11.741C-6.48,-11.741 -11.741,-6.48 -11.741,0C-11.741,6.48 -6.48,11.741 0,11.741C6.48,11.741 11.741,6.48 11.741,-0C11.741,-6.48 6.48,-11.741 0,-11.741Z"/>
    </g>
    <g transform="matrix(-0.707107,0.707107,-0.707107,-0.707107,167.893,226.265)">
        <path d="M-0,-29.741C16.415,-29.741 29.741,-16.415 29.741,0C29.741,16.415 16.415,29.741 -0,29.741C-16.415,29.741 -29.741,16.415 -29.741,0C-29.741,-16.415 -16.415,-29.741 -0,-29.741ZM0,-11.741C-6.48,-11.741 -11.741,-6.48 -11.741,0C-11.741,6.48 -6.48,11.741 0,11.741C6.48,11.741 11.741,6.48 11.741,0C11.741,-6.48 6.48,-11.741 0,-11.741Z"/>
    </g>
    <g transform="matrix(0.968545,0,0,1,2.84217e-14,-11)">
        <path d="M204.047,196.529L0,196.529" style="fill:none;stroke:black;stroke-width:18.29px;"/>
    </g>
    <g transform="matrix(1.02966,0,0,1.25232,-8.42996e-16,-49.5887)">
        <rect x="0" y="196.529" width="65.572" height="33.391"/>
        <path d="M65.572,196.529L65.572,229.92L0,229.92L0,196.529L65.572,196.529ZM53.918,206.112L11.654,206.112C11.654,206.112 11.654,220.338 11.654,220.338L53.918,220.338L53.918,206.112Z"/>
    </g>
</svg>
