<svg width="20px" height="11px" viewBox="0 0 28 15" version="1.1" xmlns="http://www.w3.org/2000/svg" xmlns:xlink="http://www.w3.org/1999/xlink">
    <g id="Symbols" stroke="none" stroke-width="1" fill="none" fill-rule="evenodd">
        <g id="auftrag/es-doppelt-compact" transform="translate(-765.000000, -60.000000)" fill="#000000" fill-rule="nonzero">
            <g id="Shape" transform="translate(765.000000, 60.000000)">
                <path d="M27.75,5.87015481 C27.75,5.63230736 27.564856,5.39320207 27.2988697,5.28675188 L14.2400352,0.0690621794 C14.0104854,-0.0230207265 13.7394913,-0.0230207265 13.5099648,0.0690621794 L0.451130264,5.28675188 C0.184689231,5.39321139 0,5.63251234 0,5.87015481 L0,9.13121087 C0,9.37833836 0.174667741,9.60415718 0.451130264,9.7146138 L3.71583889,11.0190362 C3.7468099,11.0315927 3.77983301,11.0377798 3.81216528,11.0468791 C3.83379922,11.0528846 3.85406724,11.0607097 3.8761594,11.0654411 C3.94333661,11.0792717 4.0121112,11.0878245 4.08088578,11.0878245 C4.14966037,11.0878245 4.21866232,11.0792717 4.28583953,11.0650772 C4.30747347,11.0607097 4.32774148,11.0528846 4.34891836,11.0468796 C4.38125588,11.0377808 4.41450402,11.0312293 4.44593268,11.0190367 L8.16175408,9.53427787 L9.79410839,10.1864891 L9.79410839,13.0444786 C9.79410839,13.2916061 9.96877613,13.5174249 10.2452387,13.6278815 L13.5099473,14.932304 C13.7351714,15.0225653 14.0150502,15.0225653 14.2400177,14.932304 L27.2988522,9.71461427 C27.5753148,9.60433467 27.75,9.37831553 27.75,9.13121134 L27.75,5.87015481 Z M13.5082801,1.42857143 L24.6169355,5.86056525 L23.1933328,6.42857143 L12.0846774,1.99657761 L13.5082801,1.42857143 Z M10.3752156,2.85714286 L21.483871,7.28913667 L20.0602682,7.85714286 L8.9516129,3.42514904 L10.3752156,2.85714286 Z M7.24215111,3.92857143 L18.3508065,8.36056525 L16.9272037,8.92857143 L5.81854839,4.49657761 L7.24215111,3.92857143 Z M3.13306452,9.28571429 L1.34274194,8.62151465 L1.34274194,6.78571429 L3.13306452,7.44991393 L3.13306452,9.28571429 Z M4.9233871,9.28571429 L4.9233871,8.21428571 L6.26612903,8.75002169 L4.9233871,9.28571429 Z M12.9798387,13.2142857 L11.1895161,12.5500861 L11.1895161,10.7142857 L12.9798387,11.3784854 L12.9798387,13.2142857 Z M13.7939663,10.3571429 L4.47007465,6.63708876 L2.68548387,5.92514904 L4.10908659,5.35714286 L15.2177419,9.78913667 L13.7939663,10.3571429 Z M25.9596774,8.6054851 L14.3225806,13.2142857 L14.3225806,11.3945149 L25.9596774,6.78571429 L25.9596774,8.6054851 Z"></path>
            </g>
        </g>
    </g>
</svg>


