
<svg width="22px" height="28px" viewBox="0 0 22 28" version="1.1" xmlns="http://www.w3.org/2000/svg" xmlns:xlink="http://www.w3.org/1999/xlink">
    <g id="Dispotool" stroke="none" stroke-width="1" fill="none" fill-rule="evenodd">
        <g id="Dispo-Tool-Inital" transform="translate(-683.000000, -117.000000)" fill="#A31621" fill-rule="nonzero">
            <g id="noun-pdf-2956522" transform="translate(683.000000, 117.000000)">
                <path d="M8.52316229,0 C8.50767458,0.000815129026 8.49218739,0.00203779648 8.47669968,0.00366805453 C8.45713658,0.00550213397 8.43777746,0.00835505947 8.4184173,0.0120233227 C8.41576815,0.0128383995 8.41291512,0.0136535807 8.41026601,0.0144686576 C8.39905818,0.0169140968 8.38784983,0.0197668658 8.37684598,0.0228239257 C8.36380392,0.0260844418 8.35055788,0.0295489358 8.33771979,0.0336243201 C8.33323655,0.0352545782 8.32895709,0.0368848362 8.32447375,0.0385150943 C8.30959745,0.0438133025 8.29492512,0.0499269006 8.28045678,0.0564479329 C8.268841,0.061950119 8.25742919,0.0680637171 8.24601738,0.0743807714 C8.2405152,0.0770299277 8.23501301,0.0798829576 8.22951082,0.0825320617 C8.21911786,0.0882382257 8.2087249,0.0943513021 8.19853592,0.100668878 C8.18773553,0.107801322 8.17693513,0.115341201 8.16654217,0.123085057 C8.16368919,0.125122853 8.16103999,0.127160702 8.1581869,0.129198655 C8.14310715,0.140406483 8.12843483,0.152226246 8.11416994,0.164656898 C8.1049998,0.172808188 8.09582966,0.181163456 8.08686298,0.189722181 L0.189110456,8.09216985 C0.158542987,8.12232989 0.131031534,8.1553404 0.106987185,8.19079916 C0.0715289415,8.24459507 0.0442235537,8.30349303 0.0262881067,8.36564629 C0.00896668013,8.42433558 5.68434189e-14,8.48506465 5.68434189e-14,8.54619542 L5.68434189e-14,27.3580691 C5.68434189e-14,27.7124481 0.287535786,27.9995822 0.641930411,28 L21.2687378,28 C21.4390985,28 21.6027346,27.932546 21.7233737,27.8123138 C21.8438094,27.6918782 21.9118738,27.5284454 21.9118738,27.3580848 L21.9118738,0.643241712 C21.9118738,0.472677593 21.8444197,0.30904142 21.7235772,0.188397107 C21.6029381,0.0675545549 21.4393019,0 21.2685291,0 L8.54103931,0 L8.53635236,0 L8.52310632,0 L8.52316229,0 Z M9.18282991,1.28506069 L20.6269806,1.28506069 L20.6269806,26.7144779 L1.28507738,26.7144779 L1.28507738,9.18803005 L8.54116034,9.18803005 L8.54095652,9.18803005 C8.8953355,9.18782628 9.18267826,8.90049426 9.18288693,8.54609963 L9.18282991,1.28506069 Z M7.89776922,2.19331006 L7.89776922,7.90260418 L2.19317025,7.90260418 L7.89776922,2.19331006 Z M9.46568621,11.1312976 C9.30612437,11.1239617 9.14350548,11.1398564 8.9841471,11.1824471 C8.34732918,11.3530112 7.87598897,11.9193237 7.81808221,12.5127376 C7.76000329,13.1061516 7.95909823,13.6940878 8.26742306,14.3206808 C8.54538076,14.88535 9.18036757,15.5011963 9.63563996,16.1062437 C9.5272291,16.8316955 9.5596308,17.4232836 9.35625285,18.1817578 C9.15288012,18.9408582 8.83008381,19.4354132 8.56110427,20.1180871 C7.86439719,20.4143871 7.00622935,20.6285639 6.48313823,20.9786546 C5.90276636,21.3672664 5.43387806,21.7742206 5.18748738,22.3170835 C4.94111235,22.8599464 5.0672552,23.5852416 5.533509,24.0514694 C5.9997628,24.5176971 6.72847511,24.6438399 7.271338,24.3972875 C7.81420089,24.1509125 8.22017427,23.6867037 8.60856695,23.1063318 C8.95886637,22.583032 9.17281882,21.7220471 9.46913453,21.0249227 C10.1518083,20.7559327 10.6478241,20.4329173 11.4067158,20.2295654 C12.1656074,20.0261927 12.7553696,20.0573684 13.48103,19.9489576 C14.0864427,20.404616 14.7024976,21.0414131 15.2677929,21.3195742 C15.894438,21.627899 16.478879,21.8282147 17.0722929,21.7701358 C17.6657068,21.7120569 18.2330366,21.2384891 18.4036268,20.6016712 C18.5743944,19.9648532 18.3178361,19.2772756 17.8330104,18.9302524 C17.3482108,18.5832135 16.7431634,18.4582913 16.0462476,18.4120338 C15.4186113,18.3702585 14.5686339,18.6174463 13.8174631,18.7091476 C13.243195,18.2524719 12.7147827,17.9844784 12.1590864,17.4287821 C11.6035988,16.8732945 11.3368103,16.3471254 10.8799207,15.7728573 C10.9718255,15.0206953 11.2129003,14.1700919 11.1711239,13.5416209 C11.1248653,12.8447051 11.0034134,12.2362146 10.6563693,11.7514149 C10.3961384,11.3878648 9.94395958,11.1530972 9.46526364,11.1308735 L9.46568621,11.1312976 Z M9.45977659,12.3081614 C9.57980531,12.2885983 9.59305083,12.3289473 9.68210205,12.4532517 C9.80070137,12.6191311 9.93255142,13.0401446 9.97106725,13.6194731 C9.98512816,13.8314067 9.86489441,14.2086093 9.85816992,14.4552086 C9.72978905,14.2461287 9.43919621,13.980394 9.34586198,13.7906893 C9.08950194,13.2698206 8.99556256,12.8357494 9.01532911,12.6328149 C9.03509619,12.429849 9.01471776,12.4218986 9.29695424,12.3462964 C9.36746485,12.3273447 9.41983657,12.31471 9.45977659,12.308189 L9.45977659,12.3081614 Z M10.6592292,17.4339014 C10.9168099,17.7179732 11.0323522,18.0067088 11.3070546,18.2814269 C11.5821587,18.556531 11.8701066,18.6726888 12.1545801,18.9304522 C11.7794173,19.0115582 11.4710716,18.9687635 11.0953036,19.0694336 C10.7199374,19.1701027 10.4762229,19.3622697 10.1110451,19.4794448 C10.2286272,19.1132497 10.4189578,18.8658418 10.5200338,18.4892913 C10.6204995,18.1143319 10.5781127,17.808026 10.6590153,17.4337188 L10.6592292,17.4339014 Z M15.9657843,19.6139607 C16.5449563,19.6524755 16.969606,19.7890113 17.135501,19.9076106 C17.3013804,20.0262099 17.3158467,20.0117436 17.240041,20.2939791 C17.1644387,20.5762198 17.1575108,20.551153 16.9547432,20.5709195 C16.7517774,20.5906866 16.3211597,20.4991882 15.8005205,20.2428282 C15.6091673,20.1486801 15.3434379,19.8554371 15.132506,19.7258303 C15.3786775,19.7191053 15.7540386,19.6000944 15.9657896,19.6141589 L15.9657843,19.6139607 Z M7.93082929,21.6562436 C7.81324725,21.873274 7.72928766,22.2592565 7.61109526,22.4361069 C7.28830416,22.9184598 6.95758349,23.2159702 6.77191666,23.3003263 C6.5862707,23.3844893 6.59218136,23.4071095 6.38554811,23.200471 C6.17891486,22.9938378 6.2025523,23.0021899 6.28691881,22.8165439 C6.37108186,22.630898 6.67003206,22.3013824 7.1523902,21.9786174 C7.32906844,21.8602215 7.71382499,21.7740187 7.93105361,21.6564367 L7.93082929,21.6562436 Z" id="Shape"></path>
            </g>
        </g>
    </g>
</svg>
