<?xml version="1.0" encoding="UTF-8" standalone="no"?>
<!DOCTYPE svg PUBLIC "-//W3C//DTD SVG 1.1//EN" "http://www.w3.org/Graphics/SVG/1.1/DTD/svg11.dtd">
<svg width="100%" height="100%" viewBox="0 0 256 256" version="1.1" xmlns="http://www.w3.org/2000/svg" xmlns:xlink="http://www.w3.org/1999/xlink" xml:space="preserve" xmlns:serif="http://www.serif.com/" style="fill-rule:evenodd;clip-rule:evenodd;stroke-linecap:square;stroke-linejoin:round;stroke-miterlimit:1.5;">
    <g transform="matrix(1.08604,0,0,1.17019,0,-76.073)">
        <path d="M256,65.009L256,256L0,256L256,65.009ZM239.426,97.11L47.071,240.618C105.207,240.618 201.104,240.618 239.426,240.618L239.426,97.11Z"/>
    </g>
    <g transform="matrix(0.993837,-0.110848,0.110848,0.993837,-14.2882,12.6647)">
        <g transform="matrix(0.768311,0.148352,0.148352,0.905009,-3.20532,-19.4086)">
            <path d="M42.597,161.629L191.69,66.164" style="fill:none;stroke:black;stroke-width:7.09px;"/>
        </g>
        <g transform="matrix(0.232609,0.361435,-0.992323,0.63863,187.292,-43.6077)">
            <path d="M176.451,39.369L210.025,80.53L142.877,80.53L176.451,39.369Z"/>
        </g>
    </g>
    <g transform="matrix(-0.586184,-0.810178,0.810178,-0.586184,244.132,233.897)">
        <path d=""/>
    </g>
</svg>
