<?xml version="1.0" encoding="UTF-8" standalone="no"?>
<!DOCTYPE svg PUBLIC "-//W3C//DTD SVG 1.1//EN" "http://www.w3.org/Graphics/SVG/1.1/DTD/svg11.dtd">
<svg width="100%" height="100%" viewBox="0 0 256 256" version="1.1" xmlns="http://www.w3.org/2000/svg" xmlns:xlink="http://www.w3.org/1999/xlink" xml:space="preserve" xmlns:serif="http://www.serif.com/" style="fill-rule:evenodd;clip-rule:evenodd;stroke-linejoin:round;stroke-miterlimit:2;">
    <g transform="matrix(0.937996,0,0,0.937996,7.93645,7.93645)">
        <g transform="matrix(0.687708,0,0,0.255595,8.65971,-5.05214)">
            <path d="M166.092,143.115C166.092,143.115 71.997,152.969 45.299,143.083C23.048,134.843 5.901,83.797 5.901,83.797C5.901,83.797 99.48,73.434 126.179,83.32C148.652,91.642 166.092,143.115 166.092,143.115Z"/>
        </g>
        <g transform="matrix(0.687708,0,0,0.255595,8.65971,52.6086)">
            <path d="M166.092,143.115C166.092,143.115 71.997,152.969 45.299,143.083C23.048,134.843 5.901,83.797 5.901,83.797C5.901,83.797 99.48,73.434 126.179,83.32C148.652,91.642 166.092,143.115 166.092,143.115Z"/>
        </g>
        <g transform="matrix(0.687708,0,0,0.255595,8.65971,110.269)">
            <path d="M166.092,143.115C166.092,143.115 71.997,152.969 45.299,143.083C23.048,134.843 5.901,83.797 5.901,83.797C5.901,83.797 99.48,73.434 126.179,83.32C148.652,91.642 166.092,143.115 166.092,143.115Z"/>
        </g>
        <g transform="matrix(0.687708,0,0,0.255595,8.65971,167.93)">
            <path d="M166.092,143.115C166.092,143.115 71.997,152.969 45.299,143.083C23.048,134.843 5.901,83.797 5.901,83.797C5.901,83.797 99.48,73.434 126.179,83.32C148.652,91.642 166.092,143.115 166.092,143.115Z"/>
        </g>
        <g transform="matrix(0.687708,0,0,0.255595,129.059,30.1697)">
            <path d="M166.092,143.115C166.092,143.115 71.997,152.969 45.299,143.083C23.048,134.843 5.901,83.797 5.901,83.797C5.901,83.797 99.48,73.434 126.179,83.32C148.652,91.642 166.092,143.115 166.092,143.115Z"/>
        </g>
        <g transform="matrix(0.687708,0,0,0.255595,129.059,87.8304)">
            <path d="M166.092,143.115C166.092,143.115 71.997,152.969 45.299,143.083C23.048,134.843 5.901,83.797 5.901,83.797C5.901,83.797 99.48,73.434 126.179,83.32C148.652,91.642 166.092,143.115 166.092,143.115Z"/>
        </g>
        <g transform="matrix(0.687708,0,0,0.255595,129.059,145.491)">
            <path d="M166.092,143.115C166.092,143.115 71.997,152.969 45.299,143.083C23.048,134.843 5.901,83.797 5.901,83.797C5.901,83.797 99.48,73.434 126.179,83.32C148.652,91.642 166.092,143.115 166.092,143.115Z"/>
        </g>
        <g transform="matrix(0.687708,0,0,0.255595,129.059,203.152)">
            <path d="M166.092,143.115C166.092,143.115 71.997,152.969 45.299,143.083C23.048,134.843 5.901,83.797 5.901,83.797C5.901,83.797 99.48,73.434 126.179,83.32C148.652,91.642 166.092,143.115 166.092,143.115Z"/>
        </g>
    </g>
    <path d="M256,0L256,256L0,256L0,0L256,0ZM244,12C244,12 12,12 12,12L12,244C54.988,244 201.012,244 244,244L244,12Z"/>
</svg>
