<?xml version="1.0" encoding="UTF-8" standalone="no"?>
<!DOCTYPE svg PUBLIC "-//W3C//DTD SVG 1.1//EN" "http://www.w3.org/Graphics/SVG/1.1/DTD/svg11.dtd">
<svg width="100%" height="100%" viewBox="0 0 256 256" version="1.1" xmlns="http://www.w3.org/2000/svg" xmlns:xlink="http://www.w3.org/1999/xlink" xml:space="preserve" xmlns:serif="http://www.serif.com/" style="fill-rule:evenodd;clip-rule:evenodd;stroke-linecap:square;stroke-linejoin:round;stroke-miterlimit:1.5;">
    <g transform="matrix(1.07335,0,0,1.27793,-22.4976,-68.011)">
        <path d="M259.466,53.239L259.466,187.134L-4.122,187.134L-4.122,53.239L259.466,53.239ZM250.615,60.673L4.729,60.673C4.729,60.673 4.729,179.7 4.729,179.7L250.615,179.7L250.615,60.673Z"/>
    </g>
    <g transform="matrix(-0.707107,0.707107,-0.707107,-0.707107,102.708,226.265)">
        <path d="M0,-29.741C16.415,-29.741 29.741,-16.415 29.741,0C29.741,16.415 16.415,29.741 -0,29.741C-16.415,29.741 -29.741,16.415 -29.741,0C-29.741,-16.415 -16.415,-29.741 0,-29.741ZM0,-11.741C-6.48,-11.741 -11.741,-6.48 -11.741,0C-11.741,6.48 -6.48,11.741 0,11.741C6.48,11.741 11.741,6.48 11.741,-0C11.741,-6.48 6.48,-11.741 0,-11.741Z"/>
    </g>
    <g transform="matrix(-0.707107,0.707107,-0.707107,-0.707107,0,226.265)">
        <path d="M0,-29.741C16.415,-29.741 29.741,-16.415 29.741,0C29.741,16.415 16.415,29.741 0,29.741C-16.415,29.741 -29.741,16.415 -29.741,0C-29.741,-16.415 -16.415,-29.741 0,-29.741ZM0,-11.741C-6.48,-11.741 -11.741,-6.48 -11.741,0C-11.741,6.48 -6.48,11.741 0,11.741C6.48,11.741 11.741,6.48 11.741,-0C11.741,-6.48 6.48,-11.741 0,-11.741Z"/>
    </g>
    <g transform="matrix(-0.707107,0.707107,-0.707107,-0.707107,167.893,226.265)">
        <path d="M-0,-29.741C16.415,-29.741 29.741,-16.415 29.741,0C29.741,16.415 16.415,29.741 -0,29.741C-16.415,29.741 -29.741,16.415 -29.741,0C-29.741,-16.415 -16.415,-29.741 -0,-29.741ZM0,-11.741C-6.48,-11.741 -11.741,-6.48 -11.741,0C-11.741,6.48 -6.48,11.741 0,11.741C6.48,11.741 11.741,6.48 11.741,0C11.741,-6.48 6.48,-11.741 0,-11.741Z"/>
    </g>
    <g transform="matrix(0.968545,0,0,1,2.84217e-14,-11)">
        <path d="M204.047,196.529L0,196.529" style="fill:none;stroke:black;stroke-width:18.29px;"/>
    </g>
    <g transform="matrix(6.12323e-17,-1,1,6.12323e-17,140.187,222.844)">
        <g transform="matrix(1,0,0,0.513247,0,15.8611)">
            <path d="M138.158,32.586L138.158,134.606" style="fill:none;stroke:black;stroke-width:11.95px;stroke-linecap:butt;"/>
        </g>
        <g transform="matrix(1,0,0,1,26.964,-8.31749)">
            <path d="M111.194,23.234L123.574,51.264L98.814,51.264L111.194,23.234Z"/>
        </g>
    </g>
    <g transform="matrix(0.4115,0,0,0.449197,-86.8357,-46.4597)">
        <path d="M546,75.602C541.359,75.602 537.602,79.364 537.602,84L537.602,91.211L523.598,91.211L523.594,84C523.594,79.36 519.832,75.602 515.195,75.602C510.555,75.602 506.797,79.364 506.797,84L506.797,91.211L468.531,91.211L468.531,84C468.531,79.36 464.769,75.602 460.132,75.602C455.492,75.602 451.734,79.364 451.734,84L451.734,91.211L413.468,91.211L413.464,84C413.464,79.36 409.702,75.602 405.066,75.602C400.425,75.602 396.667,79.364 396.667,84L396.667,91.211L358.397,91.211L358.397,84C358.397,79.36 354.636,75.602 349.999,75.602C345.358,75.602 341.601,79.364 341.601,84L341.601,91.211L303.335,91.211L303.335,84C303.335,79.36 299.573,75.602 294.936,75.602C290.296,75.602 286.538,79.364 286.538,84L286.538,91.211L248.268,91.211L248.268,84C248.268,79.36 244.506,75.602 239.869,75.602C235.229,75.602 231.471,79.364 231.471,84L231.471,91.211L193.205,91.211L193.205,84C193.205,79.36 189.443,75.602 184.807,75.602C180.166,75.602 176.408,79.364 176.408,84L176.408,91.211L162.396,91.211L162.396,84C162.396,79.36 158.634,75.602 153.998,75.602C149.357,75.602 145.599,79.364 145.599,84L145.599,115.891C145.599,120.532 149.361,124.29 153.998,124.29C158.638,124.29 162.396,120.528 162.396,115.891L162.396,108.013L176.4,108.013L176.4,447.703C176.4,467.941 192.521,484.405 212.334,484.405C223.373,484.405 233.272,479.292 239.865,471.26C246.463,479.292 256.357,484.405 267.396,484.405C278.435,484.405 288.334,479.292 294.927,471.26C301.525,479.292 311.419,484.405 322.458,484.405C333.497,484.405 343.396,479.292 349.989,471.26C356.587,479.292 366.481,484.405 377.52,484.405C388.559,484.405 398.458,479.292 405.051,471.26C411.649,479.292 421.543,484.405 432.582,484.405C443.621,484.405 453.52,479.292 460.113,471.26C466.711,479.292 476.605,484.405 487.644,484.405C507.456,484.405 523.578,467.941 523.578,447.703L523.59,108.012L537.598,108.012L537.598,115.891C537.598,120.532 541.36,124.29 545.996,124.29C550.637,124.29 554.395,120.528 554.395,115.891L554.395,84C554.395,79.36 550.637,75.602 545.996,75.602L546,75.602ZM506.793,108.012L506.793,111.766C506.793,122.739 498.211,131.668 487.66,131.668C477.109,131.668 468.527,122.738 468.527,111.766L468.527,108.012L506.793,108.012ZM451.731,108.012L451.731,111.766C451.731,122.739 443.149,131.668 432.598,131.668C422.047,131.668 413.465,122.738 413.465,111.766L413.465,108.012L451.731,108.012ZM396.665,108.012L396.665,111.766C396.665,122.739 388.083,131.668 377.532,131.668C366.981,131.668 358.399,122.738 358.399,111.766L358.399,108.012L396.665,108.012ZM341.603,108.012L341.603,111.766C341.603,122.739 333.021,131.668 322.47,131.668C311.919,131.668 303.337,122.738 303.337,111.766L303.337,108.012L341.603,108.012ZM286.537,108.012L286.537,111.766C286.537,122.739 277.955,131.668 267.404,131.668C256.853,131.668 248.271,122.738 248.271,111.766L248.271,108.012L286.537,108.012ZM231.471,108.012L231.471,111.766C231.471,122.739 222.889,131.668 212.338,131.668C201.787,131.668 193.205,122.738 193.205,111.766L193.205,108.012L231.471,108.012ZM212.342,467.602C201.791,467.602 193.209,458.672 193.209,447.7L193.209,142.82C198.752,146.394 205.314,148.472 212.342,148.472C219.37,148.472 225.932,146.398 231.475,142.82L231.475,447.7C231.471,458.677 222.889,467.606 212.342,467.606L212.342,467.602ZM267.404,467.602C256.853,467.602 248.271,458.672 248.271,447.7L248.271,142.82C253.814,146.394 260.376,148.472 267.404,148.472C274.432,148.472 280.994,146.398 286.537,142.82L286.537,447.7C286.537,458.677 277.955,467.606 267.404,467.606L267.404,467.602ZM322.47,467.602C311.919,467.602 303.337,458.672 303.337,447.7L303.337,142.82C308.88,146.394 315.442,148.472 322.47,148.472C329.498,148.472 336.06,146.398 341.603,142.82L341.603,447.7C341.603,458.677 333.021,467.606 322.47,467.606L322.47,467.602ZM377.532,467.602C366.981,467.602 358.399,458.672 358.399,447.7L358.399,142.82C363.942,146.394 370.504,148.472 377.532,148.472C384.56,148.472 391.122,146.398 396.665,142.82L396.665,447.7C396.665,458.677 388.083,467.606 377.532,467.606L377.532,467.602ZM432.598,467.602C422.047,467.602 413.465,458.672 413.465,447.7L413.465,142.82C419.008,146.394 425.57,148.472 432.598,148.472C439.626,148.472 446.188,146.398 451.731,142.82L451.731,447.7C451.731,458.677 443.149,467.606 432.598,467.606L432.598,467.602ZM487.66,467.602C477.109,467.602 468.527,458.672 468.527,447.7L468.531,142.82C474.074,146.394 480.636,148.472 487.664,148.472C494.691,148.472 501.254,146.402 506.797,142.82L506.797,447.7C506.793,458.677 498.211,467.606 487.66,467.606L487.66,467.602Z" style="fill-rule:nonzero;"/>
    </g>
</svg>
