
<svg width="20px" height="14px" viewBox="0 0 20 14" version="1.1" xmlns="http://www.w3.org/2000/svg" xmlns:xlink="http://www.w3.org/1999/xlink">
    <g id="Symbols" stroke="none" stroke-width="1" fill="none" fill-rule="evenodd">
        <g id="auftrag/es-doppelt-compact" transform="translate(-51.000000, -61.000000)" fill="#1E5959" fill-rule="nonzero">
            <g id="separable" transform="translate(51.000000, 61.000000)">
                <path d="M8.2105389,0 C7.72636988,0 7.34735039,0.479906667 7.34735039,1.09337921 L7.34735039,6.88001143 L3.07370072,6.88001143 L4.18948118,5.60006667 C4.54735422,5.20014524 4.56835029,4.50669222 4.23162745,4.05340921 C3.91590068,3.60010238 3.36843894,3.5735073 3.01058469,4.00002381 L0.273727111,7.19995714 C0.105288623,7.41331302 0,7.70666841 0,8 C0,8.29333159 0.105292382,8.58666317 0.273727111,8.80004286 L3.01058469,11.9999762 C3.17902318,12.1867322 3.38945381,12.2933173 3.60005361,12.2933173 C3.8316382,12.2933173 4.06320776,12.1867322 4.23166504,11.9465956 C4.54739182,11.4932887 4.52639199,10.800031 4.18951877,10.3999381 L3.07373831,9.11999333 L7.34738798,9.11999333 L7.34738798,14.9066256 C7.34738798,15.5199076 7.7262571,16 8.21057649,16 C8.69474551,16 9.07376501,15.5200981 9.07376501,14.9066256 L9.07361816,1.09337444 C9.09476461,0.48009238 8.69474905,0 8.21042965,0 L8.2105389,0 Z" id="Path"></path>
                <path d="M16.9893777,3.97336206 C16.6315047,3.57344063 16.0841971,3.60004048 15.768335,4.02674746 C15.4526082,4.48005429 15.473608,5.17331206 15.8104812,5.57340492 L16.9262617,6.85334968 L12.652612,6.85334968 L12.652612,1.09338397 C12.652612,0.480101904 12.2737429,9.52375285e-06 11.7894235,9.52375285e-06 C11.3052545,9.52375285e-06 10.926235,0.479911429 10.926235,1.09338397 L10.926235,14.8533021 C10.926235,15.4665841 11.3051041,15.9466765 11.7894235,15.9466765 C12.2735925,15.9466765 12.652612,15.4667746 12.652612,14.8533021 L12.652612,9.06666984 L16.9262617,9.06666984 L15.8104812,10.3732335 C15.4526082,10.7731549 15.4316121,11.4666079 15.768335,11.919891 C15.9367734,12.1598467 16.1683693,12.2666127 16.3999464,12.2666127 C16.6105312,12.2666127 16.820958,12.1600276 16.9894153,11.9732716 L19.7262729,8.77333825 C19.8947114,8.55998238 20,8.26662698 20,7.9732954 C20,7.67996381 19.8947076,7.38663222 19.7262729,7.17325254 L16.9893777,3.97336206 Z" id="Path"></path>
            </g>
        </g>
    </g>
</svg>
