
<svg width="20px" height="14px" viewBox="0 0 20 14" version="1.1" xmlns="http://www.w3.org/2000/svg" xmlns:xlink="http://www.w3.org/1999/xlink">
    <g id="Symbols" stroke="none" stroke-width="1" fill="none" fill-rule="evenodd">
        <g id="auftrag/compact-bg" transform="translate(-51.000000, -37.000000)" fill-rule="nonzero">
            <g id="Path" transform="translate(51.000000, 37.000000)">
                <path d="M7.47885089,8.76201952 L13.5899335,13.6508856 C13.9499319,13.9375891 14.4743421,13.879802 14.7621821,13.5209243 C15.0488855,13.160926 14.9910985,12.6365158 14.6322208,12.3486758 L8.5211381,7.45980971 C8.16113978,7.17310628 7.63672952,7.23089332 7.34888959,7.58977101 C7.06218617,7.94976933 7.1199732,8.47417959 7.47885089,8.76201952 Z" fill="#7E7B7B" transform="translate(11.055536, 10.555348) scale(1, -1) rotate(90.000000) translate(-11.055536, -10.555348) "></path>
                <path d="M11.6666473,14.1666356 L11.6666473,11.6666473 L14.1666356,11.6666473 C14.62657,11.6666473 14.9999651,11.2932522 14.9999651,10.8333178 C14.9999651,10.3733834 14.62657,9.99998836 14.1666356,9.99998836 L10.8333178,9.99998836 C10.3733834,9.99998836 9.99998836,10.3733834 9.99998836,10.8333178 L9.99998836,14.1666356 C9.99998836,14.62657 10.3733834,14.9999651 10.8333178,14.9999651 C11.2932522,14.9999651 11.6666473,14.62657 11.6666473,14.1666356 Z" fill="#7E7B7B" transform="translate(12.499977, 12.499977) scale(1, -1) rotate(90.000000) translate(-12.499977, -12.499977) "></path>
                <path d="M10.8333178,1.66669383 L13.3333062,1.66669383 L13.3333062,4.16668219 C13.3333062,4.62661655 13.7067013,5.00001164 14.1666356,5.00001164 C14.62657,5.00001164 14.9999651,4.62661655 14.9999651,4.16668219 L14.9999651,0.833364374 C14.9999651,0.373430007 14.62657,3.49204724e-05 14.1666356,3.49204724e-05 L10.8333178,3.49204724e-05 C10.3733834,3.49204724e-05 9.99998836,0.373430007 9.99998836,0.833364374 C9.99998836,1.29329874 10.3733834,1.66669383 10.8333178,1.66669383 Z" fill="#1E5959" transform="translate(12.499977, 2.500023) scale(1, -1) rotate(90.000000) translate(-12.499977, -2.500023) "></path>
                <path d="M4.93067704,3.38623979 L10.8684272,-1.36262699 C11.2273144,-1.65044787 11.2850919,-2.17487718 10.9983885,-2.5348755 C10.7105676,-2.89376272 10.1861383,-2.95154023 9.82613996,-2.6648368 L3.57601033,2.33513992 C3.37933506,2.49399315 3.26376099,2.73294759 3.26376099,2.98631149 L3.26376099,10.7640531 C3.26376099,11.2239874 3.63715608,11.5973825 4.09709045,11.5973825 C4.55702481,11.5973825 4.9304199,11.2239874 4.9304199,10.7640531 L4.93067704,3.38623979 Z" fill="#1E5959" transform="translate(7.222184, 4.375164) scale(1, -1) rotate(90.000000) translate(-7.222184, -4.375164) "></path>
            </g>
        </g>
    </g>
</svg>
