
<svg width="33px" height="25px" viewBox="0 0 33 25" version="1.1" xmlns="http://www.w3.org/2000/svg" xmlns:xlink="http://www.w3.org/1999/xlink">
    <g id="Symbols" stroke="none" stroke-width="1" fill="none" fill-rule="evenodd">
        <g id="Group-9" fill="#535A65" fill-rule="nonzero">
            <polygon id="Path" points="20.7777778 12.6023281 20.7777778 24.75 33 19.345481 33 9.15159151"></polygon>
            <polygon id="Path" points="29.553456 8.13047592 17.8398539 11.5531466 20.7777778 12.6023281 33 9.15159151 26.7665264 7.26544053 26.6993466 7.26544053"></polygon>
            <polygon id="Path" points="11 20.5764236 20.7777778 24.75 20.7777778 12.6023281 17.8398539 11.5531466 17.8398539 14.9572094 14.465832 13.6749505 14.465832 10.3640687 11.000041 9.15159151"></polygon>
            <polygon id="Path" points="23.6271585 6.31551724 11.000041 9.15159151 14.465832 10.3640687 26.7665264 7.26544053"></polygon>
            <polygon id="Path" points="9.77777775 6.28681083 9.77777775 18.4344828 11.000041 18.0939703 11 9.15159151 22 6.83172988 22 2.83607427"></polygon>
            <polygon id="Path" points="18.553456 1.81495868 6.83985393 5.23762937 9.77777775 6.28681083 22 2.83607427 15.7665264 0.949923292 15.6993466 0.949923292"></polygon>
            <polygon id="Path" points="0 14.2609064 9.77777775 18.4344828 9.77777775 6.28681083 6.83985393 5.23762937 6.83985393 8.64169219 3.46583203 7.35943326 3.46583203 4.04855149 4.09866607e-05 2.83607427"></polygon>
            <polygon id="Path" points="12.6271585 0 4.09866604e-05 2.83607427 3.46583203 4.04855149 15.7665264 0.949923292"></polygon>
        </g>
    </g>
</svg>
