<?xml version="1.0" encoding="UTF-8" standalone="no"?>
<!DOCTYPE svg PUBLIC "-//W3C//DTD SVG 1.1//EN" "http://www.w3.org/Graphics/SVG/1.1/DTD/svg11.dtd">
<svg width="100%" height="100%" viewBox="0 0 256 256" version="1.1" xmlns="http://www.w3.org/2000/svg" xmlns:xlink="http://www.w3.org/1999/xlink" xml:space="preserve" xmlns:serif="http://www.serif.com/" style="fill-rule:evenodd;clip-rule:evenodd;stroke-linecap:round;stroke-linejoin:round;stroke-miterlimit:70;">
    <g transform="matrix(1.43574,1.15675,-1.15675,1.43574,20.2114,-388.918)">
        <g transform="matrix(0.240724,0.112251,-0.124059,0.266046,164.415,152.71)">
            <path d="M145.156,137.534C145.156,124.79 133.722,114.444 119.638,114.444L64.152,114.444C50.068,114.444 38.634,124.79 38.634,137.534C38.634,150.277 50.068,160.623 64.152,160.623L119.638,160.623C133.722,160.623 145.156,150.277 145.156,137.534Z" style="fill:none;stroke:rgb(34,34,34);stroke-width:14.29px;"/>
        </g>
        <g transform="matrix(0.153871,0.216499,-0.239273,0.170057,156.814,120.678)">
            <path d="M145.156,137.534C145.156,124.79 133.722,114.444 119.638,114.444L64.152,114.444C50.068,114.444 38.634,124.79 38.634,137.534C38.634,150.277 50.068,160.623 64.152,160.623L119.638,160.623C133.722,160.623 145.156,150.277 145.156,137.534Z" style="fill:none;stroke:rgb(34,34,34);stroke-width:14.29px;"/>
        </g>
        <g transform="matrix(-0.579315,-0.815104,-0.815104,0.579315,281.626,156.729)">
            <path d="M38.634,121.222L66.927,121.222" style="fill:none;stroke:rgb(34,34,34);stroke-width:4px;"/>
        </g>
        <g transform="matrix(0.576181,-1.23562,1.15235,0.537351,-40.7551,182.022)">
            <path d="M53.657,164.322L53.657,178.165" style="fill:none;stroke:rgb(34,34,34);stroke-width:9.1px;"/>
        </g>
        <g transform="matrix(-0.906308,-0.422618,-0.422618,0.906308,377.73,91.0229)">
            <path d="M73.44,206.856C62.307,206.856 58.393,197.312 58.393,186.179C58.393,175.045 67.432,166.006 78.566,166.006C94.562,166.006 114.286,186.179 114.286,186.179" style="fill:none;stroke:rgb(34,34,34);stroke-width:12px;"/>
        </g>
        <g transform="matrix(-0.628265,-0.0812585,-0.557249,0.741018,371.456,87.5954)">
            <path d="M45.783,218.86L119.041,183.876" style="fill:none;stroke:rgb(34,34,34);stroke-width:7.3px;"/>
        </g>
    </g>
    <g transform="matrix(-1.76389,-0.536789,0.536789,-1.76389,390.46,578.77)">
        <g transform="matrix(0.240724,0.112251,-0.124059,0.266046,164.415,152.71)">
            <path d="M145.156,137.534C145.156,124.79 133.722,114.444 119.638,114.444L64.152,114.444C50.068,114.444 38.634,124.79 38.634,137.534C38.634,150.277 50.068,160.623 64.152,160.623L119.638,160.623C133.722,160.623 145.156,150.277 145.156,137.534Z" style="fill:none;stroke:rgb(34,34,34);stroke-width:14.29px;"/>
        </g>
        <g transform="matrix(0.153871,0.216499,-0.239273,0.170057,156.814,120.678)">
            <path d="M145.156,137.534C145.156,124.79 133.722,114.444 119.638,114.444L64.152,114.444C50.068,114.444 38.634,124.79 38.634,137.534C38.634,150.277 50.068,160.623 64.152,160.623L119.638,160.623C133.722,160.623 145.156,150.277 145.156,137.534Z" style="fill:none;stroke:rgb(34,34,34);stroke-width:14.29px;"/>
        </g>
        <g transform="matrix(-0.579315,-0.815104,-0.815104,0.579315,281.626,156.729)">
            <path d="M38.634,121.222L66.927,121.222" style="fill:none;stroke:rgb(34,34,34);stroke-width:4px;"/>
        </g>
        <g transform="matrix(-0.202477,-0.979287,-0.979287,0.202477,259.405,169.084)">
            <path d="M38.634,121.222L66.927,121.222" style="fill:none;stroke:rgb(34,34,34);stroke-width:4px;"/>
        </g>
        <g transform="matrix(0.576181,-1.23562,1.15235,0.537351,-40.7551,182.022)">
            <path d="M53.657,164.322L53.657,178.165" style="fill:none;stroke:rgb(34,34,34);stroke-width:9.1px;"/>
        </g>
        <g transform="matrix(-0.906308,-0.422618,-0.422618,0.906308,377.73,91.0229)">
            <path d="M73.44,206.856C62.307,206.856 58.393,197.312 58.393,186.179C58.393,175.045 67.432,166.006 78.566,166.006C94.562,166.006 114.286,186.179 114.286,186.179" style="fill:none;stroke:rgb(34,34,34);stroke-width:12px;"/>
        </g>
        <g transform="matrix(-0.628265,-0.0812585,-0.557249,0.741018,371.456,87.5954)">
            <path d="M45.783,218.86L119.041,183.876" style="fill:none;stroke:rgb(34,34,34);stroke-width:7.3px;"/>
        </g>
    </g>
</svg>
