<?xml version="1.0" encoding="UTF-8" standalone="no"?>
<!DOCTYPE svg PUBLIC "-//W3C//DTD SVG 1.1//EN" "http://www.w3.org/Graphics/SVG/1.1/DTD/svg11.dtd">
<svg width="100%" height="100%" viewBox="0 0 256 256" version="1.1" xmlns="http://www.w3.org/2000/svg" xmlns:xlink="http://www.w3.org/1999/xlink" xml:space="preserve" xmlns:serif="http://www.serif.com/" style="fill-rule:evenodd;clip-rule:evenodd;stroke-linecap:round;stroke-miterlimit:1.5;">
    <g transform="matrix(1,0,0,1,3.80488,1.28921)">
        <g transform="matrix(0.819152,0.573576,-0.636189,0.908572,38.6505,-17.0308)">
            <g transform="matrix(0.539687,-6.94108e-17,6.94108e-17,-1.10647,33.0845,251.928)">
                <path d="M175.871,46.189C175.871,46.189 132.874,108.509 132.874,135.218C132.874,145.653 152.14,154.126 175.871,154.126C199.603,154.126 218.869,145.653 218.869,135.218C218.869,108.509 175.871,46.189 175.871,46.189ZM175.872,73.173C187.85,93.052 202.193,120.028 202.193,135.218C202.193,141.606 190.399,146.792 175.871,146.792C161.344,146.792 149.55,141.606 149.55,135.218C149.55,120.028 163.894,93.052 175.872,73.173Z" style="fill:rgb(34,34,34);"/>
            </g>
            <g transform="matrix(0.99986,-0.00236852,-0.00236852,0.959935,-0.544655,30.7024)">
                <path d="M122.178,140.989L124.773,184.873" style="fill:none;stroke:rgb(34,34,34);stroke-width:8.74px;"/>
            </g>
            <g transform="matrix(-0.99986,-0.00236852,0.00236852,0.959935,256.6,30.7024)">
                <path d="M122.178,140.989L124.773,184.873" style="fill:none;stroke:rgb(34,34,34);stroke-width:8.74px;"/>
            </g>
            <g transform="matrix(1,0,1.43275e-16,2.93039,-1.99597,-129.834)">
                <rect x="112.299" y="0" width="35.394" height="79.173" style="fill:rgb(34,34,34);"/>
                <path d="M147.693,0L147.693,79.173L112.299,79.173L112.299,0L147.693,0ZM138.693,2.769L121.299,2.769L121.299,76.404L138.693,76.404L138.693,2.769Z" style="fill:rgb(34,34,34);"/>
            </g>
        </g>
        <g transform="matrix(-0.819152,0.573576,0.636189,0.908572,209.74,-17.0308)">
            <g transform="matrix(0.539687,-6.94108e-17,6.94108e-17,-1.10647,33.0845,251.928)">
                <path d="M175.871,46.189C175.871,46.189 218.869,108.509 218.869,135.218C218.869,145.653 199.603,154.126 175.871,154.126C152.14,154.126 132.874,145.653 132.874,135.218C132.874,108.509 175.871,46.189 175.871,46.189ZM175.871,73.173C163.893,93.052 149.55,120.028 149.55,135.218C149.55,141.606 161.344,146.792 175.871,146.792C190.399,146.792 202.193,141.606 202.193,135.218C202.193,120.028 187.849,93.052 175.871,73.173Z" style="fill:rgb(34,34,34);"/>
            </g>
            <g transform="matrix(0.99986,-0.00236852,-0.00236852,0.959935,-0.544655,30.7024)">
                <path d="M122.178,140.989L124.773,184.873" style="fill:none;stroke:rgb(34,34,34);stroke-width:8.74px;"/>
            </g>
            <g transform="matrix(-0.99986,-0.00236852,0.00236852,0.959935,256.6,30.7024)">
                <path d="M122.178,140.989L124.773,184.873" style="fill:none;stroke:rgb(34,34,34);stroke-width:8.74px;"/>
            </g>
            <g transform="matrix(1,0,1.43275e-16,2.93039,-1.99597,-129.834)">
                <rect x="112.299" y="0" width="35.394" height="79.173" style="fill:rgb(34,34,34);"/>
                <path d="M147.693,0L112.299,0L112.299,79.173L147.693,79.173L147.693,0ZM138.693,2.769L138.693,76.404L121.299,76.404L121.299,2.769L138.693,2.769Z" style="fill:rgb(34,34,34);"/>
            </g>
        </g>
    </g>
</svg>
