<?xml version="1.0" encoding="UTF-8" standalone="no"?>
<!DOCTYPE svg PUBLIC "-//W3C//DTD SVG 1.1//EN" "http://www.w3.org/Graphics/SVG/1.1/DTD/svg11.dtd">
<svg width="100%" height="100%" viewBox="0 0 256 256" version="1.1" xmlns="http://www.w3.org/2000/svg" xmlns:xlink="http://www.w3.org/1999/xlink" xml:space="preserve" xmlns:serif="http://www.serif.com/" style="fill-rule:evenodd;clip-rule:evenodd;stroke-linecap:round;stroke-linejoin:round;stroke-miterlimit:1.5;">
    <g transform="matrix(1,0,0,1,7.18515,0)">
        <g id="Layer1">
            <g transform="matrix(0.5,-0.866025,0.866025,0.5,-49.7105,169.096)">
                <g transform="matrix(1,0,0,1,-7.18515,0)">
                    <path d="M128,54.033C163.797,24.902 164.051,25.24 164.051,25.24" style="fill:none;stroke:black;stroke-width:18px;"/>
                </g>
                <g transform="matrix(-1,0,0,1,248.865,0)">
                    <path d="M128,54.033C163.797,24.902 164.051,25.24 164.051,25.24" style="fill:none;stroke:black;stroke-width:18px;"/>
                </g>
                <g transform="matrix(1,0,0,-1,-7.15989,254.263)">
                    <path d="M128,54.033C163.797,24.902 164.051,25.24 164.051,25.24" style="fill:none;stroke:black;stroke-width:18px;"/>
                </g>
                <g transform="matrix(-1,0,0,-1,248.891,254.263)">
                    <path d="M128,54.033C163.797,24.902 164.051,25.24 164.051,25.24" style="fill:none;stroke:black;stroke-width:18px;"/>
                </g>
                <g transform="matrix(1,0,0,1.07571,-7.18515,-12.1692)">
                    <path d="M128,27.43C128,232.069 128,231.562 128,231.562" style="fill:none;stroke:black;stroke-width:17.33px;"/>
                </g>
            </g>
            <g transform="matrix(-0.5,-0.866025,0.866025,-0.5,71.1422,296.227)">
                <g transform="matrix(1,0,0,1,-7.18515,0)">
                    <path d="M128,54.033C163.797,24.902 164.051,25.24 164.051,25.24" style="fill:none;stroke:black;stroke-width:18px;"/>
                </g>
                <g transform="matrix(-1,0,0,1,248.865,0)">
                    <path d="M128,54.033C163.797,24.902 164.051,25.24 164.051,25.24" style="fill:none;stroke:black;stroke-width:18px;"/>
                </g>
                <g transform="matrix(-0.5,0.866025,-0.866025,-0.5,295.704,80.2801)">
                    <path d="M32.935,182.929L164.168,107.162" style="fill:none;stroke:black;stroke-width:18px;"/>
                </g>
            </g>
            <g transform="matrix(1,0,0,1,0,0.868598)">
                <g transform="matrix(1,0,0,1,-7.18515,0)">
                    <path d="M128,54.033C163.797,24.902 164.051,25.24 164.051,25.24" style="fill:none;stroke:black;stroke-width:18px;"/>
                </g>
                <g transform="matrix(-1,0,0,1,248.865,0)">
                    <path d="M128,54.033C163.797,24.902 164.051,25.24 164.051,25.24" style="fill:none;stroke:black;stroke-width:18px;"/>
                </g>
                <g transform="matrix(1,0,0,-1,-7.15989,254.263)">
                    <path d="M128,54.033C163.797,24.902 164.051,25.24 164.051,25.24" style="fill:none;stroke:black;stroke-width:18px;"/>
                </g>
                <g transform="matrix(-1,0,0,-1,248.891,254.263)">
                    <path d="M128,54.033C163.797,24.902 164.051,25.24 164.051,25.24" style="fill:none;stroke:black;stroke-width:18px;"/>
                </g>
                <g transform="matrix(1,0,0,1.07571,-7.18515,-12.1692)">
                    <path d="M128,27.43C128,232.069 128,231.562 128,231.562" style="fill:none;stroke:black;stroke-width:17.33px;"/>
                </g>
            </g>
            <g transform="matrix(1,0,0,1,15,-3)">
                <g transform="matrix(1.13384,0,0,1.13384,-35.4305,-12.2411)">
                    <g transform="matrix(83.4736,0,0,83.4736,228.868,111.775)">
                    </g>
                    <text x="179.265px" y="111.775px" style="font-family:'ArialRoundedMTBold', 'Arial Rounded MT Bold', sans-serif;font-size:83.474px;">4</text>
                </g>
            </g>
        </g>
    </g>
</svg>
