
<svg width="15px" height="14px" viewBox="0 0 15 14" version="1.1" xmlns="http://www.w3.org/2000/svg" xmlns:xlink="http://www.w3.org/1999/xlink">
    <g id="Symbols" stroke="none" stroke-width="1" fill="none" fill-rule="evenodd">
        <g id="buendelung/compact" transform="translate(-38.000000, -11.000000)" fill="#FFFFFF">
            <g id="action-icons" transform="translate(3.000000, 8.000000)">
                <g id="Group" transform="translate(32.500000, 0.000000)">
                    <g id="Group" transform="translate(3.200000, 3.200000)">
                        <path d="M0,0 L0,8.12545331 L6.5272064,3.84328789 C6.64972652,3.76296492 6.70080657,3.70051942 6.80014,3.70051942 C6.86915473,3.69808123 6.99892686,3.79560533 6.99892686,3.79560533 L13.6,8.1256183 L13.6,0 L0,0 Z M6.80000667,4.35691929 L1.49986814,7.84560225 L1.49986814,13.6 L12.0998785,13.6 L12.0998785,7.84560225 L6.80000667,4.35691929 Z M9.33520915,7.18639753 C10.7348105,8.51864087 10.7348105,10.6807917 9.33520915,12.0130351 C7.93574111,13.3452784 5.66413889,13.3452784 4.26467085,12.0130351 C2.86506948,10.6807917 2.86506948,8.51864087 4.26467085,7.18639753 C5.66413889,5.8542811 7.93574111,5.8542811 9.33520915,7.18639753 Z M0.900000882,8.24061741 L0.0499067156,8.80016723 L0.900000882,9.35957744 L0.900000882,8.24061741 Z M12.6998791,8.24061741 L12.6998791,9.35957744 L13.5499733,8.80016723 L12.6998791,8.24061741 Z" id="Shape" fill-rule="nonzero" transform="translate(6.800000, 6.800000) scale(-1, 1) rotate(-180.000000) translate(-6.800000, -6.800000) "></path>
                        <text id="?" font-family="Roboto-Black, Roboto" font-size="9" font-weight="800">
                            <tspan x="4.50825195" y="8.33333333">?</tspan>
                        </text>
                    </g>
                </g>
            </g>
        </g>
    </g>
</svg>
