<?xml version="1.0" encoding="UTF-8" standalone="no"?>
<!DOCTYPE svg PUBLIC "-//W3C//DTD SVG 1.1//EN" "http://www.w3.org/Graphics/SVG/1.1/DTD/svg11.dtd">
<svg width="100%" height="100%" viewBox="0 0 22 23" version="1.1" xmlns="http://www.w3.org/2000/svg" xmlns:xlink="http://www.w3.org/1999/xlink" xml:space="preserve" xmlns:serif="http://www.serif.com/" style="fill-rule:evenodd;clip-rule:evenodd;stroke-linejoin:round;stroke-miterlimit:2;">
    <g transform="matrix(1,0,0,1,-4.00931,-2.5)">
        <g id="Dispotool">
            <g id="Dispo-Tool-Inital">
                <g id="Fahrzeugmeldungsliste">
                    <g id="icon-truck">
                        <path id="Rectangle" d="M15,0C23.284,-0 30,6.716 30,15C30,23.284 23.284,30 15,30C6.716,30 0,23.284 0,15C-0,6.716 6.716,0 15,0Z" style="fill:none;fill-rule:nonzero;"/>
                        <g id="noun-delivery-truck-4582537" transform="matrix(1,0,0,1,4.86486,4.86489)">
                            <path id="Shape" d="M15.836,10.135L13.936,10.135L13.936,8.235C13.935,7.731 13.735,7.248 13.379,6.892C13.023,6.535 12.539,6.335 12.036,6.334L10.452,6.334C10.226,6.334 10.017,6.455 9.903,6.651C9.79,6.847 9.79,7.089 9.903,7.285C10.017,7.481 10.226,7.601 10.452,7.601L12.036,7.601C12.204,7.601 12.365,7.668 12.483,7.787C12.602,7.906 12.669,8.067 12.669,8.235L12.669,16.47L9.102,16.47C8.914,15.739 8.411,15.131 7.728,14.81C7.046,14.489 6.256,14.489 5.574,14.81C4.892,15.131 4.389,15.739 4.201,16.47L3.167,16.47C2.999,16.469 2.838,16.403 2.72,16.284C2.601,16.165 2.534,16.004 2.534,15.836L2.534,12.669C2.534,12.443 2.413,12.233 2.217,12.12C2.021,12.007 1.78,12.007 1.584,12.12C1.388,12.233 1.267,12.443 1.267,12.669L1.267,15.836C1.268,16.34 1.468,16.823 1.824,17.179C2.18,17.536 2.664,17.736 3.167,17.736L4.201,17.736C4.328,18.227 4.6,18.669 4.981,19.003L0.633,19.003C0.407,19.003 0.198,19.124 0.085,19.32C-0.028,19.516 -0.028,19.758 0.085,19.954C0.198,20.149 0.407,20.27 0.633,20.27L19.637,20.27C19.863,20.27 20.072,20.149 20.185,19.954C20.299,19.758 20.299,19.516 20.185,19.32C20.072,19.124 19.863,19.003 19.637,19.003L16.873,19.003C17.254,18.669 17.526,18.227 17.653,17.736L18.37,17.736C18.874,17.736 19.357,17.536 19.713,17.179C20.069,16.823 20.27,16.34 20.27,15.836L20.27,14.569C20.269,13.394 19.801,12.267 18.97,11.435C18.139,10.604 17.012,10.136 15.836,10.135L15.836,10.135ZM6.651,15.836C6.987,15.836 7.31,15.97 7.547,16.207C7.785,16.445 7.918,16.767 7.918,17.103C7.918,17.439 7.785,17.761 7.547,17.999C7.31,18.236 6.987,18.37 6.651,18.37C6.315,18.37 5.993,18.236 5.756,17.999C5.518,17.761 5.384,17.439 5.384,17.103C5.385,16.767 5.518,16.445 5.756,16.208C5.994,15.97 6.315,15.836 6.651,15.836ZM8.322,19.003C8.703,18.669 8.974,18.227 9.102,17.736L12.753,17.736C12.88,18.227 13.152,18.669 13.533,19.003L8.322,19.003ZM13.936,17.103C13.936,16.767 14.07,16.445 14.307,16.207C14.545,15.97 14.867,15.836 15.203,15.836C15.539,15.836 15.861,15.97 16.099,16.207C16.337,16.445 16.47,16.767 16.47,17.103C16.47,17.439 16.337,17.761 16.099,17.999C15.861,18.236 15.539,18.37 15.203,18.37C14.867,18.37 14.545,18.236 14.308,17.998C14.07,17.761 13.936,17.439 13.936,17.103Z" style="fill:white;fill-rule:nonzero;"/>
                            <path id="Shape1" serif:id="Shape" d="M4.054,11.909C4.164,11.991 4.297,12.036 4.434,12.036C4.571,12.036 4.705,11.991 4.814,11.909C4.98,11.785 8.868,8.818 8.868,4.434C8.868,2.85 8.023,1.386 6.651,0.594C5.279,-0.198 3.589,-0.198 2.217,0.594C0.845,1.386 0,2.85 0,4.434C0,8.818 3.889,11.785 4.054,11.909ZM4.434,5.701C4.098,5.701 3.776,5.568 3.538,5.33C3.301,5.092 3.167,4.77 3.167,4.434C3.167,4.098 3.301,3.776 3.538,3.538C3.776,3.301 4.098,3.167 4.434,3.167C4.77,3.167 5.093,3.301 5.33,3.538C5.568,3.776 5.701,4.098 5.701,4.434C5.701,4.77 5.568,5.092 5.33,5.33C5.093,5.568 4.77,5.701 4.434,5.701Z" style="fill:white;fill-rule:nonzero;"/>
                        </g>
                    </g>
                </g>
            </g>
        </g>
    </g>
</svg>
