<?xml version="1.0" encoding="UTF-8" standalone="no"?>
<!DOCTYPE svg PUBLIC "-//W3C//DTD SVG 1.1//EN" "http://www.w3.org/Graphics/SVG/1.1/DTD/svg11.dtd">
<svg width="100%" height="100%" viewBox="0 0 256 256" version="1.1" xmlns="http://www.w3.org/2000/svg" xmlns:xlink="http://www.w3.org/1999/xlink" xml:space="preserve" xmlns:serif="http://www.serif.com/" style="fill-rule:evenodd;clip-rule:evenodd;stroke-linecap:round;stroke-linejoin:round;stroke-miterlimit:1.5;">
    <g transform="matrix(1,0,0,1,7.18515,0)">
        <g id="Layer1">
            <g transform="matrix(1,0,0,1,1,0)">
                <g transform="matrix(1,0,0,1,2.60084,-8.02642)">
                    <rect x="5.156" y="0" width="56.029" height="224.28" style="fill:none;stroke:black;stroke-width:18px;"/>
                </g>
                <path d="M7.756,178.641L63.786,178.87" style="fill:none;stroke:black;stroke-width:18px;"/>
            </g>
            <g transform="matrix(1,0,0,1,57.0293,-55.9491)">
                <g transform="matrix(1,0,0,1,2.60084,-8.02642)">
                    <rect x="5.156" y="0" width="56.029" height="224.28" style="fill:none;stroke:black;stroke-width:18px;"/>
                </g>
                <path d="M7.756,178.641L63.786,178.87" style="fill:none;stroke:black;stroke-width:18px;"/>
            </g>
            <g transform="matrix(1,0,0,1,169.088,-55.9491)">
                <g transform="matrix(1,0,0,1,2.60084,-8.02642)">
                    <rect x="5.156" y="0" width="56.029" height="224.28" style="fill:none;stroke:black;stroke-width:18px;"/>
                </g>
                <path d="M7.756,178.641L63.786,178.87" style="fill:none;stroke:black;stroke-width:18px;"/>
            </g>
            <g transform="matrix(1,0,0,1,113.059,0)">
                <g transform="matrix(1,0,0,1,2.60084,-8.02642)">
                    <rect x="5.156" y="0" width="56.029" height="224.28" style="fill:none;stroke:black;stroke-width:18px;"/>
                </g>
                <path d="M7.756,178.641L63.786,178.87" style="fill:none;stroke:black;stroke-width:18px;"/>
            </g>
        </g>
    </g>
</svg>
