<?xml version="1.0" encoding="UTF-8" standalone="no"?>
<!DOCTYPE svg PUBLIC "-//W3C//DTD SVG 1.1//EN" "http://www.w3.org/Graphics/SVG/1.1/DTD/svg11.dtd">
<svg width="100%" height="100%" viewBox="0 0 256 256" version="1.1" xmlns="http://www.w3.org/2000/svg" xmlns:xlink="http://www.w3.org/1999/xlink" xml:space="preserve" xmlns:serif="http://www.serif.com/" style="fill-rule:evenodd;clip-rule:evenodd;stroke-linecap:round;stroke-linejoin:round;stroke-miterlimit:1.5;">
    <g transform="matrix(1.08956,0,0,1.08956,-89.0632,-111.65)">
        <path d="M199.221,102.473C238.529,102.473 270.442,134.386 270.442,173.694C270.442,213.002 238.529,244.915 199.221,244.915C159.913,244.915 128,213.002 128,173.694C128,134.386 159.913,102.473 199.221,102.473ZM199.221,120.473C169.848,120.473 146,144.321 146,173.694C146,203.068 169.848,226.915 199.221,226.915C228.595,226.915 252.442,203.068 252.442,173.694C252.442,144.321 228.595,120.473 199.221,120.473Z"/>
    </g>
    <g>
        <g transform="matrix(1,0,0,0.607461,25,105.809)">
            <path d="M34.647,83.883C34.647,83.883 57.906,171.433 57.906,208.954C57.906,230.087 47.484,247.243 34.647,247.243C21.81,247.243 11.388,230.087 11.388,208.954C11.388,171.433 34.647,83.883 34.647,83.883ZM34.647,166.465C31.616,182.531 29.388,198.052 29.388,208.954C29.388,213.733 31.744,217.612 34.647,217.612C37.549,217.612 39.906,213.733 39.906,208.954C39.906,198.052 37.677,182.531 34.647,166.465Z"/>
        </g>
        <path d="M59.647,73.68L59.647,188.096" style="fill:none;stroke:black;stroke-width:18px;"/>
    </g>
    <g transform="matrix(1,0,0,1,136.729,-22.8518)">
        <g transform="matrix(1,0,0,0.607461,25,105.809)">
            <path d="M34.647,83.883C34.647,83.883 57.906,171.433 57.906,208.954C57.906,230.087 47.484,247.243 34.647,247.243C21.81,247.243 11.388,230.087 11.388,208.954C11.388,171.433 34.647,83.883 34.647,83.883ZM34.647,166.465C31.616,182.531 29.388,198.052 29.388,208.954C29.388,213.733 31.744,217.612 34.647,217.612C37.549,217.612 39.906,213.733 39.906,208.954C39.906,198.052 37.677,182.531 34.647,166.465Z"/>
        </g>
        <g transform="matrix(1,0,0,0.766016,0,44.0114)">
            <path d="M59.647,73.68L59.647,188.096" style="fill:none;stroke:black;stroke-width:20.21px;"/>
        </g>
    </g>
</svg>
