
<svg width="80px" height="75px" viewBox="0 0 80 75" version="1.1" xmlns="http://www.w3.org/2000/svg" xmlns:xlink="http://www.w3.org/1999/xlink">
    <g id="Page-1" stroke="none" stroke-width="1" fill="none" fill-rule="evenodd">
        <g id="Group-6" fill="#000000">
            <path d="M77.9941456,44.482 C77.9941456,45.034 77.5441456,45.482 76.9901456,45.482 L22.1191456,45.482 C19.6791456,42.304 17.8061456,39.181 16.7641456,37.313 C16.5251456,36.885 16.6351456,36.355 17.0231456,36.049 L22.1651456,32.017 C23.4091456,31.041 23.6811456,29.259 22.7831456,27.961 L19.3731456,23.024 L19.3731456,2.998 C19.3731456,2.446 19.8221456,1.999 20.3761456,1.999 L76.9901456,1.999 C77.5441456,1.999 77.9941456,2.446 77.9941456,2.998 L77.9941456,44.482 Z M37.1131456,60.791 C38.3871456,61.48 39.9701456,61.158 40.8811456,60.032 L45.3061456,54.561 C45.6291456,54.164 46.1961456,54.07 46.6171456,54.337 L60.1581456,63.294 C60.5911456,63.572 60.7451456,64.122 60.5151456,64.577 C59.4531456,66.684 56.8151456,70.361 53.9081456,71.854 C52.9481456,72.347 44.0921456,76.37 29.4751456,65.978 C21.0731456,60.005 15.8921456,54.76 8.94314558,45.197 C1.94014558,35.56 1.27814558,26.732 2.54114558,23.149 C4.04914558,18.873 7.63614558,16.711 10.5931456,15.303 C10.7281456,15.239 10.8741456,15.208 11.0161456,15.208 C11.3361456,15.208 11.6461456,15.363 11.8411456,15.644 L21.1301456,29.095 C21.4291456,29.527 21.3391456,30.121 20.9251456,30.446 L15.7831456,34.478 C14.6161456,35.394 14.2911456,36.995 15.0101456,38.284 C16.4871456,40.93 19.5671456,46.019 23.6081456,50.366 C27.8861456,54.967 34.1631456,59.204 37.1131456,60.791 L37.1131456,60.791 Z M76.9901456,0 L20.3761456,0 C18.7171456,0 17.3661456,1.344 17.3661456,2.998 L17.3661456,20.119 L13.4941456,14.511 L13.4931456,14.51 C12.6491456,13.291 11.0641456,12.864 9.72814558,13.5 C7.78614558,14.423 2.62614558,16.879 0.648145581,22.487 C-1.03185442,27.255 0.338145581,36.761 7.31714558,46.368 C14.4111456,56.131 19.7081456,61.49 28.3091456,67.606 C36.6441456,73.531 43.3391456,75 47.9311456,75 C51.9271456,75 54.3271456,73.887 54.8271456,73.63 C57.9481456,72.028 60.8921456,68.279 62.3081456,65.474 C63.0011456,64.103 62.5411456,62.442 61.2531456,61.621 L47.7131456,52.664 C46.4171456,51.835 44.7131456,52.112 43.7461456,53.306 L39.3191456,58.778 C39.0151456,59.154 38.4881456,59.259 38.0681456,59.034 C35.0191456,57.393 28.9731456,53.198 25.0801456,49.007 C24.6151456,48.507 24.1651456,47.997 23.7271456,47.48 L76.9901456,47.48 C78.6501456,47.48 80.0001456,46.135 80.0001456,44.482 L80.0001456,2.998 C80.0001456,1.344 78.6501456,0 76.9901456,0 L76.9901456,0 Z" id="Fill-1"></path>
            <path d="M72.3682456,6.3287 L51.1552456,21.8207 C49.7452456,22.8507 47.8472456,22.8567 46.4302456,21.8347 L24.9332456,6.3257 C24.4822456,5.9997 23.8562456,6.1017 23.5322456,6.5487 C23.2072456,6.9947 23.3062456,7.6207 23.7562456,7.9437 L45.2522456,23.4527 C46.3092456,24.2167 47.5472456,24.5987 48.7832456,24.5987 C50.0312456,24.5987 51.2782456,24.2097 52.3412456,23.4327 L73.5532456,7.9407 C74.0012456,7.6137 74.0972456,6.9887 73.7692456,6.5447 C73.4402456,6.0977 72.8122456,6.0007 72.3682456,6.3287" id="Fill-3"></path>
            <path d="M37.2041456,25.1519 L23.6031456,39.9959 C23.2291456,40.4029 23.2591456,41.0359 23.6691456,41.4069 C23.8601456,41.5829 24.1021456,41.6689 24.3451456,41.6689 C24.6161456,41.6689 24.8871456,41.5589 25.0851456,41.3419 L38.6841456,26.4989 C39.0591456,26.0919 39.0291456,25.4599 38.6201456,25.0879 C38.2131456,24.7149 37.5791456,24.7429 37.2041456,25.1519" id="Fill-4"></path>
            <path d="M59.9473456,25.1519 C59.5733456,24.7439 58.9393456,24.7149 58.5313456,25.0879 C58.1213456,25.4599 58.0923456,26.0919 58.4663456,26.4989 L72.0663456,41.3419 C72.2633456,41.5589 72.5343456,41.6689 72.8063456,41.6689 C73.0493456,41.6689 73.2913456,41.5829 73.4823456,41.4069 C73.8923456,41.0359 73.9223456,40.4029 73.5473456,39.9959 L59.9473456,25.1519 Z" id="Fill-5"></path>
        </g>
    </g>
</svg>