<?xml version="1.0" encoding="UTF-8"?>
<svg width="700pt" height="700pt" version="1.1" viewBox="0 0 700 700" xmlns="http://www.w3.org/2000/svg" xmlns:xlink="http://www.w3.org/1999/xlink">
 <defs>
  <symbol id="t" overflow="visible">
   <path d="m6.7031-0.40625c-0.34375 0.1875-0.70312 0.32422-1.0781 0.40625-0.375 0.09375-0.76562 0.14062-1.1719 0.14062-1.2188 0-2.1836-0.33594-2.8906-1.0156-0.71094-0.67578-1.0625-1.5977-1.0625-2.7656 0-1.1641 0.35156-2.0859 1.0625-2.7656 0.70703-0.67578 1.6719-1.0156 2.8906-1.0156 0.40625 0 0.79688 0.046875 1.1719 0.14062 0.375 0.085938 0.73438 0.21875 1.0781 0.40625v1.5c-0.35547-0.23828-0.70312-0.41016-1.0469-0.51562-0.33594-0.11328-0.6875-0.17188-1.0625-0.17188-0.66797 0-1.1953 0.21875-1.5781 0.65625-0.38672 0.42969-0.57812 1.0156-0.57812 1.7656s0.19141 1.3438 0.57812 1.7812c0.38281 0.42969 0.91016 0.64062 1.5781 0.64062 0.375 0 0.72656-0.050781 1.0625-0.15625 0.34375-0.11328 0.69141-0.28906 1.0469-0.53125z"/>
  </symbol>
  <symbol id="a" overflow="visible">
   <path d="m4.9062-3.9844c-0.15625-0.070313-0.3125-0.125-0.46875-0.15625-0.14844-0.03125-0.29688-0.046875-0.45312-0.046875-0.44922 0-0.79297 0.14844-1.0312 0.4375-0.24219 0.28125-0.35938 0.69531-0.35938 1.2344v2.5156h-1.75v-5.4688h1.75v0.89062c0.21875-0.35156 0.47266-0.60938 0.76562-0.76562 0.28906-0.16406 0.64062-0.25 1.0469-0.25h0.1875c0.070312 0 0.17188 0.011719 0.29688 0.03125z"/>
  </symbol>
  <symbol id="d" overflow="visible">
   <path d="m6.2969-2.75v0.5h-4.0781c0.039062 0.40625 0.1875 0.71484 0.4375 0.92188 0.25 0.21094 0.60156 0.3125 1.0625 0.3125 0.36328 0 0.73828-0.050781 1.125-0.15625 0.39453-0.11328 0.79688-0.28516 1.2031-0.51562v1.3594c-0.41797 0.15625-0.83594 0.27344-1.25 0.34375-0.40625 0.082031-0.82031 0.125-1.2344 0.125-0.99219 0-1.7617-0.25-2.3125-0.75-0.54297-0.50781-0.8125-1.2188-0.8125-2.125 0-0.88281 0.26562-1.582 0.79688-2.0938 0.53906-0.50781 1.2852-0.76562 2.2344-0.76562 0.85156 0 1.5352 0.26172 2.0469 0.78125 0.51953 0.51172 0.78125 1.1992 0.78125 2.0625zm-1.7969-0.57812c0-0.33203-0.10156-0.59766-0.29688-0.79688-0.1875-0.20703-0.4375-0.3125-0.75-0.3125-0.34375 0-0.62109 0.09375-0.82812 0.28125-0.21094 0.1875-0.33984 0.46484-0.39062 0.82812z"/>
  </symbol>
  <symbol id="f" overflow="visible">
   <path d="m3.2969-2.4688c-0.36719 0-0.64062 0.0625-0.82812 0.1875s-0.28125 0.30859-0.28125 0.54688c0 0.23047 0.070312 0.40625 0.21875 0.53125 0.15625 0.125 0.36328 0.1875 0.625 0.1875 0.33203 0 0.60938-0.11719 0.82812-0.35938 0.22656-0.23828 0.34375-0.53516 0.34375-0.89062v-0.20312zm2.6719-0.65625v3.125h-1.7656v-0.8125c-0.24219 0.33594-0.50781 0.57812-0.79688 0.73438-0.29297 0.14453-0.64844 0.21875-1.0625 0.21875-0.57422 0-1.0391-0.16016-1.3906-0.48438-0.34375-0.33203-0.51562-0.76562-0.51562-1.2969 0-0.64453 0.21875-1.1133 0.65625-1.4062 0.4375-0.30078 1.1289-0.45312 2.0781-0.45312h1.0312v-0.14062c0-0.26953-0.10938-0.46875-0.32812-0.59375-0.21875-0.13281-0.55859-0.20312-1.0156-0.20312-0.375 0-0.72656 0.039062-1.0469 0.10938-0.32422 0.074219-0.625 0.1875-0.90625 0.34375v-1.3438c0.375-0.082031 0.75-0.14453 1.125-0.1875 0.38281-0.050781 0.76562-0.078125 1.1406-0.078125 0.98828 0 1.7031 0.19531 2.1406 0.57812 0.4375 0.38672 0.65625 1.0156 0.65625 1.8906z"/>
  </symbol>
  <symbol id="c" overflow="visible">
   <path d="m2.75-7.0156v1.5469h1.7969v1.25h-1.7969v2.3125c0 0.26172 0.046875 0.4375 0.14062 0.53125 0.10156 0.085938 0.30469 0.125 0.60938 0.125h0.90625v1.25h-1.5c-0.69922 0-1.1953-0.14062-1.4844-0.42188-0.28125-0.28906-0.42188-0.78516-0.42188-1.4844v-2.3125h-0.875v-1.25h0.875v-1.5469z"/>
  </symbol>
  <symbol id="k" overflow="visible">
   <path d="m4.5625-4.6719v-2.9219h1.75v7.5938h-1.75v-0.79688c-0.24219 0.32422-0.50781 0.5625-0.79688 0.71875-0.29297 0.14453-0.625 0.21875-1 0.21875-0.67969 0-1.2344-0.26562-1.6719-0.79688-0.42969-0.53906-0.64062-1.2344-0.64062-2.0781s0.21094-1.5312 0.64062-2.0625c0.4375-0.53125 0.99219-0.79688 1.6719-0.79688 0.375 0 0.70703 0.078125 1 0.23438 0.28906 0.14844 0.55469 0.375 0.79688 0.6875zm-1.1562 3.5469c0.375 0 0.66016-0.13281 0.85938-0.40625 0.19531-0.28125 0.29688-0.67969 0.29688-1.2031 0-0.51953-0.10156-0.91406-0.29688-1.1875-0.19922-0.26953-0.48438-0.40625-0.85938-0.40625-0.36719 0-0.64844 0.13672-0.84375 0.40625-0.19922 0.27344-0.29688 0.66797-0.29688 1.1875 0 0.52344 0.097656 0.92188 0.29688 1.2031 0.19531 0.27344 0.47656 0.40625 0.84375 0.40625z"/>
  </symbol>
  <symbol id="j" overflow="visible">
   <path d="m3.75-1.125c0.375 0 0.66016-0.13281 0.85938-0.40625 0.19531-0.28125 0.29688-0.67969 0.29688-1.2031 0-0.51953-0.10156-0.91406-0.29688-1.1875-0.19922-0.26953-0.48438-0.40625-0.85938-0.40625s-0.66406 0.14062-0.85938 0.42188c-0.19922 0.27344-0.29688 0.66406-0.29688 1.1719 0 0.52344 0.097656 0.92188 0.29688 1.2031 0.19531 0.27344 0.48438 0.40625 0.85938 0.40625zm-1.1562-3.5469c0.23828-0.3125 0.50391-0.53906 0.79688-0.6875 0.28906-0.15625 0.62891-0.23438 1.0156-0.23438 0.66406 0 1.2109 0.26562 1.6406 0.79688 0.4375 0.53125 0.65625 1.2188 0.65625 2.0625s-0.21875 1.5391-0.65625 2.0781c-0.42969 0.53125-0.97656 0.79688-1.6406 0.79688-0.38672 0-0.72656-0.074219-1.0156-0.21875-0.29297-0.15625-0.55859-0.39453-0.79688-0.71875v0.79688h-1.75v-7.5938h1.75z"/>
  </symbol>
  <symbol id="i" overflow="visible">
   <path d="m0.125-5.4688h1.75l1.4688 3.7031 1.25-3.7031h1.75l-2.3125 5.9844c-0.23047 0.61328-0.5 1.0391-0.8125 1.2812-0.30469 0.23828-0.70312 0.35938-1.2031 0.35938h-1.0156v-1.1406h0.54688c0.30078 0 0.51562-0.046875 0.64062-0.14062 0.13281-0.09375 0.24219-0.26562 0.32812-0.51562l0.046875-0.15625z"/>
  </symbol>
  <symbol id="e" overflow="visible">
   <path d="m2.5938-0.79688v2.875h-1.75v-7.5469h1.75v0.79688c0.23828-0.3125 0.50391-0.53906 0.79688-0.6875 0.28906-0.15625 0.62891-0.23438 1.0156-0.23438 0.66406 0 1.2109 0.26562 1.6406 0.79688 0.4375 0.53125 0.65625 1.2188 0.65625 2.0625s-0.21875 1.5391-0.65625 2.0781c-0.42969 0.53125-0.97656 0.79688-1.6406 0.79688-0.38672 0-0.72656-0.074219-1.0156-0.21875-0.29297-0.15625-0.55859-0.39453-0.79688-0.71875zm1.1562-3.5312c-0.375 0-0.66406 0.14062-0.85938 0.42188-0.19922 0.27344-0.29688 0.66406-0.29688 1.1719 0 0.52344 0.097656 0.92188 0.29688 1.2031 0.19531 0.27344 0.48438 0.40625 0.85938 0.40625s0.66016-0.13281 0.85938-0.40625c0.19531-0.28125 0.29688-0.67969 0.29688-1.2031 0-0.51953-0.10156-0.91406-0.29688-1.1875-0.19922-0.26953-0.48438-0.40625-0.85938-0.40625z"/>
  </symbol>
  <symbol id="b" overflow="visible">
   <path d="m3.4375-4.3438c-0.38672 0-0.68359 0.14062-0.89062 0.42188-0.19922 0.27344-0.29688 0.66797-0.29688 1.1875 0 0.53125 0.097656 0.9375 0.29688 1.2188 0.20703 0.27344 0.50391 0.40625 0.89062 0.40625 0.38281 0 0.67578-0.13281 0.875-0.40625 0.20703-0.28125 0.3125-0.6875 0.3125-1.2188 0-0.51953-0.10547-0.91406-0.3125-1.1875-0.19922-0.28125-0.49219-0.42188-0.875-0.42188zm0-1.25c0.94531 0 1.6797 0.25781 2.2031 0.76562 0.53125 0.5 0.79688 1.1992 0.79688 2.0938 0 0.90625-0.26562 1.6172-0.79688 2.125-0.52344 0.5-1.2578 0.75-2.2031 0.75-0.9375 0-1.6719-0.25-2.2031-0.75-0.53125-0.50781-0.79688-1.2188-0.79688-2.125 0-0.89453 0.26562-1.5938 0.79688-2.0938 0.53125-0.50781 1.2656-0.76562 2.2031-0.76562z"/>
  </symbol>
  <symbol id="h" overflow="visible">
   <path d="m5.2656-5.2969v1.4219c-0.24219-0.15625-0.48047-0.26953-0.71875-0.34375-0.24219-0.082031-0.49219-0.125-0.75-0.125-0.49219 0-0.87109 0.14062-1.1406 0.42188-0.27344 0.28125-0.40625 0.67969-0.40625 1.1875 0 0.51172 0.13281 0.91406 0.40625 1.2031 0.26953 0.28125 0.64844 0.42188 1.1406 0.42188 0.26953 0 0.53125-0.039063 0.78125-0.125 0.25-0.082031 0.47656-0.20312 0.6875-0.35938v1.4375c-0.28125 0.09375-0.5625 0.16406-0.84375 0.21875-0.28125 0.050781-0.5625 0.078125-0.84375 0.078125-0.99219 0-1.7617-0.25-2.3125-0.75-0.55469-0.50781-0.82812-1.2188-0.82812-2.125 0-0.89453 0.27344-1.5938 0.82812-2.0938 0.55078-0.50781 1.3203-0.76562 2.3125-0.76562 0.28906 0 0.57031 0.027344 0.84375 0.078125 0.28125 0.042969 0.5625 0.11719 0.84375 0.21875z"/>
  </symbol>
  <symbol id="g" overflow="visible">
   <path d="m6.3438-3.3281v3.3281h-1.7656v-2.5469c0-0.46875-0.011719-0.78906-0.03125-0.96875-0.023437-0.1875-0.058594-0.32031-0.10938-0.40625-0.0625-0.11328-0.15625-0.20312-0.28125-0.26562-0.11719-0.0625-0.24609-0.09375-0.39062-0.09375-0.36719 0-0.65234 0.14062-0.85938 0.42188-0.21094 0.28125-0.3125 0.67188-0.3125 1.1719v2.6875h-1.75v-5.4688h1.75v0.79688c0.25781-0.3125 0.53516-0.53906 0.82812-0.6875 0.30078-0.15625 0.62891-0.23438 0.98438-0.23438 0.63281 0 1.1133 0.19531 1.4375 0.57812 0.33203 0.38672 0.5 0.94922 0.5 1.6875z"/>
  </symbol>
  <symbol id="s" overflow="visible">
   <path d="m5.1094-5.2969v1.3281c-0.375-0.15625-0.74219-0.26953-1.0938-0.34375-0.34375-0.082031-0.66797-0.125-0.96875-0.125-0.33594 0-0.58594 0.042969-0.75 0.125-0.15625 0.085938-0.23438 0.21094-0.23438 0.375 0 0.14844 0.054688 0.25781 0.17188 0.32812 0.125 0.074219 0.34766 0.13281 0.67188 0.17188l0.29688 0.03125c0.89453 0.11719 1.5 0.30469 1.8125 0.5625 0.3125 0.26172 0.46875 0.67188 0.46875 1.2344 0 0.58594-0.21875 1.0234-0.65625 1.3125-0.42969 0.29297-1.0703 0.4375-1.9219 0.4375-0.35547 0-0.72656-0.03125-1.1094-0.09375-0.38672-0.050781-0.78906-0.13281-1.2031-0.25v-1.3281c0.35156 0.16797 0.71094 0.29688 1.0781 0.39062 0.36328 0.085937 0.73438 0.125 1.1094 0.125 0.34375 0 0.59766-0.046875 0.76562-0.14062 0.17578-0.09375 0.26562-0.23438 0.26562-0.42188 0-0.15625-0.058594-0.26953-0.17188-0.34375-0.11719-0.082031-0.35156-0.14453-0.70312-0.1875l-0.3125-0.046875c-0.78125-0.09375-1.3281-0.26953-1.6406-0.53125-0.3125-0.26953-0.46875-0.67188-0.46875-1.2031 0-0.58203 0.19531-1.0078 0.59375-1.2812 0.39453-0.28125 1.0039-0.42188 1.8281-0.42188 0.32031 0 0.66016 0.027344 1.0156 0.078125 0.35156 0.042969 0.73828 0.11719 1.1562 0.21875z"/>
  </symbol>
  <symbol id="r" overflow="visible">
   <path d="m4.4375-7.5938v1.1406h-0.96875c-0.25 0-0.42188 0.046875-0.51562 0.14062-0.09375 0.085938-0.14062 0.24219-0.14062 0.46875v0.375h1.4844v1.25h-1.4844v4.2188h-1.75v-4.2188h-0.875v-1.25h0.875v-0.375c0-0.60156 0.16406-1.0469 0.5-1.3281 0.33203-0.28125 0.84375-0.42188 1.5312-0.42188z"/>
  </symbol>
  <symbol id="q" overflow="visible">
   <path d="m5.9062-4.5625c0.21875-0.33203 0.47656-0.58594 0.78125-0.76562 0.3125-0.17578 0.64844-0.26562 1.0156-0.26562 0.625 0 1.0977 0.19531 1.4219 0.57812 0.33203 0.38672 0.5 0.94922 0.5 1.6875v3.3281h-1.75v-2.8594-0.125-0.1875c0-0.39453-0.058594-0.67578-0.17188-0.84375-0.10547-0.17578-0.28906-0.26562-0.54688-0.26562-0.33594 0-0.58984 0.13672-0.76562 0.40625-0.17969 0.27344-0.27344 0.66797-0.28125 1.1875v2.6875h-1.7656v-2.8594c0-0.60156-0.054688-0.98828-0.15625-1.1562-0.10547-0.17578-0.28906-0.26562-0.54688-0.26562-0.33594 0-0.59375 0.14062-0.78125 0.42188-0.17969 0.27344-0.26562 0.66406-0.26562 1.1719v2.6875h-1.7656v-5.4688h1.7656v0.79688c0.20703-0.30078 0.45312-0.53125 0.73438-0.6875s0.58594-0.23438 0.92188-0.23438c0.375 0 0.70703 0.09375 1 0.28125 0.28906 0.17969 0.50781 0.42969 0.65625 0.75z"/>
  </symbol>
  <symbol id="p" overflow="visible">
   <path d="m6.3438-3.3281v3.3281h-1.7656v-2.5469c0-0.46875-0.011719-0.78906-0.03125-0.96875-0.023437-0.1875-0.058594-0.32031-0.10938-0.40625-0.0625-0.11328-0.15625-0.20312-0.28125-0.26562-0.11719-0.0625-0.24609-0.09375-0.39062-0.09375-0.36719 0-0.65234 0.14062-0.85938 0.42188-0.21094 0.28125-0.3125 0.67188-0.3125 1.1719v2.6875h-1.75v-7.5938h1.75v2.9219c0.25781-0.3125 0.53516-0.53906 0.82812-0.6875 0.30078-0.15625 0.62891-0.23438 0.98438-0.23438 0.63281 0 1.1133 0.19531 1.4375 0.57812 0.33203 0.38672 0.5 0.94922 0.5 1.6875z"/>
  </symbol>
  <symbol id="o" overflow="visible">
   <path d="m0.92188-7.2969h2.0938l2.6562 5v-5h1.7812v7.2969h-2.0938l-2.6562-5v5h-1.7812z"/>
  </symbol>
  <symbol id="n" overflow="visible">
   <path d="m0.78125-2.125v-3.3438h1.7656v0.54688c0 0.29297-0.007813 0.66406-0.015625 1.1094v0.90625c0 0.4375 0.007812 0.75781 0.03125 0.95312 0.019531 0.1875 0.0625 0.32812 0.125 0.42188 0.0625 0.10547 0.14844 0.1875 0.26562 0.25 0.125 0.0625 0.25781 0.09375 0.40625 0.09375 0.36328 0 0.64844-0.13281 0.85938-0.40625 0.20703-0.28125 0.3125-0.67188 0.3125-1.1719v-2.7031h1.75v5.4688h-1.75v-0.79688c-0.26172 0.32422-0.54297 0.5625-0.84375 0.71875-0.29297 0.14453-0.61719 0.21875-0.96875 0.21875-0.63672 0-1.1211-0.19141-1.4531-0.57812-0.32422-0.38281-0.48438-0.94531-0.48438-1.6875z"/>
  </symbol>
  <symbol id="m" overflow="visible">
   <path d="m0.92188-7.2969h3.1094c0.9375 0 1.6484 0.21094 2.1406 0.625 0.5 0.40625 0.75 0.99609 0.75 1.7656 0 0.76172-0.25 1.3516-0.75 1.7656-0.49219 0.40625-1.2031 0.60938-2.1406 0.60938h-1.2344v2.5312h-1.875zm1.875 1.375v2.0312h1.0469c0.36328 0 0.64453-0.085937 0.84375-0.26562 0.19531-0.17578 0.29688-0.42578 0.29688-0.75 0-0.33203-0.10156-0.58203-0.29688-0.75-0.19922-0.17578-0.48047-0.26562-0.84375-0.26562z"/>
  </symbol>
  <symbol id="l" overflow="visible">
   <path d="m0.84375-5.4688h1.75v5.375c0 0.72656-0.17969 1.2852-0.53125 1.6719-0.35547 0.38281-0.86719 0.57812-1.5312 0.57812h-0.85938v-1.1406h0.29688c0.33203 0 0.5625-0.078125 0.6875-0.23438 0.125-0.14844 0.1875-0.4375 0.1875-0.875zm0-2.125h1.75v1.4219h-1.75z"/>
  </symbol>
 </defs>
 <g>
  <path d="m115.32 126.65 0.046875-0.046875c9.7812-9.8242 30.25-14.867 45.77-15.621 4.7539-0.23047 9.0938-0.082031 12.574 0.4375 4.3711 0.65234 7.875 2.0117 9.9648 4.0859 1.2383 1.2266 2.0469 2.6523 2.3711 4.2852l41.051 103.4c0.26172 0.66016 0.39844 1.3438 0.42188 2.0156l-0.003906 0.40625c-0.36328 10.914-27.934 38.637-36.309 47.059l-0.085937 0.085938c-2.3242 2.3594 10.723 19.434 28.781 40.148 8.3281 9.5547 17.84 19.66 27.652 29.445 9.8008 9.7695 19.871 19.176 29.34 27.352 19.711 17.023 35.645 29.121 37.797 27.016 3.9727-4.0352 12.777-12.848 21.699-20.719 9.7227-8.5859 19.859-16.004 25.641-15.785 0.79688 0.027344 1.5547 0.21094 2.2383 0.51953l103.04 40.949c1.6055 0.32422 3.0195 1.1211 4.2383 2.3398l0.011719-0.011719c2.0781 2.0742 3.4414 5.6094 4.0977 10.043 0.52344 3.5195 0.66797 7.9102 0.42969 12.715-0.77344 15.562-5.8008 36.031-15.629 45.859-0.12109 0.12109-0.25 0.23828-0.37891 0.34766-45.523 45.48-118.28 30.391-187.55-13.66-27.086-17.223-53.695-38.914-77.895-63.109-24.199-24.191-45.988-50.879-63.441-78.098-45.445-70.883-61.676-145.75-15.883-191.46zm147.58-67.227h343.1c3.3125 0 6 2.6875 6 6v238.36c0 3.3125-2.6875 6-6 6h-343.1c-3.3125 0-5.9961-2.6875-5.9961-6v-238.36c0-3.3125 2.6875-6 5.9961-6zm327.95 12h-312.68l123.01 114.18 0.16406 0.15234 33.922 31.484 37.77-35.395c0.19141-0.20703 0.39453-0.39844 0.61719-0.57812l117.21-109.85zm-321.95 7.7383v211.69l119.26-100.99-119.26-110.7zm10.352 218.62h311.36l-113.14-103.7-38.016 35.629c-2.2734 2.2227-5.9141 2.2891-8.2656 0.10156l-34.199-31.742zm320.75-7.6016v-210.93l-113.79 106.64 113.79 104.29zm-438.3-167.24c-13.266 0.64453-30.406 4.5898-37.895 12.148l-0.023437 0.023437c-41.008 40.91-25.031 110.19 17.5 176.53 17.004 26.523 38.23 52.52 61.797 76.078 23.566 23.555 49.484 44.684 75.883 61.469 64.746 41.18 132.02 56.02 172.76 15.234l0.26562-0.28516c7.5625-7.5625 11.5-24.664 12.16-37.938 0.19922-3.9883 0.082031-7.5898-0.33594-10.418-0.19922-1.332-0.37891-2.3125-0.53516-2.8516l-102.31-40.656c-2.7148 0.83984-9.5156 6.3789-16.645 12.672-8.5664 7.5625-17.242 16.25-21.133 20.203l-0.046876 0.046874c-7.6797 7.6328-29.578-5.3047-54.062-26.449-9.6875-8.3672-19.969-17.969-29.945-27.914-9.9648-9.9336-19.668-20.246-28.215-30.055-21.875-25.09-35.734-47.879-28.609-56.094 0.14453-0.15625 0.27734-0.30469 0.42578-0.45312 7.3516-7.3906 31.098-31.273 32.75-37.941l-40.691-102.5c-0.53516-0.14844-1.5-0.32422-2.8047-0.51953-2.7969-0.41406-6.3477-0.53516-10.277-0.34375z"  fill="#FFFFFF" stroke="#FFFFFF" stroke-linecap="round" stroke-linejoin="round" stroke-miterlimit="10" stroke-width="1"/>
 </g>
</svg>
