<svg xmlns="http://www.w3.org/2000/svg" xmlns:xlink="http://www.w3.org/1999/xlink" width="700" height="700" version="1.1" style=""><rect id="backgroundrect" width="100%" height="100%" x="0" y="0" fill="none" stroke="none"/>
 <defs>
  <symbol id="t" overflow="visible">
   <path d="m6.7031-0.40625c-0.34375 0.1875-0.70312 0.32422-1.0781 0.40625-0.375 0.09375-0.76562 0.14062-1.1719 0.14062-1.2188 0-2.1836-0.33594-2.8906-1.0156-0.71094-0.67578-1.0625-1.5977-1.0625-2.7656 0-1.1641 0.35156-2.0859 1.0625-2.7656 0.70703-0.67578 1.6719-1.0156 2.8906-1.0156 0.40625 0 0.79688 0.046875 1.1719 0.14062 0.375 0.085938 0.73438 0.21875 1.0781 0.40625v1.5c-0.35547-0.23828-0.70312-0.41016-1.0469-0.51562-0.33594-0.11328-0.6875-0.17188-1.0625-0.17188-0.66797 0-1.1953 0.21875-1.5781 0.65625-0.38672 0.42969-0.57812 1.0156-0.57812 1.7656s0.19141 1.3438 0.57812 1.7812c0.38281 0.42969 0.91016 0.64062 1.5781 0.64062 0.375 0 0.72656-0.050781 1.0625-0.15625 0.34375-0.11328 0.69141-0.28906 1.0469-0.53125z" id="svg_1"/>
  </symbol>
  <symbol id="a" overflow="visible">
   <path d="m4.9062-3.9844c-0.15625-0.070313-0.3125-0.125-0.46875-0.15625-0.14844-0.03125-0.29688-0.046875-0.45312-0.046875-0.44922 0-0.79297 0.14844-1.0312 0.4375-0.24219 0.28125-0.35938 0.69531-0.35938 1.2344v2.5156h-1.75v-5.4688h1.75v0.89062c0.21875-0.35156 0.47266-0.60938 0.76562-0.76562 0.28906-0.16406 0.64062-0.25 1.0469-0.25h0.1875c0.070312 0 0.17188 0.011719 0.29688 0.03125z" id="svg_2"/>
  </symbol>
  <symbol id="d" overflow="visible">
   <path d="m6.2969-2.75v0.5h-4.0781c0.039062 0.40625 0.1875 0.71484 0.4375 0.92188 0.25 0.21094 0.60156 0.3125 1.0625 0.3125 0.36328 0 0.73828-0.050781 1.125-0.15625 0.39453-0.11328 0.79688-0.28516 1.2031-0.51562v1.3594c-0.41797 0.15625-0.83594 0.27344-1.25 0.34375-0.40625 0.082031-0.82031 0.125-1.2344 0.125-0.99219 0-1.7617-0.25-2.3125-0.75-0.54297-0.50781-0.8125-1.2188-0.8125-2.125 0-0.88281 0.26562-1.582 0.79688-2.0938 0.53906-0.50781 1.2852-0.76562 2.2344-0.76562 0.85156 0 1.5352 0.26172 2.0469 0.78125 0.51953 0.51172 0.78125 1.1992 0.78125 2.0625zm-1.7969-0.57812c0-0.33203-0.10156-0.59766-0.29688-0.79688-0.1875-0.20703-0.4375-0.3125-0.75-0.3125-0.34375 0-0.62109 0.09375-0.82812 0.28125-0.21094 0.1875-0.33984 0.46484-0.39062 0.82812z" id="svg_3"/>
  </symbol>
  <symbol id="f" overflow="visible">
   <path d="m3.2969-2.4688c-0.36719 0-0.64062 0.0625-0.82812 0.1875s-0.28125 0.30859-0.28125 0.54688c0 0.23047 0.070312 0.40625 0.21875 0.53125 0.15625 0.125 0.36328 0.1875 0.625 0.1875 0.33203 0 0.60938-0.11719 0.82812-0.35938 0.22656-0.23828 0.34375-0.53516 0.34375-0.89062v-0.20312zm2.6719-0.65625v3.125h-1.7656v-0.8125c-0.24219 0.33594-0.50781 0.57812-0.79688 0.73438-0.29297 0.14453-0.64844 0.21875-1.0625 0.21875-0.57422 0-1.0391-0.16016-1.3906-0.48438-0.34375-0.33203-0.51562-0.76562-0.51562-1.2969 0-0.64453 0.21875-1.1133 0.65625-1.4062 0.4375-0.30078 1.1289-0.45312 2.0781-0.45312h1.0312v-0.14062c0-0.26953-0.10938-0.46875-0.32812-0.59375-0.21875-0.13281-0.55859-0.20312-1.0156-0.20312-0.375 0-0.72656 0.039062-1.0469 0.10938-0.32422 0.074219-0.625 0.1875-0.90625 0.34375v-1.3438c0.375-0.082031 0.75-0.14453 1.125-0.1875 0.38281-0.050781 0.76562-0.078125 1.1406-0.078125 0.98828 0 1.7031 0.19531 2.1406 0.57812 0.4375 0.38672 0.65625 1.0156 0.65625 1.8906z" id="svg_4"/>
  </symbol>
  <symbol id="c" overflow="visible">
   <path d="m2.75-7.0156v1.5469h1.7969v1.25h-1.7969v2.3125c0 0.26172 0.046875 0.4375 0.14062 0.53125 0.10156 0.085938 0.30469 0.125 0.60938 0.125h0.90625v1.25h-1.5c-0.69922 0-1.1953-0.14062-1.4844-0.42188-0.28125-0.28906-0.42188-0.78516-0.42188-1.4844v-2.3125h-0.875v-1.25h0.875v-1.5469z" id="svg_5"/>
  </symbol>
  <symbol id="k" overflow="visible">
   <path d="m4.5625-4.6719v-2.9219h1.75v7.5938h-1.75v-0.79688c-0.24219 0.32422-0.50781 0.5625-0.79688 0.71875-0.29297 0.14453-0.625 0.21875-1 0.21875-0.67969 0-1.2344-0.26562-1.6719-0.79688-0.42969-0.53906-0.64062-1.2344-0.64062-2.0781s0.21094-1.5312 0.64062-2.0625c0.4375-0.53125 0.99219-0.79688 1.6719-0.79688 0.375 0 0.70703 0.078125 1 0.23438 0.28906 0.14844 0.55469 0.375 0.79688 0.6875zm-1.1562 3.5469c0.375 0 0.66016-0.13281 0.85938-0.40625 0.19531-0.28125 0.29688-0.67969 0.29688-1.2031 0-0.51953-0.10156-0.91406-0.29688-1.1875-0.19922-0.26953-0.48438-0.40625-0.85938-0.40625-0.36719 0-0.64844 0.13672-0.84375 0.40625-0.19922 0.27344-0.29688 0.66797-0.29688 1.1875 0 0.52344 0.097656 0.92188 0.29688 1.2031 0.19531 0.27344 0.47656 0.40625 0.84375 0.40625z" id="svg_6"/>
  </symbol>
  <symbol id="j" overflow="visible">
   <path d="m3.75-1.125c0.375 0 0.66016-0.13281 0.85938-0.40625 0.19531-0.28125 0.29688-0.67969 0.29688-1.2031 0-0.51953-0.10156-0.91406-0.29688-1.1875-0.19922-0.26953-0.48438-0.40625-0.85938-0.40625s-0.66406 0.14062-0.85938 0.42188c-0.19922 0.27344-0.29688 0.66406-0.29688 1.1719 0 0.52344 0.097656 0.92188 0.29688 1.2031 0.19531 0.27344 0.48438 0.40625 0.85938 0.40625zm-1.1562-3.5469c0.23828-0.3125 0.50391-0.53906 0.79688-0.6875 0.28906-0.15625 0.62891-0.23438 1.0156-0.23438 0.66406 0 1.2109 0.26562 1.6406 0.79688 0.4375 0.53125 0.65625 1.2188 0.65625 2.0625s-0.21875 1.5391-0.65625 2.0781c-0.42969 0.53125-0.97656 0.79688-1.6406 0.79688-0.38672 0-0.72656-0.074219-1.0156-0.21875-0.29297-0.15625-0.55859-0.39453-0.79688-0.71875v0.79688h-1.75v-7.5938h1.75z" id="svg_7"/>
  </symbol>
  <symbol id="i" overflow="visible">
   <path d="m0.125-5.4688h1.75l1.4688 3.7031 1.25-3.7031h1.75l-2.3125 5.9844c-0.23047 0.61328-0.5 1.0391-0.8125 1.2812-0.30469 0.23828-0.70312 0.35938-1.2031 0.35938h-1.0156v-1.1406h0.54688c0.30078 0 0.51562-0.046875 0.64062-0.14062 0.13281-0.09375 0.24219-0.26562 0.32812-0.51562l0.046875-0.15625z" id="svg_8"/>
  </symbol>
  <symbol id="e" overflow="visible">
   <path d="m2.5938-0.79688v2.875h-1.75v-7.5469h1.75v0.79688c0.23828-0.3125 0.50391-0.53906 0.79688-0.6875 0.28906-0.15625 0.62891-0.23438 1.0156-0.23438 0.66406 0 1.2109 0.26562 1.6406 0.79688 0.4375 0.53125 0.65625 1.2188 0.65625 2.0625s-0.21875 1.5391-0.65625 2.0781c-0.42969 0.53125-0.97656 0.79688-1.6406 0.79688-0.38672 0-0.72656-0.074219-1.0156-0.21875-0.29297-0.15625-0.55859-0.39453-0.79688-0.71875zm1.1562-3.5312c-0.375 0-0.66406 0.14062-0.85938 0.42188-0.19922 0.27344-0.29688 0.66406-0.29688 1.1719 0 0.52344 0.097656 0.92188 0.29688 1.2031 0.19531 0.27344 0.48438 0.40625 0.85938 0.40625s0.66016-0.13281 0.85938-0.40625c0.19531-0.28125 0.29688-0.67969 0.29688-1.2031 0-0.51953-0.10156-0.91406-0.29688-1.1875-0.19922-0.26953-0.48438-0.40625-0.85938-0.40625z" id="svg_9"/>
  </symbol>
  <symbol id="b" overflow="visible">
   <path d="m3.4375-4.3438c-0.38672 0-0.68359 0.14062-0.89062 0.42188-0.19922 0.27344-0.29688 0.66797-0.29688 1.1875 0 0.53125 0.097656 0.9375 0.29688 1.2188 0.20703 0.27344 0.50391 0.40625 0.89062 0.40625 0.38281 0 0.67578-0.13281 0.875-0.40625 0.20703-0.28125 0.3125-0.6875 0.3125-1.2188 0-0.51953-0.10547-0.91406-0.3125-1.1875-0.19922-0.28125-0.49219-0.42188-0.875-0.42188zm0-1.25c0.94531 0 1.6797 0.25781 2.2031 0.76562 0.53125 0.5 0.79688 1.1992 0.79688 2.0938 0 0.90625-0.26562 1.6172-0.79688 2.125-0.52344 0.5-1.2578 0.75-2.2031 0.75-0.9375 0-1.6719-0.25-2.2031-0.75-0.53125-0.50781-0.79688-1.2188-0.79688-2.125 0-0.89453 0.26562-1.5938 0.79688-2.0938 0.53125-0.50781 1.2656-0.76562 2.2031-0.76562z" id="svg_10"/>
  </symbol>
  <symbol id="h" overflow="visible">
   <path d="m5.2656-5.2969v1.4219c-0.24219-0.15625-0.48047-0.26953-0.71875-0.34375-0.24219-0.082031-0.49219-0.125-0.75-0.125-0.49219 0-0.87109 0.14062-1.1406 0.42188-0.27344 0.28125-0.40625 0.67969-0.40625 1.1875 0 0.51172 0.13281 0.91406 0.40625 1.2031 0.26953 0.28125 0.64844 0.42188 1.1406 0.42188 0.26953 0 0.53125-0.039063 0.78125-0.125 0.25-0.082031 0.47656-0.20312 0.6875-0.35938v1.4375c-0.28125 0.09375-0.5625 0.16406-0.84375 0.21875-0.28125 0.050781-0.5625 0.078125-0.84375 0.078125-0.99219 0-1.7617-0.25-2.3125-0.75-0.55469-0.50781-0.82812-1.2188-0.82812-2.125 0-0.89453 0.27344-1.5938 0.82812-2.0938 0.55078-0.50781 1.3203-0.76562 2.3125-0.76562 0.28906 0 0.57031 0.027344 0.84375 0.078125 0.28125 0.042969 0.5625 0.11719 0.84375 0.21875z" id="svg_11"/>
  </symbol>
  <symbol id="g" overflow="visible">
   <path d="m6.3438-3.3281v3.3281h-1.7656v-2.5469c0-0.46875-0.011719-0.78906-0.03125-0.96875-0.023437-0.1875-0.058594-0.32031-0.10938-0.40625-0.0625-0.11328-0.15625-0.20312-0.28125-0.26562-0.11719-0.0625-0.24609-0.09375-0.39062-0.09375-0.36719 0-0.65234 0.14062-0.85938 0.42188-0.21094 0.28125-0.3125 0.67188-0.3125 1.1719v2.6875h-1.75v-5.4688h1.75v0.79688c0.25781-0.3125 0.53516-0.53906 0.82812-0.6875 0.30078-0.15625 0.62891-0.23438 0.98438-0.23438 0.63281 0 1.1133 0.19531 1.4375 0.57812 0.33203 0.38672 0.5 0.94922 0.5 1.6875z" id="svg_12"/>
  </symbol>
  <symbol id="s" overflow="visible">
   <path d="m5.1094-5.2969v1.3281c-0.375-0.15625-0.74219-0.26953-1.0938-0.34375-0.34375-0.082031-0.66797-0.125-0.96875-0.125-0.33594 0-0.58594 0.042969-0.75 0.125-0.15625 0.085938-0.23438 0.21094-0.23438 0.375 0 0.14844 0.054688 0.25781 0.17188 0.32812 0.125 0.074219 0.34766 0.13281 0.67188 0.17188l0.29688 0.03125c0.89453 0.11719 1.5 0.30469 1.8125 0.5625 0.3125 0.26172 0.46875 0.67188 0.46875 1.2344 0 0.58594-0.21875 1.0234-0.65625 1.3125-0.42969 0.29297-1.0703 0.4375-1.9219 0.4375-0.35547 0-0.72656-0.03125-1.1094-0.09375-0.38672-0.050781-0.78906-0.13281-1.2031-0.25v-1.3281c0.35156 0.16797 0.71094 0.29688 1.0781 0.39062 0.36328 0.085937 0.73438 0.125 1.1094 0.125 0.34375 0 0.59766-0.046875 0.76562-0.14062 0.17578-0.09375 0.26562-0.23438 0.26562-0.42188 0-0.15625-0.058594-0.26953-0.17188-0.34375-0.11719-0.082031-0.35156-0.14453-0.70312-0.1875l-0.3125-0.046875c-0.78125-0.09375-1.3281-0.26953-1.6406-0.53125-0.3125-0.26953-0.46875-0.67188-0.46875-1.2031 0-0.58203 0.19531-1.0078 0.59375-1.2812 0.39453-0.28125 1.0039-0.42188 1.8281-0.42188 0.32031 0 0.66016 0.027344 1.0156 0.078125 0.35156 0.042969 0.73828 0.11719 1.1562 0.21875z" id="svg_13"/>
  </symbol>
  <symbol id="r" overflow="visible">
   <path d="m4.4375-7.5938v1.1406h-0.96875c-0.25 0-0.42188 0.046875-0.51562 0.14062-0.09375 0.085938-0.14062 0.24219-0.14062 0.46875v0.375h1.4844v1.25h-1.4844v4.2188h-1.75v-4.2188h-0.875v-1.25h0.875v-0.375c0-0.60156 0.16406-1.0469 0.5-1.3281 0.33203-0.28125 0.84375-0.42188 1.5312-0.42188z" id="svg_14"/>
  </symbol>
  <symbol id="q" overflow="visible">
   <path d="m5.9062-4.5625c0.21875-0.33203 0.47656-0.58594 0.78125-0.76562 0.3125-0.17578 0.64844-0.26562 1.0156-0.26562 0.625 0 1.0977 0.19531 1.4219 0.57812 0.33203 0.38672 0.5 0.94922 0.5 1.6875v3.3281h-1.75v-2.8594-0.125-0.1875c0-0.39453-0.058594-0.67578-0.17188-0.84375-0.10547-0.17578-0.28906-0.26562-0.54688-0.26562-0.33594 0-0.58984 0.13672-0.76562 0.40625-0.17969 0.27344-0.27344 0.66797-0.28125 1.1875v2.6875h-1.7656v-2.8594c0-0.60156-0.054688-0.98828-0.15625-1.1562-0.10547-0.17578-0.28906-0.26562-0.54688-0.26562-0.33594 0-0.59375 0.14062-0.78125 0.42188-0.17969 0.27344-0.26562 0.66406-0.26562 1.1719v2.6875h-1.7656v-5.4688h1.7656v0.79688c0.20703-0.30078 0.45312-0.53125 0.73438-0.6875s0.58594-0.23438 0.92188-0.23438c0.375 0 0.70703 0.09375 1 0.28125 0.28906 0.17969 0.50781 0.42969 0.65625 0.75z" id="svg_15"/>
  </symbol>
  <symbol id="p" overflow="visible">
   <path d="m6.3438-3.3281v3.3281h-1.7656v-2.5469c0-0.46875-0.011719-0.78906-0.03125-0.96875-0.023437-0.1875-0.058594-0.32031-0.10938-0.40625-0.0625-0.11328-0.15625-0.20312-0.28125-0.26562-0.11719-0.0625-0.24609-0.09375-0.39062-0.09375-0.36719 0-0.65234 0.14062-0.85938 0.42188-0.21094 0.28125-0.3125 0.67188-0.3125 1.1719v2.6875h-1.75v-7.5938h1.75v2.9219c0.25781-0.3125 0.53516-0.53906 0.82812-0.6875 0.30078-0.15625 0.62891-0.23438 0.98438-0.23438 0.63281 0 1.1133 0.19531 1.4375 0.57812 0.33203 0.38672 0.5 0.94922 0.5 1.6875z" id="svg_16"/>
  </symbol>
  <symbol id="o" overflow="visible">
   <path d="m0.92188-7.2969h2.0938l2.6562 5v-5h1.7812v7.2969h-2.0938l-2.6562-5v5h-1.7812z" id="svg_17"/>
  </symbol>
  <symbol id="n" overflow="visible">
   <path d="m0.78125-2.125v-3.3438h1.7656v0.54688c0 0.29297-0.007813 0.66406-0.015625 1.1094v0.90625c0 0.4375 0.007812 0.75781 0.03125 0.95312 0.019531 0.1875 0.0625 0.32812 0.125 0.42188 0.0625 0.10547 0.14844 0.1875 0.26562 0.25 0.125 0.0625 0.25781 0.09375 0.40625 0.09375 0.36328 0 0.64844-0.13281 0.85938-0.40625 0.20703-0.28125 0.3125-0.67188 0.3125-1.1719v-2.7031h1.75v5.4688h-1.75v-0.79688c-0.26172 0.32422-0.54297 0.5625-0.84375 0.71875-0.29297 0.14453-0.61719 0.21875-0.96875 0.21875-0.63672 0-1.1211-0.19141-1.4531-0.57812-0.32422-0.38281-0.48438-0.94531-0.48438-1.6875z" id="svg_18"/>
  </symbol>
  <symbol id="m" overflow="visible">
   <path d="m0.92188-7.2969h3.1094c0.9375 0 1.6484 0.21094 2.1406 0.625 0.5 0.40625 0.75 0.99609 0.75 1.7656 0 0.76172-0.25 1.3516-0.75 1.7656-0.49219 0.40625-1.2031 0.60938-2.1406 0.60938h-1.2344v2.5312h-1.875zm1.875 1.375v2.0312h1.0469c0.36328 0 0.64453-0.085937 0.84375-0.26562 0.19531-0.17578 0.29688-0.42578 0.29688-0.75 0-0.33203-0.10156-0.58203-0.29688-0.75-0.19922-0.17578-0.48047-0.26562-0.84375-0.26562z" id="svg_19"/>
  </symbol>
  <symbol id="l" overflow="visible">
   <path d="m0.84375-5.4688h1.75v5.375c0 0.72656-0.17969 1.2852-0.53125 1.6719-0.35547 0.38281-0.86719 0.57812-1.5312 0.57812h-0.85938v-1.1406h0.29688c0.33203 0 0.5625-0.078125 0.6875-0.23438 0.125-0.14844 0.1875-0.4375 0.1875-0.875zm0-2.125h1.75v1.4219h-1.75z" id="svg_20"/>
  </symbol>
 </defs>
 
<g class="currentLayer" style=""><title>Layer 1</title><g id="svg_21" class="selected">
  <path d="m124.68328199469953,205.27337557054784 l0.04500491909043614,-0.04424012987535466 c9.390978444957288,-9.271976190324436 29.043174453028048,-14.031317564947111 43.94400313107748,-14.742934800702146 c4.564242877099174,-0.21751515162395674 8.731002308791618,-0.07741999133451118 12.07235952305371,0.4129078788366429 c4.196714705839039,0.6156716015549613 7.560826407193252,1.8986212110986829 9.567253712050707,3.856229262031169 c1.1888979479399877,1.1576521238423445 1.9652388029058887,2.5032127246592593 2.276504824647101,4.04432649689321 l39.413267916405104,97.5878278210487 c0.2512786650527776,0.6230520349549664 0.3825442125310583,1.268264245898697 0.40504907233862775,1.902301989904311 l-0.003750169897967859,0.3834144589197395 c-0.34878692281970414,10.300517919138544 -26.819571410607786,36.465192490540225 -34.86045028809902,44.41378713182525 l-0.08250853827999592,0.08110737666620205 c-2.23147590293315,2.226776798462112 10.29520527801057,18.341603925282985 27.63278029529257,37.89125833036232 c7.995849955777285,9.017624936961065 17.128272140232077,18.554900338122028 26.548821817359723,27.789879982502697 c9.409796501792968,9.22035090810189 19.07824527458249,18.09810625044903 28.169478957085715,25.814528690148205 c18.924628484087133,16.06612759185408 34.2229406075433,27.48409220480425 36.28908643970582,25.49741543920166 c3.8142088975056043,-3.8083791375579854 12.26726082599469,-12.12580669095584 20.833317105991924,-19.554373352266037 c9.334812305932422,-8.103281730065204 19.06672401529534,-15.10440615520371 24.618050781821232,-14.897716268426054 c0.7650884250621159,0.025806978374649524 1.4926751511445524,0.1990829439126889 2.1490028885359567,0.4903269263817164 l98.9292130790086,38.647233669672374 c1.5414484821268277,0.3059954113746661 2.8990368681295267,1.0580823382028792 4.069212769727893,2.208278525490231 l0.01125146979884418,-0.011060268416197993 c1.995194077052482,1.9576080509324876 3.3041051425669665,5.2940924698200265 3.9342220150801,9.478477319214624 c0.5025573301055535,3.3216669247212853 0.641321297169891,7.46556320725396 0.4125474919246824,12.000282695789501 c-0.7425835652545465,14.687251223899032 -5.569376739409094,34.005677216829845 -15.005480116574393,43.28123980701618 c-0.11625910725676587,0.11428346296760943 -0.24002623514899268,0.2248861471295892 -0.3637933630412193,0.3281178357859369 c-43.70685721075028,42.92354361026397 -113.56121237369115,28.68270479022719 -180.0676816087739,-12.892163714076647 c-26.0054024209824,-16.25488547932226 -51.552834785300526,-36.726622164683654 -74.78737434772296,-59.56160760114665 c-23.233579457481845,-22.831210278713627 -44.1533060081274,-48.01906278246747 -60.910017536348846,-73.70806747744933 c-43.63196902538379,-66.89862668703476 -59.21543231619696,-137.55731049243568 -15.249346771485769,-180.69792567328807 zm141.69228713315303,-63.44813250411646 h329.4120051184768 c3.1803476157241457,0 5.760629643575811,2.5364341128536596 5.760629643575811,5.6627366240453805 v224.9616502845761 c0,3.12630251119172 -2.5802820278516654,5.6627366240453805 -5.760629643575811,5.6627366240453805 h-329.4120051184768 c-3.1803476157241457,0 -5.7568852343074886,-2.5364341128536596 -5.7568852343074886,-5.6627366240453805 v-224.9616502845761 c0,-3.12630251119172 2.5802820278516654,-5.6627366240453805 5.7568852343074886,-5.6627366240453805 zm314.8664152684479,11.32547324809076 h-300.20561282554746 l118.10250874271009,107.76187795558357 l0.15751481655417496,0.1437768828845122 l32.56867979489644,29.71426664524079 l36.26316360630973,-33.40542713468104 c0.18377368667947466,-0.195392727212686 0.37879020221332754,-0.3760434634141068 0.5925671682864261,-0.5456235495155196 l112.53390008725346,-103.67526969189748 zm-309.10578562487206,7.30332580297506 v199.7907859906944 l114.5021152154752,-95.31329527705714 l-114.5021152154752,-104.47749071363727 zm9.939006345049467,206.3312467914668 h298.9382743039608 l-108.62627297902787,-97.87096465225099 l-36.49934942169634,33.6262738630188 c-2.182702571950875,2.097760782377611 -5.678156629178618,2.1604284010170463 -7.9358433969900375,0.09585125525634164 l-32.83462886344152,-29.95776432007474 zm307.9536596961569,-7.174309786890559 v-199.07350601831533 l-109.25034119041526,100.64570559803322 l109.25034119041526,98.42780042028211 zm-420.813995463213,-157.83934550089154 c-12.736752141946118,0.6083006060493289 -29.192950823761016,4.331804759507247 -36.383176723884226,11.465154084817211 l-0.022501979492747765,0.02211959304295865 c-39.371983403959476,38.61042588161608 -24.032386768057687,103.99615810059339 16.80183646042945,166.6071493737885 c16.325624409893848,25.032127246592598 36.704811878983875,49.5678212491439 59.331605014009064,71.80161281402073 c22.625833030084593,22.23096019656482 47.50983288045091,42.172287218140625 72.85564320724389,58.01379292390757 c62.16295448382657,38.86524902969812 126.75305425747979,52.871084279837035 165.8677295373595,14.37768828845122 l0.255023074321101,-0.26913099595213025 c7.260793613257012,-7.1374076198905305 11.041206816853638,-23.277622682575874 11.674876077646978,-35.805483673838935 c0.1912721062655292,-3.7641154129466976 0.07875836838202795,-7.163173071529937 -0.3225376537438103,-9.83239835821746 c-0.1912721062655292,-1.2571275305380751 -0.3637933630412193,-2.1825130738508234 -0.513809760009339,-2.691309959521301 l-98.22833647237354,-38.37070336453149 c-2.6064928927299356,0.7926321210563788 -9.135974572734998,6.020338441853846 -15.980946736219895,11.959699749983843 c-8.224642963121305,7.1374076198905305 -16.55412938575569,15.33657835678957 -20.2898977096146,19.067378002598133 l-0.04500587919537679,0.04423918608591732 c-7.37331791229486,7.2037560173355955 -28.397983932947557,-5.006519828262255 -51.90519329849925,-24.962286828229377 c-9.301016612023446,-7.89687498011875 -19.172335558760896,-16.95895239957857 -28.750342446146277,-26.344938353933788 c-9.567253712050707,-9.37522675476953 -18.88334397164151,-19.10796094840379 -27.089360898915253,-28.365591539280643 c-21.002295575536813,-23.679676982883095 -34.308389947256344,-45.18769447044478 -27.467642245510064,-52.940924698200256 c0.13876396706433541,-0.14746709958451543 0.26627550422488616,-0.28756320366339816 0.40879348160695156,-0.427649869847907 c7.058307481285322,-6.97517021561163 29.85734344265343,-29.515127073961857 31.44343680451797,-35.80831504215096 l-39.06763013779056,-96.73841732744191 c-0.513809760009339,-0.14009610407888284 -1.4401574108939532,-0.3059954113746661 -2.6928063268895137,-0.4903269263817164 c-2.685317508352864,-0.39078545442537205 -6.094458131421029,-0.5050783552873545 -9.866998474504769,-0.3244276190859339 z" fill="#FFFFFF" stroke="#FFFFFF" stroke-linecap="round" stroke-linejoin="round" stroke-miterlimit="10" stroke-width="1" id="svg_22"/>
 </g></g></svg>