<svg width="80px" height="71px" viewBox="0 0 80 71" version="1.1" xmlns="http://www.w3.org/2000/svg" xmlns:xlink="http://www.w3.org/1999/xlink">
    <g id="Page-1" stroke="none" stroke-width="1" fill="none" fill-rule="evenodd">
        <g id="Group-5" transform="translate(-0.000000, 0.000000)" fill="#000000">
            <path d="M77.234986,65.289 C76.164986,67.164 74.253986,68.284 72.119986,68.284 L7.880986,68.284 C5.747986,68.284 3.835986,67.164 2.765986,65.289 C1.667986,63.364 1.684986,61.077 2.812986,59.171 L34.932986,4.864 C36.011986,3.04 37.905986,1.95 39.999986,1.95 C42.093986,1.95 43.988986,3.04 45.067986,4.864 L77.187986,59.171 C78.314986,61.077 78.332986,63.363 77.234986,65.289 M78.866986,58.179 L46.746986,3.872 C45.313986,1.447 42.790986,0 39.999986,0 C37.209986,0 34.686986,1.447 33.253986,3.872 L1.132986,58.179 C-0.355014002,60.695 -0.379014002,63.714 1.070986,66.255 C2.491986,68.747 5.037986,70.234 7.880986,70.234 L72.119986,70.234 C74.962986,70.234 77.507986,68.747 78.929986,66.255 C80.378986,63.714 80.355986,60.694 78.866986,58.179" id="Fill-1"></path>
            <path d="M71.596286,62.3837 C71.513286,62.5317 71.261286,62.8737 70.745286,62.8737 L9.255286,62.8737 C8.739286,62.8737 8.488286,62.5317 8.404286,62.3837 C8.322286,62.2407 8.159286,61.8627 8.410286,61.4387 L39.156286,9.2277 C39.410286,8.7947 39.831286,8.7487 40.000286,8.7487 L40.000286,8.7487 C40.170286,8.7487 40.591286,8.7947 40.845286,9.2277 L71.590286,61.4387 C71.841286,61.8627 71.678286,62.2407 71.596286,62.3837 L71.596286,62.3837 Z M42.526286,8.2377 C41.995286,7.3367 41.051286,6.7987 40.000286,6.7987 L40.000286,6.7987 C38.949286,6.7987 38.005286,7.3357 37.474286,8.2377 L6.729286,60.4467 C6.195286,61.3537 6.188286,62.4397 6.710286,63.3517 C7.237286,64.2747 8.188286,64.8247 9.255286,64.8247 L70.745286,64.8247 C71.812286,64.8247 72.763286,64.2747 73.290286,63.3517 C73.812286,62.4397 73.805286,61.3537 73.271286,60.4467 L42.526286,8.2377 Z" id="Fill-3"></path>
            <path d="M52.732486,53.0683 C52.614486,53.2333 50.559486,55.9793 45.312486,56.8623 C48.134486,51.9013 46.134486,46.0533 45.107486,43.0653 L44.939486,42.5783 C44.754486,42.0333 44.222486,41.6993 43.649486,41.7583 C43.083486,41.8213 42.644486,42.2573 42.583486,42.8213 C42.322486,45.2213 41.763486,46.5643 40.931486,46.6173 C40.295486,46.2983 39.718486,45.2143 39.535486,44.5133 C39.401486,44.0033 38.957486,43.6393 38.428486,43.6083 C37.903486,43.5893 37.410486,43.8873 37.217486,44.3843 C34.759486,50.7083 35.750486,54.5533 37.021486,56.6723 C36.937486,56.6573 36.861486,56.6503 36.776486,56.6343 C29.471486,55.2823 27.531486,49.6043 27.020486,46.4793 C30.171486,48.1063 32.542486,47.6713 32.655486,47.6493 L33.928486,47.3983 L33.334486,46.2453 C30.656486,41.0453 31.181486,37.3773 31.649486,35.7973 C33.338486,36.6083 34.801486,36.7173 36.000486,36.1183 C37.526486,35.3593 38.478486,33.5113 38.829486,30.6293 C39.087486,28.5133 38.798486,26.6563 38.369486,25.2033 C44.490486,30.2043 44.464486,36.9063 44.460486,37.2053 L44.437486,38.3823 L45.598486,38.1863 C47.862486,37.8023 49.144486,36.3493 49.852486,35.0483 C51.786486,40.5453 49.947486,46.7393 49.284486,48.6363 C49.127486,49.0883 49.248486,49.5923 49.595486,49.9223 C49.939486,50.2523 50.445486,50.3473 50.888486,50.1723 C52.308486,49.5983 53.495486,48.6483 54.394486,47.7383 C54.155486,50.1323 53.450486,52.0623 52.732486,53.0683 L52.732486,53.0683 Z M39.840486,57.0333 C39.087486,56.4263 36.334486,53.6493 38.439486,46.7993 C38.885486,47.5043 39.506486,48.1653 40.315486,48.4743 C40.535486,48.5603 40.758486,48.6063 40.961486,48.5713 C42.622486,48.5713 43.494486,47.2563 43.965486,45.8613 C44.931486,49.1303 45.650486,53.5953 42.776486,57.1183 C41.874486,57.1523 40.888486,57.1203 39.840486,57.0333 L39.840486,57.0333 Z M55.572486,44.4973 C55.072486,44.3393 54.530486,44.5163 54.222486,44.9373 C53.816486,45.4923 52.904486,46.6273 51.670486,47.5143 C52.578486,44.1713 53.633486,37.9233 50.922486,32.5993 C50.693486,32.1503 50.225486,31.8983 49.716486,31.9433 C49.209486,31.9943 48.793486,32.3433 48.657486,32.8333 C48.401486,33.7533 47.778486,35.2223 46.334486,35.9253 C46.043486,33.2393 44.659486,27.0453 38.173486,22.6253 C37.633486,22.2553 36.928486,22.2893 36.422486,22.7093 C35.916486,23.1283 35.751486,23.8123 36.011486,24.4113 C36.585486,25.7353 37.203486,27.8473 36.892486,30.3923 C36.629486,32.5533 36.020486,33.9293 35.130486,34.3723 C34.190486,34.8393 32.836486,34.2673 31.869486,33.7063 C31.568486,33.5313 31.206486,33.4913 30.877486,33.5943 C30.550486,33.6983 30.282486,33.9363 30.140486,34.2503 C29.612486,35.4203 28.215486,39.5263 30.925486,45.7213 C29.937486,45.5993 28.483486,45.2073 26.807486,44.0893 C26.416486,43.8303 25.922486,43.8123 25.517486,44.0473 C25.115486,44.2783 24.883486,44.7093 24.912486,45.1723 C25.026486,47.0723 26.120486,56.6463 36.421486,58.5533 C38.479486,58.9343 40.327486,59.0953 41.981486,59.0953 C50.532486,59.0953 53.905486,54.7833 54.320486,54.2023 C55.665486,52.3183 56.491486,48.9563 56.425486,45.6343 C56.415486,45.1123 56.071486,44.6553 55.572486,44.4973 L55.572486,44.4973 Z" id="Fill-4"></path>
        </g>
    </g>
</svg>