<?xml version="1.0" encoding="UTF-8"?>
<svg width="700pt" height="700pt" version="1.1" viewBox="0 0 700 700" xmlns="http://www.w3.org/2000/svg" xmlns:xlink="http://www.w3.org/1999/xlink">
 <defs>
  <symbol id="n" overflow="visible">
   <path d="m29.312-1.75c-1.5117 0.78125-3.0898 1.3711-4.7344 1.7656-1.6367 0.40625-3.3398 0.60938-5.1094 0.60938-5.3125 0-9.5273-1.4844-12.641-4.4531-3.1055-2.9688-4.6562-7-4.6562-12.094s1.5508-9.125 4.6562-12.094c3.1133-2.9688 7.3281-4.4531 12.641-4.4531 1.7695 0 3.4727 0.19922 5.1094 0.59375 1.6445 0.39844 3.2227 0.99219 4.7344 1.7812v6.5938c-1.5312-1.0391-3.0391-1.8008-4.5156-2.2812-1.4805-0.48828-3.0391-0.73438-4.6719-0.73438-2.9375 0-5.2461 0.94531-6.9219 2.8281-1.6797 1.875-2.5156 4.4648-2.5156 7.7656 0 3.293 0.83594 5.8828 2.5156 7.7656 1.6758 1.875 3.9844 2.8125 6.9219 2.8125 1.6328 0 3.1914-0.23828 4.6719-0.71875 1.4766-0.48828 2.9844-1.2539 4.5156-2.2969z"/>
  </symbol>
  <symbol id="h" overflow="visible">
   <path d="m21.453-17.406c-0.67969-0.3125-1.3516-0.53906-2.0156-0.6875-0.65625-0.15625-1.3203-0.23438-1.9844-0.23438-1.9688 0-3.4844 0.63281-4.5469 1.8906-1.0547 1.2617-1.5781 3.0703-1.5781 5.4219v11.016h-7.6562v-23.922h7.6562v3.9219c0.97656-1.5625 2.1016-2.7031 3.375-3.4219 1.2812-0.71875 2.8125-1.0781 4.5938-1.0781 0.25 0 0.52344 0.011719 0.82812 0.03125 0.30078 0.023438 0.73438 0.070312 1.2969 0.14062z"/>
  </symbol>
  <symbol id="b" overflow="visible">
   <path d="m27.562-12.031v2.1875h-17.891c0.1875 1.793 0.83203 3.1367 1.9375 4.0312 1.1133 0.89844 2.6719 1.3438 4.6719 1.3438 1.6016 0 3.25-0.23438 4.9375-0.70312 1.6875-0.47656 3.4219-1.2031 5.2031-2.1719v5.8906c-1.8047 0.6875-3.6094 1.2031-5.4219 1.5469-1.8125 0.35156-3.6211 0.53125-5.4219 0.53125-4.3359 0-7.7031-1.0977-10.109-3.2969-2.3984-2.207-3.5938-5.2969-3.5938-9.2656 0-3.9062 1.1758-6.9727 3.5312-9.2031 2.3633-2.2383 5.6094-3.3594 9.7344-3.3594 3.7578 0 6.7695 1.1367 9.0312 3.4062 2.2578 2.2617 3.3906 5.2812 3.3906 9.0625zm-7.8594-2.5312c0-1.457-0.42969-2.6289-1.2812-3.5156-0.84375-0.89453-1.9492-1.3438-3.3125-1.3438-1.4922 0-2.6992 0.41797-3.625 1.25-0.91797 0.83594-1.4922 2.0391-1.7188 3.6094z"/>
  </symbol>
  <symbol id="a" overflow="visible">
   <path d="m14.391-10.766c-1.5938 0-2.793 0.27344-3.5938 0.8125-0.80469 0.54297-1.2031 1.3398-1.2031 2.3906 0 0.96875 0.32031 1.7305 0.96875 2.2812 0.64453 0.54297 1.5469 0.8125 2.7031 0.8125 1.4375 0 2.6445-0.51562 3.625-1.5469 0.98828-1.0312 1.4844-2.3203 1.4844-3.875v-0.875zm11.688-2.8906v13.656h-7.7031v-3.5469c-1.0312 1.4492-2.1875 2.5078-3.4688 3.1719s-2.8398 1-4.6719 1c-2.4805 0-4.4961-0.72266-6.0469-2.1719-1.543-1.4453-2.3125-3.3203-2.3125-5.625 0-2.8125 0.96094-4.8672 2.8906-6.1719 1.9375-1.3125 4.9688-1.9688 9.0938-1.9688h4.5156v-0.60938c0-1.207-0.48047-2.0938-1.4375-2.6562-0.94922-0.5625-2.4375-0.84375-4.4688-0.84375-1.6367 0-3.1562 0.16797-4.5625 0.5-1.4062 0.32422-2.7188 0.8125-3.9375 1.4688v-5.8281c1.6445-0.40625 3.2891-0.70703 4.9375-0.90625 1.6562-0.20703 3.3047-0.3125 4.9531-0.3125 4.3203 0 7.4375 0.85547 9.3438 2.5625 1.9141 1.6992 2.875 4.4609 2.875 8.2812z"/>
  </symbol>
  <symbol id="g" overflow="visible">
   <path d="m12.031-30.719v6.7969h7.875v5.4688h-7.875v10.141c0 1.1172 0.21875 1.8711 0.65625 2.2656 0.4375 0.38672 1.3125 0.57812 2.625 0.57812h3.9375v5.4688h-6.5625c-3.0234 0-5.1641-0.62891-6.4219-1.8906-1.2617-1.2578-1.8906-3.3984-1.8906-6.4219v-10.141h-3.7969v-5.4688h3.7969v-6.7969z"/>
  </symbol>
  <symbol id="f" overflow="visible">
   <path d="m19.953-20.422v-12.812h7.6875v33.234h-7.6875v-3.4531c-1.0547 1.4062-2.2148 2.4375-3.4844 3.0938-1.2734 0.65625-2.7422 0.98438-4.4062 0.98438-2.9492 0-5.3711-1.1719-7.2656-3.5156-1.8867-2.3438-2.8281-5.3594-2.8281-9.0469s0.94141-6.7031 2.8281-9.0469c1.8945-2.3438 4.3164-3.5156 7.2656-3.5156 1.6562 0 3.1172 0.33594 4.3906 1 1.2812 0.65625 2.4453 1.6836 3.5 3.0781zm-5.0469 15.484c1.6445 0 2.8945-0.59766 3.75-1.7969 0.86328-1.1953 1.2969-2.9297 1.2969-5.2031 0-2.2812-0.43359-4.0195-1.2969-5.2188-0.85547-1.1953-2.1055-1.7969-3.75-1.7969-1.625 0-2.8711 0.60156-3.7344 1.7969-0.85547 1.1992-1.2812 2.9375-1.2812 5.2188 0 2.2734 0.42578 4.0078 1.2812 5.2031 0.86328 1.1992 2.1094 1.7969 3.7344 1.7969z"/>
  </symbol>
  <symbol id="e" overflow="visible">
   <path d="m16.406-4.9375c1.6328 0 2.8828-0.59766 3.75-1.7969 0.86328-1.1953 1.2969-2.9297 1.2969-5.2031 0-2.2812-0.43359-4.0195-1.2969-5.2188-0.86719-1.1953-2.1172-1.7969-3.75-1.7969-1.6367 0-2.8906 0.60547-3.7656 1.8125-0.875 1.1992-1.3125 2.9336-1.3125 5.2031 0 2.2617 0.4375 3.9961 1.3125 5.2031 0.875 1.1992 2.1289 1.7969 3.7656 1.7969zm-5.0781-15.484c1.0508-1.3945 2.2188-2.4219 3.5-3.0781 1.2812-0.66406 2.7539-1 4.4219-1 2.9453 0 5.3672 1.1719 7.2656 3.5156 1.8945 2.3438 2.8438 5.3594 2.8438 9.0469s-0.94922 6.7031-2.8438 9.0469c-1.8984 2.3438-4.3203 3.5156-7.2656 3.5156-1.668 0-3.1406-0.33594-4.4219-1s-2.4492-1.6914-3.5-3.0781v3.4531h-7.6562v-33.234h7.6562z"/>
  </symbol>
  <symbol id="d" overflow="visible">
   <path d="m0.53125-23.922h7.6562l6.4219 16.234 5.4688-16.234h7.6562l-10.062 26.188c-1.0117 2.6641-2.1953 4.5234-3.5469 5.5781-1.3438 1.0625-3.1211 1.5938-5.3281 1.5938h-4.4219v-5.0156h2.3906c1.3008 0 2.2422-0.21094 2.8281-0.625 0.59375-0.40625 1.0547-1.1484 1.3906-2.2188l0.20312-0.65625z"/>
  </symbol>
  <symbol id="c" overflow="visible">
   <path d="m15.703-17.75c1.7188 0 2.9531-0.31641 3.7031-0.95312 0.75-0.64453 1.125-1.7031 1.125-3.1719 0-1.4453-0.375-2.4844-1.125-3.1094-0.75-0.63281-1.9844-0.95312-3.7031-0.95312h-3.4688v8.1875zm-3.4688 5.6875v12.062h-8.2188v-31.891h12.562c4.1953 0 7.2734 0.70312 9.2344 2.1094 1.957 1.4062 2.9375 3.6367 2.9375 6.6875 0 2.1055-0.51172 3.8359-1.5312 5.1875-1.0117 1.3555-2.543 2.3555-4.5938 3 1.125 0.25 2.1289 0.82812 3.0156 1.7344 0.89453 0.90625 1.7969 2.2773 2.7031 4.1094l4.4688 9.0625h-8.7656l-3.875-7.9219c-0.79297-1.5938-1.5898-2.6797-2.3906-3.2656-0.80469-0.58203-1.875-0.875-3.2188-0.875z"/>
  </symbol>
  <symbol id="m" overflow="visible">
   <path d="m27.734-14.562v14.562h-7.7031v-11.156c0-2.0625-0.046875-3.4844-0.14062-4.2656-0.085937-0.78125-0.24219-1.3594-0.46875-1.7344-0.30469-0.5-0.71094-0.88281-1.2188-1.1562-0.51172-0.28125-1.0938-0.42188-1.75-0.42188-1.5938 0-2.8516 0.61719-3.7656 1.8438-0.90625 1.2305-1.3594 2.9375-1.3594 5.125v11.766h-7.6562v-23.922h7.6562v3.5c1.1445-1.3945 2.3633-2.4219 3.6562-3.0781 1.3008-0.66406 2.7383-1 4.3125-1 2.7578 0 4.8516 0.85156 6.2812 2.5469 1.4375 1.6875 2.1562 4.1523 2.1562 7.3906z"/>
  </symbol>
  <symbol id="l" overflow="visible">
   <path d="m3.6719-33.234h7.6562v18.094l8.7969-8.7812h8.8906l-11.688 10.969 12.594 12.953h-9.2656l-9.3281-9.9688v9.9688h-7.6562z"/>
  </symbol>
  <symbol id="k" overflow="visible">
   <path d="m26.219-30.891v6.75c-1.7617-0.78125-3.4766-1.3672-5.1406-1.7656-1.668-0.40625-3.2422-0.60938-4.7188-0.60938-1.9609 0-3.4141 0.27344-4.3594 0.8125-0.9375 0.54297-1.4062 1.3867-1.4062 2.5312 0 0.85547 0.31641 1.5234 0.95312 2 0.63281 0.46875 1.7852 0.875 3.4531 1.2188l3.5 0.70312c3.5391 0.71875 6.0625 1.8047 7.5625 3.25 1.5 1.4492 2.25 3.5117 2.25 6.1875 0 3.5234-1.0469 6.1406-3.1406 7.8594-2.0859 1.7188-5.2734 2.5781-9.5625 2.5781-2.0234 0-4.0547-0.19531-6.0938-0.57812-2.0312-0.38281-4.0625-0.95703-6.0938-1.7188v-6.9375c2.0312 1.0859 3.9922 1.9023 5.8906 2.4531 1.9062 0.54297 3.7422 0.8125 5.5156 0.8125 1.7891 0 3.1602-0.29688 4.1094-0.89062 0.95703-0.60156 1.4375-1.457 1.4375-2.5625 0-1-0.32422-1.7695-0.96875-2.3125-0.64844-0.53906-1.9375-1.0234-3.875-1.4531l-3.1875-0.70312c-3.1875-0.6875-5.5234-1.7734-7-3.2656-1.4688-1.5-2.2031-3.5156-2.2031-6.0469 0-3.1758 1.0234-5.6172 3.0781-7.3281 2.0508-1.707 5-2.5625 8.8438-2.5625 1.75 0 3.5508 0.13281 5.4062 0.39062 1.8516 0.26172 3.7695 0.65625 5.75 1.1875z"/>
  </symbol>
  <symbol id="j" overflow="visible">
   <path d="m15.062-19.031c-1.6992 0-2.9961 0.60938-3.8906 1.8281-0.88672 1.2188-1.3281 2.9766-1.3281 5.2656 0 2.293 0.44141 4.0469 1.3281 5.2656 0.89453 1.2188 2.1914 1.8281 3.8906 1.8281 1.6641 0 2.9375-0.60938 3.8125-1.8281 0.88281-1.2188 1.3281-2.9727 1.3281-5.2656 0-2.2891-0.44531-4.0469-1.3281-5.2656-0.875-1.2188-2.1484-1.8281-3.8125-1.8281zm0-5.4688c4.1133 0 7.3281 1.1094 9.6406 3.3281s3.4688 5.2969 3.4688 9.2344c0 3.9297-1.1562 7.0078-3.4688 9.2344-2.3125 2.2188-5.5273 3.3281-9.6406 3.3281-4.1367 0-7.3711-1.1094-9.7031-3.3281-2.3242-2.2266-3.4844-5.3047-3.4844-9.2344 0-3.9375 1.1602-7.0156 3.4844-9.2344 2.332-2.2188 5.5664-3.3281 9.7031-3.3281z"/>
  </symbol>
  <symbol id="i" overflow="visible">
   <path d="m3.6719-33.234h7.6562v33.234h-7.6562z"/>
  </symbol>
 </defs>
 <g>
  <path d="m589.14 508.55h-478.27c-15.137 0-28.438-7.875-35.789-21.176-7.2617-13.211-6.7383-28.789 1.3125-41.562l239.23-375.55c7.5234-11.812 20.387-18.812 34.387-18.812s26.863 7.0859 34.387 18.898l239.14 375.64c8.1367 12.773 8.6641 28.262 1.3125 41.562-7.2617 13.129-20.562 21.004-35.699 21.004zm-266.26-433.65-239.14 375.64c-6.3867 10.062-6.8242 22.312-1.0508 32.727s16.273 16.711 28.176 16.711h478.27c11.898 0 22.488-6.2109 28.176-16.711 5.7734-10.414 5.3359-22.664-1.0508-32.727l-239.14-375.64c-5.9492-9.3633-16.102-14.875-27.125-14.875s-21.176 5.6016-27.125 14.875z" fill="#FFFFFF" stroke="#FFFFFF" stroke-linecap="round" stroke-linejoin="round" stroke-miterlimit="10" stroke-width="1"/>
  <path d="m589.14 475.65h-478.27c-3.8516 0-5.8633-2.1875-6.9141-4.0234s-1.8359-4.7266 0.26172-7.9609l239.14-375.64c1.9258-2.9766 4.7266-3.6758 6.6484-3.6758 1.9258 0 4.7266 0.61328 6.6484 3.5859l239.14 375.64c2.1016 3.2383 1.2266 6.125 0.26172 7.9609-1.043 1.9258-3.0547 4.1133-6.9062 4.1133zm-478.36-8.5742 0.085937 4.2891v-4.2891h-0.085937zm1.4883 0h475.48l-237.74-373.45z" fill="#FFFFFF" stroke="#FFFFFF" stroke-linecap="round" stroke-linejoin="round" stroke-miterlimit="10" stroke-width="1"/>
  <path d="m271.77 408.19c-1.1367 0-2.1875-0.4375-3.0625-1.2266-1.3125-1.3125-1.6641-3.3242-0.78906-4.9883 4.8984-9.7109 6.2109-20.562 4.1133-34.039-1.6641-10.5-4.9883-21.613-10.324-33.949-6.5625-15.051-8.3984-32.023-4.9883-46.461 3.7617-16.363 13.824-30.273 26.688-37.273 1.6641-0.875 3.6758-0.61328 4.9883 0.61328 1.3125 1.2266 1.75 3.2383 0.96094 4.8984-5.25 11.461-7.9609 23.188-8.0508 34.824 0.085937 10.762 2.2734 21.438 6.7383 32.461 6.125 15.227 8.6641 30.012 7.6133 44.102-0.61328 8.3125-2.625 15.926-5.8633 22.75-4.375 8.5742-9.7109 14.523-16.012 17.762-0.60938 0.35156-1.3086 0.52734-2.0117 0.52734zm4.375-140.96c-5.1641 6.0391-8.9258 13.738-10.938 22.227-2.9766 12.688-1.3125 27.648 4.4609 41.039 5.6016 13.039 9.1875 24.852 10.938 36.051 1.2266 7.7891 1.3984 14.789 0.61328 21.262 0.35156-0.52344 0.61328-1.1367 0.96094-1.75 2.8008-5.7734 4.4609-12.336 4.9883-19.602 0.96094-12.688-1.4883-26.25-7.0859-40.25-4.8125-12.074-7.1758-23.711-7.3516-35.699 0.089844-7.7031 1.2266-15.492 3.4141-23.277z" fill="#FFFFFF" stroke="#FFFFFF" stroke-linecap="round" stroke-linejoin="round" stroke-miterlimit="10" stroke-width="1"/>
  <path d="m319.81 408.19c-1.1367 0-2.1875-0.4375-3.0625-1.2266-1.3125-1.3125-1.6641-3.3242-0.78906-4.9883 4.8984-9.7109 6.2109-20.477 4.1133-34.039-1.6641-10.5-4.9883-21.613-10.324-33.949-6.5625-15.051-8.3984-32.023-4.9883-46.461 3.8516-16.363 13.824-30.273 26.688-37.273 1.6641-0.875 3.6758-0.61328 4.9883 0.61328 1.3125 1.2266 1.75 3.2383 0.96094 4.8984-5.25 11.551-7.9609 23.273-8.0508 34.824 0.085938 10.762 2.2734 21.438 6.7383 32.461 6.125 15.227 8.6641 30.012 7.6133 44.102-0.61328 8.3125-2.625 15.926-5.8633 22.75-4.375 8.5742-9.7109 14.523-16.012 17.762-0.61328 0.35156-1.3125 0.52734-2.0117 0.52734zm4.2891-140.96c-5.1641 6.0391-8.9258 13.738-10.938 22.227-2.9766 12.688-1.3125 27.648 4.4609 41.039 5.6016 13.039 9.1875 24.852 10.938 36.051 1.2266 7.7891 1.3984 14.789 0.61328 21.262 0.35156-0.52344 0.61328-1.1367 0.96094-1.75 2.8008-5.7734 4.4609-12.336 4.9883-19.602 0.96094-12.688-1.4883-26.25-7.0859-40.25-4.8125-12.074-7.1758-23.711-7.3516-35.699 0.17578-7.7031 1.3125-15.492 3.4141-23.277z" fill="#FFFFFF" stroke="#FFFFFF" stroke-linecap="round" stroke-linejoin="round" stroke-miterlimit="10" stroke-width="1"/>
  <path d="m367.85 408.19c-1.1367 0-2.1875-0.4375-3.0625-1.2266-1.3125-1.3125-1.6641-3.3242-0.78906-4.9883 4.8984-9.7109 6.2109-20.562 4.1133-34.039-1.6641-10.5-4.9883-21.613-10.324-33.949-6.5625-15.051-8.3984-32.023-4.9883-46.461 3.8516-16.363 13.824-30.273 26.688-37.273 1.6641-0.875 3.6758-0.61328 4.9883 0.61328 1.3125 1.2266 1.75 3.2383 0.96094 4.8984-5.25 11.551-7.9609 23.273-8.0508 34.824 0.085937 10.762 2.2734 21.438 6.7383 32.461 6.125 15.227 8.6641 30.012 7.6133 44.102-0.61328 8.3125-2.625 15.926-5.8633 22.75-4.375 8.5742-9.7109 14.523-16.012 17.762-0.69922 0.35156-1.3125 0.52734-2.0117 0.52734zm4.2852-140.96c-5.1641 6.0391-8.9258 13.738-10.938 22.227-2.9766 12.688-1.3125 27.648 4.4609 41.039 5.6016 13.039 9.1875 24.852 10.938 36.051 1.2266 7.7891 1.3984 14.789 0.61328 21.262 0.35156-0.61328 0.61328-1.1367 0.96094-1.75 2.7109-5.6875 4.4609-12.512 4.9883-19.602 0.96094-12.688-1.4883-26.25-7.0859-40.25-4.8125-12.074-7.1758-23.711-7.3516-35.699 0.17578-7.7031 1.3164-15.492 3.4141-23.277z" fill="#FFFFFF" stroke="#FFFFFF" stroke-linecap="round" stroke-linejoin="round" stroke-miterlimit="10" stroke-width="1"/>
  <path d="m415.89 408.19c-1.1367 0-2.1875-0.4375-3.0625-1.2266-1.3125-1.3125-1.6641-3.3242-0.78906-4.9883 4.8984-9.7109 6.2109-20.562 4.1133-34.039-1.6641-10.5-4.9883-21.613-10.324-33.949-6.5625-15.051-8.3984-32.023-4.9883-46.461 3.8516-16.363 13.824-30.273 26.688-37.273 1.6641-0.875 3.6758-0.61328 4.9883 0.61328 1.3125 1.2266 1.75 3.2383 0.96094 4.8984-5.25 11.461-7.9609 23.188-8.0508 34.824 0.085937 10.762 2.2734 21.438 6.7383 32.461 6.125 15.227 8.6641 30.012 7.6133 44.102-0.61328 8.3125-2.625 15.926-5.8633 22.75-4.375 8.5742-9.7109 14.523-16.012 17.762-0.69922 0.35156-1.3984 0.52734-2.0117 0.52734zm4.2891-140.96c-5.1641 6.0391-8.9258 13.738-10.938 22.227-2.9766 12.688-1.3125 27.648 4.4609 41.039 5.6016 13.039 9.1875 24.852 10.938 36.051 1.2266 7.7891 1.3984 14.789 0.61328 21.262 0.35156-0.61328 0.61328-1.1367 0.96094-1.75 2.8008-5.7734 4.4609-12.336 4.9883-19.602 0.96094-12.688-1.4883-26.25-7.0859-40.25-4.8125-12.074-7.1758-23.711-7.3516-35.699 0.17578-7.7031 1.2266-15.492 3.4141-23.277z" fill="#FFFFFF" stroke="#FFFFFF" stroke-linecap="round" stroke-linejoin="round" stroke-miterlimit="10" stroke-width="1"/>
  <path d="m445.02 447.65h-190.05c-2.3633 0-4.2891-1.9258-4.2891-4.2891v-20.477c0-2.3633 1.9258-4.2891 4.2891-4.2891h189.96c2.3633 0 4.2891 1.9258 4.2891 4.2891v20.477c0.085938 2.3672-1.8398 4.2891-4.2031 4.2891zm-185.67-8.5742h181.39v-11.898h-181.39z" fill="#FFFFFF" stroke="#FFFFFF" stroke-linecap="round" stroke-linejoin="round" stroke-miterlimit="10" stroke-width="1"/>
 </g>
</svg>
