
<svg width="80px" height="71px" viewBox="0 0 80 71" version="1.1" xmlns="http://www.w3.org/2000/svg" xmlns:xlink="http://www.w3.org/1999/xlink">
    <g id="Page-1" stroke="none" stroke-width="1" fill="none" fill-rule="evenodd">
        <path d="M25.7426982,52.782 C26.6206982,52.782 27.4426982,53.198 27.9416982,53.893 C28.6606982,54.892 29.0986982,56.012 29.5636982,57.199 C30.0766982,58.513 30.6086982,59.872 31.5756982,61.257 C32.2676982,62.247 32.8656982,63.103 32.8556982,65.367 C32.8546982,65.706 32.6816982,66.017 32.3916982,66.2 C32.1176982,66.372 31.8466982,66.582 31.5626982,66.8 C31.1276982,67.136 30.6766982,67.485 30.1466982,67.75 L29.8916982,67.877 L30.0976982,68.074 C30.3466982,68.313 30.6796982,68.606 30.8706982,68.714 C30.9696982,68.762 31.0826982,68.782 31.2256982,68.782 C31.4086982,68.782 31.6436982,68.749 31.9276982,68.683 C33.0986982,68.408 33.4876982,67.766 33.8646982,67.144 C34.2766982,66.462 34.7036982,65.758 36.1956982,65.303 L36.4596982,65.222 L36.3016982,64.995 C36.0866982,64.685 35.8146982,64.504 35.5256982,64.311 C34.7776982,63.812 33.7536982,63.127 32.5436982,59.498 C32.1886982,58.435 31.8586982,57.444 31.3976982,56.779 C30.9886982,56.184 30.6886982,55.505 30.5516982,54.866 C30.4196982,54.249 30.5616982,53.644 30.9516982,53.162 C31.3436982,52.678 31.9396982,52.39 32.5486982,52.39 C32.9076982,52.39 33.2546982,52.486 33.5776982,52.677 L39.9636982,56.425 C40.3596982,56.657 40.9016982,56.975 41.2626982,57.535 C41.7816982,58.343 41.6886982,59.229 41.6126982,59.941 C41.5696982,60.365 41.5306982,60.751 41.6126982,61.024 C41.7716982,61.549 42.1276982,61.803 42.4716982,62.048 C43.0006982,62.426 43.5476982,62.817 43.7356982,64.256 L43.7706982,64.517 L44.0216982,64.489 C44.4246982,64.319 44.8506982,64.231 45.2906982,64.225 L45.6086982,64.22 L45.4996982,63.935 L44.3846982,61.67 C44.1636982,61.221 44.1816982,60.698 44.4356982,60.27 C44.7636982,59.718 45.4146982,59.394 46.2696982,59.357 C46.4616982,59.348 46.7506982,59.346 47.0646982,59.346 L48.3166982,59.351 L48.3626982,59.325 C49.0676982,58.931 50.9476982,57.095 51.1476982,56.417 L51.4906982,54.467 C52.0116982,51.45 52.1346982,50.734 52.8516982,50.018 C53.1346982,49.735 53.4696982,49.592 53.8456982,49.592 C54.1456982,49.592 54.4076982,49.678 54.6246982,49.761 L54.8206982,49.838 L54.8876982,49.638 C55.0536982,49.2 55.3956982,48.29 56.7506982,48.261 L56.7526982,48.261 C57.3696982,48.261 57.9176982,48.465 58.3476982,48.837 L58.4856982,48.954 L58.6176982,48.831 C58.8986982,48.568 59.1716982,48.274 59.4536982,47.97 C59.7976982,47.599 60.1526982,47.215 60.5556982,46.857 C61.1426982,46.335 62.5596982,45.349 63.7126982,45.349 L63.8396982,45.353 C64.3016982,45.386 64.6836982,45.592 64.9766982,45.967 C65.4316982,46.549 65.6256982,47.5 65.4696982,48.388 C65.0956982,50.504 63.0386982,51.749 62.2636982,52.218 C62.1596982,52.281 62.0806982,52.329 62.0346982,52.362 L61.9306982,52.435 L61.9526982,52.559 C61.9646982,52.632 61.9976982,52.76 62.0886982,52.957 L62.1466982,53.081 L62.2836982,53.073 C62.3936982,53.066 62.5886982,53.001 62.9306982,52.873 C63.4056982,52.698 64.0556982,52.457 64.7836982,52.457 C65.5636982,52.457 66.2726982,52.726 66.9496982,53.28 C67.4526982,53.692 67.7576982,55.104 67.5546982,56.079 C67.3556982,57.034 66.7246982,57.707 65.7786982,57.974 C63.9996982,58.478 62.9406982,58.583 61.4756982,58.729 C60.8346982,58.792 60.1196982,58.864 59.2326982,58.979 C57.9606982,59.144 56.7636982,59.353 56.0956982,60.078 C55.8886982,60.302 55.7096982,60.598 55.5206982,60.913 C54.6256982,62.395 54.0126982,62.667 53.5186982,62.886 C53.3096982,62.979 53.1116982,63.067 52.9266982,63.229 C52.6586982,63.464 52.5646982,63.996 52.7026982,64.495 C52.9396982,65.359 54.1476982,66.886 54.4926982,67.055 C54.6426982,67.129 54.8416982,67.165 55.0986982,67.165 C55.9846982,67.165 57.3556982,66.724 57.8736982,66.557 C59.3846982,66.074 60.5366982,65.852 61.4706982,65.852 C62.3516982,65.852 62.8466982,66.053 63.2426982,66.216 C63.5056982,66.323 63.7316982,66.415 63.9916982,66.418 C64.3326982,66.418 64.6616982,66.19 65.2076982,65.812 C65.6136982,65.531 66.1716982,65.146 66.9406982,64.713 C66.9596982,64.706 70.5456982,63.13 71.8716982,62.777 C72.4566982,62.635 73.0616982,62.519 73.6696982,62.433 C73.9816982,62.389 74.3246982,62.331 74.4916982,62.243 L74.5766982,62.198 L74.5946982,62.102 C74.6106982,62.015 74.6186982,61.859 74.6236982,61.768 C74.6926982,60.404 74.6506982,59.055 73.8776982,58.434 C73.6386982,58.242 73.3236982,58.112 72.9906982,57.974 C72.0986982,57.606 70.9876982,57.147 70.3876982,55.199 C70.0106982,53.981 70.0746982,52.675 70.5536982,51.873 C70.8076982,51.445 71.2166982,51.236 71.8026982,51.236 C72.3276982,51.236 72.8566982,51.409 73.1416982,51.503 C74.4906982,51.946 76.3906982,52.913 77.7476982,53.646 L78.0446982,53.807 L78.0466982,1.959 L77.8446982,1.96 C76.5626982,1.967 74.4926982,1.976 72.8366982,1.976 C71.6696982,1.976 70.7096982,1.972 70.3836982,1.958 L70.1496982,1.953 C68.7406982,1.953 67.3466982,2.506 66.3246982,3.47 L59.3746982,10.026 C58.9336982,10.444 58.7576982,10.674 58.7446982,10.85 C58.7346982,10.969 58.7846982,11.113 58.8616982,11.33 C59.1016982,12.021 59.5496982,13.306 58.3326982,14.647 C57.3916982,15.683 56.2376982,15.902 55.4346982,15.902 C53.4586982,15.902 51.6286982,14.619 51.4386982,13.102 C51.3126982,12.092 51.6926982,11.6 52.1746982,10.976 C52.4236982,10.654 52.7056982,10.288 52.9266982,9.817 C52.9946982,9.672 52.9966982,9.51 52.9306982,9.361 C52.8636982,9.202 52.7276982,9.079 52.5626982,9.023 C51.8856982,8.799 51.2626982,8.587 50.6866982,8.392 C47.9906982,7.476 46.3626982,6.924 44.9206982,6.924 C44.0456982,6.924 43.2756982,7.127 42.4256982,7.58 C41.1116982,8.28 40.0166982,9.43 39.2616982,10.908 C35.8456982,17.574 34.1916982,18.372 32.5926982,19.145 C32.1546982,19.357 31.7016982,19.576 31.2256982,19.913 C30.5846982,20.399 28.8256982,22.753 28.7616982,23.617 L28.7566982,23.676 L28.7846982,23.728 C28.9636982,24.057 29.3336982,24.281 29.7516982,24.313 C29.8156982,24.318 29.8796982,24.321 29.9436982,24.321 C31.0536982,24.321 31.9836982,23.573 33.0866982,22.594 C33.2706982,22.431 33.4926982,22.345 33.7296982,22.345 C34.0146982,22.345 34.2976982,22.472 34.4856982,22.686 C34.6656982,22.89 34.7436982,23.157 34.7086982,23.436 C34.2746982,26.796 34.5326982,29.351 34.9966982,30.05 L35.1016982,30.208 L35.2656982,30.112 C36.4796982,29.399 38.2636982,25.725 38.3076982,24.543 C38.3226982,24.129 38.0436982,23.863 37.7746982,23.606 C37.3976982,23.247 37.0086982,22.876 37.0816982,22.007 C37.1496982,21.206 37.3566982,20.641 37.6436982,19.859 C37.8396982,19.327 38.0816982,18.664 38.3406982,17.76 C38.8016982,16.142 39.3236982,14.309 41.1176982,13.187 C41.6536982,12.852 42.2686982,12.676 42.8956982,12.676 C43.6856982,12.676 44.4336982,12.957 45.0016982,13.469 C46.0136982,14.381 46.2046982,15.759 45.5216982,17.247 C45.2456982,17.851 44.8876982,18.38 44.5416982,18.891 C44.2056982,19.388 43.8886982,19.858 43.6796982,20.348 C43.3666982,21.079 43.3916982,22.066 43.9266982,22.369 C44.0626982,22.447 44.2186982,22.486 44.3876982,22.486 C44.8466982,22.485 45.3786982,22.199 45.9946982,21.867 C46.7986982,21.435 47.7986982,20.897 48.9306982,20.856 L49.0616982,20.854 C49.9236982,20.854 50.6796982,21.174 51.1366982,21.73 C51.4126982,22.066 51.5406982,22.45 51.4796982,22.757 C51.1386982,24.49 50.7126982,26.648 49.4286982,28.332 C48.3656982,29.726 46.7186982,30.592 45.1276982,30.592 C44.7066982,30.592 44.2966982,30.531 43.9066982,30.41 L43.7626982,30.365 L43.6796982,30.49 C43.6166982,30.587 43.4646982,30.855 43.4346982,31.273 C43.4156982,31.556 43.4296982,31.852 43.4446982,32.164 C43.4716982,32.713 43.4986982,33.281 43.3486982,33.918 C42.9756982,35.503 41.4986982,37.434 36.5746982,37.635 L31.8836982,37.826 L31.7176982,37.83 C30.3836982,37.83 29.6886982,37.128 29.6536982,35.745 C29.6416982,35.292 29.7056982,34.817 29.7656982,34.358 C29.8546982,33.679 29.9316982,33.093 29.7426982,32.721 L29.7086982,32.653 L29.6366982,32.625 C29.4806982,32.565 29.2796982,32.552 29.1386982,32.552 C28.9006982,32.552 28.5746982,32.591 28.3716982,32.698 L28.2776982,32.746 L28.2646982,32.85 C28.2156982,33.244 28.2496982,33.633 28.2816982,34.009 C28.3796982,35.123 28.4716982,36.176 26.4966982,37.466 C24.9386982,38.485 24.5976982,39.182 24.2696982,39.857 C24.0646982,40.277 23.8706982,40.674 23.3546982,41.143 C22.8886982,41.566 22.3426982,41.79 21.9186982,41.937 C21.2336982,42.157 20.3326982,42.269 19.2416982,42.269 C17.7696982,42.269 16.4706982,42.06 16.4576982,42.058 C15.9016982,41.992 15.4456982,41.96 15.0946982,41.96 C14.5946982,41.96 14.2876982,42.024 14.1276982,42.16 C13.4106982,43.109 13.8576982,44.653 14.3756982,46.155 C15.5616982,49.594 14.6196982,51.263 13.6206982,52.057 C13.0036982,52.549 12.2456982,52.798 11.3676982,52.798 C10.1026982,52.798 8.87069817,52.286 8.20769817,52.011 L4.63669817,50.528 C4.55169817,50.492 4.46169817,50.475 4.37169817,50.475 C4.05969817,50.475 3.78669817,50.684 3.70369817,50.984 L2.33669817,55.988 C2.10269817,56.844 1.83769817,57.814 2.00869817,58.639 C2.30769817,60.071 3.91769817,61.014 5.32369817,61.419 C6.00669817,61.615 6.71269817,61.744 7.46069817,61.881 C7.76569817,61.937 8.03269817,61.996 8.26769817,62.047 C8.67269817,62.136 8.99069817,62.205 9.24569817,62.205 C9.63569817,62.205 9.87469817,62.03 9.97769817,61.669 C10.2576982,60.691 10.5746982,59.916 10.9756982,59.229 C12.5336982,56.567 14.6086982,56.39 15.6056982,56.305 C15.8246982,56.287 15.9816982,56.273 16.0956982,56.238 L16.1976982,56.204 L16.2266982,56.098 C16.2506982,56.014 16.2676982,55.909 16.2886982,55.788 C16.3376982,55.494 16.3986982,55.128 16.5966982,54.765 C17.0396982,53.949 17.8466982,53.553 19.0656982,53.553 C19.5016982,53.553 19.9286982,53.602 20.2716982,53.641 C20.5986982,53.678 20.9266982,53.698 21.2526982,53.698 C22.4326982,53.698 23.5876982,53.462 24.6836982,52.997 C25.0196982,52.855 25.3756982,52.782 25.7426982,52.782 M31.2286982,70.736 C30.7786982,70.736 30.3806982,70.648 30.0116982,70.468 C29.3876982,70.164 27.7176982,68.698 27.4406982,67.672 C27.3306982,67.265 27.3986982,66.862 27.6256982,66.565 C27.8146982,66.319 28.0966982,66.177 28.4006982,66.177 L28.5916982,66.186 C29.1606982,66.186 29.7116982,65.761 30.3466982,65.27 C30.4946982,65.157 30.8946982,64.857 30.8946982,64.857 L30.8886982,64.748 C30.8196982,63.588 30.5206982,63.158 29.9756982,62.377 C28.8506982,60.765 28.2636982,59.251 27.7446982,57.915 C27.3146982,56.807 26.9436982,55.85 26.3566982,55.034 C26.2216982,54.845 25.9966982,54.733 25.7536982,54.733 C25.6476982,54.733 25.5446982,54.754 25.4466982,54.796 C24.1066982,55.364 22.6956982,55.651 21.2506982,55.651 C20.8496982,55.651 20.4466982,55.628 20.0516982,55.583 C19.8276982,55.557 19.3806982,55.506 19.0136982,55.506 C18.6766982,55.506 18.4746982,55.547 18.3596982,55.639 C18.2636982,55.798 18.2466982,55.914 18.2216982,56.076 C18.1676982,56.411 18.0876982,56.917 17.7606982,57.357 C17.2266982,58.073 16.5766982,58.15 15.8226982,58.24 C14.8126982,58.359 13.6686982,58.494 12.6616982,60.215 C12.3456982,60.758 12.0886982,61.39 11.8556982,62.205 C11.5246982,63.362 10.4416982,64.169 9.21969817,64.169 C9.00969817,64.169 8.79869817,64.145 8.59269817,64.098 C8.11169817,63.987 7.61669817,63.896 7.11269817,63.804 C6.35069817,63.665 5.56269817,63.521 4.78369817,63.297 C2.25469817,62.57 0.502698168,60.977 0.0966981681,59.038 C-0.171301832,57.754 0.173698168,56.49 0.452698168,55.473 L1.81969817,50.469 C2.13269817,49.322 3.18269817,48.521 4.37169817,48.521 C4.71969817,48.521 5.05869817,48.589 5.38469817,48.724 L8.95469817,50.206 C9.67069817,50.503 10.5916982,50.844 11.3636982,50.844 C11.7926982,50.844 12.1416982,50.738 12.4046982,50.529 C13.3686982,49.762 12.8956982,47.859 12.5296982,46.792 C12.0076982,45.279 11.1326982,42.746 12.6136982,40.917 C13.1996982,40.28 13.9886982,40.005 15.1386982,40.005 C15.6616982,40.005 16.2086982,40.061 16.6756982,40.116 C17.5096982,40.369 18.3486982,40.501 19.1386982,40.501 C20.5236982,40.501 21.2736982,40.097 21.3056982,40.08 C21.5246982,40.006 21.8366982,39.883 22.0396982,39.698 C22.3106982,39.452 22.4516982,39.157 22.6166982,38.815 C22.9556982,38.11 23.4196982,37.144 25.4276982,35.831 L25.5976982,35.72 C26.3856982,35.212 26.4126982,35.145 26.3356982,33.921 C26.2916982,33.237 26.2496982,32.582 26.4776982,32.003 C26.8866982,30.965 28.1486982,30.597 29.1036982,30.597 C29.9196982,30.597 30.6386982,30.838 31.0826982,31.258 C32.0136982,32.141 31.8256982,33.633 31.6886982,34.722 C31.6406982,35.095 31.6006982,35.416 31.6056982,35.677 L31.6096982,35.882 L36.4936982,35.683 C38.1666982,35.615 41.0316982,35.237 41.4466982,33.471 C41.5306982,33.116 41.5116982,32.682 41.4916982,32.222 C41.4766982,31.877 41.4606982,31.509 41.4856982,31.138 C41.6116982,29.318 42.7686982,28.407 43.7906982,28.331 L43.7956982,28.331 C43.9596982,28.331 44.1016982,28.392 44.2536982,28.456 C44.5416982,28.578 44.8256982,28.633 45.1346982,28.633 C46.1416982,28.633 47.1666982,28.077 47.8756982,27.148 C48.7276982,26.028 49.1256982,24.52 49.4276982,23.057 L49.4706982,22.849 L49.2606982,22.818 C49.1836982,22.806 49.1086982,22.801 49.0306982,22.801 C48.3986982,22.801 47.7256982,23.16 47.0126982,23.54 C46.1736982,23.988 45.3046982,24.45 44.3636982,24.45 C43.8756982,24.45 43.4176982,24.325 42.9626982,24.068 C41.3956982,23.179 41.2366982,21.094 41.8816982,19.582 C42.1666982,18.914 42.5516982,18.346 42.9236982,17.798 C43.2376982,17.334 43.5336982,16.897 43.7456982,16.434 C44.2216982,15.399 43.8256982,15.039 43.6946982,14.921 C43.4826982,14.73 43.2006982,14.626 42.8986982,14.626 C42.6386982,14.626 42.3816982,14.701 42.1526982,14.844 C40.9966982,15.567 40.6366982,16.832 40.2186982,18.296 C39.9116982,19.371 39.6656982,20.026 39.4696982,20.553 C39.2556982,21.121 39.1156982,21.497 39.0456982,22.017 L39.0316982,22.121 L39.2036982,22.278 C39.6166982,22.647 40.3086982,23.266 40.2606982,24.616 C40.1996982,26.256 38.4446982,29.978 36.8016982,31.396 C36.2396982,31.881 35.6436982,32.137 35.0776982,32.137 C34.4816982,32.137 33.9306982,31.853 33.5246982,31.337 C32.7936982,30.407 32.4576982,28.507 32.5526982,25.839 L32.5636982,25.488 L32.2566982,25.656 C31.4846982,26.072 30.7306982,26.275 29.9506982,26.275 C29.8366982,26.275 29.7216982,26.27 29.6026982,26.261 C28.4066982,26.17 27.3886982,25.458 26.9426982,24.402 C26.0956982,22.389 29.5856982,18.682 30.0946982,18.32 C30.6596982,17.92 31.1346982,17.69 31.5936982,17.469 C32.9386982,16.816 34.1016982,16.253 36.5886982,11.775 C38.1706982,8.923 40.1396982,5.821 43.4986982,5.115 C43.9666982,5.017 44.4286982,4.97 44.9126982,4.97 C46.6876982,4.97 48.5616982,5.606 51.3986982,6.57 C51.9526982,6.759 52.5426982,6.959 53.1736982,7.169 C53.8686982,7.4 54.4346982,7.92 54.7246982,8.595 C55.0086982,9.255 54.9986982,10.001 54.6976982,10.642 C54.3916982,11.294 53.9926982,11.895 53.5126982,12.426 C53.3756982,12.578 53.3476982,12.781 53.4366982,12.981 C53.6646982,13.491 54.5966982,13.94 55.4326982,13.94 C56.0236982,13.94 56.5266982,13.73 56.8876982,13.334 C57.3296982,12.846 57.1766982,12.417 57.0136982,11.962 C56.8936982,11.621 56.7566982,11.235 56.7966982,10.701 C56.8736982,9.701 57.5996982,9.015 58.0346982,8.605 L64.9846982,2.05 C66.3656982,0.747 68.2516982,-5.68434189e-14 70.1556982,-5.68434189e-14 C70.2586982,-5.68434189e-14 70.3626982,0.002 70.4666982,0.006 C70.7566982,0.018 71.6436982,0.023 72.7816982,0.023 C74.7156982,0.023 77.3706982,0.01 79.0156982,-5.68434189e-14 C79.5746982,0.01 79.9996982,0.429 79.9996982,0.976 L79.9976982,55.478 C79.9976982,55.747 79.8916982,55.997 79.7006982,56.181 C79.5176982,56.357 79.2696982,56.458 79.0206982,56.458 C78.8496982,56.458 78.6856982,56.412 78.5336982,56.324 C76.5296982,55.151 73.6846982,53.69 72.3586982,53.295 L72.1126982,53.221 L72.0996982,53.478 C72.0876982,53.736 72.1046982,54.144 72.2526982,54.624 C72.5896982,55.713 73.1526982,55.939 73.8056982,56.199 C74.1876982,56.353 74.6206982,56.526 75.0996982,56.91 C76.7546982,58.24 76.6346982,60.686 76.5756982,61.863 C76.4966982,63.43 75.7826982,64.107 73.9426982,64.367 C73.4036982,64.444 72.8596982,64.548 72.3266982,64.677 C71.6126982,64.921 68.6506982,66.112 68.0636982,66.348 C67.9586982,66.391 67.8536982,66.442 67.7556982,66.499 C67.2126982,66.812 66.7706982,67.112 66.3796982,67.378 C65.5016982,67.977 64.9206982,68.372 63.9986982,68.372 C63.3266982,68.367 62.9986982,68.227 62.6506982,68.079 C62.3236982,67.939 61.9836982,67.794 61.4026982,67.794 C60.7346982,67.794 59.8276982,67.985 58.5426982,68.395 C57.5916982,68.699 56.2906982,69.115 55.1216982,69.115 C54.5466982,69.115 54.0446982,69.012 53.6306982,68.809 C52.5986982,68.302 51.1476982,66.208 50.8186982,65.016 C50.4756982,63.775 50.7986982,62.497 51.6396982,61.761 C52.0856982,61.37 52.3446982,61.27 52.5736982,61.181 C52.9926982,61.019 53.2586982,60.879 53.8466982,59.904 C54.0706982,59.533 54.3216982,59.12 54.6586982,58.754 C55.8646982,57.448 57.7376982,57.204 58.9766982,57.042 C59.8936982,56.924 60.6206982,56.851 61.2626982,56.787 C62.6896982,56.646 63.6276982,56.553 65.2476982,56.095 C65.4766982,56.031 65.5486982,55.934 65.5916982,55.841 C65.7336982,55.535 65.6466982,55.008 65.5716982,54.744 L65.5516982,54.669 L65.4846982,54.628 C65.2486982,54.482 65.0186982,54.413 64.7636982,54.413 C64.4256982,54.413 64.0706982,54.535 63.6076982,54.707 C63.1796982,54.865 62.7356982,55.028 62.2626982,55.028 C61.4166982,55.016 60.6966982,54.572 60.3556982,53.866 C59.4326982,51.949 60.4606982,51.003 61.1556982,50.61 C62.4996982,49.849 63.3436982,48.966 63.5306982,48.124 C63.5716982,47.938 63.5806982,47.754 63.5576982,47.579 L63.5246982,47.319 L63.2816982,47.42 C62.9236982,47.569 62.3336982,47.893 61.8526982,48.319 C61.5226982,48.612 61.2116982,48.949 60.8876982,49.298 C60.4186982,49.804 59.9326982,50.327 59.3366982,50.779 C59.0916982,50.964 58.8086982,51.074 58.5196982,51.097 C58.4816982,51.1 58.4406982,51.102 58.3956982,51.102 C58.0276982,51.102 57.5036982,50.968 57.0996982,50.327 L57.0436982,50.238 L56.7926982,50.228 L56.7026982,50.363 C56.5876982,50.668 56.3486982,51.302 55.5966982,51.642 C55.3636982,51.747 55.1196982,51.8 54.8686982,51.8 C54.6676982,51.8 54.4636982,51.767 54.2426982,51.699 L54.0566982,51.643 L53.9936982,51.826 C53.8986982,52.1 53.8986982,52.1 53.4666982,54.546 L53.0746982,56.748 C52.9426982,57.489 52.2806982,58.443 51.1066982,59.585 C49.3376982,61.305 48.6716982,61.305 48.4516982,61.305 L46.7016982,61.302 L46.3826982,61.305 L47.3496982,63.271 C47.8296982,63.97 47.8296982,64.782 47.3656982,65.368 C46.8346982,66.035 46.0776982,66.109 45.4696982,66.167 C45.1886982,66.194 44.9456982,66.218 44.7626982,66.298 C44.4416982,66.438 44.0796982,66.512 43.7156982,66.512 C43.2586982,66.512 42.8186982,66.394 42.5676982,66.204 C41.9526982,65.737 41.8616982,65.005 41.7936982,64.471 C41.7676982,64.263 41.7466982,64.098 41.6986982,63.974 L41.3146982,63.612 C40.6796982,63.069 40.0216982,62.508 39.7446982,61.592 C39.5466982,60.938 39.6126982,60.301 39.6726982,59.739 C39.7836982,58.663 39.7436982,58.559 39.0496982,58.154 L32.3716982,54.234 L32.5406982,54.741 C32.6446982,55.055 32.8096982,55.385 33.0086982,55.67 C33.6246982,56.562 34.0146982,57.733 34.3906982,58.865 C34.8826982,60.338 35.3856982,61.845 36.2676982,62.45 C36.9976982,62.946 37.6706982,63.403 38.0856982,64.172 C38.5246982,64.983 38.4816982,65.999 37.9806982,66.699 C37.7136982,67.075 37.2916982,67.291 36.8266982,67.291 C36.7406982,67.291 36.6536982,67.283 36.5686982,67.268 L36.5136982,67.258 L36.4606982,67.279 C36.2656982,67.354 36.0866982,67.437 35.9836982,67.5 L35.9346982,67.529 L35.9086982,67.578 C35.5846982,68.193 34.5956982,70.065 32.3726982,70.585 C31.9386982,70.687 31.5646982,70.736 31.2286982,70.736" id="Fill-1" fill="#000000"></path>
    </g>
</svg>