<svg width="700" height="700" xmlns="http://www.w3.org/2000/svg" version="1.1">

 <g>
  <title>Layer 1</title>
  <g stroke="null" id="svg_25">
   <path stroke="#FFFFFF" id="svg_26" stroke-miterlimit="10" stroke-linejoin="round" stroke-linecap="round" fill="#FFFFFF" d="m591.50379,232.61293l-68.38031,0l0.00597,-124.25958c0,-4.71168 -1.80059,-9.22508 -5.00814,-12.55609c-3.2077,-3.32482 -7.55402,-5.19447 -12.09129,-5.19447l-282.06247,0l0.00595,0c-9.44406,0 -17.09927,7.94346 -17.09927,17.75024l0,124.25958l-68.38031,0l0.00597,0c-9.44406,0 -17.09927,7.94965 -17.09927,17.75024l0,337.2846c0,4.71168 1.80059,9.22508 5.00814,12.55609c3.2077,3.32482 7.55402,5.19447 12.09129,5.19447l453.00942,0l-0.00597,0c4.53727,0 8.88359,-1.86981 12.09129,-5.19447c3.2077,-3.331 5.00814,-7.8444 5.00814,-12.55609l0,-337.2846c0,-4.7055 -1.80059,-9.2189 -5.00814,-12.5499c-3.2077,-3.331 -7.55402,-5.20065 -12.09129,-5.20065l0.00029,0.00063zm-376.08329,-124.25958c0,-4.90362 3.82769,-8.87845 8.54979,-8.87845l282.06247,0l-0.00597,0c2.27161,0 4.44187,0.93489 6.04557,2.60032c1.60385,1.6655 2.50407,3.92537 2.50407,6.27796l0,124.25958l-299.15716,0l0.00124,-124.25942zm384.63064,479.29917c0,2.35275 -0.90028,4.61262 -2.50407,6.27796c-1.60385,1.6655 -3.77411,2.60032 -6.04557,2.60032l-453.00942,0l0.00597,0c-4.7221,0 -8.54979,-3.97482 -8.54979,-8.87845l0,-337.2846c0,-4.89728 3.82769,-8.87227 8.54979,-8.87227l453.00942,0l-0.00597,0c2.27161,0 4.44187,0.93489 6.04557,2.60032c1.60385,1.6655 2.50407,3.91919 2.50407,6.27178l0,337.28492z"/>
   <path stroke="#FFFFFF" id="svg_27" stroke-miterlimit="10" stroke-linejoin="round" stroke-linecap="round" fill="#FFFFFF" d="m471.84092,148.29177l-213.68369,0c-2.36105,0 -4.27489,1.98741 -4.27489,4.43922s1.91384,4.43922 4.27489,4.43922l213.68369,0c2.36105,0 4.27489,-1.98741 4.27489,-4.43922s-1.91384,-4.43922 -4.27489,-4.43922z"/>
   <path stroke="#FFFFFF" id="svg_28" stroke-miterlimit="10" stroke-linejoin="round" stroke-linecap="round" fill="#FFFFFF" d="m471.84092,192.67133l-213.68369,0c-2.36105,0 -4.27489,1.98741 -4.27489,4.43922s1.91384,4.43922 4.27489,4.43922l213.68369,0c2.36105,0 4.27489,-1.98741 4.27489,-4.43922s-1.91384,-4.43922 -4.27489,-4.43922z"/>
   <path stroke="#FFFFFF" id="svg_29" stroke-miterlimit="10" stroke-linejoin="round" stroke-linecap="round" fill="#FFFFFF" d="m520.5608,381.20518l-23.07936,-3.99337c-87.71563,-15.23075 -177.25062,-15.23075 -264.96777,0l-23.07936,3.99337c-11.4771,1.9565 -21.91021,8.09832 -29.42882,17.32388c-7.51831,9.2189 -11.62622,20.9202 -11.59646,32.99937l0,29.64396c0,2.94712 1.12685,5.76411 3.13016,7.85058c2.00328,2.08029 4.7221,3.2443 7.55402,3.2443l83.33969,0c2.83207,0 5.55074,-1.16398 7.55402,-3.2443c2.00328,-2.08647 3.13016,-4.90362 3.13016,-7.85058l0,-13.22479c-0.01192,-1.1454 0.787,-2.1299 1.87813,-2.30314c59.72917,-8.87227 120.36344,-8.87227 180.08956,0c1.06126,0.16717 1.85416,1.10206 1.88408,2.21644l0,13.13809c-0.0477,2.9533 1.04337,5.80754 3.03477,7.92492c1.99138,2.11738 4.71005,3.32482 7.55998,3.34337l83.33969,0c2.83207,0 5.55074,-1.16398 7.55402,-3.2443c2.00328,-2.08647 3.13016,-4.90362 3.13016,-7.85058l0,-29.64396c0.02981,-12.07932 -4.07815,-23.7811 -11.59646,-32.99937c-7.51831,-9.22508 -17.95248,-15.3669 -29.42882,-17.32388l-0.00137,0zm32.48145,79.88003l-0.00597,0c0,0.58817 -0.22657,1.15159 -0.62603,1.56641c-0.39947,0.421 -0.94202,0.6501 -1.50842,0.6501l-83.33969,0c-1.18051,0 -2.13439,-0.99062 -2.13439,-2.21644l0,-13.13809c0.05367,-5.60324 -3.89332,-10.38291 -9.22946,-11.18159c-60.52133,-8.98369 -121.9676,-8.98369 -182.48587,0c-5.27646,0.79249 -9.19954,5.47311 -9.22946,11.00819l0,13.13809l0,-0.0062c0.07155,0.61913 -0.10732,1.24447 -0.50081,1.71495c-0.38755,0.47055 -0.95395,0.75534 -1.55012,0.77392l-83.33969,0c-1.18051,0 -2.13439,-0.99681 -2.13439,-2.22262l0,-29.64396c-0.01787,-10.02994 3.41634,-19.73781 9.68857,-27.37267c6.26627,-7.63392 14.95908,-12.68605 24.49883,-14.25249l23.07936,-3.99337l0,-0.00618c86.75558,-15.04499 175.3122,-15.04499 262.06778,0l22.56652,3.99955c9.53945,1.56641 18.2318,6.61858 24.49883,14.25249c6.27223,7.63392 9.70643,17.34131 9.68857,27.37267l0,29.64396l-0.00417,-0.08671z"/>
  </g>
 </g>
</svg>