
<svg width="60px" height="80px" viewBox="0 0 60 80" version="1.1" xmlns="http://www.w3.org/2000/svg" xmlns:xlink="http://www.w3.org/1999/xlink">
    <g id="Page-1" stroke="none" stroke-width="1" fill="none" fill-rule="evenodd">
        <path d="M54.301428,38.59 C53.479428,38.633 52.860428,39.001 52.358428,39.645 C51.236428,41.083 50.138428,42.544 48.945428,43.92 C48.417428,44.528 47.753428,45.17 47.025428,45.413 C45.956428,45.769 44.780428,45.839 43.643428,45.926 C41.518428,46.089 40.570428,48.201 41.252428,49.51 C41.597428,50.169 42.233428,50.672 42.725428,51.256 C43.083428,51.682 43.558428,52.076 43.736428,52.572 C43.982428,53.26 43.913428,54.058 44.135428,54.759 C44.383428,55.544 44.639428,56.44 45.184428,56.997 C46.880428,58.733 48.730428,60.314 50.489428,61.987 C51.592428,63.036 51.585428,63.081 50.497428,64.101 C49.216428,65.303 47.927428,66.499 46.593428,67.641 C45.741428,68.37 45.499428,68.948 45.780428,70.073 C46.058428,71.188 46.324428,72.304 46.576428,73.424 C46.758428,74.235 46.486428,74.477 45.693428,74.227 C44.947428,73.991 44.218428,73.674 43.456428,73.52 C42.917428,73.41 42.281428,73.365 41.783428,73.55 C40.163428,74.149 38.590428,74.874 36.990428,75.53 C36.693428,75.653 36.339428,75.789 36.043428,75.736 C35.048428,75.557 34.066428,75.305 33.083428,75.063 C31.773428,74.739 30.967428,75.095 30.364428,76.287 C30.153428,76.707 29.940428,77.126 29.697428,77.603 C28.465428,76.953 27.337428,76.301 26.163428,75.752 C23.999428,74.74 22.067428,73.528 19.441428,73.346 C19.399428,73.343 19.357428,73.353 19.289428,73.34 L13.587428,73.303 C13.114428,73.206 12.466428,73.447 12.163428,73.203 C11.865428,72.964 11.907428,72.298 11.799428,71.82 C11.793428,71.796 11.767428,71.775 11.765428,71.751 C11.688428,70.878 11.614428,70.04 12.076428,69.196 C13.109428,67.31 13.963428,65.322 15.056428,63.475 C15.897428,62.054 15.260428,59.87 13.256428,59.372 C11.488428,58.933 9.728428,58.458 7.981428,57.942 C7.503428,57.8 6.911428,57.561 6.671428,57.177 C5.227428,54.868 3.879428,52.498 2.474428,50.164 C2.258428,49.806 2.311428,49.593 2.553428,49.289 C3.227428,48.446 3.869428,47.578 4.509428,46.708 C4.977428,46.072 5.052428,45.387 4.651428,44.687 C4.141428,43.799 3.585428,42.936 3.113428,42.028 C2.953428,41.723 2.874428,41.284 2.956428,40.956 C3.230428,39.871 3.568428,38.801 3.927428,37.74 C4.390428,36.371 4.596428,35.027 3.849428,33.682 C3.704428,33.422 3.655428,33.107 3.568428,32.815 C3.336428,32.045 3.453428,31.869 4.224428,31.716 C5.218428,31.518 6.220428,31.344 7.197428,31.074 C8.482428,30.72 8.706428,30.263 8.911428,28.943 C8.950428,28.688 8.898428,28.42 8.926428,28.162 C9.176428,25.859 9.445428,23.557 9.689428,21.253 C9.908428,19.183 10.096428,17.11 10.329428,15.041 C10.351428,14.858 10.589428,14.58 10.759428,14.553 C11.965428,14.36 13.185428,14.251 14.390428,14.053 C15.531428,13.866 16.720428,13.88 17.755428,13.206 C18.907428,12.457 20.091428,11.757 21.271428,11.053 C22.306428,10.434 22.675428,9.512 22.561428,8.312 C22.394428,6.563 22.325428,4.804 22.262428,3.048 C22.237428,2.365 22.538428,2.195 23.203428,2.44 C23.776428,2.651 24.328428,2.915 24.901428,3.125 C26.074428,3.555 27.033428,4.034 27.167428,5.583 C27.263428,6.686 28.403428,7.117 29.522428,6.937 C30.771428,6.736 32.038428,6.658 33.434428,6.513 C33.160428,6.997 32.960428,7.347 32.764428,7.699 C32.554428,8.079 32.303428,8.444 32.148428,8.846 C31.744428,9.887 32.451428,11.193 33.469428,11.239 C35.582428,11.338 37.609428,11.169 39.509428,9.974 C41.354428,8.815 43.353428,7.903 45.270428,6.891 C45.547428,7.153 45.768428,7.373 45.999428,7.579 C46.250428,7.802 46.520428,8.004 46.767428,8.231 L50.854428,12.038 C51.305428,12.466 51.704428,12.954 52.181428,13.35 C52.567428,13.67 52.659428,14.03 52.645428,14.502 C52.577428,16.685 52.485428,18.869 52.517428,21.051 C52.525428,21.631 52.831428,22.299 53.202428,22.763 C53.896428,23.63 54.745428,24.368 55.510428,25.181 C55.674428,25.355 55.862428,25.617 55.851428,25.829 C55.771428,27.38 55.616428,28.926 55.540428,30.477 C55.505428,31.181 55.477428,31.922 55.655428,32.59 C55.918428,33.571 56.374428,34.5 56.737428,35.456 C57.102428,36.416 57.453428,37.381 57.816428,38.357 C56.550428,38.443 55.426428,38.53 54.301428,38.59 M59.918428,37.93 C59.509428,36.406 58.842428,34.955 58.320428,33.461 C58.045428,32.673 57.751428,31.874 57.629428,31.056 C57.537428,30.436 57.708428,29.777 57.753428,29.136 C57.815428,28.261 57.762428,27.361 57.952428,26.515 C58.223428,25.311 57.849428,24.398 57.041428,23.579 C56.367428,22.897 55.680428,22.228 55.019428,21.532 C54.855428,21.36 54.671428,21.109 54.671428,20.894 C54.669428,19.698 54.729428,18.504 54.753428,17.309 C54.779428,16.034 54.937428,14.738 54.764428,13.49 C54.565428,12.051 53.228428,11.376 52.260428,10.475 L48.256428,6.718 C47.780428,6.241 47.300428,5.768 46.811428,5.305 C46.068428,4.605 45.147428,4.467 44.269428,4.93 C42.146428,6.048 39.999428,7.126 37.916428,8.318 C36.859428,8.923 35.767428,9.051 34.466428,9.067 C34.904428,8.354 35.303428,7.737 35.668428,7.102 C36.419428,5.793 35.550428,4.211 34.067428,4.232 C33.331428,4.241 32.599428,4.387 31.865428,4.463 C30.959428,4.556 30.053428,4.641 29.079428,4.736 C29.098428,3.01 28.315428,2.051 26.814428,1.555 C25.474428,1.112 24.183428,0.525 22.870428,0 L22.715428,0 C22.660428,0.048 22.612428,0.128 22.550428,0.138 C20.940428,0.412 20.061428,1.413 20.085428,3.027 C20.109428,4.504 20.184428,5.981 20.234428,7.457 C20.240428,7.665 20.167428,7.905 20.247428,8.076 C20.652428,8.94 20.040428,9.21 19.484428,9.601 C17.373428,11.085 15.113428,12.066 12.479428,12.054 C11.699428,12.05 10.905428,12.213 10.143428,12.404 C8.738428,12.756 8.074428,13.96 7.973428,15.903 C7.879428,17.699 7.691428,19.492 7.511428,21.283 C7.273428,23.66 6.984428,26.033 6.763428,28.412 C6.722428,28.851 6.542428,28.986 6.185428,29.063 C5.216428,29.267 4.245428,29.46 3.284428,29.694 C2.170428,29.964 1.339428,30.899 1.338428,32.053 C1.337428,32.741 1.525428,33.456 1.757428,34.112 C2.106428,35.096 2.272428,36.011 1.832428,37.036 C1.454428,37.918 1.361428,38.924 0.988428002,39.811 C0.390428002,41.236 0.626428002,42.482 1.502428,43.68 C1.744428,44.011 1.928428,44.386 2.175428,44.712 C2.636428,45.324 2.554428,45.833 2.048428,46.399 C1.467428,47.047 0.962428002,47.766 0.447428002,48.471 C-0.0975719979,49.218 -0.155571998,49.994 0.333428002,50.814 C1.909428,53.452 3.450428,56.114 5.062428,58.732 C5.318428,59.147 5.821428,59.526 6.286428,59.67 C8.319428,60.301 10.377428,60.847 12.431428,61.408 C13.353428,61.66 13.449428,61.822 13.013428,62.671 C11.945428,64.746 10.854428,66.811 9.794428,68.893 C9.602428,69.272 9.396428,69.713 9.408428,70.118 C9.442428,71.194 9.515428,72.283 9.726428,73.335 C9.843428,73.923 10.175428,74.528 10.573428,74.981 C11.077428,75.554 13.354428,75.425 14.236428,75.38 L18.818428,75.463 C19.294428,75.534 19.731428,75.546 20.179428,75.632 C20.793428,75.749 21.447428,75.81 21.997428,76.076 C24.630428,77.35 27.234428,78.686 29.847428,80 L30.002428,80 C30.725428,79.783 31.310428,79.403 31.663428,78.695 C31.919428,78.182 32.121428,77.444 32.540428,77.266 C32.977428,77.08 33.645428,77.444 34.211428,77.57 C34.236428,77.575 34.255428,77.602 34.280428,77.606 C35.322428,77.739 36.339428,78.239 37.424428,77.75 C38.768428,77.146 40.141428,76.608 41.484428,75.999 C42.241428,75.655 42.947428,75.508 43.748428,75.904 C44.308428,76.182 44.937428,76.324 45.542428,76.499 C47.036428,76.931 48.850428,75.627 48.730428,74.069 C48.625428,72.704 48.288428,71.351 47.964428,70.015 C47.845428,69.52 47.983428,69.284 48.314428,68.987 C49.872428,67.59 51.431428,66.193 52.946428,64.748 C53.803428,63.931 53.863428,62.272 53.032428,61.437 C51.591428,59.986 50.034428,58.652 48.602428,57.194 C47.669428,56.243 46.230428,55.657 46.166428,54.009 C46.151428,53.604 46.035428,53.202 45.971428,52.799 C45.780428,51.609 45.463428,50.513 44.339428,49.812 C43.865428,49.515 43.508428,49.029 43.030428,48.564 C43.364428,48.361 43.543428,48.177 43.746428,48.143 C44.549428,48.007 45.362428,47.939 46.165428,47.807 C47.236428,47.631 48.290428,47.498 49.190428,46.71 C50.988428,45.132 52.473428,43.294 53.823428,41.339 C54.114428,40.918 54.392428,40.773 54.879428,40.768 C55.905428,40.759 56.932428,40.7 57.954428,40.618 C59.211428,40.518 60.311428,39.391 59.918428,37.93" id="Fill-1" fill="#000000"></path>
    </g>
</svg>