<svg xmlns="http://www.w3.org/2000/svg" width="700" height="700" version="1.1" style=""><rect id="backgroundrect" width="100%" height="100%" x="0" y="0" fill="none" stroke="none"/>
 <g style="" class="currentLayer">
  <title>Layer 1</title>
  
   
   
   
   
   
   
   
   
   
   
   
  
 <image id="svg_1" x="63.8421049118042" y="374.81578826904297" width="0" height="0" xmlns:xlink="http://www.w3.org/1999/xlink" xlink:href="logo/vector_paint_icon256.png" style="color: rgb(3, 112, 0);" class=""/><path d="m102.65662023841858,481.7807585694885 l-29.03176,0 c-4.02775,0 -7.28343,-3.24153 -7.28343,-7.2405100000000004 l0,-125.62314 c0,-3.99381 3.25567,-7.2405100000000004 7.28343,-7.2405100000000004 l29.03176,0 c4.02775,0 7.28343,3.24153 7.28343,7.2405100000000004 l0,125.62314 c-0.00508000000000001,3.99898 -3.26074,7.2405100000000004 -7.28343,7.2405100000000004 zm-21.75302,-14.47559 l14.47037,0 l0,-111.14626 l-14.47037,0 l0,111.14626 z" id="svg_23" stroke="#037000" stroke-opacity="1" fill="#FFFFFF" fill-opacity="1" class=""/><path d="m361.4694502384186,555.4835985694885 c-7.58807,0 -14.96317,-0.91895 -22.06898,-2.88814 c-106.43637,-29.43589 -238.21702,-83.40623 -239.53026,-83.95169 c-3.72298,-1.5248599999999999 -5.48545,-5.76102 -3.94649,-9.45198 c1.53389,-3.70104 5.80531,-5.4278 9.50801,-3.92323 c1.31038,0.54531 132.29945,54.17714 237.86596,83.38684 c95.34402,26.37119 255.19816,-168.69445 275.24786,-193.77047 c-0.99042,-3.35773 -2.73258,-5.82669 -5.2873,-7.50807 c-6.56218,-4.32212 -17.55324,-2.85776 -20.88966,-1.99949 c-2.73258,0.6866800000000016 -5.61236,-0.23226000000000024 -7.42047,-2.3883 c-1.79797,-2.15098 -2.1840100000000002,-5.14511 -0.99549,-7.68477 c1.5999500000000002,-3.48893 2.92047,-9.70442 1.09199,-11.7392 c-0.45711,-0.4998700000000008 -5.02322,-4.69568 -26.91367,2.43871 c-27.99027,9.12884 -40.23073,25.99247 -50.06445,39.54515 c-7.6186300000000005,10.48204 -14.80584,20.38397 -27.0515,22.55421 c-4.00227,0.722020000000001 -7.74046,-1.9187 -8.44649,-5.85693 c-0.7059900000000011,-3.93836 1.93008,-7.6948500000000015 5.89165,-8.39672 c6.15079,-1.09061 10.54924,-6.79108 17.79769,-16.77767 c10.48319,-14.44586 24.85149,-34.22748 57.3432,-44.82663 c21.26153,-6.92745 35.11689,-6.37707 42.34883,1.7166700000000001 c4.24606,4.7563 4.9318100000000005,10.76977 4.38324,15.96981 c6.2929,-0.08079000000000024 14.25193,0.96438 20.96117,5.37739 c6.67894,4.38766 10.91994,11.41606 12.28116,20.31287 c0.2996700000000003,1.9539900000000001 -0.21840000000000037,3.9434 -1.43234,5.51362 c-6.9126,8.86127 -160.28062,204.34377 -270.67102,204.34377 l-0.0026300000000000078,0.00427 l-0.000010000000000000043,-0.00002000000000000009 z" id="svg_24" stroke="#037000" stroke-opacity="1" fill="#FFFFFF" fill-opacity="1" class=""/><path d="m500.2310902384186,433.6709785694885 c-1.7523300000000002,0 -3.5146800000000002,-0.6311400000000013 -4.92167,-1.9035799999999998 c-2.96104,-2.70123 -3.16934,-7.2758 -0.45204,-10.2296 l90.33679,-98.06407 c2.72244,-2.94359 7.31892,-3.1506600000000002 10.29023,-0.449380000000001 c2.96104,2.70123 3.16934,7.2758 0.45204,10.2296 l-90.34069,98.06407 c-1.43234,1.56518 -3.39792,2.35288 -5.36349,2.35288 l-0.0011700000000000024,0.00008000000000000029 z" id="svg_25" stroke="#037000" stroke-opacity="1" fill="#FFFFFF" fill-opacity="1" class=""/><path d="m288.9160402384186,455.52848856948845 c-3.01695,0 -5.84094,-1.8832900000000001 -6.88217,-4.87238 c-1.31545,-3.77679 0.7059900000000011,-7.9019200000000005 4.5,-9.20962 c4.70323,-1.6207600000000002 115.73699,-39.55937 163.29718,-31.20414 c11.73259,2.0499 20.91046,-0.06564000000000014 25.80717,-5.9933 c4.13437,-5.02891 4.8809700000000005,-12.43603 1.97572,-19.79714 c-4.60675,-11.68375 -16.84201,-19.96905 -32.73485,-22.16514 c-19.19935,-2.65586 -43.37472,1.39857 -66.76474,5.32181 c-40.0539,6.7102900000000005 -81.47306,13.65739 -98.4724,-15.01072 c-21.55018,-36.32792 -132.92356,2.64074 -174.03716,20.71616 c-3.67214,1.61572 -7.9791799999999995,-0.03534 -9.59434,-3.69096 c-1.63037,-3.6555400000000002 0.030480000000000066,-7.93217 3.70777,-9.54789 c16.33882,-7.18997 160.52766,-68.68375 192.48757,-14.82976 c11.9206,20.09572 46.68123,14.25844 83.51443,8.08366 c24.45622,-4.10497 49.72899,-8.34618 71.18295,-5.38747 c21.17961,2.9234299999999998 37.73687,14.59192 44.29399,31.21836 c4.85055,12.31479 3.25567,25.11997 -4.27662,34.25334 c-4.8404,5.88731 -16.45584,15.13739 -39.59622,11.08283 c-43.79209,-7.67469 -154.88462,30.24376 -156.00283,30.6186 c-0.80757,0.28275 -1.6050200000000001,0.41403 -2.39738,0.41403 l-0.008060000000000006,-0.00027000000000000103 l-0.000010000000000000043,0 z" id="svg_29" stroke="#037000" stroke-opacity="1" fill="#FFFFFF" fill-opacity="1" class=""/><path d="m380.19291023841856,310.5140785694885 c-51.61824,0 -93.6017,-41.74641 -93.6017,-93.05016 c0,-51.30374 41.99386,-93.05016 93.6017,-93.05016 c51.60394,0.005050000000000002 93.5913,41.74641 93.5913,93.05016 c0,51.30891 -41.98866,93.05016 -93.5913,93.05016 zm0,-171.61567 c-43.57885,0 -79.04031,35.2525 -79.04031,78.57457 c0,43.32207 35.46145,78.57457 79.04031,78.57457 c43.57885,-0.005050000000000002 79.0299,-35.24862 79.0299,-78.57974 c0,-43.32207 -35.45235,-78.5694 -79.0299,-78.5694 z" id="svg_30" stroke="#037000" stroke-opacity="1" fill="#FFFFFF" fill-opacity="1" class=""/></g>
</svg>