
<svg width="80px" height="73px" viewBox="0 0 80 73" version="1.1" xmlns="http://www.w3.org/2000/svg" xmlns:xlink="http://www.w3.org/1999/xlink">
    <g id="Page-1" stroke="none" stroke-width="1" fill="none" fill-rule="evenodd">
        <g id="Group-4" fill="#000000">
            <path d="M77.779,53.449 C77.578,53.92 77.201,54.353 76.69,54.704 L57.781,67.65 C54.597,69.831 50.876,70.984 47.022,70.984 L29.157,70.984 C28.1,70.984 27.059,70.8 26.065,70.436 L12.358,65.43 L12.358,43.94 C13.645,43.547 16.702,42.831 19.515,43.812 C20.478,44.148 21.885,44.959 23.375,45.817 C25.677,47.144 28.059,48.516 29.818,48.752 C31.688,49.002 37.753,49.751 42.093,50.286 L46.227,50.799 C47.314,50.935 49.821,51.584 49.626,54.651 C49.441,57.559 45.961,57.766 45.302,57.774 L36.896,57.774 C36.341,57.774 35.891,58.226 35.891,58.782 C35.891,59.339 36.341,59.79 36.896,59.79 L45.154,59.79 C45.197,59.791 45.241,59.791 45.286,59.791 C45.297,59.791 45.309,59.791 45.32,59.79 L49.074,59.79 C50.66,59.79 52.197,59.457 53.64,58.8 L73.258,49.869 C73.942,49.557 74.638,49.423 75.277,49.478 C76.299,49.567 77.035,50.026 77.528,50.881 C78.041,51.772 78.126,52.636 77.779,53.449 L77.779,53.449 Z M10.348,68.723 C10.348,69.279 9.898,69.731 9.343,69.731 L3.014,69.731 C2.461,69.731 2.009,69.279 2.009,68.723 L2.009,40.83 C2.009,40.274 2.461,39.822 3.014,39.822 L9.343,39.822 C9.898,39.822 10.348,40.274 10.348,40.83 L10.348,68.723 Z M79.268,49.872 C78.446,48.446 77.125,47.615 75.449,47.47 C74.466,47.38 73.424,47.579 72.427,48.033 L52.81,56.964 C52.077,57.298 51.312,57.517 50.529,57.644 C51.133,56.925 51.554,55.99 51.632,54.779 C51.836,51.564 49.812,49.217 46.476,48.798 L42.339,48.285 C38.005,47.75 31.95,47.003 30.084,46.753 C28.717,46.57 26.41,45.241 24.375,44.069 C22.802,43.162 21.316,42.306 20.175,41.907 C17.185,40.864 14.088,41.381 12.358,41.84 L12.358,40.83 C12.358,39.162 11.006,37.806 9.343,37.806 L3.014,37.806 C1.352,37.806 0,39.162 0,40.83 L0,68.723 C0,70.391 1.352,71.747 3.014,71.747 L9.343,71.747 C11.006,71.747 12.358,70.391 12.358,68.723 L12.358,67.576 L25.378,72.331 C26.593,72.775 27.864,73 29.157,73 L47.022,73 C51.282,73 55.395,71.726 58.914,69.316 L77.822,56.37 C78.651,55.802 79.275,55.067 79.626,54.242 C80.045,53.259 80.323,51.703 79.268,49.872 L79.268,49.872 Z" id="Fill-1"></path>
            <path d="M22.9934,17.616 C23.0034,17.497 23.0064,17.379 23.0194,17.261 C23.2584,15.008 23.9334,12.884 24.9634,10.978 C24.9844,10.939 25.0084,10.902 25.0294,10.863 C25.2694,10.428 25.5254,10.003 25.8004,9.593 C25.8424,9.529 25.8904,9.467 25.9344,9.404 C27.1054,7.704 28.5754,6.229 30.2674,5.052 C30.3374,5.004 30.4044,4.951 30.4734,4.904 C30.8764,4.633 31.2934,4.381 31.7194,4.144 C31.7644,4.119 31.8084,4.09 31.8544,4.065 C32.3214,3.812 32.8004,3.579 33.2914,3.369 L33.3164,3.358 C34.8154,2.721 36.4244,2.298 38.1044,2.117 C38.2334,2.104 38.3634,2.1 38.4924,2.089 C38.9044,2.054 39.3204,2.03 39.7404,2.026 C39.9194,2.024 40.0984,2.03 40.2784,2.034 C40.6424,2.041 41.0044,2.059 41.3634,2.089 C41.5744,2.107 41.7844,2.13 41.9934,2.156 C42.3164,2.195 42.6364,2.245 42.9534,2.303 C43.1754,2.343 43.3964,2.384 43.6164,2.432 C43.9274,2.502 44.2344,2.585 44.5384,2.671 C44.7454,2.73 44.9534,2.785 45.1584,2.851 C45.4964,2.962 45.8274,3.088 46.1564,3.219 C46.3154,3.282 46.4764,3.338 46.6344,3.405 C47.0554,3.588 47.4664,3.789 47.8694,4.003 C47.9284,4.034 47.9894,4.06 48.0474,4.092 C50.9224,5.667 53.2964,8.05 54.8654,10.934 C54.8924,10.985 54.9144,11.037 54.9414,11.088 C55.1604,11.501 55.3654,11.923 55.5504,12.355 C55.6144,12.504 55.6664,12.657 55.7264,12.807 C55.8604,13.146 55.9904,13.488 56.1024,13.837 C56.1664,14.035 56.2194,14.235 56.2754,14.434 C56.3644,14.749 56.4494,15.066 56.5194,15.388 C56.5664,15.6 56.6054,15.814 56.6444,16.028 C56.7034,16.356 56.7554,16.685 56.7954,17.019 C56.8204,17.221 56.8414,17.424 56.8594,17.627 C56.8904,17.996 56.9084,18.369 56.9154,18.745 C56.9194,18.917 56.9254,19.087 56.9234,19.259 C56.9194,19.692 56.8944,20.121 56.8584,20.547 C56.8484,20.665 56.8454,20.783 56.8324,20.902 C56.5934,23.155 55.9174,25.279 54.8884,27.185 C54.8674,27.223 54.8434,27.261 54.8224,27.299 C54.5824,27.734 54.3264,28.159 54.0514,28.57 C54.0094,28.634 53.9614,28.696 53.9174,28.759 C52.7424,30.465 51.2664,31.945 49.5664,33.124 C49.5054,33.166 49.4454,33.213 49.3834,33.255 C48.9704,33.533 48.5434,33.793 48.1054,34.035 C48.0714,34.053 48.0384,34.075 48.0044,34.094 C46.1024,35.128 43.9834,35.807 41.7354,36.047 C41.6244,36.058 41.5144,36.062 41.4044,36.071 C40.9724,36.109 40.5374,36.133 40.0974,36.137 C39.9314,36.139 39.7664,36.133 39.6014,36.13 C39.2214,36.123 38.8444,36.104 38.4704,36.073 C38.2724,36.055 38.0754,36.034 37.8774,36.01 C37.5404,35.97 37.2074,35.917 36.8764,35.856 C36.6664,35.818 36.4574,35.78 36.2494,35.734 C35.9244,35.661 35.6054,35.575 35.2874,35.485 C35.0924,35.429 34.8964,35.377 34.7034,35.315 C34.3504,35.2 34.0064,35.069 33.6644,34.933 C33.5184,34.875 33.3694,34.823 33.2244,34.761 C32.7884,34.573 32.3634,34.365 31.9474,34.142 C31.9014,34.118 31.8544,34.098 31.8084,34.073 C28.9324,32.498 26.5564,30.115 24.9864,27.228 C24.9594,27.178 24.9374,27.125 24.9104,27.074 C24.6914,26.661 24.4864,26.24 24.3014,25.807 C24.2374,25.658 24.1844,25.506 24.1254,25.355 C23.9914,25.015 23.8614,24.674 23.7494,24.325 C23.6854,24.128 23.6334,23.928 23.5764,23.728 C23.4874,23.413 23.4034,23.096 23.3314,22.775 C23.2854,22.562 23.2454,22.348 23.2074,22.134 C23.1474,21.807 23.0964,21.477 23.0554,21.143 C23.0314,20.941 23.0104,20.739 22.9934,20.536 C22.9614,20.166 22.9434,19.793 22.9364,19.417 C22.9324,19.246 22.9264,19.075 22.9284,18.904 C22.9324,18.47 22.9564,18.041 22.9934,17.616 M20.9914,20.693 C21.0114,20.931 21.0364,21.167 21.0654,21.403 C21.1094,21.762 21.1644,22.12 21.2284,22.477 C21.2744,22.727 21.3194,22.976 21.3744,23.222 C21.4514,23.57 21.5434,23.912 21.6394,24.256 C21.7054,24.489 21.7664,24.723 21.8404,24.953 C21.9624,25.33 22.1034,25.7 22.2494,26.071 C22.3194,26.25 22.3824,26.432 22.4574,26.608 C22.6584,27.075 22.8824,27.533 23.1204,27.986 C23.1564,28.055 23.1874,28.127 23.2244,28.195 C24.0774,29.77 25.1604,31.249 26.4794,32.574 C27.3414,33.438 28.2724,34.194 29.2474,34.859 C29.2674,34.873 29.2864,34.889 29.3064,34.903 C29.7194,35.182 30.1454,35.433 30.5754,35.677 C30.6894,35.742 30.7984,35.815 30.9134,35.878 C31.2874,36.08 31.6724,36.256 32.0564,36.431 C32.2434,36.517 32.4254,36.612 32.6154,36.692 C32.9554,36.834 33.3044,36.951 33.6514,37.073 C33.8954,37.159 34.1354,37.255 34.3844,37.331 C34.7164,37.432 35.0544,37.509 35.3904,37.591 C35.6594,37.658 35.9224,37.735 36.1944,37.789 C36.5954,37.869 37.0004,37.921 37.4044,37.975 C37.6154,38.003 37.8204,38.045 38.0334,38.066 C38.6664,38.13 39.3034,38.166 39.9394,38.166 C40.5444,38.165 41.1484,38.128 41.7524,38.07 C41.8834,38.057 42.0114,38.037 42.1414,38.022 C42.6064,37.968 43.0684,37.898 43.5294,37.809 C43.6834,37.779 43.8374,37.747 43.9904,37.713 C44.4424,37.614 44.8894,37.497 45.3354,37.365 C45.4554,37.329 45.5774,37.297 45.6974,37.258 C46.2394,37.085 46.7764,36.89 47.3054,36.667 C47.3114,36.664 47.3174,36.662 47.3244,36.659 C48.8504,36.012 50.3164,35.161 51.6734,34.089 C51.7044,34.064 51.7204,34.028 51.7474,34 C52.8784,33.096 53.9024,32.068 54.8024,30.933 C54.8264,30.908 54.8594,30.897 54.8824,30.869 C55.1234,30.561 55.3364,30.239 55.5564,29.921 C55.6114,29.842 55.6704,29.765 55.7244,29.685 C56.0274,29.233 56.3054,28.77 56.5644,28.299 C56.5954,28.243 56.6294,28.191 56.6604,28.135 C56.9404,27.613 57.1964,27.083 57.4254,26.543 C57.4324,26.527 57.4404,26.511 57.4484,26.493 C58.1754,24.765 58.6334,22.957 58.8284,21.128 C58.8444,20.98 58.8484,20.83 58.8614,20.681 C58.8994,20.218 58.9264,19.756 58.9314,19.292 C58.9314,19.221 58.9414,19.152 58.9414,19.081 C58.9414,18.947 58.9244,18.817 58.9214,18.683 C58.9124,18.278 58.8944,17.874 58.8604,17.47 C58.8404,17.231 58.8154,16.995 58.7864,16.76 C58.7424,16.4 58.6874,16.043 58.6224,15.686 C58.5774,15.436 58.5324,15.186 58.4774,14.94 C58.4004,14.593 58.3084,14.25 58.2124,13.907 C58.1464,13.674 58.0854,13.439 58.0114,13.209 C57.8894,12.832 57.7474,12.462 57.6024,12.092 C57.5324,11.913 57.4694,11.73 57.3934,11.554 C57.1944,11.087 56.9694,10.629 56.7314,10.177 C56.6954,10.108 56.6644,10.035 56.6274,9.967 C55.7734,8.392 54.6924,6.913 53.3714,5.589 C52.0514,4.264 50.5774,3.178 49.0074,2.322 C48.9414,2.285 48.8724,2.256 48.8054,2.22 C48.3524,1.98 47.8934,1.754 47.4264,1.553 C47.2524,1.477 47.0724,1.415 46.8964,1.345 C46.5254,1.199 46.1544,1.056 45.7764,0.933 C45.5494,0.859 45.3174,0.799 45.0874,0.733 C44.7434,0.636 44.3984,0.543 44.0504,0.465 C43.8064,0.41 43.5604,0.366 43.3134,0.321 C42.9554,0.256 42.5974,0.199 42.2374,0.155 C42.0034,0.127 41.7704,0.101 41.5344,0.081 C41.1304,0.047 40.7244,0.029 40.3194,0.02 C40.1864,0.017 40.0584,7.10542736e-15 39.9264,7.10542736e-15 C39.8554,7.10542736e-15 39.7874,0.01 39.7174,0.011 C39.2534,0.015 38.7904,0.042 38.3264,0.081 C38.1814,0.094 38.0324,0.098 37.8874,0.114 C36.0644,0.309 34.2634,0.769 32.5404,1.498 C32.5204,1.507 32.5004,1.517 32.4804,1.526 C31.9474,1.754 31.4224,2.009 30.9064,2.288 C30.8464,2.321 30.7884,2.358 30.7294,2.392 C30.2644,2.65 29.8084,2.926 29.3614,3.226 C29.2764,3.283 29.1964,3.346 29.1114,3.405 C28.7984,3.623 28.4814,3.835 28.1784,4.074 C28.1474,4.099 28.1324,4.134 28.1044,4.161 C26.9774,5.063 25.9554,6.088 25.0574,7.219 C25.0304,7.246 24.9944,7.262 24.9704,7.294 C24.7284,7.602 24.5144,7.923 24.2944,8.242 C24.2404,8.321 24.1804,8.397 24.1274,8.477 C23.8244,8.93 23.5464,9.393 23.2864,9.864 C23.2564,9.919 23.2224,9.972 23.1924,10.028 C22.9104,10.549 22.6554,11.08 22.4264,11.619 C22.4194,11.636 22.4104,11.652 22.4034,11.669 C21.6774,13.397 21.2184,15.205 21.0234,17.034 C21.0074,17.182 21.0034,17.333 20.9904,17.482 C20.9524,17.944 20.9254,18.407 20.9204,18.87 C20.9194,18.941 20.9104,19.01 20.9104,19.081 C20.9104,19.216 20.9274,19.345 20.9304,19.479 C20.9384,19.885 20.9564,20.289 20.9914,20.693" id="Fill-3"></path>
        </g>
    </g>
</svg>