<?xml version="1.0" encoding="UTF-8"?>
<svg width="700pt" height="700pt" version="1.1" viewBox="0 0 700 700" xmlns="http://www.w3.org/2000/svg" xmlns:xlink="http://www.w3.org/1999/xlink">
    <path d="m84.777 361.96-76.223-36.555-8.5547 17.891 94.891 45.109 19.445-41.223 66.109 31.109c1.5547 3.1094 3.8906 6.2227 6.2227 8.5547 7.7773 7 17.109 10.109 27.223 9.332 0.77734 8.5547 3.8906 17.109 10.109 24.109 7 7 15.555 10.109 24.891 10.109 2.332 0 4.668 0 7-0.77734 0.77734 7.7773 4.668 15.555 10.109 21 7 7 15.555 10.109 24.891 10.109 3.8906 0 8.5547-0.77734 11.668-2.332 1.5547 4.668 3.8906 8.5547 7.7773 12.445 7.7773 5.4453 14.777 8.5547 23.332 8.5547 8.5547 0 15.555-3.1094 21.777-8.5547l24.109-24.109 6.2227 6.2227c6.2227 6.2227 13.223 8.5547 21.777 8.5547 8.5547 0 15.555-3.1094 21.777-8.5547 3.1094-3.1094 6.2227-7.7773 7.7773-12.445 3.8906 1.5547 8.5547 2.332 12.445 2.332 9.332 0 18.668-3.8906 24.891-10.109 5.4453-5.4453 9.332-13.223 10.109-21 11.668 2.332 24.109-0.77734 32.668-10.109 7-7 10.109-15.555 10.109-24.891l64.555-30.332 17.109 37.332 89.445-41.223-8.5547-17.891-70.777 32.668-80.891-175.78 70.777-33.445-8.5547-17.891-89.445 41.223 17.109 37.332-19.445 8.5547-59.109-45.891c-2.332-1.5547-4.668-2.332-7-2.332l-90.223 7.7773v-0.77734l-13.223 2.332-90.223 14.777c-1.5547 0-2.332 0.77734-3.8906 1.5547l-40.445 26.445-29.555-14 14.777-33.445-94.891-45.109-8.5547 17.891 76.223 36.555zm332.11 78.559c-2.332 2.332-4.668 3.1094-7.7773 3.1094s-5.4453-0.77734-7.7773-3.1094l-7.7773-7.7773c2.332-4.668 3.1094-9.332 3.1094-14 0-7.7773-2.332-14-7-19.445l26.445 26.445c2.332 2.332 3.1094 4.668 3.1094 7.7773 0.77734 3.1094-0.77734 5.4414-2.332 7m-74.668 17.109c-2.332 2.332-4.668 3.1094-7.7773 3.1094-2.332 0-5.4453-0.77734-7.7773-3.1094s-3.1094-4.668-3.1094-7.7773 0.77734-4.668 2.332-7l31.109-31.109c0.77734-0.77734 0.77734-0.77734 1.5547-1.5547 2.332-2.332 4.668-3.1094 7.7773-3.1094s5.4453 0.77734 7.7773 3.1094c2.332 2.332 3.1094 4.668 3.1094 7.7773 0 3.1094-0.77734 5.4453-3.1094 7.7773zm-59.891-20.223c-3.1094-3.1094-4.668-7-4.668-10.891s1.5547-7.7773 4.668-10.891l38.891-38.891c3.1094-3.1094 7-4.668 10.891-4.668s7.7773 1.5547 10.891 4.668c3.1094 3.1094 4.668 7 4.668 10.891s-1.5547 7.7773-3.8906 10.109l-31.109 31.109c-0.77734 0.77734-0.77734 0.77734-0.77734 1.5547l-7.7773 7.7773c-3.1094 3.1094-7 4.668-10.891 4.668-3.8945 0.007812-7.7812-2.3242-10.895-5.4375m-42-31.109c-3.1094-3.1094-4.668-7-4.668-10.891s1.5547-7.7773 4.668-10.891l38.891-38.891c3.1094-3.1094 7-4.668 10.891-4.668s7.7773 1.5547 10.891 4.668c6.2227 6.2227 6.2227 15.555 0 22.555l-38.891 38.891c-3.1094 3.1094-7 4.668-10.891 4.668-3.8906-0.77734-7.7773-2.332-10.891-5.4414m-38.887-34.223c-3.1094-3.1094-4.668-7-4.668-10.891 0-3.8906 1.5547-7.7773 4.668-10.891l12.445-12.445c3.1094-3.1094 7-4.668 10.891-4.668s7.7773 1.5547 10.891 4.668c6.2227 6.2227 6.2227 15.555 0 22.555l-12.445 12.445c-3.1094 3.1094-7 4.668-10.891 4.668-3.8906-0.77734-7.7812-2.332-10.891-5.4414m304.11 16.332c-5.4453 6.2227-14.777 7.7773-21.777 2.332l-45.891-45.109c-3.8906-3.8906-10.109-3.8906-14 0s-3.8906 10.109 0 14l38.891 38.891c2.332 3.1094 3.8906 6.2227 3.8906 10.109 0 3.8906-1.5547 7.7773-4.668 10.891-3.1094 3.1094-7 4.668-10.891 4.668s-7.7773-1.5547-10.891-4.668l-40.445-40.445c-3.8906-3.8906-10.109-3.8906-14 0-3.8906 3.8906-3.8906 10.109 0 14l0.77734 0.77734c-4.668-4.668-11.668-7-18.668-7v-0.77734c0-9.332-3.8906-18.668-10.109-24.891-7-7-15.555-10.109-24.891-10.109-2.332 0-4.668 0-7 0.77734-0.77734-7.7773-4.668-15.555-10.109-21-7-7-15.555-10.109-24.891-10.109-9.332 0-18.668 3.8906-24.891 10.109l-5.4453 5.4453c-1.5547-4.668-4.668-10.109-8.5547-14-7-7-15.555-10.109-24.891-10.109-9.332 0-18.668 3.8906-24.891 10.109l-14 14.777c-4.668 4.668-7.7773 10.891-9.332 17.109l-54.445-25.668 46.668-101.11 37.332 17.109 3.8906 1.5547 19.445-13.223 28-18.668 52.891-8.5547-40.445 31.891c-2.332 1.5547-3.1094 4.668-3.8906 7-0.77734 2.332 0.77734 5.4453 2.332 7.7773 17.891 20.223 67.668 27.223 99.555 8.5547l45.891 15.555 89.441 89.441c4.6797 6.2305 5.457 16.34 0.011719 22.562zm17.891-29.555c-1.5547-2.332-3.1094-3.8906-4.668-6.2227l-93.332-91.777c-0.77734-0.77734-2.332-2.332-3.8906-2.332l-52.891-17.109c-3.1094-0.77734-6.2227-0.77734-8.5547 1.5547-19.445 13.223-51.332 11.668-68.445 3.8906l58.332-45.891 3.1094-0.77734 88.668-7.7773 48.223 37.332 17.891 14 7.7773-3.8906 22.555-10.109 46.668 101.11z" fill="#FFFFFF" stroke-linecap="round" stroke-linejoin="round" stroke-miterlimit="10" stroke-width="1"/>
</svg>
