<svg width="80px" height="80px" viewBox="0 0 80 80" version="1.1" xmlns="http://www.w3.org/2000/svg" xmlns:xlink="http://www.w3.org/1999/xlink">
    <g id="Page-1" stroke="none" stroke-width="1" fill="none" fill-rule="evenodd">
        <path d="M64.6827886,51.7831574 L48.6527886,41.3481574 C48.1977886,41.0521574 47.5917886,41.1841574 47.2977886,41.6441574 C47.0047886,42.1031574 47.1357886,42.7171574 47.5917886,43.0121574 L66.6087886,55.3921574 C67.1757886,55.7561574 67.5677886,56.3201574 67.7147886,56.9811574 C67.8607886,57.6421574 67.7437886,58.3221574 67.3837886,58.8941574 C66.9627886,59.5641574 66.3087886,60.0291574 65.5427886,60.2011574 C64.7747886,60.3751574 63.9887886,60.2351574 63.3257886,59.8111574 L54.4597886,54.1291574 C54.0037886,53.8351574 53.3977886,53.9721574 53.1077886,54.4341574 C52.8177886,54.8961574 52.9527886,55.5081574 53.4097886,55.8011574 L60.6877886,60.4661574 C61.8567886,61.2151574 62.2047886,62.7861574 61.4627886,63.9671574 C60.5947886,65.3501574 58.7737886,65.7611574 57.4047886,64.8841574 L55.7547886,63.8261574 C55.7547886,63.8261574 55.7547886,63.8261574 55.7537886,63.8261574 L51.3037886,60.9731574 C50.8467886,60.6801574 50.2417886,60.8171574 49.9507886,61.2791574 C49.6607886,61.7411574 49.7957886,62.3521574 50.2537886,62.6451574 L54.7047886,65.4981574 C55.2707886,65.8621574 55.6627886,66.4261574 55.8087886,67.0871574 C55.9557886,67.7481574 55.8387886,68.4271574 55.4787886,69.0001574 C54.6097886,70.3821574 52.7897886,70.7921574 51.4197886,69.9161574 L48.9097886,68.3071574 L48.0377886,67.7481574 C47.9767886,67.7091574 47.9087886,67.6971574 47.8437886,67.6731574 C47.7867886,67.6521574 47.7327886,67.6171574 47.6737886,67.6071574 C47.2967886,67.5431574 46.9027886,67.7071574 46.6847886,68.0531574 C46.6117886,68.1681574 46.5657886,68.2931574 46.5457886,68.4211574 C46.5417886,68.4431574 46.5497886,68.4661574 46.5467886,68.4891574 C46.5367886,68.5931574 46.5337886,68.6991574 46.5557886,68.8001574 C46.5627886,68.8321574 46.5847886,68.8591574 46.5947886,68.8901574 C46.6627886,69.1001574 46.7877886,69.2921574 46.9867886,69.4201574 L48.7097886,70.5241574 C49.2767886,70.8871574 49.6697886,71.4511574 49.8157886,72.1131574 C49.9627886,72.7741574 49.8447886,73.4541574 49.4857886,74.0261574 C48.6167886,75.4091574 46.7957886,75.8221574 45.4267886,74.9431574 L44.9307886,74.6251574 L45.4477886,73.8031574 C46.8947886,71.4981574 46.2167886,68.4331574 43.9347886,66.9711574 C43.0707886,66.4161574 42.0667886,66.2031574 41.0627886,66.3141574 C41.2517886,65.5691574 41.2867886,64.7891574 41.1167886,64.0161574 C40.8307886,62.7261574 40.0647886,61.6251574 38.9587886,60.9161574 C38.0927886,60.3611574 37.0857886,60.1501574 36.0797886,60.2611574 C36.5827886,58.2451574 35.8077886,56.0451574 33.9767886,54.8721574 C33.0797886,54.2971574 32.0587886,54.1061574 31.0787886,54.2201574 C31.2507886,53.4951574 31.2777886,52.7401574 31.1127886,51.9911574 C30.8267886,50.7001574 30.0607886,49.5991574 28.9547886,48.8911574 C26.8717886,47.5551574 24.1027886,48.1811574 22.7827886,50.2841574 L17.7897886,58.2331574 L12.7887886,55.3671574 L20.1607886,36.5281574 L24.7397886,37.3031574 C23.7517886,38.3871574 23.2477886,39.8531574 23.4947886,41.2971574 C23.5937886,41.8761574 23.7997886,42.4271574 24.1077886,42.9321574 C24.5957886,43.7341574 25.2717886,44.3411574 26.1177886,44.7371574 C26.7617886,45.0381574 27.4647886,45.1881574 28.1827886,45.1881574 C28.9787886,45.1881574 29.7927886,45.0041574 30.5647886,44.6361574 L37.0107886,41.5611574 C37.4997886,41.3271574 37.7097886,40.7371574 37.4787886,40.2421574 C37.2467886,39.7481574 36.6627886,39.5391574 36.1727886,39.7701574 L29.7277886,42.8451574 C28.7867886,43.2931574 27.7707886,43.3281574 26.9417886,42.9401574 C26.4457886,42.7071574 26.0637886,42.3651574 25.7767886,41.8941574 C25.6007886,41.6051574 25.4827886,41.2911574 25.4267886,40.9601574 C25.2137886,39.7171574 25.9767886,38.4161574 27.2417886,37.8681574 L35.8567886,34.1311574 C37.1267886,33.5791574 38.5247886,33.3311574 39.9077886,33.4271574 L49.4427886,34.0491574 C50.1107886,34.0881574 50.7817886,33.9021574 51.3277886,33.5121574 L52.3947886,32.7531574 L68.0027886,48.5191574 L64.6827886,51.7831574 Z M41.3447886,76.6391574 C40.4757886,78.0211574 38.6547886,78.4321574 37.2857886,77.5551574 C36.1167886,76.8051574 35.7687886,75.2351574 36.5117886,74.0541574 L39.4177886,69.4261574 C39.7777886,68.8531574 40.3357886,68.4571574 40.9907886,68.3091574 C41.6447886,68.1611574 42.3187886,68.2791574 42.8847886,68.6421574 C44.2537886,69.5201574 44.6617886,71.3591574 43.7927886,72.7421574 L41.3447886,76.6391574 Z M31.0267886,73.5441574 C29.8577886,72.7941574 29.5107886,71.2231574 30.2517886,70.0421574 L30.4797886,69.6791574 C30.4797886,69.6781574 30.4807886,69.6771574 30.4817886,69.6761574 L34.4427886,63.3701574 C35.1857886,62.1891574 36.7397886,61.8391574 37.9087886,62.5881574 C38.5717886,63.0141574 39.0317886,63.6741574 39.2027886,64.4481574 C39.3737886,65.2231574 39.2367886,66.0181574 38.8157886,66.6881574 L35.0857886,72.6271574 C34.6647886,73.2971574 34.0107886,73.7611574 33.2447886,73.9341574 C32.4777886,74.1051574 31.6897886,73.9681574 31.0267886,73.5441574 L31.0267886,73.5441574 Z M24.7677886,69.5321574 C24.2017886,69.1691574 23.8087886,68.6051574 23.6627886,67.9431574 C23.5157886,67.2821574 23.6337886,66.6021574 23.9927886,66.0301574 L27.9867886,59.6721574 L29.4607886,57.3261574 C30.2037886,56.1461574 31.7577886,55.7961574 32.9267886,56.5441574 C34.2957886,57.4211574 34.7027886,59.2601574 33.8337886,60.6431574 L32.7877886,62.3091574 C32.7877886,62.3101574 32.7867886,62.3101574 32.7867886,62.3101574 L28.8257886,68.6171574 C27.9547886,69.9991574 26.1367886,70.4081574 24.7677886,69.5321574 L24.7677886,69.5321574 Z M20.7257886,65.9111574 C19.9597886,66.0841574 19.1717886,65.9451574 18.5087886,65.5201574 C17.9427886,65.1571574 17.5497886,64.5931574 17.4037886,63.9321574 C17.2567886,63.2701574 17.3747886,62.5911574 17.7337886,62.0181574 L18.6477886,60.5631574 C18.8457886,60.4821574 19.0217886,60.3441574 19.1357886,60.1411574 C19.2287886,59.9741574 19.2527886,59.7921574 19.2447886,59.6131574 L24.4377886,51.3461574 C24.9157886,50.5851574 25.7307886,50.1691574 26.5627886,50.1691574 C27.0227886,50.1691574 27.4887886,50.2961574 27.9047886,50.5631574 C28.5677886,50.9881574 29.0277886,51.6491574 29.1997886,52.4231574 C29.3707886,53.1971574 29.2327886,53.9921574 28.8127886,54.6621574 L27.8057886,56.2661574 L27.8047886,56.2661574 L26.3317886,58.6111574 L22.5677886,64.6031574 C22.1457886,65.2741574 21.4927886,65.7381574 20.7257886,65.9111574 L20.7257886,65.9111574 Z M78.0697886,44.7771574 L73.2617886,49.6321574 C72.8927886,50.0061574 72.2467886,50.0061574 71.8767886,49.6321574 L51.9717886,29.5251574 C51.7827886,29.3351574 51.6817886,29.0811574 51.6847886,28.8121574 C51.6887886,28.5411574 51.7977886,28.2911574 51.9927886,28.1061574 L79.6927886,1.7111574 C80.0857886,1.3351574 80.1047886,0.708157396 79.7327886,0.311157396 C79.3607886,-0.0878426045 78.7397886,-0.104842604 78.3477886,0.270157396 L50.6467886,26.6651574 C50.0637886,27.2211574 49.7367886,27.9731574 49.7247886,28.7831574 C49.7137886,29.5931574 50.0187886,30.3541574 50.5857886,30.9261574 L50.9877886,31.3321574 L50.1977886,31.8951574 C50.0157886,32.0241574 49.7927886,32.0901574 49.5697886,32.0731574 L40.0347886,31.4501574 C38.3457886,31.3391574 36.6357886,31.6371574 35.0837886,32.3111574 L27.2327886,35.7171574 L20.8107886,34.6301574 C21.0007886,33.3121574 20.2927886,31.9731574 19.0227886,31.4491574 L1.3677886,24.1541574 C0.869788598,23.9481574 0.294788598,24.1891574 0.0897885985,24.6961574 C-0.115211402,25.2011574 0.124788598,25.7801574 0.625788598,25.9871574 L18.2807886,33.2811574 C18.7757886,33.4861574 19.0177886,34.0601574 18.8217886,34.5621574 L9.1547886,59.2681574 C8.9607886,59.7631574 8.4187886,60.0171574 7.9197886,59.8391574 L1.3037886,57.5061574 C0.793788598,57.3261574 0.233788598,57.5981574 0.0547885985,58.1151574 C-0.123211402,58.6311574 0.146788598,59.1961574 0.657788598,59.3761574 L7.2737886,61.7091574 C7.5977886,61.8231574 7.9257886,61.8771574 8.2487886,61.8771574 C9.4227886,61.8771574 10.5217886,61.1621574 10.9777886,59.9961574 L12.0617886,57.2271574 L16.7387886,59.9071574 L16.0787886,60.9581574 C15.4387886,61.9771574 15.2297886,63.1861574 15.4897886,64.3641574 C15.7507886,65.5411574 16.4507886,66.5461574 17.4587886,67.1921574 C18.2537886,67.7011574 19.1557886,67.9651574 20.0747886,67.9651574 C20.4337886,67.9651574 20.7947886,67.9241574 21.1537886,67.8441574 C21.3307886,67.8041574 21.4947886,67.7331574 21.6637886,67.6751574 C21.6787886,67.9081574 21.6977886,68.1421574 21.7487886,68.3751574 C22.0097886,69.5531574 22.7087886,70.5571574 23.7177886,71.2041574 C24.5307886,71.7241574 25.4377886,71.9731574 26.3357886,71.9731574 C26.8777886,71.9731574 27.4137886,71.8741574 27.9257886,71.6991574 C28.0177886,73.0861574 28.7277886,74.4151574 29.9767886,75.2161574 C30.7887886,75.7361574 31.6977886,75.9851574 32.5947886,75.9851574 C33.1367886,75.9851574 33.6727886,75.8861574 34.1837886,75.7101574 C34.1987886,75.9401574 34.2167886,76.1701574 34.2667886,76.3981574 C34.5277886,77.5761574 35.2267886,78.5811574 36.2357886,79.2271574 C37.0307886,79.7371574 37.9327886,80.0001574 38.8517886,80.0001574 C39.2107886,80.0001574 39.5727886,79.9601574 39.9307886,79.8781574 C41.2087886,79.5901574 42.2987886,78.8161574 42.9997886,77.7001574 L43.8807886,76.2971574 L44.3767886,76.6151574 C45.1717886,77.1241574 46.0737886,77.3871574 46.9927886,77.3871574 C47.3517886,77.3871574 47.7137886,77.3471574 48.0717886,77.2661574 C49.3497886,76.9771574 50.4397886,76.2031574 51.1407886,75.0871574 C51.6877886,74.2171574 51.8987886,73.2081574 51.7917886,72.1991574 C52.1867886,72.3001574 52.5877886,72.3571574 52.9877886,72.3571574 C54.6107886,72.3571574 56.2017886,71.5451574 57.1337886,70.0601574 C57.6817886,69.1891574 57.8917886,68.1791574 57.7857886,67.1681574 C58.1767886,67.2681574 58.5747886,67.3251574 58.9717886,67.3251574 C60.5957886,67.3251574 62.1857886,66.5121574 63.1187886,65.0281574 C63.6847886,64.1251574 63.8747886,63.0971574 63.7647886,62.1101574 C64.1337886,62.1991574 64.5097886,62.2551574 64.8907886,62.2551574 C65.2507886,62.2551574 65.6117886,62.2151574 65.9707886,62.1351574 C67.2477886,61.8461574 68.3377886,61.0721574 69.0387886,59.9551574 C69.6797886,58.9361574 69.8887886,57.7271574 69.6277886,56.5501574 C69.3667886,55.3721574 68.6677886,54.3671574 67.6647886,53.7241574 L66.3737886,52.8841574 L69.3887886,49.9201574 L70.4897886,51.0321574 C71.0457886,51.5931574 71.7847886,51.9021574 72.5697886,51.9021574 C73.3547886,51.9021574 74.0937886,51.5931574 74.6487886,51.0321574 L79.4557886,46.1771574 C79.8387886,45.7901574 79.8387886,45.1631574 79.4557886,44.7771574 C79.0727886,44.3901574 78.4527886,44.3901574 78.0697886,44.7771574 L78.0697886,44.7771574 Z" id="Fill-1" fill="#000000"></path>
    </g>
</svg>
