<?xml version="1.0" encoding="UTF-8"?>
<svg width="700pt" height="700pt" version="1.1" viewBox="0 0 700 700" xmlns="http://www.w3.org/2000/svg" xmlns:xlink="http://www.w3.org/1999/xlink">
 <defs>
  <symbol id="t" overflow="visible">
   <path d="m13.406-0.79688c-0.69922 0.35547-1.4219 0.62109-2.1719 0.79688-0.74219 0.1875-1.5234 0.28125-2.3438 0.28125-2.4297 0-4.3516-0.67578-5.7656-2.0312-1.418-1.3633-2.125-3.207-2.125-5.5312 0-2.3203 0.70703-4.1602 2.125-5.5156 1.4141-1.3633 3.3359-2.0469 5.7656-2.0469 0.82031 0 1.6016 0.09375 2.3438 0.28125 0.75 0.17969 1.4727 0.44531 2.1719 0.79688v3.0156c-0.69922-0.46875-1.3867-0.8125-2.0625-1.0312-0.67969-0.22656-1.3906-0.34375-2.1406-0.34375-1.3438 0-2.4023 0.43359-3.1719 1.2969-0.76172 0.85547-1.1406 2.0391-1.1406 3.5469 0 1.5117 0.37891 2.6992 1.1406 3.5625 0.76953 0.85547 1.8281 1.2812 3.1719 1.2812 0.75 0 1.4609-0.10938 2.1406-0.32812 0.67578-0.22656 1.3633-0.57812 2.0625-1.0469z"/>
  </symbol>
  <symbol id="b" overflow="visible">
   <path d="m9.8125-7.9531c-0.3125-0.14453-0.62109-0.25-0.92188-0.3125-0.30469-0.070313-0.60547-0.10938-0.90625-0.10938-0.90625 0-1.6055 0.28906-2.0938 0.85938-0.48047 0.57422-0.71875 1.3984-0.71875 2.4688v5.0469h-3.4844v-10.938h3.4844v1.7969c0.44531-0.71875 0.96094-1.2383 1.5469-1.5625 0.58203-0.33203 1.2812-0.5 2.0938-0.5 0.125 0 0.25391 0.007813 0.39062 0.015625 0.13281 0.011719 0.33203 0.03125 0.59375 0.0625z"/>
  </symbol>
  <symbol id="a" overflow="visible">
   <path d="m12.594-5.5v1h-8.1719c0.082031 0.82422 0.37891 1.4375 0.89062 1.8438 0.50781 0.40625 1.2188 0.60938 2.125 0.60938 0.73828 0 1.4922-0.10938 2.2656-0.32812 0.76953-0.21875 1.5625-0.54688 2.375-0.98438v2.6875c-0.82422 0.3125-1.6523 0.54688-2.4844 0.70312-0.82422 0.16406-1.6484 0.25-2.4688 0.25-1.9805 0-3.5234-0.5-4.625-1.5-1.0938-1.0078-1.6406-2.4219-1.6406-4.2344 0-1.7891 0.53516-3.1953 1.6094-4.2188 1.082-1.0195 2.5664-1.5312 4.4531-1.5312 1.7188 0 3.0938 0.52344 4.125 1.5625 1.0312 1.0312 1.5469 2.4141 1.5469 4.1406zm-3.5938-1.1562c0-0.66406-0.19531-1.2031-0.57812-1.6094-0.38672-0.40625-0.89062-0.60938-1.5156-0.60938-0.67969 0-1.2305 0.19531-1.6562 0.57812-0.41797 0.375-0.67969 0.92188-0.78125 1.6406z"/>
  </symbol>
  <symbol id="k" overflow="visible">
   <path d="m6.5781-4.9219c-0.73047 0-1.2773 0.125-1.6406 0.375-0.36719 0.24219-0.54688 0.60547-0.54688 1.0938 0 0.4375 0.14453 0.78125 0.4375 1.0312 0.30078 0.25 0.71094 0.375 1.2344 0.375 0.65625 0 1.207-0.23438 1.6562-0.70312 0.45703-0.46875 0.6875-1.0547 0.6875-1.7656v-0.40625zm5.3438-1.3125v6.2344h-3.5156v-1.625c-0.46875 0.66797-1 1.1523-1.5938 1.4531-0.58594 0.30078-1.2969 0.45312-2.1406 0.45312-1.125 0-2.043-0.32812-2.75-0.98438-0.71094-0.66406-1.0625-1.5234-1.0625-2.5781 0-1.2812 0.4375-2.2188 1.3125-2.8125 0.88281-0.60156 2.2734-0.90625 4.1719-0.90625h2.0625v-0.28125c0-0.55078-0.21875-0.95312-0.65625-1.2031-0.4375-0.25781-1.1211-0.39062-2.0469-0.39062-0.75 0-1.4492 0.078125-2.0938 0.23438-0.64844 0.14844-1.2461 0.36719-1.7969 0.65625v-2.6562c0.75-0.1875 1.5-0.32812 2.25-0.42188 0.75781-0.09375 1.5195-0.14062 2.2812-0.14062 1.9688 0 3.3906 0.39062 4.2656 1.1719 0.875 0.77344 1.3125 2.0391 1.3125 3.7969z"/>
  </symbol>
  <symbol id="d" overflow="visible">
   <path d="m5.5-14.047v3.1094h3.6094v2.5h-3.6094v4.6406c0 0.51172 0.097656 0.85547 0.29688 1.0312 0.20703 0.17969 0.60938 0.26562 1.2031 0.26562h1.7969v2.5h-3c-1.375 0-2.3555-0.28516-2.9375-0.85938-0.57422-0.58203-0.85938-1.5625-0.85938-2.9375v-4.6406h-1.7344v-2.5h1.7344v-3.1094z"/>
  </symbol>
  <symbol id="j" overflow="visible">
   <path d="m9.125-9.3438v-5.8594h3.5156v15.203h-3.5156v-1.5781c-0.48047 0.64844-1.0117 1.1211-1.5938 1.4219-0.58594 0.28906-1.2578 0.4375-2.0156 0.4375-1.3438 0-2.4492-0.53516-3.3125-1.6094-0.86719-1.0703-1.2969-2.4453-1.2969-4.125 0-1.6875 0.42969-3.0664 1.2969-4.1406 0.86328-1.0703 1.9688-1.6094 3.3125-1.6094 0.75781 0 1.4297 0.15234 2.0156 0.45312 0.58203 0.30469 1.1133 0.77344 1.5938 1.4062zm-2.3125 7.0938c0.75 0 1.3203-0.26953 1.7188-0.8125 0.39453-0.55078 0.59375-1.3477 0.59375-2.3906 0-1.0391-0.19922-1.832-0.59375-2.375-0.39844-0.55078-0.96875-0.82812-1.7188-0.82812-0.74219 0-1.3086 0.27734-1.7031 0.82812-0.39844 0.54297-0.59375 1.3359-0.59375 2.375 0 1.043 0.19531 1.8398 0.59375 2.3906 0.39453 0.54297 0.96094 0.8125 1.7031 0.8125z"/>
  </symbol>
  <symbol id="i" overflow="visible">
   <path d="m7.5-2.25c0.75 0 1.3203-0.26953 1.7188-0.8125 0.39453-0.55078 0.59375-1.3477 0.59375-2.3906 0-1.0391-0.19922-1.832-0.59375-2.375-0.39844-0.55078-0.96875-0.82812-1.7188-0.82812s-1.3281 0.27734-1.7344 0.82812c-0.39844 0.54297-0.59375 1.3359-0.59375 2.375 0 1.0312 0.19531 1.8242 0.59375 2.375 0.40625 0.55469 0.98438 0.82812 1.7344 0.82812zm-2.3281-7.0938c0.48828-0.63281 1.0234-1.1016 1.6094-1.4062 0.58203-0.30078 1.2539-0.45312 2.0156-0.45312 1.3516 0 2.4609 0.53906 3.3281 1.6094 0.86328 1.0742 1.2969 2.4531 1.2969 4.1406 0 1.6797-0.43359 3.0547-1.2969 4.125-0.86719 1.0742-1.9766 1.6094-3.3281 1.6094-0.76172 0-1.4336-0.15234-2.0156-0.45312-0.58594-0.30078-1.1211-0.76953-1.6094-1.4062v1.5781h-3.4844v-15.203h3.4844z"/>
  </symbol>
  <symbol id="h" overflow="visible">
   <path d="m0.25-10.938h3.4844l2.9531 7.4219 2.5-7.4219h3.4844l-4.5938 11.969c-0.46094 1.2188-1 2.0664-1.625 2.5469-0.61719 0.48828-1.4219 0.73438-2.4219 0.73438h-2.0312v-2.2969h1.0938c0.59375 0 1.0234-0.09375 1.2969-0.28125 0.26953-0.1875 0.47656-0.52734 0.625-1.0156l0.10938-0.29688z"/>
  </symbol>
  <symbol id="g" overflow="visible">
   <path d="m1.6875-10.938h3.4844v10.938h-3.4844zm0-4.2656h3.4844v2.8594h-3.4844z"/>
  </symbol>
  <symbol id="s" overflow="visible">
   <path d="m0.29688-10.938h3.5l2.7344 7.5625 2.7031-7.5625h3.5156l-4.3125 10.938h-3.8438z"/>
  </symbol>
  <symbol id="f" overflow="visible">
   <path d="m10.516-10.594v2.8438c-0.46875-0.32031-0.94531-0.5625-1.4219-0.71875-0.48047-0.15625-0.98047-0.23438-1.5-0.23438-0.96875 0-1.7305 0.28906-2.2812 0.85938-0.54297 0.5625-0.8125 1.3594-0.8125 2.3906 0 1.0234 0.26953 1.8203 0.8125 2.3906 0.55078 0.5625 1.3125 0.84375 2.2812 0.84375 0.55078 0 1.0703-0.078125 1.5625-0.23438 0.48828-0.16406 0.94141-0.41016 1.3594-0.73438v2.8594c-0.54297 0.21094-1.0938 0.35938-1.6562 0.45312-0.5625 0.10156-1.1328 0.15625-1.7031 0.15625-1.9688 0-3.5117-0.50391-4.625-1.5156-1.1172-1.0078-1.6719-2.4141-1.6719-4.2188 0-1.8125 0.55469-3.2227 1.6719-4.2344 1.1133-1.0078 2.6562-1.5156 4.625-1.5156 0.57031 0 1.1328 0.054687 1.6875 0.15625 0.5625 0.09375 1.1172 0.24609 1.6719 0.45312z"/>
  </symbol>
  <symbol id="c" overflow="visible">
   <path d="m6.8906-8.7031c-0.78125 0-1.375 0.28125-1.7812 0.84375-0.40625 0.55469-0.60938 1.3555-0.60938 2.4062 0 1.043 0.20312 1.8438 0.60938 2.4062 0.40625 0.55469 1 0.82812 1.7812 0.82812 0.75781 0 1.3359-0.27344 1.7344-0.82812 0.40625-0.5625 0.60938-1.3633 0.60938-2.4062 0-1.0508-0.20312-1.8516-0.60938-2.4062-0.39844-0.5625-0.97656-0.84375-1.7344-0.84375zm0-2.5c1.875 0 3.3359 0.51172 4.3906 1.5312 1.0625 1.0117 1.5938 2.418 1.5938 4.2188 0 1.793-0.53125 3.1992-1.5938 4.2188-1.0547 1.0117-2.5156 1.5156-4.3906 1.5156-1.8984 0-3.375-0.50391-4.4375-1.5156-1.0625-1.0195-1.5938-2.4258-1.5938-4.2188 0-1.8008 0.53125-3.207 1.5938-4.2188 1.0625-1.0195 2.5391-1.5312 4.4375-1.5312z"/>
  </symbol>
  <symbol id="e" overflow="visible">
   <path d="m12.672-6.6562v6.6562h-3.5156v-5.0938c0-0.94531-0.023438-1.5977-0.0625-1.9531-0.042969-0.36328-0.11719-0.62891-0.21875-0.79688-0.13672-0.22656-0.32422-0.40625-0.5625-0.53125-0.23047-0.125-0.49609-0.1875-0.79688-0.1875-0.73047 0-1.3047 0.28125-1.7188 0.84375-0.41797 0.5625-0.625 1.3438-0.625 2.3438v5.375h-3.4844v-10.938h3.4844v1.5938c0.53125-0.63281 1.0938-1.1016 1.6875-1.4062 0.59375-0.30078 1.2422-0.45312 1.9531-0.45312 1.2695 0 2.2266 0.39062 2.875 1.1719 0.65625 0.77344 0.98438 1.8984 0.98438 3.375z"/>
  </symbol>
  <symbol id="r" overflow="visible">
   <path d="m8.875-15.203v2.2969h-1.9375c-0.49219 0-0.83594 0.09375-1.0312 0.28125-0.19922 0.17969-0.29688 0.48438-0.29688 0.92188v0.76562h3v2.5h-3v8.4375h-3.4844v-8.4375h-1.75v-2.5h1.75v-0.76562c0-1.1875 0.32812-2.0664 0.98438-2.6406 0.66406-0.57031 1.6953-0.85938 3.0938-0.85938z"/>
  </symbol>
  <symbol id="q" overflow="visible">
   <path d="m11.812-9.125c0.44531-0.67578 0.97266-1.1914 1.5781-1.5469 0.61328-0.35156 1.2852-0.53125 2.0156-0.53125 1.25 0 2.2031 0.39062 2.8594 1.1719 0.66406 0.77344 1 1.8984 1 3.375v6.6562h-3.5156v-5.7031-0.26562c0.007812-0.09375 0.015625-0.22266 0.015625-0.39062 0-0.76953-0.11719-1.3281-0.34375-1.6719-0.23047-0.35156-0.60156-0.53125-1.1094-0.53125-0.65625 0-1.168 0.27734-1.5312 0.82812-0.36719 0.54297-0.55469 1.3281-0.5625 2.3594v5.375h-3.5156v-5.7031c0-1.207-0.10547-1.9844-0.3125-2.3281-0.21094-0.35156-0.57812-0.53125-1.1094-0.53125-0.67969 0-1.1992 0.27734-1.5625 0.82812-0.36719 0.54297-0.54688 1.3281-0.54688 2.3594v5.375h-3.5156v-10.938h3.5156v1.5938c0.4375-0.61328 0.92969-1.0781 1.4844-1.3906 0.55078-0.3125 1.1641-0.46875 1.8438-0.46875 0.75 0 1.4141 0.18359 2 0.54688 0.58203 0.36719 1.0195 0.875 1.3125 1.5312z"/>
  </symbol>
  <symbol id="p" overflow="visible">
   <path d="m12.672-6.6562v6.6562h-3.5156v-5.0781c0-0.95703-0.023438-1.6133-0.0625-1.9688-0.042969-0.36328-0.11719-0.62891-0.21875-0.79688-0.13672-0.22656-0.32422-0.40625-0.5625-0.53125-0.23047-0.125-0.49609-0.1875-0.79688-0.1875-0.73047 0-1.3047 0.28125-1.7188 0.84375-0.41797 0.5625-0.625 1.3438-0.625 2.3438v5.375h-3.4844v-15.203h3.4844v5.8594c0.53125-0.63281 1.0938-1.1016 1.6875-1.4062 0.59375-0.30078 1.2422-0.45312 1.9531-0.45312 1.2695 0 2.2266 0.39062 2.875 1.1719 0.65625 0.77344 0.98438 1.8984 0.98438 3.375z"/>
  </symbol>
  <symbol id="o" overflow="visible">
   <path d="m1.8438-14.578h4.1875l5.3125 10v-10h3.5625v14.578h-4.2031l-5.2969-10v10h-3.5625z"/>
  </symbol>
  <symbol id="n" overflow="visible">
   <path d="m1.5625-4.2656v-6.6719h3.5156v1.0938c0 0.59375-0.007813 1.3398-0.015625 2.2344v1.7812c0 0.88672 0.019531 1.5234 0.0625 1.9062 0.050781 0.38672 0.12891 0.66797 0.23438 0.84375 0.14453 0.23047 0.33203 0.40625 0.5625 0.53125 0.22656 0.125 0.49219 0.1875 0.79688 0.1875 0.72656 0 1.3008-0.28125 1.7188-0.84375 0.41406-0.5625 0.625-1.3359 0.625-2.3281v-5.4062h3.5v10.938h-3.5v-1.5781c-0.53125 0.63672-1.0938 1.1055-1.6875 1.4062-0.58594 0.30078-1.2305 0.45312-1.9375 0.45312-1.2617 0-2.2266-0.38281-2.8906-1.1562-0.65625-0.78125-0.98438-1.9102-0.98438-3.3906z"/>
  </symbol>
  <symbol id="m" overflow="visible">
   <path d="m1.8438-14.578h6.2344c1.8516 0 3.2734 0.41406 4.2656 1.2344 1 0.82422 1.5 1.9961 1.5 3.5156 0 1.5312-0.5 2.7109-1.5 3.5312-0.99219 0.82422-2.4141 1.2344-4.2656 1.2344h-2.4844v5.0625h-3.75zm3.75 2.7188v4.0781h2.0781c0.72656 0 1.2891-0.17578 1.6875-0.53125 0.40625-0.35156 0.60938-0.85938 0.60938-1.5156 0-0.64453-0.20312-1.1445-0.60938-1.5-0.39844-0.35156-0.96094-0.53125-1.6875-0.53125z"/>
  </symbol>
  <symbol id="l" overflow="visible">
   <path d="m1.6875-10.938h3.4844v10.734c0 1.4688-0.35547 2.5859-1.0625 3.3594-0.69922 0.76953-1.7148 1.1562-3.0469 1.1562h-1.7344v-2.2969h0.60938c0.66406 0 1.125-0.15234 1.375-0.45312 0.25-0.29297 0.375-0.88281 0.375-1.7656zm0-4.2656h3.4844v2.8594h-3.4844z"/>
  </symbol>
 </defs>
 <g>
  <path d="m91.906 262.07 47.699 29.289c0.63672 0.39062 1.3594 0.58984 2.0938 0.58984 0.36719 0 0.73438-0.050781 1.0938-0.15234 1.0781-0.30859 1.9766-1.0508 2.4805-2.0508l4.418-8.7812c6.5508 3.6836 27.055 16.664 33.051 37.055l-8.0078 12.652c-7.6445 12.07-4.0391 28.117 8.0352 35.758 4.2891 2.7148 9.0781 4.0078 13.816 4.0078 3.6602 0 7.2695-0.81641 10.609-2.3047-0.070312 2.2188 0.10547 4.4609 0.60547 6.6836 1.5469 6.8984 5.6836 12.781 11.652 16.566 4.293 2.7227 9.1602 4.1211 14.121 4.1211 1.9414 0 3.8984-0.21484 5.8359-0.65234 2.9609-0.66406 5.7148-1.8281 8.2188-3.3867 0.54688 8.582 5.0195 16.797 12.824 21.738 4.5039 2.8516 9.6055 4.3203 14.809 4.3203 2.0391 0 4.0977-0.22656 6.1406-0.68359 2.7383-0.61328 5.3242-1.6211 7.6953-2.9727 0.082032 1.3711 0.24609 2.7422 0.55469 4.1094 1.4844 6.6172 5.4609 12.262 11.191 15.891 4.2031 2.6641 8.9023 3.9336 13.547 3.9336 7.9531 0 15.719-3.7695 20.629-10.609l21.219 12.895c4.4531 2.8008 9.4219 4.1406 14.34 4.1406 8.9805 0 17.777-4.4648 22.91-12.605 3.8477-6.0977 5.0781-13.316 3.4961-20.348l7.0352 4.3633c4.2031 2.6211 8.9414 3.9727 13.766 3.9727 2.0391 0 4.0977-0.24219 6.1406-0.73047 6.8516-1.6445 12.629-5.875 16.262-11.91 3.5273-5.8594 4.6094-12.715 3.0664-19.359l0.24219 0.14453c12.438 7.4531 28.773 3.4844 36.41-8.8477 3.8438-6.2031 4.9766-13.516 3.1914-20.598-0.015625-0.070312-0.035156-0.14062-0.054687-0.21484l3.8125 2.1875c11.438 6.6445 26.285 3.3164 33.793-7.5664 4.0352-5.8477 5.4414-12.891 3.9531-19.836-0.75781-3.543-2.2227-6.793-4.2695-9.625 2.5273-21.051 21.219-35.566 29.141-40.816l4.4258 8.9648c0.5 1.0117 1.4023 1.7656 2.4844 2.0742 0.35938 0.10156 0.73047 0.15234 1.0977 0.15234 0.73828 0 1.4727-0.20312 2.1094-0.60156l48.535-30.129c1.7578-1.0898 2.3945-3.3477 1.4648-5.1953l-69.457-138.08c-0.50391-1-1.4023-1.7461-2.4805-2.0508-1.0703-0.30078-2.2344-0.14453-3.1875 0.44141l-47.715 29.301c-1.7578 1.082-2.4102 3.3281-1.4922 5.1797l2.8359 5.7422c-8.2031 5.7969-34.594 22.023-52.508 5.2305-35.191-32.996-85.246-28.898-106.5-13.375l-1.1914 0.93359c-21.379-17.234-45.844-2.6016-56.004 7.9219-23.855 22.102-53.16 6.3945-61.422 1.1836l4.2578-8.4609c0.92969-1.8477 0.29688-4.1016-1.4648-5.1953l-48.535-30.129c-0.95312-0.59375-2.1289-0.75781-3.207-0.44531-1.0859 0.30859-1.9883 1.0625-2.4883 2.0742l-68.621 138.91c-0.91797 1.8516-0.26562 4.0977 1.4922 5.1797zm95.141 97.602c-8.3477-5.2852-10.84-16.375-5.5586-24.723l9.0469-14.293c0.003906-0.003906 0.003906-0.003906 0.003906-0.007812l9.4766-14.969v0.003906c5.2852-8.3477 16.379-10.836 24.723-5.5586 4.0469 2.5586 6.8477 6.5391 7.8984 11.211s0.21484 9.4648-2.3398 13.512l-4.5547 7.1914-14.09 22.223c-5.3242 8.2188-16.312 10.656-24.605 5.4102zm50.613 27.383c-4.8086 1.0781-9.7539 0.21484-13.922-2.4258-4.168-2.6406-7.0547-6.7461-8.1328-11.559s-0.21484-9.7578 2.4258-13.922l0.35547-0.5625c0.042969-0.066406 0.097656-0.125 0.14062-0.19141l11.598-18.324 15.016-23.688v-0.003907c2.6406-4.1641 6.7461-7.0547 11.559-8.1328 1.3516-0.30469 2.7188-0.45312 4.0703-0.45312 3.4609 0 6.8594 0.98047 9.8516 2.8789 4.1641 2.6406 7.0547 6.7461 8.1328 11.559 1.0781 4.8164 0.21484 9.7578-2.4258 13.922l-27.109 42.766c-2.6367 4.168-6.7422 7.0547-11.559 8.1367zm41.988 21.988c-5.1562 1.1602-10.453 0.23828-14.914-2.5898-9.2148-5.8359-11.965-18.078-6.1289-27.289l21.387-33.773c5.8359-9.2148 18.082-11.965 27.293-6.1289 9.2148 5.8359 11.965 18.078 6.1289 27.289l-21.387 33.773c-2.832 4.4648-7.2227 7.5625-12.379 8.7188zm25.473 18.074c-8.1016-5.1328-10.523-15.902-5.3906-24.004l15.297-24.156c2.4844-3.9258 6.3516-6.6484 10.887-7.668 1.2773-0.28516 2.5664-0.42969 3.8438-0.42969 3.2578 0 6.4531 0.92188 9.2734 2.7031 8.1016 5.1289 10.523 15.898 5.3906 24.004l-15.297 24.16c-5.1328 8.0977-15.902 10.516-24.004 5.3906zm229.8-299.99 65.859 130.92-41.684 25.875-65.051-131.69zm-104.81 42.18c21.711 20.355 50.98 3.543 61.574-3.7891l54.184 109.69c-7.8555 5.0078-27.238 19.383-32.516 41.547-0.17188-0.10938-0.32812-0.23438-0.5-0.33984l-78.105-47.215s-0.003906-0.003907-0.003906-0.003907l-93.707-56.648c-3.8672-2.3398-8.7227-2.0273-12.359 0.78516-37.168 28.691-67.77 15.91-79.215 9.2344l84.445-66.09c19.375-14.148 65.336-16.105 96.203 12.832zm-186.64 8.9297c11.047 0 23.023-3.3789 34.012-13.566 0.99219-1.0156 23.211-23.398 43.949-8.582l-77.262 60.465c-1.9531 1.5234-3.0273 3.9062-2.8828 6.375 0.14844 2.4844 1.5117 4.7461 3.6523 6.043 12.891 7.8164 47.328 22.562 88.629-9.3086 1.0039-0.78125 2.3164-0.88672 3.332-0.26562l93.703 56.645c0.003906 0 0.003906 0 0.007812 0.003906l78.102 47.211c4.168 2.5273 7.0273 6.5469 8.0469 11.309 1.0195 4.7656 0.058593 9.6016-2.7148 13.613-5.1602 7.4727-15.352 9.75-23.211 5.1875l-48.535-27.859c-1.9219-1.1016-4.3594-0.4375-5.4609 1.4766-1.0977 1.9141-0.44141 4.3594 1.4766 5.4609l28.195 16.203c4.4297 2.5469 7.5586 6.6797 8.8086 11.633 1.2539 4.957 0.45703 10.078-2.2344 14.422-5.3438 8.6367-16.781 11.418-25.496 6.1953l-40.496-24.246-0.015625-0.007813c-1.8906-1.1289-4.3516-0.51953-5.4844 1.375s-0.51953 4.3477 1.3711 5.4844l24.16 14.496c4.1523 2.4844 7.0859 6.4414 8.2539 11.137 1.1719 4.6953 0.44141 9.5664-2.0547 13.715-2.5195 4.1836-6.5234 7.1172-11.277 8.2539-4.75 1.1406-9.6523 0.33984-13.809-2.2539l-21.836-13.543c-0.53125-0.38281-1.0625-0.76953-1.6289-1.1172l-7.6055-4.6094-5.0469-3.1289c-0.097656-0.058594-0.20703-0.0625-0.30469-0.11328l-5.3828-3.2617c-1.8867-1.1523-4.3477-0.54297-5.4961 1.3477s-0.54297 4.3477 1.3477 5.4961l10.676 6.4727 8.4023 5.2109c3.9219 2.6953 6.7031 6.6484 7.7852 11.316 1.1562 4.9844 0.28906 10.117-2.4375 14.445-5.5898 8.8633-17.359 11.535-26.277 5.9297l-21.062-12.801 11.805-18.641c7.4922-11.832 3.9609-27.551-7.8672-35.039-5.7266-3.6289-12.527-4.8164-19.152-3.3242-0.27344 0.0625-0.53125 0.15234-0.80078 0.22266 3.3477-11.566-1.1289-24.441-11.797-31.199-7.6445-4.8398-16.758-5.4414-24.641-2.4883 0.44531-3.1328 0.35156-6.3516-0.35938-9.5312-1.5469-6.9023-5.6836-12.785-11.652-16.566-5.9727-3.7852-13.059-5.0156-19.957-3.4727-5.793 1.2969-10.852 4.4414-14.574 8.9492-1.4883-6.3984-5.3828-12.246-11.359-16.031-12.082-7.6406-28.121-4.0352-35.758 8.0352v0.003906l-5.1289 8.1055c-8.7539-19.98-28.277-32.102-34.836-35.707l53.59-106.53c6.2266 3.7109 20.414 10.957 36.59 10.957zm-79.219-52.766 41.684 25.871-65.855 130.92-40.879-25.102z" fill="#FFFFFF" stroke="#FFFFFF" stroke-linecap="round" stroke-linejoin="round" stroke-miterlimit="10" stroke-width="1"/>
 </g>
</svg>
