<svg width="700" height="700" xmlns="http://www.w3.org/2000/svg" version="1.1">
 <g>
  <title>Layer 1</title>
  <g id="svg_25" stroke-width="0.5" stroke="null">
   <path d="m544.78004,217.9021c0,-100.98012 -87.82703,-183.13213 -195.78,-183.13213s-195.78,82.15318 -195.78,183.13213c0,0.04592 0.01473,0.09184 0.01473,0.13777s-0.00491,0.08725 -0.00491,0.13317c2.16994,99.7775 62.65639,249.89342 184.90892,458.92361c0,0.0046 0.00491,0.01378 0.01473,0.01837c0.04909,0.09184 0.09819,0.16991 0.14728,0.26176c0.06382,0.11021 0.16201,0.17909 0.22583,0.28471c0.50075,0.80821 1.10459,1.55212 1.787,2.25935c0.21601,0.21583 0.4271,0.42707 0.66275,0.63831c0.66275,0.59239 1.39426,1.12047 2.18955,1.58433c0.18164,0.11021 0.35347,0.24798 0.54984,0.35359c0.06382,0.03214 0.11782,0.08724 0.18164,0.11939c0.66766,0.34441 1.36473,0.52809 2.05696,0.74852c0.38783,0.13317 0.74129,0.32145 1.13404,0.41329c1.17331,0.2893 2.36625,0.44084 3.54938,0.44084l0.01473,0l0.01473,0c1.18314,0 2.37115,-0.15154 3.54938,-0.44084c0.39274,-0.10103 0.74129,-0.28471 1.12422,-0.41329c0.69712,-0.2296 1.39916,-0.41329 2.06676,-0.7577c0.06873,-0.03215 0.11782,-0.08725 0.18164,-0.11939c0.19146,-0.10563 0.35347,-0.23878 0.53511,-0.34901c0.7953,-0.47298 1.53666,-1.00108 2.19445,-1.58433c0.23073,-0.21124 0.44183,-0.42247 0.66766,-0.65208c0.67748,-0.68422 1.26658,-1.42351 1.75747,-2.21339c0.07855,-0.12399 0.18164,-0.19746 0.25528,-0.32145c118.36282,-202.30588 179.49223,-356.62449 181.72929,-458.61796c0,-0.05971 -0.01473,-0.12399 -0.01473,-0.18368c0.0049,-0.22502 0.06382,-0.43625 0.06382,-0.66126l0.00248,-0.00262l-0.00003,-0.00001zm-194.13363,425.40778c-110.21266,-191.57281 -167.25127,-334.77042 -169.27467,-425.54885c0.08836,-86.39586 75.25427,-156.65803 167.6283,-156.65803c92.40168,0 167.57803,70.29156 167.6283,156.70505c-0.01473,0.13777 -0.054,0.27094 -0.054,0.4087c-2.04226,94.14294 -57.95857,237.17362 -165.93166,425.09037l0.00373,0.00275l0,0.00001z" fill="#FFFFFF" stroke-linecap="round" stroke-linejoin="round" stroke-miterlimit="10" id="svg_26" stroke="#FFFFFF"/>
   <path d="m493.03872,218.47813c0,-23.80553 -6.70111,-46.15569 -18.32626,-65.58453c-0.44183,-0.89087 -0.98677,-1.71741 -1.61018,-2.4706c-25.05753,-39.81813 -71.22883,-66.67782 -124.09622,-66.67782c-53.00061,0 -99.28502,26.99724 -124.2973,66.98935c-0.48602,0.61993 -0.91312,1.27198 -1.28618,1.97462c-11.70369,19.47469 -18.45445,41.8848 -18.45445,65.76792c0,24.33337 7.03994,47.12437 19.1507,66.84711c0.27492,0.41329 0.48602,0.86332 0.81003,1.24447c25.0613,39.79579 71.22883,66.63197 124.07737,66.64138c53.07853,0 99.42201,-27.07482 124.40036,-67.16451c0.41729,-0.54187 0.78057,-1.09751 1.10459,-1.69907c11.74793,-19.4982 18.52734,-41.94006 18.52734,-65.86902l0.0002,0.00071l0,-0.00001zm-144.03868,108.40157c-11.84609,0 -26.69636,-17.68428 -35.6119,-48.58915c11.5613,-0.85413 23.4564,-1.35462 35.6119,-1.35462s24.05085,0.49595 35.6119,1.35004c-8.91529,30.90957 -23.76557,48.59385 -35.6119,48.59385l0,-0.00012zm0,-76.28468c-14.0105,0 -27.76713,0.61993 -41.11028,1.70365c-1.46301,-10.37357 -2.32214,-21.66597 -2.32214,-33.82972s0.8493,-23.45638 2.32214,-33.82501c13.34315,1.08833 27.09853,1.71282 41.11028,1.71282s27.76713,-0.61993 41.11028,-1.70365c1.46301,10.37357 2.31724,21.66127 2.31724,33.82501c0,12.16492 -0.8493,23.45638 -2.31724,33.82501c-13.34315,-1.08833 -27.09853,-1.70824 -41.11028,-1.70824l0,0.00012l0,0.00001zm-115.87819,-32.11689c0,-15.74222 3.68687,-30.67093 10.17206,-44.18071c11.34526,2.93437 23.71152,5.3268 36.72666,7.22336c-1.64461,11.67776 -2.59209,24.02184 -2.59209,36.95794c0,12.9408 0.94258,25.27971 2.59209,36.96617c-13.01388,1.8874 -25.38052,4.27982 -36.72666,7.21419c-6.4852,-13.50979 -10.17206,-28.4385 -10.17206,-44.18071l0,-0.00024zm115.87819,-108.40157c11.84609,0 26.69636,17.68428 35.6119,48.58915c-11.5613,0.86332 -23.4564,1.35921 -35.6119,1.35921s-24.05085,-0.49594 -35.6119,-1.35004c8.91026,-30.91427 23.76557,-48.58915 35.6119,-48.59855l0,0.00024l0,-0.00001zm68.98549,71.44363c13.01891,-1.8874 25.38052,-4.27982 36.73169,-7.21419c6.48017,13.50979 10.16214,28.43497 10.16214,44.17131c0,15.74222 -3.68197,30.66623 -10.16214,44.18071c-11.34526,-2.93437 -23.71152,-5.3315 -36.73169,-7.22336c1.64461,-11.67776 2.59209,-24.02184 2.59209,-36.95794c0,-12.9361 -0.94258,-25.27971 -2.59209,-36.95794l0,0.00141zm21.37518,-30.73911c-8.37526,1.91032 -17.25171,3.53591 -26.55434,4.86303c-3.48553,-13.0278 -8.03643,-24.70132 -13.49019,-34.66556c15.60157,7.07641 29.28908,17.27047 40.04454,29.80335l0,-0.00082l-0.00001,0zm-140.67053,-29.79394c-5.45917,9.96035 -10.00994,21.63306 -13.49019,34.66085c-9.30301,-1.3317 -18.17921,-2.95729 -26.54932,-4.86303c10.74151,-12.5364 24.42914,-22.73105 40.03951,-29.79865l0,0.00082l0,0.00001zm-40.04957,165.19275c8.37036,-1.91032 17.25171,-3.53591 26.55434,-4.86303c3.48553,13.0278 8.03153,24.69192 13.49019,34.66085c-15.6066,-7.081 -29.29411,-17.26224 -40.04454,-29.79865l0,0.00082l0.00001,0.00001zm140.65797,29.80335c5.45414,-9.96494 10.00994,-21.63776 13.49019,-34.66556c9.30301,1.3317 18.17921,2.95729 26.55434,4.86303c-10.74641,12.5364 -24.43291,22.71694 -40.04454,29.80335l0,-0.00082l0.00001,0z" fill="#FFFFFF" stroke-linecap="round" stroke-linejoin="round" stroke-miterlimit="10" id="svg_27" stroke="#FFFFFF"/>
  </g>
 </g>

</svg>