
<svg width="80px" height="42px" viewBox="0 0 80 42" version="1.1" xmlns="http://www.w3.org/2000/svg" xmlns:xlink="http://www.w3.org/1999/xlink">
    <g id="Page-1" stroke="none" stroke-width="1" fill="none" fill-rule="evenodd">
        <g id="Group-7" fill="#000000">
            <path d="M78.012,29.336 C78.012,29.886 77.566,30.335 77.018,30.335 L20.022,30.335 L20.022,2.995 C20.022,2.444 20.467,1.997 21.016,1.997 L77.018,1.997 C77.566,1.997 78.012,2.444 78.012,2.995 L78.012,29.336 Z M74.159,34.17 C74.159,34.72 73.713,35.168 73.165,35.168 L70.652,35.168 C70.466,34.093 69.988,33.12 69.3,32.331 L74.159,32.331 L74.159,34.17 Z M64.936,40.003 C62.829,40.003 61.116,38.282 61.116,36.167 C61.116,34.052 62.829,32.331 64.936,32.331 C67.041,32.331 68.755,34.052 68.755,36.167 C68.755,38.282 67.041,40.003 64.936,40.003 L64.936,40.003 Z M55.309,40.003 C53.202,40.003 51.49,38.282 51.49,36.167 C51.49,34.052 53.202,32.331 55.309,32.331 C57.414,32.331 59.127,34.052 59.127,36.167 C59.127,38.282 57.414,40.003 55.309,40.003 L55.309,40.003 Z M14.213,40.003 C12.108,40.003 10.395,38.282 10.395,36.167 C10.395,34.052 12.108,32.331 14.213,32.331 C16.32,32.331 18.033,34.052 18.033,36.167 C18.033,38.282 16.32,40.003 14.213,40.003 L14.213,40.003 Z M8.827,33.998 L2.983,33.998 C2.435,33.998 1.989,33.55 1.989,32.999 L1.989,28.331 L4.498,28.331 C5.048,28.331 5.492,27.883 5.492,27.332 C5.492,26.781 5.048,26.334 4.498,26.334 L1.989,26.334 L1.989,24.026 C1.989,23.759 2.092,23.508 2.279,23.32 L3.437,22.158 L13.219,22.158 C14.316,22.158 15.208,21.262 15.208,20.161 L15.208,14.594 C15.208,13.493 14.316,12.597 13.219,12.597 L7.725,12.597 L8.72,9.652 L18.033,9.652 L18.033,30.335 L14.213,30.335 C11.775,30.335 9.687,31.854 8.827,33.998 L8.827,33.998 Z M7.05,14.594 L13.219,14.594 L13.219,20.161 L5.132,20.161 C5.173,20.07 5.228,19.985 5.26,19.89 L7.05,14.594 Z M18.577,32.331 L19.028,32.331 L50.945,32.331 C50.257,33.12 49.779,34.093 49.592,35.168 L19.93,35.168 C19.744,34.093 19.266,33.12 18.577,32.331 L18.577,32.331 Z M77.018,0 L21.016,0 C19.371,0 18.033,1.343 18.033,2.995 L18.033,7.655 L6.572,7.655 C6.022,7.655 5.577,8.102 5.577,8.653 C5.577,9.205 6.022,9.652 6.572,9.652 L6.619,9.652 L3.376,19.249 C3.327,19.393 3.245,19.526 3.138,19.634 L0.873,21.908 C0.31,22.473 -3.55271368e-15,23.226 -3.55271368e-15,24.026 L-3.55271368e-15,32.999 C-3.55271368e-15,34.651 1.338,35.995 2.983,35.995 L8.415,35.995 C8.413,36.052 8.407,36.108 8.407,36.167 C8.407,39.383 11.011,42 14.213,42 C17.076,42 19.456,39.906 19.93,37.165 L49.592,37.165 C50.066,39.906 52.447,42 55.309,42 C57.31,42 59.077,40.978 60.121,39.427 C61.167,40.978 62.935,42 64.936,42 C67.798,42 70.178,39.906 70.652,37.165 L73.165,37.165 C74.81,37.165 76.148,35.821 76.148,34.17 L76.148,32.331 L77.018,32.331 C78.662,32.331 80,30.988 80,29.336 L80,2.995 C80,1.343 78.662,0 77.018,0 L77.018,0 Z" id="Fill-1"></path>
            <path d="M73.3304,25.1637 L40.3654,25.1637 C39.8154,25.1637 39.3714,25.6107 39.3714,26.1627 C39.3714,26.7137 39.8154,27.1607 40.3654,27.1607 L73.3304,27.1607 C73.8794,27.1607 74.3244,26.7137 74.3244,26.1627 C74.3244,25.6107 73.8794,25.1637 73.3304,25.1637" id="Fill-3"></path>
            <path d="M14.2142,35.1656 C13.6632,35.1656 13.2172,35.6136 13.2172,36.1666 C13.2172,36.7196 13.6632,37.1676 14.2142,37.1676 C14.7652,37.1676 15.2112,36.7196 15.2112,36.1666 C15.2112,35.6136 14.7652,35.1656 14.2142,35.1656" id="Fill-4"></path>
            <path d="M55.3089,35.1656 C54.7579,35.1656 54.3119,35.6136 54.3119,36.1666 C54.3119,36.7196 54.7579,37.1676 55.3089,37.1676 C55.8599,37.1676 56.3059,36.7196 56.3059,36.1666 C56.3059,35.6136 55.8599,35.1656 55.3089,35.1656" id="Fill-5"></path>
            <path d="M64.9358,35.1656 C64.3848,35.1656 63.9388,35.6136 63.9388,36.1666 C63.9388,36.7196 64.3848,37.1676 64.9358,37.1676 C65.4858,37.1676 65.9328,36.7196 65.9328,36.1666 C65.9328,35.6136 65.4858,35.1656 64.9358,35.1656" id="Fill-6"></path>
        </g>
    </g>
</svg>