
<svg width="64px" height="80px" viewBox="0 0 64 80" version="1.1" xmlns="http://www.w3.org/2000/svg" xmlns:xlink="http://www.w3.org/1999/xlink">
    <g id="Page-1" stroke="none" stroke-width="1" fill="none" fill-rule="evenodd">
        <g id="Group-8" fill="#000000">
            <path d="M32.0001164,53.0944 C20.3911164,53.0944 10.9471164,43.7224 10.9471164,32.2024 C10.9471164,20.6834 20.3911164,11.3114 32.0001164,11.3114 C43.6081164,11.3114 53.0541164,20.6834 53.0541164,32.2024 C53.0541164,43.7224 43.6081164,53.0944 32.0001164,53.0944 M32.0001164,9.3224 C19.2651164,9.3224 8.94211638,19.5664 8.94211638,32.2024 C8.94211638,44.8394 19.2651164,55.0834 32.0001164,55.0834 C44.7341164,55.0834 55.0591164,44.8394 55.0591164,32.2024 C55.0591164,19.5664 44.7341164,9.3224 32.0001164,9.3224" id="Fill-1"></path>
            <path d="M61.3976164,35.632 C61.6736164,36.253 62.0506164,37.103 61.9896164,37.452 C61.9206164,37.839 61.2836164,38.499 60.7706164,39.029 C60.0166164,39.809 59.1626164,40.693 58.7346164,41.859 C58.2996164,43.044 58.3806164,44.28 58.4536164,45.371 C58.5006164,46.093 58.5596164,46.992 58.3736164,47.31 C58.1816164,47.64 57.3606164,48.04 56.7006164,48.362 C55.7156164,48.841 54.6016164,49.385 53.7906164,50.343 C52.9766164,51.304 52.6286164,52.491 52.3216164,53.538 C52.1176164,54.236 51.8626164,55.106 51.5716164,55.348 C51.2836164,55.588 50.3786164,55.687 49.6516164,55.766 C48.5586164,55.885 47.3186164,56.021 46.2206164,56.651 C45.1336164,57.275 44.4036164,58.268 43.7586164,59.143 C43.3236164,59.734 42.7826164,60.47 42.4166164,60.602 C42.3556164,60.624 42.2556164,60.636 42.1366164,60.636 C41.7066164,60.636 41.1166164,60.492 40.4916164,60.34 C39.6936164,60.146 38.7886164,59.926 37.8576164,59.926 C37.5416164,59.926 37.2346164,59.951 36.9436164,60.002 C35.7166164,60.215 34.6946164,60.895 33.7916164,61.494 C33.1746164,61.904 32.4076164,62.413 32.0026164,62.415 C31.9986164,62.415 31.9936164,62.413 31.9886164,62.413 C31.5826164,62.405 30.8216164,61.902 30.2086164,61.494 C29.3056164,60.895 28.2826164,60.215 27.0566164,60.002 C26.7656164,59.951 26.4586164,59.926 26.1426164,59.926 C25.2116164,59.926 24.3076164,60.146 23.5086164,60.34 C22.8836164,60.492 22.2936164,60.636 21.8636164,60.636 C21.7026164,60.636 21.6196164,60.614 21.5836164,60.602 C21.2186164,60.47 20.6766164,59.735 20.2416164,59.143 C19.5976164,58.268 18.8666164,57.276 17.7796164,56.651 C16.6816164,56.021 15.4426164,55.886 14.3496164,55.767 C13.6226164,55.687 12.7176164,55.589 12.4296164,55.349 C12.1386164,55.106 11.8836164,54.237 11.6796164,53.538 C11.3726164,52.491 11.0246164,51.305 10.2106164,50.344 C9.39961638,49.385 8.28461638,48.842 7.30061638,48.362 C6.64061638,48.041 5.81961638,47.641 5.62661638,47.311 C5.44061638,46.992 5.50061638,46.093 5.54761638,45.371 C5.61961638,44.28 5.70061638,43.045 5.26561638,41.859 C4.83761638,40.693 3.98261638,39.809 3.22961638,39.029 C2.71661638,38.499 2.07861638,37.839 2.01061638,37.452 C1.94861638,37.103 2.32661638,36.253 2.60261638,35.632 C3.05061638,34.623 3.55861638,33.481 3.55861638,32.203 C3.55861638,30.925 3.05061638,29.782 2.60261638,28.774 C2.32661638,28.153 1.94861638,27.303 2.01061638,26.954 C2.07861638,26.567 2.71661638,25.907 3.22961638,25.377 C3.98261638,24.597 4.83761638,23.713 5.26561638,22.547 C5.70061638,21.361 5.61861638,20.125 5.54761638,19.034 C5.50061638,18.312 5.44061638,17.414 5.62661638,17.095 C5.81861638,16.766 6.64061638,16.365 7.29961638,16.044 C8.28361638,15.564 9.39861638,15.021 10.2096164,14.063 C11.0236164,13.101 11.3716164,11.915 11.6786164,10.868 C11.8826164,10.17 12.1376164,9.3 12.4286164,9.058 C12.7166164,8.818 13.6216164,8.719 14.3486164,8.639 C15.4416164,8.52 16.6816164,8.385 17.7786164,7.755 C18.8656164,7.131 19.5966164,6.138 20.2416164,5.262 C20.6766164,4.672 21.2186164,3.936 21.5836164,3.804 C21.6446164,3.782 21.7446164,3.77 21.8636164,3.77 C22.2936164,3.77 22.8846164,3.913 23.5086164,4.066 C24.3076164,4.26 25.2116164,4.48 26.1436164,4.48 C26.4586164,4.48 26.7666164,4.454 27.0566164,4.404 C28.2826164,4.191 29.3066164,3.511 30.2096164,2.911 C30.8266164,2.501 31.5956164,1.99 32.0006164,1.99 C32.4046164,1.99 33.1736164,2.501 33.7916164,2.911 C34.6946164,3.511 35.7176164,4.191 36.9446164,4.404 C37.2346164,4.454 37.5426164,4.48 37.8576164,4.48 C38.7886164,4.48 39.6936164,4.26 40.4916164,4.066 C41.1166164,3.913 41.7066164,3.77 42.1366164,3.77 C42.2976164,3.77 42.3806164,3.791 42.4176164,3.804 C42.7816164,3.936 43.3236164,4.671 43.7576164,5.262 C44.4026164,6.138 45.1336164,7.131 46.2206164,7.755 C47.3186164,8.384 48.5576164,8.52 49.6516164,8.639 C50.3776164,8.718 51.2826164,8.817 51.5706164,9.057 C51.8616164,9.299 52.1166164,10.169 52.3216164,10.867 C52.6276164,11.914 52.9756164,13.1 53.7896164,14.062 C54.6006164,15.02 55.7156164,15.564 56.7006164,16.043 C57.3596164,16.365 58.1806164,16.765 58.3736164,17.094 C58.5586164,17.414 58.5006164,18.312 58.4526164,19.034 C58.3806164,20.125 58.2996164,21.361 58.7346164,22.547 C59.1626164,23.713 60.0166164,24.597 60.7706164,25.377 C61.2836164,25.907 61.9206164,26.567 61.9896164,26.954 C62.0506164,27.303 61.6736164,28.153 61.3976164,28.774 C60.9506164,29.782 60.4426164,30.925 60.4426164,32.203 C60.4426164,33.481 60.9506164,34.624 61.3976164,35.632 L61.3976164,35.632 Z M55.7666164,69.776 C55.9826164,70.228 55.7936164,70.602 55.7026164,70.743 C55.6136164,70.877 55.3656164,71.181 54.8996164,71.196 L48.0216164,70.068 L47.8786164,70.054 C46.9296164,70.058 46.0296164,70.461 45.4006164,71.261 L41.1536164,77.629 C40.8416164,78.023 40.4166164,78.021 40.2536164,78.004 C40.0856164,77.986 39.6736164,77.894 39.4586164,77.441 L33.1166164,64.157 C34.5426164,63.594 35.8776164,62.207 37.2906164,61.962 C37.4746164,61.929 37.6646164,61.916 37.8576164,61.916 C39.2296164,61.916 40.7866164,62.626 42.1366164,62.626 C42.4736164,62.626 42.7966164,62.582 43.1026164,62.471 C44.8356164,61.845 45.6506164,59.277 47.2256164,58.373 C47.9946164,57.931 49.0116164,57.839 50.0156164,57.728 L55.7666164,69.776 Z M25.9656164,77.065 C25.7956164,77.536 25.3956164,77.668 25.2306164,77.703 C25.0666164,77.736 24.6466164,77.78 24.3566164,77.486 L19.4806164,71.436 C18.8296164,70.761 17.8816164,70.423 16.9476164,70.538 L9.97661638,72.369 C9.51461638,72.411 9.23361638,72.123 9.13261638,71.998 C9.02761638,71.868 8.80161638,71.513 8.97161638,71.042 L13.7726164,57.703 C14.8436164,57.826 15.9516164,57.901 16.7756164,58.373 C18.3496164,59.278 19.1656164,61.846 20.8976164,62.471 C21.2026164,62.582 21.5266164,62.626 21.8636164,62.626 C23.2146164,62.626 24.7706164,61.916 26.1426164,61.916 C26.3356164,61.916 26.5256164,61.929 26.7096164,61.962 C28.0426164,62.193 29.3066164,63.455 30.6426164,64.069 L25.9656164,77.065 Z M63.9646164,26.611 C63.6446164,24.8 61.2386164,23.555 60.6196164,21.866 C59.9886164,20.148 61.0196164,17.661 60.1086164,16.098 C59.1886164,14.521 56.4996164,14.169 55.3246164,12.782 C54.1476164,11.391 54.2616164,8.702 52.8606164,7.533 C51.4616164,6.368 48.8146164,6.945 47.2246164,6.032 C45.6506164,5.128 44.8346164,2.56 43.1026164,1.934 C42.7976164,1.824 42.4736164,1.78 42.1366164,1.78 C40.7866164,1.78 39.2296164,2.49 37.8576164,2.49 C37.6646164,2.49 37.4746164,2.476 37.2906164,2.444 C35.5156164,2.136 33.8636164,0 32.0006164,0 C30.1366164,0 28.4846164,2.136 26.7106164,2.444 C26.5256164,2.476 26.3356164,2.49 26.1436164,2.49 C24.7706164,2.49 23.2146164,1.78 21.8636164,1.78 C21.5266164,1.78 21.2026164,1.824 20.8976164,1.934 C19.1656164,2.56 18.3496164,5.129 16.7746164,6.032 C15.1856164,6.945 12.5376164,6.369 11.1396164,7.534 C9.73761638,8.702 9.85261638,11.392 8.67461638,12.783 C7.50061638,14.17 4.81061638,14.522 3.89161638,16.099 C2.98061638,17.661 4.01161638,20.148 3.38061638,21.866 C2.76161638,23.555 0.355616383,24.8 0.0356163834,26.611 C-0.275383617,28.371 1.55261638,30.354 1.55261638,32.203 C1.55261638,34.052 -0.275383617,36.035 0.0356163834,37.795 C0.355616383,39.606 2.76161638,40.851 3.38061638,42.539 C4.01161638,44.258 2.98061638,46.745 3.89161638,48.307 C4.81161638,49.885 7.50161638,50.236 8.67561638,51.624 C9.85361638,53.015 9.73761638,55.704 11.1396164,56.872 C11.3366164,57.036 11.5616164,57.159 11.8016164,57.263 L7.08261638,70.373 C6.73061638,71.354 6.91061638,72.426 7.56561638,73.24 C8.22161638,74.053 9.23161638,74.465 10.2776164,74.339 L17.2466164,72.508 C17.5476164,72.496 17.8266164,72.598 17.9736164,72.745 L22.8506164,78.795 C23.4266164,79.391 24.2036164,79.715 25.0126164,79.715 C25.2246164,79.715 25.4386164,79.694 25.6506164,79.649 C26.6776164,79.431 27.5006164,78.715 27.8546164,77.734 L31.9486164,66.358 L37.6466164,78.293 C38.0956164,79.235 38.9876164,79.866 40.0316164,79.982 C40.1436164,79.994 40.2566164,80 40.3696164,80 C41.2896164,80 42.1606164,79.58 42.7786164,78.792 L47.0256164,72.425 C47.2076164,72.195 47.4846164,72.055 47.7766164,72.045 L54.6546164,73.173 L54.7956164,73.186 C55.8466164,73.207 56.8136164,72.699 57.3846164,71.824 C57.9556164,70.95 58.0286164,69.866 57.5786164,68.924 L52.0386164,57.319 C52.3376164,57.206 52.6226164,57.07 52.8616164,56.872 C54.2626164,55.703 54.1476164,53.014 55.3256164,51.623 C56.4996164,50.236 59.1896164,49.884 60.1096164,48.307 C61.0196164,46.744 59.9886164,44.258 60.6196164,42.539 C61.2386164,40.851 63.6446164,39.606 63.9646164,37.796 C64.2756164,36.035 62.4476164,34.052 62.4476164,32.203 C62.4476164,30.354 64.2756164,28.371 63.9646164,26.611 L63.9646164,26.611 Z" id="Fill-3"></path>
            <path d="M21.7564164,27.8313 C21.5724164,27.8313 21.4464164,27.8663 21.3804164,27.9363 C21.3134164,28.0063 21.1714164,28.1923 20.9514164,28.4963 C20.7324164,28.7983 20.4804164,29.0723 20.1964164,29.3173 C19.9124164,29.5623 19.5334164,29.7953 19.0604164,30.0173 C18.7424164,30.1643 18.5214164,30.2853 18.3964164,30.3783 C18.2714164,30.4723 18.2084164,30.6173 18.2084164,30.8153 C18.2084164,30.9863 18.2724164,31.1373 18.3994164,31.2673 C18.5264164,31.3973 18.6724164,31.4623 18.8374164,31.4623 C19.1814164,31.4623 19.8514164,31.0833 20.8454164,30.3263 L20.8454164,35.6303 C20.8454164,35.9413 20.9184164,36.1763 21.0634164,36.3353 C21.2084164,36.4953 21.4004164,36.5753 21.6384164,36.5753 C22.1754164,36.5753 22.4434164,36.1843 22.4434164,35.4033 L22.4434164,28.7283 C22.4434164,28.4493 22.3814164,28.2293 22.2554164,28.0703 C22.1304164,27.9113 21.9644164,27.8313 21.7564164,27.8313" id="Fill-4"></path>
            <path d="M29.1544164,31.6667 C29.0154164,31.9077 28.8354164,32.0907 28.6134164,32.2177 C28.3924164,32.3437 28.1604164,32.4067 27.9184164,32.4067 C27.5224164,32.4067 27.1954164,32.2537 26.9374164,31.9467 C26.6784164,31.6397 26.5494164,31.2277 26.5494164,30.7107 C26.5494164,30.1897 26.6784164,29.7707 26.9374164,29.4547 C27.1954164,29.1377 27.5104164,28.9787 27.8824164,28.9787 C28.0984164,28.9787 28.2974164,29.0257 28.4794164,29.1197 C28.6604164,29.2127 28.8174164,29.3407 28.9484164,29.5037 C29.0804164,29.6667 29.1814164,29.8607 29.2544164,30.0837 C29.3264164,30.3077 29.3624164,30.5517 29.3624164,30.8157 C29.3624164,31.1417 29.2934164,31.4257 29.1544164,31.6667 M30.2914164,28.9007 C30.0204164,28.5527 29.6884164,28.2877 29.2924164,28.1047 C28.8974164,27.9227 28.4464164,27.8317 27.9414164,27.8317 C27.5024164,27.8317 27.1024164,27.9047 26.7404164,28.0527 C26.3784164,28.2007 26.0654164,28.4067 25.8034164,28.6707 C25.5404164,28.9347 25.3394164,29.2467 25.1984164,29.6057 C25.0574164,29.9657 24.9864164,30.3457 24.9864164,30.7457 C24.9864164,31.1187 25.0494164,31.4757 25.1744164,31.8147 C25.3004164,32.1557 25.4794164,32.4527 25.7124164,32.7077 C25.9454164,32.9617 26.2214164,33.1597 26.5404164,33.3017 C26.8594164,33.4437 27.2034164,33.5147 27.5714164,33.5147 C27.9594164,33.5147 28.3124164,33.4377 28.6314164,33.2847 C28.9504164,33.1307 29.2394164,32.9027 29.4984164,32.5997 C29.4434164,33.6527 29.2754164,34.3867 28.9924164,34.8027 C28.8514164,35.0087 28.6814164,35.1677 28.4824164,35.2807 C28.2814164,35.3937 28.0704164,35.4497 27.8474164,35.4497 C27.5964164,35.4497 27.3714164,35.3787 27.1724164,35.2367 C26.9724164,35.0947 26.8294164,34.9077 26.7434164,34.6747 C26.6724164,34.4837 26.5694164,34.3407 26.4314164,34.2457 C26.2944164,34.1507 26.1394164,34.1037 25.9674164,34.1037 C25.7794164,34.1037 25.6254164,34.1667 25.5034164,34.2957 C25.3824164,34.4237 25.3214164,34.5697 25.3214164,34.7327 C25.3214164,34.9967 25.4194164,35.2717 25.6154164,35.5577 C25.8114164,35.8427 26.0964164,36.0827 26.4724164,36.2747 C26.8484164,36.4667 27.2914164,36.5627 27.8004164,36.5627 C28.3174164,36.5627 28.7794164,36.4687 29.1864164,36.2807 C29.5934164,36.0917 29.9434164,35.8047 30.2354164,35.4177 C30.5274164,35.0307 30.7494164,34.5527 30.9024164,33.9837 C31.0544164,33.4147 31.1314164,32.7567 31.1314164,32.0107 C31.1314164,31.3417 31.0584164,30.7437 30.9134164,30.2147 C30.7684164,29.6867 30.5614164,29.2487 30.2914164,28.9007" id="Fill-5"></path>
            <path d="M37.5333164,27.965 L33.6213164,27.965 C33.3113164,27.965 33.0713164,28.004 32.8993164,28.082 C32.7273164,28.159 32.6403164,28.332 32.6403164,28.6 C32.6403164,28.853 32.7213164,29.039 32.8843164,29.157 C33.0473164,29.276 33.2923164,29.335 33.6213164,29.335 L36.7633164,29.335 C36.2703164,29.957 35.8453164,30.581 35.4863164,31.209 C35.1283164,31.837 34.8293164,32.448 34.5913164,33.045 C34.3513164,33.642 34.1793164,34.153 34.0733164,34.581 C33.9683164,35.008 33.9153164,35.347 33.9153164,35.595 C33.9153164,35.918 33.9873164,36.162 34.1323164,36.327 C34.2773164,36.492 34.4693164,36.575 34.7083164,36.575 C34.9593164,36.575 35.1593164,36.498 35.3093164,36.344 C35.4613164,36.191 35.5773164,35.916 35.6593164,35.52 C35.6943164,35.349 35.7363164,35.102 35.7833164,34.779 C35.8303164,34.457 35.8733164,34.194 35.9123164,33.992 C35.9513164,33.79 36.0173164,33.536 36.1123164,33.229 C36.3353164,32.533 36.5813164,31.944 36.8483164,31.463 C37.1173164,30.981 37.3783164,30.577 37.6303164,30.253 C37.8833164,29.928 38.1083164,29.632 38.3053164,29.364 C38.5043164,29.096 38.6023164,28.881 38.6023164,28.717 C38.6023164,28.449 38.5183164,28.257 38.3493164,28.14 C38.1813164,28.024 37.9093164,27.965 37.5333164,27.965" id="Fill-6"></path>
            <path d="M43.4522164,31.6667 C43.3122164,31.9077 43.1332164,32.0907 42.9112164,32.2177 C42.6902164,32.3437 42.4582164,32.4067 42.2152164,32.4067 C41.8192164,32.4067 41.4922164,32.2537 41.2342164,31.9467 C40.9752164,31.6397 40.8472164,31.2277 40.8472164,30.7107 C40.8472164,30.1897 40.9752164,29.7707 41.2342164,29.4547 C41.4922164,29.1377 41.8072164,28.9787 42.1802164,28.9787 C42.3952164,28.9787 42.5942164,29.0257 42.7762164,29.1197 C42.9582164,29.2127 43.1152164,29.3407 43.2462164,29.5037 C43.3772164,29.6667 43.4792164,29.8607 43.5522164,30.0837 C43.6242164,30.3077 43.6602164,30.5517 43.6602164,30.8157 C43.6602164,31.1417 43.5912164,31.4257 43.4522164,31.6667 M44.5882164,28.9007 C44.3182164,28.5527 43.9852164,28.2877 43.5902164,28.1047 C43.1942164,27.9227 42.7442164,27.8317 42.2382164,27.8317 C41.8002164,27.8317 41.3992164,27.9047 41.0372164,28.0527 C40.6752164,28.2007 40.3632164,28.4067 40.1002164,28.6707 C39.8382164,28.9347 39.6372164,29.2467 39.4952164,29.6057 C39.3542164,29.9657 39.2842164,30.3457 39.2842164,30.7457 C39.2842164,31.1187 39.3472164,31.4757 39.4722164,31.8147 C39.5982164,32.1557 39.7762164,32.4527 40.0102164,32.7077 C40.2422164,32.9617 40.5182164,33.1597 40.8382164,33.3017 C41.1572164,33.4437 41.5002164,33.5147 41.8682164,33.5147 C42.2562164,33.5147 42.6092164,33.4377 42.9292164,33.2847 C43.2482164,33.1307 43.5372164,32.9027 43.7952164,32.5997 C43.7402164,33.6527 43.5722164,34.3867 43.2902164,34.8027 C43.1492164,35.0087 42.9782164,35.1677 42.7792164,35.2807 C42.5792164,35.3937 42.3682164,35.4497 42.1442164,35.4497 C41.8932164,35.4497 41.6692164,35.3787 41.4692164,35.2367 C41.2692164,35.0947 41.1272164,34.9077 41.0402164,34.6747 C40.9702164,34.4837 40.8662164,34.3407 40.7282164,34.2457 C40.5922164,34.1507 40.4372164,34.1037 40.2642164,34.1037 C40.0772164,34.1037 39.9222164,34.1667 39.8012164,34.2957 C39.6802164,34.4237 39.6192164,34.5697 39.6192164,34.7327 C39.6192164,34.9967 39.7172164,35.2717 39.9122164,35.5577 C40.1082164,35.8427 40.3942164,36.0827 40.7702164,36.2747 C41.1462164,36.4667 41.5892164,36.5627 42.0982164,36.5627 C42.6142164,36.5627 43.0772164,36.4687 43.4842164,36.2807 C43.8912164,36.0917 44.2412164,35.8047 44.5322164,35.4177 C44.8242164,35.0307 45.0472164,34.5527 45.1992164,33.9837 C45.3512164,33.4147 45.4292164,32.7567 45.4292164,32.0107 C45.4292164,31.3417 45.3552164,30.7437 45.2112164,30.2147 C45.0662164,29.6867 44.8582164,29.2487 44.5882164,28.9007" id="Fill-7"></path>
        </g>
    </g>
</svg>