<svg width="700" height="700" xmlns="http://www.w3.org/2000/svg" version="1.1">

 <g>
  <title>Layer 1</title>
  <g stroke="null" id="svg_22">
   <path stroke="#FFFFFF" id="svg_23" stroke-miterlimit="10" stroke-linejoin="round" stroke-linecap="round" fill="#FFFFFF" d="m502.69854,242.84196c0,-78.54058 -68.21728,-142.26459 -152.29903,-142.26459s-152.29903,63.72268 -152.29903,142.26459s68.21728,142.26459 152.29903,142.26459s152.29903,-63.72268 152.29903,-142.26459zm-272.8691,0c0,-62.23943 53.93641,-112.62745 120.57149,-112.62745c66.62941,0 120.57149,50.38273 120.57149,112.62745c0,62.23943 -53.93641,112.62745 -120.57149,112.62745c-66.62941,0 -120.57149,-50.38802 -120.57149,-112.62745z"/>
   <path stroke="#FFFFFF" id="svg_24" stroke-miterlimit="10" stroke-linejoin="round" stroke-linecap="round" fill="#FFFFFF" d="m527.28849,373.25117l26.9682,-10.37319c6.3465,-2.22249 10.31361,-8.88995 9.51699,-15.56284l-7.13774,-52.61091l34.1058,-42.23745c3.96725,-5.18924 3.96725,-12.59568 0,-17.7844l-34.1058,-42.23745l7.13774,-52.61091c0.79123,-6.66746 -3.17049,-12.59568 -9.51699,-15.56284l-53.14602,-22.21429l-22.21028,-48.90478c-2.37925,-5.92835 -9.51699,-9.63409 -16.66054,-8.88995l-56.31608,6.66746l-45.21661,-31.85869c-5.55526,-3.70587 -13.4841,-3.70587 -19.0388,0l-46.79314,31.85869l-56.32175,-6.66746c-7.13774,-1.48338 -13.4841,2.22249 -16.65487,8.88995l-22.21028,48.90478l-52.35421,20.74692c-6.3465,2.22249 -10.31361,8.88995 -9.51699,15.56284l7.13774,52.61091l-34.1058,42.23745c-3.96725,5.18924 -3.96725,12.59568 0,17.7844l34.1058,42.23745l-7.13774,52.61091c-0.79123,6.66746 3.17049,12.59568 9.51699,15.56284l26.9682,10.37319l-128.50089,228.94384c-3.17049,5.92835 -2.37925,12.59568 2.37925,17.04079s12.69286,5.92835 18.24274,2.9616l89.63574,-42.23745l12.69286,92.62017c0.79123,6.66746 6.3465,11.85657 12.69286,12.59568l3.17049,0c5.55526,0 11.10485,-2.9616 14.2752,-8.15084l124.53902,-220.80649l17.45093,11.85657c3.17049,2.22249 6.3465,2.9616 9.51699,2.9616s6.3465,-0.7391 9.51699,-2.9616l17.45093,-11.85657l123.74155,220.80649c3.17049,5.18924 7.93451,8.15084 14.2752,8.15084l3.17049,0c7.13774,-1.48338 11.8961,-5.92835 12.69286,-12.59568l12.69286,-92.62017l89.63574,42.23745c6.3465,2.9616 13.4841,1.48338 18.24274,-2.9616s5.55526,-11.85657 2.37925,-17.04079l-126.90765,-227.47647zm-332.36091,247.4811l-9.51699,-66.68388c-0.79123,-4.44497 -3.96725,-8.88995 -7.93451,-11.1123c-4.75849,-2.22249 -10.31361,-2.22249 -14.2752,0l-65.04721,31.12038l104.70842,-185.98131l20.62241,45.19864c2.37925,5.92835 9.51699,9.63409 16.66054,8.88995l56.32175,-6.66746l2.37925,2.22249l-103.91845,183.01349zm155.47193,-183.75843l-21.41847,-15.56284s-0.79123,0 -0.79123,-0.7391l-19.0388,-13.33466c-2.37925,-2.22249 -6.3465,-2.9616 -9.51699,-2.9616l-1.58801,0l-50.76634,5.92835l-19.8306,-44.46033c-1.58801,-3.70587 -4.75849,-6.66746 -8.72575,-8.15084l-47.59628,-18.52403l6.3465,-47.42153c0.79123,-3.70587 -0.79123,-7.41173 -3.17049,-11.1123l-30.93574,-38.53132l30.93574,-38.53132c2.37925,-2.9616 3.96725,-6.66746 3.17049,-11.1123l-6.3465,-48.15984l47.59628,-18.52403c3.96725,-1.48338 7.13774,-4.44497 8.72575,-8.15084l19.8306,-44.46033l50.76634,5.92835c3.96725,0.7391 7.93451,-0.7391 11.8961,-2.9616l40.45726,-27.41954l41.24907,28.89749c3.17049,2.22249 7.13774,3.70587 11.8961,2.9616l50.76634,-5.92835l19.8306,44.46033c1.58801,3.70587 4.75849,6.66746 8.72575,8.15084l47.59628,18.52403l-6.3465,48.15984c-0.79123,3.70587 0.79123,7.41173 3.17049,11.1123l30.93574,38.53132l-30.93574,38.53132c-2.37925,2.9616 -3.96725,6.66746 -3.17049,11.1123l6.3465,47.42153l-47.59628,18.52403c-3.96725,1.48338 -7.13774,4.44497 -8.72575,8.15084l-19.8306,44.46033l-51.55674,-5.92835c-3.96725,-0.7391 -7.93451,0.7391 -11.8961,2.9616l-19.0388,13.33466l-0.79123,0.7391l-20.62853,14.08488zm187.99412,105.22049c-4.75849,-2.22249 -10.31361,-2.22249 -14.2752,0c-4.75849,2.22249 -7.93451,6.66746 -7.93451,11.1123l-9.51699,66.68388l-103.12055,-183.75843l2.37925,-2.22249l56.32175,6.66746c7.13774,0.7391 13.4841,-2.9616 16.66054,-8.88995l20.62241,-45.19864l104.70842,185.98131l-65.84511,-30.37545z"/>
  </g>
 </g>
</svg>