<svg width="700" height="700" xmlns="http://www.w3.org/2000/svg" version="1.1">

 <g>
  <title>Layer 1</title>
  <g stroke="null" id="svg_23">
   <path stroke="#007032" id="svg_24" stroke-miterlimit="10" stroke-linejoin="round" stroke-linecap="round" fill="#007032" d="m603.44469,310.6787c-20.89534,0 -38.29961,13.91129 -41.96193,32.18586l-26.71629,0c-1.56678,-33.39596 -13.50206,-64.33991 -32.92481,-90.20144c10.76763,-13.57039 18.25451,-28.70216 21.56982,-44.83312c20.81272,-2.60925 36.92061,-19.04349 36.92061,-38.90709c0,-21.67944 -19.16483,-39.30677 -42.701,-39.30677c-23.53618,0 -42.69499,17.63287 -42.69499,39.30677c0,18.49169 13.95391,34.00723 32.68446,38.17273c-2.74028,11.93351 -8.01549,23.24081 -15.55509,33.61861c-32.38552,-36.03881 -80.36069,-59.78164 -134.32805,-62.38992l0.00587,-23.02368c19.85132,-3.37099 34.96026,-19.39339 34.96026,-38.63188c0,-21.67944 -19.16483,-39.3123 -42.701,-39.3123c-23.54819,0 -42.69499,17.63287 -42.69499,39.3123c0,19.23711 15.09842,35.2602 34.95576,38.63188l0,22.92134c-53.76156,1.45862 -101.88995,23.86729 -135.07313,58.69047c-6.15549,-9.32426 -10.56815,-19.31317 -12.97389,-29.79885c18.71868,-4.16509 32.67244,-19.67966 32.67244,-38.17273c0,-21.67944 -19.15281,-39.30677 -42.69499,-39.30677c-23.53618,0 -42.69499,17.63287 -42.69499,39.30677c0,19.8636 16.10188,36.29189 36.9146,38.90709c2.99265,14.55299 9.37106,28.29695 18.49486,40.82527c-21.24234,26.6443 -34.37441,59.06802 -36.02231,94.20376l-22.36898,0c-3.66157,-18.28701 -21.06509,-32.18586 -41.96193,-32.18586c-23.54819,0 -42.69499,17.63287 -42.69499,39.3123c0,21.67944 19.15281,39.3123 42.69499,39.3123c20.89534,0 38.29961,-13.90023 41.96193,-32.18171l22.34495,0c1.50804,35.86594 14.93964,68.94796 36.79743,95.96566c-9.54125,12.79247 -16.16647,26.91398 -19.24595,41.87218c-20.81272,2.60925 -36.92061,19.03796 -36.92061,38.90156c0,21.67944 19.16483,39.3123 42.701,39.3123c23.53618,0 42.69499,-17.63287 42.69499,-39.3123c0,-18.49169 -13.95391,-34.00723 -32.67244,-38.1672c2.50564,-10.93404 7.19995,-21.32816 13.772,-30.98682c33.15314,34.33084 80.94203,56.38783 134.27547,57.8358l0,22.14411c-19.85132,3.37099 -34.95576,19.38371 -34.95576,38.63188c0,21.67944 19.15281,39.3123 42.69499,39.3123c23.54819,0 42.701,-17.63287 42.701,-39.3123c0,-19.23711 -15.11044,-35.2602 -34.96026,-38.63188l0,-22.25752c53.52722,-2.58767 101.15688,-25.98462 133.53039,-61.53663c7.98034,10.69644 13.50791,22.43039 16.35425,34.80658c-18.71868,4.16509 -32.68446,19.66998 -32.68446,38.1672c0,21.67944 19.16483,39.3123 42.701,39.3123s42.69499,-17.63287 42.69499,-39.3123c0,-19.8636 -16.10188,-36.29189 -36.9146,-38.90156c-3.39748,-16.52511 -11.16076,-32.00884 -22.36297,-45.833c20.02708,-26.25983 32.3029,-57.86899 33.73448,-92.00483l26.69827,0c3.66157,18.27595 21.06509,32.18171 41.94991,32.18171c23.54819,0 42.69499,-17.63287 42.69499,-39.3123c0,-21.68497 -19.1468,-39.3289 -42.69499,-39.3289l-0.00032,-0.00138zm-105.27586,-141.75441c0,-9.89142 8.74315,-17.9302 19.47578,-17.9302c10.74991,0 19.48179,8.0493 19.48179,17.9302s-8.74315,17.93574 -19.48179,17.93574c-10.73819,0 -19.47578,-8.04391 -19.47578,-17.93574zm-333.43916,0c0,-9.89142 8.74315,-17.9302 19.47578,-17.9302s19.47578,8.0493 19.47578,17.9302s-8.74315,17.93574 -19.47578,17.93574s-19.47578,-8.04391 -19.47578,-17.93574zm-68.15546,198.99553c-10.74405,0 -19.47578,-8.0493 -19.47578,-17.93574c0,-9.89142 8.74315,-17.93574 19.47578,-17.93574c10.74991,0 19.48179,8.0493 19.48179,17.93574c0,9.89142 -8.73729,17.93574 -19.48179,17.93574zm107.10702,165.92872c0,9.89142 -8.74315,17.93574 -19.47578,17.93574c-10.74991,0 -19.48179,-8.0493 -19.48179,-17.93574c0,-9.89142 8.74315,-17.9302 19.48179,-17.9302c10.74405,0.00541 19.47578,8.0493 19.47578,17.9302zm333.43916,0c0,9.89142 -8.74315,17.93574 -19.47578,17.93574c-10.74991,0 -19.48179,-8.0493 -19.48179,-17.93574c0,-9.89142 8.74315,-17.9302 19.48179,-17.9302c10.73233,0.00541 19.47578,8.0493 19.47578,17.9302zm-51.14476,-264.36851c14.85747,21.41944 23.91773,46.4747 25.37334,73.39421l-45.92168,0c-1.20879,-17.5568 -5.2342,-34.65031 -11.83554,-50.95967c12.0526,-6.45031 22.94281,-13.99704 32.38552,-22.43592l-0.00165,0.00138zm-9.07182,-11.80392c-8.46149,7.86025 -18.31309,14.89459 -29.31657,20.93955c-14.705,-29.09077 -37.97063,-55.15699 -68.19602,-76.27908c39.38569,7.1039 73.67147,27.26525 97.51259,55.34092l0,-0.00138zm-26.61715,99.4383c-0.3286,16.4117 -3.3036,32.45139 -8.78431,47.83139c-24.59822,-10.98811 -53.19224,-17.61627 -83.77064,-18.48063l0,-29.35077l92.55494,0zm-92.54187,-14.2515l0,-26.54057c29.83783,-0.84275 57.76938,-7.19573 81.9515,-17.71446c5.57444,14.21831 9.09526,29.04237 10.23947,44.25503l-92.19096,0zm76.10651,-57.50665c-22.35095,9.80498 -48.28762,15.75341 -76.10651,16.59564l0,-96.30034c34.49158,21.10689 60.56194,48.60862 76.10651,79.7047zm-184.45283,57.50665c1.10903,-15.56947 4.67088,-30.73374 10.42138,-45.26045c24.22868,10.90707 52.342,17.60521 82.45022,18.68669l0,26.57377l-92.8716,0zm92.87085,14.2515l0,29.38258c-30.71209,1.10745 -59.34818,8.07087 -83.90433,19.36711c-5.74464,-15.66075 -8.87218,-32.01852 -9.27131,-48.76075l93.17579,0.00541l-0.00015,0.00566zm-76.56467,-72.75113c15.66174,-31.12788 41.90335,-58.62547 76.57068,-79.69917l0,97.23523c-28.07727,-1.09125 -54.2017,-7.34163 -76.57068,-17.53606zm54.12509,-82.52458c-29.955,20.96582 -53.06305,46.79417 -67.76189,75.60419c-11.65362,-6.62857 -21.93936,-14.40225 -30.59492,-23.079c24.42246,-27.20025 59.03722,-46.26449 98.35832,-52.52519l-0.0015,0zm-107.76948,64.08682c9.71731,9.34583 21.14771,17.69786 33.9523,24.77452c-6.83027,16.67723 -10.90839,34.18563 -12.0879,52.16977l-49.60202,0c1.53147,-28.38822 11.41898,-54.77805 27.73778,-76.94429l-0.00015,0zm0.93299,170.07763c-16.98216,-22.60879 -27.30365,-49.68457 -28.71119,-78.87768l49.33764,0c0.42249,19.2053 4.13686,37.94039 10.99642,55.77794c-11.83554,6.67712 -22.46212,14.44512 -31.62242,23.09975l-0.00045,0zm9.50595,11.45265c8.05079,-7.88182 17.36822,-15.06192 27.93757,-21.22582c12.70395,26.24462 32.2969,50.20872 57.9166,70.46646c-34.03342,-7.79539 -63.92532,-25.28207 -85.85266,-49.24064l-0.0015,0zm117.30533,53.47668c-34.93773,-21.86337 -60.82632,-50.06766 -75.8256,-81.74596c22.73852,-10.64776 49.50739,-17.16266 78.29519,-18.27595l0,100.13531c-0.82737,-0.02701 -1.64309,-0.08103 -2.47034,-0.11345l0.00075,0.00004zm29.69211,82.38351c0,9.89142 -8.74315,17.93574 -19.48179,17.93574c-10.74405,0 -19.47578,-8.0493 -19.47578,-17.93574c0,-9.89142 8.74315,-17.9302 19.47578,-17.9302c10.73819,0.00541 19.48179,8.04391 19.48179,17.9302zm-19.4878,-448.71839c-10.74405,0 -19.47578,-8.0493 -19.47578,-17.93574c0,-9.89142 8.74315,-17.93574 19.47578,-17.93574c10.74991,0 19.48179,8.0493 19.48179,17.93574c0.00587,9.89142 -8.73729,17.93574 -19.48179,17.93574zm7.73969,366.23807l0,-100.00117c28.73522,0.87516 55.49208,7.17416 78.33575,17.56233c-14.71086,31.84011 -40.43571,60.22419 -75.21421,82.2867c-1.03275,0.08103 -2.08307,0.09724 -3.12168,0.15126l0.00015,0.00087zm35.87059,-5.63989c24.83256,-20.20381 43.82163,-43.9411 56.06741,-69.89391c9.77589,5.55345 18.58348,11.91193 26.29418,18.93424c-20.84276,24.07197 -49.46082,42.12111 -82.36159,50.95967zm91.51588,-62.63332c-8.76658,-7.71974 -18.74272,-14.68299 -29.72066,-20.71689c6.52517,-17.52499 10.01069,-35.91434 10.35679,-54.74071l45.61674,0c-1.33201,27.75067 -10.73233,53.56795 -26.25362,75.4576l0.00075,0zm118.30879,-64.64278c-10.74405,0 -19.47578,-8.0493 -19.47578,-17.93574c0,-9.89142 8.74315,-17.93574 19.47578,-17.93574c10.73233,0 19.47578,8.0493 19.47578,17.93574c0,9.89142 -8.73143,17.93574 -19.47578,17.93574z"/>
  </g>
 </g>
</svg>