<svg width="80px" height="80px" viewBox="0 0 80 80" version="1.1" xmlns="http://www.w3.org/2000/svg" xmlns:xlink="http://www.w3.org/1999/xlink">
    <g id="Page-1" stroke="none" stroke-width="1" fill="none" fill-rule="evenodd">
        <g id="Group-19" fill="#000000">
            <path d="M39.9996,2.017 C41.9566,2.017 43.5476,3.609 43.5476,5.565 C43.5476,7.522 41.9566,9.115 39.9996,9.115 C38.0426,9.115 36.4516,7.522 36.4516,5.565 C36.4516,3.609 38.0426,2.017 39.9996,2.017 M39.9996,11.132 C43.0686,11.132 45.5646,8.635 45.5646,5.565 C45.5646,2.497 43.0686,0 39.9996,0 C36.9306,0 34.4346,2.497 34.4346,5.565 C34.4346,8.635 36.9306,11.132 39.9996,11.132" id="Fill-1"></path>
            <path d="M39.9996,77.9828 C38.0426,77.9828 36.4516,76.3908 36.4516,74.4348 C36.4516,72.4778 38.0426,70.8848 39.9996,70.8848 C41.9566,70.8848 43.5476,72.4778 43.5476,74.4348 C43.5476,76.3908 41.9566,77.9828 39.9996,77.9828 M39.9996,68.8678 C36.9306,68.8678 34.4346,71.3648 34.4346,74.4348 C34.4346,77.5028 36.9306,79.9998 39.9996,79.9998 C43.0686,79.9998 45.5646,77.5028 45.5646,74.4348 C45.5646,71.3648 43.0686,68.8678 39.9996,68.8678" id="Fill-3"></path>
            <path d="M13.1417,13.142 C13.8337,12.45 14.7427,12.104 15.6507,12.104 C16.5597,12.104 17.4687,12.45 18.1607,13.142 C19.5437,14.525 19.5437,16.777 18.1607,18.161 C16.7767,19.544 14.5257,19.544 13.1417,18.161 C11.7587,16.777 11.7587,14.525 13.1417,13.142 M15.6507,21.214 C17.0767,21.214 18.5017,20.672 19.5867,19.587 C21.7567,17.417 21.7567,13.886 19.5867,11.716 C17.4167,9.546 13.8857,9.546 11.7157,11.716 C9.5457,13.886 9.5457,17.417 11.7157,19.587 C12.8007,20.672 14.2257,21.214 15.6507,21.214" id="Fill-4"></path>
            <path d="M66.8575,66.8578 C65.5175,68.1978 63.1795,68.1978 61.8385,66.8578 C61.1685,66.1878 60.7995,65.2968 60.7995,64.3488 C60.7995,63.4008 61.1685,62.5098 61.8385,61.8388 C62.5095,61.1688 63.4005,60.7998 64.3485,60.7998 C65.2965,60.7998 66.1875,61.1688 66.8575,61.8388 C67.5275,62.5098 67.8965,63.4008 67.8965,64.3488 C67.8965,65.2968 67.5275,66.1878 66.8575,66.8578 M64.3485,58.7828 C62.8615,58.7828 61.4645,59.3618 60.4125,60.4128 C59.3615,61.4648 58.7825,62.8618 58.7825,64.3488 C58.7825,65.8358 59.3615,67.2328 60.4125,68.2838 C61.4645,69.3358 62.8615,69.9148 64.3485,69.9148 C65.8355,69.9148 67.2325,69.3358 68.2835,68.2838 C69.3355,67.2328 69.9145,65.8358 69.9145,64.3488 C69.9145,62.8618 69.3355,61.4648 68.2835,60.4128 C67.2325,59.3618 65.8355,58.7828 64.3485,58.7828" id="Fill-5"></path>
            <path d="M5.565,43.5482 C3.608,43.5482 2.017,41.9562 2.017,40.0002 C2.017,38.0432 3.608,36.4512 5.565,36.4512 C7.522,36.4512 9.114,38.0432 9.114,40.0002 C9.114,41.9562 7.522,43.5482 5.565,43.5482 M5.565,34.4342 C2.497,34.4342 1.77635684e-15,36.9312 1.77635684e-15,40.0002 C1.77635684e-15,43.0692 2.497,45.5652 5.565,45.5652 C8.634,45.5652 11.131,43.0692 11.131,40.0002 C11.131,36.9312 8.634,34.4342 5.565,34.4342" id="Fill-6"></path>
            <path d="M74.4342,43.5482 C72.4772,43.5482 70.8852,41.9562 70.8852,40.0002 C70.8852,38.0432 72.4772,36.4512 74.4342,36.4512 C76.3912,36.4512 77.9822,38.0432 77.9822,40.0002 C77.9822,41.9562 76.3912,43.5482 74.4342,43.5482 M74.4342,34.4342 C71.3652,34.4342 68.8682,36.9312 68.8682,40.0002 C68.8682,43.0692 71.3652,45.5652 74.4342,45.5652 C77.5022,45.5652 79.9992,43.0692 79.9992,40.0002 C79.9992,36.9312 77.5022,34.4342 74.4342,34.4342" id="Fill-7"></path>
            <path d="M18.1602,66.8578 C16.7762,68.2418 14.5252,68.2408 13.1412,66.8578 C12.4712,66.1878 12.1022,65.2968 12.1022,64.3488 C12.1022,63.4008 12.4712,62.5098 13.1412,61.8388 C13.8332,61.1478 14.7422,60.8018 15.6512,60.8018 C16.5592,60.8018 17.4682,61.1478 18.1602,61.8388 C18.8302,62.5098 19.1992,63.4008 19.1992,64.3488 C19.1992,65.2968 18.8302,66.1878 18.1602,66.8578 M11.7152,60.4128 C10.6642,61.4648 10.0852,62.8618 10.0852,64.3488 C10.0852,65.8358 10.6642,67.2328 11.7152,68.2838 C12.8002,69.3698 14.2252,69.9118 15.6512,69.9118 C17.0762,69.9118 18.5012,69.3688 19.5862,68.2838 C20.6382,67.2328 21.2162,65.8358 21.2162,64.3488 C21.2162,62.8618 20.6382,61.4648 19.5862,60.4128 C17.4162,58.2428 13.8852,58.2428 11.7152,60.4128" id="Fill-8"></path>
            <path d="M61.839,13.142 C62.509,12.472 63.401,12.103 64.348,12.103 C65.297,12.103 66.187,12.472 66.858,13.142 C68.241,14.525 68.241,16.777 66.858,18.161 C65.517,19.5 63.18,19.501 61.839,18.161 C60.456,16.777 60.456,14.525 61.839,13.142 M64.348,21.217 C65.835,21.217 67.233,20.638 68.284,19.587 C70.454,17.417 70.454,13.886 68.284,11.716 C67.233,10.664 65.835,10.085 64.348,10.085 C62.862,10.085 61.464,10.664 60.413,11.716 C58.243,13.886 58.243,17.417 60.413,19.587 C61.464,20.638 62.862,21.217 64.348,21.217" id="Fill-9"></path>
            <path d="M45.4903,58.3471 C47.0463,56.6271 48.3473,54.1971 49.2893,51.2651 C50.8823,51.8401 52.3473,52.5631 53.6493,53.4221 C51.4143,55.6941 48.6203,57.4091 45.4903,58.3471 M26.3543,53.4221 C27.6253,52.5841 29.0513,51.8721 30.6003,51.3041 C31.5343,54.1951 32.8183,56.5951 34.3523,58.3051 C31.2863,57.3571 28.5513,55.6561 26.3543,53.4221 M34.3523,21.6951 C32.8183,23.4051 31.5343,25.8051 30.6013,28.6961 C29.0523,28.1281 27.6263,27.4161 26.3553,26.5771 C28.5523,24.3451 31.2863,22.6431 34.3523,21.6951 M53.6483,26.5781 C52.3463,27.4361 50.8813,28.1601 49.2893,28.7351 C48.3473,25.8041 47.0463,23.3741 45.4903,21.6541 C48.6193,22.5921 51.4143,24.3061 53.6483,26.5781 M50.9143,41.0091 L59.1083,41.0091 C58.8933,45.1111 57.3953,48.8741 54.9903,51.8971 C53.4643,50.8601 51.7283,49.9971 49.8393,49.3261 C50.4683,46.8071 50.8443,44.0011 50.9143,41.0091 M41.0103,47.7041 L41.0103,41.0091 L48.8973,41.0091 C48.8263,43.7571 48.4743,46.3721 47.8943,48.7191 C45.7163,48.1271 43.3943,47.7811 41.0103,47.7041 M41.0103,59.0001 L41.0103,49.7211 C43.2123,49.7971 45.3513,50.1151 47.3533,50.6571 C45.9133,55.1371 43.6133,58.3051 41.0103,59.0001 M38.9923,49.7211 L38.9923,59.0421 C36.3443,58.4191 33.9993,55.2231 32.5353,50.6861 C34.5693,50.1251 36.7483,49.7981 38.9923,49.7211 M30.9803,41.0091 L38.9923,41.0091 L38.9923,47.7041 C36.5653,47.7831 34.2023,48.1381 31.9903,48.7491 C31.4063,46.3951 31.0523,43.7691 30.9803,41.0091 M38.9923,32.2961 L38.9923,38.9921 L30.9803,38.9921 C31.0523,36.2311 31.4063,33.6051 31.9903,31.2501 C34.2023,31.8621 36.5653,32.2171 38.9923,32.2961 M38.9923,20.9581 L38.9923,30.2791 C36.7483,30.2011 34.5693,29.8741 32.5353,29.3131 C33.9993,24.7771 36.3443,21.5811 38.9923,20.9581 M41.0103,30.2791 L41.0103,21.0001 C43.6133,21.6961 45.9133,24.8631 47.3523,29.3431 C45.3513,29.8851 43.2123,30.2031 41.0103,30.2791 M48.8973,38.9921 L41.0103,38.9921 L41.0103,32.2961 C43.3943,32.2191 45.7163,31.8731 47.8943,31.2811 C48.4743,33.6281 48.8263,36.2431 48.8973,38.9921 M59.1083,38.9921 L50.9143,38.9921 C50.8443,35.9991 50.4683,33.1931 49.8393,30.6731 C51.7283,30.0031 53.4633,29.1391 54.9903,28.1021 C57.3953,31.1261 58.8933,34.8891 59.1083,38.9921 M25.0143,28.1021 C26.5093,29.1181 28.2033,29.9691 30.0493,30.6331 C29.4143,33.1631 29.0343,35.9841 28.9643,38.9921 L20.8953,38.9921 C21.1103,34.8891 22.6083,31.1261 25.0143,28.1021 M20.8953,41.0091 L28.9643,41.0091 C29.0343,44.0161 29.4133,46.8371 30.0483,49.3671 C28.2033,50.0311 26.5083,50.8811 25.0133,51.8971 C22.6083,48.8741 21.1103,45.1111 20.8953,41.0091 M56.0273,53.8011 C59.2273,50.0911 61.1773,45.2731 61.1773,40.0001 C61.1773,34.7321 59.2303,29.9181 56.0353,26.2091 C56.0193,26.1851 56.0163,26.1571 55.9983,26.1331 C55.9533,26.0741 55.8923,26.0381 55.8373,25.9921 C51.9553,21.6081 46.3033,18.8261 40.0013,18.8261 C39.9883,18.8261 39.9743,18.8281 39.9613,18.8281 C39.9533,18.8281 39.9463,18.8261 39.9393,18.8261 C39.9143,18.8261 39.8903,18.8321 39.8663,18.8321 C33.6073,18.8721 27.9983,21.6501 24.1443,26.0151 C24.0993,26.0561 24.0463,26.0851 24.0083,26.1351 C23.9933,26.1551 23.9903,26.1791 23.9773,26.1991 C20.7773,29.9101 18.8263,34.7271 18.8263,40.0001 C18.8263,45.2731 20.7773,50.0911 23.9773,53.8021 C23.9903,53.8221 23.9923,53.8451 24.0073,53.8651 C24.0453,53.9141 24.0983,53.9431 24.1423,53.9841 C27.9973,58.3501 33.6063,61.1281 39.8663,61.1681 C39.8903,61.1681 39.9143,61.1751 39.9393,61.1751 C39.9463,61.1751 39.9533,61.1731 39.9613,61.1731 C39.9743,61.1731 39.9883,61.1751 40.0013,61.1751 C46.3313,61.1751 52.0063,58.3691 55.8893,53.9521 C55.9233,53.9191 55.9673,53.9031 55.9963,53.8651 C56.0113,53.8451 56.0133,53.8211 56.0273,53.8011" id="Fill-10"></path>
            <path d="M38.9947,15.0224 C38.9947,15.5794 39.4467,16.0314 40.0027,16.0314 C40.5597,16.0314 41.0117,15.5794 41.0117,15.0224 C41.0117,14.4654 40.5597,14.0134 40.0027,14.0134 C39.4467,14.0134 38.9947,14.4654 38.9947,15.0224" id="Fill-11"></path>
            <path d="M41.0118,64.9784 C41.0118,64.4214 40.5598,63.9694 40.0028,63.9694 C39.4468,63.9694 38.9948,64.4214 38.9948,64.9784 C38.9948,65.5354 39.4468,65.9874 40.0028,65.9874 C40.5598,65.9874 41.0118,65.5354 41.0118,64.9784" id="Fill-12"></path>
            <path d="M23.0543,23.0517 C23.4483,22.6577 23.4483,22.0187 23.0543,21.6247 C22.6603,21.2317 22.0213,21.2317 21.6283,21.6247 C21.2343,22.0187 21.2343,22.6577 21.6283,23.0517 C22.0213,23.4457 22.6603,23.4457 23.0543,23.0517" id="Fill-13"></path>
            <path d="M56.9522,56.9491 C56.5582,57.3431 56.5582,57.9821 56.9522,58.3761 C57.3462,58.7691 57.9842,58.7691 58.3782,58.3761 C58.7722,57.9821 58.7722,57.3431 58.3782,56.9491 C57.9842,56.5551 57.3462,56.5551 56.9522,56.9491" id="Fill-14"></path>
            <path d="M14.0167,40.0004 C14.0167,40.5574 14.4687,41.0094 15.0247,41.0094 C15.5817,41.0094 16.0337,40.5574 16.0337,40.0004 C16.0337,39.4434 15.5817,38.9914 15.0247,38.9914 C14.4687,38.9914 14.0167,39.4434 14.0167,40.0004" id="Fill-15"></path>
            <path d="M63.9727,40.0004 C63.9727,40.5574 64.4247,41.0094 64.9817,41.0094 C65.5377,41.0094 65.9897,40.5574 65.9897,40.0004 C65.9897,39.4434 65.5377,38.9914 64.9817,38.9914 C64.4247,38.9914 63.9727,39.4434 63.9727,40.0004" id="Fill-16"></path>
            <path d="M21.628,56.9491 C21.234,57.3431 21.234,57.9821 21.628,58.3761 C22.022,58.7691 22.66,58.7691 23.054,58.3761 C23.448,57.9821 23.448,57.3431 23.054,56.9491 C22.66,56.5551 22.022,56.5551 21.628,56.9491" id="Fill-17"></path>
            <path d="M58.3785,23.0517 C58.7725,22.6577 58.7725,22.0187 58.3785,21.6247 C57.9845,21.2317 57.3465,21.2317 56.9525,21.6247 C56.5585,22.0187 56.5585,22.6577 56.9525,23.0517 C57.3465,23.4457 57.9845,23.4457 58.3785,23.0517" id="Fill-18"></path>
        </g>
    </g>
</svg>