<svg xmlns="http://www.w3.org/2000/svg" width="745.311" height="777.156" viewBox="410.097 1599.254 745.311 777.156"><path d="M741.478 1633.362v-34.108l65.207 32.604a373.987 373.987 0 0 1 51.17 6.809 370.982 370.982 0 0 1 69.951 21.712 373.012 373.012 0 0 1 63.303 34.362 375.717 375.717 0 0 1 55.152 45.502 375.545 375.545 0 0 1 45.502 55.153 372.886 372.886 0 0 1 34.36 63.302 371.143 371.143 0 0 1 21.712 69.95 375.48 375.48 0 0 1 7.573 75.106c0 25.28-2.55 50.55-7.573 75.102a370.715 370.715 0 0 1-21.713 69.95 372.923 372.923 0 0 1-34.359 63.303 375.976 375.976 0 0 1-45.502 55.154 375.94 375.94 0 0 1-55.152 45.5 372.87 372.87 0 0 1-63.303 34.362 370.886 370.886 0 0 1-69.951 21.712c-24.553 5.023-49.822 7.573-75.102 7.573a375.515 375.515 0 0 1-75.107-7.573 371.224 371.224 0 0 1-69.95-21.712 372.796 372.796 0 0 1-63.302-34.361 375.59 375.59 0 0 1-55.152-45.501 375.612 375.612 0 0 1-45.502-55.154 372.796 372.796 0 0 1-34.362-63.302 370.882 370.882 0 0 1-21.713-69.95 375.47 375.47 0 0 1-7.568-75.103 375.478 375.478 0 0 1 7.568-75.106 370.772 370.772 0 0 1 21.713-69.95 372.759 372.759 0 0 1 34.362-63.302 374.927 374.927 0 0 1 45.502-55.153 375.101 375.101 0 0 1 55.152-45.502 372.938 372.938 0 0 1 63.303-34.362 370.875 370.875 0 0 1 69.949-21.712 371.927 371.927 0 0 1 33.832-5.305Zm64.527 16.178-64.527 32.266v-30.641a353.596 353.596 0 0 0-30.264 4.831 352.834 352.834 0 0 0-66.633 20.686 355.162 355.162 0 0 0-60.293 32.723 357.233 357.233 0 0 0-52.537 43.348 357.338 357.338 0 0 0-43.347 52.536 354.63 354.63 0 0 0-32.723 60.295 352.843 352.843 0 0 0-20.688 66.63c-4.783 23.384-7.208 47.456-7.208 71.54 0 24.081 2.425 48.153 7.208 71.536a352.843 352.843 0 0 0 20.688 66.63 355.038 355.038 0 0 0 32.723 60.296 358.156 358.156 0 0 0 43.347 52.536 356.886 356.886 0 0 0 52.537 43.342 354.78 354.78 0 0 0 60.293 32.73 353.305 353.305 0 0 0 66.633 20.679 357.58 357.58 0 0 0 71.54 7.216 357.585 357.585 0 0 0 71.534-7.216 353.153 353.153 0 0 0 66.631-20.68 354.873 354.873 0 0 0 60.295-32.73 357.175 357.175 0 0 0 52.535-43.341 357.757 357.757 0 0 0 43.344-52.536 354.93 354.93 0 0 0 32.729-60.295 353.247 353.247 0 0 0 20.68-66.631 357.586 357.586 0 0 0 7.214-71.536 357.594 357.594 0 0 0-7.215-71.54 353.357 353.357 0 0 0-20.68-66.63 354.893 354.893 0 0 0-32.728-60.295 357.196 357.196 0 0 0-43.344-52.536 357.524 357.524 0 0 0-52.535-43.348 355.254 355.254 0 0 0-60.295-32.723 352.815 352.815 0 0 0-66.63-20.686 355.942 355.942 0 0 0-48.284-6.456Z" fill="#fff" fill-rule="evenodd" data-name="Vereinigungsmenge 2"/></svg>