<?xml version="1.0" encoding="UTF-8"?>
<svg width="700pt" height="700pt" version="1.1" viewBox="0 0 700 700" xmlns="http://www.w3.org/2000/svg" xmlns:xlink="http://www.w3.org/1999/xlink">
 <defs>
  <symbol id="v" overflow="visible">
   <path d="m18.766-1.125c-0.96875 0.5-1.9805 0.875-3.0312 1.125-1.043 0.25781-2.1367 0.39062-3.2812 0.39062-3.3984 0-6.0898-0.94531-8.0781-2.8438-1.9922-1.9062-2.9844-4.4844-2.9844-7.7344 0-3.2578 0.99219-5.8359 2.9844-7.7344 1.9883-1.9062 4.6797-2.8594 8.0781-2.8594 1.1445 0 2.2383 0.13281 3.2812 0.39062 1.0508 0.25 2.0625 0.625 3.0312 1.125v4.2188c-0.98047-0.65625-1.9453-1.1406-2.8906-1.4531-0.94922-0.3125-1.9492-0.46875-3-0.46875-1.875 0-3.3516 0.60547-4.4219 1.8125-1.0742 1.1992-1.6094 2.8555-1.6094 4.9688 0 2.1055 0.53516 3.7617 1.6094 4.9688 1.0703 1.1992 2.5469 1.7969 4.4219 1.7969 1.0508 0 2.0508-0.14844 3-0.45312 0.94531-0.3125 1.9102-0.80078 2.8906-1.4688z"/>
  </symbol>
  <symbol id="e" overflow="visible">
   <path d="m13.734-11.141c-0.4375-0.19531-0.87109-0.34375-1.2969-0.4375-0.41797-0.10156-0.83984-0.15625-1.2656-0.15625-1.2617 0-2.2305 0.40625-2.9062 1.2188-0.67969 0.80469-1.0156 1.9531-1.0156 3.4531v7.0625h-4.8906v-15.312h4.8906v2.5156c0.625-1 1.3438-1.7266 2.1562-2.1875 0.82031-0.46875 1.8008-0.70312 2.9375-0.70312 0.16406 0 0.34375 0.011719 0.53125 0.03125 0.19531 0.011719 0.47656 0.039062 0.84375 0.078125z"/>
  </symbol>
  <symbol id="a" overflow="visible">
   <path d="m17.641-7.7031v1.4062h-11.453c0.125 1.1484 0.53906 2.0078 1.25 2.5781 0.70703 0.57422 1.7031 0.85938 2.9844 0.85938 1.0312 0 2.082-0.14844 3.1562-0.45312 1.082-0.3125 2.1914-0.77344 3.3281-1.3906v3.7656c-1.1562 0.4375-2.3125 0.76562-3.4688 0.98438-1.1562 0.22656-2.3125 0.34375-3.4688 0.34375-2.7734 0-4.9297-0.70312-6.4688-2.1094-1.5312-1.4062-2.2969-3.3789-2.2969-5.9219 0-2.5 0.75391-4.4609 2.2656-5.8906 1.5078-1.4375 3.582-2.1562 6.2188-2.1562 2.4062 0 4.332 0.73047 5.7812 2.1875 1.4453 1.4492 2.1719 3.3828 2.1719 5.7969zm-5.0312-1.625c0-0.92578-0.27344-1.6719-0.8125-2.2344-0.54297-0.57031-1.25-0.85938-2.125-0.85938-0.94922 0-1.7188 0.26562-2.3125 0.79688s-0.96484 1.2969-1.1094 2.2969z"/>
  </symbol>
  <symbol id="l" overflow="visible">
   <path d="m9.2188-6.8906c-1.0234 0-1.793 0.17188-2.3125 0.51562-0.51172 0.34375-0.76562 0.85547-0.76562 1.5312 0 0.625 0.20703 1.1172 0.625 1.4688 0.41406 0.34375 0.98828 0.51562 1.7188 0.51562 0.92578 0 1.7031-0.32812 2.3281-0.98438 0.63281-0.66406 0.95312-1.4922 0.95312-2.4844v-0.5625zm7.4688-1.8438v8.7344h-4.9219v-2.2656c-0.65625 0.92969-1.3984 1.6055-2.2188 2.0312-0.82422 0.41406-1.8242 0.625-3 0.625-1.5859 0-2.8711-0.45703-3.8594-1.375-0.99219-0.92578-1.4844-2.1289-1.4844-3.6094 0-1.7891 0.61328-3.1016 1.8438-3.9375 1.2383-0.84375 3.1797-1.2656 5.8281-1.2656h2.8906v-0.39062c0-0.76953-0.30859-1.332-0.92188-1.6875-0.61719-0.36328-1.5703-0.54688-2.8594-0.54688-1.0547 0-2.0312 0.10547-2.9375 0.3125-0.89844 0.21094-1.7305 0.52344-2.5 0.9375v-3.7344c1.0391-0.25 2.0859-0.44141 3.1406-0.57812 1.0625-0.13281 2.125-0.20312 3.1875-0.20312 2.7578 0 4.75 0.54688 5.9688 1.6406 1.2266 1.0859 1.8438 2.8555 1.8438 5.3125z"/>
  </symbol>
  <symbol id="b" overflow="visible">
   <path d="m7.7031-19.656v4.3438h5.0469v3.5h-5.0469v6.5c0 0.71094 0.14062 1.1875 0.42188 1.4375s0.83594 0.375 1.6719 0.375h2.5156v3.5h-4.1875c-1.9375 0-3.3125-0.39844-4.125-1.2031-0.80469-0.8125-1.2031-2.1797-1.2031-4.1094v-6.5h-2.4219v-3.5h2.4219v-4.3438z"/>
  </symbol>
  <symbol id="d" overflow="visible">
   <path d="m12.766-13.078v-8.2031h4.9219v21.281h-4.9219v-2.2188c-0.66797 0.90625-1.4062 1.5703-2.2188 1.9844s-1.7578 0.625-2.8281 0.625c-1.8867 0-3.4336-0.75-4.6406-2.25-1.2109-1.5-1.8125-3.4258-1.8125-5.7812 0-2.3633 0.60156-4.2969 1.8125-5.7969 1.207-1.5 2.7539-2.25 4.6406-2.25 1.0625 0 2 0.21484 2.8125 0.64062 0.82031 0.42969 1.5664 1.0859 2.2344 1.9688zm-3.2188 9.9219c1.0391 0 1.8359-0.37891 2.3906-1.1406 0.55078-0.76953 0.82812-1.8828 0.82812-3.3438 0-1.457-0.27734-2.5664-0.82812-3.3281-0.55469-0.76953-1.3516-1.1562-2.3906-1.1562-1.043 0-1.8398 0.38672-2.3906 1.1562-0.55469 0.76172-0.82812 1.8711-0.82812 3.3281 0 1.4609 0.27344 2.5742 0.82812 3.3438 0.55078 0.76172 1.3477 1.1406 2.3906 1.1406z"/>
  </symbol>
  <symbol id="k" overflow="visible">
   <path d="m10.5-3.1562c1.0508 0 1.8516-0.37891 2.4062-1.1406 0.55078-0.76953 0.82812-1.8828 0.82812-3.3438 0-1.457-0.27734-2.5664-0.82812-3.3281-0.55469-0.76953-1.3555-1.1562-2.4062-1.1562-1.0547 0-1.8594 0.38672-2.4219 1.1562-0.55469 0.77344-0.82812 1.8828-0.82812 3.3281 0 1.4492 0.27344 2.5586 0.82812 3.3281 0.5625 0.77344 1.3672 1.1562 2.4219 1.1562zm-3.25-9.9219c0.67578-0.88281 1.4219-1.5391 2.2344-1.9688 0.82031-0.42578 1.7656-0.64062 2.8281-0.64062 1.8945 0 3.4453 0.75 4.6562 2.25 1.207 1.5 1.8125 3.4336 1.8125 5.7969 0 2.3555-0.60547 4.2812-1.8125 5.7812-1.2109 1.5-2.7617 2.25-4.6562 2.25-1.0625 0-2.0078-0.21094-2.8281-0.625-0.8125-0.42578-1.5586-1.0859-2.2344-1.9844v2.2188h-4.8906v-21.281h4.8906z"/>
  </symbol>
  <symbol id="j" overflow="visible">
   <path d="m0.34375-15.312h4.8906l4.125 10.391 3.5-10.391h4.8906l-6.4375 16.766c-0.64844 1.6953-1.4023 2.8828-2.2656 3.5625-0.86719 0.6875-2 1.0312-3.4062 1.0312h-2.8438v-3.2188h1.5312c0.83203 0 1.4375-0.13672 1.8125-0.40625 0.38281-0.26172 0.67969-0.73047 0.89062-1.4062l0.14062-0.42188z"/>
  </symbol>
  <symbol id="i" overflow="visible">
   <path d="m2.5781-20.406h5.25v16.422h9.25v3.9844h-14.5z"/>
  </symbol>
  <symbol id="h" overflow="visible">
   <path d="m2.3594-15.312h4.8906v15.312h-4.8906zm0-5.9688h4.8906v4h-4.8906z"/>
  </symbol>
  <symbol id="g" overflow="visible">
   <path d="m17.75-9.3281v9.3281h-4.9219v-7.1406c0-1.3203-0.03125-2.2344-0.09375-2.7344s-0.16797-0.86719-0.3125-1.1094c-0.1875-0.3125-0.44922-0.55469-0.78125-0.73438-0.32422-0.17578-0.69531-0.26562-1.1094-0.26562-1.0234 0-1.8242 0.39844-2.4062 1.1875-0.58594 0.78125-0.875 1.8711-0.875 3.2656v7.5312h-4.8906v-15.312h4.8906v2.2344c0.73828-0.88281 1.5195-1.5391 2.3438-1.9688 0.83203-0.42578 1.75-0.64062 2.75-0.64062 1.7695 0 3.1133 0.54688 4.0312 1.6406 0.91406 1.0859 1.375 2.6562 1.375 4.7188z"/>
  </symbol>
  <symbol id="u" overflow="visible">
   <path d="m14.312-14.828v3.7188c-1.043-0.4375-2.0547-0.76562-3.0312-0.98438-0.98047-0.21875-1.9023-0.32812-2.7656-0.32812-0.92969 0-1.6211 0.11719-2.0781 0.34375-0.44922 0.23047-0.67188 0.58984-0.67188 1.0781 0 0.38672 0.17188 0.68359 0.51562 0.89062 0.34375 0.21094 0.95703 0.36719 1.8438 0.46875l0.85938 0.125c2.5078 0.32422 4.1953 0.85156 5.0625 1.5781 0.86328 0.73047 1.2969 1.8711 1.2969 3.4219 0 1.6367-0.60547 2.8672-1.8125 3.6875-1.1992 0.8125-2.9922 1.2188-5.375 1.2188-1.0234 0-2.0742-0.078125-3.1562-0.23438-1.0742-0.15625-2.1797-0.39453-3.3125-0.71875v-3.7188c0.96875 0.48047 1.9609 0.83984 2.9844 1.0781 1.0312 0.23047 2.0781 0.34375 3.1406 0.34375 0.95703 0 1.6758-0.12891 2.1562-0.39062 0.47656-0.26953 0.71875-0.66406 0.71875-1.1875 0-0.4375-0.16797-0.75781-0.5-0.96875-0.33594-0.21875-0.99609-0.38281-1.9844-0.5l-0.85938-0.10938c-2.1797-0.26953-3.7031-0.77344-4.5781-1.5156-0.875-0.73828-1.3125-1.8594-1.3125-3.3594 0-1.625 0.55078-2.8281 1.6562-3.6094 1.1133-0.78906 2.8203-1.1875 5.125-1.1875 0.89453 0 1.8359 0.074219 2.8281 0.21875 1 0.13672 2.082 0.35156 3.25 0.64062z"/>
  </symbol>
  <symbol id="t" overflow="visible">
   <path d="m16.781-19.766v4.3125c-1.125-0.5-2.2266-0.875-3.2969-1.125-1.0625-0.25781-2.0703-0.39062-3.0156-0.39062-1.25 0-2.1797 0.17969-2.7812 0.53125-0.60547 0.34375-0.90625 0.88281-0.90625 1.6094 0 0.54297 0.20312 0.96875 0.60938 1.2812 0.40625 0.30469 1.1406 0.5625 2.2031 0.78125l2.25 0.45312c2.2695 0.44922 3.8789 1.1406 4.8281 2.0781 0.95703 0.92969 1.4375 2.2461 1.4375 3.9531 0 2.25-0.66797 3.9297-2 5.0312-1.3359 1.0938-3.3711 1.6406-6.1094 1.6406-1.3047 0-2.6055-0.125-3.9062-0.375-1.3047-0.23828-2.6055-0.59766-3.9062-1.0781v-4.4531c1.3008 0.69922 2.5625 1.2266 3.7812 1.5781 1.2188 0.34375 2.3906 0.51562 3.5156 0.51562 1.1562 0 2.0352-0.1875 2.6406-0.5625 0.61328-0.38281 0.92188-0.9375 0.92188-1.6562 0-0.63281-0.21094-1.125-0.625-1.4688-0.41797-0.34375-1.2461-0.65625-2.4844-0.9375l-2.0312-0.4375c-2.043-0.4375-3.5391-1.1328-4.4844-2.0938-0.9375-0.95703-1.4062-2.25-1.4062-3.875 0-2.0312 0.65625-3.5938 1.9688-4.6875s3.1953-1.6406 5.6562-1.6406c1.125 0 2.2734 0.085938 3.4531 0.25 1.1875 0.16797 2.4141 0.42188 3.6875 0.76562z"/>
  </symbol>
  <symbol id="f" overflow="visible">
   <path d="m2.1875-5.9688v-9.3438h4.9219v1.5312c0 0.83594-0.007813 1.875-0.015625 3.125-0.011719 1.25-0.015625 2.0859-0.015625 2.5 0 1.2422 0.03125 2.1328 0.09375 2.6719 0.070313 0.54297 0.17969 0.93359 0.32812 1.1719 0.20703 0.32422 0.47266 0.57422 0.79688 0.75 0.32031 0.16797 0.69141 0.25 1.1094 0.25 1.0195 0 1.8203-0.39062 2.4062-1.1719 0.58203-0.78125 0.875-1.8672 0.875-3.2656v-7.5625h4.8906v15.312h-4.8906v-2.2188c-0.74219 0.89844-1.5234 1.5586-2.3438 1.9844-0.82422 0.41406-1.7344 0.625-2.7344 0.625-1.7617 0-3.1055-0.53906-4.0312-1.625-0.92969-1.082-1.3906-2.6602-1.3906-4.7344z"/>
  </symbol>
  <symbol id="c" overflow="visible">
   <path d="m9.6406-12.188c-1.0859 0-1.9141 0.39062-2.4844 1.1719-0.57422 0.78125-0.85938 1.9062-0.85938 3.375s0.28516 2.5938 0.85938 3.375c0.57031 0.77344 1.3984 1.1562 2.4844 1.1562 1.0625 0 1.875-0.38281 2.4375-1.1562 0.57031-0.78125 0.85938-1.9062 0.85938-3.375s-0.28906-2.5938-0.85938-3.375c-0.5625-0.78125-1.375-1.1719-2.4375-1.1719zm0-3.5c2.6328 0 4.6914 0.71484 6.1719 2.1406 1.4766 1.418 2.2188 3.3867 2.2188 5.9062 0 2.5117-0.74219 4.4805-2.2188 5.9062-1.4805 1.418-3.5391 2.125-6.1719 2.125-2.6484 0-4.7148-0.70703-6.2031-2.125-1.4922-1.4258-2.2344-3.3945-2.2344-5.9062 0-2.5195 0.74219-4.4883 2.2344-5.9062 1.4883-1.4258 3.5547-2.1406 6.2031-2.1406z"/>
  </symbol>
  <symbol id="s" overflow="visible">
   <path d="m12.422-21.281v3.2188h-2.7031c-0.6875 0-1.1719 0.125-1.4531 0.375-0.27344 0.25-0.40625 0.6875-0.40625 1.3125v1.0625h4.1875v3.5h-4.1875v11.812h-4.8906v-11.812h-2.4375v-3.5h2.4375v-1.0625c0-1.6641 0.46094-2.8984 1.3906-3.7031 0.92578-0.80078 2.3672-1.2031 4.3281-1.2031z"/>
  </symbol>
  <symbol id="r" overflow="visible">
   <path d="m16.547-12.766c0.61328-0.94531 1.3477-1.6719 2.2031-2.1719 0.85156-0.5 1.7891-0.75 2.8125-0.75 1.7578 0 3.0977 0.54688 4.0156 1.6406 0.92578 1.0859 1.3906 2.6562 1.3906 4.7188v9.3281h-4.9219v-7.9844-0.35938c0.007813-0.13281 0.015625-0.32031 0.015625-0.5625 0-1.082-0.16406-1.8633-0.48438-2.3438-0.3125-0.48828-0.82422-0.73438-1.5312-0.73438-0.92969 0-1.6484 0.38672-2.1562 1.1562-0.51172 0.76172-0.77344 1.8672-0.78125 3.3125v7.5156h-4.9219v-7.9844c0-1.6953-0.14844-2.7852-0.4375-3.2656-0.29297-0.48828-0.8125-0.73438-1.5625-0.73438-0.9375 0-1.6641 0.38672-2.1719 1.1562-0.51172 0.76172-0.76562 1.8594-0.76562 3.2969v7.5312h-4.9219v-15.312h4.9219v2.2344c0.60156-0.86328 1.2891-1.5156 2.0625-1.9531 0.78125-0.4375 1.6406-0.65625 2.5781-0.65625 1.0625 0 2 0.25781 2.8125 0.76562 0.8125 0.51172 1.4258 1.2305 1.8438 2.1562z"/>
  </symbol>
  <symbol id="q" overflow="visible">
   <path d="m17.75-9.3281v9.3281h-4.9219v-7.1094c0-1.3438-0.03125-2.2656-0.09375-2.7656s-0.16797-0.86719-0.3125-1.1094c-0.1875-0.3125-0.44922-0.55469-0.78125-0.73438-0.32422-0.17578-0.69531-0.26562-1.1094-0.26562-1.0234 0-1.8242 0.39844-2.4062 1.1875-0.58594 0.78125-0.875 1.8711-0.875 3.2656v7.5312h-4.8906v-21.281h4.8906v8.2031c0.73828-0.88281 1.5195-1.5391 2.3438-1.9688 0.83203-0.42578 1.75-0.64062 2.75-0.64062 1.7695 0 3.1133 0.54688 4.0312 1.6406 0.91406 1.0859 1.375 2.6562 1.375 4.7188z"/>
  </symbol>
  <symbol id="p" overflow="visible">
   <path d="m2.5781-20.406h5.875l7.4219 14v-14h4.9844v20.406h-5.875l-7.4219-14v14h-4.9844z"/>
  </symbol>
  <symbol id="o" overflow="visible">
   <path d="m2.5781-20.406h8.7344c2.5938 0 4.582 0.57812 5.9688 1.7344 1.3945 1.1484 2.0938 2.7891 2.0938 4.9219 0 2.1367-0.69922 3.7812-2.0938 4.9375-1.3867 1.1562-3.375 1.7344-5.9688 1.7344h-3.4844v7.0781h-5.25zm5.25 3.8125v5.7031h2.9219c1.0195 0 1.8047-0.25 2.3594-0.75 0.5625-0.5 0.84375-1.2031 0.84375-2.1094 0-0.91406-0.28125-1.6172-0.84375-2.1094-0.55469-0.48828-1.3398-0.73438-2.3594-0.73438z"/>
  </symbol>
  <symbol id="n" overflow="visible">
   <path d="m2.3594-15.312h4.8906v15.031c0 2.0508-0.49609 3.6172-1.4844 4.7031-0.98047 1.082-2.4062 1.625-4.2812 1.625h-2.4219v-3.2188h0.85938c0.92578 0 1.5625-0.21094 1.9062-0.625 0.35156-0.41797 0.53125-1.2461 0.53125-2.4844zm0-5.9688h4.8906v4h-4.8906z"/>
  </symbol>
  <symbol id="m" overflow="visible">
   <path d="m14.719-14.828v3.9844c-0.65625-0.45703-1.3242-0.79688-2-1.0156-0.66797-0.21875-1.3594-0.32812-2.0781-0.32812-1.3672 0-2.4336 0.40234-3.2031 1.2031-0.76172 0.79297-1.1406 1.9062-1.1406 3.3438 0 1.4297 0.37891 2.543 1.1406 3.3438 0.76953 0.79297 1.8359 1.1875 3.2031 1.1875 0.75781 0 1.4844-0.10938 2.1719-0.32812 0.6875-0.22656 1.3203-0.56641 1.9062-1.0156v4c-0.76172 0.28125-1.5391 0.48828-2.3281 0.625-0.78125 0.14453-1.5742 0.21875-2.375 0.21875-2.7617 0-4.9219-0.70703-6.4844-2.125-1.5547-1.4141-2.3281-3.3828-2.3281-5.9062 0-2.5312 0.77344-4.5039 2.3281-5.9219 1.5625-1.4141 3.7227-2.125 6.4844-2.125 0.80078 0 1.5938 0.074219 2.375 0.21875 0.78125 0.13672 1.5547 0.35156 2.3281 0.64062z"/>
  </symbol>
 </defs>
 <path transform="matrix(5.6 0 0 5.6 70 3.979e-14)" d="m59.119 65.014c0.1123 0.066267 0.2288 0.12626 0.33831 0.20089-0.12904-0.041155-0.2274-0.13114-0.33831-0.20089 0.70103-0.29715 0.9368-1.1021 1.52-1.543-0.21903-0.013951-0.43597-0.048828-0.64593-0.10393 0.4548-0.33831 1.4181-0.16113 1.6881-0.72824 0.42411-0.89007-0.87681-0.84124-1.3567-0.77288-2.3612 0.33691-4.5278 1.8708-6.988 1.2842 0.143-0.094866 0.2267-0.25321 0.37109-0.34668-0.49316-0.20717-1.1949-0.18834-1.4607 0.35505-0.04534-0.053013-0.094866-0.10393-0.14509-0.15276-0.49386 0.62918-1.1642 1.1007-1.5541 1.8108-0.12416 0.226-0.39621 1.174-0.69266 0.57408-0.32366 0.65918-0.54897 1.3609-0.87402 2.0201-0.26786 0.5399-0.67592 1.0721-0.64174 1.7062 0.057896 1.0938 1.2298 1.6567 2.1868 1.7843-0.75405 0.67104-1.9329 0.74777-2.8948 0.81194-0.25321 0.016741-1.5751 0.062779-0.87123-0.41713-0.97308 0.40667-2.0612 0.34598-3.0483 0.7401-0.23228 0.092076-1.326 0.50084-0.76869-0.16113-0.046736 0.10324-0.089983 0.20787-0.12835 0.3139 0.043945-0.10393 0.087193-0.20926 0.12835-0.3139-0.027902 0.35714-0.31668 0.64593-0.31668 0.93471 0.28878 1.1572 1.446 2.025 1.446 3.1822-1.5827-0.2853-0.3118-0.71568 0 0-4.3443-0.57617-5.8601-5.3041-8.0999-8.388-0.19182 0.19182-0.38504 0.38574-0.57826 0.57826 0.20368-0.19322 0.27832-0.46805 0.1981-0.7373-0.64732 0.29576 0.29715 0.61733 0 0-1.2898 1.3239-2.9953-3.0239-4.412-2.846-1.347 0.16881-0.399 2.0543-0.043248 2.7072 0.75684 1.3888 2.0243 2.846 3.7612 2.7239-0.023716 0.21973-0.080217 0.43597-0.1688 0.63895 1.1482 0.34528 2.756 0.97866 2.6897 2.4323-0.49595-0.82031-1.5758-0.56082-2.3138-0.29018 0.64732 0.95285 0.59989 2.258-0.36621 2.9813 0.013254-0.1123 0.036273-0.22182 0.069057-0.32994-0.018136 0.11091-0.041155 0.22112-0.069057 0.32994 0.73591-4.9093-5.7638-5.2623-7.357-8.879-0.060686 0.35086 0.043248 0.7087 0.26228 0.98633-0.059292-0.58315-0.34808-1.4502-0.63686-1.1607-2.3131 0.28878-4.338 1.446-6.6518 1.1572-0.28878 0-0.86705 0.57896-0.86705 1.1572 0 0.57896 0 1.1579-0.57826 1.7362-0.86774 0.86774-2.6053 1.1572-2.6053 2.3138-0.28878 3.471-3.4703 5.2058-6.6511 4.6268-1.1572-0.28878-2.0243-0.57826-3.1822-0.86775-0.86705-0.28878-0.57826-1.446-0.6522-2.1401-0.085798 0.10812-0.22391 0.14579-0.31668 0.24484-0.7373-1.1203 0.4841-2.3152 0.79799-3.3538 0.29367-0.97796 0.2281-2.3828-0.738-2.9743 1.2102-1.6483 3.5938-0.66894 5.2532-0.63407 1.8283 0.039063 3.9781-0.6822 4.3338-2.7128 0.004883 0.10603 0.004883 0.21066 6.98e-4 0.31668-0.022322-0.11509-0.004186-0.20229-6.98e-4 -0.31668 0.64593 0.16602 0.062082-1.3602-0.20368-1.626-0.1988-0.20089-1.8973-1.506-0.63477-1.4858-1.1112-0.38295-2.1443-1.22-3.381-1.0798 0.15695-0.062081 0.3118-0.11719 0.47433-0.15834-0.14369 0.099051-0.30901 0.11719-0.47433 0.15834-0.066267-2.055 2.7483-0.87612 3.8379-0.77079-0.10184-0.62988-0.50014-1.1593-0.94168-1.5981 1.0352 0.1981 1.9022 0.48689 3.0601-0.090681 1.7362-1.1572 2.6039-3.471 4.8277-3.3098-0.073242 0.062081-0.1423 0.12486-0.21066 0.18973 0.07673-0.055106 0.14718-0.11788 0.21066-0.18973-0.76869 0.30413-0.28181-1.0868-0.12277-1.363 0.57408-0.994 1.8841-1.3323 2.9053-0.86426 0.069755-0.86775 1.0833-0.881 1.6462-0.4827-0.41016-0.97377 1.4251-0.23368 1.5778-0.56571 0.14927-0.32087-0.84194-0.70731-1.0093-0.881-0.625-0.64872-0.54897-1.672-1.3811-2.1973 0.067662 0.15485 0.20089 0.26297 0.32366 0.37109-0.092076-0.25181-0.092076-0.54199-0.092076-0.83078 0.86775-0.86775 2.0243-1.7348 2.6032-2.892 0.81403 0.41713-0.90681 1.7453 0.58384 2.3542-0.060686-0.032785-0.12416-0.059292-0.19113-0.078823 0.064174 0.027902 0.12835 0.053711 0.19113 0.078823-0.62779 0.029297-0.98284 0.91588-1.1949 1.4132-0.37667 0.8817 0.3118 0.65569 0.88309 1.2772 0.12277 0.13532 0.53502 1.5597 0.84612 0.93122 0 0 2.0368-1.1251 2.2677-0.56222 0.21694 0.52804 0.9382 0.64802 1.5213 0.768 0.5392 0.11091 1.0359-0.053711 1.5248-0.27414 1.3239-0.59082 1.9727-1.1663 3.4152-0.61733 0 0 1.3023-1.0631 1.972-0.79102 1.9092-0.512-0.11021-3.713 1.589-4.1629 0.95912-0.25321 2.034 0.9389 2.9841 0.47224 1.8771-0.92215-2.0117-1.7348-1.2033-2.523-0.041155 0.20368 0.13881-0.48689-0.023716-0.35993 2.2991-1.7669 5.4478-0.57129 7.9771-1.6867-0.3418-0.7101-0.63825 0.23577 0 0-2.4707-1.9287-5.8119-1.1558-8.5512-0.33273" fill="none" stroke="#000" stroke-linecap="round" stroke-linejoin="round" stroke-miterlimit="10" stroke-width=".5"/>
 <path transform="matrix(5.6 0 0 5.6 70 3.979e-14)" d="m34.036 27.984c0.6829 0.041853 0.95424-0.78892 1.4007-1.1572 0.52874-0.43666 1.3009-0.54618 1.5841-1.2458-0.032785 0.13323-0.062082 0.26925-0.10393 0.399 0.067662-0.12416 0.073242-0.26507 0.10393-0.399-0.44085 0.11719-1.0833 0.31529-1.34-0.20787 1.7299-0.29227 3.2708-1.1802 4.9177-1.7348-0.027901 0.16881 0.057199 0.32994 0.030692 0.49595 0.50293-0.18276 0.98214-0.53223 1.1461-1.0617 0.68708 0.3683 1.2298-0.4841 1.852-0.625 0.72126-0.16392 1.4272 0.22112 2.1638 0.043945 0.1988-0.04813 2.221-0.66127 1.3707-0.020228 0.7952-0.12835 1.3763-0.86775 2.2119-0.8231-0.083008 0.27414-0.21066 0.53292-0.37877 0.76381 0.64383-0.20717 1.9468-0.94796 2.5691-0.37528 1.2249 1.13-1.9922 0.86496-2.2893 1.0219 0.58315 0.77776 0.64593-0.63476 0 0 0.86565 0.69196 2.034 0.7952 3.0999 0.67522 0.52595-0.059291 1.6692-0.43876 1.808 0.37109-0.071847-0.13184-0.13323-0.26088-0.19113-0.399 0.094169 0.11928 0.13602 0.26228 0.19113 0.399-0.49316-0.20089-0.53292 0.36203-0.42202 0.69476 0.099749 0.29925 0.80427 0.75684 0.14997 0.94308 0.44434-0.113 0.70871-0.47921 1.0993-0.68499 0.47921-0.25181 1.017-0.26507 1.5437-0.21275 1.137 0.113 2.0257 0.69196 2.9841 1.2563 1.49 0.87681 3.6042 1.2758 4.4559 2.9402-1.5709 0.67871-2.8962 1.5437-4.6763 1.2702-2.0292-0.3118-4.006-0.97098-5.9919-1.4669 0.062082 1.4397 1.8659 2.4993 3.1808 2.0243-0.19322 0.35575-0.33622 0.74219-0.59222 1.0603 0.082311 0.055107 0.17229 0.096262 0.26576 0.12416-0.085798-0.04534-0.17508-0.087193-0.26576-0.12416 0.31669 0.53711 0.84682 1.1677 0.59222 1.8318 1.2381 0.24274 2.4561 0.6829 3.471 1.446 0.69685-1.1063-2.2063-2.2642-0.4262-2.7183 1.3909-0.35366 2.4003 1.2807 3.7877 0.9661-0.19182-0.6808-0.77706-1.1433-1.3372-1.5248 0.91588-0.78474 2.2698-0.63198 3.1913-1.3951 0.33691-0.27902 0.61175-0.90332 1.1468-0.83217 0.4248 0.057199 0.56083 0.61523 0.91867 0.80218 1.1872 0.62082 1.257-1.799 0.23716-1.951 0.31808-0.54618 0.56292-1.8422 0-2.3138 1.1217-0.84682 2.6039-0.28599 3.3817 0.74777-0.75893 0.17718-1.7948 0.29576-2.1233 1.13 0.7659 1.0163 1.9238 1.3051 3.4438 1.167 0.004882-0.31599-0.12835-0.61872-0.36203-0.83078 0.39202-0.143 2.1568-0.72126 1.5409-1.3532 1.3149-0.5671 2.8271-1.137 4.2418-0.57199-0.053711-1.4188 1.6699-0.60407 0.85728 0.083008l0.70801-0.032785c1.619 0.20787 2.9088-1.0219 4.4503-1.2388 0.5678-0.080218 1.2723-0.03976 1.769 0.28111 0.3411 0.21973 0.79102 1.5827 1.2981 0.72266 0.14788-0.25112 0.21973-0.67801 0.21205-0.97098-0.00279-0.12486-0.076032-0.23716-0.069057-0.39411 0.007673-0.16881 0.20299-0.40597 0.13532-0.58384-0.066267-0.16811-0.44713-0.11788-0.24902-0.43108l-0.023019 0.20299 0.26507-0.52804c0.6822 0.25321 1.4279-0.013253 2.1219 0.19322 0.67801 0.20089 0.72126 0.5971 1.3009 0.81892 1.0233 0.38993 2.025 0.65011 3.1131 0.95494-1.3539 1.0038-1.6078 0.60686-1.9378 2.6332-1.266 0.11719-0.74428 1.5492-1.4621 2.3612-0.76381 0.86426-2.553 0.64593-3.5261 1.1391-0.64802 0.32785-3.69 2.1833-4.0597 2.8767-0.29925 0.56431 0.113 1.8631 0.015346 2.5209-0.15695 1.047-0.65569 1.4118-0.92494 2.3152-0.64383 2.1568 0.64174 2.2782 1.46 3.8888 0.86216 1.6957 0.68987 3.1341-0.33273 4.458-0.62779 0.81334-2.4533 3.0029-3.4759 3.2261-1.7801 0.38714-2.7309-1.483-4.638-0.82799-0.99121 0.3411-2.3082 2.1443-2.6458 2.9932-0.31668 0.79799-0.11719 1.8108-0.78613 2.2991-0.12626 2.1952-1.1579 3.6091-0.96401 5.7178 1.0819 0.29925 1.9531 1.0282 2.5991 1.972-1.008 0.17299-2.4107 2.364-2.4442 3.4647-0.046736 1.5981 1.6741 2.7818 1.7111 4.209-1.008 0.067662-1.8659-1.4181-2.9109-1.8513-1.1551-0.47921-2.3737-0.50712-3.6258-0.82031-2.5453-0.63477-4.6247-0.83496-6.16-3.0852" fill="none" stroke="#000" stroke-linecap="round" stroke-linejoin="round" stroke-miterlimit="10" stroke-width=".5"/>
 <path transform="matrix(5.6 0 0 5.6 70 3.979e-14)" d="m26.141 36.957c0.47712-0.49107 0.95912-0.97726 1.4418-1.46-0.015346 0.43597 0.4827 0.23577 0.66197 0.009766 0.073242 0.23786 1.7397-0.70312 1.347-1.2479-0.34528-0.47573-1.2549 0.48689-1.5067 0.75195-0.45201-0.57966 0.37877-0.86216 0.76381-1.0638 0.75893-0.47503 2.2049-1.3428 2.7832-2.2098 0.57896-1.446 1.1572-2.6032 2.4037-3.7528" fill="none" stroke="#000" stroke-linecap="round" stroke-linejoin="round" stroke-miterlimit="10" stroke-width=".5"/>
 <path transform="matrix(5.6 0 0 5.6 70 3.979e-14)" d="m42.769 41.499c-0.20089-0.018833-0.099051-0.14021-0.21833-0.21624-0.11091-0.069755-0.18415-0.059292-0.35366-0.11788-0.33901-0.11579-0.66616-0.5957-0.83915-0.93192l0.032785 0.113c-0.76311-1.1098 0.07394-2.1582-0.47433-3.3189 0.04813 0.10324 0.143-0.11719 0.20717-0.025112 1.234-1.236 3.448-1.875 4.179-3.5393 0.27274-0.62012 0.28878-1.3198-0.14509-1.8708-0.68708-0.87193-1.7843-0.41504-2.6249-0.041155-1.3958 0.62221-2.0138 2.3877-2.9701 3.5261-0.45968 0.54688-0.9947 1.0233-1.6518 1.3191-0.86914 0.39132-1.2598 0.6522-1.7627 1.5248 0.13881-0.18066 0.11998 0.50712-0.052315 0.35714-0.094169 1.3888 0.50502 1.7048 1.1823 2.8683 0.29088 0.50223 0.97308 1.7257-0.14928 1.7397 0.14369 0.083008 0.24623 0.21833 0.39272 0.29925-0.6829 0.12068-1.2612-0.16881-1.552 0.12068-0.86705 0.86914 0 2.025-0.28878 2.8927-0.57826 1.7348-2.3131 2.3131-3.7612 2.892-2.0243-1.1572-2.6032-3.7598-2.606-6.0819-0.018136 0.075335-0.041853 0.14718-0.071847 0.21694 0.022321-0.069754 0.048828-0.14021 0.076032-0.20996-0.58524 0.011161-0.66127-0.76102-0.47712-1.1712-0.39132 0.013951-0.6808 0.30413-0.6808 0.30413-0.86705 2.6039-3.7598 2.8927-5.784 1.7362 0.34668-0.12207 1.8631-0.57617 1.2402-1.1279 0.64383-0.20298-0.17927-0.65081-0.46108-0.71777 0.26018-0.20926 0.21066-0.51688-0.071149-0.66406 0.33622-0.16532 1.024-0.53223 1.1879-0.8817 0.3397-0.72824-0.43806-0.099051-0.7387 0.03697-1.3693 0.62012-0.15695-1.0833 0.35993-1.3888-1.1182-0.88728 1.2667-3.4473 2.2468-2.184" fill="none" stroke="#000" stroke-linecap="round" stroke-linejoin="round" stroke-miterlimit="10" stroke-width=".5"/>
 <g>
  <use x="70" y="644" xlink:href="#v"/>
  <use x="90.550781" y="644" xlink:href="#e"/>
  <use x="104.359375" y="644" xlink:href="#a"/>
  <use x="123.347656" y="644" xlink:href="#l"/>
  <use x="142.242188" y="644" xlink:href="#b"/>
  <use x="155.628906" y="644" xlink:href="#a"/>
  <use x="174.617188" y="644" xlink:href="#d"/>
  <use x="204.410156" y="644" xlink:href="#k"/>
  <use x="224.453125" y="644" xlink:href="#j"/>
  <use x="252.453125" y="644" xlink:href="#i"/>
  <use x="270.292969" y="644" xlink:href="#h"/>
  <use x="279.890625" y="644" xlink:href="#g"/>
  <use x="299.824219" y="644" xlink:href="#u"/>
  <use x="316.492188" y="644" xlink:href="#a"/>
  <use x="335.480469" y="644" xlink:href="#a"/>
  <use x="354.46875" y="644" xlink:href="#d"/>
  <use x="384.261719" y="644" xlink:href="#t"/>
  <use x="404.429688" y="644" xlink:href="#b"/>
  <use x="417.8125" y="644" xlink:href="#f"/>
  <use x="437.746094" y="644" xlink:href="#d"/>
  <use x="457.789062" y="644" xlink:href="#h"/>
  <use x="467.386719" y="644" xlink:href="#c"/>
  <use x="70" y="672" xlink:href="#s"/>
  <use x="82.183594" y="672" xlink:href="#e"/>
  <use x="95.992188" y="672" xlink:href="#c"/>
  <use x="115.226562" y="672" xlink:href="#r"/>
  <use x="154.152344" y="672" xlink:href="#b"/>
  <use x="167.535156" y="672" xlink:href="#q"/>
  <use x="187.46875" y="672" xlink:href="#a"/>
  <use x="216.207031" y="672" xlink:href="#p"/>
  <use x="239.640625" y="672" xlink:href="#c"/>
  <use x="258.878906" y="672" xlink:href="#f"/>
  <use x="278.8125" y="672" xlink:href="#g"/>
  <use x="308.492188" y="672" xlink:href="#o"/>
  <use x="329.015625" y="672" xlink:href="#e"/>
  <use x="342.820312" y="672" xlink:href="#c"/>
  <use x="362.058594" y="672" xlink:href="#n"/>
  <use x="371.65625" y="672" xlink:href="#a"/>
  <use x="390.648438" y="672" xlink:href="#m"/>
  <use x="407.242188" y="672" xlink:href="#b"/>
 </g>
</svg>
