<?xml version="1.0" encoding="UTF-8"?>
<svg width="700pt" height="700pt" version="1.1" viewBox="0 0 700 700" xmlns="http://www.w3.org/2000/svg" xmlns:xlink="http://www.w3.org/1999/xlink">
 <defs>
  <symbol id="r" overflow="visible">
   <path d="m3.6562-0.21875c-0.1875 0.09375-0.38672 0.16797-0.59375 0.21875-0.19922 0.050781-0.40625 0.078125-0.625 0.078125-0.66797 0-1.1992-0.17969-1.5938-0.54688-0.38672-0.375-0.57812-0.87891-0.57812-1.5156 0-0.64453 0.19141-1.1484 0.57812-1.5156 0.39453-0.375 0.92578-0.5625 1.5938-0.5625 0.21875 0 0.42578 0.027344 0.625 0.078125 0.20703 0.054687 0.40625 0.125 0.59375 0.21875v0.82812c-0.1875-0.125-0.375-0.21875-0.5625-0.28125-0.17969-0.0625-0.37109-0.09375-0.57812-0.09375-0.36719 0-0.65625 0.12109-0.875 0.35938-0.21094 0.23047-0.3125 0.55469-0.3125 0.96875 0 0.40625 0.10156 0.73047 0.3125 0.96875 0.21875 0.23047 0.50781 0.34375 0.875 0.34375 0.20703 0 0.39844-0.023437 0.57812-0.078125 0.1875-0.0625 0.375-0.16016 0.5625-0.29688z"/>
  </symbol>
  <symbol id="b" overflow="visible">
   <path d="m2.6875-2.1719c-0.085938-0.039063-0.16797-0.070313-0.25-0.09375-0.085938-0.019531-0.16797-0.03125-0.25-0.03125-0.25 0-0.44531 0.085937-0.57812 0.25-0.125 0.15625-0.1875 0.38281-0.1875 0.67188v1.375h-0.96875v-2.9844h0.96875v0.48438c0.11328-0.19531 0.25-0.33594 0.40625-0.42188 0.16406-0.09375 0.35938-0.14062 0.57812-0.14062h0.10938c0.039063 0 0.09375 0.007812 0.15625 0.015625z"/>
  </symbol>
  <symbol id="a" overflow="visible">
   <path d="m3.4375-1.5v0.26562h-2.2344c0.03125 0.23047 0.11328 0.40234 0.25 0.51562 0.13281 0.10547 0.32812 0.15625 0.57812 0.15625 0.20703 0 0.41406-0.023438 0.625-0.078125 0.20703-0.0625 0.42188-0.15625 0.64062-0.28125v0.73438c-0.21875 0.09375-0.44531 0.16406-0.67188 0.20312-0.23047 0.039062-0.45312 0.0625-0.67188 0.0625-0.54297 0-0.96484-0.13281-1.2656-0.40625-0.30469-0.28125-0.45312-0.67188-0.45312-1.1719 0-0.47656 0.14453-0.85938 0.4375-1.1406 0.30078-0.28125 0.70703-0.42188 1.2188-0.42188 0.46875 0 0.84375 0.14062 1.125 0.42188s0.42188 0.66406 0.42188 1.1406zm-0.96875-0.32812c0-0.17578-0.058594-0.31641-0.17188-0.42188-0.10547-0.11328-0.24219-0.17188-0.40625-0.17188-0.1875 0-0.33984 0.054687-0.45312 0.15625-0.11719 0.10547-0.1875 0.25-0.21875 0.4375z"/>
  </symbol>
  <symbol id="j" overflow="visible">
   <path d="m1.7969-1.3438c-0.19922 0-0.35156 0.039062-0.45312 0.10938-0.09375 0.0625-0.14062 0.16406-0.14062 0.29688 0 0.11719 0.035156 0.21094 0.10938 0.28125 0.082031 0.0625 0.19531 0.09375 0.34375 0.09375 0.17578 0 0.32812-0.0625 0.45312-0.1875s0.1875-0.28516 0.1875-0.48438v-0.10938zm1.4688-0.35938v1.7031h-0.96875v-0.4375c-0.125 0.17969-0.27344 0.30859-0.4375 0.39062-0.15625 0.082031-0.35156 0.125-0.57812 0.125-0.3125 0-0.57031-0.085938-0.76562-0.26562-0.1875-0.1875-0.28125-0.42188-0.28125-0.70312 0-0.35156 0.11719-0.61328 0.35938-0.78125 0.23828-0.16406 0.61719-0.25 1.1406-0.25h0.5625v-0.0625c0-0.15625-0.0625-0.26562-0.1875-0.32812-0.11719-0.070312-0.29688-0.10938-0.54688-0.10938-0.21094 0-0.40234 0.023437-0.57812 0.0625-0.17969 0.042969-0.33984 0.10156-0.48438 0.17188v-0.71875c0.19531-0.050781 0.39844-0.085938 0.60938-0.10938 0.20703-0.03125 0.41406-0.046875 0.625-0.046875 0.53906 0 0.92969 0.10938 1.1719 0.32812 0.23828 0.21094 0.35938 0.55469 0.35938 1.0312z"/>
  </symbol>
  <symbol id="d" overflow="visible">
   <path d="m1.5-3.8438v0.85938h0.98438v0.67188h-0.98438v1.2812c0 0.13672 0.023438 0.23047 0.078125 0.28125 0.0625 0.042969 0.17578 0.0625 0.34375 0.0625h0.48438v0.6875h-0.8125c-0.38672 0-0.65625-0.078125-0.8125-0.23438s-0.23438-0.42188-0.23438-0.79688v-1.2812h-0.46875v-0.67188h0.46875v-0.85938z"/>
  </symbol>
  <symbol id="i" overflow="visible">
   <path d="m2.5-2.5469v-1.6094h0.95312v4.1562h-0.95312v-0.4375c-0.13672 0.17969-0.28125 0.30859-0.4375 0.39062-0.15625 0.082031-0.33984 0.125-0.54688 0.125-0.375 0-0.68359-0.14453-0.92188-0.4375-0.23047-0.28906-0.34375-0.67188-0.34375-1.1406 0-0.45703 0.11328-0.83203 0.34375-1.125 0.23828-0.28906 0.54688-0.4375 0.92188-0.4375 0.19531 0 0.375 0.042969 0.53125 0.125 0.16406 0.085938 0.31641 0.21484 0.45312 0.39062zm-0.64062 1.9375c0.20703 0 0.36328-0.070313 0.46875-0.21875 0.11328-0.15625 0.17188-0.37891 0.17188-0.67188 0-0.28125-0.058594-0.49219-0.17188-0.64062-0.10547-0.15625-0.26172-0.23438-0.46875-0.23438-0.19922 0-0.35547 0.078125-0.46875 0.23438-0.10547 0.14844-0.15625 0.35938-0.15625 0.64062 0 0.29297 0.050781 0.51562 0.15625 0.67188 0.11328 0.14844 0.26953 0.21875 0.46875 0.21875z"/>
  </symbol>
  <symbol id="h" overflow="visible">
   <path d="m2.0469-0.60938c0.20703 0 0.36328-0.070313 0.46875-0.21875 0.11328-0.15625 0.17188-0.37891 0.17188-0.67188 0-0.28125-0.058594-0.49219-0.17188-0.64062-0.10547-0.15625-0.26172-0.23438-0.46875-0.23438-0.19922 0-0.35547 0.078125-0.46875 0.23438-0.10547 0.14844-0.15625 0.35938-0.15625 0.64062 0 0.29297 0.050781 0.51562 0.15625 0.67188 0.11328 0.14844 0.26953 0.21875 0.46875 0.21875zm-0.625-1.9375c0.125-0.17578 0.26562-0.30469 0.42188-0.39062 0.16406-0.082031 0.35156-0.125 0.5625-0.125 0.36328 0 0.66406 0.14844 0.90625 0.4375 0.23828 0.29297 0.35938 0.66797 0.35938 1.125 0 0.46875-0.12109 0.85156-0.35938 1.1406-0.24219 0.29297-0.54297 0.4375-0.90625 0.4375-0.21094 0-0.39844-0.042969-0.5625-0.125-0.15625-0.082031-0.29688-0.21094-0.42188-0.39062v0.4375h-0.96875v-4.1562h0.96875z"/>
  </symbol>
  <symbol id="g" overflow="visible">
   <path d="m0.0625-2.9844h0.95312l0.8125 2.0156 0.6875-2.0156h0.95312l-1.2656 3.2656c-0.125 0.33203-0.27344 0.56641-0.4375 0.70312-0.16797 0.13281-0.39062 0.20312-0.67188 0.20312h-0.54688v-0.64062h0.29688c0.16406 0 0.28516-0.027344 0.35938-0.078125 0.070313-0.054688 0.12891-0.14062 0.17188-0.26562l0.03125-0.09375z"/>
  </symbol>
  <symbol id="e" overflow="visible">
   <path d="m0.5-3.9844h1.1562l1.4375 2.7344v-2.7344h0.98438v3.9844h-1.1562l-1.4375-2.7344v2.7344h-0.98438z"/>
  </symbol>
  <symbol id="f" overflow="visible">
   <path d="m3.4688-1.8281v1.8281h-0.96875v-1.3906c0-0.25781-0.007812-0.4375-0.015625-0.53125-0.011719-0.10156-0.03125-0.17578-0.0625-0.21875-0.03125-0.0625-0.085937-0.10938-0.15625-0.14062-0.0625-0.039062-0.13281-0.0625-0.20312-0.0625-0.21094 0-0.37109 0.078125-0.48438 0.23438-0.10547 0.15625-0.15625 0.37109-0.15625 0.64062v1.4688h-0.96875v-4.1562h0.96875v1.6094c0.13281-0.17578 0.28516-0.30469 0.45312-0.39062 0.16406-0.082031 0.34375-0.125 0.53125-0.125 0.34375 0 0.60156 0.10938 0.78125 0.32812 0.1875 0.21094 0.28125 0.51172 0.28125 0.90625z"/>
  </symbol>
  <symbol id="c" overflow="visible">
   <path d="m1.875-2.375c-0.21094 0-0.37109 0.078125-0.48438 0.23438-0.10547 0.14844-0.15625 0.35938-0.15625 0.64062 0 0.29297 0.050781 0.51562 0.15625 0.67188 0.11328 0.14844 0.27344 0.21875 0.48438 0.21875 0.20703 0 0.36719-0.070313 0.48438-0.21875 0.11328-0.15625 0.17188-0.37891 0.17188-0.67188 0-0.28125-0.058594-0.49219-0.17188-0.64062-0.11719-0.15625-0.27734-0.23438-0.48438-0.23438zm0-0.6875c0.51953 0 0.92188 0.14062 1.2031 0.42188 0.28906 0.27344 0.4375 0.65234 0.4375 1.1406 0 0.5-0.14844 0.89062-0.4375 1.1719-0.28125 0.27344-0.68359 0.40625-1.2031 0.40625-0.51172 0-0.91406-0.13281-1.2031-0.40625-0.29297-0.28125-0.4375-0.67188-0.4375-1.1719 0-0.48828 0.14453-0.86719 0.4375-1.1406 0.28906-0.28125 0.69141-0.42188 1.2031-0.42188z"/>
  </symbol>
  <symbol id="q" overflow="visible">
   <path d="m2.4219-4.1562v0.625h-0.51562c-0.13672 0-0.23438 0.027344-0.29688 0.078125-0.054687 0.054687-0.078125 0.13672-0.078125 0.25v0.21875h0.82812v0.67188h-0.82812v2.3125h-0.95312v-2.3125h-0.46875v-0.67188h0.46875v-0.21875c0-0.32031 0.085937-0.5625 0.26562-0.71875 0.1875-0.15625 0.47266-0.23438 0.85938-0.23438z"/>
  </symbol>
  <symbol id="p" overflow="visible">
   <path d="m3.2344-2.5c0.11328-0.17578 0.25391-0.3125 0.42188-0.40625 0.16406-0.10156 0.35156-0.15625 0.5625-0.15625 0.33203 0 0.58594 0.10938 0.76562 0.32812 0.1875 0.21094 0.28125 0.51172 0.28125 0.90625v1.8281h-0.96875v-1.5625c0.007813-0.019531 0.015625-0.039062 0.015625-0.0625v-0.10938c0-0.21875-0.03125-0.375-0.09375-0.46875s-0.16406-0.14062-0.29688-0.14062c-0.1875 0-0.33594 0.078125-0.4375 0.23438-0.09375 0.14844-0.14062 0.35938-0.14062 0.64062v1.4688h-0.96875v-1.5625c0-0.33203-0.03125-0.54688-0.09375-0.64062-0.054688-0.09375-0.15234-0.14062-0.29688-0.14062-0.17969 0-0.32031 0.078125-0.42188 0.23438-0.09375 0.14844-0.14062 0.35938-0.14062 0.64062v1.4688h-0.96875v-2.9844h0.96875v0.4375c0.11328-0.17578 0.24219-0.30469 0.39062-0.39062 0.15625-0.082031 0.32812-0.125 0.51562-0.125 0.20703 0 0.39062 0.054688 0.54688 0.15625 0.15625 0.09375 0.27344 0.23047 0.35938 0.40625z"/>
  </symbol>
  <symbol id="o" overflow="visible">
   <path d="m0.42188-1.1719v-1.8125h0.96875v0.29688 0.60938 0.48438c0 0.24219 0.003906 0.41797 0.015625 0.53125 0.007812 0.10547 0.03125 0.17969 0.0625 0.21875 0.039062 0.0625 0.09375 0.11719 0.15625 0.15625 0.0625 0.03125 0.13281 0.046875 0.21875 0.046875 0.19531 0 0.35156-0.078125 0.46875-0.23438 0.11328-0.15625 0.17188-0.36719 0.17188-0.64062v-1.4688h0.95312v2.9844h-0.95312v-0.4375c-0.14844 0.17969-0.30469 0.30859-0.46875 0.39062-0.15625 0.082031-0.33594 0.125-0.53125 0.125-0.34375 0-0.60938-0.10156-0.79688-0.3125-0.17969-0.21875-0.26562-0.53125-0.26562-0.9375z"/>
  </symbol>
  <symbol id="n" overflow="visible">
   <path d="m3.4688-1.8281v1.8281h-0.96875v-1.3906c0-0.25781-0.007812-0.4375-0.015625-0.53125-0.011719-0.10156-0.03125-0.17578-0.0625-0.21875-0.03125-0.0625-0.085937-0.10938-0.15625-0.14062-0.0625-0.039062-0.13281-0.0625-0.20312-0.0625-0.21094 0-0.37109 0.078125-0.48438 0.23438-0.10547 0.15625-0.15625 0.37109-0.15625 0.64062v1.4688h-0.96875v-2.9844h0.96875v0.4375c0.13281-0.17578 0.28516-0.30469 0.45312-0.39062 0.16406-0.082031 0.34375-0.125 0.53125-0.125 0.34375 0 0.60156 0.10938 0.78125 0.32812 0.1875 0.21094 0.28125 0.51172 0.28125 0.90625z"/>
  </symbol>
  <symbol id="m" overflow="visible">
   <path d="m0.5-3.9844h1.7031c0.50781 0 0.89844 0.11719 1.1719 0.34375 0.26953 0.21875 0.40625 0.53906 0.40625 0.95312 0 0.41797-0.13672 0.74219-0.40625 0.96875-0.27344 0.21875-0.66406 0.32812-1.1719 0.32812h-0.67188v1.3906h-1.0312zm1.0312 0.75v1.1094h0.5625c0.19531 0 0.34766-0.046875 0.45312-0.14062 0.11328-0.10156 0.17188-0.24219 0.17188-0.42188 0-0.17578-0.058594-0.3125-0.17188-0.40625-0.10547-0.09375-0.25781-0.14062-0.45312-0.14062z"/>
  </symbol>
  <symbol id="l" overflow="visible">
   <path d="m0.45312-2.9844h0.96875v2.9375c0 0.39453-0.10156 0.69531-0.29688 0.90625-0.1875 0.21875-0.46484 0.32812-0.82812 0.32812h-0.48438v-0.64062h0.17188c0.17578 0 0.29688-0.042969 0.35938-0.125 0.070312-0.074219 0.10938-0.23047 0.10938-0.46875zm0-1.1719h0.96875v0.78125h-0.96875z"/>
  </symbol>
  <symbol id="k" overflow="visible">
   <path d="m2.875-2.8906v0.76562c-0.125-0.082031-0.25781-0.14453-0.39062-0.1875-0.13672-0.039062-0.27344-0.0625-0.40625-0.0625-0.27344 0-0.48047 0.078125-0.625 0.23438-0.14844 0.15625-0.21875 0.37109-0.21875 0.64062 0 0.28125 0.070313 0.5 0.21875 0.65625 0.14453 0.15625 0.35156 0.23438 0.625 0.23438 0.14453 0 0.28516-0.019531 0.42188-0.0625 0.13281-0.039063 0.25781-0.10938 0.375-0.20312v0.78125c-0.14844 0.0625-0.29688 0.10156-0.45312 0.125-0.15625 0.03125-0.3125 0.046875-0.46875 0.046875-0.54297 0-0.96484-0.13281-1.2656-0.40625-0.30469-0.28125-0.45312-0.67188-0.45312-1.1719 0-0.48828 0.14844-0.86719 0.45312-1.1406 0.30078-0.28125 0.72266-0.42188 1.2656-0.42188 0.15625 0 0.3125 0.015625 0.46875 0.046875 0.15625 0.023437 0.30469 0.0625 0.45312 0.125z"/>
  </symbol>
 </defs>
 <g>
  <path d="m532.2 129.59c10.184-39.398 5.7148-70.031-13.023-88.77-13.793-13.793-33.82-19.852-59.535-18.016-22.758 1.6289-48.949 9.3984-77.863 23.066-10.535-1.4102-21.152-2.1172-31.781-2.1211-62.656 0-122.75 24.891-167.05 69.195-44.305 44.305-69.195 104.4-69.195 167.05 0.003906 10.629 0.71094 21.246 2.1211 31.781-13.672 28.914-21.438 55.105-23.066 77.863-1.8359 25.711 4.2227 45.742 18.016 59.535 12.199 12.199 29.438 18.352 50.859 18.352 12.812-0.18359 25.547-1.9766 37.906-5.3359 45.324 37.414 102.96 56.594 161.66 53.793 58.703-2.7969 114.25-27.375 155.81-68.93 41.555-41.555 66.133-97.105 68.934-155.81 2.7969-58.703-16.379-116.34-53.793-161.66zm-71.312-89.328c20.418-1.457 35.867 2.8906 45.91 12.938 8.9688 8.9688 17.438 26.578 11.039 60.555-0.26562-0.26953-0.52344-0.53906-0.78906-0.80859-29.027-29.164-65.211-50.191-104.92-60.973 17.867-6.6914 34.422-10.688 48.762-11.711zm-147.77 24.113-6.668 29.977c-0.97266 4.375 1.5234 8.7812 5.7773 10.199l48.348 16.117 7.3672 22.094c0.61719 1.8438 1.8281 3.4336 3.4453 4.5117l21.121 14.078-6.4727 25.898-53.715 38.367-21.023-14.016-34.805-26.102c-3.4844-2.6133-8.3594-2.2656-11.438 0.8125l-26.25 26.25c-1.6406 1.6406-2.5625 3.8672-2.5625 6.1875v40.125l-13.672 13.672-42.082 16.832c-1.6445 0.66016-3.0469 1.7969-4.0312 3.2695l-17.5 26.25c-0.95703 1.4375-1.4648 3.125-1.4648 4.8516v39.375l-7.4375 5.5781c-12.434-27.918-18.844-58.141-18.812-88.703 0-108.05 78.75-198.04 181.87-215.62zm-189.93 372.43c-10.043-10.043-14.395-25.488-12.938-45.91 1.0234-14.344 5.0195-30.895 11.711-48.758l0.003906-0.003907c10.781 39.711 31.809 75.891 60.973 104.92 0.26563 0.26562 0.53906 0.52344 0.80859 0.78906-33.98 6.3945-51.586-2.0703-60.559-11.039zm110.76-22.906-13.438-20.148 13.781-20.672 15.883-15.883 29.188-14.594 22.023 14.684h0.003906c1.4375 0.95703 3.1289 1.4648 4.8555 1.4648h13.875l11.699 11.703c-28.184 22.266-56.609 40.688-83.543 54.203zm110.32-31.008 8.2969 8.2969c2.1758 2.1719 5.332 3.043 8.3125 2.2969l27.141-6.7812 5.2578 15.797-6.4453 19.332-22.094 7.3672c-3.5742 1.1875-5.9883 4.5352-5.9883 8.3008v21.566l-22.355 14.902c-1.8086 1.207-3.1055 3.0469-3.6328 5.1562l-4.6367 18.531c-11.059-1.1016-22.016-3.0469-32.777-5.8203l-6.6836-46.824v-0.003907c-0.61719-4.3086-4.3086-7.5078-8.6641-7.5078h-14.582l-1.6055-1.2031c26.207-13.891 53.5-31.984 80.453-53.406zm-87.02 70.359c1.5156 1.1367 3.3555 1.75 5.25 1.75h9.9102l4.4492 31.16c-20.324-7.2422-39.461-17.449-56.793-30.297 8.5312-3.0547 17.273-6.6641 26.227-10.836zm88.652 45.449 3.0117-12.043 23.438-15.625h0.003907c2.4336-1.625 3.8945-4.3555 3.8945-7.2812v-19.945l20.266-6.7578v0.003906c2.6133-0.87109 4.6641-2.9219 5.5352-5.5352l8.75-26.25c0.59766-1.793 0.59766-3.7383 0-5.5312l-8.75-26.25c-1.4453-4.3398-5.9883-6.832-10.422-5.7227l-30.195 7.5469-3.5508-3.5508c8.168-6.8633 16.27-14.012 24.312-21.438l-11.891-12.84c-8.2031 7.5977-16.48 14.883-24.84 21.863l-15.531-15.531v0.003906c-1.6367-1.6445-3.8633-2.5664-6.1836-2.5664h-14.852l-24.047-16.031h0.003907c-2.6133-1.7422-5.9609-1.9492-8.7695-0.54688l-35 17.5c-0.83984 0.42188-1.6094 0.97656-2.2734 1.6406l-17.5 17.5c-0.40625 0.41016-0.77344 0.85547-1.0938 1.3359l-17.5 26.25c-1.9609 2.9375-1.9609 6.7656 0 9.707l17.5 26.25c0.55078 0.82422 1.2383 1.5508 2.0312 2.1445l8.0508 6.0391c-8.5781 3.7148-17.348 6.9648-26.273 9.7344-18.531-16.629-34.109-36.277-46.07-58.113l13.543-10.16c2.2031-1.6523 3.5-4.2461 3.5-7v-41.102l14.523-21.785 41.227-16.492v0.003906c1.1016-0.44141 2.0977-1.1016 2.9375-1.9375l17.5-17.5c1.6406-1.6406 2.5625-3.8672 2.5625-6.1875v-40.125l18.32-18.32 28.93 21.695c0.12891 0.097656 0.26172 0.19141 0.39453 0.28125l26.25 17.5c3.0273 2.0156 6.9844 1.9531 9.9414-0.16016l61.25-43.75c1.6914-1.2109 2.8984-2.9805 3.4023-5l8.75-35c0.89844-3.5859-0.55469-7.3555-3.6328-9.4062l-23.75-15.836-7.8008-23.406h-0.003907c-0.87109-2.6094-2.9219-4.6602-5.5352-5.5312l-45.012-14.996 6.3164-28.41c6.0781-0.51172 12.223-0.78516 18.43-0.78516 30.727-0.011719 61.105 6.4648 89.156 19.008 28.047 12.539 53.133 30.863 73.613 53.766-6.7344 22.008-17.863 46.023-33.141 71.473l15.004 9.0078c13.543-22.562 24-44.16 31.234-64.434 21.062 28.379 34.898 61.461 40.309 96.387l-28.254 17.332v0.003907c-1.9531 1.1953-3.3594 3.1133-3.9141 5.3359l-16.336 65.34-47.938 15.98c-3.5742 1.1914-5.9844 4.5352-5.9844 8.3008v48.875l-14.938 14.938c-2.7891 2.7891-3.3672 7.1016-1.4102 10.527l18.484 32.355c-34.715 21.805-74.891 33.352-115.89 33.305-1.3711 0-2.7344-0.027344-4.0977-0.050781zm134.48-43.16-14.469-25.328 12.773-12.773c1.6406-1.6406 2.5625-3.8672 2.5625-6.1875v-46.195l46.516-15.508v0.003906c2.8398-0.94531 4.9961-3.2773 5.7227-6.1797l16.633-66.531 18.148-11.133c0.30469 4.7266 0.48047 9.4922 0.48047 14.293-0.003906 34.125-7.9961 67.777-23.34 98.262-15.348 30.48-37.617 56.945-65.027 77.277z"/>
  <path d="m507.5 315v-70c0-3.9062-2.5898-7.3398-6.3438-8.4141l-61.25-17.5c-1.5742-0.44922-3.2383-0.44922-4.8125 0l-61.25 17.5c-3.7539 1.0742-6.3438 4.5078-6.3438 8.4141v70c0 3.9062 2.5898 7.3398 6.3438 8.4141l61.25 17.5c1.5742 0.44922 3.2383 0.44922 4.8125 0l61.25-17.5c3.7539-1.0742 6.3438-4.5078 6.3438-8.4141zm-70-78.398 29.398 8.3984-29.398 8.3984-29.398-8.3984zm-52.5 20 43.75 12.5v51.801l-43.75-12.5zm61.25 64.301v-51.801l43.75-12.5v51.801z"/>
  <path d="m341.25 166.25h17.5v17.5h-17.5z"/>
  <path d="m227.5 131.25h17.5v17.5h-17.5z"/>
  <path d="m183.75 236.25h17.5v17.5h-17.5z"/>
  <path d="m262.5 367.5h17.5v17.5h-17.5z"/>
  <path d="m315 428.75h17.5v17.5h-17.5z"/>
  <path d="m498.75 376.25h17.5v17.5h-17.5z"/>
  <use x="70" y="576.40625" xlink:href="#r"/>
  <use x="74.011719" y="576.40625" xlink:href="#b"/>
  <use x="76.710938" y="576.40625" xlink:href="#a"/>
  <use x="80.417969" y="576.40625" xlink:href="#j"/>
  <use x="84.109375" y="576.40625" xlink:href="#d"/>
  <use x="86.722656" y="576.40625" xlink:href="#a"/>
  <use x="90.433594" y="576.40625" xlink:href="#i"/>
  <use x="96.25" y="576.40625" xlink:href="#h"/>
  <use x="100.167969" y="576.40625" xlink:href="#g"/>
  <use x="105.636719" y="576.40625" xlink:href="#e"/>
  <use x="110.210938" y="576.40625" xlink:href="#f"/>
  <use x="114.105469" y="576.40625" xlink:href="#c"/>
  <use x="117.863281" y="576.40625" xlink:href="#b"/>
  <use x="70" y="581.875" xlink:href="#q"/>
  <use x="72.378906" y="581.875" xlink:href="#b"/>
  <use x="75.078125" y="581.875" xlink:href="#c"/>
  <use x="78.832031" y="581.875" xlink:href="#p"/>
  <use x="86.4375" y="581.875" xlink:href="#d"/>
  <use x="89.050781" y="581.875" xlink:href="#f"/>
  <use x="92.941406" y="581.875" xlink:href="#a"/>
  <use x="98.554688" y="581.875" xlink:href="#e"/>
  <use x="103.132812" y="581.875" xlink:href="#c"/>
  <use x="106.890625" y="581.875" xlink:href="#o"/>
  <use x="110.785156" y="581.875" xlink:href="#n"/>
  <use x="116.582031" y="581.875" xlink:href="#m"/>
  <use x="120.589844" y="581.875" xlink:href="#b"/>
  <use x="123.285156" y="581.875" xlink:href="#c"/>
  <use x="127.042969" y="581.875" xlink:href="#l"/>
  <use x="128.917969" y="581.875" xlink:href="#a"/>
  <use x="132.625" y="581.875" xlink:href="#k"/>
  <use x="135.867188" y="581.875" xlink:href="#d"/>
 </g>
</svg>
