<?xml version="1.0" encoding="UTF-8"?>
<svg width="700pt" height="700pt" version="1.1" viewBox="0 0 700 700" xmlns="http://www.w3.org/2000/svg" xmlns:xlink="http://www.w3.org/1999/xlink">
 <defs>
  <symbol id="w" overflow="visible">
   <path d="m18.766-1.125c-0.96875 0.5-1.9805 0.875-3.0312 1.125-1.043 0.25781-2.1367 0.39062-3.2812 0.39062-3.3984 0-6.0898-0.94531-8.0781-2.8438-1.9922-1.9062-2.9844-4.4844-2.9844-7.7344 0-3.2578 0.99219-5.8359 2.9844-7.7344 1.9883-1.9062 4.6797-2.8594 8.0781-2.8594 1.1445 0 2.2383 0.13281 3.2812 0.39062 1.0508 0.25 2.0625 0.625 3.0312 1.125v4.2188c-0.98047-0.65625-1.9453-1.1406-2.8906-1.4531-0.94922-0.3125-1.9492-0.46875-3-0.46875-1.875 0-3.3516 0.60547-4.4219 1.8125-1.0742 1.1992-1.6094 2.8555-1.6094 4.9688 0 2.1055 0.53516 3.7617 1.6094 4.9688 1.0703 1.1992 2.5469 1.7969 4.4219 1.7969 1.0508 0 2.0508-0.14844 3-0.45312 0.94531-0.3125 1.9102-0.80078 2.8906-1.4688z"/>
  </symbol>
  <symbol id="a" overflow="visible">
   <path d="m13.734-11.141c-0.4375-0.19531-0.87109-0.34375-1.2969-0.4375-0.41797-0.10156-0.83984-0.15625-1.2656-0.15625-1.2617 0-2.2305 0.40625-2.9062 1.2188-0.67969 0.80469-1.0156 1.9531-1.0156 3.4531v7.0625h-4.8906v-15.312h4.8906v2.5156c0.625-1 1.3438-1.7266 2.1562-2.1875 0.82031-0.46875 1.8008-0.70312 2.9375-0.70312 0.16406 0 0.34375 0.011719 0.53125 0.03125 0.19531 0.011719 0.47656 0.039062 0.84375 0.078125z"/>
  </symbol>
  <symbol id="b" overflow="visible">
   <path d="m17.641-7.7031v1.4062h-11.453c0.125 1.1484 0.53906 2.0078 1.25 2.5781 0.70703 0.57422 1.7031 0.85938 2.9844 0.85938 1.0312 0 2.082-0.14844 3.1562-0.45312 1.082-0.3125 2.1914-0.77344 3.3281-1.3906v3.7656c-1.1562 0.4375-2.3125 0.76562-3.4688 0.98438-1.1562 0.22656-2.3125 0.34375-3.4688 0.34375-2.7734 0-4.9297-0.70312-6.4688-2.1094-1.5312-1.4062-2.2969-3.3789-2.2969-5.9219 0-2.5 0.75391-4.4609 2.2656-5.8906 1.5078-1.4375 3.582-2.1562 6.2188-2.1562 2.4062 0 4.332 0.73047 5.7812 2.1875 1.4453 1.4492 2.1719 3.3828 2.1719 5.7969zm-5.0312-1.625c0-0.92578-0.27344-1.6719-0.8125-2.2344-0.54297-0.57031-1.25-0.85938-2.125-0.85938-0.94922 0-1.7188 0.26562-2.3125 0.79688s-0.96484 1.2969-1.1094 2.2969z"/>
  </symbol>
  <symbol id="e" overflow="visible">
   <path d="m9.2188-6.8906c-1.0234 0-1.793 0.17188-2.3125 0.51562-0.51172 0.34375-0.76562 0.85547-0.76562 1.5312 0 0.625 0.20703 1.1172 0.625 1.4688 0.41406 0.34375 0.98828 0.51562 1.7188 0.51562 0.92578 0 1.7031-0.32812 2.3281-0.98438 0.63281-0.66406 0.95312-1.4922 0.95312-2.4844v-0.5625zm7.4688-1.8438v8.7344h-4.9219v-2.2656c-0.65625 0.92969-1.3984 1.6055-2.2188 2.0312-0.82422 0.41406-1.8242 0.625-3 0.625-1.5859 0-2.8711-0.45703-3.8594-1.375-0.99219-0.92578-1.4844-2.1289-1.4844-3.6094 0-1.7891 0.61328-3.1016 1.8438-3.9375 1.2383-0.84375 3.1797-1.2656 5.8281-1.2656h2.8906v-0.39062c0-0.76953-0.30859-1.332-0.92188-1.6875-0.61719-0.36328-1.5703-0.54688-2.8594-0.54688-1.0547 0-2.0312 0.10547-2.9375 0.3125-0.89844 0.21094-1.7305 0.52344-2.5 0.9375v-3.7344c1.0391-0.25 2.0859-0.44141 3.1406-0.57812 1.0625-0.13281 2.125-0.20312 3.1875-0.20312 2.7578 0 4.75 0.54688 5.9688 1.6406 1.2266 1.0859 1.8438 2.8555 1.8438 5.3125z"/>
  </symbol>
  <symbol id="d" overflow="visible">
   <path d="m7.7031-19.656v4.3438h5.0469v3.5h-5.0469v6.5c0 0.71094 0.14062 1.1875 0.42188 1.4375s0.83594 0.375 1.6719 0.375h2.5156v3.5h-4.1875c-1.9375 0-3.3125-0.39844-4.125-1.2031-0.80469-0.8125-1.2031-2.1797-1.2031-4.1094v-6.5h-2.4219v-3.5h2.4219v-4.3438z"/>
  </symbol>
  <symbol id="j" overflow="visible">
   <path d="m12.766-13.078v-8.2031h4.9219v21.281h-4.9219v-2.2188c-0.66797 0.90625-1.4062 1.5703-2.2188 1.9844s-1.7578 0.625-2.8281 0.625c-1.8867 0-3.4336-0.75-4.6406-2.25-1.2109-1.5-1.8125-3.4258-1.8125-5.7812 0-2.3633 0.60156-4.2969 1.8125-5.7969 1.207-1.5 2.7539-2.25 4.6406-2.25 1.0625 0 2 0.21484 2.8125 0.64062 0.82031 0.42969 1.5664 1.0859 2.2344 1.9688zm-3.2188 9.9219c1.0391 0 1.8359-0.37891 2.3906-1.1406 0.55078-0.76953 0.82812-1.8828 0.82812-3.3438 0-1.457-0.27734-2.5664-0.82812-3.3281-0.55469-0.76953-1.3516-1.1562-2.3906-1.1562-1.043 0-1.8398 0.38672-2.3906 1.1562-0.55469 0.76172-0.82812 1.8711-0.82812 3.3281 0 1.4609 0.27344 2.5742 0.82812 3.3438 0.55078 0.76172 1.3477 1.1406 2.3906 1.1406z"/>
  </symbol>
  <symbol id="f" overflow="visible">
   <path d="m10.5-3.1562c1.0508 0 1.8516-0.37891 2.4062-1.1406 0.55078-0.76953 0.82812-1.8828 0.82812-3.3438 0-1.457-0.27734-2.5664-0.82812-3.3281-0.55469-0.76953-1.3555-1.1562-2.4062-1.1562-1.0547 0-1.8594 0.38672-2.4219 1.1562-0.55469 0.77344-0.82812 1.8828-0.82812 3.3281 0 1.4492 0.27344 2.5586 0.82812 3.3281 0.5625 0.77344 1.3672 1.1562 2.4219 1.1562zm-3.25-9.9219c0.67578-0.88281 1.4219-1.5391 2.2344-1.9688 0.82031-0.42578 1.7656-0.64062 2.8281-0.64062 1.8945 0 3.4453 0.75 4.6562 2.25 1.207 1.5 1.8125 3.4336 1.8125 5.7969 0 2.3555-0.60547 4.2812-1.8125 5.7812-1.2109 1.5-2.7617 2.25-4.6562 2.25-1.0625 0-2.0078-0.21094-2.8281-0.625-0.8125-0.42578-1.5586-1.0859-2.2344-1.9844v2.2188h-4.8906v-21.281h4.8906z"/>
  </symbol>
  <symbol id="i" overflow="visible">
   <path d="m0.34375-15.312h4.8906l4.125 10.391 3.5-10.391h4.8906l-6.4375 16.766c-0.64844 1.6953-1.4023 2.8828-2.2656 3.5625-0.86719 0.6875-2 1.0312-3.4062 1.0312h-2.8438v-3.2188h1.5312c0.83203 0 1.4375-0.13672 1.8125-0.40625 0.38281-0.26172 0.67969-0.73047 0.89062-1.4062l0.14062-0.42188z"/>
  </symbol>
  <symbol id="h" overflow="visible">
   <path d="m2.5781-20.406h5.25v16.422h9.25v3.9844h-14.5z"/>
  </symbol>
  <symbol id="v" overflow="visible">
   <path d="m2.3594-21.281h4.8906v21.281h-4.8906z"/>
  </symbol>
  <symbol id="g" overflow="visible">
   <path d="m2.1875-5.9688v-9.3438h4.9219v1.5312c0 0.83594-0.007813 1.875-0.015625 3.125-0.011719 1.25-0.015625 2.0859-0.015625 2.5 0 1.2422 0.03125 2.1328 0.09375 2.6719 0.070313 0.54297 0.17969 0.93359 0.32812 1.1719 0.20703 0.32422 0.47266 0.57422 0.79688 0.75 0.32031 0.16797 0.69141 0.25 1.1094 0.25 1.0195 0 1.8203-0.39062 2.4062-1.1719 0.58203-0.78125 0.875-1.8672 0.875-3.2656v-7.5625h4.8906v15.312h-4.8906v-2.2188c-0.74219 0.89844-1.5234 1.5586-2.3438 1.9844-0.82422 0.41406-1.7344 0.625-2.7344 0.625-1.7617 0-3.1055-0.53906-4.0312-1.625-0.92969-1.082-1.3906-2.6602-1.3906-4.7344z"/>
  </symbol>
  <symbol id="u" overflow="visible">
   <path d="m2.3594-15.312h4.8906v15.312h-4.8906zm0-5.9688h4.8906v4h-4.8906z"/>
  </symbol>
  <symbol id="t" overflow="visible">
   <path d="m14.312-14.828v3.7188c-1.043-0.4375-2.0547-0.76562-3.0312-0.98438-0.98047-0.21875-1.9023-0.32812-2.7656-0.32812-0.92969 0-1.6211 0.11719-2.0781 0.34375-0.44922 0.23047-0.67188 0.58984-0.67188 1.0781 0 0.38672 0.17188 0.68359 0.51562 0.89062 0.34375 0.21094 0.95703 0.36719 1.8438 0.46875l0.85938 0.125c2.5078 0.32422 4.1953 0.85156 5.0625 1.5781 0.86328 0.73047 1.2969 1.8711 1.2969 3.4219 0 1.6367-0.60547 2.8672-1.8125 3.6875-1.1992 0.8125-2.9922 1.2188-5.375 1.2188-1.0234 0-2.0742-0.078125-3.1562-0.23438-1.0742-0.15625-2.1797-0.39453-3.3125-0.71875v-3.7188c0.96875 0.48047 1.9609 0.83984 2.9844 1.0781 1.0312 0.23047 2.0781 0.34375 3.1406 0.34375 0.95703 0 1.6758-0.12891 2.1562-0.39062 0.47656-0.26953 0.71875-0.66406 0.71875-1.1875 0-0.4375-0.16797-0.75781-0.5-0.96875-0.33594-0.21875-0.99609-0.38281-1.9844-0.5l-0.85938-0.10938c-2.1797-0.26953-3.7031-0.77344-4.5781-1.5156-0.875-0.73828-1.3125-1.8594-1.3125-3.3594 0-1.625 0.55078-2.8281 1.6562-3.6094 1.1133-0.78906 2.8203-1.1875 5.125-1.1875 0.89453 0 1.8359 0.074219 2.8281 0.21875 1 0.13672 2.082 0.35156 3.25 0.64062z"/>
  </symbol>
  <symbol id="s" overflow="visible">
   <path d="m2.5781-20.406h5.25v20.406h-5.25z"/>
  </symbol>
  <symbol id="c" overflow="visible">
   <path d="m9.6406-12.188c-1.0859 0-1.9141 0.39062-2.4844 1.1719-0.57422 0.78125-0.85938 1.9062-0.85938 3.375s0.28516 2.5938 0.85938 3.375c0.57031 0.77344 1.3984 1.1562 2.4844 1.1562 1.0625 0 1.875-0.38281 2.4375-1.1562 0.57031-0.78125 0.85938-1.9062 0.85938-3.375s-0.28906-2.5938-0.85938-3.375c-0.5625-0.78125-1.375-1.1719-2.4375-1.1719zm0-3.5c2.6328 0 4.6914 0.71484 6.1719 2.1406 1.4766 1.418 2.2188 3.3867 2.2188 5.9062 0 2.5117-0.74219 4.4805-2.2188 5.9062-1.4805 1.418-3.5391 2.125-6.1719 2.125-2.6484 0-4.7148-0.70703-6.2031-2.125-1.4922-1.4258-2.2344-3.3945-2.2344-5.9062 0-2.5195 0.74219-4.4883 2.2344-5.9062 1.4883-1.4258 3.5547-2.1406 6.2031-2.1406z"/>
  </symbol>
  <symbol id="r" overflow="visible">
   <path d="m12.422-21.281v3.2188h-2.7031c-0.6875 0-1.1719 0.125-1.4531 0.375-0.27344 0.25-0.40625 0.6875-0.40625 1.3125v1.0625h4.1875v3.5h-4.1875v11.812h-4.8906v-11.812h-2.4375v-3.5h2.4375v-1.0625c0-1.6641 0.46094-2.8984 1.3906-3.7031 0.92578-0.80078 2.3672-1.2031 4.3281-1.2031z"/>
  </symbol>
  <symbol id="q" overflow="visible">
   <path d="m16.547-12.766c0.61328-0.94531 1.3477-1.6719 2.2031-2.1719 0.85156-0.5 1.7891-0.75 2.8125-0.75 1.7578 0 3.0977 0.54688 4.0156 1.6406 0.92578 1.0859 1.3906 2.6562 1.3906 4.7188v9.3281h-4.9219v-7.9844-0.35938c0.007813-0.13281 0.015625-0.32031 0.015625-0.5625 0-1.082-0.16406-1.8633-0.48438-2.3438-0.3125-0.48828-0.82422-0.73438-1.5312-0.73438-0.92969 0-1.6484 0.38672-2.1562 1.1562-0.51172 0.76172-0.77344 1.8672-0.78125 3.3125v7.5156h-4.9219v-7.9844c0-1.6953-0.14844-2.7852-0.4375-3.2656-0.29297-0.48828-0.8125-0.73438-1.5625-0.73438-0.9375 0-1.6641 0.38672-2.1719 1.1562-0.51172 0.76172-0.76562 1.8594-0.76562 3.2969v7.5312h-4.9219v-15.312h4.9219v2.2344c0.60156-0.86328 1.2891-1.5156 2.0625-1.9531 0.78125-0.4375 1.6406-0.65625 2.5781-0.65625 1.0625 0 2 0.25781 2.8125 0.76562 0.8125 0.51172 1.4258 1.2305 1.8438 2.1562z"/>
  </symbol>
  <symbol id="p" overflow="visible">
   <path d="m17.75-9.3281v9.3281h-4.9219v-7.1094c0-1.3438-0.03125-2.2656-0.09375-2.7656s-0.16797-0.86719-0.3125-1.1094c-0.1875-0.3125-0.44922-0.55469-0.78125-0.73438-0.32422-0.17578-0.69531-0.26562-1.1094-0.26562-1.0234 0-1.8242 0.39844-2.4062 1.1875-0.58594 0.78125-0.875 1.8711-0.875 3.2656v7.5312h-4.8906v-21.281h4.8906v8.2031c0.73828-0.88281 1.5195-1.5391 2.3438-1.9688 0.83203-0.42578 1.75-0.64062 2.75-0.64062 1.7695 0 3.1133 0.54688 4.0312 1.6406 0.91406 1.0859 1.375 2.6562 1.375 4.7188z"/>
  </symbol>
  <symbol id="o" overflow="visible">
   <path d="m2.5781-20.406h5.875l7.4219 14v-14h4.9844v20.406h-5.875l-7.4219-14v14h-4.9844z"/>
  </symbol>
  <symbol id="n" overflow="visible">
   <path d="m17.75-9.3281v9.3281h-4.9219v-7.1406c0-1.3203-0.03125-2.2344-0.09375-2.7344s-0.16797-0.86719-0.3125-1.1094c-0.1875-0.3125-0.44922-0.55469-0.78125-0.73438-0.32422-0.17578-0.69531-0.26562-1.1094-0.26562-1.0234 0-1.8242 0.39844-2.4062 1.1875-0.58594 0.78125-0.875 1.8711-0.875 3.2656v7.5312h-4.8906v-15.312h4.8906v2.2344c0.73828-0.88281 1.5195-1.5391 2.3438-1.9688 0.83203-0.42578 1.75-0.64062 2.75-0.64062 1.7695 0 3.1133 0.54688 4.0312 1.6406 0.91406 1.0859 1.375 2.6562 1.375 4.7188z"/>
  </symbol>
  <symbol id="m" overflow="visible">
   <path d="m2.5781-20.406h8.7344c2.5938 0 4.582 0.57812 5.9688 1.7344 1.3945 1.1484 2.0938 2.7891 2.0938 4.9219 0 2.1367-0.69922 3.7812-2.0938 4.9375-1.3867 1.1562-3.375 1.7344-5.9688 1.7344h-3.4844v7.0781h-5.25zm5.25 3.8125v5.7031h2.9219c1.0195 0 1.8047-0.25 2.3594-0.75 0.5625-0.5 0.84375-1.2031 0.84375-2.1094 0-0.91406-0.28125-1.6172-0.84375-2.1094-0.55469-0.48828-1.3398-0.73438-2.3594-0.73438z"/>
  </symbol>
  <symbol id="l" overflow="visible">
   <path d="m2.3594-15.312h4.8906v15.031c0 2.0508-0.49609 3.6172-1.4844 4.7031-0.98047 1.082-2.4062 1.625-4.2812 1.625h-2.4219v-3.2188h0.85938c0.92578 0 1.5625-0.21094 1.9062-0.625 0.35156-0.41797 0.53125-1.2461 0.53125-2.4844zm0-5.9688h4.8906v4h-4.8906z"/>
  </symbol>
  <symbol id="k" overflow="visible">
   <path d="m14.719-14.828v3.9844c-0.65625-0.45703-1.3242-0.79688-2-1.0156-0.66797-0.21875-1.3594-0.32812-2.0781-0.32812-1.3672 0-2.4336 0.40234-3.2031 1.2031-0.76172 0.79297-1.1406 1.9062-1.1406 3.3438 0 1.4297 0.37891 2.543 1.1406 3.3438 0.76953 0.79297 1.8359 1.1875 3.2031 1.1875 0.75781 0 1.4844-0.10938 2.1719-0.32812 0.6875-0.22656 1.3203-0.56641 1.9062-1.0156v4c-0.76172 0.28125-1.5391 0.48828-2.3281 0.625-0.78125 0.14453-1.5742 0.21875-2.375 0.21875-2.7617 0-4.9219-0.70703-6.4844-2.125-1.5547-1.4141-2.3281-3.3828-2.3281-5.9062 0-2.5312 0.77344-4.5039 2.3281-5.9219 1.5625-1.4141 3.7227-2.125 6.4844-2.125 0.80078 0 1.5938 0.074219 2.375 0.21875 0.78125 0.13672 1.5547 0.35156 2.3281 0.64062z"/>
  </symbol>
 </defs>
 <g>
  <path d="m550.73 275.62c-1.25-1.6445-3.2891-2.4805-5.2578-3.2891-0.83594-0.33984-2.1523-0.87891-2.7344-1.3008 0.15625-0.58984 0.56641-1.5508 0.82422-2.1797 0.76172-1.8125 1.4844-3.5273 1.2305-5.207-0.38672-2.5859-2.0234-4.7422-3.4609-6.6484-1.1094-1.4609-2.25-2.9688-2.3867-4.1328-0.11719-1.043 1.8477-3.3945 3.2891-5.1133 2.7617-3.2969 6.1992-7.4102 5.0508-12.137-0.20312-0.875-0.28125-0.94531-2.2695-2.7383l-0.45312-0.41406c0.09375-0.67578 0.37109-1.5664 0.62891-2.3789 0.60547-1.9336 1.293-4.1211 0.66016-6.3164-0.71094-2.543-2.5352-4.3555-4.1445-5.9531-2.0312-1.9922-3.1641-3.2188-2.9219-5.0156 0.14062-1.0117 1.1758-2.6133 2.082-4.0312 1.5859-2.4531 3.2188-4.9961 3.0312-7.8359-0.4375-6.332-6.6016-10.227-12.035-13.66-3.6562-2.3086-7.4375-4.6992-8.2305-7.0625-1.0938-3.2578 0.59766-4.8008 5.0234-7.7852 1.7305-1.1641 3.5156-2.375 4.7812-3.8867 1.9883-2.3633 5.75-13.613 5.9453-16.363 0.039063-0.62891 0.011719-1.4609-0.074218-2.4258l-0.09375-0.85156c-0.074219-0.63281-0.15234-1.3008-0.26172-2.0273l-0.59375-3.5039c-0.003907-0.015626-0.11328-0.58203-0.11719-0.59766 0-0.011719-0.10547-0.55859-0.10547-0.57031l-0.66797-3.3477c0-0.003906-0.11719-0.55859-0.11719-0.56641l-1.0039-4.7773c-0.59375-2.8281-1.2031-5.7461-1.7812-8.6523-0.30078-1.5273-0.58984-3.0234-0.84375-4.4727-0.10547-0.58203-0.38672-1.1094-0.80469-1.5117 0.11719-0.34766 0.20703-0.69922 0.25391-1.0586 0.027343-0.19531 0.027343-0.39844 0.011719-0.59375-0.003907-0.050781-0.09375-0.66797-0.10156-0.71875-0.089844-0.58203-0.35156-1.1211-0.76562-1.5391-0.52734-0.54297-1.707-1.0352-2.4648-1.0352-1.6133 0-2.5664 1.0078-3.1914 1.9727-3.9023-0.78516-6.1719-2.7617-7.4023-4.3555-1.7188-2.2109-2.082-4.4258-2.0117-4.9336 0.28516-1.5742-0.3125-3.7734-1.5898-7.5312l-0.33203-0.98047c-0.39844-1.293-1.6758-5.6953-2.4297-8.3086-0.35156-1.2305-0.60547-2.0938-0.64453-2.1953-0.39844-1.1094-1.6289-1.9414-2.8047-1.9414-0.83984 0-1.5273 0.32422-2.2617 0.66016-0.34766 0.16406-0.75781 0.37109-1.5859 0.51562-0.41016 0-0.82812-0.050781-1.2539-0.09375-0.94141-0.10156-1.3789-0.46484-3.4844 0.074219-0.4375-1.0469-1.043-2.0117-1.9805-2.6875-0.73438-0.51953-1.5273-1.043-2.3594-1.5742-4.9688-3.2188-8.1875-5.707-7.75-10.758 0.15234-1.8594-1.0039-3.0859-1.6914-3.8203-0.66016-0.70703-0.6875-0.8125-0.67578-0.98047 0.085937-0.78906-0.18359-1.6133-0.71875-2.1992-0.53125-0.58203-1.3555-0.94141-2.1523-0.94141-0.54688 0-1.082 0.10156-2.4531 0.75781-0.24609-0.74609-0.72266-1.4453-1.293-1.8359-1.0547-0.72266-2.4414-0.90625-4.0156-0.8125l-0.76172 0.023438-8.0312-0.72656c-0.46484-0.86328-1.5-2.6484-3.7422-2.6484-2.6992 0.035156-4.5586 2.9297-7.8867 8.4766-0.92969 1.5469-2.1992 3.668-2.6445 4.0977-0.69922 0.58984-2.1562 1.1211-3.5664 1.6367-2.5586 0.93359-5.6094 2.0508-7.3711 4.5234-0.44922-0.023438-0.97266-0.027344-1.5977-0.027344-3.3203 0-13.484 0.41406-15.109 0.91406-2.5938 0.76563-5.6172 4.6094-11.406 14.559-2.5977-2.3008-2.7734-2.4297-3.6562-2.4375-0.66016-0.0625-1.0859 0.050782-1.5117 0.22266-0.14062-1.5-0.57812-3.5781-2.8711-5.0508-2.9102-1.8711-7.043-0.16406-10.176 1.5781-0.96484 0.53906-2.4258 1.3438-2.4531 1.5078-3.8203-1.7656-4.4297-2.8906-4.4961-2.8906 0.50781-1.3828 6.0078-3.7539 8.3594-4.7656 4.168-1.793 6.5781-2.8945 7.6172-4.6797 1.5078-2.5977 1.2891-4.8203 1.1133-6.6133-0.17969-1.875-0.32031-3.2305 1.4766-5.5781 0.65625-0.86328 2.1953-2.8906 1.1719-4.9453-0.56641-1.1367-1.7344-1.8125-3.1289-1.8125-1.9609 0-4.9727 1.332-9.7148 3.5-2.3008 1.0547-4.8711 2.2305-5.9922 2.6562-0.82812-0.58203-2.3242-1.7852-3.5742-2.8008-5.7227-4.6328-10.031-7.9414-13.223-8.3281-1.0625-0.13281-1.9531-0.089844-2.75 0.066406 0.003906-0.078124 0.003906-0.15234 0.003906-0.23437 0.003906-1.0625-0.40234-2.0664-1.1406-2.8047-1.3594-1.3594-3.4453-1.5195-4.8984-1.5195-0.37891 0-0.77734 0.011719-1.1797 0.035156 0.28516-0.27344 0.52734-0.57031 0.71875-0.90625 2.0273-3.5625 0.54688-16.191-2.2969-19.582-0.32422-0.37891-0.73828-0.67188-1.2031-0.83984l-1.6016-0.58203c-0.84375-0.30078-1.793-0.19531-2.5547 0.32031-0.33203 0.22266-0.60547 0.51562-0.80469 0.84375-0.22266-0.20312-0.42969-0.39062-0.60547-0.55859-0.96484-0.90625-1.875-1.7578-3.2383-2.4258l-4.7109-1.6406c-1.0977-0.80469-2.7031-0.73828-4.2383-0.33984-0.67578-0.71875-1.6367-0.99609-2.6211-0.73438-3.1406-0.085937-6.8438-2.1562-10.426-4.1602-3.2422-1.8125-6.5977-3.6914-10.012-4.4297-0.44922-0.09375-1.0078-0.18359-1.6875-0.26172-0.6875-0.11328-1.5039-0.19141-2.3789-0.27344-2.25-0.22266-5.0586-0.5-6.9648-1.0352-0.71875-0.20312-1.4961-0.11719-2.1445 0.25391-0.64844 0.36328-1.1328 0.96875-1.332 1.6914l-0.68359 2.7383c-0.003906 0.027344-0.14062 0.72656-0.14453 0.75781-0.050781 0.26172-0.10547 0.55859-0.125 0.75-0.0625 0.46875-0.085937 0.875-0.066406 1.1602 0.23438 5.5938 2.0547 7.5469 3.9805 9.6211 0.80078 0.86328 1.6289 1.7461 2.4766 3.0781 0.26172 0.41406 0.4375 0.93359 0.5 1.418-0.69531 0.32031-1.5469 0.93359-1.7695 2.1797-0.19141 1.0352 0.30078 2.2188 1.1484 2.8555 0.79688 0.60547 1.625 1.0977 2.4375 1.5781 2.1094 1.2539 3.2773 1.9414 3.7344 4.6484 0.085937 0.50391 0.035156 0.78906-0.023438 0.85156-0.0625 0.074218-0.71094 0.72656-3.9766 0.72656-1.5117 0-3.0977-0.12891-4.543-0.24609-3.2305-0.25781-5.3711-0.32031-6.6914 0.37109-0.82422 0.42969-1.625 1.5273-1.7266 2.4531-0.066406 0.58984 0.023438 1.1094 0.21875 1.5664-0.64453 0.28516-1.0938 0.69922-1.3945 1.0742-1.2266 1.5117-1.5078 3.2773-0.76172 4.8438 1.3984 2.9336 5.957 3.8242 9.0664 4.082-0.75781 0.96484-1.332 2.2969-1.457 4.207-0.27344 4.3242 1.1523 6.3906 4.7773 6.9062 0.69531 0.10156 1.2031 0.17188 1.6914 0.63281-0.62109-0.15234-1.2656-0.25391-1.8945-0.25391-2.0781 0-3.168 1.1133-3.6289 1.7734-1.2422 1.7695-1.1133 4.3359 0.42578 8.5664 0.35938 1.0078 0.86719 1.9258 1.5664 2.832 0.17188 0.23047 0.37109 0.42578 0.66016 0.70703 0.26172 0.27344 0.53125 0.54297 0.8125 0.78906-0.94141-0.050782-1.9805-0.15234-3.2031-0.32031-0.8125-0.11719-2.0547-1.2773-3.0508-2.2109-1.6133-1.5117-3.4375-3.2188-5.8398-3.2188-1.0977 0-2.1328 0.35156-3.0625 1.0547-2.9453 2.1836-7.0352 11.363-7.6562 13.273-0.80078 2.4531-0.45312 4.6016 0.13281 6.4609-0.36328-0.6875-0.87891-1.5508-1.7852-2.5586-1.2695-1.3984-2.6836-1.6953-3.6328-1.6953-2.4922 0-4.4258 1.8945-5.6523 3.8125-0.27344-0.41016-0.55859-0.77734-0.82812-1.125-0.69922-0.90625-1.3008-1.6914-1.5859-2.7539-0.011719-0.15625 0.078125-0.62891 0.14062-0.93359 0.23438-1.1758 0.58203-2.9609-0.53906-4.6484-2.4531-3.6836-19.801-3.8711-23.25-3.8711-11.637 0-18.895 1.5508-21.566 4.6133-1.0469 1.1992-1.4883 2.6328-1.2812 4.1562 0.11328 0.81641 0.46875 1.457 0.94141 1.9883-2.7383 1.9531-6.4062 5.0234-6.7578 9.0508-0.13281 1.5898 0.20703 3.9805 2.6367 6.3516 0.67188 0.65625 1.6172 1.1406 3.0625 1.5742 0.14062 0.039062 0.66797 0.11328 0.8125 0.12891 0.47656 0.015625 1.0625 0.0625 1.3555 0.24219 0.28125 0.16797 0.59375 0.29297 0.91797 0.35156l0.79688 0.14062c-0.24219 0.36328-0.4375 0.71875-0.59375 1.0547-0.40234 0.46094-0.64453 1.043-0.6875 1.6445-0.46875 6.5195-5.1016 17.605-8.2891 23.055-0.32422 0.53906-0.62891 1.0195-0.85547 1.3203-0.875 1.1211-1.5 3.1406-2.8125 7.8242-0.46875 1.6875-1.1875 4.2344-1.7266 5.6914-0.89063-0.21875-1.9141-0.66016-2.918-1.0938-1.8086-0.77734-3.8516-1.6562-6.2773-1.6797-1.4492 0-4.1562 0-5.3086 2.082-1.0234 1.8633 0.078125 3.6172 0.67578 4.5586 0 0 0 0.003906 0.003907 0.003906-1.4609 0.44141-3.2891 1.2383-4.0273 3.207-0.59766 1.6055-0.23047 3.4141 1.1094 5.3711 1.1797 1.7344 10.078 6.3906 12.836 6.3906h0.039062c0.32422-0.054687 0.61719-0.15234 0.87891-0.28125 0.32031 3.1797-0.63281 8.8867-1.625 10.355-1.6758 2.3672-4.957 3.5-8.4297 4.6875-2.8008 0.95703-5.6914 1.9492-7.9258 3.7344-1.3203 1.0547-1.6445 2.2773-1.6914 3.125-0.11328 2.2109 1.5469 3.832 3.0078 5.2539 0.46875 0.46484 1.1992 1.1719 1.5508 1.6562-0.33984 0.25781-1.0742 0.69922-2.543 1.2266-1.3906 0.48828-11.055 1.9141-14.422 1.9141-0.65625-0.11719-1.8594-1.3672-2.7383-2.2852-1.5742-1.6367-3.3555-3.4883-5.8203-3.9141-2.3672-0.40234-4.3164 1.8047-5.4141 3.3438-0.47656-0.089843-0.95703-0.16797-1.8438-0.29687-0.5-0.12891-1.125-0.29688-1.8438-0.29688-1.3047 0-2.1797 0.55469-2.6953 1.0312-3.6016 3.3711-1.2773 9.1836 1.418 15.922 2.5078 6.2812 5.6289 14.102 3.207 18.828-0.56641 1.1016-1.9727 2.2773-3.332 3.4102-1.9531 1.6367-4.168 3.4844-5.1367 6.0703-0.39844 1.0586-0.15234 2.0508 0.11328 3.0977 0.39844 1.5898 0.66797 3-0.027344 4.1211-0.6875 1.1016-2.3359 2-4.4531 2.5703l-0.0625-0.0625c-0.68359-0.69531-1.7188-1.7422-3.3203-1.7422-0.54687 0-1.4492 0.28125-1.9102 0.58203-1.5898 1.0469-2.3867 2.3242-2.3672 3.793 0.035156 2.3672 2.0938 3.6406 4.0898 4.8711 3.6406 2.25 5.1914 3.7227 4.6484 6.2891-0.48047 0.35156-1.1484 0.83984-1.8125 1.3281-3.2578 2.375-3.2578 2.375-3.5352 3.1016-0.6875 1.6562-0.11719 3.1641 0.21875 4.0664 0.074218 0.19531 0.15625 0.37891 0.19531 0.57031 0.039063 0.21094 0.10156 0.42188 0.18359 0.61719l0.29688 0.6875c0.65625 1.4336 2.1992 3.7305 3.9922 6.3828 1.1406 1.6953 2.7617 4.0898 3.5 5.4102-0.078124 0.074219-0.15625 0.14062-0.23047 0.20703-0.93359 0.84375-2.6758 2.4375-2.1914 4.8594 0.58984 2.9688 2.7656 4.3672 4.3555 5.3867 1.7695 1.1367 2.1836 1.5234 2.1992 2.7539 0.003906 0.50391-0.074219 0.99219-0.38672 1.9531-0.20703 0.52734-0.4375 0.95312-0.78906 1.3828-0.33594 0.42188-0.71875 0.8125-1.1367 1.1797l1.8477 2.1016-2.3398-1.6797c-0.44141 0.35156-0.89453 0.71094-1.3672 1.0547l-1.4609 1.0195c-2.0156 1.3828-4.3008 2.957-6.4961 5.375-0.81641 0.95312-1.4727 1.8867-1.9922 2.8633-0.042969 0.085938-0.09375 0.16797-0.12891 0.26172h0.003906c-0.125 0.23438-0.24219 0.50781-0.49219 1.0977-0.16406 0.36328-0.32422 0.73438-0.4375 1.082-0.09375 0.28516-0.16797 0.59375-0.23438 0.91406l1.8867 0.41016c0.054687 0.066407 0.11328 0.12891 0.16797 0.18359l-2.1992 0.011719c-0.10156 0.40234-0.20313 0.80469-0.25781 1.2109-0.050781 0.33984-0.078125 0.72266-0.09375 1.0938l2.8008 0.12891-2.8398 0.5c-0.039062 0.44922-0.074218 0.89062-0.0625 1.332 0.003907 1.0547 0.09375 2.1562 0.26953 3.3672 1.5508 10.293 9.9102 14.258 13.926 16.16 0.68359 0.32422 1.5352 0.74609 1.4492 0.51953 1.1914 1.9023-0.49219 3.9102-4.9883 7.9922-4.1484 3.7695-9.8398 8.9336-5.8594 15.062 0.10547 0.15625 0.22266 0.30859 0.35156 0.44141 0.4375 0.44141 0.4375 0.44141 5.9961 2.5195l0.19141 0.074219c0.62109 1.0234 1.5195 3.9141 2.1914 6.0859 1.5391 4.9844 3.4609 11.188 6.8711 15.113 0.71875 0.81641 1.7266 1.2773 2.8242 1.2773 1.3594 0 2.4961-0.66016 3.7031-1.3594 1.4766-0.86719 2.8047-1.9336 4.1836-0.33984l-0.56641 3.457c-0.16797 1.0469 0.26172 2.0938 1.1211 2.7148 2.3594 1.7266 6.9453 1.1484 12.117 0.18359 2.4922-0.46094 5.0664-0.93359 6.9336-0.93359 0.97266 0 1.4062 0.16797 1.457 0.10547 0.074218 0.26953 0.078124 0.90234 0.085937 1.332 0.015625 1.3164 0.039063 3.125 1.2109 4.6758 3.9492 5.2344 10.199 6.0703 15.715 6.8164 5.2344 0.69922 9.8008 1.3086 12.758 4.9102-1.6016 2.3125-7.6836 7.5156-11.457 10.742-5.8242 4.9766-9.168 7.8945-10.238 9.9297-1.6562 3.1641-2.3008 6.6094-2.9219 9.9297-0.55469 2.9688-1.0742 5.7695-2.2617 8.3281-0.88672 1.8867-2.4805 3.6289-4.1758 5.4805-1.6758 1.8242-3.4102 3.7188-4.6602 5.9766-2.6055 4.7305-2.1055 7.2617-1.5352 10.191 0.125 0.62891 0.25781 1.3047 0.37109 2.082 0.35938 2.5195-1.7266 6.2344-3.7422 9.8281-1.9922 3.5547-4.0586 7.2305-4.3672 10.773-0.078126 0.91797 1.25 8.3398 3.0781 9.8555 0.085938 0.066406 0.17969 0.13281 0.29297 0.20703 0.10547 0.73828 0.41406 1.2812 0.65625 1.6016 1.3203 1.7695 4.1211 1.6367 7.5078 0.95312 1.2266-0.24609 2.6484-0.54688 3.8086-0.50391 0.44922 0.074219 0.77734 0.32422 1.5391 0.98438 0.95703 0.82812 2.2695 1.9648 4.3633 2.2852 2.6133 0.375 5.2539-0.62891 7.6953-1.6133 1.5586-0.63281 2.9414-1.3477 4.7266-1.2695 0.83984 0.125 2.0781 1.0547 3.2656 1.9414 2.0273 1.5195 4.5547 3.4062 7.75 3.4062 1.5508 0 3.0859-0.44922 4.5625-1.332 1.1406-0.67578 1.5586-1.6797 1.6562-2.6836 2.5078 0.36328 2.6484 0.375 2.8633 0.375 0.42969-0.074219 1.0547-0.14062 1.5078-0.42578 2.0039-1.2617 2.0703-2.8398 1.9336-3.6641-0.035157-0.19531-0.078125-0.37891-0.14062-0.55859 1.2773 2.0156 3.793 2.543 5.9258 1.7422l0.94531 1.9492c0.24609 0.50391 0.63672 0.92578 1.125 1.2031 0.98047 0.56641 2.2109 0.71094 3.5547 0.60938l0.66797-0.015625 12.09 0.85156c0.066406 0.003906 0.62891 0.023438 0.69531 0.023438l0.59766-0.011719 0.46094-2.8047 0.46094 2.8242c2.2109 0.85547 4.2109 2.9062 6.332 5.0664 2.3789 2.4258 4.8398 4.9336 8.0469 6.2617 3.4844 1.4492 7.2539 0.48047 9.6836-0.99219 0.22266 0.82812 0.6875 1.6523 1.625 2.2773 1.7812 1.1641 4.1953 0.55469 5.5039-0.035157 0.023437-0.015625 0.050781-0.027343 0.078124-0.039062 0.99609 1.668 2.7422 4.6367 3.7109 6.293-0.58984 0.86719-1.8047 2.918-0.3125 4.918 0.96875 1.3164 2.0312 2.6094 3.4336 3.0625-0.44922 0.72656-0.77734 1.5195-0.89062 2.375-0.10156 0.80078 0.15234 1.6055 0.6875 2.2188 0.53125 0.59375 1.3438 0.95312 2.1445 0.95312 1.5352 0 14.746-3.332 17.949-10.387 0.50391-1.1016 0.55859-2.6328 0.46094-5.75 1.7188 0.45313 3.4766 0.45313 4.5547 0.45313 1.0117 0 2.0781-0.039063 3.1602-0.078126 2.5312-0.09375 5.0859-0.085937 6.3828 0.15625-0.15234 0.24219-0.27344 0.51953-0.37109 0.83984-0.32422 1.1133 0.074219 2.3203 1.0039 3.0195l2.6367 1.9805 0.19141 3.4258c0.039062 0.77734 0.40234 1.5 1.0039 1.9922 0.95312 0.79688 2.5312 1.3203 7.1328 1.3203 0.14453 0 14.766-0.15625 17.426-2.6484 1.1719-1.0742 1.4102-2.4961 1.4688-3.5898l4.6914 0.50781c0.59766 0.066406 1.1992-0.0625 1.7188-0.36328 1.7578-1.0312 2.4805-2.7891 3.0078-4.082 0.13281-0.33594 0.32422-0.78906 0.47656-1.0742 0.023438 0.003906 0.050781 0.015624 0.078125 0.027343 0.48828 0.12891 0.98047 0.25391 1.4336 0.30078l2.957 0.30859c5.2539 0.55469 10.387 0.72656 15.172 0.82812l6.0664 0.11328c0.3125 0 0.62109-0.054687 0.91797-0.15234 2.3398-0.81641 2.207-3.2812 2.0938-5.2656-0.023437-0.37891-0.054687-0.96875-0.078125-1.5586 0.41406 0.58984 0.99219 1.1328 1.8203 1.4727 1.4336 0.58203 2.6602 0.35938 3.6523 0.47656 0.089844 0.003906 0.5 0.023437 0.58203 0.023437l0.6875-0.14062c0.33594 0.60938 0.77344 1.4219 1.1602 2.1328 1.125 2.082 1.5898 2.9336 2.7109 3.1523 2.2617 0.83984 5.2969 0.20312 8.0234-0.55469 1.8828-0.51562 4.1211-0.86719 4.5625-0.71094 0.10156 0.035157 0.18359 0.066407 0.26172 0.10156-0.074219 0.17188-0.14453 0.35938-0.21094 0.51562-0.63672 1.4961-1.8359 4.2734 0.33203 6.8867 1.7148 2.0781 6.1758 6.8984 10.473 6.8984 1.9648 0 3.6562-0.96484 4.7695-2.7031 3.4727-5.4609 4.4844-9.832 3.0859-13.383-1.4688-3.7188-5.1523-5.168-7.4766-5.8398 0.58203-0.67188 1.5195-1.5 2.0508-1.9766 1.6641-1.4766 3.0977-2.75 3.3164-4.5938 0.5-4.1367-2.8438-8.0859-6.0703-11.906-2.1523-2.5352-5.0859-6.0078-4.8594-7.4766 1.25-2.1406 12.434-5.918 17.809-7.7344 5.8594-1.9766 9.5312-3.2461 11.305-4.4805 4.3633-3.0469 4.5469-7.4141 4.6797-10.613 0.085937-1.9727 0.15234-3.668 0.94141-4.8281 0.73828 0.011719 2.7383 1.6172 3.8203 2.4805 2.6758 2.1523 5.5625 4.0195 8.0742 2.9336 0.71875-0.30859 1.3789-0.79687 2.3516-1.8125 0.46875-0.54687 0.91406-1.1992 1.4688-2.2305 2.4023-4.6875 3.2188-12.227 3.3203-15.586 0.015625-1.125 0.003907-2.1328-0.078125-2.8242-0.51953-3.875-11.145-17.395-16.211-16.262-0.34766 0.078125-0.71875 0.20703-1.0703 0.44141-0.042968-0.35156-0.074218-0.69531-0.10156-0.94531-0.125-1.3984-0.23438-2.6133-1.0078-3.5938-1.4688-1.8633-3.6562-2.832-5.5898-3.6797-1.3281-0.58203-2.6992-1.1914-3.3594-1.9102-1.125-1.2383-1.8555-3.3711-2.625-5.6211-0.94141-2.7383-1.9102-5.5703-3.8711-7.8047-2.25-2.5547-5.2305-3.9219-8.1016-5.2461-3.0195-1.3828-5.8672-2.6953-7.5898-5.2539-1.793-2.6758-3.1016-6.5-4.3672-10.199-1.0586-3.1094-2.168-6.3242-3.4609-8.7461l-1.332-3.5742c0.52734-0.52734 1.3789-1.1602 2.0039-1.625 2.4648-1.832 5.8398-4.3359 5.4375-8.5078 0-1.2656-0.3125-1.625-2.1953-3.0586 0.78516-1.3164 0.36328-2.5273 0.066406-3.1211-0.61719-1.1875-1.793-1.8633-3.2148-1.8633-0.33203 0-0.6875 0.042969-1.2812 0.14062-1.3945-1.3047-4.1836-5.1367-6.6289-8.9023 0.42188 0.11719 0.83984 0.17969 1.2617 0.17969 4.0312 0 5.0508-4.7773 5.6055-7.3477 0.10547-0.5 0.13281-0.83594 0.10156-0.83594 1.7969-2.7383 13.551-8.6289 17.062-8.6562 0.34766 0.10547 1.3203 0.72266 1.9727 1.1328 1.9219 1.2227 4.0938 2.5977 6.4062 2.5977 1.2109 0 2.3281-0.39062 3.2188-1.125 1.6875-1.3711 1.8477-3.4258 1.9531-4.7891 0.003906-0.078125 0.015624-0.16406 0.023437-0.25391 0.46484 0.11719 0.93359 0.21875 1.3828 0.25781 0.21875 0.023438 0.44141 0.09375 0.67187 0.15625 1.1211 0.29688 2.9062 0.53125 4.2344-0.18359 1.0703-0.57031 2.0039-1.7188 3.3047-3.3047 1.082-1.3281 3.1641-3.875 4.4805-4.6641l0.74609 0.54688c2.3984 1.7734 2.457 1.8242 3.3281 1.8242 0.27344 0.003907 0.6875-0.042968 1.0234-0.16406 2.3672-0.85547 3.3867-3.3047 4.2969-5.4727 0.33984-0.81641 0.90625-2.1836 1.1758-2.4375 0.91797-0.48828 3.1758-0.18359 5.168 0.12891 3.0078 0.49219 5.9453 0.69922 8.0078-0.12891 0.92969-0.37109 1.0039-0.39844 2.7266-3.7734 1.4883-0.50781 3.4609-0.8125 5.3828-1.1016 2.2969-0.34766 4.6719-0.70703 6.7695-1.4688 0.58203-0.21094 1.4609-0.44141 2.4414-0.70703 3.8594-1.0352 6.7148-1.8867 8.25-3.4961 1.1992-1.2422 1.3984-2.5312 1.3672-3.3945-0.085938-1.8477-1.2617-3.1914-2.4414-4.2852 0.0625-0.011719 0.125-0.023437 0.18359-0.039062 0.44922-0.085938 0.89453-0.22266 1.3438-0.37109 0.22266-0.078125 0.57031-0.19141 0.47656-0.21875 1.5195 0.34766 2.1055 0.66797 2.2305 0.66016-0.035156 0.24219-0.15234 0.68359-0.23438 0.99219-0.33984 1.2383-0.85156 3.1016-0.0625 5.0977 0.39844 1.0039 1.3398 1.6875 2.418 1.7539l1.1406 0.078125c-0.023437 1.8242 0.16797 4.2734 1.8594 6.0312 1.1016 1.1484 3.1289 2.5938 7.9062 1.4375 0.61719-0.18359 1.4766-0.90625 1.832-1.4453l1.0234-1.7578c0.015625-0.027343 0.37891-0.75781 0.39062-0.78516l0.41406-0.85547c0.042969-0.085937 0.089844-0.16406 0.125-0.24609l5.6992-13.434c0.003906-0.003907 0.29688-0.76562 0.29688-0.76562l0.84375-2.207-2.6211-0.99219 2.8242 0.46484 0.35156-0.94141s0.24609-0.66016 0.24609-0.66797l1.7461-5.0234-2.6758-0.81641 2.9219 0.035156 0.56641-1.9883c0.003906-0.039063 0.12891-0.60547 0.14062-0.64453 0.12891-0.64844 0.17188-1.0859 0.15234-1.3594-0.085938-3.4102-2.4102-13.922-4.8008-17.043zm-269.89-173.09c0.40234 0.50781 0.61719 0.93359 0.85547 1.418 0.16797 0.33984 0.33984 0.66797 0.53125 0.98438-0.49219-0.60547-1.2422-1.0977-2.2734-1.2305 0.27734-0.46094 0.59375-0.89844 0.88672-1.1719zm-5.875 6.0781c0.54297 0.44141 1.1875 0.71875 1.9336 0.81641-0.34766 0.63672-0.77734 1.2539-1.1133 1.5508-0.47656-0.89062-1.2891-1.4219-2.1914-1.9102 0.54688-0.082031 1.0039-0.25 1.3711-0.45703zm-37.676 402.46c-0.19141 0.58984-0.17187 1.2305 0.039063 1.8125 0.039063 0.10547 0.078125 0.20312 0.11719 0.30859-1.0039-1.3594-3.0859-1.8359-5.5703-2.4141-0.6875-0.15625-1.6758-0.37891-2.5664-0.63281 0.62109-0.28125 1.2266-0.58203 1.7578-0.92969 1.8945-1.2617 6.0469-2.1836 7.2188-1.2891zm314.54-214.84-2.8711-0.21094-1.5977 4.5469 2.625 0.96875-2.8633-0.3125-0.54688 1.4453s-0.20312 0.53906-0.20703 0.54297l-0.60547 1.5781 2.6055 1.0312-2.8906-0.28516-5.6445 13.277 2.2461 1.1211-0.003906 0.011719-2.2773-1.0469-0.38672 0.79688 2.5078 1.2305-2.8242-0.60938-0.33984 0.59766c-0.86719 0.125-1.4062-0.042969-1.4453-0.089844-0.36328-0.38672-0.29688-2.2305-0.26953-2.9219 0.050782-1.2031 0.089844-2.2383-0.44922-3.207-0.46484-0.82812-1.3086-1.3711-2.2617-1.4375l-1.0078-0.066406c0.35156-1.293 0.86719-3.2383-0.26172-5.1445-0.97266-1.6289-2.7812-2.6836-5.8398-3.3984-0.21875-0.050781-0.89453-0.12891-1.1211-0.12891-0.95703 0-1.7656 0.26953-2.4141 0.48828-0.22266 0.074219-0.44141 0.15234-0.64453 0.19141-2.8281 0.53125-5.5312 1.3555-6.1875 3.7812-0.66016 2.4375 1.2305 4.082 2.6133 5.2969 0.21875 0.18359 0.5 0.42969 0.75781 0.67188-1.2812 0.57812-3.6562 1.2109-4.9336 1.5469-1.1719 0.3125-2.2188 0.59375-2.9062 0.84375-1.5742 0.57031-3.668 0.89062-5.6992 1.1992-2.6953 0.41016-5.4805 0.82812-7.75 1.9023-0.56641 0.26172-1.0195 0.70703-1.3008 1.2617 0 0-0.64844 1.2773-1.1484 2.2344-1.1016 0.12891-2.7148-0.13281-4.1836-0.37891-3.3203-0.53125-6.4961-0.69922-8.625 0.42188-2.0156 1.0234-2.9531 3.2695-3.7812 5.2539-0.14453 0.34766-0.33203 0.78516-0.50391 1.1914-2.1797-1.6055-2.2344-1.5898-3.3555-1.6016-3.7695 0.33203-6.7656 4-9.1797 6.9453-0.46094 0.56641-1.0547 1.2891-1.4453 1.707-0.11328-0.027344-0.21094-0.0625-0.32422-0.089844-0.55469-0.14453-1.1094-0.28125-1.6445-0.32422-0.20703-0.015624-0.42578-0.10156-0.64453-0.15234-1.1602-0.32031-3.0586-0.52734-4.3398 0.24219-2.1602 1.2539-2.3477 3.6289-2.457 5.0469-0.011719 0.19531-0.035156 0.4375-0.054688 0.65625-0.82812-0.29297-2.1602-1.1328-2.9336-1.6289-1.6016-1.0117-2.9844-1.8945-4.8008-1.9766-5.1641 0-18.906 6.5625-21.906 11.156-0.074219 0.10547-0.12891 0.20703-0.19141 0.32031-1.3984-1.9141-4.0703-3.2461-6.6211-3.2461-3.2266 0-5.5117 2.1055-5.8242 5.3555-0.39062 4.0078 11.078 20.344 14.477 22.656v0.11719c0 1.4062 0.37891 1.6953 2.8828 3.5781l0.44922 0.33984c-0.42969 0.82812-1.4961 1.6641-2.9727 2.7617-1.8047 1.3398-3.668 2.7266-4.4258 4.8945-0.21094 0.61719-0.20312 1.2891 0.023437 1.8984l1.9648 5.1875c1.2422 2.3672 2.2227 5.2422 3.2656 8.2812 1.3828 4.0391 2.8164 8.2148 5.0195 11.508 2.6055 3.8711 6.4805 5.6523 9.9062 7.2227 2.4531 1.125 4.7695 2.1953 6.2383 3.8594 1.2266 1.3906 1.9805 3.5859 2.7734 5.9062 0.91797 2.6953 1.875 5.4805 3.793 7.582 1.457 1.5977 3.4609 2.4766 5.2344 3.2578 1.2305 0.54297 2.4961 1.0977 3.1914 1.7461 0.039063 0.26172 0.054688 0.58203 0.089844 0.91797 0.19531 2.1328 0.71875 7.8047 5.9688 7.8047 0.10547 0 0.63672-0.027343 0.74609-0.039062 0.62891-0.074219 1.5273-0.33984 2.1836-1.2891 3.0508 2.5039 8.0703 8.7148 8.5078 10.477 0.054687 0.46875 0.042969 1.2031 0.027344 1.9883-0.11719 4.0547-1.1016 10.039-2.8047 13.355-0.16797 0.32422-0.34766 0.59375-0.70703 1.0117-0.69922-0.37891-1.8555-1.3086-2.5977-1.9102-2.2734-1.8242-4.625-3.7109-7.3242-3.7109-1.1797 0-2.8906 0.375-4.3125 2.1836-1.9922 2.5312-2.1172 5.4414-2.2227 8.0195-0.125 3.0586-0.29688 4.8555-2.2852 6.2422-1.2109 0.83594-5.8242 2.3984-9.9023 3.7695-12.828 4.3281-20.676 7.2969-21.453 11.848-0.75 4.2734 2.6953 8.3398 6.0273 12.273 2.2227 2.6328 4.9961 5.9062 4.9375 7.1172-0.19141 0.30859-1.0547 1.0703-1.625 1.5781-2.1523 1.9023-6.1484 5.4531-3.668 9.6133 0.66797 1.1133 1.7344 1.3906 2.8672 1.6797 1.5195 0.39063 4.0664 1.0547 4.7383 2.7656 0.66797 1.6875-0.25781 4.6406-2.6211 8.4336l-0.023438 2.8008v-2.8008c-1.0234 0-3.668-1.8594-6.1133-4.6992 0.003906-0.23047 0.29297-0.89062 0.46094-1.2812 0.52734-1.2305 1.3203-3.0898 0.46094-5.0391-0.60938-1.3906-1.8633-2.3984-3.8242-3.0742-0.76172-0.26172-1.5664-0.38672-2.4805-0.38672-1.793 0-3.6289 0.50781-5.4023 0.99609-1.4492 0.39844-3.1484 0.77734-3.9648 0.79688l-0.35938-0.66797c-2.0781-3.832-2.3281-4.2891-3.2422-4.5234-0.96875-0.44922-1.8945-0.44922-2.2305-0.44922l-1.3438 0.050782c-0.50781-0.050782-0.98047-0.050782-1.5977-0.050782-0.023438-0.078125-0.042969-0.14453-0.074219-0.22266-0.33594-1.0547-1.1211-3.5391-3.7578-3.7852-0.089844-0.003906-0.55469-0.027344-0.63672-0.027344-1.5117 0-2.8164 0.53906-3.7852 1.5586-1.8633 1.9766-1.832 5.0625-1.707 7.4883l-3.3477-0.0625c-4.6484-0.10156-9.6484-0.26953-14.688-0.80078l-2.9453-0.30859c-0.17969-0.023438-0.36328-0.085938-0.55469-0.13281-1.0312-0.28516-2.7539-0.49219-3.9375 0.125-1.9609 0.98047-2.7227 2.8438-3.2812 4.207-0.09375 0.23438-0.22266 0.55859-0.34766 0.82812l-3.6016-0.42969c-0.91797-0.27344-2.6719-0.51562-3.9375 0.30859-1.8828 1.2812-1.9141 3.4258-1.9336 4.5859 0 0.054687 0 0.11719-0.003906 0.17969-2.2227 0.54297-8.1641 1.2227-13.301 1.2227-1.2109 0-2.0781-0.042969-2.6602-0.078125l-0.14453-2.6836c-0.042968-0.82422-0.45312-1.5859-1.1094-2.082l-0.28516-0.21094c0.21094-0.58203 0.28125-1.2539 0.16406-1.7969-1.2812-5.9766-8.2305-5.9766-10.848-5.9766-1.082 0-2.1953 0.039063-3.293 0.078125-1.0117 0.039063-2.0117 0.078125-2.957 0.078125-3.1367 0-3.7578-0.46484-3.8203-0.50781-0.42188-1.1523-1.2031-3.3047-3.4141-3.3047-0.76172 0-1.5625 0.34766-2.0938 0.89453-1.1094 1.1523-1.0547 2.5586-0.87891 6.7266 0.066406 1.6055 0.17188 4.3008 0.10156 4.7773-0.875 1.9336-3.6523 3.6445-6.4336 4.9102 0.125-0.50781 0.15234-1.043 0.042969-1.6055-0.21875-1.1094-0.93359-2.0273-2-2.5703-1.3555-0.69922-2.6484-0.89453-3.6953-0.69922 0.078125-0.30078 0.12891-0.62891 0.13281-0.98047 0-1.0938-5.8086-10.887-6.5352-11.262-1.4961-0.98047-3.4609-0.81641-4.7773-0.29297 0.050781-1.3438-0.18359-3.2383-2.1016-4.2344-1.4844-0.75781-3.0391 0.0625-4.3281 1.1211-1.5273 1.2617-4.082 3.168-6.668 2.1055-2.1523-0.89062-4.1172-2.8945-6.1875-5.0117-2.4453-2.4922-4.9727-5.0664-8.3086-6.3711-0.92969-0.35156-1.8125-0.39844-2.4805-0.39844-0.023438 0-0.57812 0.003907-0.59766 0.003907l-12.82-0.84375c-0.078125-0.003907-0.48828-0.023438-0.56641-0.023438-0.21094 0-0.42578 0.003906-0.80078 0.066406l-1.4336-2.9414c-0.125-0.25781-0.29297-0.49219-0.48828-0.69922-0.89063-0.94141-2.5742-1.0742-3.6445-0.63281l0.46484-1.457c0.23047-0.71094 0.15625-1.4844-0.19141-2.1445-1.4336-2.75-4.0664-4.2617-7.4102-4.2617-3.2578 0-6.6094 1.457-8.4883 2.7031-0.36328 0.24219-0.80078 0.42188-1.2266 0.60547-1.3711 0.60938-3.2539 1.4492-4.168 3.4766-0.53906 1.1797-0.53125 2.4453 0.015625 3.5547 0.65625 1.3203 1.9414 2.1719 3.5117 2.7891-0.089844 0.48828-0.11719 1.0469-0.066407 1.6797-1.5977 0.3125-3.1523-0.90234-4.9336-2.2305-1.7461-1.3047-3.5547-2.6602-5.8008-2.9961-2.6094-0.35938-5.2344 0.63281-7.6602 1.6172-1.5625 0.63672-3.1758 1.3555-4.7383 1.2695-0.44141-0.074219-0.78906-0.33984-1.5391-0.98438-0.96484-0.82812-2.2773-1.9766-4.3516-2.2852-1.2422-0.18359-2.8789-0.003906-4.4727 0.29688-0.011719-0.59375-0.16797-1.1992-0.46875-1.6406-0.95312-1.3945-3-1.3984-4.6641-0.67578-0.44922-1.5195-0.95312-3.5938-1.0039-4.0781 0.20703-2.3359 1.9648-5.4805 3.6719-8.5195 2.4688-4.4023 5.0273-8.9609 4.4062-13.355-0.125-0.88672-0.28125-1.6641-0.42188-2.3789-0.48047-2.4531-0.68359-3.4609 0.94141-6.4102 0.92578-1.6758 2.3594-3.2383 3.875-4.8945 1.9023-2.0781 3.8711-4.2227 5.125-6.8945 1.4883-3.2031 2.1016-6.4922 2.6953-9.6719 0.57031-3.0508 1.1094-5.9414 2.3789-8.3555 0.66797-1.2266 5.4336-5.2969 8.9141-8.2773 10.871-9.2969 15.574-13.562 13.109-17.254-4.3125-6.4609-11.211-7.3906-17.297-8.2109-5.0664-0.68359-9.4531-1.2695-11.957-4.582-0.09375-0.21094-0.10547-0.94141-0.11328-1.4219-0.015625-1.3984-0.039063-3.3203-1.4062-4.8984-1.1992-1.3945-3.0781-2.0703-5.7344-2.0703-2.375 0-5.207 0.52734-7.9531 1.0312-2.2461 0.41406-4.5703 0.84375-6.2617 0.90234l0.33203-2c0.11328-0.68359-0.035157-1.3906-0.41016-1.9727-1.8086-2.8125-4.0547-4.2344-6.6797-4.2344-2.2891 0-4.2188 1.125-5.6289 1.9492-0.09375 0.054687-0.20313 0.11719-0.30078 0.17969-2.1797-3.1523-3.6836-8.0312-4.918-12.023-1.5273-4.9492-2.4062-7.5938-4.1562-8.9922-0.21875-0.16797-0.46094-0.3125-0.71094-0.41406l-4.8398-1.8086c-0.42969-1.6172 1.1875-3.4766 5.2461-7.1562 4.1562-3.7734 9.8438-8.9375 5.957-15.125-0.72266-1.1367-1.9414-1.7188-3.7852-2.5938-3.8516-1.8242-9.6836-4.5859-10.785-11.93-0.14062-0.92969-0.20312-1.7812-0.21094-2.625-0.003906-0.26953 0.015625-0.50781 0.074219-1.1602 0-0.023437 0.0625-0.95703 0.0625-0.98047 0.035156-0.23437 0.09375-0.45312 0.23047-1.0039 0.003906-0.023437 0.09375-0.40234 0.14453-0.62109 0.94141-0.58203 1.4336-1.6406 1.3203-2.6953 0.23438-0.33203 0.52734-0.6875 0.89063-1.1094 1.4609-1.6055 3.375-2.918 5.2305-4.1953l1.5469-1.0742c0.56641-0.39844 1.1094-0.81641 1.6133-1.2305l0.6875-0.59375c0.67578-0.58984 1.2891-1.2227 1.5508-1.5977 0.11719-0.11328 0.35938-0.375 0.46094-0.50391 0.57031-0.75781 1.0352-1.6055 1.418-2.5742 0.10156-0.25391 0.19531-0.50781 0.28516-0.80078 0.23047-0.75 0.52734-1.9023 0.50391-3.3203-0.054687-4.3555-2.8945-6.1836-4.7773-7.3867-0.82422-0.53125-1.332-0.87891-1.6172-1.2266 0.066407-0.0625 0.13281-0.11719 0.19141-0.17188 0.83984-0.76562 2.1094-1.9219 2.3281-3.7461 0.19141-1.6523-0.72266-3.207-4.7266-9.1445-1.4453-2.1406-3.0781-4.5625-3.5156-5.5234l-0.16797-0.38672c-0.078125-0.30078-0.17969-0.60937-0.29297-0.92578 0.38672-0.28516 0.83594-0.60938 1.2773-0.93359 3.2578-2.375 3.2578-2.375 3.6133-3.3047 1.7734-5.4609-0.76172-9.0039-3.4844-11.289 3.0625-1.0195 5.2539-2.5664 6.5195-4.6016 2.0039-3.2266 1.1641-6.6094 0.70703-8.4297-0.023438-0.09375-0.042969-0.17969-0.066406-0.26172 0.62109-1.0625 1.9531-2.1797 3.2461-3.2578 1.7852-1.4961 3.6328-3.0391 4.7227-5.1562 3.5781-7-0.066406-16.121-2.9961-23.457-1.1016-2.7617-2.8438-7.1172-2.918-9.0156 0.3125 0.066406 0.66797 0.12891 1.0547 0.14453 0.19141 0.003907 0.38672 0.054688 0.58203 0.09375 1.3047 0.24219 2.582 0.26172 3.6562-0.24609 0.78906-0.37891 1.2266-0.99609 1.7734-1.7734 0.16406-0.23047 0.45312-0.64453 0.72656-0.98047 0.63672 0.46094 1.4375 1.2891 2.0703 1.9492 1.5664 1.6367 3.3477 3.4883 5.8281 3.9258 0.28125 0.042969 0.68359 0.078125 1.1875 0.078125 3.3867 0 13.898-1.4688 16.07-2.2383 2.4023-0.86328 5.668-2.3594 6.3125-5.3438 0.64453-2.9688-1.6367-5.1953-3.2969-6.8203-0.20703-0.20312-0.46484-0.44922-0.69922-0.6875 1.4219-0.81641 3.2773-1.457 5.2148-2.1172 3.9648-1.3594 8.4609-2.9023 11.176-6.7422 1.9102-2.6836 3.625-11.703 2.082-16.586-0.85156-2.6875-2.457-3.7578-3.6836-4.1953-0.29297-0.10156-0.75-0.17969-1.0586-0.17969-1.3672 0-2.2109 0.77344-2.7617 1.5898-2.2617-1.0078-6.0977-3.0781-6.6484-3.4883-0.015625-0.023437-0.035157-0.050781-0.050781-0.078124 0.23437-0.066407 0.46875-0.12891 0.64844-0.17969 1.2383-0.32422 2.7734-0.72656 3.457-2.3008 0.59766-1.3984 0.44141-2.6953 0.054688-3.7734 0.875 0.22266 1.8828 0.65625 2.8711 1.082 1.832 0.78906 3.9141 1.6875 6.1133 1.6875 0.078125 0 0.62109-0.023437 0.69922-0.035156 2.7148-0.23047 3.5117-3.0586 5.4258-9.8828 0.58984-2.1055 1.4844-5.2812 1.8555-5.9141 0.34766-0.44922 0.77344-1.1094 1.4297-2.207 2.7227-4.6602 7.9531-16.367 8.8047-24.434 0.023438-0.042968 0.042969-0.085937 0.0625-0.11328 0.85547-1.7539 2.207-2.1406 3.1484-2.2773 1.3477-0.19531 2.5664-1.3828 2.5938-2.7422s-1.293-2.6445-2.6367-2.9062c-0.44922-0.089844-1.3594-0.26953-2.9297-0.67578l-0.90625-0.20312c-0.015625-0.003907-0.81641-0.14453-0.83594-0.15234-0.011718 0-0.58203-0.10547-0.59375-0.10547-0.011718 0-0.69531-0.11719-0.69922-0.11719l-0.78516-0.13281c-1.0938-0.53125-2.207-0.6875-3.1992-0.74609-0.375-0.11719-0.55469-0.17969-0.52734-0.16797-1.0039-0.99609-0.94531-1.6133-0.92969-1.8203 0.17969-2.0938 4.168-4.8164 5.668-5.8359 1.2383-0.84375 1.8594-1.2695 2.2734-2.1094 0.48047-0.98438 0.875-2.8281-1.4688-4.5625 1.7188-0.87891 6.4453-2.1797 16.609-2.1797 8.8867 0 15.848 0.94531 18.328 1.6406-0.011719 0.066406-0.023438 0.12891-0.035157 0.18359-0.17188 0.88672-0.41406 2.0938-0.078125 3.3945 0.58984 2.2188 1.6914 3.6523 2.5703 4.8008 0.15234 0.19531 0.29297 0.375 0.41016 0.53906-1.1914 0.050781-2.1836 0.46484-2.9453 1.2305-1.6953 1.7266-1.8555 3.3594-1.6875 4.4297 0.41016 2.5977 2.9062 3.8984 4.5547 4.7617 0.16797 0.089843 0.32422 0.16797 0.46875 0.24219 0.17969 0.62109 0.49219 1.5195 1.2812 2.2734 0.74609 0.70703 1.7148 1.0977 2.7266 1.0977 1.5195 0 2.6953-0.82422 3.6172-1.4609 2.4531-1.4844 5.4102-6.3633 4.3242-9.793-0.054688-0.19141-0.14062-0.38672-0.23438-0.57812 0.66016 0.91406 1.6133 1.7852 3.3203 2.7227-1.6914 2.6367-3.6914 6.5195-2.75 9 0.48047 1.2773 1.6055 2.1562 3 2.3516 1.5391 0.24219 2.9453-0.83984 3.168-2.375l0.64844-4.5195c1.8203-1.7422 3.5781-4.3672 3.5391-4.8789 0.51562-2.6484-0.36328-4.8906-1.1367-6.8672-0.78516-2.0117-1.2422-3.3164-0.77344-4.7539 0.86328-2.6641 4.457-9.5039 5.2734-10.465 0.42578 0.125 1.457 1.0859 2.1328 1.7188 1.5742 1.4727 3.5273 3.3047 6.0977 3.668 3.3555 0.46484 5.9648 0.46484 8.9727 0.33203 1.1914-0.054687 2.4922-0.11328 4.0977-0.11719h2.8633c0.34766 0 0.72266-0.050781 1.4062-0.15625 0.050781 0.027344 0.10547 0.0625 0.16406 0.10156 1.7461 1.7695 2.8438 5.6562 3.9023 9.4141 0.72266 2.5664 1.4727 5.2188 2.4688 7.3906 0.023437 0.066406 0.20703 0.50391 0.23438 0.57031 0.50391 1.0352 1.0625 1.9414 1.6758 2.6953 2.3789 2.9336 9.9414 6.2383 12.543 6.2383 0.94531 0 2.1953-0.59375 2.7109-1.3945 0.50781-0.79688 0.58203-2 0.19531-2.8633-1.2031-2.7266-3.8906-3.7695-6.2656-4.6875-1.8438-0.71094-3.5781-1.3906-4.2109-2.6328-0.78516-1.5273-1.3672-3.6172-1.9805-5.8281-1.2305-4.418-2.625-9.4258-6.332-12.383-0.42969-0.35938-0.90234-0.64844-1.3164-0.82812-0.15625-0.17969-0.60938-0.62109-0.80469-0.75781-0.50781-0.35156-1.0859-0.57812-1.7344-0.67188-1.9805-0.86328-4.0039-1.3906-5.8008-1.8555l-1.3008-0.33984c-0.57812-0.15625-1.125-0.33594-2.1602-0.72656-0.34766-0.14453-0.67578-0.32031-1.4336-0.76562-0.23438-0.16797-0.4375-0.37891-0.94531-0.88672-0.33594-0.42969-0.55469-0.83594-0.72656-1.3086-0.41016-1.1328-0.64453-1.9531-0.77344-2.543 0.27344 0.085937 0.54297 0.17188 0.77344 0.25391 2.4961 0.82422 5.1289 0.96484 6.3242-0.85156 1.1133-1.6875 0.48828-3.7227-0.27344-5.5-2.1562-5.0117-5.375-5.4727-7.1133-5.7188-0.011719-0.23438-0.003906-0.55859 0.015625-1.0039 0.074219-1.1641 0.12891-1.1875 1.6367-1.8945 0.65625-0.30859 1.3438-0.63672 2.0312-1.0859 0.050781-0.035156 4.8203-3.5 3.9648-6.3711-0.50391-1.6914-2.957-2.4414-4.457-1.5-0.60547 0.375-2.3906 0.78516-4.8984 0.78516-0.875 0-1.6758-0.042968-2.4023-0.125 0.11719-0.11328 0.21875-0.22266 0.30859-0.33594 0.72266-0.89453 0.94531-1.8477 0.67578-2.8438 1.5469 0.125 3.2305 0.25391 4.8398 0.25391 2.5586 0 6.1953-0.28125 8.25-2.7031 0.82812-0.98047 1.7266-2.7031 1.2695-5.4023-0.8125-4.7656-3.3828-6.6992-5.6797-8.0977 0.54297-2.1406 0.11719-4.6328-1.1641-6.668-1.1328-1.7695-2.2227-2.9453-3.1094-3.8906-1.6055-1.7305-2.3398-2.5156-2.4883-5.9961l-2.75-0.60547 2.8711-0.17969-2.6992-0.8125 0.66797 0.011719c2.2461 0.54297 4.8828 0.80469 7.2344 1.0352l2.2852 0.23438c0.45312 0.054688 0.85156 0.11328 1.1641 0.17969 2.5938 0.55859 5.4414 2.1562 8.457 3.8398 3.3672 1.8828 6.8203 3.8203 10.461 4.5586 0.42969 0.76172 1.2266 1.3047 2.1016 1.4219 1.6055 0.22266 3.2188-0.18359 4.4141-0.5 0.15625-0.042968 0.30859-0.089844 0.44922-0.125 0.054688 0.023438 0.11719 0.042969 0.17969 0.066406l4.9336 1.6914c0.30859 0.15625 1.0859 0.89062 1.6055 1.3789 1.5117 1.418 3.0781 2.8828 5.0195 3.1289 0.11719 0.011719 0.62109 0.050781 0.73438 0.050781 0.59766 0 1.1016-0.10547 1.5273-0.26172 0.8125 3.2969 1.3047 8.5195 0.82422 10.375-0.54688 0.30859-1.6367 0.77344-2.3906 1.0977-3.1289 1.3398-6.0859 2.5977-6.3672 5.2852-0.066406 0.64453-0.027344 2.2852 1.8047 3.5664 0.8125 0.55859 1.7188 0.62891 2.3359 0.62891 0.91406 0 2.4297-0.20703 4.1328-0.46484 1.8945-0.28125 4.0273-0.59766 5.6406-0.61719-0.38672 1.1602-0.88672 2.6445-1.3438 4.0078-1.7656 5.2461-1.7656 5.2461-0.88672 6.4297 0.87891 1.1797 2.5312 1.5 3.7695 0.6875 2-1.2891 3.0312-3.0898 3.8594-4.5469 1.1484-2 1.3438-2.1797 2.8242-2.1211 1.8438 0.22266 7.6055 4.8828 10.383 7.125 4.7227 3.8203 5.6406 4.4688 7.3125 4.1094 1.9023-0.39844 4.7773-1.707 8.0977-3.2305 0.78516-0.35938 1.7344-0.79688 2.6992-1.2266-0.72656 2.207-0.55469 4.0312-0.40234 5.5039 0.14453 1.5391 0.19141 2.2617-0.25781 3.0781-0.57031 0.57812-3.3047 1.7539-5.1172 2.5312-5.7383 2.4688-11.676 5.0234-11.742 9.7617-0.054687 4.043 4.3906 6.5703 7.7461 8.1211 2.168 0.99609 4.8789-0.22266 7.5195-1.6953 1.4453-0.80078 3.1484-1.7695 4.4297-1.7656 0.24219 0.15625 0.28516 0.18359 0.36328 1.3828 0.066406 0.97266 0.14453 2.1914 0.75781 3.5039 0.58984 1.2617 1.8594 2.0117 3.3984 2.0117 0.6875 0 1.332-0.14062 1.8086-0.24609 0.24219-0.050781 0.46484-0.125 0.66797-0.21875l0.63281 0.56641c3.0391 2.6875 2.8945 2.6055 4.2188 2.6875 1.5977-0.054688 2.0312-0.81641 3.4766-3.3203 5.6953-9.8633 7.9844-12.551 8.625-12.977 1.0625-0.21094 8.5742-0.66797 13.02-0.70703-0.19141 2.2773 0.015625 3.8477 1.0039 4.9766 0.64844 0.75781 1.5586 1.1719 2.5469 1.1719 0.37891 0 1.1406-0.16797 1.4961-0.32031 3.3086-1.4297 2.2227-5.0117 1.8203-6.3633-0.12891-0.42578-0.34766-1.1328-0.37109-1.2148 0.42969-1.418 2.7539-2.2695 5.0117-3.0898 0.47656-0.17188 0.95312-0.34766 1.4297-0.53125 0.4375 1.1914 1.5352 2.0234 3.2461 2.1602 2.375 0 4.8164-1.6406 8.6133-4.3164 1.9766-1.3945 5.1953-3.6641 6.418-4.0977 0.20312 0.86328 0.69531 2.3594 2.3867 2.9961 0.3125 0.11719 0.64844 0.17969 0.98438 0.17969 0.6875-0.078125 0.91797-0.085938 2.7617-1.1523 0.98047-0.56641 3.2188-1.8633 4.9883-2.8281 0.37891 0.55469 0.79688 0.98438 1.0977 1.3164 0.050781 0.050781 0.10156 0.10156 0.14453 0.15234-0.40234 8.332 5.7773 12.344 10.32 15.289 0.76172 0.48828 1.4961 0.96484 2.0156 1.3086 0.25391 0.32422 0.59375 1.5508 0.78516 2.2109 0.53125 1.8867 1.3281 4.7305 4.1562 4.7305 0.59375 0 1.6914-0.37891 2.1719-0.73438 0.37109-0.27344 1.2383-1.0547 1.2383-2.4531 1.293 0.12891 2.582 0.17187 3.6719-0.11719 0.078125-0.023438 0.15625-0.042969 0.23438-0.066406 0.77344 2.6719 1.8711 6.4531 2.2383 7.6484l0.37109 1.1211c0.33984 0.99219 1.3672 4.0195 1.3828 4.7031-0.375 1.9805 0.34766 5.6523 2.8125 9.0156 1.8633 2.5547 5.2852 5.6992 11.535 6.8477 0.050782 1.0078 0.55859 2.1094 1.3398 2.6211 0.37109 0.24219 0.90625 0.41406 1.3828 0.46875 0.09375 0.48047 0.19141 0.96875 0.29297 1.4609 0.57031 2.8789 1.1797 5.8125 1.7734 8.6641l2.375 11.957c0 0.011719 0.16406 1.0586 0.16797 1.0703 0.09375 0.66797 0.17188 1.2617 0.24219 1.8594l0.078125 0.69922c0.050782 0.62891 0.089844 1.1719 0.0625 1.5664-0.125 1.8242-3.4844 11.602-4.6484 13.137-0.76562 0.91406-2.1562 1.8555-3.6289 2.8438-3.8867 2.6211-9.7617 6.5859-7.2031 14.207 1.4297 4.2578 5.8594 7.0547 10.551 10.02 4.5234 2.8555 9.1992 5.8125 9.4414 9.3125 0.066406 0.98438-1.1602 2.8906-2.1445 4.4258-1.2812 1.9922-2.6133 4.0586-2.9219 6.3008-0.63281 4.6602 2.3477 7.6094 4.5195 9.7734 1.2305 1.2148 2.3906 2.3672 2.7031 3.5039 0.16797 0.59375-0.26953 1.9883-0.61719 3.1094-0.57031 1.8047-1.2109 3.8477-0.80078 5.7383 0.14453 1.0195 0.37891 1.2305 2.2188 2.8906 0.21875 0.20312 0.4375 0.39844 0.63672 0.57812-0.09375 1.9219-2.1406 4.3633-3.9688 6.5469-2.4375 2.9062-4.9492 5.9141-4.5547 9.3477 0.32031 2.6875 2 4.9102 3.4883 6.8711 1.0859 1.4336 2.2109 2.918 2.3789 3.9375-0.027344 0.41406-0.54297 1.6367-0.84375 2.3672-0.93359 2.2305-1.9023 4.5352-0.89453 6.6523 1.1133 2.2461 3.6289 3.2695 5.8516 4.1758 0.96875 0.39844 2.5859 1.0586 2.9219 1.4961 1.3398 1.7461 3.5742 10.746 3.5039 14.195l-0.16406 0.63672 2.6758 0.82422-2.832-0.25781c-0.011719 0.035157-0.30078 0.97266-0.30859 1.0078zm-130.43 60.969c-1.0859-1.9102-1.8359-3.4492-1.9023-4.1367 0.64453 0 1.3594 0.33594 1.7812 0.64453 0.042968 1.5039 0.078125 2.6289 0.12109 3.4922z"/>
  <use x="70" y="644" xlink:href="#w"/>
  <use x="90.550781" y="644" xlink:href="#a"/>
  <use x="104.359375" y="644" xlink:href="#b"/>
  <use x="123.347656" y="644" xlink:href="#e"/>
  <use x="142.242188" y="644" xlink:href="#d"/>
  <use x="155.628906" y="644" xlink:href="#b"/>
  <use x="174.617188" y="644" xlink:href="#j"/>
  <use x="204.410156" y="644" xlink:href="#f"/>
  <use x="224.453125" y="644" xlink:href="#i"/>
  <use x="252.453125" y="644" xlink:href="#h"/>
  <use x="270.292969" y="644" xlink:href="#v"/>
  <use x="279.890625" y="644" xlink:href="#g"/>
  <use x="299.824219" y="644" xlink:href="#u"/>
  <use x="309.421875" y="644" xlink:href="#t"/>
  <use x="326.085938" y="644" xlink:href="#e"/>
  <use x="354.730469" y="644" xlink:href="#s"/>
  <use x="365.148438" y="644" xlink:href="#f"/>
  <use x="385.191406" y="644" xlink:href="#c"/>
  <use x="404.429688" y="644" xlink:href="#a"/>
  <use x="418.234375" y="644" xlink:href="#a"/>
  <use x="432.046875" y="644" xlink:href="#e"/>
  <use x="70" y="672" xlink:href="#r"/>
  <use x="82.183594" y="672" xlink:href="#a"/>
  <use x="95.992188" y="672" xlink:href="#c"/>
  <use x="115.226562" y="672" xlink:href="#q"/>
  <use x="154.152344" y="672" xlink:href="#d"/>
  <use x="167.535156" y="672" xlink:href="#p"/>
  <use x="187.46875" y="672" xlink:href="#b"/>
  <use x="216.207031" y="672" xlink:href="#o"/>
  <use x="239.640625" y="672" xlink:href="#c"/>
  <use x="258.878906" y="672" xlink:href="#g"/>
  <use x="278.8125" y="672" xlink:href="#n"/>
  <use x="308.492188" y="672" xlink:href="#m"/>
  <use x="329.015625" y="672" xlink:href="#a"/>
  <use x="342.820312" y="672" xlink:href="#c"/>
  <use x="362.058594" y="672" xlink:href="#l"/>
  <use x="371.65625" y="672" xlink:href="#b"/>
  <use x="390.648438" y="672" xlink:href="#k"/>
  <use x="407.242188" y="672" xlink:href="#d"/>
 </g>
</svg>
