<?xml version="1.0" encoding="UTF-8"?>
<svg width="700pt" height="700pt" version="1.1" viewBox="0 0 700 700" xmlns="http://www.w3.org/2000/svg" xmlns:xlink="http://www.w3.org/1999/xlink">
 <defs>
  <symbol id="h" overflow="visible">
   <path d="m18.766-1.125c-0.96875 0.5-1.9805 0.875-3.0312 1.125-1.043 0.25781-2.1367 0.39062-3.2812 0.39062-3.3984 0-6.0898-0.94531-8.0781-2.8438-1.9922-1.9062-2.9844-4.4844-2.9844-7.7344 0-3.2578 0.99219-5.8359 2.9844-7.7344 1.9883-1.9062 4.6797-2.8594 8.0781-2.8594 1.1445 0 2.2383 0.13281 3.2812 0.39062 1.0508 0.25 2.0625 0.625 3.0312 1.125v4.2188c-0.98047-0.65625-1.9453-1.1406-2.8906-1.4531-0.94922-0.3125-1.9492-0.46875-3-0.46875-1.875 0-3.3516 0.60547-4.4219 1.8125-1.0742 1.1992-1.6094 2.8555-1.6094 4.9688 0 2.1055 0.53516 3.7617 1.6094 4.9688 1.0703 1.1992 2.5469 1.7969 4.4219 1.7969 1.0508 0 2.0508-0.14844 3-0.45312 0.94531-0.3125 1.9102-0.80078 2.8906-1.4688z"/>
  </symbol>
  <symbol id="d" overflow="visible">
   <path d="m13.734-11.141c-0.4375-0.19531-0.87109-0.34375-1.2969-0.4375-0.41797-0.10156-0.83984-0.15625-1.2656-0.15625-1.2617 0-2.2305 0.40625-2.9062 1.2188-0.67969 0.80469-1.0156 1.9531-1.0156 3.4531v7.0625h-4.8906v-15.312h4.8906v2.5156c0.625-1 1.3438-1.7266 2.1562-2.1875 0.82031-0.46875 1.8008-0.70312 2.9375-0.70312 0.16406 0 0.34375 0.011719 0.53125 0.03125 0.19531 0.011719 0.47656 0.039062 0.84375 0.078125z"/>
  </symbol>
  <symbol id="c" overflow="visible">
   <path d="m17.641-7.7031v1.4062h-11.453c0.125 1.1484 0.53906 2.0078 1.25 2.5781 0.70703 0.57422 1.7031 0.85938 2.9844 0.85938 1.0312 0 2.082-0.14844 3.1562-0.45312 1.082-0.3125 2.1914-0.77344 3.3281-1.3906v3.7656c-1.1562 0.4375-2.3125 0.76562-3.4688 0.98438-1.1562 0.22656-2.3125 0.34375-3.4688 0.34375-2.7734 0-4.9297-0.70312-6.4688-2.1094-1.5312-1.4062-2.2969-3.3789-2.2969-5.9219 0-2.5 0.75391-4.4609 2.2656-5.8906 1.5078-1.4375 3.582-2.1562 6.2188-2.1562 2.4062 0 4.332 0.73047 5.7812 2.1875 1.4453 1.4492 2.1719 3.3828 2.1719 5.7969zm-5.0312-1.625c0-0.92578-0.27344-1.6719-0.8125-2.2344-0.54297-0.57031-1.25-0.85938-2.125-0.85938-0.94922 0-1.7188 0.26562-2.3125 0.79688s-0.96484 1.2969-1.1094 2.2969z"/>
  </symbol>
  <symbol id="e" overflow="visible">
   <path d="m9.2188-6.8906c-1.0234 0-1.793 0.17188-2.3125 0.51562-0.51172 0.34375-0.76562 0.85547-0.76562 1.5312 0 0.625 0.20703 1.1172 0.625 1.4688 0.41406 0.34375 0.98828 0.51562 1.7188 0.51562 0.92578 0 1.7031-0.32812 2.3281-0.98438 0.63281-0.66406 0.95312-1.4922 0.95312-2.4844v-0.5625zm7.4688-1.8438v8.7344h-4.9219v-2.2656c-0.65625 0.92969-1.3984 1.6055-2.2188 2.0312-0.82422 0.41406-1.8242 0.625-3 0.625-1.5859 0-2.8711-0.45703-3.8594-1.375-0.99219-0.92578-1.4844-2.1289-1.4844-3.6094 0-1.7891 0.61328-3.1016 1.8438-3.9375 1.2383-0.84375 3.1797-1.2656 5.8281-1.2656h2.8906v-0.39062c0-0.76953-0.30859-1.332-0.92188-1.6875-0.61719-0.36328-1.5703-0.54688-2.8594-0.54688-1.0547 0-2.0312 0.10547-2.9375 0.3125-0.89844 0.21094-1.7305 0.52344-2.5 0.9375v-3.7344c1.0391-0.25 2.0859-0.44141 3.1406-0.57812 1.0625-0.13281 2.125-0.20312 3.1875-0.20312 2.7578 0 4.75 0.54688 5.9688 1.6406 1.2266 1.0859 1.8438 2.8555 1.8438 5.3125z"/>
  </symbol>
  <symbol id="b" overflow="visible">
   <path d="m7.7031-19.656v4.3438h5.0469v3.5h-5.0469v6.5c0 0.71094 0.14062 1.1875 0.42188 1.4375s0.83594 0.375 1.6719 0.375h2.5156v3.5h-4.1875c-1.9375 0-3.3125-0.39844-4.125-1.2031-0.80469-0.8125-1.2031-2.1797-1.2031-4.1094v-6.5h-2.4219v-3.5h2.4219v-4.3438z"/>
  </symbol>
  <symbol id="l" overflow="visible">
   <path d="m12.766-13.078v-8.2031h4.9219v21.281h-4.9219v-2.2188c-0.66797 0.90625-1.4062 1.5703-2.2188 1.9844s-1.7578 0.625-2.8281 0.625c-1.8867 0-3.4336-0.75-4.6406-2.25-1.2109-1.5-1.8125-3.4258-1.8125-5.7812 0-2.3633 0.60156-4.2969 1.8125-5.7969 1.207-1.5 2.7539-2.25 4.6406-2.25 1.0625 0 2 0.21484 2.8125 0.64062 0.82031 0.42969 1.5664 1.0859 2.2344 1.9688zm-3.2188 9.9219c1.0391 0 1.8359-0.37891 2.3906-1.1406 0.55078-0.76953 0.82812-1.8828 0.82812-3.3438 0-1.457-0.27734-2.5664-0.82812-3.3281-0.55469-0.76953-1.3516-1.1562-2.3906-1.1562-1.043 0-1.8398 0.38672-2.3906 1.1562-0.55469 0.76172-0.82812 1.8711-0.82812 3.3281 0 1.4609 0.27344 2.5742 0.82812 3.3438 0.55078 0.76172 1.3477 1.1406 2.3906 1.1406z"/>
  </symbol>
  <symbol id="k" overflow="visible">
   <path d="m10.5-3.1562c1.0508 0 1.8516-0.37891 2.4062-1.1406 0.55078-0.76953 0.82812-1.8828 0.82812-3.3438 0-1.457-0.27734-2.5664-0.82812-3.3281-0.55469-0.76953-1.3555-1.1562-2.4062-1.1562-1.0547 0-1.8594 0.38672-2.4219 1.1562-0.55469 0.77344-0.82812 1.8828-0.82812 3.3281 0 1.4492 0.27344 2.5586 0.82812 3.3281 0.5625 0.77344 1.3672 1.1562 2.4219 1.1562zm-3.25-9.9219c0.67578-0.88281 1.4219-1.5391 2.2344-1.9688 0.82031-0.42578 1.7656-0.64062 2.8281-0.64062 1.8945 0 3.4453 0.75 4.6562 2.25 1.207 1.5 1.8125 3.4336 1.8125 5.7969 0 2.3555-0.60547 4.2812-1.8125 5.7812-1.2109 1.5-2.7617 2.25-4.6562 2.25-1.0625 0-2.0078-0.21094-2.8281-0.625-0.8125-0.42578-1.5586-1.0859-2.2344-1.9844v2.2188h-4.8906v-21.281h4.8906z"/>
  </symbol>
  <symbol id="j" overflow="visible">
   <path d="m0.34375-15.312h4.8906l4.125 10.391 3.5-10.391h4.8906l-6.4375 16.766c-0.64844 1.6953-1.4023 2.8828-2.2656 3.5625-0.86719 0.6875-2 1.0312-3.4062 1.0312h-2.8438v-3.2188h1.5312c0.83203 0 1.4375-0.13672 1.8125-0.40625 0.38281-0.26172 0.67969-0.73047 0.89062-1.4062l0.14062-0.42188z"/>
  </symbol>
  <symbol id="i" overflow="visible">
   <path d="m2.5781-20.406h14.203v3.9688h-8.9531v3.7969h8.4219v3.9844h-8.4219v8.6562h-5.25z"/>
  </symbol>
  <symbol id="g" overflow="visible">
   <path d="m17.75-9.3281v9.3281h-4.9219v-7.1406c0-1.3203-0.03125-2.2344-0.09375-2.7344s-0.16797-0.86719-0.3125-1.1094c-0.1875-0.3125-0.44922-0.55469-0.78125-0.73438-0.32422-0.17578-0.69531-0.26562-1.1094-0.26562-1.0234 0-1.8242 0.39844-2.4062 1.1875-0.58594 0.78125-0.875 1.8711-0.875 3.2656v7.5312h-4.8906v-15.312h4.8906v2.2344c0.73828-0.88281 1.5195-1.5391 2.3438-1.9688 0.83203-0.42578 1.75-0.64062 2.75-0.64062 1.7695 0 3.1133 0.54688 4.0312 1.6406 0.91406 1.0859 1.375 2.6562 1.375 4.7188z"/>
  </symbol>
  <symbol id="a" overflow="visible">
   <path d="m9.6406-12.188c-1.0859 0-1.9141 0.39062-2.4844 1.1719-0.57422 0.78125-0.85938 1.9062-0.85938 3.375s0.28516 2.5938 0.85938 3.375c0.57031 0.77344 1.3984 1.1562 2.4844 1.1562 1.0625 0 1.875-0.38281 2.4375-1.1562 0.57031-0.78125 0.85938-1.9062 0.85938-3.375s-0.28906-2.5938-0.85938-3.375c-0.5625-0.78125-1.375-1.1719-2.4375-1.1719zm0-3.5c2.6328 0 4.6914 0.71484 6.1719 2.1406 1.4766 1.418 2.2188 3.3867 2.2188 5.9062 0 2.5117-0.74219 4.4805-2.2188 5.9062-1.4805 1.418-3.5391 2.125-6.1719 2.125-2.6484 0-4.7148-0.70703-6.2031-2.125-1.4922-1.4258-2.2344-3.3945-2.2344-5.9062 0-2.5195 0.74219-4.4883 2.2344-5.9062 1.4883-1.4258 3.5547-2.1406 6.2031-2.1406z"/>
  </symbol>
  <symbol id="f" overflow="visible">
   <path d="m2.1875-5.9688v-9.3438h4.9219v1.5312c0 0.83594-0.007813 1.875-0.015625 3.125-0.011719 1.25-0.015625 2.0859-0.015625 2.5 0 1.2422 0.03125 2.1328 0.09375 2.6719 0.070313 0.54297 0.17969 0.93359 0.32812 1.1719 0.20703 0.32422 0.47266 0.57422 0.79688 0.75 0.32031 0.16797 0.69141 0.25 1.1094 0.25 1.0195 0 1.8203-0.39062 2.4062-1.1719 0.58203-0.78125 0.875-1.8672 0.875-3.2656v-7.5625h4.8906v15.312h-4.8906v-2.2188c-0.74219 0.89844-1.5234 1.5586-2.3438 1.9844-0.82422 0.41406-1.7344 0.625-2.7344 0.625-1.7617 0-3.1055-0.53906-4.0312-1.625-0.92969-1.082-1.3906-2.6602-1.3906-4.7344z"/>
  </symbol>
  <symbol id="s" overflow="visible">
   <path d="m12.422-21.281v3.2188h-2.7031c-0.6875 0-1.1719 0.125-1.4531 0.375-0.27344 0.25-0.40625 0.6875-0.40625 1.3125v1.0625h4.1875v3.5h-4.1875v11.812h-4.8906v-11.812h-2.4375v-3.5h2.4375v-1.0625c0-1.6641 0.46094-2.8984 1.3906-3.7031 0.92578-0.80078 2.3672-1.2031 4.3281-1.2031z"/>
  </symbol>
  <symbol id="r" overflow="visible">
   <path d="m16.547-12.766c0.61328-0.94531 1.3477-1.6719 2.2031-2.1719 0.85156-0.5 1.7891-0.75 2.8125-0.75 1.7578 0 3.0977 0.54688 4.0156 1.6406 0.92578 1.0859 1.3906 2.6562 1.3906 4.7188v9.3281h-4.9219v-7.9844-0.35938c0.007813-0.13281 0.015625-0.32031 0.015625-0.5625 0-1.082-0.16406-1.8633-0.48438-2.3438-0.3125-0.48828-0.82422-0.73438-1.5312-0.73438-0.92969 0-1.6484 0.38672-2.1562 1.1562-0.51172 0.76172-0.77344 1.8672-0.78125 3.3125v7.5156h-4.9219v-7.9844c0-1.6953-0.14844-2.7852-0.4375-3.2656-0.29297-0.48828-0.8125-0.73438-1.5625-0.73438-0.9375 0-1.6641 0.38672-2.1719 1.1562-0.51172 0.76172-0.76562 1.8594-0.76562 3.2969v7.5312h-4.9219v-15.312h4.9219v2.2344c0.60156-0.86328 1.2891-1.5156 2.0625-1.9531 0.78125-0.4375 1.6406-0.65625 2.5781-0.65625 1.0625 0 2 0.25781 2.8125 0.76562 0.8125 0.51172 1.4258 1.2305 1.8438 2.1562z"/>
  </symbol>
  <symbol id="q" overflow="visible">
   <path d="m17.75-9.3281v9.3281h-4.9219v-7.1094c0-1.3438-0.03125-2.2656-0.09375-2.7656s-0.16797-0.86719-0.3125-1.1094c-0.1875-0.3125-0.44922-0.55469-0.78125-0.73438-0.32422-0.17578-0.69531-0.26562-1.1094-0.26562-1.0234 0-1.8242 0.39844-2.4062 1.1875-0.58594 0.78125-0.875 1.8711-0.875 3.2656v7.5312h-4.8906v-21.281h4.8906v8.2031c0.73828-0.88281 1.5195-1.5391 2.3438-1.9688 0.83203-0.42578 1.75-0.64062 2.75-0.64062 1.7695 0 3.1133 0.54688 4.0312 1.6406 0.91406 1.0859 1.375 2.6562 1.375 4.7188z"/>
  </symbol>
  <symbol id="p" overflow="visible">
   <path d="m2.5781-20.406h5.875l7.4219 14v-14h4.9844v20.406h-5.875l-7.4219-14v14h-4.9844z"/>
  </symbol>
  <symbol id="o" overflow="visible">
   <path d="m2.5781-20.406h8.7344c2.5938 0 4.582 0.57812 5.9688 1.7344 1.3945 1.1484 2.0938 2.7891 2.0938 4.9219 0 2.1367-0.69922 3.7812-2.0938 4.9375-1.3867 1.1562-3.375 1.7344-5.9688 1.7344h-3.4844v7.0781h-5.25zm5.25 3.8125v5.7031h2.9219c1.0195 0 1.8047-0.25 2.3594-0.75 0.5625-0.5 0.84375-1.2031 0.84375-2.1094 0-0.91406-0.28125-1.6172-0.84375-2.1094-0.55469-0.48828-1.3398-0.73438-2.3594-0.73438z"/>
  </symbol>
  <symbol id="n" overflow="visible">
   <path d="m2.3594-15.312h4.8906v15.031c0 2.0508-0.49609 3.6172-1.4844 4.7031-0.98047 1.082-2.4062 1.625-4.2812 1.625h-2.4219v-3.2188h0.85938c0.92578 0 1.5625-0.21094 1.9062-0.625 0.35156-0.41797 0.53125-1.2461 0.53125-2.4844zm0-5.9688h4.8906v4h-4.8906z"/>
  </symbol>
  <symbol id="m" overflow="visible">
   <path d="m14.719-14.828v3.9844c-0.65625-0.45703-1.3242-0.79688-2-1.0156-0.66797-0.21875-1.3594-0.32812-2.0781-0.32812-1.3672 0-2.4336 0.40234-3.2031 1.2031-0.76172 0.79297-1.1406 1.9062-1.1406 3.3438 0 1.4297 0.37891 2.543 1.1406 3.3438 0.76953 0.79297 1.8359 1.1875 3.2031 1.1875 0.75781 0 1.4844-0.10938 2.1719-0.32812 0.6875-0.22656 1.3203-0.56641 1.9062-1.0156v4c-0.76172 0.28125-1.5391 0.48828-2.3281 0.625-0.78125 0.14453-1.5742 0.21875-2.375 0.21875-2.7617 0-4.9219-0.70703-6.4844-2.125-1.5547-1.4141-2.3281-3.3828-2.3281-5.9062 0-2.5312 0.77344-4.5039 2.3281-5.9219 1.5625-1.4141 3.7227-2.125 6.4844-2.125 0.80078 0 1.5938 0.074219 2.375 0.21875 0.78125 0.13672 1.5547 0.35156 2.3281 0.64062z"/>
  </symbol>
 </defs>
 <g>
  <path d="m501.2 174.66c11.438-0.039062 22.379-4.6836 30.352-12.879 7.957-8.082 12.379-18.988 12.297-30.324-0.082031-11.34-4.6602-22.18-12.73-30.145-8.0703-7.9648-18.973-12.402-30.309-12.332-11.504 0.011719-22.512 4.6758-30.52 12.938-7.9414 7.9961-12.32 18.859-12.152 30.125 0.015625 11.379 4.5703 22.277 12.656 30.277 8.0859 8.0039 19.031 12.445 30.406 12.34zm-18.926-60.871c4.8828-5.0234 11.586-7.8672 18.59-7.8984 9.2852 0 17.863 4.9531 22.504 12.992 4.6406 8.0391 4.6406 17.945 0 25.984-4.6406 8.0391-13.219 12.992-22.504 12.992-6.9062 0.015625-13.535-2.7148-18.43-7.5859-4.8945-4.875-7.6523-11.492-7.6641-18.398-0.039062-6.793 2.6641-13.316 7.5039-18.086z"   fill="#FFFFFF" stroke="#FFFFFF" stroke-linecap="round" stroke-linejoin="round" stroke-miterlimit="10" stroke-width="1"/>
  <path d="m437.59 176.51c12.543 21.914 24.957 43.793 37.238 65.633l1.5664 2.8008c2.6875 4.7617 5.6016 9.6328 8.457 14.336 3.4688 5.3789 9.4492 8.6094 15.848 8.5664 6.5469-0.015625 12.637-3.3477 16.184-8.8477 0.78516-1.2891 1.5664-2.5742 2.2969-3.9219l49.785-87.695c5.7773-10.055 8.9531-21.391 9.2383-32.984 0.26953-10.27-1.6406-20.48-5.5977-29.957-5.0352-13.586-13.852-25.441-25.414-34.164s-25.387-13.949-39.828-15.062c-9.8906-1-19.887 0.066406-29.344 3.1367-14.176 4.2617-26.742 12.691-36.062 24.191-11.031 13.27-17.301 29.852-17.809 47.098-0.18359 8.957 1.1055 17.887 3.8086 26.43 2.4922 7.1328 5.7188 13.98 9.6328 20.441zm17.359-83.383c7.2148-8.9453 16.98-15.488 28-18.762 7.2148-2.3594 14.844-3.1953 22.398-2.4648 11.488 0.79688 22.496 4.9336 31.668 11.895 9.1719 6.9648 16.109 16.457 19.965 27.309 3.0391 7.3203 4.4883 15.203 4.2539 23.125-0.21094 8.832-2.6172 17.473-7 25.145l-49.672 87.473c-0.55859 1.0625-1.1758 2.1289-1.793 3.1367h0.003906c-0.46875 0.67969-1.25 1.0781-2.0742 1.0625-0.66797 0.035156-1.3047-0.28125-1.6797-0.83984-2.8008-4.3125-5.6016-8.793-7.9531-13.496l-1.625-2.8555c-12.43-21.84-24.863-43.457-37.348-65.855-3.2695-5.3203-6.0117-10.945-8.1797-16.801-2.1406-6.8633-3.1406-14.035-2.9648-21.223 0.42188-13.5 5.3516-26.473 14-36.848z"   fill="#FFFFFF" stroke="#FFFFFF" stroke-linecap="round" stroke-linejoin="round" stroke-miterlimit="10" stroke-width="1"/>
  <path d="m231 368.14c15.793-0.074219 30.898-6.4688 41.945-17.754 10.859-11.133 16.887-26.102 16.77-41.656-0.11328-15.555-6.3672-30.434-17.391-41.402-11.027-10.969-25.938-17.145-41.492-17.18h-0.33594c-15.867 0.0625-31.039 6.5-42.113 17.863-10.949 10.988-17.004 25.93-16.797 41.441 0.058593 15.672 6.3594 30.676 17.512 41.691 11.148 11.012 26.23 17.129 41.902 16.996zm-30.465-88.145c7.9375-8.1797 18.844-12.805 30.242-12.824 11.102 0.066407 21.734 4.5 29.598 12.34 7.8594 7.8398 12.324 18.457 12.422 29.562 0.10156 11.102-4.1719 21.797-11.895 29.777-7.9102 8.0703-18.715 12.645-30.016 12.711-11.211 0.03125-21.977-4.3945-29.93-12.301-7.9492-7.9102-12.43-18.652-12.461-29.867-0.10156-11.02 4.2383-21.617 12.039-29.398z"   fill="#FFFFFF" stroke="#FFFFFF" stroke-linecap="round" stroke-linejoin="round" stroke-miterlimit="10" stroke-width="1"/>
  <path d="m141.12 372.9c18.219 32.219 36.477 64.398 54.77 96.543l2.4062 4.3125c3.8633 6.7773 7.8398 13.887 12.207 20.664v0.003906c4.3867 6.7656 11.93 10.82 19.992 10.75 8.2891 0.042969 16.016-4.1914 20.441-11.199 1.1758-1.793 2.2383-3.6953 3.3047-5.6016l17.359-29.961 56-99.008c8.1445-14.262 12.59-30.336 12.934-46.758 0.40234-14.555-2.25-29.035-7.7812-42.504-17.246-41.383-48.496-64.848-92.902-69.887h-0.003906c-14.012-1.4258-28.168 0.097657-41.551 4.4766-20.121 6.0156-37.961 17.957-51.184 34.273-15.715 18.941-24.629 42.602-25.312 67.199-0.17969 12.785 1.7109 25.512 5.5977 37.688 3.6016 10.102 8.1992 19.82 13.723 29.008zm18.984-123.2c11.184-13.711 26.223-23.758 43.176-28.84 11.176-3.6875 23.008-4.9844 34.719-3.8086 38.359 4.3672 64.289 23.855 79.238 59.695v0.003906c4.6406 11.285 6.8516 23.418 6.4961 35.613-0.26562 13.652-3.9648 27.016-10.75 38.863l-56 99.008-17.305 30.02-2.8008 4.7617v-0.003906c-1.4141 2.1367-3.8203 3.4023-6.3828 3.3594-2.2539-0.011719-4.3516-1.1484-5.6016-3.0234-4.1445-6.3828-8.0078-13.273-11.762-19.879l-2.4648-4.3125c-18.477-32.199-36.73-64.344-55.156-97.16-4.957-8.1133-9.0859-16.707-12.32-25.648-3.3008-10.48-4.8516-21.438-4.5898-32.422 0.76172-20.637 8.3203-40.441 21.504-56.336z"   fill="#FFFFFF" stroke="#FFFFFF" stroke-linecap="round" stroke-linejoin="round" stroke-miterlimit="10" stroke-width="1"/>
  <path d="m390.32 487.82h1.5664c24.754-4.6484 41.328-7.4492 49.223-8.3438h0.003906c4.6055-0.52734 7.9141-4.6875 7.3906-9.2969-0.23828-2.207-1.3477-4.2305-3.082-5.6172-1.7344-1.3867-3.9492-2.0273-6.1562-1.7734-8.3438 0.89453-25.312 3.7539-50.398 8.5117h-0.003907c-4.6367 0.41797-8.0625 4.5156-7.6445 9.1562 0.41797 4.6367 4.5195 8.0586 9.1562 7.6445z"   fill="#FFFFFF" stroke="#FFFFFF" stroke-linecap="round" stroke-linejoin="round" stroke-miterlimit="10" stroke-width="1"/>
  <path d="m470.9 468.78c0.91406 3.7695 4.3008 6.4141 8.1758 6.3828 0.67188 0.082032 1.3477 0.082032 2.0195 0 18.582-3.7305 35.277-13.832 47.207-28.559 2.707-3.7734 1.8398-9.0273-1.9336-11.734-3.7734-2.707-9.0234-1.8398-11.73 1.9336-7.168 10.023-20.551 17.809-37.574 22.062h-0.003906c-4.4062 1.082-7.1406 5.4844-6.1602 9.9141z"   fill="#FFFFFF" stroke="#FFFFFF" stroke-linecap="round" stroke-linejoin="round" stroke-miterlimit="10" stroke-width="1"/>
  <path d="m441.34 385.95h1.0078c4.6406 0.27734 8.625-3.2578 8.9023-7.8984 0.28125-4.6367-3.2539-8.625-7.8945-8.9023-17.527-2.1289-31.809-8.8477-38.305-17.922-2.6914-3.7891-7.9414-4.6758-11.73-1.9883-3.7891 2.6914-4.6797 7.9453-1.9883 11.734 9.3516 13.16 27.551 22.23 50.008 24.977z"   fill="#FFFFFF" stroke="#FFFFFF" stroke-linecap="round" stroke-linejoin="round" stroke-miterlimit="10" stroke-width="1"/>
  <path d="m516.71 409.08c1.5312 2.4961 4.2422 4.0195 7.168 4.0352 1.543 0.007813 3.0586-0.41797 4.3672-1.2344 3.957-2.4141 5.2109-7.5742 2.8008-11.535-8.5117-14.055-25.594-24.023-48.16-28-4.6367-0.83594-9.0742 2.25-9.9102 6.8867-0.83594 4.6406 2.25 9.0781 6.8867 9.9141 17.754 2.8555 30.855 10.078 36.848 19.934z"   fill="#FFFFFF" stroke="#FFFFFF" stroke-linecap="round" stroke-linejoin="round" stroke-miterlimit="10" stroke-width="1"/>
  <path d="m403.26 329.62c2.0742-0.039063 4.0664-0.83594 5.5977-2.2422 5.6016-5.6016 17.922-12.656 41.777-16.801 2.1953-0.35547 4.1562-1.5742 5.4492-3.3789 1.293-1.8086 1.8086-4.0586 1.4375-6.25-0.76953-4.5859-5.0977-7.6875-9.6875-6.9453-22.062 3.6953-39.48 10.922-50.398 20.887-1.6445 1.5078-2.6172 3.6055-2.7148 5.832-0.09375 2.2266 0.70312 4.3984 2.2109 6.043 1.6055 1.8047 3.9062 2.8438 6.3281 2.8555z"   fill="#FFFFFF" stroke="#FFFFFF" stroke-linecap="round" stroke-linejoin="round" stroke-miterlimit="10" stroke-width="1"/>
  <path d="m294 498.4c0.81641 3.9023 4.2461 6.6992 8.2305 6.7227h1.7344s22.398-4.5938 49.504-9.9102l0.003906-0.003907c4.5781-0.95703 7.5117-5.4453 6.5508-10.023-0.95703-4.5781-5.4453-7.5117-10.023-6.5508-27.215 5.6016-49.727 9.9102-49.727 9.9102-4.3906 1.082-7.1523 5.4219-6.2734 9.8555z"   fill="#FFFFFF" stroke="#FFFFFF" stroke-linecap="round" stroke-linejoin="round" stroke-miterlimit="10" stroke-width="1"/>
 </g>
</svg>
