
<svg width="80px" height="80px" viewBox="0 0 80 80" version="1.1" xmlns="http://www.w3.org/2000/svg" xmlns:xlink="http://www.w3.org/1999/xlink">
    <g id="Page-1" stroke="none" stroke-width="1" fill="none" fill-rule="evenodd">
        <g id="Group-21" fill="#000000">
            <path d="M63.2301,12.5653 C63.2301,10.2673 65.1041,8.3983 67.4061,8.3983 C69.7091,8.3983 71.5831,10.2673 71.5831,12.5653 C71.5831,14.8633 69.7091,16.7323 67.4061,16.7323 C65.1041,16.7323 63.2301,14.8633 63.2301,12.5653 M73.5841,12.5653 C73.5841,9.1673 70.8131,6.4013 67.4061,6.4013 C64.0011,6.4013 61.2291,9.1673 61.2291,12.5653 C61.2291,15.9633 64.0011,18.7293 67.4061,18.7293 C70.8131,18.7293 73.5841,15.9633 73.5841,12.5653" id="Fill-1"></path>
            <path d="M67.4063,1.997 C73.8413,1.997 77.9983,6.145 77.9983,12.565 C77.9983,17.793 72.0813,26.241 68.9023,30.779 L68.2253,31.746 C67.8463,32.291 66.9663,32.291 66.5873,31.746 L65.9113,30.779 C62.7323,26.241 56.8143,17.793 56.8143,12.565 C56.8143,6.145 60.9723,1.997 67.4063,1.997 L67.4063,1.997 Z M64.9443,32.885 C65.5043,33.69 66.4253,34.171 67.4063,34.171 C68.3873,34.171 69.3083,33.69 69.8693,32.885 L70.5413,31.922 C74.0793,26.873 79.9993,18.422 79.9993,12.565 C79.9993,5.05 74.9393,7.10542736e-15 67.4063,7.10542736e-15 C59.8743,7.10542736e-15 54.8133,5.05 54.8133,12.565 C54.8133,18.422 60.7333,26.873 64.2713,31.922 L64.9443,32.885 Z" id="Fill-3"></path>
            <path d="M12.5929,62.4447 C10.2899,62.4447 8.4169,60.5757 8.4169,58.2777 C8.4169,55.9797 10.2899,54.1107 12.5929,54.1107 C14.8959,54.1107 16.7689,55.9797 16.7689,58.2777 C16.7689,60.5757 14.8959,62.4447 12.5929,62.4447 M12.5929,52.1137 C9.1869,52.1137 6.4149,54.8797 6.4149,58.2777 C6.4149,61.6757 9.1869,64.4417 12.5929,64.4417 C15.9989,64.4417 18.7699,61.6757 18.7699,58.2777 C18.7699,54.8797 15.9989,52.1137 12.5929,52.1137" id="Fill-4"></path>
            <path d="M14.088,76.4916 L13.412,77.4576 C13.033,78.0036 12.152,78.0036 11.774,77.4586 L11.097,76.4916 C7.918,71.9536 2.001,63.5056 2.001,58.2776 C2.001,51.8576 6.158,47.7096 12.593,47.7096 C19.027,47.7096 23.185,51.8576 23.185,58.2776 C23.185,63.5056 17.267,71.9536 14.088,76.4916 M12.593,45.7126 C5.06,45.7126 1.77635684e-15,50.7626 1.77635684e-15,58.2776 C1.77635684e-15,64.1346 5.92,72.5856 9.458,77.6356 L10.13,78.5976 C10.691,79.4026 11.612,79.8836 12.593,79.8836 C13.574,79.8836 14.495,79.4026 15.055,78.5966 L15.728,77.6356 C19.266,72.5856 25.186,64.1346 25.186,58.2776 C25.186,50.7626 20.125,45.7126 12.593,45.7126" id="Fill-5"></path>
            <path d="M57.6578,34.1303 C57.1068,34.1663 56.6888,34.6413 56.7248,35.1923 C56.7598,35.7193 57.1998,36.1243 57.7218,36.1243 C57.7438,36.1243 57.7658,36.1243 57.7888,36.1223 C59.2998,36.0243 60.2408,35.9923 60.2498,35.9923 C60.8018,35.9743 61.2348,35.5133 61.2168,34.9623 C61.1988,34.4113 60.7358,33.9763 60.1838,33.9973 C60.1838,33.9973 59.2168,34.0283 57.6578,34.1303" id="Fill-6"></path>
            <path d="M38.3219,39.8666 C38.4719,39.8666 38.6239,39.8326 38.7669,39.7616 C39.9219,39.1866 41.4289,38.6576 43.2479,38.1886 C43.7819,38.0496 44.1039,37.5056 43.9659,36.9716 C43.8269,36.4386 43.2849,36.1176 42.7459,36.2556 C40.7929,36.7596 39.1539,37.3386 37.8739,37.9746 C37.3799,38.2206 37.1789,38.8206 37.4259,39.3136 C37.6009,39.6646 37.9539,39.8666 38.3219,39.8666" id="Fill-7"></path>
            <path d="M47.8595,37.2167 C47.9135,37.2167 47.9685,37.2127 48.0235,37.2037 C49.5295,36.9557 51.1675,36.7357 52.8915,36.5477 C53.4405,36.4877 53.8375,35.9947 53.7765,35.4467 C53.7165,34.8987 53.2145,34.5017 52.6735,34.5627 C50.9145,34.7547 49.2405,34.9807 47.6975,35.2337 C47.1525,35.3227 46.7835,35.8367 46.8735,36.3807 C46.9545,36.8697 47.3785,37.2167 47.8595,37.2167" id="Fill-8"></path>
            <path d="M75.1969,62.203 C74.6449,62.216 74.2079,62.674 74.2209,63.225 L74.2239,63.443 C74.2239,65.074 73.9969,66.468 73.5309,67.706 C73.3369,68.222 73.5989,68.797 74.1159,68.992 C74.2319,69.035 74.3499,69.056 74.4679,69.056 C74.8719,69.056 75.2539,68.808 75.4039,68.408 C75.9489,66.962 76.2249,65.291 76.2249,63.443 L76.2209,63.176 C76.2079,62.624 75.7199,62.153 75.1969,62.203" id="Fill-9"></path>
            <path d="M65.9454,52.4233 C64.5054,51.9873 62.8904,51.6033 61.0074,51.2473 C60.4654,51.1433 59.9404,51.5013 59.8384,52.0433 C59.7354,52.5843 60.0924,53.1063 60.6354,53.2093 C62.4474,53.5513 63.9944,53.9193 65.3634,54.3343 C65.4604,54.3633 65.5584,54.3773 65.6544,54.3773 C66.0844,54.3773 66.4804,54.0993 66.6124,53.6683 C66.7724,53.1413 66.4734,52.5833 65.9454,52.4233" id="Fill-10"></path>
            <path d="M74.401,59.3866 C74.864,59.0856 74.995,58.4666 74.693,58.0056 C73.786,56.6156 72.451,55.4076 70.727,54.4146 C70.248,54.1366 69.637,54.3026 69.36,54.7796 C69.084,55.2566 69.248,55.8676 69.727,56.1426 C71.196,56.9906 72.272,57.9556 73.017,59.0946 C73.209,59.3886 73.529,59.5486 73.856,59.5486 C74.043,59.5486 74.233,59.4966 74.401,59.3866" id="Fill-11"></path>
            <path d="M70.9908,71.29 C69.9508,72.178 68.6448,72.935 66.9968,73.604 C66.4848,73.812 66.2398,74.395 66.4478,74.906 C66.6058,75.293 66.9798,75.528 67.3748,75.528 C67.4998,75.528 67.6278,75.504 67.7518,75.454 C69.6008,74.702 71.0858,73.836 72.2908,72.808 C72.7118,72.449 72.7608,71.819 72.4018,71.4 C72.0418,70.98 71.4108,70.932 70.9908,71.29" id="Fill-12"></path>
            <path d="M52.7589,76.9013 C51.3399,77.1013 49.6989,77.2773 47.8819,77.4223 C47.3309,77.4663 46.9209,77.9473 46.9649,78.4963 C47.0069,79.0193 47.4449,79.4153 47.9609,79.4153 C47.9879,79.4153 48.0149,79.4143 48.0419,79.4123 C49.8999,79.2643 51.5809,79.0843 53.0399,78.8783 C53.5869,78.8003 53.9669,78.2963 53.8899,77.7503 C53.8129,77.2033 53.3009,76.8253 52.7589,76.9013" id="Fill-13"></path>
            <path d="M37.4937,45.956 C36.5357,45.109 36.0697,44.099 36.0697,42.866 C36.0697,42.736 36.0747,42.604 36.0837,42.479 C36.0837,42.478 36.0887,42.425 36.0887,42.424 L35.0917,42.341 L34.0897,42.318 C34.0757,42.505 34.0677,42.687 34.0677,42.866 C34.0677,44.678 34.7747,46.221 36.1667,47.451 C36.3577,47.619 36.5947,47.702 36.8297,47.702 C37.1067,47.702 37.3817,47.588 37.5787,47.365 C37.9457,46.953 37.9067,46.321 37.4937,45.956" id="Fill-14"></path>
            <path d="M42.9591,77.7294 C41.3221,77.8074 39.6601,77.8644 38.0191,77.9064 C37.4661,77.9194 37.0301,78.3784 37.0441,78.9294 C37.0581,79.4724 37.5031,79.9024 38.0441,79.9024 C38.0531,79.9024 38.0611,79.9024 38.0701,79.9014 C39.7251,79.8604 41.4021,79.8024 43.0541,79.7244 C43.6061,79.6974 44.0321,79.2304 44.0061,78.6794 C43.9801,78.1284 43.5061,77.7024 42.9591,77.7294" id="Fill-15"></path>
            <path d="M33.0699,77.9897 C31.9579,77.9997 30.8749,78.0007 29.8569,78.0037 L28.1189,77.9997 C27.5689,77.9737 27.1159,78.4427 27.1138933,78.9937 C27.1119,79.5457 27.5579,79.9937 28.1099,79.9967 L29.8569,80.0007 L30.0109,80.0007 C30.9949,80.0007 32.0259,79.9957 33.0889,79.9867 C33.6409,79.9817 34.0849,79.5307 34.0799418,78.9787 C34.0749,78.4267 33.6569,77.9747 33.0699,77.9897" id="Fill-16"></path>
            <path d="M62.4039,75.0492 C61.0449,75.3862 59.5209,75.7102 57.6069,76.0692 C57.0649,76.1712 56.7059,76.6922 56.8089,77.2342 C56.8989,77.7142 57.3189,78.0482 57.7909,78.0482 C57.8519,78.0482 57.9139,78.0432 57.9769,78.0312 C59.9289,77.6652 61.4889,77.3342 62.8879,76.9862 C63.4239,76.8532 63.7509,76.3112 63.6159,75.7762 C63.4829,75.2412 62.9379,74.9142 62.4039,75.0492" id="Fill-17"></path>
            <path d="M46.232,49.0614 C44.338,48.7294 42.795,48.3734 41.516,47.9734 C40.99,47.8074 40.427,48.1004 40.262,48.6264 C40.097,49.1534 40.39,49.7134 40.917,49.8774 C42.281,50.3044 43.905,50.6804 45.885,51.0274 C45.944,51.0384 46.003,51.0424 46.06,51.0424 C46.536,51.0424 46.959,50.7024 47.044,50.2174 C47.14,49.6744 46.776,49.1574 46.232,49.0614" id="Fill-18"></path>
            <path d="M56.0499,50.4525 C54.9839,50.3035 53.9149,50.1625 52.8549,50.0235 L51.1109,49.7925 C50.5569,49.7205 50.0589,50.1015 49.9859,50.6485 C49.9129,51.1955 50.2969,51.6985 50.8439,51.7715 L52.5929,52.0025 C53.6469,52.1415 54.7109,52.2815 55.7719,52.4295 C55.8199,52.4365 55.8659,52.4395 55.9129,52.4395 C56.4039,52.4395 56.8319,52.0785 56.9019,51.5795 C56.9789,51.0335 56.5969,50.5295 56.0499,50.4525" id="Fill-19"></path>
            <path d="M23.0064,77.9428 C21.4464,77.9158 20.5244,77.8878 20.5214,77.8878 C19.9934,77.8768 19.5084,78.3058 19.4914,78.8568 C19.4754,79.4068 19.9094,79.8678 20.4624,79.8828 C20.4624,79.8828 21.3934,79.9108 22.9704,79.9398 L22.9884,79.9398 C23.5334,79.9398 23.9784,79.5048 23.9884,78.9598 C23.9984,78.4078 23.5594,77.9528 23.0064,77.9428" id="Fill-20"></path>
        </g>
    </g>
</svg>