
<svg width="68px" height="80px" viewBox="0 0 68 80" version="1.1" xmlns="http://www.w3.org/2000/svg" xmlns:xlink="http://www.w3.org/1999/xlink">
    <g id="Page-1" stroke="none" stroke-width="1" fill="none" fill-rule="evenodd">
        <g id="Group-13" fill="#000000">
            <path d="M34.1027,68.262 C34.1027,73.633 29.7257,78.002 24.3447,78.002 C23.9707,78.002 23.5907,77.981 23.2147,77.939 C18.8027,77.449 15.2057,73.902 14.6637,69.507 C14.2867,66.453 15.3177,63.473 17.4937,61.33 L18.0897,60.743 L18.0897,59.908 L18.0897,8.241 C18.0897,4.799 20.8957,1.998 24.3447,1.998 C27.7927,1.998 30.5987,4.799 30.5987,8.241 L30.5987,59.908 L30.5987,60.743 L31.1947,61.33 C33.0697,63.177 34.1027,65.638 34.1027,68.262 L34.1027,68.262 Z M32.6007,8.241 C32.6007,3.69 28.9037,0 24.3447,0 C19.7847,0 16.0887,3.69 16.0887,8.241 L16.0887,59.908 C13.6027,62.356 12.2007,65.896 12.6767,69.752 C13.3317,75.062 17.6657,79.332 22.9927,79.925 C23.4477,79.975 23.8997,80 24.3447,80 C30.8397,80 36.1047,74.745 36.1047,68.262 C36.1047,64.992 34.7617,62.036 32.6007,59.908 L32.6007,8.241 Z" id="Fill-1"></path>
            <path d="M63.8244,25.3035 C62.6254,25.3035 61.6494,24.3295 61.6494,23.1325 C61.6494,21.9355 62.6254,20.9625 63.8244,20.9625 C65.0234,20.9625 65.9984,21.9355 65.9984,23.1325 C65.9984,24.3295 65.0234,25.3035 63.8244,25.3035 M63.8244,18.9645 C61.5214,18.9645 59.6474,20.8345 59.6474,23.1325 C59.6474,25.4305 61.5214,27.3015 63.8244,27.3015 C66.1264,27.3015 68.0004,25.4305 68.0004,23.1325 C68.0004,20.8345 66.1264,18.9645 63.8244,18.9645" id="Fill-3"></path>
            <path d="M50.7229,18.9642 L47.2999,18.9642 C43.2979,18.9642 40.0409,22.2142 40.0409,26.2092 L40.0409,38.6452 C40.0409,42.6392 43.2979,45.8892 47.2999,45.8892 L50.7229,45.8892 C54.7249,45.8892 57.9809,42.6392 57.9809,38.6452 L57.9809,38.0452 C57.9809,37.4932 57.5329,37.0462 56.9799,37.0462 C56.4269,37.0462 55.9789,37.4932 55.9789,38.0452 L55.9789,38.6452 C55.9789,41.5382 53.6199,43.8922 50.7229,43.8922 L47.2999,43.8922 C44.4019,43.8922 42.0429,41.5382 42.0429,38.6452 L42.0429,26.2092 C42.0429,23.3162 44.4019,20.9622 47.2999,20.9622 L50.7229,20.9622 C53.6199,20.9622 55.9789,23.3162 55.9789,26.2092 L55.9789,26.9192 C55.9789,27.4702 56.4269,27.9182 56.9799,27.9182 C57.5329,27.9182 57.9809,27.4702 57.9809,26.9192 L57.9809,26.2092 C57.9809,22.2142 54.7249,18.9642 50.7229,18.9642" id="Fill-4"></path>
            <path d="M24.4284,71.262 C22.7714,71.262 21.4234,69.916 21.4234,68.262 C21.4234,66.608 22.7714,65.262 24.4284,65.262 C26.0854,65.262 27.4334,66.608 27.4334,68.262 C27.4334,69.916 26.0854,71.262 24.4284,71.262 M25.4294,63.366 L25.4294,34.964 C25.4294,34.412 24.9814,33.965 24.4284,33.965 C23.8754,33.965 23.4274,34.412 23.4274,34.964 L23.4274,63.366 C21.1444,63.829 19.4214,65.848 19.4214,68.262 C19.4214,71.018 21.6674,73.26 24.4284,73.26 C27.1894,73.26 29.4354,71.018 29.4354,68.262 C29.4354,65.848 27.7124,63.829 25.4294,63.366" id="Fill-5"></path>
            <path d="M11.112,13.9857 L1.001,13.9857 C0.448,13.9857 0,14.4327 0,14.9847 C0,15.5357 0.448,15.9837 1.001,15.9837 L11.112,15.9837 C11.665,15.9837 12.113,15.5357 12.113,14.9847 C12.113,14.4327 11.665,13.9857 11.112,13.9857" id="Fill-6"></path>
            <path d="M11.112,20.6453 L7.491,20.6453 C6.939,20.6453 6.491,21.0933 6.491,21.6443 C6.491,22.1963 6.939,22.6433 7.491,22.6433 L11.112,22.6433 C11.665,22.6433 12.113,22.1963 12.113,21.6443 C12.113,21.0933 11.665,20.6453 11.112,20.6453" id="Fill-7"></path>
            <path d="M10.9357,29.303 C11.4887,29.303 11.9357,28.856 11.9357,28.304 C11.9357,27.752 11.4887,27.305 10.9357,27.305 L7.4917,27.305 C6.9387,27.305 6.4907,27.752 6.4907,28.304 C6.4907,28.856 6.9387,29.303 7.4917,29.303 L10.9357,29.303 Z" id="Fill-8"></path>
            <path d="M11.112,33.9647 L1.001,33.9647 C0.448,33.9647 0,34.4117 0,34.9637 C0,35.5157 0.448,35.9627 1.001,35.9627 L11.112,35.9627 C11.665,35.9627 12.113,35.5157 12.113,34.9637 C12.113,34.4117 11.665,33.9647 11.112,33.9647" id="Fill-9"></path>
            <path d="M11.112,53.9437 L1.001,53.9437 C0.448,53.9437 0,54.3907 0,54.9427 C0,55.4947 0.448,55.9417 1.001,55.9417 L11.112,55.9417 C11.665,55.9417 12.113,55.4947 12.113,54.9427 C12.113,54.3907 11.665,53.9437 11.112,53.9437" id="Fill-10"></path>
            <path d="M11.112,40.6248 L7.491,40.6248 C6.939,40.6248 6.491,41.0718 6.491,41.6238 C6.491,42.1748 6.939,42.6228 7.491,42.6228 L11.112,42.6228 C11.665,42.6228 12.113,42.1748 12.113,41.6238 C12.113,41.0718 11.665,40.6248 11.112,40.6248" id="Fill-11"></path>
            <path d="M10.9357,49.282 C11.4887,49.282 11.9357,48.835 11.9357,48.283 C11.9357,47.731 11.4887,47.284 10.9357,47.284 L7.4917,47.284 C6.9387,47.284 6.4907,47.731 6.4907,48.283 C6.4907,48.835 6.9387,49.282 7.4917,49.282 L10.9357,49.282 Z" id="Fill-12"></path>
        </g>
    </g>
</svg>