<svg width="72px" height="80px" viewBox="0 0 72 80" version="1.1" xmlns="http://www.w3.org/2000/svg" xmlns:xlink="http://www.w3.org/1999/xlink">
    <g id="Page-1" stroke="none" stroke-width="1" fill="none" fill-rule="evenodd">
        <g id="Group-9" fill="#000000">
            <path d="M67.01,72.2852 L60.009,72.2852 L12.017,72.2852 L5.016,72.2852 L2,72.2852 L2,68.2282 L5.016,68.2282 L67.01,68.2282 L70,68.2282 L70.001,72.2852 L67.01,72.2852 Z M65.01,78.0012 L62.009,78.0012 L62.009,74.2852 L65.01,74.2852 L65.01,78.0012 Z M10.017,78.0012 L7.016,78.0012 L7.016,74.2852 L10.017,74.2852 L10.017,78.0012 Z M7.016,41.0102 L16.154,41.0102 L16.154,48.5682 C16.154,49.2692 16.51,49.9062 17.108,50.2722 C17.705,50.6392 18.435,50.6682 19.06,50.3512 L21.091,49.3192 L23.122,50.3512 C23.41,50.4972 23.72,50.5702 24.03,50.5702 C24.392,50.5702 24.752,50.4702 25.074,50.2722 C25.672,49.9062 26.029,49.2692 26.029,48.5682 L26.029,41.0102 L35.058,41.0102 L35.058,66.2292 L7.016,66.2292 L7.016,41.0102 Z M18.154,41.0102 L24.029,41.0102 L24.029,48.5682 L21.996,47.5352 C21.431,47.2492 20.754,47.2472 20.185,47.5362 L18.154,48.5682 L18.154,41.0102 Z M53.677,48.5682 L51.645,47.5362 C51.079,47.2482 50.401,47.2472 49.833,47.5362 L47.802,48.5682 L47.802,41.0102 L53.676,41.0102 L53.677,48.5682 Z M65.01,66.2292 L37.059,66.2292 L37.059,41.0102 L45.802,41.0102 L45.802,48.5682 C45.802,49.2692 46.158,49.9062 46.755,50.2722 C47.352,50.6392 48.081,50.6682 48.708,50.3512 L50.739,49.3192 L52.771,50.3512 C53.059,50.4972 53.368,50.5702 53.678,50.5702 C54.039,50.5702 54.4,50.4702 54.722,50.2722 C55.32,49.9062 55.676,49.2692 55.676,48.5682 L55.676,41.0102 L65.01,41.0102 L65.01,66.2292 Z M70,66.2292 L67.01,66.2292 L67.01,39.0102 L5.016,39.0102 L5.016,66.2292 L2,66.2292 C0.898,66.2292 0,67.1262 0,68.2282 L0,72.2852 C0,73.3882 0.898,74.2852 2,74.2852 L5.016,74.2852 L5.016,78.0012 C5.016,79.1032 5.913,80.0002 7.016,80.0002 L10.017,80.0002 C11.119,80.0002 12.017,79.1032 12.017,78.0012 L12.017,74.2852 L60.009,74.2852 L60.009,78.0012 C60.009,79.1032 60.906,80.0002 62.009,80.0002 L65.01,80.0002 C66.113,80.0002 67.01,79.1032 67.01,78.0012 L67.01,74.2852 L70,74.2852 C71.103,74.2852 72,73.3882 72,72.2852 L72,68.2282 C72,67.1262 71.103,66.2292 70,66.2292 L70,66.2292 Z" id="Fill-1"></path>
            <path d="M16.0246,57.5005 L11.0166,57.5005 C10.4636,57.5005 10.0166,57.9485 10.0166,58.5005 C10.0166,59.0525 10.4636,59.5005 11.0166,59.5005 L16.0246,59.5005 C16.5776,59.5005 17.0246,59.0525 17.0246,58.5005 C17.0246,57.9485 16.5776,57.5005 16.0246,57.5005" id="Fill-3"></path>
            <path d="M16.0246,61.2969 L11.0166,61.2969 C10.4636,61.2969 10.0166,61.7449 10.0166,62.2969 C10.0166,62.8489 10.4636,63.2969 11.0166,63.2969 L16.0246,63.2969 C16.5776,63.2969 17.0246,62.8489 17.0246,62.2969 C17.0246,61.7449 16.5776,61.2969 16.0246,61.2969" id="Fill-4"></path>
            <path d="M46.0109,57.5005 L41.0029,57.5005 C40.4499,57.5005 40.0029,57.9485 40.0029,58.5005 C40.0029,59.0525 40.4499,59.5005 41.0029,59.5005 L46.0109,59.5005 C46.5639,59.5005 47.0109,59.0525 47.0109,58.5005 C47.0109,57.9485 46.5639,57.5005 46.0109,57.5005" id="Fill-5"></path>
            <path d="M46.0109,61.2969 L41.0029,61.2969 C40.4499,61.2969 40.0029,61.7449 40.0029,62.2969 C40.0029,62.8489 40.4499,63.2969 41.0029,63.2969 L46.0109,63.2969 C46.5639,63.2969 47.0109,62.8489 47.0109,62.2969 C47.0109,61.7449 46.5639,61.2969 46.0109,61.2969" id="Fill-6"></path>
            <path d="M31.7951,12.585 C31.7951,10.284 33.6681,8.412 35.9701,8.412 C38.2731,8.412 40.1451,10.284 40.1451,12.585 C40.1451,14.886 38.2731,16.759 35.9701,16.759 C33.6681,16.759 31.7951,14.886 31.7951,12.585 M42.1451,12.585 C42.1451,9.182 39.3751,6.412 35.9701,6.412 C32.5651,6.412 29.7951,9.182 29.7951,12.585 C29.7951,15.989 32.5651,18.758 35.9701,18.758 C39.3751,18.758 42.1451,15.989 42.1451,12.585" id="Fill-7"></path>
            <path d="M35.9699,2 C42.4029,2 46.5579,6.155 46.5579,12.585 C46.5579,17.823 40.6409,26.286 37.4609,30.833 L36.7889,31.796 C36.4109,32.341 35.5309,32.342 35.1509,31.796 L34.4749,30.827 C31.2979,26.282 25.3829,17.821 25.3829,12.585 C25.3829,6.155 29.5379,2 35.9699,2 L35.9699,2 Z M33.5079,32.937 C34.0689,33.743 34.9889,34.225 35.9689,34.225 C36.9509,34.225 37.8709,33.743 38.4319,32.937 L39.1009,31.979 C42.6379,26.92 48.5579,18.453 48.5579,12.585 C48.5579,5.058 43.4989,7.10542736e-15 35.9699,7.10542736e-15 C28.4419,7.10542736e-15 23.3829,5.058 23.3829,12.585 C23.3829,18.451 29.2999,26.916 32.8359,31.973 L33.5079,32.937 Z" id="Fill-8"></path>
        </g>
    </g>
</svg>