
<svg width="90px" height="49px" viewBox="0 0 90 49" version="1.1" xmlns="http://www.w3.org/2000/svg" xmlns:xlink="http://www.w3.org/1999/xlink">
    <g id="Page-1" stroke="none" stroke-width="1" fill="none" fill-rule="evenodd">
        <g id="Group-4" fill="#000000">
            <path d="M69.9423592,23.467411 C70.0953592,23.527411 70.1863592,23.562411 70.3333592,23.619411 C70.2923592,23.471411 70.2643592,23.372411 70.2273592,23.238411 C70.1253592,23.321411 70.0613592,23.372411 69.9423592,23.467411 L69.9423592,23.467411 Z M11.6933592,12.759411 C11.5903592,12.931411 11.5273592,13.036411 11.4393592,13.183411 C11.5793592,13.196411 11.6683592,13.205411 11.7893592,13.217411 C11.7583592,13.070411 11.7353592,12.961411 11.6933592,12.759411 L11.6933592,12.759411 Z M11.9703592,20.542411 C11.9463592,20.569411 11.9213592,20.596411 11.8963592,20.624411 C12.0473592,20.782411 12.1983592,20.941411 12.3493592,21.099411 C12.3903592,20.767411 12.1333592,20.695411 11.9703592,20.542411 L11.9703592,20.542411 Z M13.4883592,20.484411 C13.5253592,20.851411 13.7593592,20.944411 14.0823592,21.055411 C13.8613592,20.843411 13.6963592,20.684411 13.4883592,20.484411 L13.4883592,20.484411 Z M74.9633592,24.887411 C74.9843592,25.335411 75.1313592,25.562411 75.4473592,25.658411 C75.2593592,25.359411 75.1113592,25.123411 74.9633592,24.887411 L74.9633592,24.887411 Z M32.9693592,29.917411 C33.1443592,30.188411 33.0953592,30.609411 33.5213592,30.726411 C33.5813592,30.285411 33.3573592,30.047411 32.9693592,29.917411 L32.9693592,29.917411 Z M64.0313592,45.553411 C64.1353592,46.142411 64.2463592,46.390411 64.5853592,46.796411 C64.6103592,46.286411 64.4243592,45.869411 64.0313592,45.553411 L64.0313592,45.553411 Z M72.3743592,23.736411 C71.8963592,23.456411 71.8183592,23.479411 71.5133592,24.009411 C71.8023592,24.064411 72.0773592,24.115411 72.3743592,24.171411 L72.3743592,23.736411 Z M36.1723592,32.166411 C35.7673592,32.093411 35.3673592,32.021411 34.9153592,31.940411 C34.9533592,32.217411 34.9863592,32.458411 35.0183592,32.691411 C35.5973592,32.795411 35.9503592,32.634411 36.1723592,32.166411 L36.1723592,32.166411 Z M83.7153592,13.209411 C83.6643592,13.096411 83.5233592,12.925411 83.5233592,12.754411 C83.5243592,12.420411 83.3173592,12.285411 83.0813592,12.161411 C82.9383592,12.087411 82.7813592,12.034411 82.6253592,11.991411 C82.2923592,11.899411 82.1063592,11.681411 82.0143592,11.354411 C81.9243592,11.032411 81.8113592,10.717411 81.7013592,10.379411 C81.5353592,10.657411 81.5353592,10.657411 81.6343592,10.867411 C81.8323592,11.286411 81.8003592,11.459411 81.4583592,11.754411 C81.3923592,11.810411 81.2993592,11.836411 81.2053592,11.883411 C81.5523592,12.433411 81.7433592,12.941411 82.2823592,13.213411 C82.5333592,13.340411 82.7243592,13.590411 82.9323592,13.793411 C83.1373592,13.993411 83.2953592,14.246411 83.5783592,14.382411 C83.6253592,13.983411 83.6683592,13.615411 83.7153592,13.209411 L83.7153592,13.209411 Z M14.9733592,9.51641095 C15.0913592,9.58241095 15.2213592,9.65141095 15.3473592,9.72641095 C15.7333592,9.95641095 15.8443592,10.302411 15.6543592,10.712411 C15.5183592,11.002411 15.3153592,11.241411 15.0123592,11.361411 C14.7573592,11.463411 14.6603592,11.655411 14.6153592,11.901411 C14.5723592,12.133411 14.5263592,12.365411 14.4803592,12.597411 C14.4123592,12.937411 14.2303592,13.154411 13.8643592,13.193411 C13.7673592,13.203411 13.6753592,13.255411 13.5823592,13.288411 C13.5923592,13.319411 13.6023592,13.350411 13.6133592,13.381411 C13.8813592,13.313411 14.1493592,13.241411 14.4193592,13.179411 C14.7363592,13.107411 15.0513592,13.011411 15.3733592,12.985411 C15.7693592,12.952411 15.7893592,12.963411 15.8293592,12.577411 C15.8393592,12.474411 15.8533592,12.371411 15.8563592,12.268411 C15.8633592,11.988411 15.9633592,11.762411 16.1713592,11.565411 C16.4433592,11.304411 16.6883592,11.015411 17.1463592,10.943411 C16.8763592,10.830411 16.6733592,10.760411 16.4843592,10.664411 C16.0683592,10.454411 15.6803592,10.215411 15.7453592,9.65141095 C15.4943592,9.43841095 15.4623592,9.13341095 15.4433592,8.82441095 C14.9223592,9.01241095 14.9193592,9.01841095 14.9733592,9.51641095 L14.9733592,9.51641095 Z M22.1033592,19.256411 C21.6643592,20.012411 21.1683592,20.618411 20.9863592,21.396411 C21.4063592,21.680411 21.8223592,21.603411 22.2143592,21.510411 C22.7753592,21.377411 23.3203592,21.180411 23.8773592,21.028411 C24.2493592,20.926411 24.6123592,21.043411 24.9603592,21.159411 C25.2383592,21.253411 25.5033592,21.389411 25.7643592,21.524411 C26.1273592,21.710411 26.5213592,21.630411 26.9003592,21.676411 C26.9583592,21.684411 27.0293592,21.588411 27.1543592,21.495411 C26.4653592,21.068411 25.8253592,20.669411 25.1813592,20.275411 C25.1213592,20.238411 25.0363592,20.193411 24.9763592,20.208411 C24.5383592,20.320411 24.0533592,20.215411 23.6823592,20.639411 C23.4063592,20.954411 22.8633592,20.733411 22.8073592,20.301411 C22.7473592,19.836411 22.3663592,19.649411 22.1033592,19.256411 L22.1033592,19.256411 Z M85.7663592,8.47041095 C85.5793592,8.37541095 85.5033592,8.33141095 85.4213592,8.29741095 C84.8233592,8.04441095 84.7053592,7.63141095 85.1003592,7.10741095 C85.2373592,6.92541095 85.4113592,6.77141095 85.5433592,6.63241095 C85.0883592,6.36341095 84.6473592,6.09841095 84.2033592,5.84241095 C84.1013592,5.78441095 83.9873592,5.73841095 83.8733592,5.71441095 C82.7123592,5.47541095 81.5513592,5.23541095 80.3873592,5.01141095 C80.1043592,4.95741095 79.8093592,4.96241095 79.5303592,4.94141095 C79.3043592,5.63241095 79.1453592,5.72941095 78.4793592,5.61841095 C77.7643592,5.49841095 77.0523592,5.34141095 76.3333592,5.27141095 C75.5533592,5.19641095 74.7663592,5.19641095 73.9833592,5.17541095 C73.6653592,5.16741095 73.3383592,5.15441095 73.0963592,4.94341095 C72.7053592,4.60241095 72.2403592,4.56241095 71.7653592,4.55241095 C71.1273592,4.53941095 70.4873592,4.53941095 69.8483592,4.55241095 C69.4093592,4.56041095 68.9943592,4.48341095 68.5953592,4.29841095 C67.3153592,3.70241095 65.9503592,3.58241095 64.5693592,3.56441095 C64.4003592,4.17641095 64.2003592,4.30041095 63.5703592,4.25141095 C62.9383592,4.20341095 62.3053592,4.17741095 61.7013592,4.14341095 C61.2953592,4.74241095 61.1603592,4.77741095 60.5393592,4.46941095 C60.1673592,4.28441095 59.7953592,4.10041095 59.4283592,3.90541095 C59.3143592,3.84341095 59.1653592,3.76641095 59.1253592,3.66041095 C58.9523592,3.21241095 58.5863592,3.21041095 58.2063592,3.21341095 C57.8663592,3.21541095 57.5273592,3.20441095 57.1883592,3.21641095 C57.0033592,3.22241095 56.8193592,3.27041095 56.6323592,3.28841095 C56.2233592,3.32941095 55.8083592,3.42141095 55.4033592,3.38841095 C54.2223592,3.29341095 53.0463592,3.14341095 51.8663592,3.02741095 C51.7143592,3.01241095 51.5403592,3.04341095 51.4043592,3.11041095 C50.9663592,3.32541095 50.4973592,3.38141095 50.0263592,3.43041095 C49.7323592,3.46141095 49.4933592,3.28041095 49.4093592,3.01741095 C49.3283592,2.76441095 49.4423592,2.49841095 49.7083592,2.34541095 C49.8493592,2.26341095 50.0043592,2.20641095 50.1443592,2.12441095 C50.2353592,2.07241095 50.3113592,1.99541095 50.4463592,1.88741095 C50.1943592,1.84441095 50.0203592,1.79941095 49.8443592,1.78741095 C48.8943592,1.72141095 47.9683592,1.52141095 47.0503592,1.28041095 C46.8363592,1.22441095 46.6133592,1.18241095 46.3923592,1.1720108 C46.2763592,1.16741095 46.1183592,1.20941095 46.0443592,1.29041095 C45.6923592,1.67241095 45.2523592,1.77841095 44.7573592,1.79141095 C44.2843592,1.80441095 43.8073592,1.82541095 43.3393592,1.89441095 C42.9203592,1.95641095 42.5103592,2.08841095 42.1283592,2.18141095 C41.9783592,2.88941095 41.7453592,3.05941095 41.0903592,3.00941095 C40.9193592,2.99641095 40.7443592,3.00841095 40.5293592,3.00841095 C40.6273592,3.42841095 40.5253592,3.74941095 40.1493592,3.87541095 C39.9513592,3.94241095 39.7023592,3.93241095 39.4953592,3.87941095 C39.0033592,3.75441095 38.5673592,3.90641095 38.0423592,4.06141095 C38.1483592,4.19641095 38.1973592,4.31241095 38.2823592,4.35341095 C38.4123592,4.41641095 38.5653592,4.43441095 38.7123592,4.45741095 C39.0043592,4.50341095 39.2473592,4.65841095 39.2833592,4.94041095 C39.3303592,5.31441095 39.3223592,5.70641095 39.2623592,6.07841095 C39.2273592,6.29741095 39.0423592,6.49141095 38.9323592,6.70041095 C38.7463592,7.05441095 38.4373592,7.20541095 38.0583592,7.21741095 C37.5823592,7.23241095 37.1483592,7.07041095 36.7713592,6.79241095 C36.3923592,6.51141095 36.4943592,5.96241095 36.9373592,5.79941095 C37.0533592,5.75641095 37.1713592,5.71841095 37.3143592,5.67041095 C37.1533592,5.47941095 37.0063592,5.34841095 36.9153592,5.18741095 C36.8143592,5.01041095 36.7583592,4.80641095 36.6913592,4.61141095 C36.6343592,4.44941095 36.5423592,4.33541095 36.3793592,4.26041095 C36.1283592,4.14441095 35.9363592,3.96141095 35.8713592,3.67741095 C35.8113592,3.41741095 35.6513592,3.35741095 35.4703592,3.40941095 C35.4093592,3.68441095 35.3563592,3.91841095 35.2943592,4.20141095 C35.4213592,4.26641095 35.5773592,4.34341095 35.7303592,4.42541095 C35.8863592,4.50941095 36.0493592,4.58441095 36.1933592,4.68741095 C36.5303592,4.92941095 36.6433592,5.27841095 36.5013592,5.57541095 C36.3583592,5.87141095 35.9943592,6.03341095 35.6233592,5.94441095 C35.4093592,5.89241095 35.2013592,5.80841095 34.9943592,5.72941095 C34.3593592,5.48541095 33.7203592,5.25641095 33.0263592,5.14041095 C32.8223592,5.70641095 32.3903592,5.76741095 31.8943592,5.68741095 C31.7773592,5.66841095 31.6603592,5.63841095 31.5433592,5.63741095 C31.3373592,5.63541095 31.1193592,5.61241095 30.9273592,5.66941095 C30.4173592,5.82041095 29.9153592,5.86241095 29.3983592,5.70741095 C29.3063592,5.68041095 29.1893592,5.69341095 29.0953592,5.72341095 C28.7863592,5.82541095 28.4773592,5.93341095 28.1783592,6.06341095 C28.0693592,6.11041095 27.9583592,6.20941095 27.9013592,6.31441095 C27.6503592,6.77241095 27.4943592,6.87341095 26.9813592,6.77641095 C26.5933592,6.70141095 26.2313592,6.66141095 25.8903592,6.93041095 C25.7933592,7.00741095 25.6423592,7.01841095 25.5143592,7.05741095 C25.2373592,7.14141095 25.0003592,7.25441095 24.9013592,7.57141095 C24.8243592,7.81941095 24.6203592,7.94141095 24.3493592,7.93441095 C24.2173592,7.93041095 24.0853592,7.93341095 24.0263592,7.93341095 C23.8023592,8.09941095 23.6463592,8.29341095 23.4543592,8.34141095 C22.9813592,8.45941095 22.5123592,8.32941095 22.0563592,8.18941095 C21.9793592,8.16641095 21.9073592,8.08941095 21.8563592,8.02041095 C21.7003592,7.80441095 21.5113592,7.59641095 21.4183592,7.35441095 C21.3373592,7.14241095 21.1913592,7.06341095 21.0233592,6.97041095 C20.8313592,6.86441095 20.6263592,6.76841095 20.4643592,6.62341095 C20.2243592,6.40641095 20.2323592,6.11141095 20.4493592,5.87741095 C20.6133592,5.70041095 20.8143592,5.63041095 21.0533592,5.69641095 C21.4393592,5.80241095 21.8253592,5.90641095 22.2093592,6.01841095 C22.6053592,6.13441095 23.0053592,6.16641095 23.4193592,6.10541095 C22.9703592,5.84541095 22.4993592,5.66541095 21.9893592,5.57941095 C21.2153592,5.45041095 20.4453592,5.30541095 19.6713592,5.18041095 C19.4493592,5.14441095 19.2693592,5.04941095 19.1553592,4.86941095 C19.0143592,4.64841095 18.8093592,4.60641095 18.5803592,4.60641095 C18.0643592,4.60541095 17.5483592,4.60341095 17.0333592,4.61441095 C16.9393592,4.61641095 16.8303592,4.65741095 16.7543592,4.71641095 C16.2283592,5.12441095 15.6143592,5.12441095 14.9543592,5.12941095 C14.6413592,5.41941095 14.3423592,5.79941095 13.8573592,5.93441095 C13.7753592,5.95641095 13.6943592,6.07541095 13.6643592,6.16641095 C13.5463592,6.52041095 13.2813592,6.71241095 12.9673592,6.87341095 C12.8413592,6.93841095 12.6633592,7.05041095 12.6493592,7.15841095 C12.6033592,7.52741095 12.4363592,7.76141095 12.0883592,7.88241095 C12.0433592,7.89741095 12.0293592,7.98741095 11.9843592,8.02041095 C11.6713592,8.26141095 11.3533592,8.49641095 11.0373592,8.73441095 C10.3763592,8.74741095 9.87935916,9.14041095 9.35335916,9.44741095 C9.29935916,9.90941095 9.35735916,10.208411 9.61735916,10.792411 C9.74035916,10.760411 9.90835916,10.766411 9.99835916,10.685411 C10.2883592,10.424411 10.6083592,10.236411 10.9693592,10.089411 C11.4203592,9.90741095 11.7083592,9.95541095 11.8713592,10.403411 C12.1153592,11.076411 12.6833592,11.524411 12.9553592,12.156411 C13.1233592,12.134411 13.2543592,12.116411 13.3973592,12.096411 C13.4413592,11.904411 13.5023592,11.719411 13.5253592,11.530411 C13.5823592,11.062411 13.7343592,10.663411 14.2323592,10.493411 C13.7763592,9.98341095 13.7383592,9.87041095 13.7803592,9.19041095 C13.7883592,9.05741095 13.8023592,8.92441095 13.8083592,8.79141095 C13.8193592,8.52041095 13.9253592,8.31741095 14.1723592,8.17841095 C14.5343592,7.97641095 14.8873592,7.75741095 15.2413592,7.53841095 C15.3243592,7.48741095 15.4353592,7.41941095 15.4573592,7.33841095 C15.5503592,6.97841095 15.8493592,6.79041095 16.0843592,6.55041095 C16.1493592,6.48241095 16.2603592,6.42841095 16.3543592,6.42241095 C16.7393592,6.39741095 17.1263592,6.37041095 17.5093592,6.39341095 C17.6853592,6.40441095 17.9043592,6.48541095 18.0153592,6.61241095 C18.3973592,7.04341095 18.2993592,7.64141095 17.8293592,7.99341095 C17.4393592,8.28341095 17.0503592,8.57441095 16.6773592,8.85341095 C16.7723592,9.06641095 16.8683592,9.23441095 16.9223592,9.41541095 C16.9793592,9.60641095 17.0973592,9.68741095 17.2803592,9.67441095 C17.5303592,9.65541095 17.7823592,9.63341095 18.0283592,9.58841095 C18.3933592,9.52141095 18.7693592,9.47441095 19.1123592,9.34341095 C19.7133592,9.11341095 20.0333592,9.42641095 20.4083592,9.92141095 C20.5863592,10.154411 20.5203592,10.481411 20.3093592,10.686411 C20.2253592,10.768411 20.1203592,10.834411 20.0513592,10.927411 C19.8503592,11.202411 19.5933592,11.266411 19.2683592,11.204411 C18.9843592,11.150411 18.6933592,11.139411 18.3853592,11.107411 C18.3623592,11.304411 18.3453592,11.449411 18.3263592,11.594411 C18.3063592,11.740411 18.2883592,11.887411 18.2613592,12.032411 C18.1923592,12.410411 18.0083592,12.574411 17.6203592,12.560411 C17.4213592,12.553411 17.2233592,12.488411 17.0093592,12.446411 C17.0003592,12.544411 16.9823592,12.660411 16.9783592,12.777411 C16.9643592,13.235411 16.7733592,13.598411 16.4093592,13.873411 C16.3853592,13.891411 16.3633592,13.913411 16.3463592,13.936411 C16.0983592,14.278411 15.7423592,14.383411 15.3603592,14.298411 C14.9743592,14.213411 14.6293592,14.304411 14.2723592,14.404411 C14.0013592,14.479411 13.7223592,14.532411 13.4563592,14.619411 C12.9843592,14.772411 12.5763592,14.762411 12.3543592,14.267411 C12.0783592,14.328411 11.8313592,14.435411 11.5913592,14.421411 C11.3383592,14.405411 11.0933592,14.274411 10.8303592,14.189411 C10.6693592,14.556411 10.4153592,14.732411 9.99435916,14.722411 C9.74035916,14.717411 9.47335916,14.832411 9.23035916,14.935411 C9.06035916,15.007411 8.83835916,15.120411 8.78435916,15.269411 C8.63235916,15.677411 8.29535916,15.844411 7.96635916,16.041411 C7.65235916,16.230411 7.30235916,16.368411 7.13735916,16.747411 C7.09335916,16.848411 6.92935916,16.901411 6.81435916,16.965411 C6.72335916,17.013411 6.59135916,17.018411 6.53435916,17.088411 C6.29635916,17.373411 5.98135916,17.404411 5.66435916,17.382411 C5.51335916,17.542411 5.37835916,17.687411 5.24535916,17.829411 C5.96235916,18.848411 5.99335916,19.787411 5.51235916,20.860411 C5.36935916,21.179411 5.15535916,21.312411 4.82135916,21.297411 C4.31735916,21.273411 3.81335916,21.242411 3.30935916,21.231411 C2.79535916,21.219411 2.27935916,21.228411 1.75335916,21.228411 C1.70035916,21.504411 1.59835916,21.790411 1.60135916,22.075411 C1.60535916,22.490411 1.52735916,22.864411 1.32935916,23.225411 C1.26835916,23.335411 1.22635916,23.485411 1.25035916,23.601411 C1.28835916,23.795411 1.38435916,23.977411 1.45735916,24.163411 C2.01735916,24.160411 2.02035916,24.156411 2.48935916,24.575411 C2.62335916,24.695411 2.73535916,24.685411 2.89035916,24.616411 C3.06135916,24.541411 3.25035916,24.494411 3.43535916,24.470411 C3.62635916,24.446411 3.82135916,24.471411 4.01435916,24.463411 C4.44435916,24.445411 4.87335916,23.956411 4.80035916,23.531411 C4.76035916,23.299411 4.83335916,23.125411 4.96035916,22.956411 C5.11135916,22.755411 5.27735916,22.565411 5.42335916,22.360411 C5.68535916,21.993411 5.96435916,21.672411 6.44035916,21.553411 C6.67435916,21.495411 6.84735916,21.335411 6.84835916,21.007411 C6.85035916,20.454411 7.25835916,20.076411 7.82735916,20.057411 C8.15035916,20.046411 8.47635916,20.095411 8.79735916,20.138411 C8.99835916,20.165411 9.17535916,20.174411 9.33035916,20.014411 C9.42135916,19.920411 9.53435916,19.845411 9.62935916,19.754411 C10.1373592,19.263411 10.7303592,19.257411 11.2503592,19.741411 C11.3723592,19.855411 11.4873592,19.975411 11.6763592,20.163411 C11.6763592,19.897411 11.6823592,19.739411 11.6753592,19.581411 C11.6623592,19.239411 11.7753592,19.048411 12.1003592,18.942411 C12.3683592,18.855411 12.6413592,18.768411 12.9193592,18.735411 C13.0803592,18.716411 13.2933592,18.753411 13.4153592,18.849411 C13.7843592,19.142411 14.1153592,19.483411 14.4723592,19.791411 C14.6953592,19.983411 14.9333592,20.157411 15.1743592,20.325411 C15.4183592,20.493411 15.6873592,20.624411 15.9213592,20.804411 C16.4543592,21.214411 16.6083592,21.823411 16.7103592,22.442411 C16.7413592,22.636411 16.8163592,22.773411 16.9523592,22.894411 C17.0963592,23.022411 17.2353592,23.156411 17.3843592,23.278411 C17.4413592,23.324411 17.5213592,23.343411 17.6833592,23.416411 C17.5943592,23.237411 17.5533592,23.150411 17.5093592,23.065411 C17.3793592,22.813411 17.3843592,22.550411 17.5923592,22.368411 C18.0573592,21.962411 18.5323592,21.549411 19.2383592,21.765411 C19.4553592,21.831411 19.6853592,21.849411 19.9523592,21.896411 C19.9233592,21.769411 19.9213592,21.708411 19.8973592,21.658411 C19.7503592,21.354411 19.7803592,21.071411 19.9323592,20.769411 C20.1193592,20.401411 20.2593592,20.010411 20.4253592,19.632411 C20.4663592,19.539411 20.5303592,19.454411 20.5913592,19.371411 C20.7403592,19.172411 20.9483592,18.998411 21.0373592,18.776411 C21.3213592,18.064411 22.1453592,17.979411 22.7013592,18.170411 C22.9873592,18.268411 23.2773592,18.358411 23.5663592,18.452411 C23.7773592,18.180411 24.0393592,18.094411 24.3263592,18.049411 C24.6623592,17.995411 24.9883592,17.920411 25.2923592,17.738411 C25.4473592,17.646411 25.6593592,17.619411 25.8463592,17.613411 C26.1823592,17.600411 26.4333592,17.844411 26.4653592,18.178411 C26.4913592,18.442411 26.4413592,18.682411 26.2153592,18.855411 C26.0313592,18.996411 25.9873592,19.184411 26.0113592,19.411411 C26.1203592,19.477411 26.2233592,19.533411 26.3203592,19.599411 C26.8573592,19.969411 27.4073592,20.322411 27.9253592,20.717411 C28.4043592,21.082411 28.4693592,21.589411 28.1603592,22.097411 C28.0083592,22.345411 27.8003592,22.527411 27.5383592,22.651411 C26.9253592,22.940411 26.2983592,22.860411 25.6753592,22.712411 C25.2193592,22.604411 24.8103592,22.363411 24.3403592,22.268411 C23.7623592,22.151411 23.2633592,22.335411 22.7713592,22.553411 C22.5633592,22.647411 22.3753592,22.721411 22.1453592,22.728411 C21.9943592,22.734411 21.8103592,22.763411 21.7003592,22.854411 C21.3943592,23.104411 21.0773592,23.297411 20.6283592,23.276411 C20.6703592,23.485411 20.6863592,23.661411 20.7443592,23.823411 C20.8073592,24.001411 20.9083592,24.165411 20.9813592,24.313411 C21.1793592,24.384411 21.3703592,24.428411 21.5373592,24.516411 C21.7283592,24.617411 21.8813592,24.633411 22.0643592,24.489411 C22.2853592,24.314411 22.5313592,24.337411 22.7693592,24.477411 C22.9483592,24.582411 23.1213592,24.703411 23.3123592,24.779411 C23.4393592,24.829411 23.6313592,24.873411 23.7263592,24.813411 C24.0633592,24.598411 24.4393592,24.553411 24.8093592,24.454411 C25.3323592,24.314411 25.7223592,24.578411 25.7413592,25.142411 C25.7723592,26.069411 25.8793592,27.013411 25.3393592,27.859411 C25.3163592,27.896411 25.3123592,27.944411 25.2923592,27.983411 C25.0653592,28.414411 25.1193592,28.824411 25.3403592,29.246411 C25.4473592,29.449411 25.5403592,29.693411 25.5343592,29.916411 C25.5213592,30.358411 25.6593592,30.722411 25.9173592,31.067411 C26.0863592,31.291411 26.2193592,31.541411 26.3773592,31.775411 C26.6663592,32.204411 26.9253592,32.655411 27.3503592,32.978411 C27.6183592,33.182411 27.7663592,33.469411 27.8633592,33.792411 C27.9903592,34.219411 28.1343592,34.640411 28.2843592,35.060411 C28.3333592,35.196411 28.4013592,35.332411 28.4913592,35.444411 C28.9183592,35.973411 29.3743592,36.481411 29.7813592,37.024411 C30.1033592,37.453411 30.3463592,37.938411 30.3773592,38.488411 C30.4093592,39.077411 30.6523592,39.594411 30.8593592,40.161411 C31.1613592,39.879411 31.4653592,39.694411 31.8743592,39.723411 C31.9823592,39.731411 32.0983592,39.609411 32.2143592,39.552411 C32.3963592,39.463411 32.5743592,39.329411 32.7653592,39.305411 C32.9613592,39.281411 33.0993592,39.218411 33.2213592,39.079411 C33.3793592,38.900411 33.5793592,38.826411 33.8183592,38.844411 C33.9363592,38.853411 34.0573592,38.854411 34.1743592,38.841411 C34.5293592,38.801411 34.7113592,38.642411 34.7563592,38.286411 C34.8023592,37.934411 35.0183592,37.772411 35.3303592,37.695411 C35.5603592,37.638411 35.7963592,37.605411 36.0233592,37.536411 C36.1443592,37.500411 36.2933592,37.438411 36.3533592,37.341411 C36.4903592,37.120411 36.6893592,37.019411 36.9123592,36.928411 C37.0043592,36.890411 37.0903592,36.828411 37.1653592,36.760411 C37.3343592,36.604411 37.4943592,36.437411 37.6973592,36.236411 C37.6883592,35.800411 37.7743592,35.358411 38.3193592,35.141411 C38.4153592,35.103411 38.4823592,34.898411 38.4933592,34.764411 C38.5093592,34.563411 38.1043592,34.134411 37.8953592,34.131411 C37.5653592,34.126411 37.3813592,33.942411 37.2333592,33.684411 C37.1463592,33.530411 37.0493592,33.382411 36.9483592,33.215411 C36.8103592,33.316411 36.6943592,33.405411 36.5753592,33.488411 C36.0463592,33.855411 35.4553592,33.912411 34.8353592,33.859411 C34.4063592,33.822411 34.0773592,33.627411 33.8183592,33.294411 C33.7923592,33.259411 33.7573592,33.222411 33.7193592,33.207411 C33.2253592,33.017411 33.1193592,32.560411 33.0573592,32.132411 C33.0203592,31.869411 32.9193592,31.736411 32.7193592,31.616411 C32.5153592,31.495411 32.3203592,31.365411 32.2203592,31.128411 C32.0843592,30.800411 31.9223592,30.483411 31.7853592,30.155411 C31.5523592,29.599411 31.9753592,28.828411 32.5513592,28.667411 C33.2823592,28.462411 34.6213592,29.427411 34.6323592,30.056411 C34.6413592,30.513411 34.8873592,30.725411 35.2933592,30.820411 C35.4653592,30.860411 35.6373592,30.905411 35.8123592,30.941411 C36.1773592,31.014411 36.5233592,31.040411 36.8903592,30.859411 C37.2883592,30.662411 37.7983592,30.802411 37.9753592,31.197411 C38.1893592,31.675411 38.5373592,31.791411 38.9863592,31.812411 C39.0593592,31.815411 39.1303592,31.845411 39.2043592,31.857411 C39.8163592,31.958411 40.4213592,32.095411 41.0553592,31.996411 C41.5953592,31.912411 42.1483592,31.909411 42.6953592,31.862411 C43.0613592,31.831411 43.3693592,31.895411 43.5603592,32.259411 C43.6633592,32.454411 43.7963592,32.637411 43.9373592,32.808411 C44.2633592,33.207411 44.6613592,33.507411 45.1853592,33.588411 C45.5533592,33.646411 45.8203592,33.798411 45.8383592,34.213411 C46.0183592,34.109411 46.1643592,34.002411 46.3263592,33.935411 C46.7013592,33.779411 47.0423592,33.927411 47.1833592,34.310411 C47.2333592,34.445411 47.2323592,34.599411 47.2443592,34.744411 C47.2823592,35.215411 47.2443592,35.706411 47.3663592,36.153411 C47.6353592,37.134411 47.8933592,38.123411 48.3473592,39.050411 C48.7833592,39.937411 49.1583592,40.855411 49.5503592,41.763411 C49.7053592,42.121411 49.8333592,42.490411 49.9763592,42.863411 C50.1403592,42.736411 50.2833592,42.652411 50.3913592,42.536411 C50.5903592,42.321411 50.7913592,42.116411 50.6753592,41.757411 C50.6193592,41.579411 50.6583592,41.341411 50.7283592,41.157411 C50.9233592,40.646411 51.0083592,40.135411 50.8703592,39.598411 C50.8513592,39.527411 50.8283592,39.456411 50.8193592,39.383411 C50.7653592,38.934411 50.8153592,38.508411 51.2093592,38.221411 C51.5773592,37.953411 51.9683592,37.719411 52.2113592,37.312411 C52.2523592,37.244411 52.3603592,37.219411 52.4293592,37.165411 C52.5203592,37.092411 52.6203592,37.021411 52.6873592,36.928411 C53.0983592,36.369411 53.4633592,35.768411 54.1293592,35.495411 C54.0853592,35.008411 54.0743592,34.827411 54.6743592,34.520411 C54.7933592,34.460411 54.9213592,34.420411 55.0483592,34.379411 C55.7243592,34.163411 56.4013592,33.949411 57.0783592,33.736411 C57.3403592,33.654411 57.5763592,33.709411 57.7333592,33.966411 C58.3423592,34.962411 59.1523592,35.826411 59.6543592,36.894411 C59.8173592,37.240411 60.0543592,37.554411 59.9883592,37.969411 C59.9873592,37.981411 60.0273592,38.000411 60.0993592,38.054411 C60.1313592,37.898411 60.1493592,37.761411 60.1883592,37.631411 C60.3193592,37.186411 60.8843592,37.035411 61.1743592,37.391411 C61.4733592,37.758411 61.7273592,38.162411 61.9833592,38.561411 C62.0423592,38.652411 62.0483592,38.790411 62.0433592,38.905411 C62.0243592,39.311411 62.2343592,39.631411 62.3903592,39.987411 C62.9753592,39.501411 63.4053592,39.548411 63.8473592,40.105411 C63.9053592,40.178411 64.0063592,40.219411 64.0893592,40.270411 C64.2253592,40.352411 64.3963592,40.402411 64.4933592,40.516411 C64.7983592,40.875411 65.0763592,41.258411 65.3903592,41.665411 C65.8103592,41.454411 66.0973592,41.684411 66.3223592,42.168411 C66.5313592,41.624411 66.8503592,41.390411 67.3793592,41.519411 C67.5123592,41.552411 67.5813592,41.416411 67.5733592,41.280411 C67.5553592,40.956411 67.5763592,40.622411 67.5043592,40.309411 C67.2893592,39.379411 66.7083592,38.675411 66.0303592,38.032411 C65.7643592,37.780411 65.5323592,37.488411 65.3153592,37.193411 C65.0023592,36.765411 65.0443592,36.310411 65.2673592,35.852411 C65.5013592,35.374411 65.8743592,35.023411 66.2583592,34.669411 C66.7283592,34.238411 67.2333592,34.206411 67.7813592,34.432411 C67.9633592,34.508411 68.1213592,34.503411 68.2943592,34.442411 C68.4473592,34.387411 68.6023592,34.335411 68.7583592,34.291411 C69.0153592,34.219411 69.2493592,34.126411 69.4363592,33.912411 C69.5973592,33.728411 69.8353592,33.674411 70.0863592,33.675411 C70.2293592,33.675411 70.3853592,33.663411 70.5163592,33.610411 C71.1533592,33.350411 71.6233592,32.879411 72.0413592,32.354411 C72.1253592,32.248411 72.1453592,32.088411 72.1813592,31.948411 C72.2393592,31.721411 72.2683592,31.486411 72.3403592,31.264411 C72.4223592,31.011411 72.5533592,30.774411 72.6333592,30.520411 C72.6923592,30.332411 72.7023592,30.128411 72.7283592,29.961411 C72.2133592,29.611411 72.0733592,29.321411 72.2763592,28.932411 C72.4013592,28.694411 72.3423592,28.550411 72.1973592,28.381411 C71.8283592,27.955411 71.4693592,27.521411 71.0913592,27.104411 C70.9873592,26.989411 70.8383592,26.906411 70.6963592,26.836411 C70.3553592,26.668411 70.1393592,26.359411 70.1683592,25.994411 C70.1833592,25.809411 70.2533592,25.629411 70.2993592,25.439411 C70.1903592,25.384411 70.0593592,25.355411 69.9843592,25.275411 C69.6073592,24.878411 69.1653592,24.585411 68.6823592,24.328411 C68.3943592,24.175411 68.2673592,23.858411 68.3013592,23.529411 C68.3353592,23.206411 68.5863592,23.065411 68.8763592,22.987411 C68.9023592,22.980411 68.9243592,22.956411 68.9583592,22.935411 C69.0283592,22.679411 69.1443592,22.449411 69.4063592,22.317411 C69.4783592,22.280411 69.5343592,22.196411 69.5793592,22.122411 C69.8033592,21.750411 70.0973592,21.755411 70.4223592,21.862411 C70.7943592,21.983411 71.0423592,22.254411 71.2663592,22.541411 C72.0903592,22.294411 72.1413592,22.295411 72.8833592,22.681411 C73.1133592,22.800411 73.3273592,22.950411 73.5183592,23.067411 C73.6543592,22.811411 73.7853592,22.570411 73.9083592,22.325411 C73.9453592,22.249411 73.9903592,22.157411 73.9783592,22.080411 C73.9243592,21.726411 74.0483592,21.408411 74.1423592,21.081411 C74.2443592,20.728411 74.5073592,20.507411 74.7893592,20.318411 C75.0273592,20.158411 75.2733592,20.305411 75.5073592,20.394411 C75.5633592,20.415411 75.6303592,20.453411 75.6773592,20.437411 C75.7763592,20.403411 75.9263592,20.358411 75.9493592,20.285411 C76.1153592,19.750411 76.2663592,19.210411 76.3993592,18.666411 C76.4583592,18.425411 76.4293592,18.160411 76.4983592,17.923411 C76.6763592,17.304411 76.5333592,16.790411 76.0733592,16.349411 C75.8023592,16.090411 75.5833592,15.799411 75.4933592,15.421411 C75.4673592,15.312411 75.3873592,15.213411 75.3243592,15.114411 C75.0843592,14.738411 74.6773592,14.622411 74.2993592,14.452411 C74.0323592,14.783411 73.6883592,14.695411 73.3453592,14.679411 C72.8453592,14.657411 72.4533592,14.488411 72.2613592,13.990411 C72.0573592,13.990411 71.8793592,14.003411 71.7023592,13.988411 C71.3043592,13.955411 71.0743592,13.597411 71.2133592,13.227411 C71.2583592,13.104411 71.3283592,12.985411 71.4063592,12.879411 C71.6483592,12.550411 71.7883592,12.181411 71.8803592,11.788411 C71.9763592,11.384411 72.0953592,10.987411 72.1933592,10.584411 C72.2553592,10.325411 72.4163592,10.149411 72.6623592,10.098411 C73.7233592,9.88241095 74.7923592,9.71541095 75.8823592,9.78041095 C76.4183592,9.81241095 76.9253592,9.94741095 77.4363592,10.225411 C77.4733592,9.83641095 77.5063592,9.50041095 77.5363592,9.16541095 C77.5623592,8.86841095 77.7463592,8.57241095 77.9733592,8.57141095 C78.5753592,8.56841095 79.1823592,8.48241095 79.7783592,8.64241095 C79.9843592,8.21741095 80.3063592,8.01741095 80.7553592,8.04641095 C81.1723592,8.07241095 81.3753592,8.33141095 81.4933592,8.70741095 C81.5393592,8.85341095 81.6483592,8.98841095 81.7563592,9.10341095 C81.9343592,9.29141095 82.1343592,9.45841095 82.3623592,9.66941095 C82.3613592,9.66941095 82.4283592,9.69241095 82.4783592,9.67241095 C82.8943592,9.49941095 83.3813592,9.69441095 83.7873592,9.39541095 C83.9143592,9.30141095 84.1593592,9.35241095 84.3483592,9.36341095 C84.4903592,9.37041095 84.6293592,9.42041095 84.7883592,9.45641095 C84.9233592,8.97741095 85.2803592,8.71741095 85.7663592,8.47041095 L85.7663592,8.47041095 Z M10.4943592,20.553411 C10.1793592,21.010411 9.70835916,21.121411 9.32535916,21.357411 C9.21435916,21.425411 9.01035916,21.353411 8.85135916,21.328411 C8.58035916,21.285411 8.31135916,21.228411 8.05835916,21.180411 C8.01635916,21.260411 7.98935916,21.287411 7.99335916,21.310411 C8.06735916,21.832411 7.80635916,22.147411 7.36035916,22.359411 C7.12035916,22.472411 6.86235916,22.572411 6.66235916,22.738411 C6.42735916,22.931411 6.24635916,23.189411 6.03835916,23.424411 C6.20935916,23.806411 6.05435916,24.045411 5.83535916,24.355411 C5.58335916,24.709411 5.30035916,25.014411 4.99635916,25.311411 C4.76035916,25.539411 4.48435916,25.661411 4.15035916,25.622411 C3.66035916,25.565411 3.21635916,25.712411 2.78535916,25.923411 C2.47435916,26.074411 2.26035916,26.034411 2.02235916,25.796411 C1.98035916,25.755411 1.94235916,25.708411 1.90935916,25.659411 C1.72635916,25.398411 1.49635916,25.250411 1.15835916,25.301411 C1.01235916,25.323411 0.859359158,25.316411 0.713359158,25.299411 C0.360359158,25.259411 0.118359158,24.964411 0.181359158,24.613411 C0.231359158,24.341411 0.246359158,24.120411 0.0493591577,23.872411 C-0.0446408423,23.752411 0.0173591577,23.480411 0.0573591577,23.287411 C0.0953591577,23.101411 0.182359158,22.921411 0.273359158,22.753411 C0.568359158,22.211411 0.559359158,21.654411 0.394359158,21.080411 C0.313359158,20.801411 0.392359158,20.580411 0.646359158,20.443411 C0.880359158,20.317411 1.10935916,20.202411 1.29435916,19.994411 C1.46835916,19.796411 1.71135916,19.812411 1.95235916,19.915411 C2.09635916,19.977411 2.25435916,20.034411 2.40935916,20.044411 C3.03035916,20.086411 3.65235916,20.109411 4.27435916,20.136411 C4.36135916,20.140411 4.44935916,20.129411 4.54735916,20.124411 C4.72935916,19.730411 4.72035916,19.348411 4.57035916,18.958411 C4.43035916,18.593411 4.19135916,18.363411 3.78535916,18.340411 C3.69635916,18.335411 3.60835916,18.322411 3.51935916,18.317411 C3.21335916,18.299411 3.02835916,18.132411 2.93835916,17.850411 C2.90235916,17.737411 2.87435916,17.621411 2.85335916,17.505411 C2.78535916,17.130411 2.94535916,16.869411 3.31235916,16.763411 C3.45535916,16.722411 3.60035916,16.691411 3.74735916,16.667411 C4.17735916,16.597411 4.60135916,16.534411 4.94335916,16.209411 C5.11835916,16.042411 5.34235916,16.023411 5.60635916,16.089411 C5.87735916,16.156411 6.14835916,16.046411 6.35235916,15.815411 C6.49635916,15.653411 6.65835916,15.505411 6.82935916,15.372411 C6.95635916,15.273411 7.10635916,15.200411 7.25335916,15.129411 C7.54435916,14.989411 7.75535916,14.795411 7.85435916,14.468411 C7.94035916,14.182411 8.14335916,14.037411 8.46735916,13.974411 C8.88035916,13.894411 9.27135916,13.701411 9.68435916,13.552411 C9.58935916,13.280411 9.43135916,13.024411 9.42935916,12.765411 C9.42835916,12.516411 9.58835916,12.266411 9.67435916,12.020411 C9.38135916,11.894411 9.08435916,11.781411 8.79935916,11.642411 C8.51235916,11.502411 8.34835916,11.278411 8.36135916,10.934411 C8.36735916,10.776411 8.32735916,10.610411 8.27735916,10.457411 C8.13035916,10.008411 8.15335916,9.54941095 8.17335916,9.09041095 C8.18335916,8.88741095 8.28135916,8.73841095 8.47235916,8.63241095 C8.91235916,8.38741095 9.33335916,8.10841095 9.77835916,7.87141095 C9.96835916,7.77041095 10.1953592,7.70441095 10.4113592,7.68941095 C10.6633592,7.67241095 10.8303592,7.53441095 10.9783592,7.37841095 C11.1573592,7.19141095 11.3453592,6.98741095 11.4443592,6.75441095 C11.5533592,6.49541095 11.7383592,6.34041095 11.9583592,6.22841095 C12.4143592,5.99641095 12.6353592,5.53941095 12.9963592,5.21941095 C13.1693592,5.06541095 13.3793592,4.95441095 13.5653592,4.81341095 C13.7773592,4.65341095 13.9803592,4.48041095 14.1873592,4.31441095 C14.3383592,4.19441095 14.4893592,4.07641095 14.6393592,3.95741095 C14.8353592,3.80341095 15.0553592,3.79041095 15.2693592,3.88241095 C15.6003592,4.02341095 15.8793592,3.95441095 16.1083592,3.70141095 C16.3083592,3.48141095 16.5503592,3.43541095 16.8313592,3.43841095 C17.4213592,3.44641095 18.0173592,3.38641095 18.6023592,3.44441095 C19.1133592,3.49541095 19.6113592,3.66541095 20.1133592,3.79241095 C20.1773592,3.80841095 20.2563592,3.86941095 20.2813592,3.92941095 C20.3973592,4.21541095 20.6523592,4.23741095 20.8993592,4.27941095 C21.5543592,4.39341095 22.2153592,4.48441095 22.8643592,4.62841095 C23.2083592,4.70341095 23.5413592,4.85041095 23.8613592,5.00041095 C24.1793592,5.14841095 24.4773592,5.34041095 24.8193592,5.53241095 C24.8243592,5.46641095 24.8253592,5.38841095 24.8363592,5.31241095 C24.8793592,5.00341095 25.0553592,4.79141095 25.3643592,4.73541095 C25.8953592,4.63941095 26.4103592,4.71541095 26.8423592,5.04741095 C27.0283592,5.18941095 27.1703592,5.19741095 27.3663592,5.12541095 C27.9093592,4.92541095 28.4563592,4.73841095 29.0013592,4.54541095 C29.2923592,4.44141095 29.5583592,4.42041095 29.8493592,4.59641095 C29.9883592,4.68041095 30.2333592,4.67741095 30.3953592,4.61841095 C30.7963592,4.47441095 31.1983592,4.42541095 31.6323592,4.49441095 C32.2153592,3.59441095 33.0393592,3.99441095 33.8473592,4.11341095 C33.8333592,3.77541095 33.9203592,3.49041095 34.1823592,3.27841095 C34.2443592,3.22841095 34.2743592,3.12841095 34.2963592,3.04641095 C34.4473592,2.49841095 34.9683592,2.22141095 35.5883592,2.26341095 C36.0683592,2.29641095 36.5253592,2.40241095 36.8823592,2.74441095 C37.3283592,2.42141095 37.4633592,2.39541095 37.8883592,2.69441095 C38.1423592,2.87241095 38.3623592,2.78141095 38.5983592,2.73341095 C38.6223592,2.70541095 38.6523592,2.68641095 38.6593592,2.66141095 C38.8133592,2.04341095 38.9463592,1.93241095 39.5983592,1.87441095 C39.7023592,1.86441095 39.8053592,1.83841095 39.9083592,1.84141095 C40.3823592,1.85441095 40.7853592,1.79841095 41.1983592,1.44641095 C41.8203592,0.91741095 42.6493592,0.80241095 43.4533592,0.72141095 C43.8953592,0.67741095 44.3403592,0.66741095 44.7833592,0.62441095 C44.9043592,0.61341095 45.0653592,0.57541095 45.1293592,0.49041095 C45.4953592,0.00341095023 46.0053592,-0.0515890498 46.5323592,0.0324109502 C47.2043592,0.14041095 47.8643592,0.32741095 48.5353592,0.44641095 C49.1613592,0.55841095 49.7953592,0.62541095 50.4243592,0.71741095 C50.5993592,0.74341095 50.7753592,0.77941095 50.9453592,0.82841095 C51.4653592,0.97841095 51.8473592,1.26941095 51.9053592,1.86241095 C53.1223592,2.00241095 54.3123592,2.14041095 55.5033592,2.26941095 C55.5943592,2.27941095 55.7123592,2.24041095 55.7873592,2.18441095 C56.1833592,1.89141095 56.5743592,1.80941095 57.0673592,2.00041095 C57.3813592,2.12241095 57.7683592,2.10141095 58.1193592,2.08141095 C58.8753592,2.03841095 59.5253592,2.19841095 60.0013592,2.84141095 C60.0913592,2.96441095 60.2493592,3.03841095 60.3933592,3.14841095 C60.7213592,2.86241095 61.0843592,2.91941095 61.4573592,2.95441095 C61.9693592,3.00441095 62.4883592,3.00941095 63.0073592,3.03441095 C63.1093592,2.92141095 63.2043592,2.81041095 63.3023592,2.70441095 C63.5193592,2.47441095 63.7943592,2.35441095 64.1013592,2.37941095 C65.1643592,2.46641095 66.2293592,2.53641095 67.2843592,2.68341095 C67.7893592,2.75341095 68.2873592,2.94641095 68.7623592,3.14441095 C69.2833592,3.36141095 69.7993592,3.43741095 70.3613592,3.40741095 C71.2043592,3.36341095 72.0543592,3.33441095 72.8833592,3.55541095 C73.0943592,3.61141095 73.3243592,3.68741095 73.4843592,3.82441095 C73.6753592,3.98841095 73.8683592,4.02341095 74.0953592,4.01541095 C75.1223592,3.98041095 76.1403592,4.08341095 77.1553592,4.21341095 C77.3483592,4.23841095 77.4693592,4.22241095 77.6193592,4.07041095 C77.7523592,3.93441095 77.9713592,3.85441095 78.1673592,3.81541095 C78.7843592,3.69241095 79.4083592,3.72641095 80.0243592,3.83741095 C81.3663592,4.07941095 82.7053592,4.33441095 84.0453592,4.58441095 C84.4153592,4.65441095 84.7633592,4.78141095 85.0543592,5.02541095 C85.4353592,5.34541095 85.8803592,5.47341095 86.3623592,5.53041095 C87.1123592,5.61941095 87.8683592,5.68441095 88.5863592,5.94641095 C88.8213592,6.03241095 89.0543592,6.12941095 89.2803592,6.24041095 C89.6123592,6.40341095 89.8903592,6.61341095 89.8773592,7.04241095 C89.8753592,7.11141095 89.9273592,7.17941095 89.9503592,7.25041095 C90.1193592,7.77741095 89.8463592,8.21941095 89.2973592,8.18541095 C88.8033592,8.15441095 88.3143592,8.00141095 87.8273592,7.88641095 C87.5863592,7.82941095 87.3533592,7.73741095 87.0873592,7.73541095 C87.2353592,7.80041095 87.3893592,7.85741095 87.5333592,7.93241095 C87.8243592,8.08241095 88.0743592,8.29541095 88.0413592,8.64741095 C88.0063592,9.00341095 87.7613592,9.23741095 87.4133592,9.31441095 C87.1553592,9.37141095 86.8863592,9.39541095 86.6223592,9.40641095 C86.2763592,9.42141095 86.0203592,9.57941095 85.8753592,9.87541095 C85.4463592,10.744411 85.1353592,10.873411 84.2123592,10.523411 C84.0583592,10.645411 83.9183592,10.817411 83.7383592,10.885411 C83.5713592,10.947411 83.3633592,10.898411 83.1123592,10.898411 C83.2173592,10.960411 83.2773592,11.017411 83.3463592,11.032411 C83.8083592,11.133411 84.1043592,11.485411 84.4433592,11.764411 C84.5473592,11.850411 84.6323592,12.011411 84.6443592,12.144411 C84.6633592,12.372411 84.7603592,12.529411 84.9193592,12.675411 C85.2543592,12.983411 85.3883592,13.342411 85.2133592,13.795411 C85.1713592,13.902411 85.1993592,14.052411 85.2383592,14.170411 C85.3053592,14.373411 85.2793592,14.575411 85.1453592,14.706411 C84.9663592,14.883411 84.9993592,15.056411 85.0113592,15.268411 C85.0263592,15.499411 85.0053592,15.748411 84.9283592,15.964411 C84.7863592,16.366411 84.3643592,16.491411 84.0243592,16.224411 C83.3273592,15.676411 82.5863592,15.180411 82.0053592,14.489411 C81.8123592,14.259411 81.5133592,14.119411 81.2763592,13.922411 C81.1093592,13.783411 80.9263592,13.640411 80.8183592,13.459411 C80.5543592,13.017411 80.2403592,12.602411 80.1053592,12.086411 C80.0133592,11.731411 79.9563592,11.424411 80.2993592,11.169411 C80.3673592,11.119411 80.4013592,10.996411 80.4113592,10.902411 C80.4283592,10.727411 80.4163592,10.549411 80.4163592,10.334411 C80.2113592,10.303411 80.0273592,10.271411 79.8413592,10.248411 C79.5363592,10.212411 79.2553592,10.139411 79.0983592,9.83641095 C79.0793592,9.79741095 79.0463592,9.73741095 79.0183592,9.73641095 C78.8963592,9.73441095 78.7743592,9.75141095 78.6513592,9.76041095 C78.6813592,9.86541095 78.7123592,9.96941095 78.7443592,10.073411 C78.7473592,10.084411 78.7693592,10.087411 78.7823592,10.095411 C79.3533592,10.521411 79.3433592,10.910411 78.7523592,11.291411 C78.2323592,11.626411 77.6413592,11.688411 77.1453592,11.377411 C76.2503592,10.815411 75.3043592,10.899411 74.3433592,10.980411 C73.9773592,11.011411 73.6163592,11.090411 73.2353592,11.150411 C73.0843592,11.729411 72.9403592,12.285411 72.7993592,12.823411 C72.9733592,13.043411 73.1293592,13.239411 73.2833592,13.434411 C73.8953592,13.204411 74.4763592,13.198411 75.0713592,13.515411 C75.5343592,13.762411 75.9923592,13.991411 76.2773592,14.455411 C76.3703592,14.605411 76.4923592,14.749411 76.5403592,14.913411 C76.6373592,15.257411 76.8413592,15.518411 77.0873592,15.760411 C77.6873592,16.356411 77.7973592,17.088411 77.6773592,17.886411 C77.6293592,18.207411 77.6033592,18.530411 77.5613592,18.852411 C77.5433592,18.997411 77.5223592,19.145411 77.4813592,19.285411 C77.3493592,19.740411 77.2343592,20.203411 77.0583592,20.642411 C76.9453592,20.923411 76.7613592,21.189411 76.5603592,21.417411 C76.4593592,21.532411 76.2503592,21.586411 76.0833592,21.604411 C75.8073592,21.634411 75.5253592,21.613411 75.1943592,21.613411 C75.1943592,21.696411 75.1513592,21.841411 75.2023592,21.932411 C75.3813592,22.249411 75.2803592,22.498411 75.0713592,22.742411 C74.9673592,22.864411 74.8723592,22.992411 74.7953592,23.090411 C75.1223592,23.432411 75.4103592,23.768411 75.7343592,24.065411 C76.2023592,24.494411 76.4013592,25.076411 76.6673592,25.618411 C76.8523592,25.996411 76.6053592,26.479411 76.1933592,26.621411 C75.8153592,26.751411 75.4353592,26.876411 75.0533592,26.995411 C74.7083592,27.104411 74.3873592,26.989411 74.2963592,26.656411 C74.1593592,26.164411 73.9373592,25.718411 73.7053592,25.271411 C73.6463592,25.158411 73.6393592,25.018411 73.6043592,24.873411 L72.9473592,24.873411 C72.8903592,25.165411 72.6933592,25.382411 72.3713592,25.429411 C72.0463592,25.478411 71.8383592,25.662411 71.6383592,25.949411 C72.0263592,26.410411 72.4143592,26.886411 72.8193592,27.349411 C73.2123592,27.797411 73.5553592,28.253411 73.6923592,28.863411 C73.7553592,29.142411 73.8653592,29.407411 73.8863592,29.707411 C73.9303592,30.321411 73.7713592,30.876411 73.5143592,31.420411 C73.4343592,31.590411 73.3363592,31.788411 73.3543592,31.963411 C73.4143592,32.548411 73.0983592,32.965411 72.7473592,33.339411 C72.1993592,33.922411 71.6013592,34.460411 70.8313592,34.751411 C70.7613592,34.778411 70.6873592,34.838411 70.6263592,34.826411 C70.2093592,34.744411 69.9653592,34.998411 69.7173592,35.263411 C69.5673592,35.425411 69.3703592,35.478411 69.1483592,35.455411 C69.0633592,35.446411 68.9763592,35.453411 68.9663592,35.453411 C68.7813592,35.729411 68.6553592,35.977411 68.4703592,36.167411 C68.3733592,36.267411 68.1713592,36.302411 68.0173592,36.303411 C67.5943592,36.305411 67.3623592,36.047411 67.2303592,35.450411 C66.7633592,35.677411 66.4523592,36.023411 66.2473592,36.497411 C66.3923592,36.863411 66.7053592,37.098411 66.9813592,37.361411 C67.9213592,38.255411 68.5883592,39.297411 68.7123592,40.619411 C68.7453592,40.970411 68.7623592,41.342411 68.6823592,41.680411 C68.6233592,41.931411 68.4223592,42.171411 68.2323592,42.364411 C68.0833592,42.516411 67.8643592,42.624411 67.6573592,42.689411 C67.3803592,42.777411 67.2203592,42.959411 67.0593592,43.178411 C66.8773592,43.428411 66.6703592,43.666411 66.4423592,43.875411 C66.0673592,44.218411 65.6943592,44.155411 65.4553592,43.717411 C65.3373592,43.500411 65.2593592,43.262411 65.1383592,42.972411 C64.7143592,42.907411 64.4213592,42.599411 64.2483592,42.131411 C64.1673592,41.915411 64.0053592,41.726411 63.8703592,41.533411 C63.7583592,41.375411 63.6053592,41.300411 63.3763592,41.373411 C63.2923592,41.698411 63.2033592,42.038411 63.1073592,42.405411 C63.5073592,42.686411 63.5643592,43.166411 63.7513592,43.574411 C63.8443592,43.780411 63.9373592,43.943411 64.1473592,44.076411 C64.7573592,44.465411 65.2353592,44.993411 65.5243592,45.665411 C65.6293592,45.906411 65.6743592,46.173411 65.7483592,46.428411 C65.8243592,46.695411 65.8793592,46.971411 65.9863592,47.226411 C66.1103592,47.522411 66.1713592,47.819411 66.1473592,48.135411 C66.1073592,48.688411 65.5433592,49.016411 65.0813592,48.714411 C64.5733592,48.381411 64.1103592,47.982411 63.6303592,47.609411 C63.5853592,47.574411 63.5463592,47.522411 63.5233592,47.469411 C63.3383592,47.036411 63.1593592,46.601411 62.9763592,46.168411 C62.8093592,45.773411 62.6583592,45.371411 62.4673592,44.988411 C62.3513592,44.754411 62.2103592,44.528411 61.9263592,44.428411 C61.6893592,44.344411 61.6203592,44.120411 61.6043592,43.887411 C61.5713592,43.385411 61.5433592,42.884411 61.5133592,42.383411 C61.5103592,42.323411 61.5013592,42.257411 61.5213592,42.205411 C61.7653592,41.602411 61.4923592,41.054411 61.3353592,40.497411 C61.2713592,40.270411 61.1463592,40.061411 61.0663592,39.839411 C60.9783592,39.591411 60.9093592,39.337411 60.8213592,39.055411 C60.6463592,39.021411 60.5023592,39.131411 60.3613592,39.267411 C60.1313592,39.492411 59.8713592,39.525411 59.5873592,39.374411 C59.5343592,39.346411 59.4813592,39.321411 59.4273592,39.294411 C58.7253592,38.950411 58.6873592,38.869411 58.7933592,38.084411 C58.8093592,37.956411 58.8253592,37.799411 58.7683592,37.694411 C58.5523592,37.291411 58.3143592,36.900411 58.0693592,36.513411 C57.8633592,36.188411 57.6363592,35.876411 57.4193592,35.558411 C57.3033592,35.387411 57.1893592,35.215411 57.0573592,35.019411 C56.5183592,35.160411 55.9923592,35.299411 55.4453592,35.442411 C55.4553592,35.909411 55.1883592,36.204411 54.8233592,36.399411 C54.2893592,36.683411 53.9483592,37.135411 53.6153592,37.613411 C53.4843592,37.801411 53.2893592,37.946411 53.1193592,38.107411 C53.0663592,38.156411 52.9813592,38.180411 52.9463592,38.238411 C52.7453592,38.561411 52.4833592,38.811411 52.1353592,38.972411 C51.9713592,39.048411 51.9463592,39.197411 51.9813592,39.351411 C52.1433592,40.063411 52.0753592,40.757411 51.8613592,41.450411 C51.8143592,41.602411 51.8483592,41.799411 51.9013592,41.956411 C52.0233592,42.313411 51.9773592,42.596411 51.6403592,42.803411 C51.5903592,42.833411 51.5213592,42.875411 51.5133592,42.921411 C51.4093592,43.493411 50.8723592,43.660411 50.5063592,43.979411 C50.1213592,44.316411 49.6663592,44.279411 49.3183592,43.904411 C49.1423592,43.714411 49.0053592,43.473411 48.9073592,43.232411 C48.7013592,42.726411 48.5463592,42.203411 48.2373592,41.737411 C48.0863592,41.510411 48.0553592,41.207411 47.9443592,40.950411 C47.6253592,40.217411 47.2613592,39.503411 46.9723592,38.759411 C46.6143592,37.837411 46.3363592,36.886411 46.1173592,35.865411 C45.9703592,35.888411 45.8013592,35.916411 45.6323592,35.942411 C45.2403592,36.002411 45.0803592,35.945411 44.9023592,35.599411 C44.7773592,35.358411 44.5733592,35.226411 44.3663592,35.083411 C44.1433592,34.929411 43.9343592,34.777411 43.9343592,34.456411 C43.9343592,34.367411 43.8263592,34.250411 43.7363592,34.196411 C43.3563592,33.966411 43.0763592,33.647411 42.8633592,33.267411 C42.7533592,33.070411 42.6193592,33.018411 42.3933592,33.045411 C41.8193592,33.111411 41.2423592,33.182411 40.6673592,33.176411 C40.1523592,33.172411 39.6373592,33.072411 39.1253592,33.005411 C38.8263592,32.966411 38.5293592,32.909411 38.2123592,32.908411 C38.6053592,32.941411 38.8163592,33.206411 39.0243592,33.480411 C39.2043592,33.716411 39.3803592,33.956411 39.5773592,34.176411 C39.7353592,34.354411 39.7603592,34.559411 39.7133592,34.760411 C39.5873592,35.311411 39.4363592,35.859411 38.9053592,36.216411 C39.0043592,36.714411 38.7893592,37.064411 38.3543592,37.306411 C38.2693592,37.354411 38.2043592,37.441411 38.1333592,37.514411 C38.0733592,37.578411 38.0303592,37.681411 37.9583592,37.708411 C37.2663592,37.965411 36.8143592,38.671411 36.0193592,38.739411 C35.9403592,38.746411 35.8453592,38.851411 35.8023592,38.934411 C35.4513592,39.618411 34.8873592,39.955411 34.1293592,40.010411 C34.0103592,40.019411 33.8753592,40.089411 33.7883592,40.172411 C33.5883592,40.363411 33.3533592,40.426411 33.0963592,40.513411 C32.6423592,40.669411 32.1993592,40.847411 31.7253592,40.952411 C31.5843592,40.983411 31.4743592,41.153411 31.3463592,41.254411 C31.1463592,41.412411 30.9343592,41.481411 30.6873592,41.350411 C30.5703592,41.288411 30.4413592,41.247411 30.3153592,41.201411 C29.8923592,41.046411 29.5803592,40.821411 29.6393592,40.296411 C29.6533592,40.175411 29.5633592,40.044411 29.5333592,39.915411 C29.4293592,39.471411 29.3513592,39.019411 29.2243592,38.582411 C29.1393592,38.289411 29.0343592,37.983411 28.8573592,37.740411 C28.4483592,37.180411 27.9863592,36.658411 27.5543592,36.112411 C27.4393592,35.965411 27.3333592,35.799411 27.2683592,35.624411 C27.0993592,35.166411 26.9653592,34.696411 26.7993592,34.238411 C26.7423592,34.075411 26.6693592,33.881411 26.5403592,33.789411 C26.1143592,33.486411 25.8503592,33.065411 25.5813592,32.637411 C25.2653592,32.135411 24.9213592,31.651411 24.6133592,31.145411 C24.5103592,30.977411 24.4193592,30.760411 24.4303592,30.572411 C24.4573592,30.107411 24.3353592,29.690411 24.1233592,29.296411 C23.8893592,28.862411 23.8503592,28.437411 24.0693592,27.987411 C24.1913592,27.734411 24.2523592,27.447411 24.3973592,27.211411 C24.6923592,26.732411 24.6023592,26.233411 24.5683592,25.629411 C24.2633592,26.036411 23.8953592,26.005411 23.5233592,26.028411 C23.1113592,26.053411 22.8413592,25.763411 22.4803592,25.645411 C22.4113592,25.688411 22.3333592,25.728411 22.2643592,25.780411 C22.0513592,25.944411 21.8253592,25.955411 21.5973592,25.829411 C21.2293592,25.628411 20.8563592,25.468411 20.4213592,25.484411 C20.0923592,25.495411 19.9703592,25.254411 19.8803592,24.987411 C19.8403592,24.867411 19.8103592,24.723411 19.7253592,24.642411 C19.3383592,24.273411 19.3113592,24.198411 19.4853592,23.722411 C19.3383592,23.447411 19.2033592,23.194411 19.0673592,22.941411 C18.8623592,23.045411 18.8103592,23.164411 18.8813592,23.438411 C18.9303592,23.624411 19.0013592,23.804411 19.0443592,23.991411 C19.1043592,24.251411 19.0823592,24.492411 18.8393592,24.668411 C18.6163592,24.830411 18.3943592,24.796411 18.1713592,24.676411 C17.9463592,24.554411 17.7553592,24.535411 17.5193592,24.706411 C17.2063592,24.933411 16.7523592,24.807411 16.6773592,24.465411 C16.6003592,24.106411 16.3503592,23.917411 16.1343592,23.680411 C16.0653592,23.604411 16.0113592,23.512411 15.9723592,23.458411 C15.7443592,23.500411 15.5873592,23.529411 15.4093592,23.561411 C15.2113592,24.007411 14.9673592,24.432411 14.5093592,24.699411 C14.3983592,24.764411 14.3363592,24.924411 14.2693592,25.050411 C14.0303592,25.508411 13.7563592,25.605411 13.2843592,25.377411 C12.9363592,25.209411 12.5893592,25.040411 12.2503592,24.857411 C11.8813592,24.659411 11.7813592,24.399411 11.8963592,24.005411 C12.0003592,23.652411 12.2243592,23.499411 12.5903592,23.537411 C12.7673592,23.556411 12.9433592,23.605411 13.1193592,23.602411 C13.3003592,23.598411 13.4813592,23.550411 13.7663592,23.504411 C13.1493592,23.107411 12.7533592,22.621411 12.1543592,22.361411 C11.5943592,22.117411 11.1753592,21.654411 10.8653592,21.113411 C10.7623592,20.936411 10.6393592,20.772411 10.4943592,20.553411 L10.4943592,20.553411 Z" id="Fill-1"></path>
            <path d="M32.2675592,19.028011 C32.2415592,18.994011 32.2145592,18.960011 32.1885592,18.926011 C31.7175592,19.106011 31.4355592,19.547011 31.0615592,19.779011 C31.3355592,20.375011 31.6215592,20.897011 32.0205592,21.356011 C32.2895592,21.666011 32.4735592,22.040011 32.8155592,22.302011 C33.1135592,22.531011 33.1515592,22.857011 32.9185592,23.123011 C32.7165592,23.355011 32.6905592,23.614011 32.6465592,23.833011 C32.8625592,23.997011 33.0635592,24.115011 33.2205592,24.277011 C33.5925592,24.659011 33.6415592,24.677011 34.1805592,24.434011 C34.1285592,23.755011 34.1235592,23.726011 33.6005592,23.389011 C33.3125592,23.204011 33.2195592,22.950011 33.2505592,22.632011 C33.2625592,22.516011 33.3005592,22.403011 33.3275592,22.285011 C33.2955592,22.247011 33.2605592,22.217011 33.2445592,22.179011 C33.0715592,21.810011 32.8525592,21.509011 32.4835592,21.275011 C32.1585592,21.069011 31.9355592,20.703011 31.6695592,20.406011 C31.3455592,20.044011 31.4005592,19.666011 31.8005592,19.397011 C31.9645592,19.286011 32.1125592,19.152011 32.2675592,19.028011 M34.9815592,22.939011 C35.0875592,23.296011 35.1775592,23.589011 35.2635592,23.883011 C35.3375592,24.139011 35.4115592,24.394011 35.4765592,24.652011 C35.5655592,25.001011 35.4575592,25.256011 35.1355592,25.365011 C34.7155592,25.507011 34.2885592,25.637011 33.8545592,25.728011 C33.4105592,25.821011 33.0005592,25.732011 32.6915592,25.351011 C32.5715592,25.203011 32.4285592,25.101011 32.2115592,25.071011 C31.6115592,24.989011 31.2265592,24.311011 31.4245592,23.732011 C31.4575592,23.633011 31.5115592,23.542011 31.5415592,23.444011 C31.6455592,23.111011 31.6795592,22.804011 31.4185592,22.495011 C31.1255592,22.148011 30.9145592,21.744011 30.5495592,21.442011 C30.3595592,21.283011 30.3035592,20.964011 30.2435592,20.684011 C30.1655592,20.639011 30.0885592,20.597011 30.0135592,20.550011 C29.6235592,20.302011 29.5205592,19.919011 29.7695592,19.520011 C29.9005592,19.309011 30.0645592,19.108011 30.2495592,18.943011 C30.6155592,18.618011 31.0105592,18.328011 31.3815592,18.010011 C31.7055592,17.733011 32.0395592,17.661011 32.4495592,17.811011 C32.6655592,17.890011 32.9145592,17.880011 33.1485592,17.913011 C33.6145592,17.979011 33.8205592,18.199011 33.8715592,18.667011 C33.8865592,18.812011 33.9145592,18.959011 33.9575592,19.099011 C34.1225592,19.646011 33.9535592,19.942011 33.3935592,20.066011 C33.2935592,20.088011 33.1965592,20.117011 33.0565592,20.153011 C33.1535592,20.267011 33.2105592,20.390011 33.3045592,20.434011 C33.5625592,20.555011 33.8135592,20.667011 33.9785592,20.921011 C34.0135592,20.974011 34.1365592,20.984011 34.2215592,20.991011 C34.6555592,21.030011 34.9265592,21.270011 35.0815592,21.662011 C35.1085592,21.731011 35.1275592,21.803011 35.1585592,21.871011 C35.3425592,22.280011 35.3005592,22.649011 34.9815592,22.939011" id="Fill-3"></path>
        </g>
    </g>
</svg>