<?xml version="1.0" encoding="UTF-8"?>
<svg width="700pt" height="700pt" version="1.1" viewBox="0 0 700 700" xmlns="http://www.w3.org/2000/svg" xmlns:xlink="http://www.w3.org/1999/xlink">
 <defs>
  <symbol id="v" overflow="visible">
   <path d="m23.453-1.4062c-1.2109 0.625-2.4688 1.1016-3.7812 1.4219s-2.6836 0.48438-4.1094 0.48438c-4.25 0-7.6172-1.1875-10.094-3.5625-2.4805-2.375-3.7188-5.5977-3.7188-9.6719 0-4.0703 1.2383-7.2969 3.7188-9.6719 2.4766-2.3828 5.8438-3.5781 10.094-3.5781 1.4258 0 2.7969 0.16406 4.1094 0.48438 1.3125 0.32422 2.5703 0.79688 3.7812 1.4219v5.2812c-1.2188-0.83203-2.4219-1.4414-3.6094-1.8281-1.1875-0.38281-2.4375-0.57812-3.75-0.57812-2.3438 0-4.1875 0.75-5.5312 2.25s-2.0156 3.5742-2.0156 6.2188c0 2.6367 0.67188 4.7109 2.0156 6.2188 1.3438 1.5 3.1875 2.25 5.5312 2.25 1.3125 0 2.5625-0.19141 3.75-0.57812 1.1875-0.39453 2.3906-1.0078 3.6094-1.8438z"/>
  </symbol>
  <symbol id="b" overflow="visible">
   <path d="m17.156-13.922c-0.53125-0.25-1.0625-0.42969-1.5938-0.54688-0.53125-0.125-1.0625-0.1875-1.5938-0.1875-1.5742 0-2.7891 0.50781-3.6406 1.5156-0.84375 1-1.2656 2.4453-1.2656 4.3281v8.8125h-6.125v-19.141h6.125v3.1406c0.78125-1.25 1.6797-2.1602 2.7031-2.7344 1.0195-0.58203 2.2422-0.875 3.6719-0.875 0.19531 0 0.41406 0.011719 0.65625 0.03125 0.23828 0.023437 0.58594 0.058594 1.0469 0.10938z"/>
  </symbol>
  <symbol id="a" overflow="visible">
   <path d="m22.047-9.625v1.75h-14.312c0.15625 1.4375 0.67578 2.5156 1.5625 3.2344 0.88281 0.71094 2.125 1.0625 3.7188 1.0625 1.2891 0 2.6094-0.1875 3.9531-0.5625 1.3516-0.38281 2.7422-0.96094 4.1719-1.7344v4.7188c-1.4492 0.54297-2.8984 0.95312-4.3438 1.2344-1.4492 0.28125-2.8984 0.42188-4.3438 0.42188-3.4609 0-6.1523-0.87891-8.0781-2.6406-1.918-1.7578-2.875-4.2266-2.875-7.4062 0-3.125 0.94141-5.582 2.8281-7.375 1.8828-1.7891 4.4766-2.6875 7.7812-2.6875 3.0078 0 5.4141 0.90625 7.2188 2.7188 1.8125 1.8125 2.7188 4.2344 2.7188 7.2656zm-6.2969-2.0312c0-1.1641-0.33984-2.1016-1.0156-2.8125-0.67969-0.70703-1.5625-1.0625-2.6562-1.0625-1.1797 0-2.1406 0.33594-2.8906 1-0.74219 0.66797-1.1992 1.625-1.375 2.875z"/>
  </symbol>
  <symbol id="e" overflow="visible">
   <path d="m11.516-8.6094c-1.2734 0-2.2305 0.21875-2.875 0.65625-0.64844 0.42969-0.96875 1.0625-0.96875 1.9062 0 0.77344 0.25781 1.375 0.78125 1.8125 0.51953 0.4375 1.2383 0.65625 2.1562 0.65625 1.1562 0 2.125-0.41016 2.9062-1.2344 0.78906-0.82031 1.1875-1.8516 1.1875-3.0938v-0.70312zm9.3438-2.3125v10.922h-6.1562v-2.8438c-0.82422 1.168-1.75 2.0156-2.7812 2.5469-1.0234 0.53125-2.2656 0.79688-3.7344 0.79688-1.9805 0-3.5898-0.57812-4.8281-1.7344-1.2422-1.1562-1.8594-2.6602-1.8594-4.5156 0-2.2383 0.76953-3.8789 2.3125-4.9219 1.5508-1.0508 3.9766-1.5781 7.2812-1.5781h3.6094v-0.48438c0-0.96875-0.38672-1.6758-1.1562-2.125-0.76172-0.44531-1.9492-0.67188-3.5625-0.67188-1.3125 0-2.5391 0.13281-3.6719 0.39062-1.125 0.26172-2.1719 0.65234-3.1406 1.1719v-4.6562c1.3125-0.32031 2.6289-0.56641 3.9531-0.73438 1.3203-0.16406 2.6445-0.25 3.9688-0.25 3.4453 0 5.9375 0.68359 7.4688 2.0469 1.5312 1.3672 2.2969 3.5781 2.2969 6.6406z"/>
  </symbol>
  <symbol id="d" overflow="visible">
   <path d="m9.625-24.578v5.4375h6.2969v4.375h-6.2969v8.125c0 0.88672 0.17578 1.4844 0.53125 1.7969 0.35156 0.3125 1.0508 0.46875 2.0938 0.46875h3.1406v4.375h-5.2344c-2.418 0-4.1328-0.50391-5.1406-1.5156-1.0117-1.0078-1.5156-2.7188-1.5156-5.125v-8.125h-3.0312v-4.375h3.0312v-5.4375z"/>
  </symbol>
  <symbol id="k" overflow="visible">
   <path d="m15.969-16.344v-10.25h6.1406v26.594h-6.1406v-2.7656c-0.84375 1.125-1.7773 1.9531-2.7969 2.4844-1.0117 0.51953-2.1836 0.78125-3.5156 0.78125-2.3555 0-4.293-0.9375-5.8125-2.8125-1.5117-1.875-2.2656-4.2852-2.2656-7.2344 0-2.957 0.75391-5.375 2.2656-7.25 1.5195-1.875 3.457-2.8125 5.8125-2.8125 1.3203 0 2.4922 0.26562 3.5156 0.79688 1.0195 0.53125 1.9531 1.3555 2.7969 2.4688zm-4.0469 12.391c1.3125 0 2.3125-0.47266 3-1.4219 0.69531-0.95703 1.0469-2.3477 1.0469-4.1719 0-1.8203-0.35156-3.2109-1.0469-4.1719-0.6875-0.95703-1.6875-1.4375-3-1.4375-1.293 0-2.2891 0.48047-2.9844 1.4375-0.6875 0.96094-1.0312 2.3516-1.0312 4.1719 0 1.8242 0.34375 3.2148 1.0312 4.1719 0.69531 0.94922 1.6914 1.4219 2.9844 1.4219z"/>
  </symbol>
  <symbol id="j" overflow="visible">
   <path d="m13.125-3.9531c1.3125 0 2.3125-0.47266 3-1.4219 0.6875-0.95703 1.0312-2.3477 1.0312-4.1719 0-1.8203-0.34375-3.2109-1.0312-4.1719-0.6875-0.95703-1.6875-1.4375-3-1.4375s-2.3203 0.48438-3.0156 1.4531c-0.69922 0.96094-1.0469 2.3438-1.0469 4.1562 0 1.8047 0.34766 3.1875 1.0469 4.1562 0.69531 0.96094 1.7031 1.4375 3.0156 1.4375zm-4.0625-12.391c0.84375-1.1133 1.7734-1.9375 2.7969-2.4688 1.0312-0.53125 2.207-0.79688 3.5312-0.79688 2.3633 0 4.3008 0.9375 5.8125 2.8125 1.5195 1.875 2.2812 4.293 2.2812 7.25 0 2.9492-0.76172 5.3594-2.2812 7.2344-1.5117 1.875-3.4492 2.8125-5.8125 2.8125-1.3242 0-2.5-0.26562-3.5312-0.79688-1.0234-0.53125-1.9531-1.3516-2.7969-2.4688v2.7656h-6.125v-26.594h6.125z"/>
  </symbol>
  <symbol id="c" overflow="visible">
   <path d="m0.42188-19.141h6.125l5.1406 12.984 4.375-12.984h6.125l-8.0469 20.953c-0.8125 2.125-1.7617 3.6094-2.8438 4.4531-1.0742 0.85156-2.4922 1.2812-4.25 1.2812h-3.5469v-4.0156h1.9219c1.0312 0 1.7812-0.16797 2.25-0.5 0.47656-0.32422 0.84766-0.91406 1.1094-1.7656l0.17188-0.53125z"/>
  </symbol>
  <symbol id="i" overflow="visible">
   <path d="m1.0469-25.516h6.2969l4.4219 18.547 4.375-18.547h6.3281l4.375 18.547 4.4062-18.547h6.2656l-6.0156 25.516h-7.5938l-4.625-19.391-4.5781 19.391h-7.5938z"/>
  </symbol>
  <symbol id="h" overflow="visible">
   <path d="m22.188-11.656v11.656h-6.1562v-8.9219c0-1.6562-0.039062-2.7969-0.10938-3.4219-0.074219-0.625-0.20312-1.082-0.39062-1.375-0.24219-0.40625-0.5625-0.71875-0.96875-0.9375s-0.875-0.32812-1.4062-0.32812c-1.2734 0-2.2734 0.49609-3 1.4844-0.73047 0.98047-1.0938 2.3398-1.0938 4.0781v9.4219h-6.125v-19.141h6.125v2.7969c0.91406-1.1133 1.8906-1.9375 2.9219-2.4688 1.0391-0.53125 2.1914-0.79688 3.4531-0.79688 2.207 0 3.8828 0.68359 5.0312 2.0469 1.1445 1.3555 1.7188 3.3242 1.7188 5.9062z"/>
  </symbol>
  <symbol id="u" overflow="visible">
   <path d="m0.17188-25.516h23.516v4.9688h-8.4531v20.547h-6.5938v-20.547h-8.4688z"/>
  </symbol>
  <symbol id="g" overflow="visible">
   <path d="m2.9375-26.594h6.125v26.594h-6.125z"/>
  </symbol>
  <symbol id="t" overflow="visible">
   <path d="m20.969-24.719v5.4062c-1.3984-0.625-2.7617-1.0938-4.0938-1.4062-1.3359-0.32031-2.5938-0.48438-3.7812-0.48438-1.5742 0-2.7344 0.21875-3.4844 0.65625-0.75 0.42969-1.125 1.0938-1.125 2 0 0.6875 0.25 1.2266 0.75 1.6094 0.50781 0.375 1.4297 0.69922 2.7656 0.96875l2.7969 0.57812c2.8438 0.5625 4.8594 1.4297 6.0469 2.5938 1.1953 1.1562 1.7969 2.8086 1.7969 4.9531 0 2.8125-0.83594 4.9062-2.5 6.2812-1.668 1.375-4.2148 2.0625-7.6406 2.0625-1.625 0-3.2578-0.15625-4.8906-0.46875-1.625-0.30078-3.25-0.75391-4.875-1.3594v-5.5625c1.625 0.86719 3.1953 1.5234 4.7188 1.9688 1.5195 0.4375 2.9883 0.65625 4.4062 0.65625 1.4375 0 2.5352-0.23828 3.2969-0.71875 0.75781-0.47656 1.1406-1.1641 1.1406-2.0625 0-0.78906-0.26172-1.3984-0.78125-1.8281-0.51172-0.4375-1.543-0.82812-3.0938-1.1719l-2.5469-0.5625c-2.5547-0.55078-4.418-1.4219-5.5938-2.6094-1.1797-1.1953-1.7656-2.8125-1.7656-4.8438 0-2.5391 0.81641-4.4922 2.4531-5.8594 1.6445-1.375 4.0039-2.0625 7.0781-2.0625 1.4062 0 2.8477 0.10938 4.3281 0.32812 1.4766 0.21094 3.0078 0.52344 4.5938 0.9375z"/>
  </symbol>
  <symbol id="s" overflow="visible">
   <path d="m15.531-26.594v4.0156h-3.375c-0.86719 0-1.4688 0.15625-1.8125 0.46875s-0.51562 0.85938-0.51562 1.6406v1.3281h5.2344v4.375h-5.2344v14.766h-6.125v-14.766h-3.0312v-4.375h3.0312v-1.3281c0-2.082 0.57812-3.625 1.7344-4.625 1.1641-1 2.9727-1.5 5.4219-1.5z"/>
  </symbol>
  <symbol id="f" overflow="visible">
   <path d="m12.047-15.234c-1.3555 0-2.3906 0.49219-3.1094 1.4688-0.71094 0.96875-1.0625 2.375-1.0625 4.2188 0 1.8359 0.35156 3.2422 1.0625 4.2188 0.71875 0.96875 1.7539 1.4531 3.1094 1.4531 1.332 0 2.3516-0.48438 3.0625-1.4531 0.70703-0.97656 1.0625-2.3828 1.0625-4.2188 0-1.8438-0.35547-3.25-1.0625-4.2188-0.71094-0.97656-1.7305-1.4688-3.0625-1.4688zm0-4.375c3.2891 0 5.8633 0.89062 7.7188 2.6719 1.8516 1.7812 2.7812 4.2461 2.7812 7.3906 0 3.1367-0.92969 5.5938-2.7812 7.375-1.8555 1.7812-4.4297 2.6719-7.7188 2.6719-3.3047 0-5.8867-0.89062-7.75-2.6719-1.8672-1.7812-2.7969-4.2383-2.7969-7.375 0-3.1445 0.92969-5.6094 2.7969-7.3906 1.8633-1.7812 4.4453-2.6719 7.75-2.6719z"/>
  </symbol>
  <symbol id="r" overflow="visible">
   <path d="m20.672-15.969c0.78125-1.1758 1.7031-2.0781 2.7656-2.7031s2.2344-0.9375 3.5156-0.9375c2.1953 0 3.8672 0.68359 5.0156 2.0469 1.1562 1.3555 1.7344 3.3242 1.7344 5.9062v11.656h-6.1562v-9.9844c0.007813-0.14453 0.015625-0.29688 0.015625-0.45312 0.007812-0.16406 0.015625-0.39453 0.015625-0.6875 0-1.3516-0.19922-2.332-0.59375-2.9375-0.39844-0.61328-1.043-0.92188-1.9375-0.92188-1.1562 0-2.0547 0.48047-2.6875 1.4375-0.63672 0.96094-0.96484 2.3398-0.98438 4.1406v9.4062h-6.1406v-9.9844c0-2.1133-0.18359-3.4727-0.54688-4.0781-0.36719-0.61328-1.0156-0.92188-1.9531-0.92188-1.1797 0-2.0859 0.48438-2.7188 1.4531-0.63672 0.96094-0.95312 2.3281-0.95312 4.1094v9.4219h-6.1562v-19.141h6.1562v2.7969c0.75-1.082 1.6094-1.8945 2.5781-2.4375 0.97656-0.55078 2.0547-0.82812 3.2344-0.82812 1.3125 0 2.4727 0.32422 3.4844 0.96875 1.0195 0.63672 1.7891 1.5273 2.3125 2.6719z"/>
  </symbol>
  <symbol id="q" overflow="visible">
   <path d="m22.188-11.656v11.656h-6.1562v-8.8906c0-1.6758-0.039062-2.8281-0.10938-3.4531-0.074219-0.625-0.20312-1.082-0.39062-1.375-0.24219-0.40625-0.5625-0.71875-0.96875-0.9375s-0.875-0.32812-1.4062-0.32812c-1.2734 0-2.2734 0.49609-3 1.4844-0.73047 0.98047-1.0938 2.3398-1.0938 4.0781v9.4219h-6.125v-26.594h6.125v10.25c0.91406-1.1133 1.8906-1.9375 2.9219-2.4688 1.0391-0.53125 2.1914-0.79688 3.4531-0.79688 2.207 0 3.8828 0.68359 5.0312 2.0469 1.1445 1.3555 1.7188 3.3242 1.7188 5.9062z"/>
  </symbol>
  <symbol id="p" overflow="visible">
   <path d="m3.2188-25.516h7.3438l9.2812 17.5v-17.5h6.2344v25.516h-7.3438l-9.2812-17.5v17.5h-6.2344z"/>
  </symbol>
  <symbol id="o" overflow="visible">
   <path d="m2.7344-7.4531v-11.688h6.1562v1.9062c0 1.043-0.007813 2.3516-0.015625 3.9219-0.011719 1.5625-0.015625 2.6055-0.015625 3.125 0 1.543 0.035156 2.6523 0.10938 3.3281 0.082031 0.67969 0.21875 1.168 0.40625 1.4688 0.25781 0.40625 0.58594 0.71875 0.98438 0.9375 0.40625 0.21094 0.875 0.3125 1.4062 0.3125 1.2695 0 2.2695-0.48828 3-1.4688 0.72656-0.97656 1.0938-2.3359 1.0938-4.0781v-9.4531h6.125v19.141h-6.125v-2.7656c-0.92969 1.1172-1.9062 1.9375-2.9375 2.4688s-2.168 0.79688-3.4062 0.79688c-2.2109 0-3.8906-0.67578-5.0469-2.0312-1.1562-1.3633-1.7344-3.3359-1.7344-5.9219z"/>
  </symbol>
  <symbol id="n" overflow="visible">
   <path d="m3.2188-25.516h10.922c3.2383 0 5.7266 0.72656 7.4688 2.1719 1.7383 1.4375 2.6094 3.4922 2.6094 6.1562 0 2.6797-0.87109 4.7344-2.6094 6.1719-1.7422 1.4375-4.2305 2.1562-7.4688 2.1562h-4.3438v8.8594h-6.5781zm6.5781 4.7656v7.125h3.6406c1.2695 0 2.2539-0.30469 2.9531-0.92188 0.69531-0.625 1.0469-1.5039 1.0469-2.6406 0-1.1445-0.35156-2.0234-1.0469-2.6406-0.69922-0.61328-1.6836-0.92188-2.9531-0.92188z"/>
  </symbol>
  <symbol id="m" overflow="visible">
   <path d="m2.9375-19.141h6.125v18.797c0 2.5625-0.62109 4.5156-1.8594 5.8594-1.2305 1.3516-3.0117 2.0312-5.3438 2.0312h-3.0156v-4.0156h1.0469c1.1641 0 1.9609-0.26172 2.3906-0.78125 0.4375-0.52344 0.65625-1.5547 0.65625-3.0938zm0-7.4531h6.125v4.9844h-6.125z"/>
  </symbol>
  <symbol id="l" overflow="visible">
   <path d="m18.406-18.547v5c-0.83594-0.57031-1.6719-0.99219-2.5156-1.2656-0.83594-0.28125-1.6992-0.42188-2.5938-0.42188-1.7109 0-3.043 0.5-4 1.5-0.94922 1-1.4219 2.3984-1.4219 4.1875 0 1.7812 0.47266 3.1719 1.4219 4.1719 0.95703 1 2.2891 1.5 4 1.5 0.95703 0 1.8633-0.14062 2.7188-0.42188 0.86328-0.28906 1.6602-0.71875 2.3906-1.2812v5.0156c-0.96094 0.35547-1.9336 0.61719-2.9219 0.79688-0.98047 0.17578-1.9648 0.26562-2.9531 0.26562-3.4609 0-6.1641-0.88281-8.1094-2.6562-1.9492-1.7695-2.9219-4.2344-2.9219-7.3906s0.97266-5.6172 2.9219-7.3906c1.9453-1.7812 4.6484-2.6719 8.1094-2.6719 1 0 1.9844 0.089844 2.9531 0.26562 0.97656 0.17969 1.9531 0.44531 2.9219 0.79688z"/>
  </symbol>
 </defs>
 <g>
  <path d="m317.47 178.03c0.33594-2.5898 0.6875-5.2656 1.9336-8.1758 0.67969-1.5742 1.4688-2.9102 2.2695-4.2617 1.1133-1.8906 2.2617-3.8438 3.2188-6.3984 1.1836-3.1445 1.3711-6.082 1.5547-8.9336 0.085937-1.3867 0.16797-2.8086 0.39844-4.3047 0.50391-3.3516 1.8047-5.1953 3.7812-7.9805l0.76953-1.0938c0.30859-0.44141 0.67969-0.89062 1.043-1.3516 1.9688-2.4375 5.6133-6.9805 1.7344-12.195-1.8906-2.5391-5.207-3.332-8.4062-4.0898-1.8477-0.44141-4.1445-0.98828-4.9922-1.7344-1.4922-1.3242-2.3164-2.5469-3.1914-3.8359-2.332-3.4375-4.4922-5.9219-11.129-6.6367-4.2344-0.45312-8.4336-0.11328-12.473 0.23828-1.5664 0.13281-3.1094 0.26562-5.2695 0.37109-5.3125 0.25391-10.332 0.51172-13.586-2.1914-6.0781-5.0391-8.2031-6.125-16.887-6.1328-9.0703 0.015626-18.605 0.29297-27.074 4.1523-8.3359 3.7852-12.594 6.9922-13.938 14.672-0.38672-0.33594-0.82422-0.75-1.3359-1.2383-2.2891-2.1992-7.0625-6.7695-13.348-1.3945-0.0625 0.050781-0.11719 0.11328-0.18359 0.16016l0.48438-3.4727-5.9766 2.8984c-1.3594 0.65625-4.9844 1.0977-8.1914 1.4922-7.4336 0.91016-15.129 1.8555-18.324 6.4414-1.3008 1.8633-1.6953 4.1094-1.1289 6.4961 1.4062 5.9414 7.7891 12.816 13.41 14.434 2.6797 0.76953 5.4102 0.72656 8.0234 0.67187h0.22266c-0.85547 0.17578-1.8984 0.33594-3.207 0.51953-1.0508 0.14844-2.1367 0.29297-3.3945 0.52344-6.4336 1.168-8.3633 0.875-8.9375 0.60938-0.46094-0.23828-0.73438-0.67969-1.3359-1.7773-0.54687-1.0078-1.2266-2.2461-2.3945-3.3945-4.2617-4.1719-10.352-5.1641-15.531-2.5195-5.2305 2.6797-8.0156 8.3164-7.0898 14.355l0.27344 1.8125c-2.2188-1.6797-4.7383-3.2773-7.8594-3.9492-1.7852-0.39844-3.5078-0.25-5.0312-0.125-1.4141 0.11328-2.75 0.22266-3.3945-0.16016-0.28125-0.16016-0.75781-0.99219-1.1133-1.6016-0.75-1.2891-1.6797-2.8984-3.3945-4.0742-2.625-1.8047-5.7461-2.8984-8.7656-3.9492-3.5508-1.2383-6.9023-2.418-9.1055-4.5508-0.52344-0.50391-0.91797-1.1055-1.3164-1.6719-1.0977-1.582-2.6094-3.7383-5.5586-4.5352-3.1836-0.85938-6.418 0.98047-9.0156 2.4648-0.60938 0.34375-1.1562 0.67188-1.5898 0.85547-1.9375 0.83984-3.8438 1.4688-5.6992 2.0938-4.0586 1.3594-8.2617 2.7656-12.266 5.9492l-0.82422 0.64453c-2.3867 1.8633-2.7109 2.3789-4.3047 5.9727-0.48828 1.1055-0.75781 1.9531-1.0352 3.0859-0.015626 0.015624-0.19531 0.16797-0.85547 0.48828-0.58594 0.28125-0.94922 0.26953-1.6562 0.23438-3.5938-0.11328-5.6289 1.4961-6.707 5.5781-0.85547 3.2695 0.078124 6.8555 2.3672 9.2891-3.3516 0.33594-7.7266 1.1836-9.7305 5.5859-3.9688 3.2812-5.1523 8.8906-4.543 13.082 0.76953 5.3984 3.6758 7.0156 5.7969 8.2031 0.21875 0.125 0.42578 0.23828 0.62891 0.35547-5.3555 4.9141-14.254 9.4844-20.566 11.297-7.2539 2.0703-13.441 2.5117-20.602 3.0312l-13.125 1.0547 5.832 5.4688c9.2109 8.6523 25.418 5.2344 37.371 0.85938 9.7109-3.5547 17.316-6.9648 25.766-10.988 2.6406-1.2617 4.5156-2.7227 6.0078-3.8984 2.3867-1.8672 3.4727-2.7852 7.0898-2.8789 0.65234 0.007813 1.4844-0.007812 2.3594-0.027344 2.3516-0.054687 7.2305-0.16797 8.6445 0.72656 2.8906 1.8203 2.1992 9.2461 1.6523 15.219-0.41406 4.4727-0.80469 8.6953-0.050781 11.977l0.52344 2.2969 2.3242 0.40625c2.625 0.45313 4.4883 1.5469 5.5312 3.2344 1.2383 2.0078 1.3711 4.957 0.36328 8.2812-2.8125 9.2969-4.1797 18.605-4.1875 28.449-0.007812 8.1406 2.9414 12.328 5.7891 16.371 1.4492 2.0586 2.8203 3.9961 3.8906 6.5859l0.40625 0.98828c3.4023 8.2031 7.2539 17.508 14.953 22.961l4.4297 3.1445c0.55469 1.3359 1.2969 2.6797 2.3867 3.9766 1.5039 1.8047 6.4688 7.3984 9.3789 9.4766 3.6953 2.6406 7.7266 2.5391 11.25 2.4492 2.043-0.042969 3.9844-0.10547 5.6055 0.39062 2.918 0.875 4.6133 2.6953 6.7617 4.9922 0.57422 0.61719 1.1562 1.2305 1.7578 1.8359 4.0391 4.0234 7.6016 5.0625 11.383 6.1523 1.5469 0.44141 3.2344 0.92969 5.1523 1.707 0.69922 0.28516 1.3438 0.46094 1.9336 0.57422v0.070313c-0.035157 0.74219-0.078126 0.83984-1.4844 1.8398-1.2461 0.875-2.9453 2.0938-4.1641 4.3477-2.7656 5.0977-2.1367 13.574-1.2812 20.398 0.85938 6.8672 4.8867 13.336 12.305 19.746 1.1953 1.0352 2.7734 2.0703 4.4453 3.1484 2.8633 1.8477 6.0977 3.9336 7.0547 6.2852 1.3281 3.2773 0.32812 10.738-0.32813 15.672-0.24609 1.8008-0.46094 3.4219-0.58203 4.7617-0.72656 8.2734-0.88281 16.969-0.46094 25.852 0.14062 2.8633 0 6.0469-0.125 9.3242-0.28125 6.9922-0.57422 14.238 1.3516 20.379 1.1953 3.8281 2.3711 4.9766 4.7617 6.6719 0.57422 0.39844 1.2617 0.89062 2.1367 1.6016 0.85938 0.70703 1.6875 1.9023 2.5625 3.1914 1.3984 2.043 2.9805 4.3477 5.4531 5.5664 1.8555 0.92578 4.6758 1.4062 7.6445 1.4062 4.0117 0 8.2891-0.88281 10.801-2.7422 2.0664-1.5312 3.0312-3.7383 2.6328-6.0625-0.54688-3.1992-3.5078-5.3672-6.3789-7.4609-1.2734-0.92578-2.8477-2.0781-3.3594-2.8008-1.8672-2.6602-2.4219-7.5586-1.6328-14.59 0.23828-2.1406 0.76953-4.4648 1.6367-7.1172l0.28516-0.89062c0.28516-0.89453 0.42578-1.3984 0.77734-1.7656 0.52344-0.39062 1.2656-0.95312 2.3711-1.9336 1.1562-1.0234 2.3086-1.793 3.3516-2.4922 2.7227-1.8398 5.9727-4.0312 6.2852-8.8477 8.1406-1.875 13.707-14 15.926-22 0.98047-3.5078 3.457-5.082 6.5938-7.0781 3.5781-2.2617 8.0273-5.0898 9.918-11.367 0.9375-3.1094 0.86719-6.2227 0.79688-9.2266-0.089844-3.8281-0.16016-7.1328 1.8984-9.5547 0.80469-0.95312 2.1406-1.8984 3.4297-2.8281 2.7422-1.9531 5.8516-4.1875 6.1094-7.9453 0.16797-2.5352-1.0586-5.0117-3.7578-7.5469-4.1719-3.9219-14.84-7.4844-18.594-8.5273-2.1016-0.58984-4.4258-0.78906-6.6641-1-3.0781-0.26562-6.5742-0.58203-7.7422-1.9023-0.30859-0.35547-0.58203-1.5664-0.76953-2.457-0.32812-1.4766-0.70703-3.1484-1.6719-4.6758-2.1406-3.3516-8.1328-8.5117-11.527-10.352-4.5078-2.4766-10.137-4.8711-15.848-6.7461-9.7422-3.1992-17.109 0.11328-23.609 3.0156-3.457 1.5547-6.7773 3.0391-10.383 3.6133 0.007812-0.027344 0.015625-0.054688 0.019531-0.085938 0.89062-2.9531 2.1055-7-0.65625-10.988-2.1719-3.1289-4.957-3.9258-7.4844-4.0742 0.29297-0.60156 0.55469-1.2617 0.74219-1.9805 0.79688-3.1562 0.47656-4.4453-0.26562-6.8242l-1.2188-4.1211-2.7734 0.11719c-3.2812 0.13281-4.6484 1.9102-5.8086 3.3516-5.2422 3.0859-10.004 2.793-11.426 1.4062-1.0977-1.0703-0.62891-3.7852 1.2188-7.0977 3.1562-5.6641 4.7734-7.2031 10.137-7.2031h0.027344c3.6484 0.007812 4.2969 1.168 5.7109 3.7305 1.3516 2.4375 3.1992 5.7734 8.0625 6.832 2.9805 0.64453 5.375 0.37109 7.2656-0.875 2.7578-1.8125 3.3828-4.9844 3.8867-7.5312 0.23047-1.2109 0.45312-2.3594 0.84766-3.2422 1.0234-2.332 2.0039-4.1875 2.9961-6.0625 0.97266-1.8398 1.9531-3.7109 3.0039-6.0195 2.1406-4.7305 5.6836-7.5586 9.793-10.82 0.89453-0.72266 1.8125-1.4492 2.7305-2.2031 1.0156-0.83984 1.8906-1.7227 2.7148-2.5703 1.2656-1.2812 2.2617-2.2969 3.5352-2.793 0.75781-0.29297 1.8047-0.28125 3.0391-0.26562 1.918 0.015625 4.3242 0.050781 6.8242-1.1406 2.4766-1.1758 4.1445-2.2734 5.6055-3.2461 2.3711-1.5664 3.6758-2.4375 7.7617-2.7852 6.8477-0.58984 13.922-1.2031 13.285-13.168-0.32031-6.3281-3.4297-9.9766-6.4414-13.496-0.83984-0.98047-1.707-1.9883-2.5391-3.1133-2.3438-3.1445-3.8516-7.3008-4.0117-11.109-0.17578-4.0469 1.3711-8.2266 3.0117-12.648 2.4023-6.4961 5.1328-13.859 2.0664-21.629-0.84766-2.1484-2.2266-4.5586-3.5547-6.8867l-1.3594-2.4062c-0.77734-1.4297-1.9336-2.2695-2.7734-2.8789-0.24609-0.17578-0.61719-0.44141-0.60156-0.38672-0.11719-0.30078-0.14844-1.2539-0.16797-1.8828-0.035156-1.168-0.078125-2.5-0.48438-3.7812-0.75-2.4297-2.9062-8.3516-6.9805-12.398 2.1016-1.1406 3.9414-2.7383 6.0469-5.4453 0.6875-0.88281 1.4492-2.1133 2.2734-3.4648 0.85938-1.4062 1.625-2.582 2.3047-3.5195-0.14844 5.25 0.40625 11.957 8.2812 14.141 2.0781 0.58203 3.8984 0.42578 5.2305 0.32812 1.6523-0.13281 1.6523-0.13281 2.0039 0.32813 0.90234 1.457 0.875 8.168 0.18359 11.809-0.52344 2.7031-1.1328 5.3125-1.7344 7.8945-1.5664 6.7539-3.1914 13.742-3.1016 21.727 0.070313 5.9922 2.8438 10.324 5.293 14.148 1.8984 2.9453 3.5195 5.4883 3.6953 8.3438l0.1875 3.1992 3.1992 0.13281c7.2656 0.30859 12.09-1.0938 15.547-9.1836 0.57422-1.3281 0.82031-2.9805 1.0586-4.5781 0.14844-0.96094 0.39062-2.5703 0.98047-3.1484 0.97266-0.007813 2.6055-0.027344 4.4297-1.3008 2.625-1.8281 3.7383-4.4023 4.6289-6.4805 0.77734-1.8203 1.3086-2.9688 2.1836-3.5625 0.55469-0.23047 2.4844-0.45313 3.4141-0.56641 1.0156-0.11719 1.8984-0.23828 2.457-0.36328 1.1406-0.27344 2.4766-0.75781 3.8086-1.2539 0.84766-0.31641 1.6953-0.62891 2.4727-0.85938 10.875-3.2539 11.664-9.293 12.422-15.141zm-132.56 181.73c0.42188-0.76172 1.0156-1.2109 2.0312-1.9336 1.6953-1.2031 4.2617-3.0234 4.4727-7.2656 0.10547-2.1133 0.28516-5.8164-3.2617-6.9648 3.5195-0.88281 6.6914-2.2969 9.6328-3.6172 6.1055-2.7305 11.375-5.0898 18.5-2.7578 5.3047 1.7422 10.508 3.9492 14.652 6.2305 2.4648 1.3438 7.5117 5.6836 8.9531 7.9648 0.29297 0.45312 0.51953 1.4414 0.72656 2.3945 0.38672 1.7227 0.85937 3.8711 2.3672 5.5938 3.0508 3.4648 8.043 3.9141 12.445 4.2969 2.0078 0.17578 3.9062 0.35156 5.3828 0.75781 4.8281 1.3438 13.188 4.5625 15.637 6.8594 1.3008 1.2266 1.5039 1.8477 1.5391 1.8477-0.24609 0.62891-2.0664 1.9336-3.1641 2.7109-1.5664 1.1289-3.3398 2.3945-4.7031 4.0039-3.8164 4.4883-3.6875 9.7109-3.5859 14.316 0.054688 2.5625 0.11719 4.9844-0.49609 7.0156-1.1328 3.7578-3.6953 5.3828-6.9375 7.4336-3.5273 2.2344-7.918 5.0195-9.6328 11.164-2.1836 7.8594-7.6016 18.191-12.039 16.926l-5.6758-1.5117 1.3086 5.7266c0.73438 3.2344 0.24609 3.5625-2.9414 5.7188-1.2734 0.85938-2.668 1.8047-4.082 3.0664-0.90234 0.79688-1.5039 1.2617-1.9375 1.5898-2.0039 1.5117-2.3047 2.2695-3.2539 5.2578l-0.28125 0.85937c-1.0156 3.1016-1.6523 5.8945-1.9375 8.5195-1.0156 9.043-0.097656 15.23 2.8828 19.461 1.1836 1.6719 3.1094 3.0742 4.9688 4.4453 0.96094 0.69922 2.4219 1.7656 3.1562 2.457-2.2031 1.043-8.2383 1.4648-10.52 0.32812-0.82031-0.40625-1.8477-1.8984-2.7578-3.2266-1.0703-1.5625-2.2812-3.3242-3.9336-4.6758-1.0234-0.83203-1.8398-1.4141-2.5117-1.8906-1.4844-1.0508-1.4844-1.0508-2.0938-3.0117-1.5547-4.9688-1.2891-11.578-1.0273-17.969 0.14062-3.5 0.27344-6.8867 0.125-9.9453-0.40625-8.5664-0.25781-16.945 0.44141-24.898 0.11328-1.2461 0.31641-2.7656 0.53906-4.4375 0.85937-6.3555 1.9258-14.266-0.125-19.301-1.8047-4.418-6.2227-7.2734-9.7773-9.5625-1.3633-0.89062-2.668-1.6992-3.6484-2.5547-6.0391-5.2227-9.2812-10.215-9.9102-15.281-1.0391-8.2148-0.875-13.648 0.47266-16.141zm-32.941-203.84c2.1055 0.30859 4.0586 0.13281 5.8086-0.070313-0.10547 0.48438-0.20312 0.97266-0.29297 1.4648-0.18359 0.91016-0.36328 1.8359-0.57422 2.7383-2.0078-0.82422-3.7852-2.2383-5.7383-3.8086-0.23047-0.18359-0.46094-0.37109-0.69922-0.55469zm158.47 21.203c-0.67188 5.1641-0.95312 7.3086-7.4062 9.2266-0.91797 0.27344-1.9102 0.63672-2.9102 1.0078-1.0508 0.39062-2.0938 0.78906-2.9766 1-0.36328 0.085937-0.96484 0.14844-1.6445 0.22266-2.7773 0.32031-4.8594 0.62891-6.3086 1.582-2.8984 1.8984-4.0586 4.6133-4.9922 6.7969-0.73438 1.7305-1.2383 2.8203-2.625 3.4844-1.2969 0.015625-3.7031 0.050782-5.9922 3.0469-1.2266 1.6016-1.5625 3.8086-1.9102 6.1523-0.14844 0.98828-0.35156 2.3398-0.56641 2.8281-1.4922 3.4844-2.6758 4.6836-5.8945 4.8984-0.86719-3.1562-2.5742-5.8242-4.2422-8.4219-2.1211-3.3125-4.1289-6.4414-4.1797-10.395-0.078125-7.125 1.3789-13.406 2.918-20.039 0.61719-2.668 1.2461-5.3633 1.7852-8.1562 0.019531-0.125 2.1406-12.543-1.4336-17.352-2.6953-3.625-6.0352-3.3672-8.2539-3.1914-1.0234 0.078125-1.9102 0.14844-2.7852-0.097656-2.9453-0.82031-3.2891-2.6094-3.0156-8.8008 0.078126-1.7148 0.14844-3.4375 0.050782-5.0664l-0.16797-2.7656-2.7227-0.51172c-6.082-1.1289-9.8828 5.1094-12.664 9.6602-0.67188 1.0938-1.2656 2.1016-1.8281 2.8125-2.8359 3.6484-4.2422 4.0547-10.5 5.8398l-22.898 6.5508 23.812 0.40625c4.2891 0.070312 7.7148 6.2383 9.3438 11.508 0.11328 0.36328 0.14062 1.2109 0.16016 1.8984 0.050781 1.4766 0.10547 3.1445 0.84766 4.6836 0.74219 1.5625 1.9609 2.4492 2.8477 3.0859 0.25781 0.1875 0.65234 0.46875 0.70703 0.52344l1.4297 2.5391c1.1562 2.0156 2.457 4.2969 3.1133 5.9727 2.0664 5.25 0.13281 10.492-2.1211 16.57-0.69141 1.8828-1.3633 3.793-1.9531 5.7383-1.5898-1.4844-4.0117-2.6758-6.5469-3.7031-3.6055-2.4492-8.2617-3.7383-12.266-3.7812-1.3945-0.085938-2.7734-0.054688-4.1211-0.027344l-2.3242 0.019532c-1.1953-0.015626-3.5352-0.53125-5.7969-1.0273-7.3867-1.6445-18.543-4.1289-21.902 4.082-1.6953 4.1719-0.39844 13.645-0.24609 14.715 0.90234 6.2031 3.4492 7.4961 7.5312 9.1055l0.89453 0.35547c0.72266 0.29297 1.3945 0.60156 2.043 0.89453 1.9102 0.875 4.1172 1.8984 6.6719 1.8984 1.3867 0 2.8711-0.30078 4.4609-1.0938 4.5273-2.2344 6.8047-8.2812 7.3867-10.074 0.46094-1.4219 0.8125-2.9961 1.1602-4.5938 1.2539-5.7383 2.0078-7.1328 3.9961-7.168 1.3867 0.089843 2.6523 0.32812 3.8359 0.875 0.89453 0.42187 2.1211 0.88281 3.4492 1.3945 0.55469 0.20312 1.1953 0.44922 1.8672 0.72266 0.80469 0.63672 1.4492 1.3633 1.8555 2.1641l1.4414-0.72656c0.82422 0.40625 1.4961 0.8125 1.8555 1.168l4.543-4.5078c-0.83203 2.8984-1.4141 5.8672-1.2812 8.9883 0.22266 5.1719 2.2461 10.793 5.4102 15.043 0.92969 1.2539 1.8984 2.3867 2.8281 3.4805 2.6406 3.0938 4.5508 5.3281 4.7539 9.2617 0.27344 5.1172 0.14062 5.1328-6.8164 5.7344-5.8789 0.50391-8.3984 2.1758-11.066 3.9336-1.2383 0.82031-2.6445 1.7578-4.7461 2.7578-1.0156 0.47656-2.2109 0.47656-3.6836 0.44922-1.7305-0.015625-3.6602-0.042969-5.7031 0.75781-2.6797 1.0508-4.4531 2.8438-6.0078 4.4258-0.67188 0.67969-1.3633 1.3984-2.1914 2.0781l-2.6172 2.1133c-4.418 3.5195-8.9883 7.1523-11.828 13.445-0.98047 2.1641-1.9023 3.9062-2.8125 5.6367-1.0703 2.0312-2.1211 4.0234-3.2188 6.5391-0.69141 1.5977-1.0156 3.2539-1.3008 4.7109-0.19531 0.99219-0.51953 2.6445-0.79688 2.9609 0 0-0.48438 0.1875-1.8906-0.11719-1.6602-0.36328-2.1992-1.2266-3.3594-3.332-1.625-2.9336-4.082-7.3633-11.906-7.3867h-0.027343c-9.5391 0-12.914 4.7031-16.34 10.844-4.8984 8.7852-2.0938 13.559 0.019531 15.625 4.0898 3.9883 12.082 3.9766 19.25 0.054688-0.17578 0.32031-0.38672 0.67187-0.62109 1.0352-0.80469 1.3164-1.8125 2.9336-1.9883 5.1641l-0.28125 3.625 3.6328 0.1875c1.1328 0.050782 2.2109 0.027344 3.2266-0.015625 2.9688-0.097656 3.4492 0.015625 4.1523 1.0234 0.74219 1.0781 0.48828 2.2695-0.30078 4.9062-0.47656 1.6016-1.0156 3.3828-1.0156 5.3008-2.1055-0.71484-3.8438-1.5977-5.8594-3.6055-0.54688-0.53906-1.0625-1.0938-1.582-1.6523-2.4219-2.582-5.1641-5.5078-9.9062-6.9297-1.9883-0.60156-3.9766-0.72656-5.8398-0.72656-0.67969 0-1.3359 0.015624-1.9805 0.035156-3.2188 0.078125-5.2773 0.0625-6.9648-1.1289-1.8281-1.3008-5.9297-5.7031-8.0703-8.2656-1.2266-1.457-1.6797-3.1641-2.2539-5.3281-0.55469-2.0586-1.1758-4.3828-2.625-6.707-0.78516-1.2617-1.6719-2.4844-2.5898-3.7188-0.16797-0.70703-0.35547-1.3789-0.57422-2.0156-1.1406-3.4141-3.1484-5.6211-4.9141-7.5742-0.8125-0.89453-1.5469-1.6992-2.1719-2.5742-0.21875-0.78906-0.36328-1.6016-0.41406-2.4297l-0.50391-2.7227-1.918-0.43359-9.6172-12.391 2.2461 9.2266c-0.125-0.17578-0.25391-0.35547-0.37109-0.52344-2.5195-3.5781-4.5078-6.3984-4.5-12.285 0.007813-9.1484 1.2812-17.785 3.8789-26.402 1.6016-5.3008 1.2031-10.297-1.1211-14.055-1.707-2.7656-4.3555-4.7617-7.7266-5.8516-0.078125-2.1641 0.18359-4.957 0.43359-7.6914 0.76953-8.3164 1.6367-17.73-4.9336-21.875-3.2266-2.0234-8.4219-1.8984-12.586-1.8125l-2.1484 0.035156c-5.5508-0.089844-8.8633 2.3047-11.516 4.3828-1.4219 1.1055-2.7578 2.1562-4.6953 3.0781-4.8008 2.2891-9.332 4.375-14.133 6.3984 4.082-2.5703 7.7891-5.543 10.316-8.6602l1.7148-2.1055-1.5703-2.1953c-1.7344-2.4062-3.6836-3.5-5.1094-4.2891-1.625-0.91016-1.9609-1.0977-2.2383-3.0234-0.37891-2.6445 0.53125-5.4688 2.1758-6.7148l-0.67188-0.88281 2.0781 0.19531c0.24609-2.582 0.82031-2.918 5.5312-3.3047 1.6719-0.13281 3.3594-0.29297 4.8711-0.70703 2.7852-0.75781 6.2422-1.6953 6.3477-4.9922 0.097656-3.0781-2.7578-4.0469-4.8438-4.7539-0.82422-0.27734-2.543-0.85156-2.9766-1.2617-0.69922-0.66406-1.0156-1.7852-0.76953-2.7227 0.027344-0.10547 0.058594-0.19922 0.085938-0.28906 1.043 0.042969 2.6797-0.054688 4.5781-0.98828 3.2188-1.5977 3.9141-3.1641 4.543-5.1992 0.14844-0.48438 0.32812-1.0781 0.83203-2.2031 0.89453-2.0312 0.89453-2.0312 2.0234-2.9062l0.88281-0.69141c3.0234-2.4062 6.3008-3.5 10.094-4.7734 2.043-0.67969 4.1289-1.3867 6.2734-2.3086 0.62109-0.27344 1.4141-0.70703 2.2734-1.2031 0.99219-0.56641 3.0664-1.7422 3.6523-1.7695 0.41406 0.11328 0.82031 0.64453 1.5977 1.7422 0.65625 0.9375 1.3438 1.8906 2.1992 2.7148 3.3242 3.2148 7.7695 4.7656 11.695 6.1406 2.6953 0.94531 5.25 1.8359 7.0898 3.1016 0.39844 0.27344 0.83984 1.0352 1.2734 1.7852 0.78516 1.3516 1.7578 3.0391 3.625 4.1523 2.6094 1.5469 5.3906 1.3164 7.6094 1.1289 1.1289-0.097656 2.1914-0.18359 2.9531-0.015625 2.4141 0.51953 4.4609 2.1562 6.8242 4.0547 3.2266 2.582 6.8945 5.5078 12.305 6.0391l2.7734 0.27344 0.92578-2.625c0.78906-2.2344 1.2461-4.5508 1.6953-6.7812 0.37891-1.9023 0.73437-3.793 1.3359-5.4961l1.5195-4.3398-4.5859-0.37109c-1.9023-0.14844-3.6758 0.0625-5.2422 0.25391-0.46094 0.054687-0.91016 0.10547-1.3438 0.14844 0.50391-1.9609 1.8359-3.3125 3.1992-4.0039 1.9102-0.98047 4.8438-1.1602 7.3359 1.2812 0.41406 0.40625 0.74219 1.0156 1.1289 1.7148 0.78516 1.4492 1.8633 3.4141 4.2969 4.6836 3.3047 1.7148 8.6875 0.9375 13.621 0.042969 0.99219-0.17578 1.9883-0.31641 2.9414-0.44141 5.1016-0.70703 12.102-1.6719 12.906-9.9883l0.26562-2.6875-2.5195-0.96875c-2.8359-1.0781-5.8398-1.0273-8.7578-0.98047-2.1836 0.035156-4.2852 0.0625-5.9492-0.40625-3.207-0.91797-7.6367-5.7539-8.457-9.2383-0.13281-0.56641-0.019531-0.72266 0.042969-0.8125 1.3867-1.9961 8.8906-2.9102 13.371-3.457 0.8125-0.10547 1.6094-0.19531 2.3711-0.29297-0.46875 0.72266-0.89453 1.4336-1.2305 2.1211l-2.0039 4.1289 4.5 0.89062c5.1328 1.0078 7.8477 0 9.4922-1.8203-0.44141 2.7227 0.37109 4.4531 1.2188 5.4023 0.79688 0.90234 2.2344 1.9102 4.6914 1.9102 0.28516 0 0.58984-0.015625 0.90234-0.042968l-0.94922-6.5508-5.4727-1.2109c0.75781-1 1.3008-2.1719 1.7422-3.375 0.53906-1.4648 1.0078-2.7305 2.3594-3.8906 1.3945-1.1914 1.3945-1.1953 3.8281 1.1328 2.0859 1.9961 5.2305 5.0195 9.9453 4.1992l2.8281-0.48828 0.10547-2.8633c0.28125-7.2656 1.7148-9.0781 10.227-12.949 7.1758-3.2617 15.547-3.5547 24.129-3.5078 6.9492 0.007813 7.4609 0.43359 12.355 4.4883 5.3828 4.4648 12.34 4.1211 19.137 3.7852 1.5742-0.078125 3.1914-0.21875 4.8438-0.35156 3.7188-0.31641 7.5586-0.63672 11.117-0.25391 3.8906 0.42188 4.4727 1.2812 6.0273 3.5703 0.98047 1.4492 2.1992 3.2422 4.3555 5.1602 2.1836 1.9375 5.3047 2.6797 8.0586 3.332 1.4414 0.34375 3.8633 0.91797 4.3555 1.4297 0.43359 0.57422 0.60938 0.8125-1.5625 3.5078-0.47656 0.58984-0.9375 1.168-1.3359 1.7422l-0.74219 1.0586c-2.1914 3.0859-4.2578 6-5.0117 11.023-0.25781 1.707-0.35547 3.332-0.46094 4.9141-0.16016 2.5352-0.30078 4.7266-1.1055 6.875-0.75 1.9883-1.6953 3.5977-2.7031 5.3047-0.94531 1.6016-1.875 3.207-2.6758 5.0664-1.6289 3.7969-2.0742 7.2539-2.4336 10.043zm-103.26 32.527c-0.82031 2.0078-1.2891 4.1641-1.6797 5.9766-0.29297 1.3516-0.58203 2.6875-0.96484 3.8984-0.90234 2.75-2.5273 5.3008-3.793 5.9219-1.3438 0.67188-2.1562 0.42578-5.0273-0.89062-0.74219-0.34375-1.5273-0.69922-2.3594-1.0352l-0.94531-0.37109c-2.7578-1.0938-2.7578-1.0938-3.1094-3.5273-0.62891-4.375-0.72656-9.7383-0.21094-11.02 0.42188-1.0234 1.8906-1.3789 3.793-1.3789 3.0664 0 7.2656 0.92969 10.004 1.5469 1.5547 0.33203 2.9922 0.65625 4.293 0.87891z" fill="#FFFFFF" stroke="#FFFFFF" stroke-linecap="round" stroke-linejoin="round" stroke-miterlimit="10" stroke-width="1"/>
  <path d="m447.61 382.38-0.34375 3.8711-4.5508-1.3516c-0.23047 0.72266-1.6797 3.1797-2.8633 5.1641-5.9414 10.051-10.227 18.129-6.9453 23.102 0.95312 1.4297 2.8086 2.9883 6.418 2.9883 0.59375 0 1.2461-0.042969 1.9336-0.13281 7.75-1.0234 15.785-14.707 15.59-23.539-0.125-5.832-3.5703-9.6016-9.2383-10.102zm-7.2812 26.594c-0.83203 0.11719-1.3164 0.089844-1.4922 0.14844-0.35156-2.8359 5.0469-11.957 7.125-15.457 0.97266-1.6445 1.7227-2.9336 2.2969-3.9844 0.95313 0.36328 1.4648 1.1406 1.5039 2.9414 0.13672 6.4688-6.3672 15.961-9.4336 16.352z" fill="#FFFFFF" stroke="#FFFFFF" stroke-linecap="round" stroke-linejoin="round" stroke-miterlimit="10" stroke-width="1"/>
  <path d="m651.47 399.66c-0.53906-1.0703-1.0508-2.1992-1.5742-3.3477-2.5273-5.543-5.3984-11.816-11.934-14.789l-2.2031-1.0078 1.0586-1.2305c0.45312-0.53125 1.0234-1.1406 1.6094-1.7578 2.9609 1.8633 6.168 2.6875 9.0781 3.4297 0.39062 0.097656 0.76953 0.19531 1.1562 0.30078 2.2539 1.4141 4.8594 2.6758 8.0586 3.4141l16.547 3.8867-13.621-10.172c-2.5703-1.9102-5.3906-2.9336-8.0625-3.6836-1.1406-0.77734-2.2461-1.6445-3.4141-2.5547-2.4766-1.9258-5.0469-3.9336-8.4219-5.4336-4.2266-1.8984-8.3945-2.3047-12.41-2.7109-1.5547-0.14844-3.0586-0.29297-4.5273-0.52344l-0.015625-3.5859h-1.7344c-1.7852 0-3.5859 0-5.3398 0.050781l-2.8359 0.078125-0.53906 2.7852c-0.15234 0.77734-0.21875 1.7344-0.25781 2.6875 0.035156-1.9023 0.097656-3.8203 0-5.6836l-0.17578-3.5156-3.5195 0.14844c-0.15234 0-0.56641 0.007812-0.44922 0.054687l-3.2969-0.90234-1.0234 3.2617c-0.27344 0.875-0.51172 1.6094-0.72656 2.2109-0.43359-0.054688-0.88281-0.078125-1.3789-0.042969-1.9023 0.10547-3.2422 0.84766-4.2617 1.6523l-0.25781-19.09c3.4219 5.0391 5.5156 7.7344 8.6328 6.5234 3.6953-1.3594 4.4922-4.0469 4.6328-5.5234 0.57422-5.832-7.1523-11.984-8.3438-12.703-3.6758-2.2461-3.668-2.4727-3.4727-6.0625 0.089844-1.5117 0.18359-3.3125 0.0625-5.5664l-0.33594-2.9805-2.9453-0.37109c-0.79687-0.097656-1.7227-0.20312-2.9766-0.015625l-2.8203 0.43359-0.17578 2.8477c-0.11328 1.8477-0.11328 3.7461-0.10547 5.6211v0.86719h-0.097657c-2.5625 0-5.1016 1.1289-6.7344 3.0781l-4.9062 5.8945 7.6641-0.085938c2.1758-0.042969 3.8906 0.23047 5.2578 0.875l6.1523 26.879c-0.19531 0.17578-0.41406 0.37109-0.57422 0.53125-0.027344 0.027343-0.054687 0.054687-0.078125 0.085937l-0.39844-0.78516-4.5234 1.8477 1.6992 1.1406-0.61719-0.14844-1.2969-0.32812c-0.089843 0.35156-0.37109 1.3945-0.28516 2.6602l0.17578 2.7852 2.75 0.47656c0.54687 0.10547 1.0508 0.14844 1.5391 0.14844 1.1953 0 2.2031-0.27344 3.0664-0.66406 2.4727-0.097657 4.4531-0.35547 6.0898-1.0625 1.0938 0.875 2.6328 1.6992 4.7461 1.5547l3.1445-0.19531 0.16797-3.1445c0.015625-0.31641-0.015625-0.62891 0-0.94531 0.019531 0.85547 0.035156 1.7148 0.14844 2.5l0.40625 2.8828 2.918 0.16016c2.9531 0.16016 5.8672 0.25781 8.7656 0.35156 2.0586 0.078125 4.1094 0.14844 6.1797 0.23047v0.042969c0.015626 1.2656 0.027344 2.5352 0.11328 3.7734l0.125 1.8281-3.1016-0.14844c-5.6562-0.28125-11.438 0.21875-16.879 0.73438l-3.0312 0.30078-0.16797 3.0312c-0.097656 1.5195-0.035156 2.8008 0.027344 3.9219 0.035156 0.6875 0.085938 1.6328 0.16016 1.6445-0.015625 0.007813-0.25781 0.22266-1.0977 0.50391-0.39844 0.085938-1.3945-0.16016-2.0664-0.30859-1.3984-0.30078-2.9531-0.66406-4.6562-0.43359-4.4805 0.54688-5.5312 1.2969-8.0859 4.2695l-0.55859 0.63281c-1.6094 1.875-2.4375 4.3906-3.1641 6.6094-0.39844 1.2109-1.0586 3.2266-1.5312 3.6602-0.31641 0.17578-1.6367 0.070312-2.3672 0.015625-1.5625-0.11719-3.3242-0.25781-5.1328 0.34375-6.5469 2.1836-6.4336 6.3906-6.3555 9.4727 0.027344 0.96484 0.070313 2.0859-0.10547 3.3945-1.2383 9.5391-2.3086 18.934-1.7344 29.023l0.17578 3.1562 3.1562 0.18359c5.0039 0.27344 8.8477-0.91016 12.531-2.0664 1.4961-0.46875 3.0469-0.96484 4.7656-1.3633 1.1562-0.26562 2.1992-0.44141 3.1992-0.60938 2.5625-0.43359 5.2148-0.875 8.4297-2.6445 0.75781-0.42188 1.3281-0.90234 1.8008-1.4062 2.75 3.5625 6.4688 5.8164 9.8203 7.8555 2.4492 1.4922 4.7617 2.8984 6.5664 4.6602 2.4062 2.3398 2.9336 6.2852 3.4805 10.465 0.38672 2.918 0.77734 5.9375 1.8359 8.7852l0.61719 1.6523 1.6875 0.50391c0.92969 0.28125 1.7695 0.39844 2.5195 0.39844 1.4961 0 2.6406-0.44922 3.4219-0.91797 3.0742-1.8477 3.8359-5.6055 4.5078-8.918 0.21875-1.0703 0.55859-2.7734 0.67188-3.375 6.4531-2.2188 8.0352-8.6367 9.4766-14.469l0.28125-1.1055c0.96094-3.8438 3.1484-6.6484 5.4688-9.6172 3.0508-3.9141 6.5117-8.3242 6.9453-15.254 0.43359-6.7422-3.3164-11.57-6.6133-15.836-1.6055-2.0664-3.1172-4.0195-4.1758-6.1133zm-20.301-13.77 1.8008-2.1055-0.019531 0.86719c-0.085938 3.1797-1.0273 6.2578-1.8906 7.6641-0.015625-1.1602-0.007813-2.3242 0-3.4844 0.015625-1.8984-0.007813-3.7812-0.070313-5.6641zm18.559 46.605c-2.5469 3.2617-5.4375 6.9492-6.7695 12.258l-0.28125 1.1289c-1.4648 5.9375-2.3164 8.7422-5.2227 9.6094l-0.085937-0.1875c-0.25781 0.11328-0.50391 0.23828-0.74219 0.37891-1.0625 0.18359-2.3711 0.14844-4.0039-0.019531l-0.75 7.0508c0.28516 0.035156 0.56641 0.054688 0.84766 0.078125-0.089844 0.42578-0.17578 0.83984-0.25781 1.2539-0.078126 0.37109-0.16797 0.83984-0.28125 1.3242-0.11719-0.75781-0.21875-1.5547-0.32813-2.3438-0.65234-4.9648-1.3867-10.586-5.5586-14.637-2.3867-2.3242-5.1523-4.0039-7.832-5.6367-3.7734-2.2891-7.3359-4.4609-9.1367-8.0938l-0.83984-1.707-1.8828-0.23828c-0.42187-0.054688-0.80469-0.078125-1.168-0.078125-3.3945 0-4.7891 2.1484-5.7031 3.5195-2.1484 1.1914-3.8359 1.4688-6.1797 1.8633-1.1406 0.18359-2.3398 0.39844-3.6484 0.69922-1.8906 0.44141-3.6055 0.98828-5.2656 1.5039-2.3438 0.72656-4.4609 1.3984-6.7891 1.6602-0.15234-8.2383 0.76172-16.191 1.8203-24.277 0.22266-1.7422 0.19531-3.2188 0.16016-4.5078-0.019531-0.70703-0.042969-1.6602 0-1.8398 0 0 0.28516-0.30859 1.5039-0.71484 0.43359-0.15234 1.4414-0.078125 2.332 0 2.2031 0.18359 5.2227 0.42188 7.6914-1.8359 1.8672-1.6797 2.6953-4.2344 3.5078-6.707 0.51953-1.5977 1.1133-3.3867 1.793-4.1797l0.54688-0.63672c1.3594-1.5898 1.3594-1.5898 3.5625-1.8555 0.53125-0.078125 1.4648 0.14844 2.2969 0.32812 1.7422 0.37891 3.7109 0.78516 5.7461 0.125 6.1875-2.0703 5.9766-6.2227 5.832-9.2539-0.007813-0.042969-0.007813-0.085938-0.007813-0.13281 3.0938-0.26563 6.2578-0.47656 9.3398-0.48828 0.007813 0.96094 0 1.918-0.007812 2.8789-0.015625 2.4414-0.027344 4.8789 0.13281 7.2812l0.11719 1.8984 1.6445 0.96094c3.6953 2.1289 6.5586 1.1328 7.9375 0.36328 2.8828-1.6172 4.4375-4.9414 5.2773-8.0078 1.7344 2.1914 3.0312 5.0391 4.375 7.9805 0.55859 1.2383 1.1133 2.4492 1.6875 3.5859 1.3594 2.7148 3.1562 5.0312 4.8945 7.2812 2.9102 3.7461 5.4023 6.9805 5.1523 11.031-0.29688 4.7266-2.6875 7.7891-5.457 11.336z" fill="#FFFFFF" stroke="#FFFFFF" stroke-linecap="round" stroke-linejoin="round" stroke-miterlimit="10" stroke-width="1"/>
  <path d="m699.41 462.12c-0.14844-0.52344-0.31641-1.1289-0.49609-1.9258-0.23047-0.89453-0.72656-1.5195-1.2461-1.9688 0.42578-0.76172 0.75-1.6523 0.75781-2.6875 0.042969-4.4453-1.0273-7.6289-3.1914-9.4766-1.1406-0.97266-3.0859-2.0352-6.1445-1.5391l-1.9688 0.32031-0.74219 1.8633c-1.2383 3.1133-1.6641 6.9375-2.0938 10.633-0.53125 4.7266-1.0938 9.6094-3.1914 11.844-1.0938 1.168-3.332 2.3398-5.4883 3.4727-5.5234 2.8828-14.785 7.7227-9.8281 18.629l0.96484 2.1406 2.3516-0.054687c4.5352-0.125 8.0938-3.3125 8.6328-7.7578l-6.1602-0.75c0.42188-1.9805 2.6875-3.5 7.3203-5.9219 0.22266-0.125 0.44922-0.23828 0.67969-0.35156-0.91797 0.69141-1.8008 1.3281-2.625 1.8984l3.9961 5.8594c4.9336-3.375 11.332-8.9727 15.227-13.328 4.1094-4.6211 4.4102-6.6758 3.2461-10.898zm-8.5469 6.1797c-0.70703 0.77734-1.5039 1.6172-2.3789 2.4766 1.3242-2.6602 1.9609-5.7891 2.4062-9.0039 0.44141 0.50391 0.95312 0.92578 1.4219 1.2891 0.089844 0.33594 0.17578 0.65234 0.25781 0.94531 0.15234 0.59375 0.37109 1.3281 0.35547 1.5273-0.023437 0.14062-0.26172 0.75-2.0625 2.7656z" fill="#FFFFFF" stroke="#FFFFFF" stroke-linecap="round" stroke-linejoin="round" stroke-miterlimit="10" stroke-width="1"/>
  <path d="m207.19 318.13c-1.5977 0.48828-3.1016 0.95312-4.1992 1.0352-2.9258 0.23047-5.7695-0.25781-7.5117-1.2734-0.92969-0.53125-1.7852-1.4492-2.6875-2.4062-2.0703-2.1992-4.8945-5.2227-10.066-4.5977l0.85938 7.0508c1.4648-0.17578 2.0859 0.32812 4.0391 2.4062 1.1562 1.2305 2.4727 2.6406 4.3125 3.6953 3.2812 1.8984 7.1328 2.2617 9.6875 2.2617 0.77734 0 1.4336-0.027343 1.918-0.070312 1.875-0.14844 3.8281-0.74219 5.7109-1.3164 4.7188-1.4414 6.5859-1.6719 7.6445-0.18359l5.7891-4.0898c-4.1953-5.957-10.992-3.8867-15.496-2.5117z" fill="#FFFFFF" stroke="#FFFFFF" stroke-linecap="round" stroke-linejoin="round" stroke-miterlimit="10" stroke-width="1"/>
  <path d="m29.301 307.06c-2.0234-0.60156-4.0898-0.30078-5.8398 0.83203l3.7656 5.9492c0.75781 0.078125 2.7578 2.0664 3.793 4.3828l6.4688-2.8984c-1.1172-2.5039-4.1055-7.0586-8.1875-8.2656z" fill="#FFFFFF" stroke="#FFFFFF" stroke-linecap="round" stroke-linejoin="round" stroke-miterlimit="10" stroke-width="1"/>
  <path d="m307.5 198.02c-1.0938 2.1133-0.62891 4.7539 1.2383 7.0703 1.6719 2.0664 4.5156 3.8359 7.6172 3.8281 0.69141 0 1.3984-0.085937 2.1133-0.28125 6.1094-1.6641 7.7227-5.4805 7.1836-8.5039-0.74219-4.2266-5.6836-7.3203-11.012-6.8477l0.59375 7.0625c0.16016-0.015625 0.32031-0.015625 0.48438-0.015625 1.6953 0 2.8008 0.74219 3.0508 0.46094-0.11328 0.14844-0.71484 0.60938-2.1641 1.0078-0.98828 0.25781-2.4375-1.0234-2.625-1.6016 0.050782 0.15234 0.0625 0.62891-0.21094 1.1328-0.0625 0.11719-0.13281 0.21875-0.21094 0.30859l0.42578-6.5859c-4.1875-0.3125-5.8477 1.7383-6.4844 2.9648z" fill="#FFFFFF" stroke="#FFFFFF" stroke-linecap="round" stroke-linejoin="round" stroke-miterlimit="10" stroke-width="1"/>
  <path d="m665.99 215.28 3.4805-6.168c-0.019531-0.019531-0.085938-0.11719-0.14844-0.30859l-6.7812 2.043c0.59375 1.9844 1.7812 3.5156 3.4492 4.4336z" fill="#FFFFFF" stroke="#FFFFFF" stroke-linecap="round" stroke-linejoin="round" stroke-miterlimit="10" stroke-width="1"/>
  <path d="m681.91 217.43c0.60938 0.0625 1.1211 0.17578 1.3633 0.29297l3.1289-6.3633c-2.0078-0.98828-4.7656-1.1406-7-0.92969-0.6875-0.42188-1.4297-0.78906-2.0859-1.2188l-3.8633 5.9414c2.3164 1.5039 4.8164 2.9805 7.3984 4.3125z" fill="#FFFFFF" stroke="#FFFFFF" stroke-linecap="round" stroke-linejoin="round" stroke-miterlimit="10" stroke-width="1"/>
  <path d="m655.3 201.43-3.5781 6.125c0.42188 0.24609 0.64453 0.51172 0.76953 0.94531l6.7773-2.0938c-0.65234-2.1211-2.0156-3.8438-3.9688-4.9766z" fill="#FFFFFF" stroke="#FFFFFF" stroke-linecap="round" stroke-linejoin="round" stroke-miterlimit="10" stroke-width="1"/>
  <path d="m558.53 364.07c-0.85547-0.54688-1.6719-1.0586-2.3164-1.582-1.6797-1.3789-2.8086-3.3477-3.9062-5.2422-0.49609-0.86719-0.98828-1.7148-1.5195-2.5 0.43359 0.18359 0.88281 0.39062 1.3164 0.56641 1.8203 0.76172 4.0898 1.7148 4.7383 2.5117l7.7422 9.5898-1.4766-12.242c-0.36328-3.0664-2.2031-5.0312-3.5547-6.4688-0.82422-0.875-1.5312-1.6328-1.793-2.4297-0.16797-0.51172-0.25391-1.2031-0.28125-1.9727 2.1289 1.9336 4.6133 3.6484 7.6914 2.9609 3.7031-0.80469 5.5234-4.6133 6.5664-7.4062 2.2461-6.0391 0.20312-9.9453-1.7773-13.715l-0.72266-1.3945c-0.21094-0.42188-0.39844-0.79688-0.55469-1.168 0.61719 0.17578 1.3594 0.25781 2.1211 0.27344 4.2695 0 5.3984-3.1719 5.7812-4.668 1.3633-0.82422 2.7734-1.457 4.1523-2.0781 3.3047-1.4961 7.043-3.1836 10.004-7.1172 5.5664-7.3789 4.3672-14.848 2.75-21.59l2.2344 0.43359c3.207 0.60937 5.2305-0.55859 6.3789-1.6602 0.089843-0.078125 0.14062-0.18359 0.21875-0.26562-0.37891 1.707-0.46875 3.6953-0.23828 6.2383l0.53125 5.7969 4.9141-3.1367c2.4766-1.5898 4.0234-3.8711 5.3984-5.8789 1.1328-1.6719 2.1133-3.1133 3.332-3.793 0.65234-0.37109 1.9531-0.48438 3.207-0.59375 3.1016-0.28125 8.3008-0.74219 10.27-6.6484 1.3789-4.1445-0.28516-8.3633-1.7695-12.09-1.0352-2.625-2.1133-5.3281-1.6992-7.0625 0.21094-0.89063 1.0078-1.6445 2.2695-2.8008 1.3008-1.1758 2.9102-2.6406 3.9531-4.8008l-5.0273-2.4492-0.74219-3.1484c-1.0977 0.24609-2.4141-0.1875-3.4297-0.76953l3.2266-0.085938-0.25391-3.6953c-0.31641-4.4258-2.6953-9.4141-4.8008-13.824-0.51953-1.0938-1.0234-2.1406-1.4648-3.1211-0.31641-0.69922-0.53125-1.5391-0.77734-2.3945-0.65625-2.3086-1.3984-4.9336-3.3594-6.7188-1.8125-1.6719-4.2891-1.9961-6.4805-2.2812-1.1055-0.14844-2.2461-0.29297-3.0156-0.58984-1.5547-0.60156-5.8867-2.8633-6.4102-3.2422-0.31641-0.53125-0.40625-0.84766-0.46094-0.88281 0.52344-0.60156 2.7422-1.3711 3.8203-1.75 1.0703-0.37109 2.0508-0.72656 2.8008-1.0977 2.5625-1.2812 4.668-2.8477 6.5312-4.2266 3.4922-2.5977 6.3906-4.6133 11.164-4.5156l0.67188 0.015625c-0.79688 6.2852-1.6094 12.781 1.043 17.348 1.2305 2.1055 2.9883 3.3047 4.3906 4.2617 1.4766 1.0078 2.2031 1.5391 2.5391 2.5742 0.56641 1.7656 0.33594 4.7969 0.125 7.4688-0.16016 2.1211-0.30859 4.1797-0.1875 5.9375l1.168 17.676 7.0078-20.477c1.5195-4.332 2.9453-8.4219 4.1562-13.062 0.38672-1.4688 1.1211-3.0938 1.8672-4.7617 1.3008-2.9258 2.6445-5.957 2.8555-8.9727 0.28516-4.1172-1.582-7.125-3.0742-9.5391-0.78516-1.2734-1.5312-2.4727-1.8672-3.6523-0.13281-0.44141-0.078124-0.89453-0.11719-1.3438 0.48438 0.1875 0.98828 0.30859 1.4414 0.32031 0.027344 0 0.054688 0.007813 0.085938 0.007813 4.5234-0.007813 6.7617-7.4062 7.5039-10.598 0.21875-0.91016 0.31641-2.0703 0.39062-3.2773 0.054688-0.90234 0.15234-2.4023 0.35547-2.8203 0.14844-0.23828 0.15234-0.25781 0.97266-0.50391 0.94531-0.28516 2.3789-0.72266 3.5195-2.1016 1.4219-1.707 3.0117-4.0039 2.7227-6.6133-0.28125-2.5391-2.1055-3.9531-3.4297-4.9922-0.79688-0.61719-1.5469-1.1953-2.0586-1.9727-1.043-1.5977-1.2812-3.1484-1.2461-5.5703 2.5 0.070312 5.4609-0.30859 7.1836-2.9062 2.1016-3.1484 0.51953-7.6797-1.2891-10.473 0.57422-2.2461 0.37109-4.2422-0.61719-5.9492-1.9102-3.2969-6.0195-4.1172-8.9453-4.4531-2.582-0.28516-5.1523-0.49609-7.6875-0.69922-3.1836-0.25781-6.3125-0.51953-9.3438-0.92578-9.2969-1.2656-18.633 1.2617-24.816 3.6133-0.62109 0.23828-1.3789 0.56641-2.2188 0.9375-1.4766 0.66406-5.418 2.4297-6.4688 2.0508l-1.5312-3.0742-3.1094 1.4023c-4.6289 2.0703-7.3281 1.9453-11.27 0.89453-3.4297-0.91016-6.1602-1.6094-10.52-1.4141-0.76172 0.035156-1.7305 0.14062-2.8203 0.25391-1.9688 0.21875-6.6016 0.70703-7.7266 0.078125-0.11328-0.125-0.25781-0.79688-0.33594-1.1562-0.29297-1.3867-0.97266-4.5156-4.4805-5.4727 0.38672-0.6875 1.2031-0.875 2.75-1.2461 2.5469-0.60156 6.8125-1.6016 8.0234-6.8164l1.0977-4.7305-4.8359 0.39062c-2.5977 0.21094-4.5273 1.8477-5.9492 3.0391-0.44922 0.38672-1.1289 0.95312-0.92969 1.0156-0.24609-0.070313-0.89453-0.54688-1.3242-0.85938-1.1406-0.83203-2.7148-1.9805-4.7812-2.1484-3.9531-0.32812-14.09 2.6094-17.758 6.3125-1.7344 1.75-1.9727 3.457-1.8828 4.5938l0.14844 1.7344 2.1836 1.4141c0.48438 0.32031 0.96094 0.62891 1.2188 0.77734l0.72656 0.42578 0.84766 0.050781c1.5273 0.089844 3.0469 0.14844 4.5508 0.19531 2.1836 0.078124 4.2773 0.14844 6.3125 0.32812 0.18359 1.6367 0.46094 3.1562 0.72656 4.6406 0.32812 1.7852 0.64453 3.5 0.77734 5.3555-2.668-0.33594-5.1602-1.4336-8.4297-2.9961-5.7969-2.7656-9.9453-2.8359-15.695-2.6328l-4.0898 0.14844 0.73438 4.0312c0.042969 0.22266-0.015625 0.80469-0.078125 1.2891-4.2148-0.29297-8.1758-3.6523-12.648-7.4414-6.7969-5.7695-15.266-12.941-26.23-7.0078l-1.3789 0.74219-0.18359 0.73438-1.7461-4.6055 5.1094-2.5625c-2.6367-5.2578-7.3711-4.9258-10.203-4.7188-1.2383 0.078125-2.3945 0.16016-3.2969-0.078125-1.6016-0.42188-2.9336-1.4414-4.4727-2.6172-2.8477-2.1836-6.4102-4.8945-12.34-3.8516l-2.7734 0.48828-0.16016 2.8086c-0.23047 4.0938-0.72266 12.629 6.5742 16.156 2.2461 1.0938 6.0273 1.5391 10.012 1.5391 4.9492 0 10.121-0.70703 13.105-1.7305-0.32031 1.2969-0.51953 2.6172-0.71484 3.9414-1.7656-0.18359-3.3516 0.027344-4.668 0.96094-2.1641 1.5273-2.2891 3.9844-2.4023 5.7695-0.070313 1.3164-0.14844 2.6758-0.75 3.9688-0.58984 1.0352-3.8359 4.375-5.9766 6.25 0-0.48828 0-0.9375 0.007813-1.2266l0.14062-10.219-6.4414 7.9453c-2.0781 2.5625-2.5078 6.875-1.8633 9.8086 0.19531 0.90234 0.51172 1.7227 0.91016 2.4414h-0.70703-0.1875l-0.007813-0.45703c-0.52344 0-1.0859-0.035156-1.6719-0.070312-3.0312-0.16797-8.1328-0.44922-10.652 4.0859-1.1211 2.0234-1.1602 4.5977-1.2031 7.0898-0.019531 1.4492-0.050781 3.2422-0.35547 4.0742l-0.30859 0.83203c-0.0625 0.17578-0.125 0.33594-0.16797 0.47656-0.48438 0.16016-1.1055 0.38672-1.9258 0.71484-0.72656 0.29297-1.3789 0.60156-1.9883 0.89453-0.77734 0.37109-1.3359 0.63672-1.8828 0.78906-1.0352-4.1641 0.14844-10.906 0.98047-15.598l0.53906-3.1914c0.31641-2.0703 1.5469-4.1992 2.8359-6.4453 2.0508-3.5547 4.375-7.5898 3.7578-12.621l-0.32031-2.6328-2.6172-0.43359c-8.6367-1.457-12.418 5.8789-14.891 10.738-0.65625 1.2891-1.2891 2.5469-1.9883 3.6172l-0.98828 1.4766c-2.5547 3.8203-5.4453 8.1562-6.0977 12.902-0.85937 6.2383 1.3867 12.152 6.418 17.148-0.035156 0.015625-0.070312 0.027343-0.097656 0.050781-1.7148 0.875-2.9453 1.8828-4.0391 2.7734-1.3867 1.1289-2.3945 1.9375-4.1797 2.3789-2.3242 0.57422-3.1797 0.57422-5.0547 0.042968-1.7578-0.49609-2.6328-1.4141-3.9766-2.793-1.1484-1.1914-2.4492-2.5352-4.4258-3.6602-2.582-1.4844-7.3164-3.1289-9.8555-3.8711-7.1875-2.1055-15.723-0.58203-23.352 4.1992-7.4609 4.6602-12.621 11.648-13.824 18.684-0.14062 0.82422-0.21875 1.6719-0.30078 2.5195-0.14844 1.6719-0.28516 3.1289-0.98828 4.0547-0.69922 0.9375-1.582 1.4336-2.7031 2.0508-2.0312 1.1406-4.8164 2.7031-6.0391 7.0977-1.2812 4.5977-0.20312 9.043 2.8086 11.586 1.4336 1.2109 3.1445 1.875 5.0195 1.9805-0.44141 2.8633-0.50391 5.5938-0.56641 8.2539-0.007812 0.28125-0.007812 0.55859-0.015624 0.83984-2.5742 0.58203-5.4453 1.2734-7.7852 3.2695-0.67188 0.57422-1.168 1.1953-1.6016 1.8281 1.0586-2.7656 1.5547-5.6406 1.1602-8.2656l-0.42188-2.8086-2.8359-0.20312c-1.0156-0.070312-2.0508-0.10547-3.0938-0.11719 0.10547-0.875 0.27344-1.8359 0.46094-2.918l-2.6758-0.25391c0.25781-1.3164 0.78516-1.9375 1.8906-2.4727l-3.0664-6.3906c-5.5312 2.6602-6.0469 7.6172-6.1406 11.594-2.1836 0.53906-4.1914 1.7695-5.4961 3.4922-1.7656 2.332-2.0234 5.2422-0.69922 7.9805 1.2305 2.5469 3.0938 3.0234 4.0938 3.0742 2.2969 0.078126 3.793-1.4688 4.9766-3.2266 1.8477 2.2617 4.6562 3.6484 8.0703 3.8164l1.7148 0.085938c-0.13281 0.20312-0.26562 0.50391-0.40625 0.65234-0.44141 0.43359-2.332 1.0586-3.457 1.4297-2.918 0.96094-6.2383 2.043-7.4844 5.0742-0.48437 1.168-0.80469 3.0742 0.42578 5.4805 1.3867 2.7031 3.9336 3.5273 5.4453 4.0195 0.33594 0.11328 0.83203 0.25781 0.92578 0.19531-0.085938 0.13281-0.36328 0.40625-0.84766 0.65625-1.3789 0.72266-5.0039 0.80469-7.6523 0.86719-2.5078 0.054687-4.8867 0.11719-6.8242 0.54688l-2.6328 0.58203-0.29297 4.8945c-0.47656 5.7734-1.1289 13.699 3.543 16.891 0.97266 0.66406 2.3672 1.0508 3.9141 1.2969-0.82422 2.0352-1.7578 3.8008-2.7305 4.9062-0.83984 0.94531-5.8594 5.4375-6.8945 6.0703-0.53125 0.29297-0.75 0.28516-1.5039 0.24609-1.9531-0.097657-4.2344 0.0625-6.6484 3.0156-2.5703 3.1445-2.8008 8.2461-2.9805 12.348-0.042968 0.98828-0.085937 1.8984-0.16016 2.6523l-0.28516 2.6797c-0.51953 4.6484-1.0977 9.9258-0.28516 14.617 1.2461 7.1758 5.8164 11.109 9.9961 14.23 6.6641 4.9922 13.488 6.2422 21.68 6.5938 1.8203 0.070313 3.7578-0.042968 5.7695-0.16016 4.2148-0.25781 8.582-0.52344 10.961 1.3867 1.2734 1.0156 1.3711 1.9102 1.4922 4.0469 0.097656 1.7344 0.21875 3.8984 1.4922 6.0352 1.6523 2.7773 4.1094 3.5859 5.7266 4.1172 0.92969 0.29297 1.4688 0.47656 1.8203 0.82422 2.0078 1.9688 2.5078 7.0273 1.3438 13.523-1.4062 7.7852-2.4023 14.363-1.3438 22.148l0.16797 1.2461c0.29297 2.3789 0.60938 4.8242 1.9453 7.5391 1.168 2.3516 2.4922 3.5273 3.6758 4.5586 0.58203 0.51172 1.2266 1.0586 1.8984 1.9102 2.0352 2.582 1.9805 5.7188 1.8984 9.7031l-0.027344 2.3086h3.543l-0.015625 4.1289c1.5664 0.007813 3.5781 0.26563 5.7188 0.53906 2.8008 0.35156 5.8086 0.72656 8.6328 0.72656 2.3711 0 4.6289-0.26563 6.5117-1.0508 3.7109-1.5273 6.6836-5.7031 9.2969-9.3867 0.77734-1.0938 1.4844-2.1016 2.1133-2.8477 3.2266-3.8555 7.2812-10.82 8.4297-16.121 0.36328-1.6328 0.23047-3.1719 0.11328-4.5234-0.089843-1.0234-0.1875-2.1914 0.078125-2.5703 0.22266-0.23047 1.3633-0.43359 1.9805-0.55469 1.3516-0.25391 2.8828-0.53125 4.207-1.5391 6.3281-4.7969 5.3398-12.605 4.543-18.887-0.58203-4.5977-1.1328-8.9453 0.83984-11.32 1.2617-1.5039 2.8203-1.9805 4.8008-2.6055 3.0156-0.92969 7.1484-2.2109 9.2969-7.7695 1.1602-3.0039 1.3984-6.0977 1.6328-9.0781 0.16797-2.1719 0.32031-4.2227 0.82422-6.0117l-2.6094-0.73437 1.5664-2.6953c-0.73438-0.43359-1.5625-0.98047-2.3594-1.4961 4.3203-0.14844 8.8047-1.3867 13.266-3.8086 6.168-3.3477 8.875-8.8359 10.375-12.676 1.9258-4.9219 1.918-8.1055 0.78516-10.352 0.67188 0.050781 1.0703 0.078125 2.1289 0.078125l2.5703-0.035157c4.6289-0.085937 4.668-0.089843 6.7266 3.6523l0.875 1.5625c1.1406 2.0352 2.2891 4.0898 3.1797 6.2227 2.0586 4.9336 2.6094 5.5938 6.5117 9.4375 1.5391 1.5195 2.8477 3.1367 4.1719 4.7617 1.625 1.9883 3.3125 4.0547 5.3828 5.9766 1.0859 1.0234 1.9531 2.1367 2.75 3.1367 1.8047 2.2734 3.6758 4.6328 6.7969 4.8086 1.9688 0.14062 4.0938-0.82031 6.1523-2.8984 6.3086-6.3477 3.0859-12.906 1.1602-16.828-0.78906-1.6172-1.7773-3.6328-1.4648-4.4023 0.085938-0.21875 0.72656-1.3633 4.6328-2.7656l2.1016-0.75 0.23828-2.2188c0.21094-2.0312 1.0352-2.4414 1.3086-2.5625 1.4141-0.70703 4.1797-0.16016 6.5742 1.3008 1.6016 0.98047 1.9609 1.9688 2.6172 4.1172 0.60156 1.9961 1.3594 4.4805 3.7539 6.6719 1.5547 1.4141 2.8008 1.9961 3.9141 2.4414 0.007813 0.015625 0.21875 0.32031 0.53906 1.4844 0.18359 0.66406-0.035157 2.2188-0.21875 3.4648-0.36328 2.6328-0.78516 5.6055 0.6875 8.168 1.2969 2.2734 3.4219 3.7578 5.6992 4.9414l-3.1641 3.4297-3.5977 0.99219c2.5977 9.4727 9.8281 14.184 16.203 18.348l6.9727 4.6914 1.3008-4.8008c1.6914-6.3477-3.9727-9.957-7.3438-12.129zm-96.18-242.69c-1.8984-0.91016-2.5547-2.9688-2.6602-5.9844 1.2383 0.37109 2.3711 1.1914 3.9492 2.4023 1.875 1.4297 3.9961 3.0586 6.9727 3.8359 1.0703 0.28516 2.1211 0.38672 3.1094 0.39062-4.5391 0.38281-9.6172 0.20703-11.371-0.64453zm130.22 163.27c-0.16797-0.66406-0.42187-1.5391-0.71484-2.5352-0.98828-3.4023-1.5195-5.8047-1.7773-7.5117 0.69141 0.83984 1.3281 1.6523 1.582 2.2031 0.63672 1.4961 0.82031 4.0039 0.98828 6.2227 0.070312 0.96094 0.13281 1.875 0.22266 2.7227l0.035156 0.26562zm22.875-19.191c-0.84766 1.6016-1.8125 3.4102-2.4297 5.5508-0.37891 1.3008-0.62891 2.332-0.83984 3.1797-0.56641 2.3242-0.56641 2.3242-3.2344 4.2266-1.8672 1.3359-3.3242 2.5625-4.4297 3.9141 0.77734-3.8555 0.21094-9.0078-0.64453-15-0.29297-2.0352-0.69922-4.8164-0.60156-5.5586 0.26562-1.75 0.44141-1.8359 2.1836-2.6406 1.4844-0.69141 3.5195-1.6367 5.4375-3.8906 1.3984-1.6523 3.1719-5.0977 4.4453-8.707l1.5039-0.19531c0.15234-0.019532 0.30469-0.019532 0.44531-0.039063l-0.23828 1.4336c-0.44141 2.7578-0.070313 5.2305 0.27344 7.3984 0.26562 1.7148 0.49609 3.1914 0.33594 4.6133-0.26562 2.0664-1.168 3.7617-2.207 5.7148zm7.5547 11.191c-0.41406 1.2305-0.82031 1.5273-4.1797 1.8281-0.17578 0.015625-0.35156 0.027343-0.52344 0.042969 0.28125-0.74219 0.51953-1.6016 0.76953-2.6445 0.1875-0.76953 0.42578-1.7148 0.76172-2.9062 0.34375-1.2109 0.91016-2.3594 1.5312-3.543 1.0859 2.7227 2.207 5.5273 1.6406 7.2227zm-77.441-154.09c2.5742-0.89453 5.1875-1.6172 6.4883-1.4648 0.14062 0.042969 0.39062 0.21094 0.67188 0.39844-0.28516 0.46094-0.52344 0.98047-0.73438 1.5625-2.1406-0.26953-4.2969-0.40234-6.4258-0.49609zm-117.78 41.84c0.43359-3.1289 2.7422-6.5781 4.9688-9.9258l1.0234-1.5273c0.83984-1.2656 1.6016-2.7578 2.3789-4.2852 1.4922-2.9258 2.6055-4.8242 3.7539-5.9023-0.53906 1.3086-1.3164 2.6523-2.1484 4.1016-1.4922 2.5898-3.1836 5.5234-3.7031 8.9023l-0.51172 3.0469c-0.89453 5.082-2.0312 11.551-1.1758 16.98-3.6055-3.4531-5.1523-7.2656-4.5859-11.391zm-60.832 118.68 0.007813-1.7695c-2.1914-0.007812-4.2773-0.14844-6.3555-0.28516-2.2695-0.15234-4.4805-0.21094-6.8594-0.30078-0.64453 0-1.3438 0.089843-2.0078 0.11719 0.37109-0.42188 0.78516-0.82031 1.1484-1.2305l1.0352-1.1758c1.3867-1.5469 2.0664-3.1289 2.6172-4.4023 0.14844-0.32812 0.27344-0.62891 0.42578-0.92578 0.007813 0.015625 0.019531 0.027344 0.027344 0.050781 1.2266 1.8008 2.8828 4.2695 5.7344 4.9062l4.1172 0.92578 0.14062-2.8086c1.3711 1.4688 2.8477 2.7383 4.332 3.5352 2.7227 1.4688 5.4258 1.8398 7.8203 2.1719 1.4961 0.20312 2.918 0.39844 4.1211 0.83984 1.3594 0.50391 2.7109 1.4688 4.1367 2.4922 0.9375 0.67188 1.8906 1.3594 2.9258 1.9727-2.2344-0.37109-4.5-0.58984-6.8945-0.49609l-1.875 0.078125-1 1.5977c-0.43359 0.70703-0.77734 1.4336-1.0352 2.1914-4.1289-0.76172-6.8594-1.8984-7.3906-2.6094-0.32031-0.43359-0.24609-2.0664-0.19531-3.1484 0.019531-0.58984 0.050781-1.1602 0.050781-1.7227l-5.0273-0.011719zm-33.25 5.0039 0.050782 0.11328-0.28516-0.097656c0.074218-0.007813 0.16016-0.015625 0.23437-0.015625zm210.44 40.824c-0.60156-0.27344-1.0781-0.48828-1.8203-1.1758-0.91797-0.83203-1.2539-1.8281-1.7656-3.5-0.72656-2.4062-1.7305-5.6836-5.7109-8.1055-4.6055-2.8008-9.75-3.4141-13.406-1.6016-2.3516 1.1602-4.0039 3.2422-4.7969 5.9648-3.6836 1.5977-5.9062 3.543-6.9141 6.0273-1.5117 3.7109 0.18359 7.1484 1.6719 10.191 2.1641 4.4023 2.6953 6.1758 0.17578 8.6992-0.32812 0.32813-0.57422 0.53125-0.69141 0.67188-0.44922-0.43359-1.1484-1.3164-1.6797-1.9727-0.99219-1.2539-2.1055-2.6445-3.4648-3.9219-1.7148-1.6016-3.1797-3.3867-4.7188-5.2773-1.4844-1.8125-2.9766-3.625-4.9141-5.5508-3.1211-3.0742-3.1211-3.0742-4.7188-6.8867-0.99219-2.3789-2.2539-4.668-3.5352-6.9453l-0.83984-1.5273c-3.9531-7.1875-6.8164-7.4219-13.082-7.3164l-2.4492 0.027344h-0.078125c-4.5234 0-7.0547-1.3633-10.871-3.4297-1.3711-0.74219-2.8281-1.5273-4.4922-2.3086-0.58203-0.27344-1.1328-0.55859-1.6602-0.86719-0.86719-0.83203-1.8203-1.6641-2.7383-2.4727-1.1055-0.98047-2.1641-1.875-2.793-2.6172l-5.6211 4.2891c1.7305 2.5742 3.9609 4.7031 6.7812 6.4453 0.125 0.125 0.23828 0.24609 0.35156 0.37109 0.30859 0.32031 0.47656 0.69922 0.78906 1.4062 0.56641 1.2891 1.3359 3.0469 3.4727 4.5703 2.0664 1.4922 4.0391 2.4219 5.6289 3.1641 3.5078 1.6602 3.5078 1.6602 1.7227 6.2227-1.793 4.5781-3.9336 7.2734-7.1602 9.0234-9.2734 5.0625-17.984 3.7461-24.484-3.6523-1-1.1406-1.8125-2.6875-2.668-4.3203-0.89062-1.6875-1.8008-3.3828-2.9531-4.9297-0.74219-1-1.625-2.0352-2.5469-3.1094-2.7383-3.207-5.5703-6.5234-5.0469-9.5469l-6.9922-1.2031c-1.0781 6.3086 3.207 11.324 6.6484 15.359 0.8125 0.95312 1.6016 1.8672 2.2539 2.7422 0.92969 1.2461 1.6328 2.625 2.3516 3.9766 1.0156 1.9375 2.0664 3.9336 3.6172 5.7109 2.4414 2.7734 5.207 4.8516 8.1602 6.3555l-1.0781 3.5195c2.3164 0.71484 5.2656 2.6523 7.8555 4.3555 0.35547 0.23047 0.67969 0.42578 1.0234 0.65625-0.23047 1.5195-0.39062 3.0391-0.51172 4.5234-0.19531 2.5898-0.38672 5.0312-1.168 7.0625-0.88281 2.2734-2.0352 2.7148-4.7969 3.5781-2.4648 0.75781-5.5352 1.7148-8.1328 4.8242-3.9531 4.7383-3.1484 11.121-2.4414 16.758 0.79688 6.2383 1.0625 10.18-1.6445 12.25-0.20312 0.097656-0.89453 0.21875-1.3438 0.30859-1.8984 0.35156-4.7617 0.88281-6.5586 3.5195-1.6953 2.4766-1.457 5.1992-1.2891 7.1875 0.085937 0.92969 0.15234 1.8125 0.035156 2.4023-0.76953 3.5703-3.8906 9.4375-6.9375 13.082-0.72656 0.85938-1.5625 2.0234-2.457 3.2891-1.7578 2.4727-4.4023 6.1875-6.2305 6.9453-2.3867 1-7.4609 0.35547-11.551-0.16016-1.043-0.14062-2.0352-0.25391-3.0117-0.35547 0.078125-4.3828 0.042969-9.2734-3.4297-13.684-1-1.2617-1.9023-2.0859-2.7734-2.8438-0.94531-0.82422-1.4648-1.2812-2.0039-2.3867-0.8125-1.6367-1.0234-3.2461-1.2812-5.2773l-0.16797-1.3242c-0.91797-6.7539-0.035156-12.508 1.3008-19.922 1.1484-6.418 1.5039-15.07-3.3516-19.84-1.5625-1.5312-3.3125-2.1016-4.5938-2.5117-1.3281-0.43359-1.582-0.56641-1.8359-1-0.36328-0.60937-0.42578-1.4648-0.49609-2.8008-0.14063-2.4648-0.35156-6.1758-4.1562-9.1992-4.5156-3.5898-10.508-3.2461-15.805-2.9102-1.7578 0.10547-3.4805 0.23828-5.0391 0.14844-7.2578-0.30078-12.488-1.2539-17.738-5.1719-4.1445-3.0938-6.5234-5.5781-7.2578-9.7734-0.63672-3.6875-0.11328-8.4336 0.35156-12.613l0.29297-2.7656c0.085937-0.86719 0.13281-1.9102 0.18359-3.0391 0.11719-2.5625 0.30859-6.8516 1.3945-8.1758l-2.75-2.2383 3.5898 1.8203c1.0859 0.042969 2.918 0.13281 5.1875-1.0859 1.9805-1.0625 7.8203-6.4531 8.8477-7.6094 1.6875-1.9102 2.8203-4.2148 3.7109-6.3281l0.23828 0.51172c4.8242-2.2383 12.375-3.8008 18.395-3.8008 1.9336 0 4.2773 0.14063 6.3828 0.28516 1.5742 0.10547 3.1797 0.16016 4.7891 0.21875 0.1875 1.3164 0.61719 2.6523 1.5312 3.8789 2.9688 3.9883 11.137 5.418 15.73 5.9062l4.25 0.45312-0.33594-4.2578c-0.015625-0.16797-0.015625-0.33594-0.015625-0.48438 2.75 0.1875 5.543 0.82422 8.457 1.4961 5.8398 1.3438 11.887 2.7305 18.121 0.39062 4.1523-1.5547 6.0352-3.7656 5.6055-6.5586-0.96484-6.1797-14.504-6.9219-15.094-6.9492-1.0234-0.050781-2.0508-0.019531-3.0664 0.007812-1.9883 0.035157-3.668 0.097657-5.0117-0.48828-1.1562-0.51172-2.3242-1.3516-3.5703-2.2461-1.6602-1.1953-3.5508-2.5469-5.8086-3.3867-1.9375-0.71484-3.8086-0.97266-5.6211-1.2188-2.0508-0.28516-3.8281-0.52344-5.4102-1.3867-2.4219-1.3086-6.0742-6.2734-7.832-9.9062l-5.7734-11.879-0.96094 13.168c-0.027344 0.34375-0.042969 0.6875-0.054688 1.0352-0.82031-0.60156-1.7773-1.0156-2.9609-1.0586-2.0039-0.14062-3.5898 0.875-5.0898 2.793-0.97266 1.2383-1.5039 2.4844-1.9805 3.5781-0.43359 1-0.77734 1.793-1.3867 2.4766l-1.1055 1.2617c-1.6367 1.8828-3.0586 3.5-4.8164 4.4375-2.332 1.2461-11.844 2.2891-13.781 1.3086-1.168-1.1562-0.76953-7.1953-0.55859-9.8984 0.91016-0.050781 1.9102-0.070313 2.8984-0.097656 3.8984-0.089844 7.9258-0.18359 10.781-1.6719 4.1641-2.1836 5.7266-6.2422 3.8906-10.094-1.2109-2.5352-3.5352-3.2891-5.0742-3.7852-0.21094-0.070313-0.46875-0.14844-0.71484-0.25781 0.72656-0.30078 1.6797-0.60938 2.3516-0.83203 2.2969-0.75 4.668-1.5273 6.3086-3.1992 1.1484-1.168 1.8359-2.4844 2.3867-3.543 0.42578-0.82031 0.79687-1.5273 1.2266-1.8906 1.0859-0.92578 3.0859-1.3711 5.0117-1.8047 0.89453-0.19531 1.7695-0.39844 2.6055-0.63672l2.4414-0.70703 0.11719-2.5352c0.0625-1.2461 0.097657-2.4648 0.125-3.6602 0.050781-2.3164 0.097657-4.5352 0.39062-6.7422 0.73438-0.125 1.4141-0.28125 2.0352-0.42578 0.21094-0.050781 0.40625-0.089843 0.59375-0.14062 0.39063 1.3242 0.94531 2.4922 1.4414 3.5352 0.37891 0.80469 0.76953 1.6016 1.0273 2.4492l0.54688 1.7578 1.7578 0.56641c5.3984 1.7422 9.0234-2.5117 11.18-5.0469 0.65234-0.76172 1.2617-1.5117 1.8984-2.0508l1.3359-1.0781c3.2539-2.5469 4.0938-4.0117 3.8789-9.3945-0.11328-2.5703-0.070313-5.0742-0.035157-7.582 0.042969-2.6055 0.078126-5.1992-0.027343-7.8477l-0.14844-3.6328-3.625 0.23828c-5.6484 0.37109-7.7617 6.5156-9.6406 11.949-0.78516 2.2812-2.2539 6.5391-3.2539 7.0195-0.15234-0.019531-0.66406-0.44922-0.99219-0.73438-0.94531-0.80469-2.3711-2.0234-4.5078-2.2969-4.0586-0.52344-5.8945 1.0586-7.2188 2.8555-0.34375 0.46875-0.38672 0.49609-0.51953 0.55859-0.64453 0.30078-2.2617 0.94531-3.0938 0.23828-0.6875-0.57422-1.1562-2.1562-0.56641-4.2695 0.43359-1.5625 1.043-1.8984 2.6797-2.8125 1.4766-0.82422 3.3125-1.8555 4.9062-3.9844 1.8984-2.5273 2.1641-5.3672 2.3789-7.6445 0.054688-0.67188 0.11719-1.3359 0.23047-1.9961 0.85547-5.0664 4.8164-10.246 10.586-13.852 5.8438-3.6484 12.426-4.9219 17.605-3.4102 2.6602 0.77734 6.5859 2.2266 8.3242 3.2266 1.0977 0.62109 1.9102 1.4648 2.8477 2.4375 1.582 1.6328 3.543 3.6602 7.1328 4.6836 3.4453 0.98828 5.6289 0.77734 8.6797 0.027344 3.3398-0.82031 5.2656-2.3867 6.957-3.7734 0.94531-0.76172 1.7578-1.4219 2.8008-1.9609 0.52344-0.27344 1.2891-0.32031 2.2383-0.39062 1.1758-0.085938 2.6445-0.18359 4.1367-0.8125l6.3711-2.6523-1.2109-0.74219c0.96484-0.31641 1.8047-0.71484 2.6094-1.0938 0.49609-0.23828 1.0234-0.48828 1.6172-0.73437 0.73437-0.29297 1.2812-0.47656 1.6875-0.61719 2.7852-0.92969 3.4219-2.0352 4.3945-4.7109l0.28516-0.78516c0.73438-1.9609 0.76953-4.2266 0.80469-6.4258 0.027344-1.2109 0.0625-3.2344 0.32031-3.7812 0.35547-0.64453 2.5-0.51172 4.0742-0.43359 0.11328 0.007813 0.21094 0.007813 0.32812 0.007813l0.007812 0.53906 1.9414-0.007812c1.8555-0.019532 3.7461-0.007813 5.5234-0.24609l2.6172-0.33984 0.42188-2.6055c0.14062-0.84766 0.39062-2.8477 0.054687-4.6484 3.0156-0.84766 10.633-8.918 11.695-11.152 1.2188-2.582 1.3633-4.9961 1.457-6.6133 0.46094 0.089844 1.0859 0.24609 1.8984 0.48438l3.668 1.0625 0.78906-3.7383c0.24609-1.1758 0.41406-2.3711 0.58984-3.5781 0.097657-0.69922 0.1875-1.3984 0.30859-2.0938 5.6758-2.2188 10.215 1.2266 16.848 6.8477 5.9727 5.0547 12.719 10.793 21.434 8.7305l3.1992-0.75781-0.51172-3.2422c-0.035156-0.21094 0.015625-0.69141 0.0625-1.1328 3.4297 0.019532 5.8438 0.44141 9.1211 2.0078 4.2578 2.0352 9.0508 4.332 15.43 3.6836l3.0156-0.30859 0.16016-3.0234c0.17578-3.2617-0.14844-5.9414-0.57422-8.457 0.42188 0.83203 1.0273 1.6875 1.9727 2.4297 3.0781 2.4375 8.4961 1.8633 12.859 1.3984 0.92969-0.097656 1.7656-0.1875 2.4141-0.22266 3.2969-0.16016 5.0977 0.32031 8.3594 1.1836 4.4023 1.1758 8.3516 1.5273 13.531-0.29297 3.9766 2.8984 10.242 0.089844 13.551-1.3789 0.69141-0.30859 1.3164-0.58984 1.8281-0.78516 5.418-2.0508 13.48-4.2891 21.363-3.2148 3.1445 0.42578 6.3984 0.69141 9.7148 0.96094 2.4727 0.20312 4.9688 0.40625 7.4688 0.6875 3.4453 0.38672 3.5859 0.88281 3.5781 0.89062 0.007812 0.050781 0.0625 0.54688-0.44922 1.707l-0.875 2.3516 1.7695 1.7148c0.48828 0.46875 1.2031 1.9453 1.4492 2.9453-0.65234 0.042969-1.5469 0.007812-2.1562-0.015625-0.89062-0.042969-1.75-0.078125-2.4766-0.015625l-3.1719 0.1875-0.1875 3.9219c-0.22266 4.3047-0.43359 8.3633 2.3047 12.516 1.1562 1.75 2.5742 2.8633 3.6172 3.668 0.13281 0.097656 0.28125 0.21875 0.42578 0.32812-0.1875 0.24609-0.47656 0.57422-0.92969 1-1.1836 0.35547-3.3867 1.0234-4.9648 3.5859-1.1211 1.8359-1.2656 4.0898-1.3867 6.082-0.050782 0.76953-0.070313 1.5039-0.20312 2.0938-0.16016 0.66406-0.50391 1.7148-0.89453 2.7422l-1.1133-0.070312c0.30078 0.019531 0.66406 0.16016 0.99219 0.38672-0.015625 0.042969-0.035156 0.089844-0.054688 0.14062l-1.7422 0.79688-5.4961-0.69141c-0.11328 0.89453-0.28125 1.7578-0.44141 2.6094-0.51953 2.7031-1.0977 5.7617-0.085938 9.3086 0.60938 2.1211 1.6953 3.8711 2.6523 5.418 1.3281 2.1641 2.1562 3.5781 2.0312 5.3203-0.125 1.7695-1.2109 4.2227-2.2617 6.5859-0.78906 1.7773-1.6016 3.6172-2.1289 5.3984-1.2109-1.7852-2.8008-2.8789-4.0586-3.7383-1.0273-0.70703-1.8477-1.2617-2.2695-1.9805-1.4648-2.5078-0.75-8.0859-0.125-12.992 0.55469-4.2266 1.1133-8.5977 0.60156-12.312l-0.15234-1.1211-0.76172-0.82422c-1.582-1.6797-3.7852-3.1367-5.9219-3.8906l-4.4453-1.582-0.28125 4.7031c-0.11328 1.8281-0.11328 3.6836-0.11328 5.543v1.7852c-5.3125 0.72656-8.8555 3.3516-12.039 5.7266-1.7773 1.3242-3.457 2.5742-5.4609 3.5781-0.52344 0.26562-1.2266 0.48828-1.9727 0.75781-2.8789 1-6.8398 2.3789-8.1562 6.0078-0.77734 2.1406-0.42578 4.4883 1.0352 6.9375 1.6523 2.8086 9.8633 6.2031 9.9531 6.2383 1.5469 0.60156 3.1992 0.82031 4.6406 1.0078 0.91797 0.125 2.3047 0.30078 2.6172 0.48438 0.48438 0.44141 1 2.2344 1.3359 3.4297 0.33594 1.2031 0.6875 2.3789 1.1289 3.3516 0.45312 1.0273 0.98828 2.1367 1.5312 3.2812 0.89453 1.8906 1.8633 3.8984 2.6328 5.832-0.75-0.83203-1.6641-1.5195-2.7305-2.0234l-5.4453-2.5742 0.39844 6.0117c0.17578 2.7383-2.6602 10.113-4.4102 12.18-0.91797 1.0703-1.8477 1.5039-3.0312 2.0508-2.2617 1.0508-5.3633 2.4844-6.2148 7.9883-0.24609 1.6172 0.054688 3.8516 0.59375 7.6523 0.14844 1.0234 0.36328 2.5547 0.55859 4.2422-0.67969-1.0703-1.5195-2.0781-2.3438-3.0664-1.0586-1.2539-2.1484-2.5547-2.625-3.7109l-1.3008-3.1211-3.1836 1.1562c-7.9609 2.8906-4.668 14.188-2.9062 20.266 0.25781 0.875 0.47656 1.6328 0.62109 2.2188l0.44141 1.8281c1.6992 6.8125 3.0391 12.188-1.043 17.586-1.875 2.4844-4.2422 3.5625-7.2578 4.9297-1.625 0.73438-3.2773 1.4922-4.8867 2.4766-0.45312 0.27344-0.83984 0.57422-1.168 0.90234l0.27344-1.5547-4.4609 0.23828c-3.5781 0.1875-5.3125 1.9336-6.1406 3.3594-1.625 2.8008-1.1406 6.6914 1.4766 11.871l0.76172 1.4844c1.7656 3.3516 2.5547 4.8711 1.4141 7.9453-0.69922 1.8906-1.2656 2.6445-1.2969 2.8789-0.75-0.36328-2.1641-1.7773-3.0391-2.6445-1.5273-1.5273-3.1016-3.1016-4.957-3.9258l-4.668-2.0781-0.46875 7.0625c-0.22266 2.625-0.48438 5.5352-0.054688 8.1133-0.92578-0.54688-1.6523-1.1289-2.0156-1.7695-0.25781-0.53125 0.015625-2.4922 0.17578-3.6602 0.30078-2.1016 0.60938-4.2578 0.035156-6.3477-1.0312-3.8516-2.3828-5.082-4.6562-6.1328zm-143.93-39.621h0.085937c0.84766-0.019531 1.6875-0.050781 2.5273-0.007813 1.2305 0.0625 2.6445 0.26562 3.9766 0.53125-2.0664 0.19922-4.2656-0.074218-6.5898-0.52344zm-27.672-62.535c5.1172-0.21875 7.3867-5.7188 9.1133-10.668 0 1.2305 0.019531 2.4727 0.070313 3.7227 0.089844 1.918 0 2.4766 0.007812 2.5391-0.13281 0.16016-0.70703 0.61719-1.168 0.98047l-1.5117 1.2188c-0.92578 0.77734-1.8359 1.8203-2.7578 2.9062-1.0273 1.2109-1.7773 2.043-2.3789 2.5-0.10547-0.22266-0.21875-0.44922-0.32031-0.67188-0.44531-0.94141-0.82813-1.7578-1.0547-2.5273z" fill="#FFFFFF" stroke="#FFFFFF" stroke-linecap="round" stroke-linejoin="round" stroke-miterlimit="10" stroke-width="1"/>
  <path d="m576.63 384.54c1.2891-0.42578 3.0039-0.78906 4.9492-1.0977 3.9688 1.1602 8.1289 2.1367 11.719 2.1367 4.2773 0 7.75-1.3867 9.1641-5.4961l1.5039-4.4102-4.6562-0.26562c-4.0898-0.24609-11.074-0.035156-17.148 0.78516-1.0977-0.32812-2.2812-0.69141-3.5703-1.0977-3.3516-1.0625-5.9922-1.9102-7.9531-2.1562l-0.86719 7.0352c1.1758 0.14844 3.4219 0.84766 5.8945 1.625z" fill="#FFFFFF" stroke="#FFFFFF" stroke-linecap="round" stroke-linejoin="round" stroke-miterlimit="10" stroke-width="1"/>
  <path d="m576.23 369.41 2.3594-0.054687c4.8594-0.042969 9.8984-0.078125 11.094-8.9023 0.39844-2.9102 1.1953-8.9531-6.0898-11.039l-0.84766 2.9414-2.7305-2.5273c-0.78516 0.83984-2.7227 1.3867-4.5938 1.9102-3.7383 1.0508-9.3867 2.6445-9.9531 9.0352-0.24609 2.7227 0.37109 4.8789 1.8281 6.418 1.8477 1.9375 4.3672 2.2734 6.8516 2.2734 0.70312 0 1.4102-0.027344 2.082-0.054688zm-3.6953-8.0156c0.11328-1.2539 0.97266-1.7578 4.8164-2.8359 1.7148-0.48828 3.5977-1.0234 5.2773-1.9453 0.097656 0.0625 0.13281 0.10547 0.13281 0.10547 0.14844 0.28125 0.11328 1.2188-0.097656 2.7773-0.28125 2.0352-0.63672 2.5117-0.62109 2.5117-0.42578 0.23047-2.1367 0.24609-4.1914 0.25781l-1.8984 0.054687c-1.168 0.050782-3.1211 0.125-3.3828 0.15234-0.007812 0.007813-0.10547-0.27344-0.035156-1.0781z" fill="#FFFFFF" stroke="#FFFFFF" stroke-linecap="round" stroke-linejoin="round" stroke-miterlimit="10" stroke-width="1"/>
  <path d="m667.24 367.53c-2.9961-1.8984-6.8516-2.3047-9.5742-2.3086l-0.007812 3.0117c-0.019531 0.007812-0.035156 0.007812-0.054688 0.015625l0.054688 0.31641-0.007812 3.7578c0.23828 0 0.47656 0.007813 0.71484 0.015626l0.53125 2.8789c1.6172-0.27344 5.1445 0.92969 8.3438 2.5117 1.4492 1.5273 3.2773 2.8906 5.6836 2.8906 0.14844 0 0.30859-0.007813 0.45312-0.015626l9.8633-0.69922-8.0586-5.7266c-0.60156-0.43359-1.8398-1.2109-3.4492-2.0781-0.21875-0.25391-0.42578-0.51953-0.60156-0.72656-1.0625-1.3398-2.293-2.8438-3.8906-3.8438z" fill="#FFFFFF" stroke="#FFFFFF" stroke-linecap="round" stroke-linejoin="round" stroke-miterlimit="10" stroke-width="1"/>
  <path d="m684.96 399.82 4.6758-1.3594-0.19531-5.4531c-1.5977 0.0625-2.9414 0.73438-3.8086 1.9023-0.66406 0.89453-1.332 2.4805-0.67188 4.9102z" fill="#FFFFFF" stroke="#FFFFFF" stroke-linecap="round" stroke-linejoin="round" stroke-miterlimit="10" stroke-width="1"/>
  <path d="m680.62 404.88 1.1953 6.0625 5.4961-3.1797c-1.332-2.3164-3.8789-3.4141-6.6914-2.8828z" fill="#FFFFFF" stroke="#FFFFFF" stroke-linecap="round" stroke-linejoin="round" stroke-miterlimit="10" stroke-width="1"/>
  <path d="m425.74 262.43-2.8477 0.070312c-3.3516 0.13281-6.3711-0.60156-9.6406-1.3242-1.8672-0.41406-3.7109-0.82031-5.5859-1.0938l0.27344-1.1289c-4.3203-1.0273-6.6914 0.13281-7.9023 1.3008-0.83203 0.79688-2.1406 2.6055-1.5312 5.6836l0.55469 2.8125 2.8711 0.042969c2.4297 0.035156 5.6055 1.4219 8.6797 2.7578 3.6133 1.5742 7.3281 3.1992 10.934 3.1992 0.70703 0 1.4141-0.0625 2.1133-0.20312l2.1484-0.42578 0.58203-2.1055c0.55859-2.0234 0.44922-5.1172 0.027343-6.832z" fill="#FFFFFF" stroke="#FFFFFF" stroke-linecap="round" stroke-linejoin="round" stroke-miterlimit="10" stroke-width="1"/>
  <path d="m447.66 264.7c-0.24609-0.15234-0.58203-0.39062-0.65234-0.23828-0.035157-0.60938 0.054687-1.8398 0.097656-2.4727 0.0625-0.80469 0.10547-1.5117 0.089844-1.9688l-0.085938-2.9609-2.9414-0.44141c-1.0156-0.14844-2.0352-0.17578-3.0742-0.10547l0.125 1.5117-5.0664-0.30859c-0.98047 0.72656-2.8203 2.0938-3.0469 5.0273-0.25781 3.4922 2.1367 6.0625 3.7109 7.7617l0.6875 0.74219c0.77734 0.91016 1.5312 1.6602 2.2188 2.3438 1.9609 1.9453 2.4844 2.4727 2.3672 5.1875l-0.39844 8.457 6.3008-5.6562c4.332-3.8984 5.1641-8.6445 2.4766-14.125-0.65234-1.3594-1.8516-2.1367-2.8086-2.7539z" fill="#FFFFFF" stroke="#FFFFFF" stroke-linecap="round" stroke-linejoin="round" stroke-miterlimit="10" stroke-width="1"/>
  <path d="m237.39 477.54-0.14062 0.46875-2.4766-2.1719c-0.86719 0.89453-2.6602 2.7773-1.75 6.0547l0.53906 1.9336 1.9258 0.53125c1.5664 0.43359 3.3398 0.875 5.1797 0.875 0.49609 0 1-0.035157 1.5039-0.10547l-1.0234-7.0195c-1.0898 0.18359-2.8281-0.31641-3.7578-0.56641z" fill="#FFFFFF" stroke="#FFFFFF" stroke-linecap="round" stroke-linejoin="round" stroke-miterlimit="10" stroke-width="1"/>
  <path d="m205.84 188.43c-0.86719 2.3438 0.54688 4.7383 2.4023 6.6719-0.042969 0.054688-0.085938 0.10547-0.11719 0.14844l1.4766 1.1406c0.82422 0.72266 1.6445 1.3281 2.3398 1.8047l1.793 1.3867c1.2617-1.4648 9.9062-7 12.02-7.6875l10.207-3.3125-10.164-3.4219c-1.3711-0.46094-2.9961-0.75781-4.6328-0.84766-0.21875-0.48438-0.45312-0.96094-0.6875-1.4336-0.50391-1.0234-0.98828-1.9961-1.1211-2.6953l-1.6445-8.8359-4.8281 7.582c-1.3516 2.1211-2.2617 4.3945-2.9414 6.5586-2.1094 0.28125-3.4805 1.2617-4.1016 2.9414z" fill="#FFFFFF" stroke="#FFFFFF" stroke-linecap="round" stroke-linejoin="round" stroke-miterlimit="10" stroke-width="1"/>
  <path d="m208.5 173.43c-1.3516-1.4414-2.0938-8.8906-1.0781-10.746l-5.9727-3.8281c-2.8008 4.3672-1.8359 16.465 2.5117 20.02z" fill="#FFFFFF" stroke="#FFFFFF" stroke-linecap="round" stroke-linejoin="round" stroke-miterlimit="10" stroke-width="1"/>
  <path d="m189.67 157.75v-1.2383l-0.007813-2.5391v-0.027344-0.046874l-7.0898 0.042968c0 0.86719-0.078125 1.8672-0.14844 2.9258-0.30078 4.3477-0.63672 9.2695 2.2695 12.328 0.53125 0.55859 1.3008 1.1758 2.3438 1.6094l-0.50391 2.2812c1.0625 0.23828 2.0156 0.33594 2.8633 0.33594 3.2539 0 5.0273-1.4844 5.8594-2.5273 1.6523-2.0586 1.875-4.9336 0.59375-7.6914-1.1953-2.5625-3.4688-4.5156-6.1797-5.4531z" fill="#FFFFFF" stroke="#FFFFFF" stroke-linecap="round" stroke-linejoin="round" stroke-miterlimit="10" stroke-width="1"/>
  <path d="m255.35 124.6c-2.457 1.5469-4.2344 2.668-7.6445 3.1133l0.91016 7.0273c4.957-0.64453 7.7773-2.4219 10.508-4.1367 1.0859-0.6875 2.2344-1.4141 3.6406-2.1211l-3.207-6.3242c-1.6172 0.81641-2.9531 1.6562-4.207 2.4414z" fill="#FFFFFF" stroke="#FFFFFF" stroke-linecap="round" stroke-linejoin="round" stroke-miterlimit="10" stroke-width="1"/>
  <path d="m230.39 253.97c0.085937 0.28125 0.17578 0.55469 0.28125 0.82422l0.88281-0.32812c0.875 0.26562 1.8398 0.35156 2.8711 0.23047l-0.16016-1.2539 3.0469-1.1484c-0.51953-1.3594-0.54688-2.9961-0.085938-4.9844l0.91016-3.9336-4.0117-0.39844c-2.4766-0.25391-4.7461 0.76953-5.9414 2.7305-1.168 1.9023-1.1289 4.375 0.11328 6.293 0.53125 0.83594 1.2539 1.5 2.0938 1.9688z" fill="#FFFFFF" stroke="#FFFFFF" stroke-linecap="round" stroke-linejoin="round" stroke-miterlimit="10" stroke-width="1"/>
 </g>
</svg>
